<?xml version="1.0" encoding="UTF-8" standalone="yes"?><svg xmlns="http://www.w3.org/2000/svg" xmlns:xlink="http://www.w3.org/1999/xlink" height="383px" style="width:1256px;height:383px;" version="1.1" viewBox="0 0 1256 383" width="1256px"><defs><filter height="300%" id="f1" width="300%" x="-1" y="-1"><feGaussianBlur result="blurOut" stdDeviation="2.0"/><feColorMatrix in="blurOut" result="blurOut2" type="matrix" values="0 0 0 0 0 0 0 0 0 0 0 0 0 0 0 0 0 0 .4 0"/><feOffset dx="4.0" dy="4.0" in="blurOut2" result="blurOut3"/><feBlend in="SourceGraphic" in2="blurOut3" mode="normal"/></filter></defs><g><polygon fill="#FFFFFF" filter="url(#f1)" points="942.25,276,1019.25,276,1026.25,298.2969,1249.25,298.2969,1249.25,376,942.25,376,942.25,276" style="stroke: #000000; stroke-width: 2.0;"/><line style="stroke: #000000; stroke-width: 2.0;" x1="942.25" x2="1026.25" y1="298.2969" y2="298.2969"/><text fill="#000000" font-family="sans-serif" font-size="14" font-weight="bold" lengthAdjust="spacingAndGlyphs" textLength="71" x="946.25" y="290.9951">argparse</text><rect fill="#FEFECE" filter="url(#f1)" height="48" style="stroke: #A80036; stroke-width: 1.5;" width="134" x="958.25" y="312"/><ellipse cx="973.25" cy="328" fill="#ADD1B2" rx="11" ry="11" style="stroke: #A80036; stroke-width: 1.0;"/><path d="M976.2188,333.6406 Q975.6406,333.9375 975,334.0859 Q974.3594,334.2344 973.6563,334.2344 Q971.1563,334.2344 969.8359,332.5859 Q968.5156,330.9375 968.5156,327.8125 Q968.5156,324.6875 969.8359,323.0313 Q971.1563,321.375 973.6563,321.375 Q974.3594,321.375 975.0078,321.5313 Q975.6563,321.6875 976.2188,321.9844 L976.2188,324.7031 Q975.5938,324.125 975,323.8516 Q974.4063,323.5781 973.7813,323.5781 Q972.4375,323.5781 971.75,324.6484 Q971.0625,325.7188 971.0625,327.8125 Q971.0625,329.9063 971.75,330.9766 Q972.4375,332.0469 973.7813,332.0469 Q974.4063,332.0469 975,331.7734 Q975.5938,331.5 976.2188,330.9219 L976.2188,333.6406 Z "/><text fill="#000000" font-family="sans-serif" font-size="12" lengthAdjust="spacingAndGlyphs" textLength="102" x="987.25" y="332.1543">ArgumentParser</text><line style="stroke: #A80036; stroke-width: 1.5;" x1="959.25" x2="1091.25" y1="344" y2="344"/><line style="stroke: #A80036; stroke-width: 1.5;" x1="959.25" x2="1091.25" y1="352" y2="352"/><rect fill="#FEFECE" filter="url(#f1)" height="48" style="stroke: #A80036; stroke-width: 1.5;" width="106" x="1127.75" y="312"/><ellipse cx="1142.75" cy="328" fill="#ADD1B2" rx="11" ry="11" style="stroke: #A80036; stroke-width: 1.0;"/><path d="M1145.7188,333.6406 Q1145.1406,333.9375 1144.5,334.0859 Q1143.8594,334.2344 1143.1563,334.2344 Q1140.6563,334.2344 1139.3359,332.5859 Q1138.0156,330.9375 1138.0156,327.8125 Q1138.0156,324.6875 1139.3359,323.0313 Q1140.6563,321.375 1143.1563,321.375 Q1143.8594,321.375 1144.5078,321.5313 Q1145.1563,321.6875 1145.7188,321.9844 L1145.7188,324.7031 Q1145.0938,324.125 1144.5,323.8516 Q1143.9063,323.5781 1143.2813,323.5781 Q1141.9375,323.5781 1141.25,324.6484 Q1140.5625,325.7188 1140.5625,327.8125 Q1140.5625,329.9063 1141.25,330.9766 Q1141.9375,332.0469 1143.2813,332.0469 Q1143.9063,332.0469 1144.5,331.7734 Q1145.0938,331.5 1145.7188,330.9219 L1145.7188,333.6406 Z "/><text fill="#000000" font-family="sans-serif" font-size="12" lengthAdjust="spacingAndGlyphs" textLength="74" x="1156.75" y="332.1543">Namespace</text><line style="stroke: #A80036; stroke-width: 1.5;" x1="1128.75" x2="1232.75" y1="344" y2="344"/><line style="stroke: #A80036; stroke-width: 1.5;" x1="1128.75" x2="1232.75" y1="352" y2="352"/><rect fill="#FEFECE" filter="url(#f1)" height="86.4141" style="stroke: #A80036; stroke-width: 1.5;" width="312" x="428.25" y="126"/><ellipse cx="549" cy="142" fill="#B4A7E5" rx="11" ry="11" style="stroke: #A80036; stroke-width: 1.0;"/><path d="M544.9219,137.7656 L544.9219,135.6094 L552.3125,135.6094 L552.3125,137.7656 L549.8438,137.7656 L549.8438,145.8438 L552.3125,145.8438 L552.3125,148 L544.9219,148 L544.9219,145.8438 L547.3906,145.8438 L547.3906,137.7656 L544.9219,137.7656 Z "/><text fill="#000000" font-family="sans-serif" font-size="12" font-style="italic" lengthAdjust="spacingAndGlyphs" textLength="62" x="569.5" y="146.1543">Command</text><line style="stroke: #A80036; stroke-width: 1.5;" x1="429.25" x2="739.25" y1="158" y2="158"/><line style="stroke: #A80036; stroke-width: 1.5;" x1="429.25" x2="739.25" y1="166" y2="166"/><text fill="#000000" font-family="sans-serif" font-size="11" lengthAdjust="spacingAndGlyphs" textLength="194" x="434.25" y="180.2104">name_and_parser_kwargs(): tuple</text><text fill="#000000" font-family="sans-serif" font-size="11" lengthAdjust="spacingAndGlyphs" textLength="300" x="434.25" y="193.0151">configure_parser(parser: argparse.ArgumentParser)</text><text fill="#000000" font-family="sans-serif" font-size="11" lengthAdjust="spacingAndGlyphs" textLength="300" x="434.25" y="205.8198">execute(self, command_args: argparse.Namespace)</text><rect fill="#FEFECE" filter="url(#f1)" height="48" style="stroke: #A80036; stroke-width: 1.5;" width="115" x="6" y="312"/><ellipse cx="21" cy="328" fill="#ADD1B2" rx="11" ry="11" style="stroke: #A80036; stroke-width: 1.0;"/><path d="M23.9688,333.6406 Q23.3906,333.9375 22.75,334.0859 Q22.1094,334.2344 21.4063,334.2344 Q18.9063,334.2344 17.5859,332.5859 Q16.2656,330.9375 16.2656,327.8125 Q16.2656,324.6875 17.5859,323.0313 Q18.9063,321.375 21.4063,321.375 Q22.1094,321.375 22.7578,321.5313 Q23.4063,321.6875 23.9688,321.9844 L23.9688,324.7031 Q23.3438,324.125 22.75,323.8516 Q22.1563,323.5781 21.5313,323.5781 Q20.1875,323.5781 19.5,324.6484 Q18.8125,325.7188 18.8125,327.8125 Q18.8125,329.9063 19.5,330.9766 Q20.1875,332.0469 21.5313,332.0469 Q22.1563,332.0469 22.75,331.7734 Q23.3438,331.5 23.9688,330.9219 L23.9688,333.6406 Z "/><text fill="#000000" font-family="sans-serif" font-size="12" lengthAdjust="spacingAndGlyphs" textLength="83" x="35" y="332.1543">ListCommand</text><line style="stroke: #A80036; stroke-width: 1.5;" x1="7" x2="120" y1="344" y2="344"/><line style="stroke: #A80036; stroke-width: 1.5;" x1="7" x2="120" y1="352" y2="352"/><rect fill="#FEFECE" filter="url(#f1)" height="48" style="stroke: #A80036; stroke-width: 1.5;" width="118" x="156.25" y="312"/><ellipse cx="171.25" cy="328" fill="#ADD1B2" rx="11" ry="11" style="stroke: #A80036; stroke-width: 1.0;"/><path d="M174.2188,333.6406 Q173.6406,333.9375 173,334.0859 Q172.3594,334.2344 171.6563,334.2344 Q169.1563,334.2344 167.8359,332.5859 Q166.5156,330.9375 166.5156,327.8125 Q166.5156,324.6875 167.8359,323.0313 Q169.1563,321.375 171.6563,321.375 Q172.3594,321.375 173.0078,321.5313 Q173.6563,321.6875 174.2188,321.9844 L174.2188,324.7031 Q173.5938,324.125 173,323.8516 Q172.4063,323.5781 171.7813,323.5781 Q170.4375,323.5781 169.75,324.6484 Q169.0625,325.7188 169.0625,327.8125 Q169.0625,329.9063 169.75,330.9766 Q170.4375,332.0469 171.7813,332.0469 Q172.4063,332.0469 173,331.7734 Q173.5938,331.5 174.2188,330.9219 L174.2188,333.6406 Z "/><text fill="#000000" font-family="sans-serif" font-size="12" lengthAdjust="spacingAndGlyphs" textLength="86" x="185.25" y="332.1543">RunCommand</text><line style="stroke: #A80036; stroke-width: 1.5;" x1="157.25" x2="273.25" y1="344" y2="344"/><line style="stroke: #A80036; stroke-width: 1.5;" x1="157.25" x2="273.25" y1="352" y2="352"/><rect fill="#FEFECE" filter="url(#f1)" height="48" style="stroke: #A80036; stroke-width: 1.5;" width="158" x="309.75" y="312"/><ellipse cx="324.75" cy="328" fill="#ADD1B2" rx="11" ry="11" style="stroke: #A80036; stroke-width: 1.0;"/><path d="M327.7188,333.6406 Q327.1406,333.9375 326.5,334.0859 Q325.8594,334.2344 325.1563,334.2344 Q322.6563,334.2344 321.3359,332.5859 Q320.0156,330.9375 320.0156,327.8125 Q320.0156,324.6875 321.3359,323.0313 Q322.6563,321.375 325.1563,321.375 Q325.8594,321.375 326.5078,321.5313 Q327.1563,321.6875 327.7188,321.9844 L327.7188,324.7031 Q327.0938,324.125 326.5,323.8516 Q325.9063,323.5781 325.2813,323.5781 Q323.9375,323.5781 323.25,324.6484 Q322.5625,325.7188 322.5625,327.8125 Q322.5625,329.9063 323.25,330.9766 Q323.9375,332.0469 325.2813,332.0469 Q325.9063,332.0469 326.5,331.7734 Q327.0938,331.5 327.7188,330.9219 L327.7188,333.6406 Z "/><text fill="#000000" font-family="sans-serif" font-size="12" lengthAdjust="spacingAndGlyphs" textLength="126" x="338.75" y="332.1543">DataStoreCommand</text><line style="stroke: #A80036; stroke-width: 1.5;" x1="310.75" x2="466.75" y1="344" y2="344"/><line style="stroke: #A80036; stroke-width: 1.5;" x1="310.75" x2="466.75" y1="352" y2="352"/><rect fill="#FEFECE" filter="url(#f1)" height="48" style="stroke: #A80036; stroke-width: 1.5;" width="163" x="503" y="312"/><ellipse cx="518" cy="328" fill="#ADD1B2" rx="11" ry="11" style="stroke: #A80036; stroke-width: 1.0;"/><path d="M520.9688,333.6406 Q520.3906,333.9375 519.75,334.0859 Q519.1094,334.2344 518.4063,334.2344 Q515.9063,334.2344 514.5859,332.5859 Q513.2656,330.9375 513.2656,327.8125 Q513.2656,324.6875 514.5859,323.0313 Q515.9063,321.375 518.4063,321.375 Q519.1094,321.375 519.7578,321.5313 Q520.4063,321.6875 520.9688,321.9844 L520.9688,324.7031 Q520.3438,324.125 519.75,323.8516 Q519.1563,323.5781 518.5313,323.5781 Q517.1875,323.5781 516.5,324.6484 Q515.8125,325.7188 515.8125,327.8125 Q515.8125,329.9063 516.5,330.9766 Q517.1875,332.0469 518.5313,332.0469 Q519.1563,332.0469 519.75,331.7734 Q520.3438,331.5 520.9688,330.9219 L520.9688,333.6406 Z "/><text fill="#000000" font-family="sans-serif" font-size="12" lengthAdjust="spacingAndGlyphs" textLength="131" x="532" y="332.1543">WorkspaceCommand</text><line style="stroke: #A80036; stroke-width: 1.5;" x1="504" x2="665" y1="344" y2="344"/><line style="stroke: #A80036; stroke-width: 1.5;" x1="504" x2="665" y1="352" y2="352"/><rect fill="#FEFECE" filter="url(#f1)" height="48" style="stroke: #A80036; stroke-width: 1.5;" width="222" x="701.75" y="312"/><ellipse cx="716.75" cy="328" fill="#ADD1B2" rx="11" ry="11" style="stroke: #A80036; stroke-width: 1.0;"/><path d="M719.7188,333.6406 Q719.1406,333.9375 718.5,334.0859 Q717.8594,334.2344 717.1563,334.2344 Q714.6563,334.2344 713.3359,332.5859 Q712.0156,330.9375 712.0156,327.8125 Q712.0156,324.6875 713.3359,323.0313 Q714.6563,321.375 717.1563,321.375 Q717.8594,321.375 718.5078,321.5313 Q719.1563,321.6875 719.7188,321.9844 L719.7188,324.7031 Q719.0938,324.125 718.5,323.8516 Q717.9063,323.5781 717.2813,323.5781 Q715.9375,323.5781 715.25,324.6484 Q714.5625,325.7188 714.5625,327.8125 Q714.5625,329.9063 715.25,330.9766 Q715.9375,332.0469 717.2813,332.0469 Q717.9063,332.0469 718.5,331.7734 Q719.0938,331.5 719.7188,330.9219 L719.7188,333.6406 Z "/><text fill="#000000" font-family="sans-serif" font-size="12" lengthAdjust="spacingAndGlyphs" textLength="190" x="730.75" y="332.1543">WorkspaceResourceCommand</text><line style="stroke: #A80036; stroke-width: 1.5;" x1="702.75" x2="922.75" y1="344" y2="344"/><line style="stroke: #A80036; stroke-width: 1.5;" x1="702.75" x2="922.75" y1="352" y2="352"/><polygon fill="#FBFB77" filter="url(#f1)" points="810,156.5,810,181.6328,949,181.6328,949,166.5,939,156.5,810,156.5" style="stroke: #A80036; stroke-width: 1.0;"/><polygon fill="#FBFB77" points="810,156.5,810,165,740.393,169,810,173,810,181.6328,949,181.6328,949,166.5,939,156.5,810,156.5" style="stroke: #A80036; stroke-width: 1.0;"/><line style="stroke: #A80036; stroke-width: 1.0;" x1="939" x2="939" y1="156.5" y2="166.5"/><line style="stroke: #A80036; stroke-width: 1.0;" x1="949" x2="939" y1="166.5" y2="166.5"/><text fill="#000000" font-family="sans-serif" font-size="13" lengthAdjust="spacingAndGlyphs" textLength="118" x="816" y="173.5669">Command pattern</text><rect fill="#FEFECE" filter="url(#f1)" height="49.25" style="stroke: #A80036; stroke-width: 1.5;" width="144" x="512.25" y="11.5"/><text fill="#000000" font-family="sans-serif" font-size="12" lengthAdjust="spacingAndGlyphs" textLength="45" x="561.75" y="24.6387">globals</text><line style="stroke: #A80036; stroke-width: 1.5;" x1="513.25" x2="655.25" y1="29.4688" y2="29.4688"/><text fill="#000000" font-family="sans-serif" font-size="10" lengthAdjust="spacingAndGlyphs" textLength="132" x="518.25" y="42.751">COMMAND_REGISTRY: list</text><text fill="#000000" font-family="sans-serif" font-size="10" lengthAdjust="spacingAndGlyphs" textLength="32" x="518.25" y="54.3916">main()</text><polygon fill="#FBFB77" filter="url(#f1)" points="726,8.5,726,63.8984,993,63.8984,993,18.5,983,8.5,726,8.5" style="stroke: #A80036; stroke-width: 1.0;"/><polygon fill="#FBFB77" points="726,8.5,726,32,656.491,36,726,40,726,63.8984,993,63.8984,993,18.5,983,8.5,726,8.5" style="stroke: #A80036; stroke-width: 1.0;"/><line style="stroke: #A80036; stroke-width: 1.0;" x1="983" x2="983" y1="8.5" y2="18.5"/><line style="stroke: #A80036; stroke-width: 1.0;" x1="993" x2="983" y1="18.5" y2="18.5"/><text fill="#000000" font-family="sans-serif" font-size="13" lengthAdjust="spacingAndGlyphs" textLength="246" x="732" y="25.5669">COMMAND_REGISTRY is a mutable list.</text><text fill="#000000" font-family="sans-serif" font-size="13" lengthAdjust="spacingAndGlyphs" textLength="222" x="732" y="40.6997">Cate-plugins can extend the CLI by</text><text fill="#000000" font-family="sans-serif" font-size="13" lengthAdjust="spacingAndGlyphs" textLength="181" x="732" y="55.8325">adding new commands to it.</text><path d="M408.378,187.504 C323.281,201.146 221.735,225.308 138.25,268 C117.109,278.811 97.263,297.0447 83.303,311.7631 " fill="none" style="stroke: #A80036; stroke-width: 1.0; stroke-dasharray: 7.0,7.0;"/><polygon fill="none" points="407.399,180.572,428.229,184.463,409.519,194.411,407.399,180.572" style="stroke: #A80036; stroke-width: 1.0;"/><path d="M408.779,215.986 C368.811,229.881 327.479,247.129 291.25,268 C270.827,279.766 250.961,297.5715 236.665,311.8702 " fill="none" style="stroke: #A80036; stroke-width: 1.0; stroke-dasharray: 7.0,7.0;"/><polygon fill="none" points="406.762,209.279,427.95,209.535,411.227,222.548,406.762,209.279" style="stroke: #A80036; stroke-width: 1.0;"/><path d="M518.691,225.19 C483.633,254.703 442.333,289.471 415.745,311.8538 " fill="none" style="stroke: #A80036; stroke-width: 1.0; stroke-dasharray: 7.0,7.0;"/><polygon fill="none" points="514.475,219.589,534.284,212.063,523.492,230.299,514.475,219.589" style="stroke: #A80036; stroke-width: 1.0;"/><path d="M584.25,232.463 C584.25,260.259 584.25,291.286 584.25,311.8538 " fill="none" style="stroke: #A80036; stroke-width: 1.0; stroke-dasharray: 7.0,7.0;"/><polygon fill="none" points="577.25,232.063,584.25,212.063,591.25,232.063,577.25,232.063" style="stroke: #A80036; stroke-width: 1.0;"/><path d="M658.589,223.798 C699.775,253.603 748.85,289.118 780.266,311.8538 " fill="none" style="stroke: #A80036; stroke-width: 1.0; stroke-dasharray: 7.0,7.0;"/><polygon fill="none" points="654.472,229.46,642.374,212.063,662.68,218.118,654.472,229.46" style="stroke: #A80036; stroke-width: 1.0;"/><path d="M740.35,198.752 C804.435,214.132 878.035,236.547 940.25,268 C961.12,278.551 981.787,294.6775 997.516,308.4655 " fill="none" style="stroke: #A80036; stroke-width: 1.0; stroke-dasharray: 7.0,7.0;"/><polygon fill="#A80036" points="1001.405,311.9157,997.3272,302.9507,997.6648,308.5974,992.018,308.935,1001.405,311.9157" style="stroke: #A80036; stroke-width: 1.0;"/><text fill="#000000" font-family="sans-serif" font-size="13" lengthAdjust="spacingAndGlyphs" textLength="81" x="924.25" y="255.0669">&lt;configure&gt;</text><path d="M740.496,202.696 C757.927,206.002 775.447,209.176 792.25,212 C933.774,235.782 985.379,197.277 1110.25,268 C1128.31,278.23 1145.23,294.1652 1157.9,307.9285 " fill="none" style="stroke: #A80036; stroke-width: 1.0; stroke-dasharray: 7.0,7.0;"/><polygon fill="#A80036" points="1161.36,311.7463,1158.2739,302.3934,1157.9999,308.0437,1152.3497,307.7696,1161.36,311.7463" style="stroke: #A80036; stroke-width: 1.0;"/><text fill="#000000" font-family="sans-serif" font-size="13" lengthAdjust="spacingAndGlyphs" textLength="102" x="1089.25" y="255.0669">&lt;execute with&gt;</text><path d="M584.25,74.05 C584.25,86.039 584.25,99.606 584.25,112.626 " fill="none" style="stroke: #A80036; stroke-width: 1.0;"/><polygon fill="#A80036" points="584.25,125.907,588.25,116.907,584.25,120.907,580.25,116.907,584.25,125.907" style="stroke: #A80036; stroke-width: 1.0;"/><line style="stroke: #A80036; stroke-width: 1.0;" x1="584.25" x2="584.25" y1="120.907" y2="112.907"/><polygon fill="#FFFFFF" points="584.25,60.723,580.25,66.723,584.25,72.723,588.25,66.723,584.25,60.723" style="stroke: #A80036; stroke-width: 1.0;"/><text fill="#000000" font-family="sans-serif" font-size="13" lengthAdjust="spacingAndGlyphs" textLength="26" x="555.3688" y="115.0222">3..N</text></g></svg>