<?xml version="1.0" encoding="UTF-8" standalone="yes"?><svg xmlns="http://www.w3.org/2000/svg" xmlns:xlink="http://www.w3.org/1999/xlink" height="430px" style="width:534px;height:430px;" version="1.1" viewBox="0 0 534 430" width="534px"><defs><filter height="300%" id="f1" width="300%" x="-1" y="-1"><feGaussianBlur result="blurOut" stdDeviation="2.0"/><feColorMatrix in="blurOut" result="blurOut2" type="matrix" values="0 0 0 0 0 0 0 0 0 0 0 0 0 0 0 0 0 0 .4 0"/><feOffset dx="4.0" dy="4.0" in="blurOut2" result="blurOut3"/><feBlend in="SourceGraphic" in2="blurOut3" mode="normal"/></filter></defs><g><rect fill="#FEFECE" filter="url(#f1)" height="60.8906" style="stroke: #A80036; stroke-width: 1.5;" width="240" x="6.5" y="27.5"/><text fill="#000000" font-family="sans-serif" font-size="12" lengthAdjust="spacingAndGlyphs" textLength="45" x="104" y="40.6387">globals</text><line style="stroke: #A80036; stroke-width: 1.5;" x1="7.5" x2="245.5" y1="45.4688" y2="45.4688"/><text fill="#000000" font-family="sans-serif" font-size="10" lengthAdjust="spacingAndGlyphs" textLength="219" x="12.5" y="58.751">DATA_STORE_REGISTRY: DataStoreRegistry</text><text fill="#000000" font-family="sans-serif" font-size="10" lengthAdjust="spacingAndGlyphs" textLength="227" x="12.5" y="70.3916">find_data_sources(data_stores, id, query_expr)</text><text fill="#000000" font-family="sans-serif" font-size="10" lengthAdjust="spacingAndGlyphs" textLength="228" x="12.5" y="82.0322">open_dataset(data_source, name, time_range)</text><polygon fill="#FBFB77" filter="url(#f1)" points="31.75,179.5,31.75,234.8984,220.75,234.8984,220.75,189.5,210.75,179.5,31.75,179.5" style="stroke: #A80036; stroke-width: 1.0;"/><polygon fill="#FBFB77" points="31.75,179.5,31.75,234.8984,220.75,234.8984,220.75,189.5,210.75,179.5,130,179.5,126,88.748,122,179.5,31.75,179.5" style="stroke: #A80036; stroke-width: 1.0;"/><line style="stroke: #A80036; stroke-width: 1.0;" x1="210.75" x2="210.75" y1="179.5" y2="189.5"/><line style="stroke: #A80036; stroke-width: 1.0;" x1="220.75" x2="210.75" y1="189.5" y2="189.5"/><text fill="#000000" font-family="sans-serif" font-size="13" lengthAdjust="spacingAndGlyphs" textLength="120" x="37.75" y="196.5669">Plugins can extend</text><text fill="#000000" font-family="sans-serif" font-size="13" lengthAdjust="spacingAndGlyphs" textLength="151" x="37.75" y="211.6997">DATA_STORE_REGISTRY</text><text fill="#000000" font-family="sans-serif" font-size="13" lengthAdjust="spacingAndGlyphs" textLength="168" x="37.75" y="226.8325">by adding new data stores</text><rect fill="#FEFECE" filter="url(#f1)" height="99.2188" style="stroke: #A80036; stroke-width: 1.5;" width="218" x="281" y="8.5"/><ellipse cx="328.75" cy="24.5" fill="#ADD1B2" rx="11" ry="11" style="stroke: #A80036; stroke-width: 1.0;"/><path d="M331.7188,30.1406 Q331.1406,30.4375 330.5,30.5859 Q329.8594,30.7344 329.1563,30.7344 Q326.6563,30.7344 325.3359,29.0859 Q324.0156,27.4375 324.0156,24.3125 Q324.0156,21.1875 325.3359,19.5313 Q326.6563,17.875 329.1563,17.875 Q329.8594,17.875 330.5078,18.0313 Q331.1563,18.1875 331.7188,18.4844 L331.7188,21.2031 Q331.0938,20.625 330.5,20.3516 Q329.9063,20.0781 329.2813,20.0781 Q327.9375,20.0781 327.25,21.1484 Q326.5625,22.2188 326.5625,24.3125 Q326.5625,26.4063 327.25,27.4766 Q327.9375,28.5469 329.2813,28.5469 Q329.9063,28.5469 330.5,28.2734 Q331.0938,28 331.7188,27.4219 L331.7188,30.1406 Z "/><text fill="#000000" font-family="sans-serif" font-size="12" lengthAdjust="spacingAndGlyphs" textLength="114" x="349.25" y="28.6543">DataStoreRegistry</text><line style="stroke: #A80036; stroke-width: 1.5;" x1="282" x2="498" y1="40.5" y2="40.5"/><line style="stroke: #A80036; stroke-width: 1.5;" x1="282" x2="498" y1="48.5" y2="48.5"/><text fill="#000000" font-family="sans-serif" font-size="11" lengthAdjust="spacingAndGlyphs" textLength="193" x="287" y="62.7104">get_data_stores(): List[DataStore]</text><text fill="#000000" font-family="sans-serif" font-size="11" lengthAdjust="spacingAndGlyphs" textLength="190" x="287" y="75.5151">get_data_store(name): DataStore</text><text fill="#000000" font-family="sans-serif" font-size="11" lengthAdjust="spacingAndGlyphs" textLength="184" x="287" y="88.3198">add_data_store(DataStore): void</text><text fill="#000000" font-family="sans-serif" font-size="11" lengthAdjust="spacingAndGlyphs" textLength="206" x="287" y="101.1245">remove_data_store(DataStore): void</text><rect fill="#FEFECE" filter="url(#f1)" height="73.6094" style="stroke: #A80036; stroke-width: 1.5;" width="209" x="285.75" y="170"/><ellipse cx="354" cy="186" fill="#B4A7E5" rx="11" ry="11" style="stroke: #A80036; stroke-width: 1.0;"/><path d="M349.9219,181.7656 L349.9219,179.6094 L357.3125,179.6094 L357.3125,181.7656 L354.8438,181.7656 L354.8438,189.8438 L357.3125,189.8438 L357.3125,192 L349.9219,192 L349.9219,189.8438 L352.3906,189.8438 L352.3906,181.7656 L349.9219,181.7656 Z "/><text fill="#000000" font-family="sans-serif" font-size="12" font-style="italic" lengthAdjust="spacingAndGlyphs" textLength="64" x="374.5" y="190.1543">DataStore</text><line style="stroke: #A80036; stroke-width: 1.5;" x1="286.75" x2="493.75" y1="202" y2="202"/><text fill="#000000" font-family="sans-serif" font-size="11" lengthAdjust="spacingAndGlyphs" textLength="34" x="291.75" y="216.2104">id: str</text><line style="stroke: #A80036; stroke-width: 1.5;" x1="286.75" x2="493.75" y1="222.8047" y2="222.8047"/><text fill="#000000" font-family="sans-serif" font-size="11" font-style="italic" lengthAdjust="spacingAndGlyphs" textLength="197" x="291.75" y="237.0151">query(id, query_expr): DataSource</text><rect fill="#FEFECE" filter="url(#f1)" height="99.2188" style="stroke: #A80036; stroke-width: 1.5;" width="271" x="254.75" y="322.5"/><ellipse cx="349" cy="338.5" fill="#B4A7E5" rx="11" ry="11" style="stroke: #A80036; stroke-width: 1.0;"/><path d="M344.9219,334.2656 L344.9219,332.1094 L352.3125,332.1094 L352.3125,334.2656 L349.8438,334.2656 L349.8438,342.3438 L352.3125,342.3438 L352.3125,344.5 L344.9219,344.5 L344.9219,342.3438 L347.3906,342.3438 L347.3906,334.2656 L344.9219,334.2656 Z "/><text fill="#000000" font-family="sans-serif" font-size="12" font-style="italic" lengthAdjust="spacingAndGlyphs" textLength="74" x="369.5" y="342.6543">DataSource</text><line style="stroke: #A80036; stroke-width: 1.5;" x1="255.75" x2="524.75" y1="354.5" y2="354.5"/><text fill="#000000" font-family="sans-serif" font-size="11" lengthAdjust="spacingAndGlyphs" textLength="34" x="260.75" y="368.7104">id: str</text><line style="stroke: #A80036; stroke-width: 1.5;" x1="255.75" x2="524.75" y1="375.3047" y2="375.3047"/><text fill="#000000" font-family="sans-serif" font-size="11" font-style="italic" lengthAdjust="spacingAndGlyphs" textLength="205" x="260.75" y="389.5151">get_dataset_schema(): cdm.Schema</text><text fill="#000000" font-family="sans-serif" font-size="11" font-style="italic" lengthAdjust="spacingAndGlyphs" textLength="259" x="260.75" y="402.3198">open_dataset(id, time_range): xarray.Dataset</text><text fill="#000000" font-family="sans-serif" font-size="11" font-style="italic" lengthAdjust="spacingAndGlyphs" textLength="98" x="260.75" y="415.1245">sync(time_range)</text><path d="M390,120.662 C390,132.643 390,145.055 390,156.579 " fill="none" style="stroke: #A80036; stroke-width: 1.0;"/><polygon fill="#A80036" points="390,169.62,394,160.62,390,164.62,386,160.62,390,169.62" style="stroke: #A80036; stroke-width: 1.0;"/><line style="stroke: #A80036; stroke-width: 1.0;" x1="390" x2="390" y1="164.62" y2="156.62"/><polygon fill="#FFFFFF" points="390,107.541,386,113.541,390,119.541,394,113.541,390,107.541" style="stroke: #A80036; stroke-width: 1.0;"/><text fill="#000000" font-family="sans-serif" font-size="13" lengthAdjust="spacingAndGlyphs" textLength="10" x="378.082" y="158.9867">N</text><path d="M390,244.175 C390,265.628 390,293.224 390,317.194 " fill="none" style="stroke: #A80036; stroke-width: 1.0; stroke-dasharray: 7.0,7.0;"/><polygon fill="#A80036" points="390,322.2499,394,313.2499,390,317.2499,386,313.2499,390,322.2499" style="stroke: #A80036; stroke-width: 1.0;"/><text fill="#000000" font-family="sans-serif" font-size="13" lengthAdjust="spacingAndGlyphs" textLength="69" x="391" y="287.0669">&lt;provide&gt;</text></g></svg>