<?xml version="1.0" encoding="UTF-8" standalone="yes"?><svg xmlns="http://www.w3.org/2000/svg" xmlns:xlink="http://www.w3.org/1999/xlink" height="281px" style="width:306px;height:281px;" version="1.1" viewBox="0 0 306 281" width="306px"><defs><filter height="300%" id="f1" width="300%" x="-1" y="-1"><feGaussianBlur result="blurOut" stdDeviation="2.0"/><feColorMatrix in="blurOut" result="blurOut2" type="matrix" values="0 0 0 0 0 0 0 0 0 0 0 0 0 0 0 0 0 0 .4 0"/><feOffset dx="4.0" dy="4.0" in="blurOut2" result="blurOut3"/><feBlend in="SourceGraphic" in2="blurOut3" mode="normal"/></filter></defs><g><rect fill="#FEFECE" filter="url(#f1)" height="137.6328" style="stroke: #A80036; stroke-width: 1.5;" width="259" x="37" y="8"/><ellipse cx="138.75" cy="24" fill="#A9DCDF" rx="11" ry="11" style="stroke: #A80036; stroke-width: 1.0;"/><path d="M138.8594,19.3438 L137.7031,24.4219 L140.0313,24.4219 L138.8594,19.3438 Z M137.375,17.1094 L140.3594,17.1094 L143.7188,29.5 L141.2656,29.5 L140.5,26.4375 L137.2188,26.4375 L136.4688,29.5 L134.0313,29.5 L137.375,17.1094 Z "/><text fill="#000000" font-family="sans-serif" font-size="12" font-style="italic" lengthAdjust="spacingAndGlyphs" textLength="47" x="159.25" y="28.1543">Monitor</text><line style="stroke: #A80036; stroke-width: 1.5;" x1="38" x2="295" y1="40" y2="40"/><text fill="#000000" font-family="sans-serif" font-size="11" lengthAdjust="spacingAndGlyphs" text-decoration="underline" textLength="78" x="43" y="54.2104">NULL: Monitor</text><line style="stroke: #000000; stroke-width: 1.0;" x1="43" x2="121" y1="56.2104" y2="56.2104"/><line style="stroke: #A80036; stroke-width: 1.5;" x1="38" x2="295" y1="60.8047" y2="60.8047"/><text fill="#000000" font-family="sans-serif" font-size="11" font-style="italic" lengthAdjust="spacingAndGlyphs" textLength="211" x="43" y="75.0151">start(self, label: str, total_work: float)</text><text fill="#000000" font-family="sans-serif" font-size="11" font-style="italic" lengthAdjust="spacingAndGlyphs" textLength="247" x="43" y="87.8198">progress(self, work: float = None, msg: str)</text><text fill="#000000" font-family="sans-serif" font-size="11" font-style="italic" lengthAdjust="spacingAndGlyphs" textLength="56" x="43" y="100.6245">done(self)</text><text fill="#000000" font-family="sans-serif" font-size="11" lengthAdjust="spacingAndGlyphs" textLength="173" x="43" y="113.4292">child(self, work: float): Monitor</text><text fill="#000000" font-family="sans-serif" font-size="11" lengthAdjust="spacingAndGlyphs" textLength="44" x="43" y="126.2339">cancel()</text><text fill="#000000" font-family="sans-serif" font-size="11" lengthAdjust="spacingAndGlyphs" textLength="109" x="43" y="139.0386">is_cancelled(): bool</text><rect fill="#FEFECE" filter="url(#f1)" height="48" style="stroke: #A80036; stroke-width: 1.5;" width="129" x="6" y="224"/><ellipse cx="21" cy="240" fill="#ADD1B2" rx="11" ry="11" style="stroke: #A80036; stroke-width: 1.0;"/><path d="M23.9688,245.6406 Q23.3906,245.9375 22.75,246.0859 Q22.1094,246.2344 21.4063,246.2344 Q18.9063,246.2344 17.5859,244.5859 Q16.2656,242.9375 16.2656,239.8125 Q16.2656,236.6875 17.5859,235.0313 Q18.9063,233.375 21.4063,233.375 Q22.1094,233.375 22.7578,233.5313 Q23.4063,233.6875 23.9688,233.9844 L23.9688,236.7031 Q23.3438,236.125 22.75,235.8516 Q22.1563,235.5781 21.5313,235.5781 Q20.1875,235.5781 19.5,236.6484 Q18.8125,237.7188 18.8125,239.8125 Q18.8125,241.9063 19.5,242.9766 Q20.1875,244.0469 21.5313,244.0469 Q22.1563,244.0469 22.75,243.7734 Q23.3438,243.5 23.9688,242.9219 L23.9688,245.6406 Z "/><text fill="#000000" font-family="sans-serif" font-size="12" lengthAdjust="spacingAndGlyphs" textLength="97" x="35" y="244.1543">ConsoleMonitor</text><line style="stroke: #A80036; stroke-width: 1.5;" x1="7" x2="134" y1="256" y2="256"/><line style="stroke: #A80036; stroke-width: 1.5;" x1="7" x2="134" y1="264" y2="264"/><rect fill="#FEFECE" filter="url(#f1)" height="48" style="stroke: #A80036; stroke-width: 1.5;" width="109" x="170" y="224"/><ellipse cx="185" cy="240" fill="#ADD1B2" rx="11" ry="11" style="stroke: #A80036; stroke-width: 1.0;"/><path d="M187.9688,245.6406 Q187.3906,245.9375 186.75,246.0859 Q186.1094,246.2344 185.4063,246.2344 Q182.9063,246.2344 181.5859,244.5859 Q180.2656,242.9375 180.2656,239.8125 Q180.2656,236.6875 181.5859,235.0313 Q182.9063,233.375 185.4063,233.375 Q186.1094,233.375 186.7578,233.5313 Q187.4063,233.6875 187.9688,233.9844 L187.9688,236.7031 Q187.3438,236.125 186.75,235.8516 Q186.1563,235.5781 185.5313,235.5781 Q184.1875,235.5781 183.5,236.6484 Q182.8125,237.7188 182.8125,239.8125 Q182.8125,241.9063 183.5,242.9766 Q184.1875,244.0469 185.5313,244.0469 Q186.1563,244.0469 186.75,243.7734 Q187.3438,243.5 187.9688,242.9219 L187.9688,245.6406 Z "/><text fill="#000000" font-family="sans-serif" font-size="12" lengthAdjust="spacingAndGlyphs" textLength="77" x="199" y="244.1543">ChildMonitor</text><line style="stroke: #A80036; stroke-width: 1.5;" x1="171" x2="278" y1="256" y2="256"/><line style="stroke: #A80036; stroke-width: 1.5;" x1="171" x2="278" y1="264" y2="264"/><path d="M117.485,163.846 C104.9601,185.8958 92.5044,207.823 83.5306,223.6205 " fill="none" style="stroke: #A80036; stroke-width: 1.0; stroke-dasharray: 7.0,7.0;"/><polygon fill="none" points="111.515,160.184,127.48,146.252,123.688,167.099,111.515,160.184" style="stroke: #A80036; stroke-width: 1.0;"/><path d="M178.953,165.961 C181.51,175.5911 184.576,185.1147 188.25,194 C192.585,204.485 199.181,215.0286 205.547,223.9197 " fill="none" style="stroke: #A80036; stroke-width: 1.0; stroke-dasharray: 7.0,7.0;"/><polygon fill="none" points="172.073,167.28,174.385,146.216,185.713,164.124,172.073,167.28" style="stroke: #A80036; stroke-width: 1.0;"/><path d="M211.902,211.0211 C206.621,195.6327 200.225,176.9969 193.914,158.608 " fill="none" style="stroke: #A80036; stroke-width: 1.0;"/><polygon fill="#A80036" points="189.674,146.252,188.8122,156.0631,191.2971,150.9812,196.379,153.4661,189.674,146.252" style="stroke: #A80036; stroke-width: 1.0;"/><line style="stroke: #A80036; stroke-width: 1.0;" x1="191.2971" x2="193.8935" y1="150.9812" y2="158.548"/><polygon fill="#FFFFFF" points="216.226,223.6205,218.0616,216.6469,212.3305,212.2704,210.4949,219.2439,216.226,223.6205" style="stroke: #A80036; stroke-width: 1.0;"/><text fill="#000000" font-family="sans-serif" font-size="13" lengthAdjust="spacingAndGlyphs" textLength="99" x="206.25" y="189.0669">parent_monitor</text><text fill="#000000" font-family="sans-serif" font-size="13" lengthAdjust="spacingAndGlyphs" textLength="8" x="182.4062" y="165.6581">1</text></g></svg>