<?xml version="1.0" encoding="UTF-8" standalone="yes"?><svg xmlns="http://www.w3.org/2000/svg" xmlns:xlink="http://www.w3.org/1999/xlink" height="423px" style="width:994px;height:423px;" version="1.1" viewBox="0 0 994 423" width="994px"><defs><filter height="300%" id="f1" width="300%" x="-1" y="-1"><feGaussianBlur result="blurOut" stdDeviation="2.0"/><feColorMatrix in="blurOut" result="blurOut2" type="matrix" values="0 0 0 0 0 0 0 0 0 0 0 0 0 0 0 0 0 0 .4 0"/><feOffset dx="4.0" dy="4.0" in="blurOut2" result="blurOut3"/><feBlend in="SourceGraphic" in2="blurOut3" mode="normal"/></filter></defs><g><polygon fill="#FFFFFF" filter="url(#f1)" points="363,316,456,316,463,338.2969,987,338.2969,987,416,363,416,363,316" style="stroke: #000000; stroke-width: 2.0;"/><line style="stroke: #000000; stroke-width: 2.0;" x1="363" x2="463" y1="338.2969" y2="338.2969"/><text fill="#000000" font-family="sans-serif" font-size="14" font-weight="bold" lengthAdjust="spacingAndGlyphs" textLength="87" x="367" y="330.9951">cate.ops.io</text><rect fill="#FEFECE" filter="url(#f1)" height="48" style="stroke: #A80036; stroke-width: 1.5;" width="110" x="861" y="352"/><ellipse cx="876" cy="368" fill="#ADD1B2" rx="11" ry="11" style="stroke: #A80036; stroke-width: 1.0;"/><path d="M878.9688,373.6406 Q878.3906,373.9375 877.75,374.0859 Q877.1094,374.2344 876.4063,374.2344 Q873.9063,374.2344 872.5859,372.5859 Q871.2656,370.9375 871.2656,367.8125 Q871.2656,364.6875 872.5859,363.0313 Q873.9063,361.375 876.4063,361.375 Q877.1094,361.375 877.7578,361.5313 Q878.4063,361.6875 878.9688,361.9844 L878.9688,364.7031 Q878.3438,364.125 877.75,363.8516 Q877.1563,363.5781 876.5313,363.5781 Q875.1875,363.5781 874.5,364.6484 Q873.8125,365.7188 873.8125,367.8125 Q873.8125,369.9063 874.5,370.9766 Q875.1875,372.0469 876.5313,372.0469 Q877.1563,372.0469 877.75,371.7734 Q878.3438,371.5 878.9688,370.9219 L878.9688,373.6406 Z "/><text fill="#000000" font-family="sans-serif" font-size="12" lengthAdjust="spacingAndGlyphs" textLength="78" x="890" y="372.1543">TextObjectIO</text><line style="stroke: #A80036; stroke-width: 1.5;" x1="862" x2="970" y1="384" y2="384"/><line style="stroke: #A80036; stroke-width: 1.5;" x1="862" x2="970" y1="392" y2="392"/><rect fill="#FEFECE" filter="url(#f1)" height="48" style="stroke: #A80036; stroke-width: 1.5;" width="110" x="716" y="352"/><ellipse cx="731" cy="368" fill="#ADD1B2" rx="11" ry="11" style="stroke: #A80036; stroke-width: 1.0;"/><path d="M733.9688,373.6406 Q733.3906,373.9375 732.75,374.0859 Q732.1094,374.2344 731.4063,374.2344 Q728.9063,374.2344 727.5859,372.5859 Q726.2656,370.9375 726.2656,367.8125 Q726.2656,364.6875 727.5859,363.0313 Q728.9063,361.375 731.4063,361.375 Q732.1094,361.375 732.7578,361.5313 Q733.4063,361.6875 733.9688,361.9844 L733.9688,364.7031 Q733.3438,364.125 732.75,363.8516 Q732.1563,363.5781 731.5313,363.5781 Q730.1875,363.5781 729.5,364.6484 Q728.8125,365.7188 728.8125,367.8125 Q728.8125,369.9063 729.5,370.9766 Q730.1875,372.0469 731.5313,372.0469 Q732.1563,372.0469 732.75,371.7734 Q733.3438,371.5 733.9688,370.9219 L733.9688,373.6406 Z "/><text fill="#000000" font-family="sans-serif" font-size="12" lengthAdjust="spacingAndGlyphs" textLength="78" x="745" y="372.1543">JsonObjectIO</text><line style="stroke: #A80036; stroke-width: 1.5;" x1="717" x2="825" y1="384" y2="384"/><line style="stroke: #A80036; stroke-width: 1.5;" x1="717" x2="825" y1="392" y2="392"/><rect fill="#FEFECE" filter="url(#f1)" height="48" style="stroke: #A80036; stroke-width: 1.5;" width="133" x="547.75" y="352"/><ellipse cx="562.75" cy="368" fill="#ADD1B2" rx="11" ry="11" style="stroke: #A80036; stroke-width: 1.0;"/><path d="M565.7188,373.6406 Q565.1406,373.9375 564.5,374.0859 Q563.8594,374.2344 563.1563,374.2344 Q560.6563,374.2344 559.3359,372.5859 Q558.0156,370.9375 558.0156,367.8125 Q558.0156,364.6875 559.3359,363.0313 Q560.6563,361.375 563.1563,361.375 Q563.8594,361.375 564.5078,361.5313 Q565.1563,361.6875 565.7188,361.9844 L565.7188,364.7031 Q565.0938,364.125 564.5,363.8516 Q563.9063,363.5781 563.2813,363.5781 Q561.9375,363.5781 561.25,364.6484 Q560.5625,365.7188 560.5625,367.8125 Q560.5625,369.9063 561.25,370.9766 Q561.9375,372.0469 563.2813,372.0469 Q563.9063,372.0469 564.5,371.7734 Q565.0938,371.5 565.7188,370.9219 L565.7188,373.6406 Z "/><text fill="#000000" font-family="sans-serif" font-size="12" lengthAdjust="spacingAndGlyphs" textLength="101" x="576.75" y="372.1543">Netcdf4ObjectIO</text><line style="stroke: #A80036; stroke-width: 1.5;" x1="548.75" x2="679.75" y1="384" y2="384"/><line style="stroke: #A80036; stroke-width: 1.5;" x1="548.75" x2="679.75" y1="392" y2="392"/><rect fill="#FEFECE" filter="url(#f1)" height="48" style="stroke: #A80036; stroke-width: 1.5;" width="133" x="379.75" y="352"/><ellipse cx="394.75" cy="368" fill="#ADD1B2" rx="11" ry="11" style="stroke: #A80036; stroke-width: 1.0;"/><path d="M397.7188,373.6406 Q397.1406,373.9375 396.5,374.0859 Q395.8594,374.2344 395.1563,374.2344 Q392.6563,374.2344 391.3359,372.5859 Q390.0156,370.9375 390.0156,367.8125 Q390.0156,364.6875 391.3359,363.0313 Q392.6563,361.375 395.1563,361.375 Q395.8594,361.375 396.5078,361.5313 Q397.1563,361.6875 397.7188,361.9844 L397.7188,364.7031 Q397.0938,364.125 396.5,363.8516 Q395.9063,363.5781 395.2813,363.5781 Q393.9375,363.5781 393.25,364.6484 Q392.5625,365.7188 392.5625,367.8125 Q392.5625,369.9063 393.25,370.9766 Q393.9375,372.0469 395.2813,372.0469 Q395.9063,372.0469 396.5,371.7734 Q397.0938,371.5 397.7188,370.9219 L397.7188,373.6406 Z "/><text fill="#000000" font-family="sans-serif" font-size="12" lengthAdjust="spacingAndGlyphs" textLength="101" x="408.75" y="372.1543">Netcdf3ObjectIO</text><line style="stroke: #A80036; stroke-width: 1.5;" x1="380.75" x2="511.75" y1="384" y2="384"/><line style="stroke: #A80036; stroke-width: 1.5;" x1="380.75" x2="511.75" y1="392" y2="392"/><rect fill="#FEFECE" filter="url(#f1)" height="86.4141" style="stroke: #A80036; stroke-width: 1.5;" width="252" x="566" y="8"/><ellipse cx="636.75" cy="24" fill="#ADD1B2" rx="11" ry="11" style="stroke: #A80036; stroke-width: 1.0;"/><path d="M639.7188,29.6406 Q639.1406,29.9375 638.5,30.0859 Q637.8594,30.2344 637.1563,30.2344 Q634.6563,30.2344 633.3359,28.5859 Q632.0156,26.9375 632.0156,23.8125 Q632.0156,20.6875 633.3359,19.0313 Q634.6563,17.375 637.1563,17.375 Q637.8594,17.375 638.5078,17.5313 Q639.1563,17.6875 639.7188,17.9844 L639.7188,20.7031 Q639.0938,20.125 638.5,19.8516 Q637.9063,19.5781 637.2813,19.5781 Q635.9375,19.5781 635.25,20.6484 Q634.5625,21.7188 634.5625,23.8125 Q634.5625,25.9063 635.25,26.9766 Q635.9375,28.0469 637.2813,28.0469 Q637.9063,28.0469 638.5,27.7734 Q639.0938,27.5 639.7188,26.9219 L639.7188,29.6406 Z "/><text fill="#000000" font-family="sans-serif" font-size="12" lengthAdjust="spacingAndGlyphs" textLength="102" x="657.25" y="28.1543">ObjectIORegistry</text><line style="stroke: #A80036; stroke-width: 1.5;" x1="567" x2="817" y1="40" y2="40"/><text fill="#000000" font-family="sans-serif" font-size="11" lengthAdjust="spacingAndGlyphs" textLength="101" x="572" y="54.2104">object_io_list: List</text><line style="stroke: #A80036; stroke-width: 1.5;" x1="567" x2="817" y1="60.8047" y2="60.8047"/><text fill="#000000" font-family="sans-serif" font-size="11" lengthAdjust="spacingAndGlyphs" textLength="240" x="572" y="75.0151">find_reader(file_obj, format, ext): ObjectIO</text><text fill="#000000" font-family="sans-serif" font-size="11" lengthAdjust="spacingAndGlyphs" textLength="212" x="572" y="87.8198">find_writer(obj, format, ext): ObjectIO</text><rect fill="#FEFECE" filter="url(#f1)" height="137.6328" style="stroke: #A80036; stroke-width: 1.5;" width="153" x="615.75" y="154"/><ellipse cx="662.5" cy="170" fill="#A9DCDF" rx="11" ry="11" style="stroke: #A80036; stroke-width: 1.0;"/><path d="M662.6094,165.3438 L661.4531,170.4219 L663.7813,170.4219 L662.6094,165.3438 Z M661.125,163.1094 L664.1094,163.1094 L667.4688,175.5 L665.0156,175.5 L664.25,172.4375 L660.9688,172.4375 L660.2188,175.5 L657.7813,175.5 L661.125,163.1094 Z "/><text fill="#000000" font-family="sans-serif" font-size="12" font-style="italic" lengthAdjust="spacingAndGlyphs" textLength="51" x="683" y="174.1543">ObjectIO</text><line style="stroke: #A80036; stroke-width: 1.5;" x1="616.75" x2="767.75" y1="186" y2="186"/><text fill="#000000" font-family="sans-serif" font-size="11" lengthAdjust="spacingAndGlyphs" textLength="87" x="621.75" y="200.2104">description: str</text><text fill="#000000" font-family="sans-serif" font-size="11" lengthAdjust="spacingAndGlyphs" textLength="100" x="621.75" y="213.0151">format_name: str</text><text fill="#000000" font-family="sans-serif" font-size="11" lengthAdjust="spacingAndGlyphs" textLength="96" x="621.75" y="225.8198">filename_ext: str</text><line style="stroke: #A80036; stroke-width: 1.5;" x1="616.75" x2="767.75" y1="232.4141" y2="232.4141"/><text fill="#000000" font-family="sans-serif" font-size="11" lengthAdjust="spacingAndGlyphs" textLength="141" x="621.75" y="246.6245">read_fitness(file_obj): int</text><text fill="#000000" font-family="sans-serif" font-size="11" lengthAdjust="spacingAndGlyphs" textLength="74" x="621.75" y="259.4292">read(file_obj)</text><text fill="#000000" font-family="sans-serif" font-size="11" lengthAdjust="spacingAndGlyphs" textLength="120" x="621.75" y="272.2339">write_fitness(obj): int</text><text fill="#000000" font-family="sans-serif" font-size="11" lengthAdjust="spacingAndGlyphs" textLength="109" x="621.75" y="285.0386">write(obj, file_path)</text><rect fill="#FEFECE" filter="url(#f1)" height="84.1719" style="stroke: #A80036; stroke-width: 1.5;" width="216" x="315" y="9"/><text fill="#000000" font-family="sans-serif" font-size="12" lengthAdjust="spacingAndGlyphs" textLength="45" x="400.5" y="22.1387">globals</text><line style="stroke: #A80036; stroke-width: 1.5;" x1="316" x2="530" y1="26.9688" y2="26.9688"/><text fill="#000000" font-family="sans-serif" font-size="10" lengthAdjust="spacingAndGlyphs" textLength="172" x="321" y="40.251">find_reader(file_obj, format_name):</text><text fill="#000000" font-family="sans-serif" font-size="10" lengthAdjust="spacingAndGlyphs" textLength="193" x="321" y="51.8916">find_writer(obj, file_path, format_name)</text><text fill="#000000" font-family="sans-serif" font-size="10" lengthAdjust="spacingAndGlyphs" textLength="170" x="321" y="63.5322">read_object(file_obj, format_name)</text><text fill="#000000" font-family="sans-serif" font-size="10" lengthAdjust="spacingAndGlyphs" textLength="204" x="321" y="75.1729">writer_object(obj, file_path, format_name)</text><text fill="#000000" font-family="sans-serif" font-size="10" lengthAdjust="spacingAndGlyphs" textLength="185" x="321" y="86.8135">OBJECT_IO_REGISTRY: WriterRegistry</text><polygon fill="#FBFB77" filter="url(#f1)" points="6,31,6,71.2656,280,71.2656,280,41,270,31,6,31" style="stroke: #A80036; stroke-width: 1.0;"/><polygon fill="#FBFB77" points="6,31,6,71.2656,280,71.2656,280,55,314.834,51,280,47,280,41,270,31,6,31" style="stroke: #A80036; stroke-width: 1.0;"/><line style="stroke: #A80036; stroke-width: 1.0;" x1="270" x2="270" y1="31" y2="41"/><line style="stroke: #A80036; stroke-width: 1.0;" x1="280" x2="270" y1="41" y2="41"/><text fill="#000000" font-family="sans-serif" font-size="13" lengthAdjust="spacingAndGlyphs" textLength="253" x="12" y="48.0669">OBJECT_IO_REGISTRY contains all known</text><text fill="#000000" font-family="sans-serif" font-size="13" lengthAdjust="spacingAndGlyphs" textLength="211" x="12" y="63.1997">data reader and writer instances.</text><path d="M692,107.187 C692,117.843 692,129.215 692,140.505 " fill="none" style="stroke: #A80036; stroke-width: 1.0;"/><polygon fill="#A80036" points="692,153.672,696,144.672,692,148.672,688,144.672,692,153.672" style="stroke: #A80036; stroke-width: 1.0;"/><line style="stroke: #A80036; stroke-width: 1.0;" x1="692" x2="692" y1="148.672" y2="140.672"/><polygon fill="#FFFFFF" points="692,94.022,688,100.022,692,106.022,696,100.022,692,94.022" style="stroke: #A80036; stroke-width: 1.0;"/><text fill="#000000" font-family="sans-serif" font-size="13" lengthAdjust="spacingAndGlyphs" textLength="10" x="680.4434" y="142.8296">N</text><path d="M785.948,271.205 C805.681,282.407 825.965,294.929 844,308 C861.973,321.026 880.259,338.1003 893.906,351.7519 " fill="none" style="stroke: #A80036; stroke-width: 1.0;"/><polygon fill="none" points="782.551,277.326,768.442,261.517,789.33,265.076,782.551,277.326" style="stroke: #A80036; stroke-width: 1.0;"/><path d="M737.254,310.498 C745.249,325.779 752.922,340.4464 758.926,351.9225 " fill="none" style="stroke: #A80036; stroke-width: 1.0;"/><polygon fill="none" points="730.871,313.397,727.802,292.431,743.276,306.907,730.871,313.397" style="stroke: #A80036; stroke-width: 1.0;"/><path d="M647.319,310.498 C639.425,325.779 631.849,340.4464 625.921,351.9225 " fill="none" style="stroke: #A80036; stroke-width: 1.0;"/><polygon fill="none" points="641.253,306.988,656.651,292.431,653.692,313.413,641.253,306.988" style="stroke: #A80036; stroke-width: 1.0;"/><path d="M597.793,268.908 C575.103,280.791 551.282,294.184 530,308 C509.66,321.205 488.317,338.2761 472.234,351.8817 " fill="none" style="stroke: #A80036; stroke-width: 1.0;"/><polygon fill="none" points="594.687,262.634,615.676,259.724,601.083,275.088,594.687,262.634" style="stroke: #A80036; stroke-width: 1.0;"/></g></svg>