<?xml version="1.0" encoding="UTF-8" standalone="yes"?><svg xmlns="http://www.w3.org/2000/svg" xmlns:xlink="http://www.w3.org/1999/xlink" height="444px" style="width:485px;height:444px;" version="1.1" viewBox="0 0 485 444" width="485px"><defs><filter height="300%" id="f1" width="300%" x="-1" y="-1"><feGaussianBlur result="blurOut" stdDeviation="2.0"/><feColorMatrix in="blurOut" result="blurOut2" type="matrix" values="0 0 0 0 0 0 0 0 0 0 0 0 0 0 0 0 0 0 .4 0"/><feOffset dx="4.0" dy="4.0" in="blurOut2" result="blurOut3"/><feBlend in="SourceGraphic" in2="blurOut3" mode="normal"/></filter></defs><g><rect fill="#FEFECE" filter="url(#f1)" height="72.5313" style="stroke: #A80036; stroke-width: 1.5;" width="173" x="37.75" y="14.5"/><text fill="#000000" font-family="sans-serif" font-size="12" lengthAdjust="spacingAndGlyphs" textLength="45" x="101.75" y="27.6387">globals</text><line style="stroke: #A80036; stroke-width: 1.5;" x1="38.75" x2="209.75" y1="32.4688" y2="32.4688"/><text fill="#000000" font-family="sans-serif" font-size="10" lengthAdjust="spacingAndGlyphs" textLength="131" x="43.75" y="45.751">OP_REGISTRY: OpRegistry</text><text fill="#000000" font-family="sans-serif" font-size="10" lengthAdjust="spacingAndGlyphs" textLength="90" x="43.75" y="57.3916">@op(**properties)</text><text fill="#000000" font-family="sans-serif" font-size="10" lengthAdjust="spacingAndGlyphs" textLength="153" x="43.75" y="69.0322">@op_input(name, **properties)</text><text fill="#000000" font-family="sans-serif" font-size="10" lengthAdjust="spacingAndGlyphs" textLength="161" x="43.75" y="80.6729">@op_output(name, **properties)</text><polygon fill="#FBFB77" filter="url(#f1)" points="6,156.5,6,257.2969,242,257.2969,242,166.5,232,156.5,6,156.5" style="stroke: #A80036; stroke-width: 1.0;"/><polygon fill="#FBFB77" points="6,156.5,6,257.2969,242,257.2969,242,166.5,232,156.5,128,156.5,124,87.718,120,156.5,6,156.5" style="stroke: #A80036; stroke-width: 1.0;"/><line style="stroke: #A80036; stroke-width: 1.0;" x1="232" x2="232" y1="156.5" y2="166.5"/><line style="stroke: #A80036; stroke-width: 1.0;" x1="242" x2="232" y1="166.5" y2="166.5"/><text fill="#000000" font-family="sans-serif" font-size="13" lengthAdjust="spacingAndGlyphs" textLength="209" x="12" y="173.5669">Plugins can extend OP_REGISTRY</text><text fill="#000000" font-family="sans-serif" font-size="13" lengthAdjust="spacingAndGlyphs" textLength="196" x="12" y="188.6997">by adding new operations to it.</text><text fill="#000000" font-family="sans-serif" font-size="13" lengthAdjust="spacingAndGlyphs" textLength="0" x="16" y="203.8325"/><text fill="#000000" font-family="sans-serif" font-size="13" lengthAdjust="spacingAndGlyphs" textLength="200" x="12" y="218.9653">To register a Python function or</text><text fill="#000000" font-family="sans-serif" font-size="13" lengthAdjust="spacingAndGlyphs" textLength="174" x="12" y="234.0981">class, the @op, @op_input,</text><text fill="#000000" font-family="sans-serif" font-size="13" lengthAdjust="spacingAndGlyphs" textLength="215" x="12" y="249.231">@op_output decorators are used.</text><rect fill="#FEFECE" filter="url(#f1)" height="86.4141" style="stroke: #A80036; stroke-width: 1.5;" width="201" x="275.75" y="8"/><ellipse cx="338.5" cy="24" fill="#ADD1B2" rx="11" ry="11" style="stroke: #A80036; stroke-width: 1.0;"/><path d="M341.4688,29.6406 Q340.8906,29.9375 340.25,30.0859 Q339.6094,30.2344 338.9063,30.2344 Q336.4063,30.2344 335.0859,28.5859 Q333.7656,26.9375 333.7656,23.8125 Q333.7656,20.6875 335.0859,19.0313 Q336.4063,17.375 338.9063,17.375 Q339.6094,17.375 340.2578,17.5313 Q340.9063,17.6875 341.4688,17.9844 L341.4688,20.7031 Q340.8438,20.125 340.25,19.8516 Q339.6563,19.5781 339.0313,19.5781 Q337.6875,19.5781 337,20.6484 Q336.3125,21.7188 336.3125,23.8125 Q336.3125,25.9063 337,26.9766 Q337.6875,28.0469 339.0313,28.0469 Q339.6563,28.0469 340.25,27.7734 Q340.8438,27.5 341.4688,26.9219 L341.4688,29.6406 Z "/><text fill="#000000" font-family="sans-serif" font-size="12" lengthAdjust="spacingAndGlyphs" textLength="67" x="359" y="28.1543">OpRegistry</text><line style="stroke: #A80036; stroke-width: 1.5;" x1="276.75" x2="475.75" y1="40" y2="40"/><line style="stroke: #A80036; stroke-width: 1.5;" x1="276.75" x2="475.75" y1="48" y2="48"/><text fill="#000000" font-family="sans-serif" font-size="11" lengthAdjust="spacingAndGlyphs" textLength="142" x="281.75" y="62.2104">get_op(name): Operation</text><text fill="#000000" font-family="sans-serif" font-size="11" lengthAdjust="spacingAndGlyphs" textLength="167" x="281.75" y="75.0151">add_op(operation): Operation</text><text fill="#000000" font-family="sans-serif" font-size="11" lengthAdjust="spacingAndGlyphs" textLength="189" x="281.75" y="87.8198">remove_op(operation): Operation</text><rect fill="#FEFECE" filter="url(#f1)" height="73.6094" style="stroke: #A80036; stroke-width: 1.5;" width="198" x="277" y="170"/><ellipse cx="340.75" cy="186" fill="#ADD1B2" rx="11" ry="11" style="stroke: #A80036; stroke-width: 1.0;"/><path d="M343.7188,191.6406 Q343.1406,191.9375 342.5,192.0859 Q341.8594,192.2344 341.1563,192.2344 Q338.6563,192.2344 337.3359,190.5859 Q336.0156,188.9375 336.0156,185.8125 Q336.0156,182.6875 337.3359,181.0313 Q338.6563,179.375 341.1563,179.375 Q341.8594,179.375 342.5078,179.5313 Q343.1563,179.6875 343.7188,179.9844 L343.7188,182.7031 Q343.0938,182.125 342.5,181.8516 Q341.9063,181.5781 341.2813,181.5781 Q339.9375,181.5781 339.25,182.6484 Q338.5625,183.7188 338.5625,185.8125 Q338.5625,187.9063 339.25,188.9766 Q339.9375,190.0469 341.2813,190.0469 Q341.9063,190.0469 342.5,189.7734 Q343.0938,189.5 343.7188,188.9219 L343.7188,191.6406 Z "/><text fill="#000000" font-family="sans-serif" font-size="12" lengthAdjust="spacingAndGlyphs" textLength="62" x="361.25" y="190.1543">Operation</text><line style="stroke: #A80036; stroke-width: 1.5;" x1="278" x2="474" y1="202" y2="202"/><text fill="#000000" font-family="sans-serif" font-size="11" lengthAdjust="spacingAndGlyphs" textLength="96" x="283" y="216.2104">operation: object</text><line style="stroke: #A80036; stroke-width: 1.5;" x1="278" x2="474" y1="222.8047" y2="222.8047"/><text fill="#000000" font-family="sans-serif" font-size="11" lengthAdjust="spacingAndGlyphs" textLength="186" x="283" y="237.0151">__call__(*args, **kwargs): object</text><rect fill="#FEFECE" filter="url(#f1)" height="99.2188" style="stroke: #A80036; stroke-width: 1.5;" width="135" x="308.75" y="336.5"/><ellipse cx="338.15" cy="352.5" fill="#ADD1B2" rx="11" ry="11" style="stroke: #A80036; stroke-width: 1.0;"/><path d="M341.1188,358.1406 Q340.5406,358.4375 339.9,358.5859 Q339.2594,358.7344 338.5563,358.7344 Q336.0563,358.7344 334.7359,357.0859 Q333.4156,355.4375 333.4156,352.3125 Q333.4156,349.1875 334.7359,347.5313 Q336.0563,345.875 338.5563,345.875 Q339.2594,345.875 339.9078,346.0313 Q340.5563,346.1875 341.1188,346.4844 L341.1188,349.2031 Q340.4938,348.625 339.9,348.3516 Q339.3063,348.0781 338.6813,348.0781 Q337.3375,348.0781 336.65,349.1484 Q335.9625,350.2188 335.9625,352.3125 Q335.9625,354.4063 336.65,355.4766 Q337.3375,356.5469 338.6813,356.5469 Q339.3063,356.5469 339.9,356.2734 Q340.4938,356 341.1188,355.4219 L341.1188,358.1406 Z "/><text fill="#000000" font-family="sans-serif" font-size="12" lengthAdjust="spacingAndGlyphs" textLength="71" x="355.35" y="356.6543">OpMetaInfo</text><line style="stroke: #A80036; stroke-width: 1.5;" x1="309.75" x2="442.75" y1="368.5" y2="368.5"/><text fill="#000000" font-family="sans-serif" font-size="11" lengthAdjust="spacingAndGlyphs" textLength="114" x="314.75" y="382.7104">qualified_name : str</text><text fill="#000000" font-family="sans-serif" font-size="11" lengthAdjust="spacingAndGlyphs" textLength="120" x="314.75" y="395.5151">header : OrderedDict</text><text fill="#000000" font-family="sans-serif" font-size="11" lengthAdjust="spacingAndGlyphs" textLength="115" x="314.75" y="408.3198">inputs : OrderedDict</text><text fill="#000000" font-family="sans-serif" font-size="11" lengthAdjust="spacingAndGlyphs" textLength="123" x="314.75" y="421.1245">outputs : OrderedDict</text><line style="stroke: #A80036; stroke-width: 1.5;" x1="309.75" x2="442.75" y1="427.7188" y2="427.7188"/><path d="M376,107.373 C376,123.492 376,140.986 376,156.703 " fill="none" style="stroke: #A80036; stroke-width: 1.0;"/><polygon fill="#A80036" points="376,169.979,380,160.979,376,164.979,372,160.979,376,169.979" style="stroke: #A80036; stroke-width: 1.0;"/><line style="stroke: #A80036; stroke-width: 1.0;" x1="376" x2="376" y1="164.979" y2="156.979"/><polygon fill="#FFFFFF" points="376,94.081,372,100.081,376,106.081,380,100.081,376,94.081" style="stroke: #A80036; stroke-width: 1.0;"/><text fill="#000000" font-family="sans-serif" font-size="13" lengthAdjust="spacingAndGlyphs" textLength="10" x="364.0438" y="158.8327">N</text><path d="M376,244.246 C376,269.287 376,303.024 376,331.191 " fill="none" style="stroke: #A80036; stroke-width: 1.0;"/><polygon fill="#A80036" points="376,336.3825,380,327.3825,376,331.3825,372,327.3825,376,336.3825" style="stroke: #A80036; stroke-width: 1.0;"/><text fill="#000000" font-family="sans-serif" font-size="13" lengthAdjust="spacingAndGlyphs" textLength="87" x="377" y="301.0669">op_meta_info</text></g></svg>