<?xml version="1.0" encoding="UTF-8" standalone="yes"?><svg xmlns="http://www.w3.org/2000/svg" xmlns:xlink="http://www.w3.org/1999/xlink" height="514px" style="width:497px;height:514px;" version="1.1" viewBox="0 0 497 514" width="497px"><defs><filter height="300%" id="f1" width="300%" x="-1" y="-1"><feGaussianBlur result="blurOut" stdDeviation="2.0"/><feColorMatrix in="blurOut" result="blurOut2" type="matrix" values="0 0 0 0 0 0 0 0 0 0 0 0 0 0 0 0 0 0 .4 0"/><feOffset dx="4.0" dy="4.0" in="blurOut2" result="blurOut3"/><feBlend in="SourceGraphic" in2="blurOut3" mode="normal"/></filter></defs><g><polygon fill="#FFFFFF" filter="url(#f1)" points="22,393,104,393,111,416.6094,238,416.6094,238,507,22,507,22,393" style="stroke: #000000; stroke-width: 2.0;"/><line style="stroke: #000000; stroke-width: 2.0;" x1="22" x2="111" y1="416.6094" y2="416.6094"/><text fill="#000000" font-family="sans-serif" font-size="14" font-weight="bold" lengthAdjust="spacingAndGlyphs" textLength="76" x="26" y="409.5332">cdm.xarray</text><polygon fill="#FFFFFF" filter="url(#f1)" points="262,393,366,393,373,416.6094,490,416.6094,490,507,262,507,262,393" style="stroke: #000000; stroke-width: 2.0;"/><line style="stroke: #000000; stroke-width: 2.0;" x1="262" x2="373" y1="416.6094" y2="416.6094"/><text fill="#000000" font-family="sans-serif" font-size="14" font-weight="bold" lengthAdjust="spacingAndGlyphs" textLength="98" x="266" y="409.5332">cdm.shapefile</text><rect fill="#FEFECE" filter="url(#f1)" height="61.8359" style="stroke: #A80036; stroke-width: 1.5;" width="184" x="38" y="429"/><ellipse cx="67.85" cy="445" fill="#ADD1B2" rx="11" ry="11" style="stroke: #A80036; stroke-width: 1.0;"/><path d="M70.6156,440.875 Q70.7719,440.6563 70.9594,440.5469 Q71.1469,440.4375 71.3656,440.4375 Q71.7406,440.4375 71.975,440.6953 Q72.2094,440.9531 72.2094,441.5625 L72.2094,443.0156 Q72.2094,443.625 71.975,443.8906 Q71.7406,444.1563 71.3656,444.1563 Q71.0219,444.1563 70.8188,443.9531 Q70.6156,443.7656 70.5063,443.25 Q70.4594,442.8906 70.2719,442.7031 Q69.9438,442.3281 69.3344,442.1094 Q68.725,441.8906 68.1,441.8906 Q67.3344,441.8906 66.7016,442.2188 Q66.0688,442.5469 65.5766,443.2969 Q65.0844,444.0469 65.0844,445.0781 L65.0844,446.1719 Q65.0844,447.4063 65.975,448.2266 Q66.8656,449.0469 68.4594,449.0469 Q69.3969,449.0469 70.0531,448.7969 Q70.4438,448.6406 70.8656,448.2031 Q71.1313,447.9375 71.2797,447.8594 Q71.4281,447.7813 71.6313,447.7813 Q71.9594,447.7813 72.2172,448.0391 Q72.475,448.2969 72.475,448.6406 Q72.475,448.9844 72.1313,449.3906 Q71.6313,449.9688 70.8344,450.2969 Q69.7563,450.75 68.4594,450.75 Q66.9438,450.75 65.7406,450.125 Q64.7563,449.625 64.0688,448.5547 Q63.3812,447.4844 63.3812,446.2031 L63.3812,445.0469 Q63.3812,443.7188 63.9984,442.5703 Q64.6156,441.4219 65.7094,440.8047 Q66.8031,440.1875 68.0375,440.1875 Q68.7719,440.1875 69.4203,440.3516 Q70.0688,440.5156 70.6156,440.875 Z "/><text fill="#000000" font-family="sans-serif" font-size="12" lengthAdjust="spacingAndGlyphs" textLength="119" x="85.15" y="449.9102">XarrayDatasetAdapter</text><line style="stroke: #A80036; stroke-width: 1.5;" x1="39" x2="221" y1="461" y2="461"/><line style="stroke: #A80036; stroke-width: 1.5;" x1="39" x2="221" y1="469" y2="469"/><text fill="#000000" font-family="sans-serif" font-size="11" lengthAdjust="spacingAndGlyphs" textLength="172" x="44" y="484.4189">wrapped_dataset(): xarray.Dataset</text><rect fill="#FEFECE" filter="url(#f1)" height="61.8359" style="stroke: #A80036; stroke-width: 1.5;" width="196" x="278" y="429"/><ellipse cx="305.15" cy="445" fill="#ADD1B2" rx="11" ry="11" style="stroke: #A80036; stroke-width: 1.0;"/><path d="M307.9156,440.875 Q308.0719,440.6563 308.2594,440.5469 Q308.4469,440.4375 308.6656,440.4375 Q309.0406,440.4375 309.275,440.6953 Q309.5094,440.9531 309.5094,441.5625 L309.5094,443.0156 Q309.5094,443.625 309.275,443.8906 Q309.0406,444.1563 308.6656,444.1563 Q308.3219,444.1563 308.1188,443.9531 Q307.9156,443.7656 307.8063,443.25 Q307.7594,442.8906 307.5719,442.7031 Q307.2438,442.3281 306.6344,442.1094 Q306.025,441.8906 305.4,441.8906 Q304.6344,441.8906 304.0016,442.2188 Q303.3688,442.5469 302.8766,443.2969 Q302.3844,444.0469 302.3844,445.0781 L302.3844,446.1719 Q302.3844,447.4063 303.275,448.2266 Q304.1656,449.0469 305.7594,449.0469 Q306.6969,449.0469 307.3531,448.7969 Q307.7438,448.6406 308.1656,448.2031 Q308.4313,447.9375 308.5797,447.8594 Q308.7281,447.7813 308.9313,447.7813 Q309.2594,447.7813 309.5172,448.0391 Q309.775,448.2969 309.775,448.6406 Q309.775,448.9844 309.4313,449.3906 Q308.9313,449.9688 308.1344,450.2969 Q307.0563,450.75 305.7594,450.75 Q304.2438,450.75 303.0406,450.125 Q302.0563,449.625 301.3688,448.5547 Q300.6813,447.4844 300.6813,446.2031 L300.6813,445.0469 Q300.6813,443.7188 301.2984,442.5703 Q301.9156,441.4219 303.0094,440.8047 Q304.1031,440.1875 305.3375,440.1875 Q306.0719,440.1875 306.7203,440.3516 Q307.3688,440.5156 307.9156,440.875 Z "/><text fill="#000000" font-family="sans-serif" font-size="12" lengthAdjust="spacingAndGlyphs" textLength="137" x="321.85" y="449.9102">ShapefileDatasetAdapter</text><line style="stroke: #A80036; stroke-width: 1.5;" x1="279" x2="473" y1="461" y2="461"/><line style="stroke: #A80036; stroke-width: 1.5;" x1="279" x2="473" y1="469" y2="469"/><text fill="#000000" font-family="sans-serif" font-size="11" lengthAdjust="spacingAndGlyphs" textLength="184" x="284" y="484.4189">wrapped_dataset(): shapefile.Dataset</text><rect fill="#FEFECE" filter="url(#f1)" height="131.0156" style="stroke: #A80036; stroke-width: 1.5;" width="116" x="123" y="116"/><ellipse cx="156.9" cy="132" fill="#B4A7E5" rx="11" ry="11" style="stroke: #A80036; stroke-width: 1.0;"/><path d="M157.8531,128.6406 L157.8531,135.2969 L159.5719,135.2969 Q160.1813,135.2969 160.4469,135.5313 Q160.7125,135.7656 160.7125,136.1563 Q160.7125,136.5313 160.4469,136.7656 Q160.1813,137 159.5719,137 L154.4313,137 Q153.8219,137 153.5563,136.7656 Q153.2906,136.5313 153.2906,136.1406 Q153.2906,135.7656 153.5563,135.5313 Q153.8219,135.2969 154.4313,135.2969 L156.15,135.2969 L156.15,128.6406 L154.4313,128.6406 Q153.8219,128.6406 153.5563,128.4063 Q153.2906,128.1719 153.2906,127.7813 Q153.2906,127.4063 153.5563,127.1719 Q153.8219,126.9375 154.4313,126.9375 L159.5719,126.9375 Q160.1813,126.9375 160.4469,127.1719 Q160.7125,127.4063 160.7125,127.7813 Q160.7125,128.1719 160.4469,128.4063 Q160.1813,128.6406 159.5719,128.6406 L157.8531,128.6406 Z "/><text fill="#000000" font-family="sans-serif" font-size="12" font-style="italic" lengthAdjust="spacingAndGlyphs" textLength="42" x="175.1" y="136.9102">Dataset</text><line style="stroke: #A80036; stroke-width: 1.5;" x1="124" x2="238" y1="148" y2="148"/><line style="stroke: #A80036; stroke-width: 1.5;" x1="124" x2="238" y1="156" y2="156"/><text fill="#000000" font-family="sans-serif" font-size="11" font-style="italic" lengthAdjust="spacingAndGlyphs" textLength="93" x="129" y="171.4189">schema(): Schema</text><text fill="#000000" font-family="sans-serif" font-size="11" font-style="italic" lengthAdjust="spacingAndGlyphs" textLength="82" x="129" y="185.2549">gapfill(): Dataset</text><text fill="#000000" font-family="sans-serif" font-size="11" font-style="italic" lengthAdjust="spacingAndGlyphs" textLength="104" x="129" y="199.0908">timeseries(): Dataset</text><text fill="#000000" font-family="sans-serif" font-size="11" font-style="italic" lengthAdjust="spacingAndGlyphs" textLength="86" x="129" y="212.9268">subset(): Dataset</text><text fill="#000000" font-family="sans-serif" font-size="11" font-style="italic" lengthAdjust="spacingAndGlyphs" textLength="98" x="129" y="226.7627">resample(): Dataset</text><text fill="#000000" font-family="sans-serif" font-size="11" font-style="italic" lengthAdjust="spacingAndGlyphs" textLength="35" x="129" y="240.5986">close()</text><rect fill="#FEFECE" filter="url(#f1)" height="48" style="stroke: #A80036; stroke-width: 1.5;" width="78" x="70" y="314"/><ellipse cx="85" cy="330" fill="#A9DCDF" rx="11" ry="11" style="stroke: #A80036; stroke-width: 1.0;"/><path d="M87.1875,331.7656 L83.0469,331.7656 L82.625,332.7969 L83.0469,332.7969 Q83.6563,332.7969 83.9219,333.0313 Q84.1875,333.2656 84.1875,333.6563 Q84.1875,334.0313 83.9219,334.2656 Q83.6563,334.5 83.0469,334.5 L80.75,334.5 Q80.1406,334.5 79.8828,334.2656 Q79.625,334.0313 79.625,333.6406 Q79.625,333.2656 79.8984,333.0234 Q80.1719,332.7813 80.7969,332.7969 L83.4688,326.1406 L82.3594,326.1406 Q81.75,326.1406 81.4844,325.9063 Q81.2188,325.6719 81.2188,325.2813 Q81.2188,324.9063 81.4844,324.6719 Q81.75,324.4375 82.3594,324.4375 L86.0313,324.4375 L89.4219,332.7969 Q90.0156,332.7969 90.2031,332.9375 Q90.5938,333.2031 90.5938,333.6563 Q90.5938,334.0313 90.3359,334.2656 Q90.0781,334.5 89.4688,334.5 L87.1719,334.5 Q86.5625,334.5 86.2969,334.2656 Q86.0313,334.0313 86.0313,333.6406 Q86.0313,333.2656 86.2969,333.0313 Q86.5625,332.7969 87.1719,332.7969 L87.5938,332.7969 L87.1875,331.7656 Z M86.4688,330.0625 L85.1094,326.6875 L83.7344,330.0625 L86.4688,330.0625 Z "/><text fill="#000000" font-family="sans-serif" font-size="12" font-style="italic" lengthAdjust="spacingAndGlyphs" textLength="46" x="99" y="334.9102">Schema</text><line style="stroke: #A80036; stroke-width: 1.5;" x1="71" x2="147" y1="346" y2="346"/><line style="stroke: #A80036; stroke-width: 1.5;" x1="71" x2="147" y1="354" y2="354"/><rect fill="#FEFECE" filter="url(#f1)" height="61.8359" style="stroke: #A80036; stroke-width: 1.5;" width="140" x="183" y="307"/><ellipse cx="208.35" cy="323" fill="#A9DCDF" rx="11" ry="11" style="stroke: #A80036; stroke-width: 1.0;"/><path d="M210.5375,324.7656 L206.3969,324.7656 L205.975,325.7969 L206.3969,325.7969 Q207.0063,325.7969 207.2719,326.0313 Q207.5375,326.2656 207.5375,326.6563 Q207.5375,327.0313 207.2719,327.2656 Q207.0063,327.5 206.3969,327.5 L204.1,327.5 Q203.4906,327.5 203.2328,327.2656 Q202.975,327.0313 202.975,326.6406 Q202.975,326.2656 203.2484,326.0234 Q203.5219,325.7813 204.1469,325.7969 L206.8188,319.1406 L205.7094,319.1406 Q205.1,319.1406 204.8344,318.9063 Q204.5688,318.6719 204.5688,318.2813 Q204.5688,317.9063 204.8344,317.6719 Q205.1,317.4375 205.7094,317.4375 L209.3813,317.4375 L212.7719,325.7969 Q213.3656,325.7969 213.5531,325.9375 Q213.9438,326.2031 213.9438,326.6563 Q213.9438,327.0313 213.6859,327.2656 Q213.4281,327.5 212.8188,327.5 L210.5219,327.5 Q209.9125,327.5 209.6469,327.2656 Q209.3813,327.0313 209.3813,326.6406 Q209.3813,326.2656 209.6469,326.0313 Q209.9125,325.7969 210.5219,325.7969 L210.9438,325.7969 L210.5375,324.7656 Z M209.8188,323.0625 L208.4594,319.6875 L207.0844,323.0625 L209.8188,323.0625 Z "/><text fill="#000000" font-family="sans-serif" font-size="12" font-style="italic" lengthAdjust="spacingAndGlyphs" textLength="85" x="224.65" y="327.9102">DatasetAdapter</text><line style="stroke: #A80036; stroke-width: 1.5;" x1="184" x2="322" y1="339" y2="339"/><line style="stroke: #A80036; stroke-width: 1.5;" x1="184" x2="322" y1="347" y2="347"/><text fill="#000000" font-family="sans-serif" font-size="11" font-style="italic" lengthAdjust="spacingAndGlyphs" textLength="128" x="189" y="362.4189">wrapped_dataset(): object</text><rect fill="#FEFECE" filter="url(#f1)" height="48" style="stroke: #A80036; stroke-width: 1.5;" width="130" x="116" y="8"/><ellipse cx="131" cy="24" fill="#ADD1B2" rx="11" ry="11" style="stroke: #A80036; stroke-width: 1.0;"/><path d="M133.7656,19.875 Q133.9219,19.6563 134.1094,19.5469 Q134.2969,19.4375 134.5156,19.4375 Q134.8906,19.4375 135.125,19.6953 Q135.3594,19.9531 135.3594,20.5625 L135.3594,22.0156 Q135.3594,22.625 135.125,22.8906 Q134.8906,23.1563 134.5156,23.1563 Q134.1719,23.1563 133.9688,22.9531 Q133.7656,22.7656 133.6563,22.25 Q133.6094,21.8906 133.4219,21.7031 Q133.0938,21.3281 132.4844,21.1094 Q131.875,20.8906 131.25,20.8906 Q130.4844,20.8906 129.8516,21.2188 Q129.2188,21.5469 128.7266,22.2969 Q128.2344,23.0469 128.2344,24.0781 L128.2344,25.1719 Q128.2344,26.4063 129.125,27.2266 Q130.0156,28.0469 131.6094,28.0469 Q132.5469,28.0469 133.2031,27.7969 Q133.5938,27.6406 134.0156,27.2031 Q134.2813,26.9375 134.4297,26.8594 Q134.5781,26.7813 134.7813,26.7813 Q135.1094,26.7813 135.3672,27.0391 Q135.625,27.2969 135.625,27.6406 Q135.625,27.9844 135.2813,28.3906 Q134.7813,28.9688 133.9844,29.2969 Q132.9063,29.75 131.6094,29.75 Q130.0938,29.75 128.8906,29.125 Q127.9063,28.625 127.2188,27.5547 Q126.5313,26.4844 126.5313,25.2031 L126.5313,24.0469 Q126.5313,22.7188 127.1484,21.5703 Q127.7656,20.4219 128.8594,19.8047 Q129.9531,19.1875 131.1875,19.1875 Q131.9219,19.1875 132.5703,19.3516 Q133.2188,19.5156 133.7656,19.875 Z "/><text fill="#000000" font-family="sans-serif" font-size="12" lengthAdjust="spacingAndGlyphs" textLength="98" x="145" y="28.9102">DatasetCollection</text><line style="stroke: #A80036; stroke-width: 1.5;" x1="117" x2="245" y1="40" y2="40"/><line style="stroke: #A80036; stroke-width: 1.5;" x1="117" x2="245" y1="48" y2="48"/><polygon fill="#FBFB77" filter="url(#f1)" points="281,19,281,45.3516,403,45.3516,403,29,393,19,281,19" style="stroke: #A80036; stroke-width: 1.0;"/><polygon fill="#FBFB77" points="281,19,281,28,246.092,32,281,36,281,45.3516,403,45.3516,403,29,393,19,281,19" style="stroke: #A80036; stroke-width: 1.0;"/><line style="stroke: #A80036; stroke-width: 1.0;" x1="393" x2="393" y1="19" y2="29"/><line style="stroke: #A80036; stroke-width: 1.0;" x1="403" x2="393" y1="29" y2="29"/><text fill="#000000" font-family="sans-serif" font-size="13" lengthAdjust="spacingAndGlyphs" textLength="101" x="287" y="37.4951">Collection pattern</text><path d="M219.775,265.705 C226.613,280.377 233.316,294.762 238.891,306.723 " fill="none" style="stroke: #A80036; stroke-width: 1.0; stroke-dasharray: 7.0,7.0;"/><polygon fill="none" points="213.221,268.212,211.117,247.127,225.91,262.298,213.221,268.212" style="stroke: #A80036; stroke-width: 1.0;"/><path d="M194.367,95.814 C194.009,81.179 192.929,67.132 191.125,56.047 " fill="none" style="stroke: #A80036; stroke-width: 1.0; stroke-dasharray: 7.0,7.0;"/><polygon fill="none" points="201.367,95.898,194.407,115.912,187.367,95.926,201.367,95.898" style="stroke: #A80036; stroke-width: 1.0;"/><path d="M169.85,69.201 C168.893,79.445 168.366,91.009 168.267,102.708 " fill="none" style="stroke: #A80036; stroke-width: 1.0;"/><polygon fill="#A80036" points="168.338,115.912,172.2895,106.8906,168.3111,110.9121,164.2896,106.9337,168.338,115.912" style="stroke: #A80036; stroke-width: 1.0;"/><line style="stroke: #A80036; stroke-width: 1.0;" x1="168.3111" x2="168.268" y1="110.9121" y2="102.9115"/><polygon fill="#FFFFFF" points="171.438,56.047,166.7481,61.5247,170.0006,67.9606,174.6905,62.4829,171.438,56.047" style="stroke: #A80036; stroke-width: 1.0;"/><text fill="#000000" font-family="sans-serif" font-size="13" lengthAdjust="spacingAndGlyphs" textLength="24" x="141.4865" y="104.9179">0..N</text><path d="M207.197,383.686 C191.807,398.701 175.011,415.087 161.028,428.7286 " fill="none" style="stroke: #A80036; stroke-width: 1.0;"/><polygon fill="none" points="202.758,378.237,221.962,369.281,212.535,388.258,202.758,378.237" style="stroke: #A80036; stroke-width: 1.0;"/><path d="M298.803,383.686 C314.193,398.701 330.989,415.087 344.972,428.7286 " fill="none" style="stroke: #A80036; stroke-width: 1.0;"/><polygon fill="none" points="293.465,388.258,284.038,369.281,303.242,378.237,293.465,388.258" style="stroke: #A80036; stroke-width: 1.0;"/><path d="M150.883,247.127 C140.809,268.744 130.103,291.716 122.037,309.024 " fill="none" style="stroke: #A80036; stroke-width: 1.0;"/><polygon fill="#A80036" points="119.835,313.75,127.2636,307.2835,121.9479,309.2184,120.013,303.9028,119.835,313.75" style="stroke: #A80036; stroke-width: 1.0;"/><text fill="#000000" font-family="sans-serif" font-size="13" lengthAdjust="spacingAndGlyphs" textLength="7" x="114.7146" y="303.0261">1</text></g></svg>