<?xml version="1.0" encoding="UTF-8" standalone="yes"?><svg xmlns="http://www.w3.org/2000/svg" xmlns:xlink="http://www.w3.org/1999/xlink" height="500px" style="width:497px;height:500px;" version="1.1" viewBox="0 0 497 500" width="497px"><defs><filter height="300%" id="f1" width="300%" x="-1" y="-1"><feGaussianBlur result="blurOut" stdDeviation="2.0"/><feColorMatrix in="blurOut" result="blurOut2" type="matrix" values="0 0 0 0 0 0 0 0 0 0 0 0 0 0 0 0 0 0 .4 0"/><feOffset dx="4.0" dy="4.0" in="blurOut2" result="blurOut3"/><feBlend in="SourceGraphic" in2="blurOut3" mode="normal"/></filter></defs><g><polygon fill="#FFFFFF" filter="url(#f1)" points="22,379,108,379,115,402.6094,238,402.6094,238,493,22,493,22,379" style="stroke: #000000; stroke-width: 2.0;"/><line style="stroke: #000000; stroke-width: 2.0;" x1="22" x2="115" y1="402.6094" y2="402.6094"/><text fill="#000000" font-family="sans-serif" font-size="14" font-weight="bold" lengthAdjust="spacingAndGlyphs" textLength="80" x="26" y="395.5332">cdm_xarray</text><polygon fill="#FFFFFF" filter="url(#f1)" points="262,379,370,379,377,402.6094,490,402.6094,490,493,262,493,262,379" style="stroke: #000000; stroke-width: 2.0;"/><line style="stroke: #000000; stroke-width: 2.0;" x1="262" x2="377" y1="402.6094" y2="402.6094"/><text fill="#000000" font-family="sans-serif" font-size="14" font-weight="bold" lengthAdjust="spacingAndGlyphs" textLength="102" x="266" y="395.5332">cdm_shapefile</text><rect fill="#FEFECE" filter="url(#f1)" height="61.8359" style="stroke: #A80036; stroke-width: 1.5;" width="184" x="38" y="415"/><ellipse cx="67.85" cy="431" fill="#ADD1B2" rx="11" ry="11" style="stroke: #A80036; stroke-width: 1.0;"/><path d="M70.6156,426.875 Q70.7719,426.6563 70.9594,426.5469 Q71.1469,426.4375 71.3656,426.4375 Q71.7406,426.4375 71.975,426.6953 Q72.2094,426.9531 72.2094,427.5625 L72.2094,429.0156 Q72.2094,429.625 71.975,429.8906 Q71.7406,430.1563 71.3656,430.1563 Q71.0219,430.1563 70.8188,429.9531 Q70.6156,429.7656 70.5063,429.25 Q70.4594,428.8906 70.2719,428.7031 Q69.9438,428.3281 69.3344,428.1094 Q68.725,427.8906 68.1,427.8906 Q67.3344,427.8906 66.7016,428.2188 Q66.0688,428.5469 65.5766,429.2969 Q65.0844,430.0469 65.0844,431.0781 L65.0844,432.1719 Q65.0844,433.4063 65.975,434.2266 Q66.8656,435.0469 68.4594,435.0469 Q69.3969,435.0469 70.0531,434.7969 Q70.4438,434.6406 70.8656,434.2031 Q71.1313,433.9375 71.2797,433.8594 Q71.4281,433.7813 71.6313,433.7813 Q71.9594,433.7813 72.2172,434.0391 Q72.475,434.2969 72.475,434.6406 Q72.475,434.9844 72.1313,435.3906 Q71.6313,435.9688 70.8344,436.2969 Q69.7563,436.75 68.4594,436.75 Q66.9438,436.75 65.7406,436.125 Q64.7563,435.625 64.0688,434.5547 Q63.3812,433.4844 63.3812,432.2031 L63.3812,431.0469 Q63.3812,429.7188 63.9984,428.5703 Q64.6156,427.4219 65.7094,426.8047 Q66.8031,426.1875 68.0375,426.1875 Q68.7719,426.1875 69.4203,426.3516 Q70.0688,426.5156 70.6156,426.875 Z "/><text fill="#000000" font-family="sans-serif" font-size="12" lengthAdjust="spacingAndGlyphs" textLength="119" x="85.15" y="435.9102">XarrayDatasetAdapter</text><line style="stroke: #A80036; stroke-width: 1.5;" x1="39" x2="221" y1="447" y2="447"/><line style="stroke: #A80036; stroke-width: 1.5;" x1="39" x2="221" y1="455" y2="455"/><text fill="#000000" font-family="sans-serif" font-size="11" lengthAdjust="spacingAndGlyphs" textLength="172" x="44" y="470.4189">wrapped_dataset(): xarray.Dataset</text><rect fill="#FEFECE" filter="url(#f1)" height="61.8359" style="stroke: #A80036; stroke-width: 1.5;" width="196" x="278" y="415"/><ellipse cx="305.15" cy="431" fill="#ADD1B2" rx="11" ry="11" style="stroke: #A80036; stroke-width: 1.0;"/><path d="M307.9156,426.875 Q308.0719,426.6563 308.2594,426.5469 Q308.4469,426.4375 308.6656,426.4375 Q309.0406,426.4375 309.275,426.6953 Q309.5094,426.9531 309.5094,427.5625 L309.5094,429.0156 Q309.5094,429.625 309.275,429.8906 Q309.0406,430.1563 308.6656,430.1563 Q308.3219,430.1563 308.1188,429.9531 Q307.9156,429.7656 307.8063,429.25 Q307.7594,428.8906 307.5719,428.7031 Q307.2438,428.3281 306.6344,428.1094 Q306.025,427.8906 305.4,427.8906 Q304.6344,427.8906 304.0016,428.2188 Q303.3688,428.5469 302.8766,429.2969 Q302.3844,430.0469 302.3844,431.0781 L302.3844,432.1719 Q302.3844,433.4063 303.275,434.2266 Q304.1656,435.0469 305.7594,435.0469 Q306.6969,435.0469 307.3531,434.7969 Q307.7438,434.6406 308.1656,434.2031 Q308.4313,433.9375 308.5797,433.8594 Q308.7281,433.7813 308.9313,433.7813 Q309.2594,433.7813 309.5172,434.0391 Q309.775,434.2969 309.775,434.6406 Q309.775,434.9844 309.4313,435.3906 Q308.9313,435.9688 308.1344,436.2969 Q307.0563,436.75 305.7594,436.75 Q304.2438,436.75 303.0406,436.125 Q302.0563,435.625 301.3688,434.5547 Q300.6813,433.4844 300.6813,432.2031 L300.6813,431.0469 Q300.6813,429.7188 301.2984,428.5703 Q301.9156,427.4219 303.0094,426.8047 Q304.1031,426.1875 305.3375,426.1875 Q306.0719,426.1875 306.7203,426.3516 Q307.3688,426.5156 307.9156,426.875 Z "/><text fill="#000000" font-family="sans-serif" font-size="12" lengthAdjust="spacingAndGlyphs" textLength="137" x="321.85" y="435.9102">ShapefileDatasetAdapter</text><line style="stroke: #A80036; stroke-width: 1.5;" x1="279" x2="473" y1="447" y2="447"/><line style="stroke: #A80036; stroke-width: 1.5;" x1="279" x2="473" y1="455" y2="455"/><text fill="#000000" font-family="sans-serif" font-size="11" lengthAdjust="spacingAndGlyphs" textLength="184" x="284" y="470.4189">wrapped_dataset(): shapefile.Dataset</text><rect fill="#FEFECE" filter="url(#f1)" height="117.1797" style="stroke: #A80036; stroke-width: 1.5;" width="112" x="197" y="116"/><ellipse cx="229.1" cy="132" fill="#B4A7E5" rx="11" ry="11" style="stroke: #A80036; stroke-width: 1.0;"/><path d="M230.0531,128.6406 L230.0531,135.2969 L231.7719,135.2969 Q232.3813,135.2969 232.6469,135.5313 Q232.9125,135.7656 232.9125,136.1563 Q232.9125,136.5313 232.6469,136.7656 Q232.3813,137 231.7719,137 L226.6313,137 Q226.0219,137 225.7563,136.7656 Q225.4906,136.5313 225.4906,136.1406 Q225.4906,135.7656 225.7563,135.5313 Q226.0219,135.2969 226.6313,135.2969 L228.35,135.2969 L228.35,128.6406 L226.6313,128.6406 Q226.0219,128.6406 225.7563,128.4063 Q225.4906,128.1719 225.4906,127.7813 Q225.4906,127.4063 225.7563,127.1719 Q226.0219,126.9375 226.6313,126.9375 L231.7719,126.9375 Q232.3813,126.9375 232.6469,127.1719 Q232.9125,127.4063 232.9125,127.7813 Q232.9125,128.1719 232.6469,128.4063 Q232.3813,128.6406 231.7719,128.6406 L230.0531,128.6406 Z "/><text fill="#000000" font-family="sans-serif" font-size="12" font-style="italic" lengthAdjust="spacingAndGlyphs" textLength="42" x="246.9" y="136.9102">Dataset</text><line style="stroke: #A80036; stroke-width: 1.5;" x1="198" x2="308" y1="148" y2="148"/><line style="stroke: #A80036; stroke-width: 1.5;" x1="198" x2="308" y1="156" y2="156"/><text fill="#000000" font-family="sans-serif" font-size="11" lengthAdjust="spacingAndGlyphs" textLength="79" x="203" y="171.4189">gap_fill(): Datset</text><text fill="#000000" font-family="sans-serif" font-size="11" lengthAdjust="spacingAndGlyphs" textLength="100" x="203" y="185.2549">time_series(): Datset</text><text fill="#000000" font-family="sans-serif" font-size="11" lengthAdjust="spacingAndGlyphs" textLength="78" x="203" y="199.0908">subset(): Datset</text><text fill="#000000" font-family="sans-serif" font-size="11" lengthAdjust="spacingAndGlyphs" textLength="89" x="203" y="212.9268">resample(): Datset</text><text fill="#000000" font-family="sans-serif" font-size="11" lengthAdjust="spacingAndGlyphs" textLength="34" x="203" y="226.7627">close()</text><rect fill="#FEFECE" filter="url(#f1)" height="61.8359" style="stroke: #A80036; stroke-width: 1.5;" width="140" x="183" y="293"/><ellipse cx="208.35" cy="309" fill="#A9DCDF" rx="11" ry="11" style="stroke: #A80036; stroke-width: 1.0;"/><path d="M210.5375,310.7656 L206.3969,310.7656 L205.975,311.7969 L206.3969,311.7969 Q207.0063,311.7969 207.2719,312.0313 Q207.5375,312.2656 207.5375,312.6563 Q207.5375,313.0313 207.2719,313.2656 Q207.0063,313.5 206.3969,313.5 L204.1,313.5 Q203.4906,313.5 203.2328,313.2656 Q202.975,313.0313 202.975,312.6406 Q202.975,312.2656 203.2484,312.0234 Q203.5219,311.7813 204.1469,311.7969 L206.8188,305.1406 L205.7094,305.1406 Q205.1,305.1406 204.8344,304.9063 Q204.5688,304.6719 204.5688,304.2813 Q204.5688,303.9063 204.8344,303.6719 Q205.1,303.4375 205.7094,303.4375 L209.3813,303.4375 L212.7719,311.7969 Q213.3656,311.7969 213.5531,311.9375 Q213.9438,312.2031 213.9438,312.6563 Q213.9438,313.0313 213.6859,313.2656 Q213.4281,313.5 212.8188,313.5 L210.5219,313.5 Q209.9125,313.5 209.6469,313.2656 Q209.3813,313.0313 209.3813,312.6406 Q209.3813,312.2656 209.6469,312.0313 Q209.9125,311.7969 210.5219,311.7969 L210.9438,311.7969 L210.5375,310.7656 Z M209.8188,309.0625 L208.4594,305.6875 L207.0844,309.0625 L209.8188,309.0625 Z "/><text fill="#000000" font-family="sans-serif" font-size="12" font-style="italic" lengthAdjust="spacingAndGlyphs" textLength="85" x="224.65" y="313.9102">DatasetAdapter</text><line style="stroke: #A80036; stroke-width: 1.5;" x1="184" x2="322" y1="325" y2="325"/><line style="stroke: #A80036; stroke-width: 1.5;" x1="184" x2="322" y1="333" y2="333"/><text fill="#000000" font-family="sans-serif" font-size="11" font-style="italic" lengthAdjust="spacingAndGlyphs" textLength="128" x="189" y="348.4189">wrapped_dataset(): object</text><rect fill="#FEFECE" filter="url(#f1)" height="48" style="stroke: #A80036; stroke-width: 1.5;" width="130" x="188" y="8"/><ellipse cx="203" cy="24" fill="#ADD1B2" rx="11" ry="11" style="stroke: #A80036; stroke-width: 1.0;"/><path d="M205.7656,19.875 Q205.9219,19.6563 206.1094,19.5469 Q206.2969,19.4375 206.5156,19.4375 Q206.8906,19.4375 207.125,19.6953 Q207.3594,19.9531 207.3594,20.5625 L207.3594,22.0156 Q207.3594,22.625 207.125,22.8906 Q206.8906,23.1563 206.5156,23.1563 Q206.1719,23.1563 205.9688,22.9531 Q205.7656,22.7656 205.6563,22.25 Q205.6094,21.8906 205.4219,21.7031 Q205.0938,21.3281 204.4844,21.1094 Q203.875,20.8906 203.25,20.8906 Q202.4844,20.8906 201.8516,21.2188 Q201.2188,21.5469 200.7266,22.2969 Q200.2344,23.0469 200.2344,24.0781 L200.2344,25.1719 Q200.2344,26.4063 201.125,27.2266 Q202.0156,28.0469 203.6094,28.0469 Q204.5469,28.0469 205.2031,27.7969 Q205.5938,27.6406 206.0156,27.2031 Q206.2813,26.9375 206.4297,26.8594 Q206.5781,26.7813 206.7813,26.7813 Q207.1094,26.7813 207.3672,27.0391 Q207.625,27.2969 207.625,27.6406 Q207.625,27.9844 207.2813,28.3906 Q206.7813,28.9688 205.9844,29.2969 Q204.9063,29.75 203.6094,29.75 Q202.0938,29.75 200.8906,29.125 Q199.9063,28.625 199.2188,27.5547 Q198.5313,26.4844 198.5313,25.2031 L198.5313,24.0469 Q198.5313,22.7188 199.1484,21.5703 Q199.7656,20.4219 200.8594,19.8047 Q201.9531,19.1875 203.1875,19.1875 Q203.9219,19.1875 204.5703,19.3516 Q205.2188,19.5156 205.7656,19.875 Z "/><text fill="#000000" font-family="sans-serif" font-size="12" lengthAdjust="spacingAndGlyphs" textLength="98" x="217" y="28.9102">DatasetCollection</text><line style="stroke: #A80036; stroke-width: 1.5;" x1="189" x2="317" y1="40" y2="40"/><line style="stroke: #A80036; stroke-width: 1.5;" x1="189" x2="317" y1="48" y2="48"/><polygon fill="#FBFB77" filter="url(#f1)" points="353,19,353,45.3516,475,45.3516,475,29,465,19,353,19" style="stroke: #A80036; stroke-width: 1.0;"/><polygon fill="#FBFB77" points="353,19,353,28,318.092,32,353,36,353,45.3516,475,45.3516,475,29,465,19,353,19" style="stroke: #A80036; stroke-width: 1.0;"/><line style="stroke: #A80036; stroke-width: 1.0;" x1="465" x2="465" y1="19" y2="29"/><line style="stroke: #A80036; stroke-width: 1.0;" x1="475" x2="465" y1="29" y2="29"/><text fill="#000000" font-family="sans-serif" font-size="13" lengthAdjust="spacingAndGlyphs" textLength="101" x="359" y="37.4951">Collection pattern</text><path d="M253,253.707 C253,267.641 253,281.362 253,292.87 " fill="none" style="stroke: #A80036; stroke-width: 1.0; stroke-dasharray: 7.0,7.0;"/><polygon fill="none" points="246,253.373,253,233.373,260,253.373,246,253.373" style="stroke: #A80036; stroke-width: 1.0;"/><path d="M266.429,95.62 C266.16,81.23 265.128,67.273 263.333,56.201 " fill="none" style="stroke: #A80036; stroke-width: 1.0; stroke-dasharray: 7.0,7.0;"/><polygon fill="none" points="273.427,96.04,266.301,115.995,259.427,95.952,273.427,96.04" style="stroke: #A80036; stroke-width: 1.0;"/><path d="M241.663,69.467 C240.729,79.78 240.258,91.367 240.25,102.964 " fill="none" style="stroke: #A80036; stroke-width: 1.0;"/><polygon fill="#A80036" points="240.438,115.995,244.307,106.9379,240.3655,110.9955,236.3079,107.054,240.438,115.995" style="stroke: #A80036; stroke-width: 1.0;"/><line style="stroke: #A80036; stroke-width: 1.0;" x1="240.3655" x2="240.2505" y1="110.9955" y2="102.997"/><polygon fill="#FFFFFF" points="243.241,56.201,238.5603,61.6865,241.8235,68.117,246.5043,62.6315,243.241,56.201" style="stroke: #A80036; stroke-width: 1.0;"/><text fill="#000000" font-family="sans-serif" font-size="13" lengthAdjust="spacingAndGlyphs" textLength="24" x="213.291" y="104.9802">0..N</text><path d="M207.197,369.686 C191.807,384.701 175.011,401.087 161.028,414.7286 " fill="none" style="stroke: #A80036; stroke-width: 1.0;"/><polygon fill="none" points="202.758,364.237,221.962,355.281,212.535,374.258,202.758,364.237" style="stroke: #A80036; stroke-width: 1.0;"/><path d="M298.803,369.686 C314.193,384.701 330.989,401.087 344.972,414.7286 " fill="none" style="stroke: #A80036; stroke-width: 1.0;"/><polygon fill="none" points="293.465,374.258,284.038,355.281,303.242,364.237,293.465,374.258" style="stroke: #A80036; stroke-width: 1.0;"/></g></svg>