<?xml version="1.0" encoding="UTF-8" standalone="yes"?><svg xmlns="http://www.w3.org/2000/svg" xmlns:xlink="http://www.w3.org/1999/xlink" height="678px" style="width:867px;height:678px;" version="1.1" viewBox="0 0 867 678" width="867px"><defs><filter height="300%" id="f1" width="300%" x="-1" y="-1"><feGaussianBlur result="blurOut" stdDeviation="2.0"/><feColorMatrix in="blurOut" result="blurOut2" type="matrix" values="0 0 0 0 0 0 0 0 0 0 0 0 0 0 0 0 0 0 .4 0"/><feOffset dx="4.0" dy="4.0" in="blurOut2" result="blurOut3"/><feBlend in="SourceGraphic" in2="blurOut3" mode="normal"/></filter></defs><g><rect fill="#FEFECE" filter="url(#f1)" height="61.8359" style="stroke: #A80036; stroke-width: 1.5;" width="78" x="435.194" y="72"/><ellipse cx="450.194" cy="88" fill="#ADD1B2" rx="11" ry="11" style="stroke: #A80036; stroke-width: 1.0;"/><path d="M452.9596,83.875 Q453.1159,83.6563 453.3034,83.5469 Q453.4909,83.4375 453.7096,83.4375 Q454.0846,83.4375 454.319,83.6953 Q454.5534,83.9531 454.5534,84.5625 L454.5534,86.0156 Q454.5534,86.625 454.319,86.8906 Q454.0846,87.1563 453.7096,87.1563 Q453.3659,87.1563 453.1628,86.9531 Q452.9596,86.7656 452.8503,86.25 Q452.8034,85.8906 452.6159,85.7031 Q452.2878,85.3281 451.6784,85.1094 Q451.069,84.8906 450.444,84.8906 Q449.6784,84.8906 449.0456,85.2188 Q448.4128,85.5469 447.9206,86.2969 Q447.4284,87.0469 447.4284,88.0781 L447.4284,89.1719 Q447.4284,90.4063 448.319,91.2266 Q449.2096,92.0469 450.8034,92.0469 Q451.7409,92.0469 452.3971,91.7969 Q452.7878,91.6406 453.2096,91.2031 Q453.4753,90.9375 453.6237,90.8594 Q453.7721,90.7813 453.9753,90.7813 Q454.3034,90.7813 454.5612,91.0391 Q454.819,91.2969 454.819,91.6406 Q454.819,91.9844 454.4753,92.3906 Q453.9753,92.9688 453.1784,93.2969 Q452.1003,93.75 450.8034,93.75 Q449.2878,93.75 448.0846,93.125 Q447.1003,92.625 446.4128,91.5547 Q445.7253,90.4844 445.7253,89.2031 L445.7253,88.0469 Q445.7253,86.7188 446.3424,85.5703 Q446.9596,84.4219 448.0534,83.8047 Q449.1471,83.1875 450.3815,83.1875 Q451.1159,83.1875 451.7643,83.3516 Q452.4128,83.5156 452.9596,83.875 Z "/><text fill="#000000" font-family="sans-serif" font-size="12" lengthAdjust="spacingAndGlyphs" textLength="46" x="464.194" y="92.9102">Schema</text><line style="stroke: #A80036; stroke-width: 1.5;" x1="436.194" x2="512.194" y1="104" y2="104"/><text fill="#000000" font-family="sans-serif" font-size="11" lengthAdjust="spacingAndGlyphs" textLength="45" x="441.194" y="119.4189">name: str</text><line style="stroke: #A80036; stroke-width: 1.5;" x1="436.194" x2="512.194" y1="125.8359" y2="125.8359"/><rect fill="#FEFECE" filter="url(#f1)" height="61.8359" style="stroke: #A80036; stroke-width: 1.5;" width="93" x="398.694" y="425"/><ellipse cx="413.694" cy="441" fill="#ADD1B2" rx="11" ry="11" style="stroke: #A80036; stroke-width: 1.0;"/><path d="M416.4596,436.875 Q416.6159,436.6563 416.8034,436.5469 Q416.9909,436.4375 417.2096,436.4375 Q417.5846,436.4375 417.819,436.6953 Q418.0534,436.9531 418.0534,437.5625 L418.0534,439.0156 Q418.0534,439.625 417.819,439.8906 Q417.5846,440.1563 417.2096,440.1563 Q416.8659,440.1563 416.6628,439.9531 Q416.4596,439.7656 416.3503,439.25 Q416.3034,438.8906 416.1159,438.7031 Q415.7878,438.3281 415.1784,438.1094 Q414.569,437.8906 413.944,437.8906 Q413.1784,437.8906 412.5456,438.2188 Q411.9128,438.5469 411.4206,439.2969 Q410.9284,440.0469 410.9284,441.0781 L410.9284,442.1719 Q410.9284,443.4063 411.819,444.2266 Q412.7096,445.0469 414.3034,445.0469 Q415.2409,445.0469 415.8971,444.7969 Q416.2878,444.6406 416.7096,444.2031 Q416.9753,443.9375 417.1237,443.8594 Q417.2721,443.7813 417.4753,443.7813 Q417.8034,443.7813 418.0612,444.0391 Q418.319,444.2969 418.319,444.6406 Q418.319,444.9844 417.9753,445.3906 Q417.4753,445.9688 416.6784,446.2969 Q415.6003,446.75 414.3034,446.75 Q412.7878,446.75 411.5846,446.125 Q410.6003,445.625 409.9128,444.5547 Q409.2253,443.4844 409.2253,442.2031 L409.2253,441.0469 Q409.2253,439.7188 409.8424,438.5703 Q410.4596,437.4219 411.5534,436.8047 Q412.6471,436.1875 413.8815,436.1875 Q414.6159,436.1875 415.2643,436.3516 Q415.9128,436.5156 416.4596,436.875 Z "/><text fill="#000000" font-family="sans-serif" font-size="12" lengthAdjust="spacingAndGlyphs" textLength="61" x="427.694" y="445.9102">Dimension</text><line style="stroke: #A80036; stroke-width: 1.5;" x1="399.694" x2="490.694" y1="457" y2="457"/><text fill="#000000" font-family="sans-serif" font-size="11" lengthAdjust="spacingAndGlyphs" textLength="45" x="404.694" y="472.4189">name: str</text><line style="stroke: #A80036; stroke-width: 1.5;" x1="399.694" x2="490.694" y1="478.8359" y2="478.8359"/><rect fill="#FEFECE" filter="url(#f1)" height="89.5078" style="stroke: #A80036; stroke-width: 1.5;" width="87" x="401.694" y="579"/><ellipse cx="421.644" cy="595" fill="#ADD1B2" rx="11" ry="11" style="stroke: #A80036; stroke-width: 1.0;"/><path d="M424.4096,590.875 Q424.5659,590.6563 424.7534,590.5469 Q424.9409,590.4375 425.1596,590.4375 Q425.5346,590.4375 425.769,590.6953 Q426.0034,590.9531 426.0034,591.5625 L426.0034,593.0156 Q426.0034,593.625 425.769,593.8906 Q425.5346,594.1563 425.1596,594.1563 Q424.8159,594.1563 424.6128,593.9531 Q424.4096,593.7656 424.3003,593.25 Q424.2534,592.8906 424.0659,592.7031 Q423.7378,592.3281 423.1284,592.1094 Q422.519,591.8906 421.894,591.8906 Q421.1284,591.8906 420.4956,592.2188 Q419.8628,592.5469 419.3706,593.2969 Q418.8784,594.0469 418.8784,595.0781 L418.8784,596.1719 Q418.8784,597.4063 419.769,598.2266 Q420.6596,599.0469 422.2534,599.0469 Q423.1909,599.0469 423.8471,598.7969 Q424.2378,598.6406 424.6596,598.2031 Q424.9253,597.9375 425.0737,597.8594 Q425.2221,597.7813 425.4253,597.7813 Q425.7534,597.7813 426.0112,598.0391 Q426.269,598.2969 426.269,598.6406 Q426.269,598.9844 425.9253,599.3906 Q425.4253,599.9688 424.6284,600.2969 Q423.5503,600.75 422.2534,600.75 Q420.7378,600.75 419.5346,600.125 Q418.5503,599.625 417.8628,598.5547 Q417.1753,597.4844 417.1753,596.2031 L417.1753,595.0469 Q417.1753,593.7188 417.7924,592.5703 Q418.4096,591.4219 419.5034,590.8047 Q420.5971,590.1875 421.8315,590.1875 Q422.5659,590.1875 423.2143,590.3516 Q423.8628,590.5156 424.4096,590.875 Z "/><text fill="#000000" font-family="sans-serif" font-size="12" lengthAdjust="spacingAndGlyphs" textLength="44" x="436.744" y="599.9102">Attribute</text><line style="stroke: #A80036; stroke-width: 1.5;" x1="402.694" x2="487.694" y1="611" y2="611"/><text fill="#000000" font-family="sans-serif" font-size="11" lengthAdjust="spacingAndGlyphs" textLength="45" x="407.694" y="626.4189">name: str</text><text fill="#000000" font-family="sans-serif" font-size="11" lengthAdjust="spacingAndGlyphs" textLength="75" x="407.694" y="640.2549">data_type: type</text><text fill="#000000" font-family="sans-serif" font-size="11" lengthAdjust="spacingAndGlyphs" textLength="61" x="407.694" y="654.0908">value: object</text><line style="stroke: #A80036; stroke-width: 1.5;" x1="402.694" x2="487.694" y1="660.5078" y2="660.5078"/><rect fill="#FEFECE" filter="url(#f1)" height="75.6719" style="stroke: #A80036; stroke-width: 1.5;" width="87" x="333.694" y="258"/><ellipse cx="353.194" cy="274" fill="#ADD1B2" rx="11" ry="11" style="stroke: #A80036; stroke-width: 1.0;"/><path d="M355.9596,269.875 Q356.1159,269.6563 356.3034,269.5469 Q356.4909,269.4375 356.7096,269.4375 Q357.0846,269.4375 357.319,269.6953 Q357.5534,269.9531 357.5534,270.5625 L357.5534,272.0156 Q357.5534,272.625 357.319,272.8906 Q357.0846,273.1563 356.7096,273.1563 Q356.3659,273.1563 356.1628,272.9531 Q355.9596,272.7656 355.8503,272.25 Q355.8034,271.8906 355.6159,271.7031 Q355.2878,271.3281 354.6784,271.1094 Q354.069,270.8906 353.444,270.8906 Q352.6784,270.8906 352.0456,271.2188 Q351.4128,271.5469 350.9206,272.2969 Q350.4284,273.0469 350.4284,274.0781 L350.4284,275.1719 Q350.4284,276.4063 351.319,277.2266 Q352.2096,278.0469 353.8034,278.0469 Q354.7409,278.0469 355.3971,277.7969 Q355.7878,277.6406 356.2096,277.2031 Q356.4753,276.9375 356.6237,276.8594 Q356.7721,276.7813 356.9753,276.7813 Q357.3034,276.7813 357.5612,277.0391 Q357.819,277.2969 357.819,277.6406 Q357.819,277.9844 357.4753,278.3906 Q356.9753,278.9688 356.1784,279.2969 Q355.1003,279.75 353.8034,279.75 Q352.2878,279.75 351.0846,279.125 Q350.1003,278.625 349.4128,277.5547 Q348.7253,276.4844 348.7253,275.2031 L348.7253,274.0469 Q348.7253,272.7188 349.3424,271.5703 Q349.9596,270.4219 351.0534,269.8047 Q352.1471,269.1875 353.3815,269.1875 Q354.1159,269.1875 354.7643,269.3516 Q355.4128,269.5156 355.9596,269.875 Z "/><text fill="#000000" font-family="sans-serif" font-size="12" lengthAdjust="spacingAndGlyphs" textLength="45" x="368.194" y="278.9102">Variable</text><line style="stroke: #A80036; stroke-width: 1.5;" x1="334.694" x2="419.694" y1="290" y2="290"/><text fill="#000000" font-family="sans-serif" font-size="11" lengthAdjust="spacingAndGlyphs" textLength="45" x="339.694" y="305.4189">name: str</text><text fill="#000000" font-family="sans-serif" font-size="11" lengthAdjust="spacingAndGlyphs" textLength="75" x="339.694" y="319.2549">data_type: type</text><line style="stroke: #A80036; stroke-width: 1.5;" x1="334.694" x2="419.694" y1="325.6719" y2="325.6719"/><polygon fill="#FBFB77" filter="url(#f1)" points="28.6941,8,28.6941,197.8672,399.6941,197.8672,399.6941,18,389.6941,8,28.6941,8" style="stroke: #A80036; stroke-width: 1.0;"/><polygon fill="#FBFB77" points="28.6941,8,28.6941,197.8672,399.6941,197.8672,399.6941,107,434.963,103,399.6941,99,399.6941,18,389.6941,8,28.6941,8" style="stroke: #A80036; stroke-width: 1.0;"/><line style="stroke: #A80036; stroke-width: 1.0;" x1="389.6941" x2="389.6941" y1="8" y2="18"/><line style="stroke: #A80036; stroke-width: 1.0;" x1="399.6941" x2="389.6941" y1="18" y2="18"/><text fill="#000000" font-family="sans-serif" font-size="13" lengthAdjust="spacingAndGlyphs" textLength="9" x="34.6941" y="26.4951">A</text><text fill="#000000" font-family="sans-serif" font-size="13" font-weight="bold" lengthAdjust="spacingAndGlyphs" textLength="52" x="47.6941" y="26.4951">Schema</text><text fill="#000000" font-family="sans-serif" font-size="13" lengthAdjust="spacingAndGlyphs" textLength="131" x="103.6941" y="26.4951">corresponds to specifc</text><text fill="#000000" font-family="sans-serif" font-size="13" font-weight="bold" lengthAdjust="spacingAndGlyphs" textLength="47" x="238.6941" y="26.4951">Dataset</text><text fill="#000000" font-family="sans-serif" font-size="13" lengthAdjust="spacingAndGlyphs" textLength="29" x="289.6941" y="26.4951">type.</text><text fill="#000000" font-family="sans-serif" font-size="13" lengthAdjust="spacingAndGlyphs" textLength="0" x="38.6941" y="42.8467"/><text fill="#000000" font-family="sans-serif" font-size="13" lengthAdjust="spacingAndGlyphs" textLength="38" x="34.6941" y="59.1982">Both a</text><text fill="#000000" font-family="sans-serif" font-size="13" font-weight="bold" lengthAdjust="spacingAndGlyphs" textLength="74" x="76.6941" y="59.1982">DataSource</text><text fill="#000000" font-family="sans-serif" font-size="13" lengthAdjust="spacingAndGlyphs" textLength="32" x="154.6941" y="59.1982">and a</text><text fill="#000000" font-family="sans-serif" font-size="13" font-weight="bold" lengthAdjust="spacingAndGlyphs" textLength="47" x="190.6941" y="59.1982">Dataset</text><text fill="#000000" font-family="sans-serif" font-size="13" lengthAdjust="spacingAndGlyphs" textLength="113" x="241.6941" y="59.1982">know their schema.</text><text fill="#000000" font-family="sans-serif" font-size="13" lengthAdjust="spacingAndGlyphs" textLength="350" x="34.6941" y="75.5498">We will use schemas mostly to check operation applicability</text><text fill="#000000" font-family="sans-serif" font-size="13" lengthAdjust="spacingAndGlyphs" textLength="306" x="34.6941" y="91.9014">and do input validation. Therefore we will focus on the</text><text fill="#000000" font-family="sans-serif" font-size="13" lengthAdjust="spacingAndGlyphs" textLength="307" x="34.6941" y="108.2529">variables and their dimensions expected in a dataset.</text><text fill="#000000" font-family="sans-serif" font-size="13" lengthAdjust="spacingAndGlyphs" textLength="168" x="34.6941" y="124.6045">For this reason we resign the</text><text fill="#000000" font-family="sans-serif" font-size="13" font-weight="bold" lengthAdjust="spacingAndGlyphs" textLength="39" x="206.6941" y="124.6045">Group</text><text fill="#000000" font-family="sans-serif" font-size="13" lengthAdjust="spacingAndGlyphs" textLength="116" x="249.6941" y="124.6045">schema here, which</text><text fill="#000000" font-family="sans-serif" font-size="13" lengthAdjust="spacingAndGlyphs" textLength="231" x="34.6941" y="140.9561">is defined as part of the netCDF 4 CDM.</text><text fill="#000000" font-family="sans-serif" font-size="13" lengthAdjust="spacingAndGlyphs" textLength="0" x="38.6941" y="157.3076"/><text fill="#000000" font-family="sans-serif" font-size="13" lengthAdjust="spacingAndGlyphs" textLength="267" x="34.6941" y="173.6592">However, original grouping is retained by using</text><text fill="#000000" font-family="sans-serif" font-size="13" font-style="italic" lengthAdjust="spacingAndGlyphs" textLength="68" x="305.6941" y="173.6592">path names</text><text fill="#000000" font-family="sans-serif" font-size="13" lengthAdjust="spacingAndGlyphs" textLength="159" x="34.6941" y="190.0107">for Variables and attributes.</text><polygon fill="#FBFB77" filter="url(#f1)" points="598.694,266.5,598.694,325.5547,819.694,325.5547,819.694,276.5,809.694,266.5,598.694,266.5" style="stroke: #A80036; stroke-width: 1.0;"/><polygon fill="#FBFB77" points="598.694,266.5,598.694,292,420.964,296,598.694,300,598.694,325.5547,819.694,325.5547,819.694,276.5,809.694,266.5,598.694,266.5" style="stroke: #A80036; stroke-width: 1.0;"/><line style="stroke: #A80036; stroke-width: 1.0;" x1="809.694" x2="809.694" y1="266.5" y2="276.5"/><line style="stroke: #A80036; stroke-width: 1.0;" x1="819.694" x2="809.694" y1="276.5" y2="276.5"/><text fill="#000000" font-family="sans-serif" font-size="13" lengthAdjust="spacingAndGlyphs" textLength="200" x="604.694" y="284.9951">Note that a variable's value is not a</text><text fill="#000000" font-family="sans-serif" font-size="13" lengthAdjust="spacingAndGlyphs" textLength="61" x="604.694" y="301.3467">property of</text><text fill="#000000" font-family="sans-serif" font-size="13" font-weight="bold" lengthAdjust="spacingAndGlyphs" textLength="54" x="669.694" y="301.3467">Variable</text><text fill="#000000" font-family="sans-serif" font-size="13" lengthAdjust="spacingAndGlyphs" textLength="74" x="727.694" y="301.3467">because this</text><text fill="#000000" font-family="sans-serif" font-size="13" lengthAdjust="spacingAndGlyphs" textLength="21" x="604.694" y="317.6982">is a</text><text fill="#000000" font-family="sans-serif" font-size="13" font-style="italic" lengthAdjust="spacingAndGlyphs" textLength="46" x="629.694" y="317.6982">schema</text><text fill="#000000" font-family="sans-serif" font-size="13" lengthAdjust="spacingAndGlyphs" textLength="72" x="679.694" y="317.6982">of a variable.</text><polygon fill="#FBFB77" filter="url(#f1)" points="49.1941,394,49.1941,518.4609,363.1941,518.4609,363.1941,404,353.1941,394,49.1941,394" style="stroke: #A80036; stroke-width: 1.0;"/><polygon fill="#FBFB77" points="49.1941,394,49.1941,518.4609,363.1941,518.4609,363.1941,460,398.606,456,363.1941,452,363.1941,404,353.1941,394,49.1941,394" style="stroke: #A80036; stroke-width: 1.0;"/><line style="stroke: #A80036; stroke-width: 1.0;" x1="353.1941" x2="353.1941" y1="394" y2="404"/><line style="stroke: #A80036; stroke-width: 1.0;" x1="363.1941" x2="353.1941" y1="404" y2="404"/><text fill="#000000" font-family="sans-serif" font-size="13" lengthAdjust="spacingAndGlyphs" textLength="243" x="55.1941" y="412.4951">In the netCDF CDM, the only property of a</text><text fill="#000000" font-family="sans-serif" font-size="13" font-weight="bold" lengthAdjust="spacingAndGlyphs" textLength="67" x="55.1941" y="428.8467">Dimension</text><text fill="#000000" font-family="sans-serif" font-size="13" lengthAdjust="spacingAndGlyphs" textLength="10" x="126.1941" y="428.8467">is</text><text fill="#000000" font-family="sans-serif" font-size="13" font-style="italic" lengthAdjust="spacingAndGlyphs" textLength="35" x="140.1941" y="428.8467">length</text><text fill="#000000" font-family="sans-serif" font-size="13" lengthAdjust="spacingAndGlyphs" textLength="64" x="175.1941" y="428.8467">. We make</text><text fill="#000000" font-family="sans-serif" font-size="13" font-style="italic" lengthAdjust="spacingAndGlyphs" textLength="35" x="243.1941" y="428.8467">length</text><text fill="#000000" font-family="sans-serif" font-size="13" lengthAdjust="spacingAndGlyphs" textLength="293" x="55.1941" y="445.1982">an optional attribute. Remember that the "features"</text><text fill="#000000" font-family="sans-serif" font-size="13" lengthAdjust="spacingAndGlyphs" textLength="275" x="55.1941" y="461.5498">read from a Shapefile may have two dimensions</text><text fill="#000000" font-family="sans-serif" font-size="13" lengthAdjust="spacingAndGlyphs" textLength="156" x="55.1941" y="477.9014">(e.g. lat / lon) but no actual</text><text fill="#000000" font-family="sans-serif" font-size="13" font-style="italic" lengthAdjust="spacingAndGlyphs" textLength="35" x="215.1941" y="477.9014">length</text><text fill="#000000" font-family="sans-serif" font-size="13" lengthAdjust="spacingAndGlyphs" textLength="71" x="250.1941" y="477.9014">. However, a</text><text fill="#000000" font-family="sans-serif" font-size="13" lengthAdjust="spacingAndGlyphs" textLength="291" x="55.1941" y="494.2529">dimension might have other attributes in this case,</text><text fill="#000000" font-family="sans-serif" font-size="13" lengthAdjust="spacingAndGlyphs" textLength="46" x="55.1941" y="510.6045">such as</text><text fill="#000000" font-family="sans-serif" font-size="13" font-style="italic" lengthAdjust="spacingAndGlyphs" textLength="82" x="105.1941" y="510.6045">units=degrees</text><text fill="#000000" font-family="sans-serif" font-size="13" lengthAdjust="spacingAndGlyphs" textLength="21" x="191.1941" y="510.6045">and</text><text fill="#000000" font-family="sans-serif" font-size="13" font-style="italic" lengthAdjust="spacingAndGlyphs" textLength="72" x="216.1941" y="510.6045">crs=WGS84</text><text fill="#000000" font-family="sans-serif" font-size="13" lengthAdjust="spacingAndGlyphs" textLength="4" x="292.1941" y="510.6045">.</text><polygon fill="#FBFB77" filter="url(#f1)" points="524.194,578,524.194,669.7578,858.194,669.7578,858.194,588,848.194,578,524.194,578" style="stroke: #A80036; stroke-width: 1.0;"/><polygon fill="#FBFB77" points="524.194,578,524.194,620,488.917,624,524.194,628,524.194,669.7578,858.194,669.7578,858.194,588,848.194,578,524.194,578" style="stroke: #A80036; stroke-width: 1.0;"/><line style="stroke: #A80036; stroke-width: 1.0;" x1="848.194" x2="848.194" y1="578" y2="588"/><line style="stroke: #A80036; stroke-width: 1.0;" x1="858.194" x2="848.194" y1="588" y2="588"/><text fill="#000000" font-family="sans-serif" font-size="13" lengthAdjust="spacingAndGlyphs" textLength="231" x="530.194" y="596.4951">Attributes are meta-data. Since this is a</text><text fill="#000000" font-family="sans-serif" font-size="13" font-style="italic" lengthAdjust="spacingAndGlyphs" textLength="46" x="765.194" y="596.4951">schema</text><text fill="#000000" font-family="sans-serif" font-size="13" lengthAdjust="spacingAndGlyphs" textLength="4" x="811.194" y="596.4951">,</text><text fill="#000000" font-family="sans-serif" font-size="13" lengthAdjust="spacingAndGlyphs" textLength="78" x="530.194" y="612.8467">the attribute's</text><text fill="#000000" font-family="sans-serif" font-size="13" font-style="italic" lengthAdjust="spacingAndGlyphs" textLength="30" x="612.194" y="612.8467">value</text><text fill="#000000" font-family="sans-serif" font-size="13" lengthAdjust="spacingAndGlyphs" textLength="140" x="646.194" y="612.8467">used here represents an</text><text fill="#000000" font-family="sans-serif" font-size="13" lengthAdjust="spacingAndGlyphs" textLength="313" x="530.194" y="629.1982">invariant across a given number of datasets instances.</text><text fill="#000000" font-family="sans-serif" font-size="13" lengthAdjust="spacingAndGlyphs" textLength="6" x="530.194" y="645.5498">If</text><text fill="#000000" font-family="sans-serif" font-size="13" font-style="italic" lengthAdjust="spacingAndGlyphs" textLength="30" x="540.194" y="645.5498">value</text><text fill="#000000" font-family="sans-serif" font-size="13" lengthAdjust="spacingAndGlyphs" textLength="212" x="574.194" y="645.5498">is not known, this still means that all</text><text fill="#000000" font-family="sans-serif" font-size="13" lengthAdjust="spacingAndGlyphs" textLength="273" x="530.194" y="661.9014">these datasets share an attribute with the given</text><text fill="#000000" font-family="sans-serif" font-size="13" font-style="italic" lengthAdjust="spacingAndGlyphs" textLength="32" x="807.194" y="661.9014">name</text><text fill="#000000" font-family="sans-serif" font-size="13" lengthAdjust="spacingAndGlyphs" textLength="4" x="839.194" y="661.9014">.</text><path d="M452.903,145.924 C437.942,175.382 417.876,214.894 402.161,245.838 " fill="none" style="stroke: #A80036; stroke-width: 1.0;"/><polygon fill="#A80036" points="396.155,257.665,403.7966,251.4516,398.4189,253.2069,396.6636,247.8293,396.155,257.665" style="stroke: #A80036; stroke-width: 1.0;"/><line style="stroke: #A80036; stroke-width: 1.0;" x1="398.4189" x2="402.0415" y1="253.2069" y2="246.074"/><polygon fill="#FFFFFF" points="458.824,134.265,452.5405,137.8029,453.3895,144.9639,459.673,141.4259,458.824,134.265" style="stroke: #A80036; stroke-width: 1.0;"/><path d="M470.62,147.264 C465.039,214.812 454.319,344.556 448.75,411.964 " fill="none" style="stroke: #A80036; stroke-width: 1.0;"/><polygon fill="#A80036" points="447.675,424.968,452.4022,416.3278,448.0865,419.985,444.4294,415.6693,447.675,424.968" style="stroke: #A80036; stroke-width: 1.0;"/><line style="stroke: #A80036; stroke-width: 1.0;" x1="448.0865" x2="448.7455" y1="419.985" y2="412.0115"/><polygon fill="#FFFFFF" points="471.696,134.23,467.2158,139.8804,470.7084,146.1893,475.1886,140.5388,471.696,134.23" style="stroke: #A80036; stroke-width: 1.0;"/><path d="M393.137,334.044 C404.335,360.062 419.213,394.632 430.195,420.15 " fill="none" style="stroke: #A80036; stroke-width: 1.0;"/><polygon fill="#A80036" points="432.199,424.805,432.317,414.9568,430.2232,420.2119,424.9681,418.1181,432.199,424.805" style="stroke: #A80036; stroke-width: 1.0;"/><path d="M320.506,304.582 C231.656,317.759 66.1044,347.957 31.1941,394 C-2.1028,437.915 -2.6479,474.503 31.1941,518 C74.8801,574.1489 285.672,605.1166 388.517,617.1064 " fill="none" style="stroke: #A80036; stroke-width: 1.0;"/><polygon fill="#A80036" points="401.692,618.6072,393.2026,613.6142,396.7241,618.0413,392.2971,621.5628,401.692,618.6072" style="stroke: #A80036; stroke-width: 1.0;"/><line style="stroke: #A80036; stroke-width: 1.0;" x1="396.7241" x2="388.776" y1="618.0413" y2="617.1358"/><polygon fill="#FFFFFF" points="333.555,302.688,327.0424,299.5919,321.6796,304.4127,328.1922,307.5088,333.555,302.688" style="stroke: #A80036; stroke-width: 1.0;"/><path d="M487.573,146.799 C509.258,222.987 546.117,386.483 509.194,518 C504.389,535.116 495.938,552.207 486.721,567.478 " fill="none" style="stroke: #A80036; stroke-width: 1.0;"/><polygon fill="#A80036" points="479.572,578.7716,487.7655,573.3066,482.2463,574.5469,481.006,569.0277,479.572,578.7716" style="stroke: #A80036; stroke-width: 1.0;"/><line style="stroke: #A80036; stroke-width: 1.0;" x1="482.2463" x2="486.5255" y1="574.5469" y2="567.7877"/><polygon fill="#FFFFFF" points="483.85,134.046,481.6915,140.9265,487.2124,145.5653,489.371,138.6848,483.85,134.046" style="stroke: #A80036; stroke-width: 1.0;"/><path d="M445.194,500.168 C445.194,520.191 445.194,544.267 445.194,565.779 " fill="none" style="stroke: #A80036; stroke-width: 1.0;"/><polygon fill="#A80036" points="445.194,578.7825,449.194,569.7825,445.194,573.7825,441.194,569.7825,445.194,578.7825" style="stroke: #A80036; stroke-width: 1.0;"/><line style="stroke: #A80036; stroke-width: 1.0;" x1="445.194" x2="445.194" y1="573.7825" y2="565.7825"/><polygon fill="#FFFFFF" points="445.194,487.061,441.194,493.061,445.194,499.061,449.194,493.061,445.194,487.061" style="stroke: #A80036; stroke-width: 1.0;"/></g></svg>