<?xml version="1.0" encoding="UTF-8" standalone="yes"?><svg xmlns="http://www.w3.org/2000/svg" xmlns:xlink="http://www.w3.org/1999/xlink" height="231px" style="width:277px;height:231px;" version="1.1" viewBox="0 0 277 231" width="277px"><defs><filter height="300%" id="f1" width="300%" x="-1" y="-1"><feGaussianBlur result="blurOut" stdDeviation="2.0"/><feColorMatrix in="blurOut" result="blurOut2" type="matrix" values="0 0 0 0 0 0 0 0 0 0 0 0 0 0 0 0 0 0 .4 0"/><feOffset dx="4.0" dy="4.0" in="blurOut2" result="blurOut3"/><feBlend in="SourceGraphic" in2="blurOut3" mode="normal"/></filter></defs><g><rect fill="#FFBBBB" filter="url(#f1)" height="102.0547" style="stroke: #A80036; stroke-width: 1.0;" width="10" x="124.5" y="71.6094"/><rect fill="#E9967A" filter="url(#f1)" height="49.7031" style="stroke: #A80036; stroke-width: 1.0;" width="10" x="129.5" y="109.9609"/><rect fill="#FFFFFF" filter="url(#f1)" height="14.3516" style="stroke: #A80036; stroke-width: 1.0;" width="10" x="233.5" y="145.3125"/><line style="stroke: #A80036; stroke-width: 1.0; stroke-dasharray: 5.0,5.0;" x1="31" x2="31" y1="39.6094" y2="191.6641"/><line style="stroke: #A80036; stroke-width: 1.0; stroke-dasharray: 5.0,5.0;" x1="129" x2="129" y1="39.6094" y2="191.6641"/><line style="stroke: #A80036; stroke-width: 1.0; stroke-dasharray: 5.0,5.0;" x1="238" x2="238" y1="39.6094" y2="191.6641"/><rect fill="#FEFECE" filter="url(#f1)" height="31.6094" style="stroke: #A80036; stroke-width: 1.5;" width="43" x="8" y="3"/><text fill="#000000" font-family="sans-serif" font-size="14" lengthAdjust="spacingAndGlyphs" textLength="29" x="15" y="24.5332">User</text><rect fill="#FEFECE" filter="url(#f1)" height="31.6094" style="stroke: #A80036; stroke-width: 1.5;" width="43" x="8" y="190.6641"/><text fill="#000000" font-family="sans-serif" font-size="14" lengthAdjust="spacingAndGlyphs" textLength="29" x="15" y="212.1973">User</text><rect fill="#FEFECE" filter="url(#f1)" height="31.6094" style="stroke: #A80036; stroke-width: 1.5;" width="125" x="65" y="3"/><text fill="#000000" font-family="sans-serif" font-size="14" lengthAdjust="spacingAndGlyphs" textLength="111" x="72" y="24.5332">DatasetCollection</text><rect fill="#FEFECE" filter="url(#f1)" height="31.6094" style="stroke: #A80036; stroke-width: 1.5;" width="125" x="65" y="190.6641"/><text fill="#000000" font-family="sans-serif" font-size="14" lengthAdjust="spacingAndGlyphs" textLength="111" x="72" y="212.1973">DatasetCollection</text><rect fill="#FEFECE" filter="url(#f1)" height="31.6094" style="stroke: #A80036; stroke-width: 1.5;" width="63" x="205" y="3"/><text fill="#000000" font-family="sans-serif" font-size="14" lengthAdjust="spacingAndGlyphs" textLength="49" x="212" y="24.5332">Dataset</text><rect fill="#FEFECE" filter="url(#f1)" height="31.6094" style="stroke: #A80036; stroke-width: 1.5;" width="63" x="205" y="190.6641"/><text fill="#000000" font-family="sans-serif" font-size="14" lengthAdjust="spacingAndGlyphs" textLength="49" x="212" y="212.1973">Dataset</text><rect fill="#FFBBBB" filter="url(#f1)" height="102.0547" style="stroke: #A80036; stroke-width: 1.0;" width="10" x="124.5" y="71.6094"/><rect fill="#E9967A" filter="url(#f1)" height="49.7031" style="stroke: #A80036; stroke-width: 1.0;" width="10" x="129.5" y="109.9609"/><rect fill="#FFFFFF" filter="url(#f1)" height="14.3516" style="stroke: #A80036; stroke-width: 1.0;" width="10" x="233.5" y="145.3125"/><polygon fill="#A80036" points="112.5,67.6094,122.5,71.6094,112.5,75.6094,116.5,71.6094" style="stroke: #A80036; stroke-width: 1.0;"/><line style="stroke: #A80036; stroke-width: 1.0;" x1="31.5" x2="118.5" y1="71.6094" y2="71.6094"/><text fill="#000000" font-family="sans-serif" font-size="13" lengthAdjust="spacingAndGlyphs" textLength="68" x="38.5" y="67.1045">timeseries()</text><line style="stroke: #A80036; stroke-width: 1.0;" x1="134.5" x2="181.5" y1="97.3125" y2="97.3125"/><line style="stroke: #A80036; stroke-width: 1.0;" x1="181.5" x2="181.5" y1="97.3125" y2="110.3125"/><line style="stroke: #A80036; stroke-width: 1.0;" x1="140.5" x2="181.5" y1="110.3125" y2="110.3125"/><polygon fill="#A80036" points="150.5,106.3125,140.5,110.3125,150.5,114.3125,146.5,110.3125" style="stroke: #A80036; stroke-width: 1.0;"/><text fill="#000000" font-family="sans-serif" font-size="13" lengthAdjust="spacingAndGlyphs" textLength="85" x="146.5" y="92.4561">for all datasets</text><polygon fill="#A80036" points="221.5,141.3125,231.5,145.3125,221.5,149.3125,225.5,145.3125" style="stroke: #A80036; stroke-width: 1.0;"/><line style="stroke: #A80036; stroke-width: 1.0;" x1="139.5" x2="227.5" y1="145.3125" y2="145.3125"/><text fill="#000000" font-family="sans-serif" font-size="13" lengthAdjust="spacingAndGlyphs" textLength="68" x="146.5" y="140.8076">timeseries()</text><polygon fill="#A80036" points="145.5,155.6641,135.5,159.6641,145.5,163.6641,141.5,159.6641" style="stroke: #A80036; stroke-width: 1.0;"/><line style="stroke: #A80036; stroke-width: 1.0; stroke-dasharray: 2.0,2.0;" x1="139.5" x2="237.5" y1="159.6641" y2="159.6641"/><polygon fill="#A80036" points="42.5,169.6641,32.5,173.6641,42.5,177.6641,38.5,173.6641" style="stroke: #A80036; stroke-width: 1.0;"/><line style="stroke: #A80036; stroke-width: 1.0; stroke-dasharray: 2.0,2.0;" x1="36.5" x2="128.5" y1="173.6641" y2="173.6641"/></g></svg>