<?xml version="1.0" encoding="UTF-8" standalone="yes"?><svg xmlns="http://www.w3.org/2000/svg" xmlns:xlink="http://www.w3.org/1999/xlink" height="649px" style="width:949px;height:649px;" version="1.1" viewBox="0 0 949 649" width="949px"><defs><filter height="300%" id="f1" width="300%" x="-1" y="-1"><feGaussianBlur result="blurOut" stdDeviation="2.0"/><feColorMatrix in="blurOut" result="blurOut2" type="matrix" values="0 0 0 0 0 0 0 0 0 0 0 0 0 0 0 0 0 0 .4 0"/><feOffset dx="4.0" dy="4.0" in="blurOut2" result="blurOut3"/><feBlend in="SourceGraphic" in2="blurOut3" mode="normal"/></filter></defs><g><rect fill="#FEFECE" filter="url(#f1)" height="60.8047" style="stroke: #A80036; stroke-width: 1.5;" width="82" x="472.992" y="65.5"/><ellipse cx="487.992" cy="81.5" fill="#ADD1B2" rx="11" ry="11" style="stroke: #A80036; stroke-width: 1.0;"/><path d="M490.9608,87.1406 Q490.3826,87.4375 489.742,87.5859 Q489.1014,87.7344 488.3983,87.7344 Q485.8983,87.7344 484.5779,86.0859 Q483.2576,84.4375 483.2576,81.3125 Q483.2576,78.1875 484.5779,76.5313 Q485.8983,74.875 488.3983,74.875 Q489.1014,74.875 489.7498,75.0313 Q490.3983,75.1875 490.9608,75.4844 L490.9608,78.2031 Q490.3358,77.625 489.742,77.3516 Q489.1483,77.0781 488.5233,77.0781 Q487.1795,77.0781 486.492,78.1484 Q485.8045,79.2188 485.8045,81.3125 Q485.8045,83.4063 486.492,84.4766 Q487.1795,85.5469 488.5233,85.5469 Q489.1483,85.5469 489.742,85.2734 Q490.3358,85 490.9608,84.4219 L490.9608,87.1406 Z "/><text fill="#000000" font-family="sans-serif" font-size="12" lengthAdjust="spacingAndGlyphs" textLength="50" x="501.992" y="85.6543">Schema</text><line style="stroke: #A80036; stroke-width: 1.5;" x1="473.992" x2="553.992" y1="97.5" y2="97.5"/><text fill="#000000" font-family="sans-serif" font-size="11" lengthAdjust="spacingAndGlyphs" textLength="56" x="478.992" y="111.7104">name: str</text><line style="stroke: #A80036; stroke-width: 1.5;" x1="473.992" x2="553.992" y1="118.3047" y2="118.3047"/><rect fill="#FEFECE" filter="url(#f1)" height="60.8047" style="stroke: #A80036; stroke-width: 1.5;" width="97" x="434.742" y="405.5"/><ellipse cx="449.742" cy="421.5" fill="#ADD1B2" rx="11" ry="11" style="stroke: #A80036; stroke-width: 1.0;"/><path d="M452.7108,427.1406 Q452.1326,427.4375 451.492,427.5859 Q450.8514,427.7344 450.1483,427.7344 Q447.6483,427.7344 446.3279,426.0859 Q445.0076,424.4375 445.0076,421.3125 Q445.0076,418.1875 446.3279,416.5313 Q447.6483,414.875 450.1483,414.875 Q450.8514,414.875 451.4998,415.0313 Q452.1483,415.1875 452.7108,415.4844 L452.7108,418.2031 Q452.0858,417.625 451.492,417.3516 Q450.8983,417.0781 450.2733,417.0781 Q448.9295,417.0781 448.242,418.1484 Q447.5545,419.2188 447.5545,421.3125 Q447.5545,423.4063 448.242,424.4766 Q448.9295,425.5469 450.2733,425.5469 Q450.8983,425.5469 451.492,425.2734 Q452.0858,425 452.7108,424.4219 L452.7108,427.1406 Z "/><text fill="#000000" font-family="sans-serif" font-size="12" lengthAdjust="spacingAndGlyphs" textLength="65" x="463.742" y="425.6543">Dimension</text><line style="stroke: #A80036; stroke-width: 1.5;" x1="435.742" x2="530.742" y1="437.5" y2="437.5"/><text fill="#000000" font-family="sans-serif" font-size="11" lengthAdjust="spacingAndGlyphs" textLength="56" x="440.742" y="451.7104">name: str</text><line style="stroke: #A80036; stroke-width: 1.5;" x1="435.742" x2="530.742" y1="458.3047" y2="458.3047"/><rect fill="#FEFECE" filter="url(#f1)" height="86.4141" style="stroke: #A80036; stroke-width: 1.5;" width="99" x="433.742" y="554"/><ellipse cx="454.142" cy="570" fill="#ADD1B2" rx="11" ry="11" style="stroke: #A80036; stroke-width: 1.0;"/><path d="M457.1108,575.6406 Q456.5326,575.9375 455.892,576.0859 Q455.2514,576.2344 454.5483,576.2344 Q452.0483,576.2344 450.7279,574.5859 Q449.4076,572.9375 449.4076,569.8125 Q449.4076,566.6875 450.7279,565.0313 Q452.0483,563.375 454.5483,563.375 Q455.2514,563.375 455.8998,563.5313 Q456.5483,563.6875 457.1108,563.9844 L457.1108,566.7031 Q456.4858,566.125 455.892,565.8516 Q455.2983,565.5781 454.6733,565.5781 Q453.3295,565.5781 452.642,566.6484 Q451.9545,567.7188 451.9545,569.8125 Q451.9545,571.9063 452.642,572.9766 Q453.3295,574.0469 454.6733,574.0469 Q455.2983,574.0469 455.892,573.7734 Q456.4858,573.5 457.1108,572.9219 L457.1108,575.6406 Z "/><text fill="#000000" font-family="sans-serif" font-size="12" lengthAdjust="spacingAndGlyphs" textLength="55" x="469.342" y="574.1543">Attribute</text><line style="stroke: #A80036; stroke-width: 1.5;" x1="434.742" x2="531.742" y1="586" y2="586"/><text fill="#000000" font-family="sans-serif" font-size="11" lengthAdjust="spacingAndGlyphs" textLength="56" x="439.742" y="600.2104">name: str</text><text fill="#000000" font-family="sans-serif" font-size="11" lengthAdjust="spacingAndGlyphs" textLength="87" x="439.742" y="613.0151">data_type: type</text><text fill="#000000" font-family="sans-serif" font-size="11" lengthAdjust="spacingAndGlyphs" textLength="72" x="439.742" y="625.8198">value: object</text><line style="stroke: #A80036; stroke-width: 1.5;" x1="434.742" x2="531.742" y1="632.4141" y2="632.4141"/><rect fill="#FEFECE" filter="url(#f1)" height="73.6094" style="stroke: #A80036; stroke-width: 1.5;" width="99" x="361.742" y="244"/><ellipse cx="383.942" cy="260" fill="#ADD1B2" rx="11" ry="11" style="stroke: #A80036; stroke-width: 1.0;"/><path d="M386.9108,265.6406 Q386.3326,265.9375 385.692,266.0859 Q385.0514,266.2344 384.3483,266.2344 Q381.8483,266.2344 380.5279,264.5859 Q379.2076,262.9375 379.2076,259.8125 Q379.2076,256.6875 380.5279,255.0313 Q381.8483,253.375 384.3483,253.375 Q385.0514,253.375 385.6998,253.5313 Q386.3483,253.6875 386.9108,253.9844 L386.9108,256.7031 Q386.2858,256.125 385.692,255.8516 Q385.0983,255.5781 384.4733,255.5781 Q383.1295,255.5781 382.442,256.6484 Q381.7545,257.7188 381.7545,259.8125 Q381.7545,261.9063 382.442,262.9766 Q383.1295,264.0469 384.4733,264.0469 Q385.0983,264.0469 385.692,263.7734 Q386.2858,263.5 386.9108,262.9219 L386.9108,265.6406 Z "/><text fill="#000000" font-family="sans-serif" font-size="12" lengthAdjust="spacingAndGlyphs" textLength="51" x="399.542" y="264.1543">Variable</text><line style="stroke: #A80036; stroke-width: 1.5;" x1="362.742" x2="459.742" y1="276" y2="276"/><text fill="#000000" font-family="sans-serif" font-size="11" lengthAdjust="spacingAndGlyphs" textLength="56" x="367.742" y="290.2104">name: str</text><text fill="#000000" font-family="sans-serif" font-size="11" lengthAdjust="spacingAndGlyphs" textLength="87" x="367.742" y="303.0151">data_type: type</text><line style="stroke: #A80036; stroke-width: 1.5;" x1="362.742" x2="459.742" y1="309.6094" y2="309.6094"/><polygon fill="#FBFB77" filter="url(#f1)" points="38.7422,8,38.7422,184.4609,437.7422,184.4609,437.7422,18,427.7422,8,38.7422,8" style="stroke: #A80036; stroke-width: 1.0;"/><polygon fill="#FBFB77" points="38.7422,8,38.7422,184.4609,437.7422,184.4609,437.7422,100,472.729,96,437.7422,92,437.7422,18,427.7422,8,38.7422,8" style="stroke: #A80036; stroke-width: 1.0;"/><line style="stroke: #A80036; stroke-width: 1.0;" x1="427.7422" x2="427.7422" y1="8" y2="18"/><line style="stroke: #A80036; stroke-width: 1.0;" x1="437.7422" x2="427.7422" y1="18" y2="18"/><text fill="#000000" font-family="sans-serif" font-size="13" lengthAdjust="spacingAndGlyphs" textLength="9" x="44.7422" y="25.0669">A</text><text fill="#000000" font-family="sans-serif" font-size="13" font-weight="bold" lengthAdjust="spacingAndGlyphs" textLength="58" x="57.7422" y="25.0669">Schema</text><text fill="#000000" font-family="sans-serif" font-size="13" lengthAdjust="spacingAndGlyphs" textLength="144" x="119.7422" y="25.0669">corresponds to specifc</text><text fill="#000000" font-family="sans-serif" font-size="13" font-weight="bold" lengthAdjust="spacingAndGlyphs" textLength="58" x="267.7422" y="25.0669">Dataset</text><text fill="#000000" font-family="sans-serif" font-size="13" lengthAdjust="spacingAndGlyphs" textLength="32" x="329.7422" y="25.0669">type.</text><text fill="#000000" font-family="sans-serif" font-size="13" lengthAdjust="spacingAndGlyphs" textLength="0" x="48.7422" y="40.1997"/><text fill="#000000" font-family="sans-serif" font-size="13" lengthAdjust="spacingAndGlyphs" textLength="42" x="44.7422" y="55.3325">Both a</text><text fill="#000000" font-family="sans-serif" font-size="13" font-weight="bold" lengthAdjust="spacingAndGlyphs" textLength="85" x="90.7422" y="55.3325">DataSource</text><text fill="#000000" font-family="sans-serif" font-size="13" lengthAdjust="spacingAndGlyphs" textLength="36" x="179.7422" y="55.3325">and a</text><text fill="#000000" font-family="sans-serif" font-size="13" font-weight="bold" lengthAdjust="spacingAndGlyphs" textLength="58" x="219.7422" y="55.3325">Dataset</text><text fill="#000000" font-family="sans-serif" font-size="13" lengthAdjust="spacingAndGlyphs" textLength="124" x="281.7422" y="55.3325">know their schema.</text><text fill="#000000" font-family="sans-serif" font-size="13" lengthAdjust="spacingAndGlyphs" textLength="378" x="44.7422" y="70.4653">We will use schemas mostly to check operation applicability</text><text fill="#000000" font-family="sans-serif" font-size="13" lengthAdjust="spacingAndGlyphs" textLength="340" x="44.7422" y="85.5981">and do input validation. Therefore we will focus on the</text><text fill="#000000" font-family="sans-serif" font-size="13" lengthAdjust="spacingAndGlyphs" textLength="342" x="44.7422" y="100.731">variables and their dimensions expected in a dataset.</text><text fill="#000000" font-family="sans-serif" font-size="13" lengthAdjust="spacingAndGlyphs" textLength="184" x="44.7422" y="115.8638">For this reason we resign the</text><text fill="#000000" font-family="sans-serif" font-size="13" font-weight="bold" lengthAdjust="spacingAndGlyphs" textLength="45" x="232.7422" y="115.8638">Group</text><text fill="#000000" font-family="sans-serif" font-size="13" lengthAdjust="spacingAndGlyphs" textLength="127" x="281.7422" y="115.8638">schema here, which</text><text fill="#000000" font-family="sans-serif" font-size="13" lengthAdjust="spacingAndGlyphs" textLength="252" x="44.7422" y="130.9966">is defined as part of the netCDF 4 CDM.</text><text fill="#000000" font-family="sans-serif" font-size="13" lengthAdjust="spacingAndGlyphs" textLength="0" x="48.7422" y="146.1294"/><text fill="#000000" font-family="sans-serif" font-size="13" lengthAdjust="spacingAndGlyphs" textLength="297" x="44.7422" y="161.2622">However, original grouping is retained by using</text><text fill="#000000" font-family="sans-serif" font-size="13" font-style="italic" lengthAdjust="spacingAndGlyphs" textLength="77" x="345.7422" y="161.2622">path names</text><text fill="#000000" font-family="sans-serif" font-size="13" lengthAdjust="spacingAndGlyphs" textLength="178" x="44.7422" y="176.395">for Variables and attributes.</text><polygon fill="#FBFB77" filter="url(#f1)" points="638.742,253.5,638.742,308.8984,885.742,308.8984,885.742,263.5,875.742,253.5,638.742,253.5" style="stroke: #A80036; stroke-width: 1.0;"/><polygon fill="#FBFB77" points="638.742,253.5,638.742,277,460.352,281,638.742,285,638.742,308.8984,885.742,308.8984,885.742,263.5,875.742,253.5,638.742,253.5" style="stroke: #A80036; stroke-width: 1.0;"/><line style="stroke: #A80036; stroke-width: 1.0;" x1="875.742" x2="875.742" y1="253.5" y2="263.5"/><line style="stroke: #A80036; stroke-width: 1.0;" x1="885.742" x2="875.742" y1="263.5" y2="263.5"/><text fill="#000000" font-family="sans-serif" font-size="13" lengthAdjust="spacingAndGlyphs" textLength="226" x="644.742" y="270.5669">Note that a variable's value is not a</text><text fill="#000000" font-family="sans-serif" font-size="13" lengthAdjust="spacingAndGlyphs" textLength="70" x="644.742" y="285.6997">property of</text><text fill="#000000" font-family="sans-serif" font-size="13" font-weight="bold" lengthAdjust="spacingAndGlyphs" textLength="61" x="718.742" y="285.6997">Variable</text><text fill="#000000" font-family="sans-serif" font-size="13" lengthAdjust="spacingAndGlyphs" textLength="81" x="783.742" y="285.6997">because this</text><text fill="#000000" font-family="sans-serif" font-size="13" lengthAdjust="spacingAndGlyphs" textLength="22" x="644.742" y="300.8325">is a</text><text fill="#000000" font-family="sans-serif" font-size="13" font-style="italic" lengthAdjust="spacingAndGlyphs" textLength="51" x="670.742" y="300.8325">schema</text><text fill="#000000" font-family="sans-serif" font-size="13" lengthAdjust="spacingAndGlyphs" textLength="82" x="725.742" y="300.8325">of a variable.</text><polygon fill="#FBFB77" filter="url(#f1)" points="47.4922,378,47.4922,493.9297,399.4922,493.9297,399.4922,388,389.4922,378,47.4922,378" style="stroke: #A80036; stroke-width: 1.0;"/><polygon fill="#FBFB77" points="47.4922,378,47.4922,493.9297,399.4922,493.9297,399.4922,440,434.587,436,399.4922,432,399.4922,388,389.4922,378,47.4922,378" style="stroke: #A80036; stroke-width: 1.0;"/><line style="stroke: #A80036; stroke-width: 1.0;" x1="389.4922" x2="389.4922" y1="378" y2="388"/><line style="stroke: #A80036; stroke-width: 1.0;" x1="399.4922" x2="389.4922" y1="388" y2="388"/><text fill="#000000" font-family="sans-serif" font-size="13" lengthAdjust="spacingAndGlyphs" textLength="266" x="53.4922" y="395.0669">In the netCDF CDM, the only property of a</text><text fill="#000000" font-family="sans-serif" font-size="13" font-weight="bold" lengthAdjust="spacingAndGlyphs" textLength="77" x="53.4922" y="410.1997">Dimension</text><text fill="#000000" font-family="sans-serif" font-size="13" lengthAdjust="spacingAndGlyphs" textLength="10" x="134.4922" y="410.1997">is</text><text fill="#000000" font-family="sans-serif" font-size="13" font-style="italic" lengthAdjust="spacingAndGlyphs" textLength="40" x="148.4922" y="410.1997">length</text><text fill="#000000" font-family="sans-serif" font-size="13" lengthAdjust="spacingAndGlyphs" textLength="67" x="188.4922" y="410.1997">. We make</text><text fill="#000000" font-family="sans-serif" font-size="13" font-style="italic" lengthAdjust="spacingAndGlyphs" textLength="40" x="259.4922" y="410.1997">length</text><text fill="#000000" font-family="sans-serif" font-size="13" lengthAdjust="spacingAndGlyphs" textLength="331" x="53.4922" y="425.3325">an optional attribute. Remember that the "features"</text><text fill="#000000" font-family="sans-serif" font-size="13" lengthAdjust="spacingAndGlyphs" textLength="308" x="53.4922" y="440.4653">read from a Shapefile may have two dimensions</text><text fill="#000000" font-family="sans-serif" font-size="13" lengthAdjust="spacingAndGlyphs" textLength="173" x="53.4922" y="455.5981">(e.g. lat / lon) but no actual</text><text fill="#000000" font-family="sans-serif" font-size="13" font-style="italic" lengthAdjust="spacingAndGlyphs" textLength="40" x="230.4922" y="455.5981">length</text><text fill="#000000" font-family="sans-serif" font-size="13" lengthAdjust="spacingAndGlyphs" textLength="79" x="270.4922" y="455.5981">. However, a</text><text fill="#000000" font-family="sans-serif" font-size="13" lengthAdjust="spacingAndGlyphs" textLength="326" x="53.4922" y="470.731">dimension might have other attributes in this case,</text><text fill="#000000" font-family="sans-serif" font-size="13" lengthAdjust="spacingAndGlyphs" textLength="49" x="53.4922" y="485.8638">such as</text><text fill="#000000" font-family="sans-serif" font-size="13" font-style="italic" lengthAdjust="spacingAndGlyphs" textLength="94" x="106.4922" y="485.8638">units=degrees</text><text fill="#000000" font-family="sans-serif" font-size="13" lengthAdjust="spacingAndGlyphs" textLength="24" x="204.4922" y="485.8638">and</text><text fill="#000000" font-family="sans-serif" font-size="13" font-style="italic" lengthAdjust="spacingAndGlyphs" textLength="77" x="232.4922" y="485.8638">crs=WGS84</text><text fill="#000000" font-family="sans-serif" font-size="13" lengthAdjust="spacingAndGlyphs" textLength="4" x="313.4922" y="485.8638">.</text><polygon fill="#FBFB77" filter="url(#f1)" points="567.742,554,567.742,639.6641,940.742,639.6641,940.742,564,930.742,554,567.742,554" style="stroke: #A80036; stroke-width: 1.0;"/><polygon fill="#FBFB77" points="567.742,554,567.742,593,532.481,597,567.742,601,567.742,639.6641,940.742,639.6641,940.742,564,930.742,554,567.742,554" style="stroke: #A80036; stroke-width: 1.0;"/><line style="stroke: #A80036; stroke-width: 1.0;" x1="930.742" x2="930.742" y1="554" y2="564"/><line style="stroke: #A80036; stroke-width: 1.0;" x1="940.742" x2="930.742" y1="564" y2="564"/><text fill="#000000" font-family="sans-serif" font-size="13" lengthAdjust="spacingAndGlyphs" textLength="256" x="573.742" y="571.0669">Attributes are meta-data. Since this is a</text><text fill="#000000" font-family="sans-serif" font-size="13" font-style="italic" lengthAdjust="spacingAndGlyphs" textLength="51" x="833.742" y="571.0669">schema</text><text fill="#000000" font-family="sans-serif" font-size="13" lengthAdjust="spacingAndGlyphs" textLength="4" x="884.742" y="571.0669">,</text><text fill="#000000" font-family="sans-serif" font-size="13" lengthAdjust="spacingAndGlyphs" textLength="90" x="573.742" y="586.1997">the attribute's</text><text fill="#000000" font-family="sans-serif" font-size="13" font-style="italic" lengthAdjust="spacingAndGlyphs" textLength="35" x="667.742" y="586.1997">value</text><text fill="#000000" font-family="sans-serif" font-size="13" lengthAdjust="spacingAndGlyphs" textLength="157" x="706.742" y="586.1997">used here represents an</text><text fill="#000000" font-family="sans-serif" font-size="13" lengthAdjust="spacingAndGlyphs" textLength="350" x="573.742" y="601.3325">invariant across a given number of datasets instances.</text><text fill="#000000" font-family="sans-serif" font-size="13" lengthAdjust="spacingAndGlyphs" textLength="7" x="573.742" y="616.4653">If</text><text fill="#000000" font-family="sans-serif" font-size="13" font-style="italic" lengthAdjust="spacingAndGlyphs" textLength="35" x="584.742" y="616.4653">value</text><text fill="#000000" font-family="sans-serif" font-size="13" lengthAdjust="spacingAndGlyphs" textLength="231" x="623.742" y="616.4653">is not known, this still means that all</text><text fill="#000000" font-family="sans-serif" font-size="13" lengthAdjust="spacingAndGlyphs" textLength="307" x="573.742" y="631.5981">these datasets share an attribute with the given</text><text fill="#000000" font-family="sans-serif" font-size="13" font-style="italic" lengthAdjust="spacingAndGlyphs" textLength="37" x="884.742" y="631.5981">name</text><text fill="#000000" font-family="sans-serif" font-size="13" lengthAdjust="spacingAndGlyphs" textLength="4" x="921.742" y="631.5981">.</text><path d="M490.713,138.36 C475.001,166.276 454.219,203.2 437.812,232.348 " fill="none" style="stroke: #A80036; stroke-width: 1.0;"/><polygon fill="#A80036" points="431.305,243.91,439.2052,238.029,433.7575,239.5528,432.2337,234.105,431.305,243.91" style="stroke: #A80036; stroke-width: 1.0;"/><line style="stroke: #A80036; stroke-width: 1.0;" x1="433.7575" x2="437.6815" y1="239.5528" y2="232.581"/><polygon fill="#FFFFFF" points="497.214,126.809,490.7854,130.0759,491.3285,137.2666,497.7571,133.9996,497.214,126.809" style="stroke: #A80036; stroke-width: 1.0;"/><path d="M510.077,139.693 C504.128,204.556 492.877,327.228 486.92,392.171 " fill="none" style="stroke: #A80036; stroke-width: 1.0;"/><polygon fill="#A80036" points="485.699,405.489,490.5042,396.8919,486.1556,400.5099,482.5376,396.1613,485.699,405.489" style="stroke: #A80036; stroke-width: 1.0;"/><line style="stroke: #A80036; stroke-width: 1.0;" x1="486.1556" x2="486.886" y1="400.5099" y2="392.5435"/><polygon fill="#FFFFFF" points="511.268,126.699,506.7368,132.3087,510.1722,138.6489,514.7034,133.0392,511.268,126.699" style="stroke: #A80036; stroke-width: 1.0;"/><path d="M428.055,318.259 C439.751,343.112 455.174,375.887 466.701,400.382 " fill="none" style="stroke: #A80036; stroke-width: 1.0;"/><polygon fill="#A80036" points="468.952,405.165,468.74,395.3184,466.8234,400.6407,461.5011,398.7241,468.952,405.165" style="stroke: #A80036; stroke-width: 1.0;"/><path d="M348.652,288.528 C250.939,300.188 68.8263,328.167 29.9922,378 C-1.6981,418.666 -2.2112,453.739 29.9922,494 C78.1985,554.2676 307.695,581.4416 420.336,591.3121 " fill="none" style="stroke: #A80036; stroke-width: 1.0;"/><polygon fill="#A80036" points="433.474,592.4311,424.8458,587.682,428.492,592.0069,424.1671,595.6532,433.474,592.4311" style="stroke: #A80036; stroke-width: 1.0;"/><line style="stroke: #A80036; stroke-width: 1.0;" x1="428.492" x2="420.521" y1="592.0069" y2="591.3277"/><polygon fill="#FFFFFF" points="361.569,287.023,355.1465,283.7441,349.6496,288.4116,356.0722,291.6904,361.569,287.023" style="stroke: #A80036; stroke-width: 1.0;"/><path d="M527.789,139.415 C549.58,213.155 585.889,369.061 548.992,494 C543.994,510.926 535.212,527.683 525.654,542.5751 " fill="none" style="stroke: #A80036; stroke-width: 1.0;"/><polygon fill="#A80036" points="518.244,553.571,526.5909,548.3433,521.0384,549.4248,519.9569,543.8722,518.244,553.571" style="stroke: #A80036; stroke-width: 1.0;"/><line style="stroke: #A80036; stroke-width: 1.0;" x1="521.0384" x2="525.509" y1="549.4248" y2="542.7905"/><polygon fill="#FFFFFF" points="523.91,126.628,521.8243,133.5309,527.394,138.1111,529.4797,131.2082,523.91,126.628" style="stroke: #A80036; stroke-width: 1.0;"/><path d="M482.992,479.704 C482.992,498.44 482.992,520.674 482.992,540.6576 " fill="none" style="stroke: #A80036; stroke-width: 1.0;"/><polygon fill="#A80036" points="482.992,553.7326,486.992,544.7326,482.992,548.7326,478.992,544.7326,482.992,553.7326" style="stroke: #A80036; stroke-width: 1.0;"/><line style="stroke: #A80036; stroke-width: 1.0;" x1="482.992" x2="482.992" y1="548.7326" y2="540.7327"/><polygon fill="#FFFFFF" points="482.992,466.534,478.992,472.534,482.992,478.534,486.992,472.534,482.992,466.534" style="stroke: #A80036; stroke-width: 1.0;"/></g></svg>