<?xml version="1.0" encoding="UTF-8" standalone="yes"?><svg xmlns="http://www.w3.org/2000/svg" xmlns:xlink="http://www.w3.org/1999/xlink" height="389px" style="width:1193px;height:389px;" version="1.1" viewBox="0 0 1193 389" width="1193px"><defs><filter height="300%" id="f1" width="300%" x="-1" y="-1"><feGaussianBlur result="blurOut" stdDeviation="2.0"/><feColorMatrix in="blurOut" result="blurOut2" type="matrix" values="0 0 0 0 0 0 0 0 0 0 0 0 0 0 0 0 0 0 .4 0"/><feOffset dx="4.0" dy="4.0" in="blurOut2" result="blurOut3"/><feBlend in="SourceGraphic" in2="blurOut3" mode="normal"/></filter></defs><g><polygon fill="#FFFFFF" filter="url(#f1)" points="897.5,282,966.5,282,973.5,305.6094,1186.5,305.6094,1186.5,382,897.5,382,897.5,282" style="stroke: #000000; stroke-width: 2.0;"/><line style="stroke: #000000; stroke-width: 2.0;" x1="897.5" x2="973.5" y1="305.6094" y2="305.6094"/><text fill="#000000" font-family="sans-serif" font-size="14" font-weight="bold" lengthAdjust="spacingAndGlyphs" textLength="63" x="901.5" y="298.5332">argparse</text><rect fill="#FEFECE" filter="url(#f1)" height="48" style="stroke: #A80036; stroke-width: 1.5;" width="122" x="913.5" y="318"/><ellipse cx="928.5" cy="334" fill="#ADD1B2" rx="11" ry="11" style="stroke: #A80036; stroke-width: 1.0;"/><path d="M931.2656,329.875 Q931.4219,329.6563 931.6094,329.5469 Q931.7969,329.4375 932.0156,329.4375 Q932.3906,329.4375 932.625,329.6953 Q932.8594,329.9531 932.8594,330.5625 L932.8594,332.0156 Q932.8594,332.625 932.625,332.8906 Q932.3906,333.1563 932.0156,333.1563 Q931.6719,333.1563 931.4688,332.9531 Q931.2656,332.7656 931.1563,332.25 Q931.1094,331.8906 930.9219,331.7031 Q930.5938,331.3281 929.9844,331.1094 Q929.375,330.8906 928.75,330.8906 Q927.9844,330.8906 927.3516,331.2188 Q926.7188,331.5469 926.2266,332.2969 Q925.7344,333.0469 925.7344,334.0781 L925.7344,335.1719 Q925.7344,336.4063 926.625,337.2266 Q927.5156,338.0469 929.1094,338.0469 Q930.0469,338.0469 930.7031,337.7969 Q931.0938,337.6406 931.5156,337.2031 Q931.7813,336.9375 931.9297,336.8594 Q932.0781,336.7813 932.2813,336.7813 Q932.6094,336.7813 932.8672,337.0391 Q933.125,337.2969 933.125,337.6406 Q933.125,337.9844 932.7813,338.3906 Q932.2813,338.9688 931.4844,339.2969 Q930.4063,339.75 929.1094,339.75 Q927.5938,339.75 926.3906,339.125 Q925.4063,338.625 924.7188,337.5547 Q924.0313,336.4844 924.0313,335.2031 L924.0313,334.0469 Q924.0313,332.7188 924.6484,331.5703 Q925.2656,330.4219 926.3594,329.8047 Q927.4531,329.1875 928.6875,329.1875 Q929.4219,329.1875 930.0703,329.3516 Q930.7188,329.5156 931.2656,329.875 Z "/><text fill="#000000" font-family="sans-serif" font-size="12" lengthAdjust="spacingAndGlyphs" textLength="90" x="942.5" y="338.9102">ArgumentParser</text><line style="stroke: #A80036; stroke-width: 1.5;" x1="914.5" x2="1034.5" y1="350" y2="350"/><line style="stroke: #A80036; stroke-width: 1.5;" x1="914.5" x2="1034.5" y1="358" y2="358"/><rect fill="#FEFECE" filter="url(#f1)" height="48" style="stroke: #A80036; stroke-width: 1.5;" width="100" x="1070.5" y="318"/><ellipse cx="1085.5" cy="334" fill="#ADD1B2" rx="11" ry="11" style="stroke: #A80036; stroke-width: 1.0;"/><path d="M1088.2656,329.875 Q1088.4219,329.6563 1088.6094,329.5469 Q1088.7969,329.4375 1089.0156,329.4375 Q1089.3906,329.4375 1089.625,329.6953 Q1089.8594,329.9531 1089.8594,330.5625 L1089.8594,332.0156 Q1089.8594,332.625 1089.625,332.8906 Q1089.3906,333.1563 1089.0156,333.1563 Q1088.6719,333.1563 1088.4688,332.9531 Q1088.2656,332.7656 1088.1563,332.25 Q1088.1094,331.8906 1087.9219,331.7031 Q1087.5938,331.3281 1086.9844,331.1094 Q1086.375,330.8906 1085.75,330.8906 Q1084.9844,330.8906 1084.3516,331.2188 Q1083.7188,331.5469 1083.2266,332.2969 Q1082.7344,333.0469 1082.7344,334.0781 L1082.7344,335.1719 Q1082.7344,336.4063 1083.625,337.2266 Q1084.5156,338.0469 1086.1094,338.0469 Q1087.0469,338.0469 1087.7031,337.7969 Q1088.0938,337.6406 1088.5156,337.2031 Q1088.7813,336.9375 1088.9297,336.8594 Q1089.0781,336.7813 1089.2813,336.7813 Q1089.6094,336.7813 1089.8672,337.0391 Q1090.125,337.2969 1090.125,337.6406 Q1090.125,337.9844 1089.7813,338.3906 Q1089.2813,338.9688 1088.4844,339.2969 Q1087.4063,339.75 1086.1094,339.75 Q1084.5938,339.75 1083.3906,339.125 Q1082.4063,338.625 1081.7188,337.5547 Q1081.0313,336.4844 1081.0313,335.2031 L1081.0313,334.0469 Q1081.0313,332.7188 1081.6484,331.5703 Q1082.2656,330.4219 1083.3594,329.8047 Q1084.4531,329.1875 1085.6875,329.1875 Q1086.4219,329.1875 1087.0703,329.3516 Q1087.7188,329.5156 1088.2656,329.875 Z "/><text fill="#000000" font-family="sans-serif" font-size="12" lengthAdjust="spacingAndGlyphs" textLength="68" x="1099.5" y="338.9102">Namespace</text><line style="stroke: #A80036; stroke-width: 1.5;" x1="1071.5" x2="1169.5" y1="350" y2="350"/><line style="stroke: #A80036; stroke-width: 1.5;" x1="1071.5" x2="1169.5" y1="358" y2="358"/><rect fill="#FEFECE" filter="url(#f1)" height="89.5078" style="stroke: #A80036; stroke-width: 1.5;" width="268" x="425.5" y="128"/><ellipse cx="525.75" cy="144" fill="#B4A7E5" rx="11" ry="11" style="stroke: #A80036; stroke-width: 1.0;"/><path d="M526.7031,140.6406 L526.7031,147.2969 L528.4219,147.2969 Q529.0313,147.2969 529.2969,147.5313 Q529.5625,147.7656 529.5625,148.1563 Q529.5625,148.5313 529.2969,148.7656 Q529.0313,149 528.4219,149 L523.2813,149 Q522.6719,149 522.4063,148.7656 Q522.1406,148.5313 522.1406,148.1406 Q522.1406,147.7656 522.4063,147.5313 Q522.6719,147.2969 523.2813,147.2969 L525,147.2969 L525,140.6406 L523.2813,140.6406 Q522.6719,140.6406 522.4063,140.4063 Q522.1406,140.1719 522.1406,139.7813 Q522.1406,139.4063 522.4063,139.1719 Q522.6719,138.9375 523.2813,138.9375 L528.4219,138.9375 Q529.0313,138.9375 529.2969,139.1719 Q529.5625,139.4063 529.5625,139.7813 Q529.5625,140.1719 529.2969,140.4063 Q529.0313,140.6406 528.4219,140.6406 L526.7031,140.6406 Z "/><text fill="#000000" font-family="sans-serif" font-size="12" font-style="italic" lengthAdjust="spacingAndGlyphs" textLength="59" x="546.25" y="148.9102">Command</text><line style="stroke: #A80036; stroke-width: 1.5;" x1="426.5" x2="692.5" y1="160" y2="160"/><line style="stroke: #A80036; stroke-width: 1.5;" x1="426.5" x2="692.5" y1="168" y2="168"/><text fill="#000000" font-family="sans-serif" font-size="11" lengthAdjust="spacingAndGlyphs" textLength="168" x="431.5" y="183.4189">name_and_parser_kwargs(): tuple</text><text fill="#000000" font-family="sans-serif" font-size="11" lengthAdjust="spacingAndGlyphs" textLength="256" x="431.5" y="197.2549">configure_parser(parser: argparse.ArgumentParser)</text><text fill="#000000" font-family="sans-serif" font-size="11" lengthAdjust="spacingAndGlyphs" textLength="255" x="431.5" y="211.0908">execute(self, command_args: argparse.Namespace)</text><rect fill="#FEFECE" filter="url(#f1)" height="48" style="stroke: #A80036; stroke-width: 1.5;" width="111" x="6" y="318"/><ellipse cx="21" cy="334" fill="#ADD1B2" rx="11" ry="11" style="stroke: #A80036; stroke-width: 1.0;"/><path d="M23.7656,329.875 Q23.9219,329.6563 24.1094,329.5469 Q24.2969,329.4375 24.5156,329.4375 Q24.8906,329.4375 25.125,329.6953 Q25.3594,329.9531 25.3594,330.5625 L25.3594,332.0156 Q25.3594,332.625 25.125,332.8906 Q24.8906,333.1563 24.5156,333.1563 Q24.1719,333.1563 23.9688,332.9531 Q23.7656,332.7656 23.6563,332.25 Q23.6094,331.8906 23.4219,331.7031 Q23.0938,331.3281 22.4844,331.1094 Q21.875,330.8906 21.25,330.8906 Q20.4844,330.8906 19.8516,331.2188 Q19.2188,331.5469 18.7266,332.2969 Q18.2344,333.0469 18.2344,334.0781 L18.2344,335.1719 Q18.2344,336.4063 19.125,337.2266 Q20.0156,338.0469 21.6094,338.0469 Q22.5469,338.0469 23.2031,337.7969 Q23.5938,337.6406 24.0156,337.2031 Q24.2813,336.9375 24.4297,336.8594 Q24.5781,336.7813 24.7813,336.7813 Q25.1094,336.7813 25.3672,337.0391 Q25.625,337.2969 25.625,337.6406 Q25.625,337.9844 25.2813,338.3906 Q24.7813,338.9688 23.9844,339.2969 Q22.9063,339.75 21.6094,339.75 Q20.0938,339.75 18.8906,339.125 Q17.9063,338.625 17.2188,337.5547 Q16.5313,336.4844 16.5313,335.2031 L16.5313,334.0469 Q16.5313,332.7188 17.1484,331.5703 Q17.7656,330.4219 18.8594,329.8047 Q19.9531,329.1875 21.1875,329.1875 Q21.9219,329.1875 22.5703,329.3516 Q23.2188,329.5156 23.7656,329.875 Z "/><text fill="#000000" font-family="sans-serif" font-size="12" lengthAdjust="spacingAndGlyphs" textLength="79" x="35" y="338.9102">ListCommand</text><line style="stroke: #A80036; stroke-width: 1.5;" x1="7" x2="116" y1="350" y2="350"/><line style="stroke: #A80036; stroke-width: 1.5;" x1="7" x2="116" y1="358" y2="358"/><rect fill="#FEFECE" filter="url(#f1)" height="48" style="stroke: #A80036; stroke-width: 1.5;" width="114" x="152.5" y="318"/><ellipse cx="167.5" cy="334" fill="#ADD1B2" rx="11" ry="11" style="stroke: #A80036; stroke-width: 1.0;"/><path d="M170.2656,329.875 Q170.4219,329.6563 170.6094,329.5469 Q170.7969,329.4375 171.0156,329.4375 Q171.3906,329.4375 171.625,329.6953 Q171.8594,329.9531 171.8594,330.5625 L171.8594,332.0156 Q171.8594,332.625 171.625,332.8906 Q171.3906,333.1563 171.0156,333.1563 Q170.6719,333.1563 170.4688,332.9531 Q170.2656,332.7656 170.1563,332.25 Q170.1094,331.8906 169.9219,331.7031 Q169.5938,331.3281 168.9844,331.1094 Q168.375,330.8906 167.75,330.8906 Q166.9844,330.8906 166.3516,331.2188 Q165.7188,331.5469 165.2266,332.2969 Q164.7344,333.0469 164.7344,334.0781 L164.7344,335.1719 Q164.7344,336.4063 165.625,337.2266 Q166.5156,338.0469 168.1094,338.0469 Q169.0469,338.0469 169.7031,337.7969 Q170.0938,337.6406 170.5156,337.2031 Q170.7813,336.9375 170.9297,336.8594 Q171.0781,336.7813 171.2813,336.7813 Q171.6094,336.7813 171.8672,337.0391 Q172.125,337.2969 172.125,337.6406 Q172.125,337.9844 171.7813,338.3906 Q171.2813,338.9688 170.4844,339.2969 Q169.4063,339.75 168.1094,339.75 Q166.5938,339.75 165.3906,339.125 Q164.4063,338.625 163.7188,337.5547 Q163.0313,336.4844 163.0313,335.2031 L163.0313,334.0469 Q163.0313,332.7188 163.6484,331.5703 Q164.2656,330.4219 165.3594,329.8047 Q166.4531,329.1875 167.6875,329.1875 Q168.4219,329.1875 169.0703,329.3516 Q169.7188,329.5156 170.2656,329.875 Z "/><text fill="#000000" font-family="sans-serif" font-size="12" lengthAdjust="spacingAndGlyphs" textLength="82" x="181.5" y="338.9102">RunCommand</text><line style="stroke: #A80036; stroke-width: 1.5;" x1="153.5" x2="265.5" y1="350" y2="350"/><line style="stroke: #A80036; stroke-width: 1.5;" x1="153.5" x2="265.5" y1="358" y2="358"/><rect fill="#FEFECE" filter="url(#f1)" height="48" style="stroke: #A80036; stroke-width: 1.5;" width="146" x="301.5" y="318"/><ellipse cx="316.5" cy="334" fill="#ADD1B2" rx="11" ry="11" style="stroke: #A80036; stroke-width: 1.0;"/><path d="M319.2656,329.875 Q319.4219,329.6563 319.6094,329.5469 Q319.7969,329.4375 320.0156,329.4375 Q320.3906,329.4375 320.625,329.6953 Q320.8594,329.9531 320.8594,330.5625 L320.8594,332.0156 Q320.8594,332.625 320.625,332.8906 Q320.3906,333.1563 320.0156,333.1563 Q319.6719,333.1563 319.4688,332.9531 Q319.2656,332.7656 319.1563,332.25 Q319.1094,331.8906 318.9219,331.7031 Q318.5938,331.3281 317.9844,331.1094 Q317.375,330.8906 316.75,330.8906 Q315.9844,330.8906 315.3516,331.2188 Q314.7188,331.5469 314.2266,332.2969 Q313.7344,333.0469 313.7344,334.0781 L313.7344,335.1719 Q313.7344,336.4063 314.625,337.2266 Q315.5156,338.0469 317.1094,338.0469 Q318.0469,338.0469 318.7031,337.7969 Q319.0938,337.6406 319.5156,337.2031 Q319.7813,336.9375 319.9297,336.8594 Q320.0781,336.7813 320.2813,336.7813 Q320.6094,336.7813 320.8672,337.0391 Q321.125,337.2969 321.125,337.6406 Q321.125,337.9844 320.7813,338.3906 Q320.2813,338.9688 319.4844,339.2969 Q318.4063,339.75 317.1094,339.75 Q315.5938,339.75 314.3906,339.125 Q313.4063,338.625 312.7188,337.5547 Q312.0313,336.4844 312.0313,335.2031 L312.0313,334.0469 Q312.0313,332.7188 312.6484,331.5703 Q313.2656,330.4219 314.3594,329.8047 Q315.4531,329.1875 316.6875,329.1875 Q317.4219,329.1875 318.0703,329.3516 Q318.7188,329.5156 319.2656,329.875 Z "/><text fill="#000000" font-family="sans-serif" font-size="12" lengthAdjust="spacingAndGlyphs" textLength="114" x="330.5" y="338.9102">DataStoreCommand</text><line style="stroke: #A80036; stroke-width: 1.5;" x1="302.5" x2="446.5" y1="350" y2="350"/><line style="stroke: #A80036; stroke-width: 1.5;" x1="302.5" x2="446.5" y1="358" y2="358"/><rect fill="#FEFECE" filter="url(#f1)" height="48" style="stroke: #A80036; stroke-width: 1.5;" width="153" x="483" y="318"/><ellipse cx="498" cy="334" fill="#ADD1B2" rx="11" ry="11" style="stroke: #A80036; stroke-width: 1.0;"/><path d="M500.7656,329.875 Q500.9219,329.6563 501.1094,329.5469 Q501.2969,329.4375 501.5156,329.4375 Q501.8906,329.4375 502.125,329.6953 Q502.3594,329.9531 502.3594,330.5625 L502.3594,332.0156 Q502.3594,332.625 502.125,332.8906 Q501.8906,333.1563 501.5156,333.1563 Q501.1719,333.1563 500.9688,332.9531 Q500.7656,332.7656 500.6563,332.25 Q500.6094,331.8906 500.4219,331.7031 Q500.0938,331.3281 499.4844,331.1094 Q498.875,330.8906 498.25,330.8906 Q497.4844,330.8906 496.8516,331.2188 Q496.2188,331.5469 495.7266,332.2969 Q495.2344,333.0469 495.2344,334.0781 L495.2344,335.1719 Q495.2344,336.4063 496.125,337.2266 Q497.0156,338.0469 498.6094,338.0469 Q499.5469,338.0469 500.2031,337.7969 Q500.5938,337.6406 501.0156,337.2031 Q501.2813,336.9375 501.4297,336.8594 Q501.5781,336.7813 501.7813,336.7813 Q502.1094,336.7813 502.3672,337.0391 Q502.625,337.2969 502.625,337.6406 Q502.625,337.9844 502.2813,338.3906 Q501.7813,338.9688 500.9844,339.2969 Q499.9063,339.75 498.6094,339.75 Q497.0938,339.75 495.8906,339.125 Q494.9063,338.625 494.2188,337.5547 Q493.5313,336.4844 493.5313,335.2031 L493.5313,334.0469 Q493.5313,332.7188 494.1484,331.5703 Q494.7656,330.4219 495.8594,329.8047 Q496.9531,329.1875 498.1875,329.1875 Q498.9219,329.1875 499.5703,329.3516 Q500.2188,329.5156 500.7656,329.875 Z "/><text fill="#000000" font-family="sans-serif" font-size="12" lengthAdjust="spacingAndGlyphs" textLength="121" x="512" y="338.9102">WorkspaceCommand</text><line style="stroke: #A80036; stroke-width: 1.5;" x1="484" x2="635" y1="350" y2="350"/><line style="stroke: #A80036; stroke-width: 1.5;" x1="484" x2="635" y1="358" y2="358"/><rect fill="#FEFECE" filter="url(#f1)" height="48" style="stroke: #A80036; stroke-width: 1.5;" width="207" x="671" y="318"/><ellipse cx="686" cy="334" fill="#ADD1B2" rx="11" ry="11" style="stroke: #A80036; stroke-width: 1.0;"/><path d="M688.7656,329.875 Q688.9219,329.6563 689.1094,329.5469 Q689.2969,329.4375 689.5156,329.4375 Q689.8906,329.4375 690.125,329.6953 Q690.3594,329.9531 690.3594,330.5625 L690.3594,332.0156 Q690.3594,332.625 690.125,332.8906 Q689.8906,333.1563 689.5156,333.1563 Q689.1719,333.1563 688.9688,332.9531 Q688.7656,332.7656 688.6563,332.25 Q688.6094,331.8906 688.4219,331.7031 Q688.0938,331.3281 687.4844,331.1094 Q686.875,330.8906 686.25,330.8906 Q685.4844,330.8906 684.8516,331.2188 Q684.2188,331.5469 683.7266,332.2969 Q683.2344,333.0469 683.2344,334.0781 L683.2344,335.1719 Q683.2344,336.4063 684.125,337.2266 Q685.0156,338.0469 686.6094,338.0469 Q687.5469,338.0469 688.2031,337.7969 Q688.5938,337.6406 689.0156,337.2031 Q689.2813,336.9375 689.4297,336.8594 Q689.5781,336.7813 689.7813,336.7813 Q690.1094,336.7813 690.3672,337.0391 Q690.625,337.2969 690.625,337.6406 Q690.625,337.9844 690.2813,338.3906 Q689.7813,338.9688 688.9844,339.2969 Q687.9063,339.75 686.6094,339.75 Q685.0938,339.75 683.8906,339.125 Q682.9063,338.625 682.2188,337.5547 Q681.5313,336.4844 681.5313,335.2031 L681.5313,334.0469 Q681.5313,332.7188 682.1484,331.5703 Q682.7656,330.4219 683.8594,329.8047 Q684.9531,329.1875 686.1875,329.1875 Q686.9219,329.1875 687.5703,329.3516 Q688.2188,329.5156 688.7656,329.875 Z "/><text fill="#000000" font-family="sans-serif" font-size="12" lengthAdjust="spacingAndGlyphs" textLength="175" x="700" y="338.9102">WorkspaceResourceCommand</text><line style="stroke: #A80036; stroke-width: 1.5;" x1="672" x2="877" y1="350" y2="350"/><line style="stroke: #A80036; stroke-width: 1.5;" x1="672" x2="877" y1="358" y2="358"/><polygon fill="#FBFB77" filter="url(#f1)" points="763.5,160,763.5,186.3516,887.5,186.3516,887.5,170,877.5,160,763.5,160" style="stroke: #A80036; stroke-width: 1.0;"/><polygon fill="#FBFB77" points="763.5,160,763.5,169,693.539,173,763.5,177,763.5,186.3516,887.5,186.3516,887.5,170,877.5,160,763.5,160" style="stroke: #A80036; stroke-width: 1.0;"/><line style="stroke: #A80036; stroke-width: 1.0;" x1="877.5" x2="877.5" y1="160" y2="170"/><line style="stroke: #A80036; stroke-width: 1.0;" x1="887.5" x2="877.5" y1="170" y2="170"/><text fill="#000000" font-family="sans-serif" font-size="13" lengthAdjust="spacingAndGlyphs" textLength="103" x="769.5" y="178.4951">Command pattern</text><rect fill="#FEFECE" filter="url(#f1)" height="52.25" style="stroke: #A80036; stroke-width: 1.5;" width="144" x="487.5" y="11.5"/><text fill="#000000" font-family="sans-serif" font-size="12" lengthAdjust="spacingAndGlyphs" textLength="41" x="539" y="25.957">globals</text><line style="stroke: #A80036; stroke-width: 1.5;" x1="488.5" x2="630.5" y1="30.5938" y2="30.5938"/><text fill="#000000" font-family="sans-serif" font-size="10" lengthAdjust="spacingAndGlyphs" textLength="132" x="493.5" y="44.9746">COMMAND_REGISTRY: list</text><text fill="#000000" font-family="sans-serif" font-size="10" lengthAdjust="spacingAndGlyphs" textLength="30" x="493.5" y="57.5527">main()</text><polygon fill="#FBFB77" filter="url(#f1)" points="701,8,701,67.0547,962,67.0547,962,18,952,8,701,8" style="stroke: #A80036; stroke-width: 1.0;"/><polygon fill="#FBFB77" points="701,8,701,33.5,631.75,37.5,701,41.5,701,67.0547,962,67.0547,962,18,952,8,701,8" style="stroke: #A80036; stroke-width: 1.0;"/><line style="stroke: #A80036; stroke-width: 1.0;" x1="952" x2="952" y1="8" y2="18"/><line style="stroke: #A80036; stroke-width: 1.0;" x1="962" x2="952" y1="18" y2="18"/><text fill="#000000" font-family="sans-serif" font-size="13" lengthAdjust="spacingAndGlyphs" textLength="240" x="707" y="26.4951">COMMAND_REGISTRY is a mutable list.</text><text fill="#000000" font-family="sans-serif" font-size="13" lengthAdjust="spacingAndGlyphs" textLength="203" x="707" y="42.8467">Cate-plugins can extend the CLI by</text><text fill="#000000" font-family="sans-serif" font-size="13" lengthAdjust="spacingAndGlyphs" textLength="163" x="707" y="59.1982">adding new commands to it.</text><path d="M405.011,190.987 C321.282,204.853 218.14,229.727 134.5,274 C113.823,284.945 94.5126,303.17 80.9526,317.8512 " fill="none" style="stroke: #A80036; stroke-width: 1.0; stroke-dasharray: 7.0,7.0;"/><polygon fill="none" points="404.18,184.031,425.029,187.818,406.369,197.859,404.18,184.031" style="stroke: #A80036; stroke-width: 1.0;"/><path d="M406.139,217.671 C364.836,232.568 321.189,251.321 283.5,274 C263.75,285.884 244.548,303.5043 230.655,317.6924 " fill="none" style="stroke: #A80036; stroke-width: 1.0; stroke-dasharray: 7.0,7.0;"/><polygon fill="none" points="404.048,210.987,425.237,210.99,408.67,224.201,404.048,210.987" style="stroke: #A80036; stroke-width: 1.0;"/><path d="M495.334,231.923 C462.621,261.453 424.674,295.708 400.162,317.8349 " fill="none" style="stroke: #A80036; stroke-width: 1.0; stroke-dasharray: 7.0,7.0;"/><polygon fill="none" points="490.873,226.52,510.409,218.314,500.254,236.912,490.873,226.52" style="stroke: #A80036; stroke-width: 1.0;"/><path d="M559.5,238.341 C559.5,266.198 559.5,297.061 559.5,317.6021 " fill="none" style="stroke: #A80036; stroke-width: 1.0; stroke-dasharray: 7.0,7.0;"/><polygon fill="none" points="552.5,238.315,559.5,218.314,566.5,238.314,552.5,238.315" style="stroke: #A80036; stroke-width: 1.0;"/><path d="M632.25,230.508 C670.639,260.326 715.651,295.29 744.597,317.7728 " fill="none" style="stroke: #A80036; stroke-width: 1.0; stroke-dasharray: 7.0,7.0;"/><polygon fill="none" points="627.771,235.893,616.27,218.096,636.359,224.836,627.771,235.893" style="stroke: #A80036; stroke-width: 1.0;"/><path d="M693.889,207.958 C771.281,228.685 860.044,254.799 895.5,274 C915.014,284.568 934.071,300.5149 948.577,314.2001 " fill="none" style="stroke: #A80036; stroke-width: 1.0; stroke-dasharray: 7.0,7.0;"/><polygon fill="#A80036" points="952.545,317.9938,948.8027,308.8836,948.9305,314.539,943.2751,314.6668,952.545,317.9938" style="stroke: #A80036; stroke-width: 1.0;"/><text fill="#000000" font-family="sans-serif" font-size="13" lengthAdjust="spacingAndGlyphs" textLength="68" x="876.5" y="262.4951">&lt;configure&gt;</text><path d="M693.554,207.211 C710.979,211.087 728.63,214.795 745.5,218 C882.188,243.971 932.75,204.882 1053.5,274 C1071.25,284.159 1087.56,300.2503 1099.64,314.1172 " fill="none" style="stroke: #A80036; stroke-width: 1.0; stroke-dasharray: 7.0,7.0;"/><polygon fill="#A80036" points="1102.94,317.9626,1100.1262,308.5242,1099.6886,314.1641,1094.0487,313.7265,1102.94,317.9626" style="stroke: #A80036; stroke-width: 1.0;"/><text fill="#000000" font-family="sans-serif" font-size="13" lengthAdjust="spacingAndGlyphs" textLength="89" x="1032.5" y="262.4951">&lt;execute with&gt;</text><path d="M559.5,76.802 C559.5,88.623 559.5,101.907 559.5,114.716 " fill="none" style="stroke: #A80036; stroke-width: 1.0;"/><polygon fill="#A80036" points="559.5,127.811,563.5,118.811,559.5,122.811,555.5,118.811,559.5,127.811" style="stroke: #A80036; stroke-width: 1.0;"/><line style="stroke: #A80036; stroke-width: 1.0;" x1="559.5" x2="559.5" y1="122.811" y2="114.8115"/><polygon fill="#FFFFFF" points="559.5,63.61,555.5,69.61,559.5,75.61,563.5,69.61,559.5,63.61" style="stroke: #A80036; stroke-width: 1.0;"/><text fill="#000000" font-family="sans-serif" font-size="13" lengthAdjust="spacingAndGlyphs" textLength="24" x="533.6625" y="117.2262">3..N</text></g></svg>