<?xml version="1.0" encoding="UTF-8" standalone="yes"?><svg xmlns="http://www.w3.org/2000/svg" xmlns:xlink="http://www.w3.org/1999/xlink" height="389px" style="width:625px;height:389px;" version="1.1" viewBox="0 0 625 389" width="625px"><defs><filter height="300%" id="f1" width="300%" x="-1" y="-1"><feGaussianBlur result="blurOut" stdDeviation="2.0"/><feColorMatrix in="blurOut" result="blurOut2" type="matrix" values="0 0 0 0 0 0 0 0 0 0 0 0 0 0 0 0 0 0 .4 0"/><feOffset dx="4.0" dy="4.0" in="blurOut2" result="blurOut3"/><feBlend in="SourceGraphic" in2="blurOut3" mode="normal"/></filter></defs><g><polygon fill="#FFFFFF" filter="url(#f1)" points="264,282,333,282,340,305.6094,553,305.6094,553,382,264,382,264,282" style="stroke: #000000; stroke-width: 2.0;"/><line style="stroke: #000000; stroke-width: 2.0;" x1="264" x2="340" y1="305.6094" y2="305.6094"/><text fill="#000000" font-family="sans-serif" font-size="14" font-weight="bold" lengthAdjust="spacingAndGlyphs" textLength="63" x="268" y="298.5332">argparse</text><rect fill="#FEFECE" filter="url(#f1)" height="48" style="stroke: #A80036; stroke-width: 1.5;" width="122" x="280" y="318"/><ellipse cx="295" cy="334" fill="#ADD1B2" rx="11" ry="11" style="stroke: #A80036; stroke-width: 1.0;"/><path d="M297.7656,329.875 Q297.9219,329.6563 298.1094,329.5469 Q298.2969,329.4375 298.5156,329.4375 Q298.8906,329.4375 299.125,329.6953 Q299.3594,329.9531 299.3594,330.5625 L299.3594,332.0156 Q299.3594,332.625 299.125,332.8906 Q298.8906,333.1563 298.5156,333.1563 Q298.1719,333.1563 297.9688,332.9531 Q297.7656,332.7656 297.6563,332.25 Q297.6094,331.8906 297.4219,331.7031 Q297.0938,331.3281 296.4844,331.1094 Q295.875,330.8906 295.25,330.8906 Q294.4844,330.8906 293.8516,331.2188 Q293.2188,331.5469 292.7266,332.2969 Q292.2344,333.0469 292.2344,334.0781 L292.2344,335.1719 Q292.2344,336.4063 293.125,337.2266 Q294.0156,338.0469 295.6094,338.0469 Q296.5469,338.0469 297.2031,337.7969 Q297.5938,337.6406 298.0156,337.2031 Q298.2813,336.9375 298.4297,336.8594 Q298.5781,336.7813 298.7813,336.7813 Q299.1094,336.7813 299.3672,337.0391 Q299.625,337.2969 299.625,337.6406 Q299.625,337.9844 299.2813,338.3906 Q298.7813,338.9688 297.9844,339.2969 Q296.9063,339.75 295.6094,339.75 Q294.0938,339.75 292.8906,339.125 Q291.9063,338.625 291.2188,337.5547 Q290.5313,336.4844 290.5313,335.2031 L290.5313,334.0469 Q290.5313,332.7188 291.1484,331.5703 Q291.7656,330.4219 292.8594,329.8047 Q293.9531,329.1875 295.1875,329.1875 Q295.9219,329.1875 296.5703,329.3516 Q297.2188,329.5156 297.7656,329.875 Z "/><text fill="#000000" font-family="sans-serif" font-size="12" lengthAdjust="spacingAndGlyphs" textLength="90" x="309" y="338.9102">ArgumentParser</text><line style="stroke: #A80036; stroke-width: 1.5;" x1="281" x2="401" y1="350" y2="350"/><line style="stroke: #A80036; stroke-width: 1.5;" x1="281" x2="401" y1="358" y2="358"/><rect fill="#FEFECE" filter="url(#f1)" height="48" style="stroke: #A80036; stroke-width: 1.5;" width="100" x="437" y="318"/><ellipse cx="452" cy="334" fill="#ADD1B2" rx="11" ry="11" style="stroke: #A80036; stroke-width: 1.0;"/><path d="M454.7656,329.875 Q454.9219,329.6563 455.1094,329.5469 Q455.2969,329.4375 455.5156,329.4375 Q455.8906,329.4375 456.125,329.6953 Q456.3594,329.9531 456.3594,330.5625 L456.3594,332.0156 Q456.3594,332.625 456.125,332.8906 Q455.8906,333.1563 455.5156,333.1563 Q455.1719,333.1563 454.9688,332.9531 Q454.7656,332.7656 454.6563,332.25 Q454.6094,331.8906 454.4219,331.7031 Q454.0938,331.3281 453.4844,331.1094 Q452.875,330.8906 452.25,330.8906 Q451.4844,330.8906 450.8516,331.2188 Q450.2188,331.5469 449.7266,332.2969 Q449.2344,333.0469 449.2344,334.0781 L449.2344,335.1719 Q449.2344,336.4063 450.125,337.2266 Q451.0156,338.0469 452.6094,338.0469 Q453.5469,338.0469 454.2031,337.7969 Q454.5938,337.6406 455.0156,337.2031 Q455.2813,336.9375 455.4297,336.8594 Q455.5781,336.7813 455.7813,336.7813 Q456.1094,336.7813 456.3672,337.0391 Q456.625,337.2969 456.625,337.6406 Q456.625,337.9844 456.2813,338.3906 Q455.7813,338.9688 454.9844,339.2969 Q453.9063,339.75 452.6094,339.75 Q451.0938,339.75 449.8906,339.125 Q448.9063,338.625 448.2188,337.5547 Q447.5313,336.4844 447.5313,335.2031 L447.5313,334.0469 Q447.5313,332.7188 448.1484,331.5703 Q448.7656,330.4219 449.8594,329.8047 Q450.9531,329.1875 452.1875,329.1875 Q452.9219,329.1875 453.5703,329.3516 Q454.2188,329.5156 454.7656,329.875 Z "/><text fill="#000000" font-family="sans-serif" font-size="12" lengthAdjust="spacingAndGlyphs" textLength="68" x="466" y="338.9102">Namespace</text><line style="stroke: #A80036; stroke-width: 1.5;" x1="438" x2="536" y1="350" y2="350"/><line style="stroke: #A80036; stroke-width: 1.5;" x1="438" x2="536" y1="358" y2="358"/><rect fill="#FEFECE" filter="url(#f1)" height="89.5078" style="stroke: #A80036; stroke-width: 1.5;" width="268" x="80" y="128"/><ellipse cx="180.25" cy="144" fill="#B4A7E5" rx="11" ry="11" style="stroke: #A80036; stroke-width: 1.0;"/><path d="M181.2031,140.6406 L181.2031,147.2969 L182.9219,147.2969 Q183.5313,147.2969 183.7969,147.5313 Q184.0625,147.7656 184.0625,148.1563 Q184.0625,148.5313 183.7969,148.7656 Q183.5313,149 182.9219,149 L177.7813,149 Q177.1719,149 176.9063,148.7656 Q176.6406,148.5313 176.6406,148.1406 Q176.6406,147.7656 176.9063,147.5313 Q177.1719,147.2969 177.7813,147.2969 L179.5,147.2969 L179.5,140.6406 L177.7813,140.6406 Q177.1719,140.6406 176.9063,140.4063 Q176.6406,140.1719 176.6406,139.7813 Q176.6406,139.4063 176.9063,139.1719 Q177.1719,138.9375 177.7813,138.9375 L182.9219,138.9375 Q183.5313,138.9375 183.7969,139.1719 Q184.0625,139.4063 184.0625,139.7813 Q184.0625,140.1719 183.7969,140.4063 Q183.5313,140.6406 182.9219,140.6406 L181.2031,140.6406 Z "/><text fill="#000000" font-family="sans-serif" font-size="12" font-style="italic" lengthAdjust="spacingAndGlyphs" textLength="59" x="200.75" y="148.9102">Command</text><line style="stroke: #A80036; stroke-width: 1.5;" x1="81" x2="347" y1="160" y2="160"/><line style="stroke: #A80036; stroke-width: 1.5;" x1="81" x2="347" y1="168" y2="168"/><text fill="#000000" font-family="sans-serif" font-size="11" lengthAdjust="spacingAndGlyphs" textLength="168" x="86" y="183.4189">name_and_parser_kwargs(): tuple</text><text fill="#000000" font-family="sans-serif" font-size="11" lengthAdjust="spacingAndGlyphs" textLength="256" x="86" y="197.2549">configure_parser(parser: argparse.ArgumentParser)</text><text fill="#000000" font-family="sans-serif" font-size="11" lengthAdjust="spacingAndGlyphs" textLength="255" x="86" y="211.0908">execute(self, command_args: argparse.Namespace)</text><rect fill="#FEFECE" filter="url(#f1)" height="48" style="stroke: #A80036; stroke-width: 1.5;" width="52" x="6" y="318"/><ellipse cx="21" cy="334" fill="#ADD1B2" rx="11" ry="11" style="stroke: #A80036; stroke-width: 1.0;"/><path d="M23.7656,329.875 Q23.9219,329.6563 24.1094,329.5469 Q24.2969,329.4375 24.5156,329.4375 Q24.8906,329.4375 25.125,329.6953 Q25.3594,329.9531 25.3594,330.5625 L25.3594,332.0156 Q25.3594,332.625 25.125,332.8906 Q24.8906,333.1563 24.5156,333.1563 Q24.1719,333.1563 23.9688,332.9531 Q23.7656,332.7656 23.6563,332.25 Q23.6094,331.8906 23.4219,331.7031 Q23.0938,331.3281 22.4844,331.1094 Q21.875,330.8906 21.25,330.8906 Q20.4844,330.8906 19.8516,331.2188 Q19.2188,331.5469 18.7266,332.2969 Q18.2344,333.0469 18.2344,334.0781 L18.2344,335.1719 Q18.2344,336.4063 19.125,337.2266 Q20.0156,338.0469 21.6094,338.0469 Q22.5469,338.0469 23.2031,337.7969 Q23.5938,337.6406 24.0156,337.2031 Q24.2813,336.9375 24.4297,336.8594 Q24.5781,336.7813 24.7813,336.7813 Q25.1094,336.7813 25.3672,337.0391 Q25.625,337.2969 25.625,337.6406 Q25.625,337.9844 25.2813,338.3906 Q24.7813,338.9688 23.9844,339.2969 Q22.9063,339.75 21.6094,339.75 Q20.0938,339.75 18.8906,339.125 Q17.9063,338.625 17.2188,337.5547 Q16.5313,336.4844 16.5313,335.2031 L16.5313,334.0469 Q16.5313,332.7188 17.1484,331.5703 Q17.7656,330.4219 18.8594,329.8047 Q19.9531,329.1875 21.1875,329.1875 Q21.9219,329.1875 22.5703,329.3516 Q23.2188,329.5156 23.7656,329.875 Z "/><text fill="#000000" font-family="sans-serif" font-size="12" lengthAdjust="spacingAndGlyphs" textLength="20" x="35" y="338.9102">List</text><line style="stroke: #A80036; stroke-width: 1.5;" x1="7" x2="57" y1="350" y2="350"/><line style="stroke: #A80036; stroke-width: 1.5;" x1="7" x2="57" y1="358" y2="358"/><rect fill="#FEFECE" filter="url(#f1)" height="48" style="stroke: #A80036; stroke-width: 1.5;" width="55" x="93.5" y="318"/><ellipse cx="108.5" cy="334" fill="#ADD1B2" rx="11" ry="11" style="stroke: #A80036; stroke-width: 1.0;"/><path d="M111.2656,329.875 Q111.4219,329.6563 111.6094,329.5469 Q111.7969,329.4375 112.0156,329.4375 Q112.3906,329.4375 112.625,329.6953 Q112.8594,329.9531 112.8594,330.5625 L112.8594,332.0156 Q112.8594,332.625 112.625,332.8906 Q112.3906,333.1563 112.0156,333.1563 Q111.6719,333.1563 111.4688,332.9531 Q111.2656,332.7656 111.1563,332.25 Q111.1094,331.8906 110.9219,331.7031 Q110.5938,331.3281 109.9844,331.1094 Q109.375,330.8906 108.75,330.8906 Q107.9844,330.8906 107.3516,331.2188 Q106.7188,331.5469 106.2266,332.2969 Q105.7344,333.0469 105.7344,334.0781 L105.7344,335.1719 Q105.7344,336.4063 106.625,337.2266 Q107.5156,338.0469 109.1094,338.0469 Q110.0469,338.0469 110.7031,337.7969 Q111.0938,337.6406 111.5156,337.2031 Q111.7813,336.9375 111.9297,336.8594 Q112.0781,336.7813 112.2813,336.7813 Q112.6094,336.7813 112.8672,337.0391 Q113.125,337.2969 113.125,337.6406 Q113.125,337.9844 112.7813,338.3906 Q112.2813,338.9688 111.4844,339.2969 Q110.4063,339.75 109.1094,339.75 Q107.5938,339.75 106.3906,339.125 Q105.4063,338.625 104.7188,337.5547 Q104.0313,336.4844 104.0313,335.2031 L104.0313,334.0469 Q104.0313,332.7188 104.6484,331.5703 Q105.2656,330.4219 106.3594,329.8047 Q107.4531,329.1875 108.6875,329.1875 Q109.4219,329.1875 110.0703,329.3516 Q110.7188,329.5156 111.2656,329.875 Z "/><text fill="#000000" font-family="sans-serif" font-size="12" lengthAdjust="spacingAndGlyphs" textLength="23" x="122.5" y="338.9102">Run</text><line style="stroke: #A80036; stroke-width: 1.5;" x1="94.5" x2="147.5" y1="350" y2="350"/><line style="stroke: #A80036; stroke-width: 1.5;" x1="94.5" x2="147.5" y1="358" y2="358"/><rect fill="#FEFECE" filter="url(#f1)" height="48" style="stroke: #A80036; stroke-width: 1.5;" width="61" x="183.5" y="318"/><ellipse cx="198.5" cy="334" fill="#ADD1B2" rx="11" ry="11" style="stroke: #A80036; stroke-width: 1.0;"/><path d="M201.2656,329.875 Q201.4219,329.6563 201.6094,329.5469 Q201.7969,329.4375 202.0156,329.4375 Q202.3906,329.4375 202.625,329.6953 Q202.8594,329.9531 202.8594,330.5625 L202.8594,332.0156 Q202.8594,332.625 202.625,332.8906 Q202.3906,333.1563 202.0156,333.1563 Q201.6719,333.1563 201.4688,332.9531 Q201.2656,332.7656 201.1563,332.25 Q201.1094,331.8906 200.9219,331.7031 Q200.5938,331.3281 199.9844,331.1094 Q199.375,330.8906 198.75,330.8906 Q197.9844,330.8906 197.3516,331.2188 Q196.7188,331.5469 196.2266,332.2969 Q195.7344,333.0469 195.7344,334.0781 L195.7344,335.1719 Q195.7344,336.4063 196.625,337.2266 Q197.5156,338.0469 199.1094,338.0469 Q200.0469,338.0469 200.7031,337.7969 Q201.0938,337.6406 201.5156,337.2031 Q201.7813,336.9375 201.9297,336.8594 Q202.0781,336.7813 202.2813,336.7813 Q202.6094,336.7813 202.8672,337.0391 Q203.125,337.2969 203.125,337.6406 Q203.125,337.9844 202.7813,338.3906 Q202.2813,338.9688 201.4844,339.2969 Q200.4063,339.75 199.1094,339.75 Q197.5938,339.75 196.3906,339.125 Q195.4063,338.625 194.7188,337.5547 Q194.0313,336.4844 194.0313,335.2031 L194.0313,334.0469 Q194.0313,332.7188 194.6484,331.5703 Q195.2656,330.4219 196.3594,329.8047 Q197.4531,329.1875 198.6875,329.1875 Q199.4219,329.1875 200.0703,329.3516 Q200.7188,329.5156 201.2656,329.875 Z "/><text fill="#000000" font-family="sans-serif" font-size="12" lengthAdjust="spacingAndGlyphs" textLength="29" x="212.5" y="338.9102">Docs</text><line style="stroke: #A80036; stroke-width: 1.5;" x1="184.5" x2="243.5" y1="350" y2="350"/><line style="stroke: #A80036; stroke-width: 1.5;" x1="184.5" x2="243.5" y1="358" y2="358"/><polygon fill="#FBFB77" filter="url(#f1)" points="418,160,418,186.3516,542,186.3516,542,170,532,160,418,160" style="stroke: #A80036; stroke-width: 1.0;"/><polygon fill="#FBFB77" points="418,160,418,169,348.039,173,418,177,418,186.3516,542,186.3516,542,170,532,160,418,160" style="stroke: #A80036; stroke-width: 1.0;"/><line style="stroke: #A80036; stroke-width: 1.0;" x1="532" x2="532" y1="160" y2="170"/><line style="stroke: #A80036; stroke-width: 1.0;" x1="542" x2="532" y1="170" y2="170"/><text fill="#000000" font-family="sans-serif" font-size="13" lengthAdjust="spacingAndGlyphs" textLength="103" x="424" y="178.4951">Command pattern</text><rect fill="#FEFECE" filter="url(#f1)" height="52.25" style="stroke: #A80036; stroke-width: 1.5;" width="144" x="142" y="11.5"/><text fill="#000000" font-family="sans-serif" font-size="12" lengthAdjust="spacingAndGlyphs" textLength="41" x="193.5" y="25.957">globals</text><line style="stroke: #A80036; stroke-width: 1.5;" x1="143" x2="285" y1="30.5938" y2="30.5938"/><text fill="#000000" font-family="sans-serif" font-size="10" lengthAdjust="spacingAndGlyphs" textLength="132" x="148" y="44.9746">COMMAND_REGISTRY: list</text><text fill="#000000" font-family="sans-serif" font-size="10" lengthAdjust="spacingAndGlyphs" textLength="30" x="148" y="57.5527">main()</text><polygon fill="#FBFB77" filter="url(#f1)" points="355.5,8,355.5,67.0547,616.5,67.0547,616.5,18,606.5,8,355.5,8" style="stroke: #A80036; stroke-width: 1.0;"/><polygon fill="#FBFB77" points="355.5,8,355.5,33.5,286.25,37.5,355.5,41.5,355.5,67.0547,616.5,67.0547,616.5,18,606.5,8,355.5,8" style="stroke: #A80036; stroke-width: 1.0;"/><line style="stroke: #A80036; stroke-width: 1.0;" x1="606.5" x2="606.5" y1="8" y2="18"/><line style="stroke: #A80036; stroke-width: 1.0;" x1="616.5" x2="606.5" y1="18" y2="18"/><text fill="#000000" font-family="sans-serif" font-size="13" lengthAdjust="spacingAndGlyphs" textLength="240" x="361.5" y="26.4951">COMMAND_REGISTRY is a mutable list.</text><text fill="#000000" font-family="sans-serif" font-size="13" lengthAdjust="spacingAndGlyphs" textLength="201" x="361.5" y="42.8467">ECT-plugins can extend the CLI by</text><text fill="#000000" font-family="sans-serif" font-size="13" lengthAdjust="spacingAndGlyphs" textLength="163" x="361.5" y="59.1982">adding new commands to it.</text><path d="M126.771,229.818 C108.975,243.178 91.0978,258.191 76,274 C63.5054,287.083 52.3542,304.156 44.404,317.793 " fill="none" style="stroke: #A80036; stroke-width: 1.0; stroke-dasharray: 7.0,7.0;"/><polygon fill="none" points="122.709,224.117,143.008,218.039,130.93,235.449,122.709,224.117" style="stroke: #A80036; stroke-width: 1.0;"/><path d="M179.527,235.903 C163.667,264.382 145.804,296.46 134.03,317.6021 " fill="none" style="stroke: #A80036; stroke-width: 1.0; stroke-dasharray: 7.0,7.0;"/><polygon fill="none" points="173.476,232.382,189.322,218.314,185.707,239.194,173.476,232.382" style="stroke: #A80036; stroke-width: 1.0;"/><path d="M214,238.341 C214,266.198 214,297.061 214,317.6021 " fill="none" style="stroke: #A80036; stroke-width: 1.0; stroke-dasharray: 7.0,7.0;"/><polygon fill="none" points="207,238.315,214,218.314,221,238.314,207,238.315" style="stroke: #A80036; stroke-width: 1.0;"/><path d="M247.7,218.314 C270.719,248.583 300.494,287.736 320.142,313.5732 " fill="none" style="stroke: #A80036; stroke-width: 1.0; stroke-dasharray: 7.0,7.0;"/><polygon fill="#A80036" points="323.206,317.6021,320.942,308.017,320.1794,313.6222,314.5742,312.8596,323.206,317.6021" style="stroke: #A80036; stroke-width: 1.0;"/><text fill="#000000" font-family="sans-serif" font-size="13" lengthAdjust="spacingAndGlyphs" textLength="68" x="282" y="262.4951">&lt;configure&gt;</text><path d="M321.826,218.044 C354.649,233.6 389.961,252.616 420,274 C436.031,285.412 451.71,300.7889 463.865,313.9329 " fill="none" style="stroke: #A80036; stroke-width: 1.0; stroke-dasharray: 7.0,7.0;"/><polygon fill="#A80036" points="467.521,317.9335,464.4032,308.5912,464.1483,314.2423,458.4972,313.9874,467.521,317.9335" style="stroke: #A80036; stroke-width: 1.0;"/><text fill="#000000" font-family="sans-serif" font-size="13" lengthAdjust="spacingAndGlyphs" textLength="89" x="405" y="262.4951">&lt;execute with&gt;</text><path d="M214,76.802 C214,88.623 214,101.907 214,114.716 " fill="none" style="stroke: #A80036; stroke-width: 1.0;"/><polygon fill="#A80036" points="214,127.811,218,118.811,214,122.811,210,118.811,214,127.811" style="stroke: #A80036; stroke-width: 1.0;"/><line style="stroke: #A80036; stroke-width: 1.0;" x1="214" x2="214" y1="122.811" y2="114.8115"/><polygon fill="#FFFFFF" points="214,63.61,210,69.61,214,75.61,218,69.61,214,63.61" style="stroke: #A80036; stroke-width: 1.0;"/><text fill="#000000" font-family="sans-serif" font-size="13" lengthAdjust="spacingAndGlyphs" textLength="24" x="188.1625" y="117.2262">3..N</text></g></svg>