<?xml version="1.0" encoding="UTF-8" standalone="yes"?><svg xmlns="http://www.w3.org/2000/svg" xmlns:xlink="http://www.w3.org/1999/xlink" height="389px" style="width:791px;height:389px;" version="1.1" viewBox="0 0 791 389" width="791px"><defs><filter height="300%" id="f1" width="300%" x="-1" y="-1"><feGaussianBlur result="blurOut" stdDeviation="2.0"/><feColorMatrix in="blurOut" result="blurOut2" type="matrix" values="0 0 0 0 0 0 0 0 0 0 0 0 0 0 0 0 0 0 .4 0"/><feOffset dx="4.0" dy="4.0" in="blurOut2" result="blurOut3"/><feBlend in="SourceGraphic" in2="blurOut3" mode="normal"/></filter></defs><g><polygon fill="#FFFFFF" filter="url(#f1)" points="476.5,282,545.5,282,552.5,305.6094,765.5,305.6094,765.5,382,476.5,382,476.5,282" style="stroke: #000000; stroke-width: 2.0;"/><line style="stroke: #000000; stroke-width: 2.0;" x1="476.5" x2="552.5" y1="305.6094" y2="305.6094"/><text fill="#000000" font-family="sans-serif" font-size="14" font-weight="bold" lengthAdjust="spacingAndGlyphs" textLength="63" x="480.5" y="298.5332">argparse</text><rect fill="#FEFECE" filter="url(#f1)" height="48" style="stroke: #A80036; stroke-width: 1.5;" width="122" x="492.5" y="318"/><ellipse cx="507.5" cy="334" fill="#ADD1B2" rx="11" ry="11" style="stroke: #A80036; stroke-width: 1.0;"/><path d="M510.2656,329.875 Q510.4219,329.6563 510.6094,329.5469 Q510.7969,329.4375 511.0156,329.4375 Q511.3906,329.4375 511.625,329.6953 Q511.8594,329.9531 511.8594,330.5625 L511.8594,332.0156 Q511.8594,332.625 511.625,332.8906 Q511.3906,333.1563 511.0156,333.1563 Q510.6719,333.1563 510.4688,332.9531 Q510.2656,332.7656 510.1563,332.25 Q510.1094,331.8906 509.9219,331.7031 Q509.5938,331.3281 508.9844,331.1094 Q508.375,330.8906 507.75,330.8906 Q506.9844,330.8906 506.3516,331.2188 Q505.7188,331.5469 505.2266,332.2969 Q504.7344,333.0469 504.7344,334.0781 L504.7344,335.1719 Q504.7344,336.4063 505.625,337.2266 Q506.5156,338.0469 508.1094,338.0469 Q509.0469,338.0469 509.7031,337.7969 Q510.0938,337.6406 510.5156,337.2031 Q510.7813,336.9375 510.9297,336.8594 Q511.0781,336.7813 511.2813,336.7813 Q511.6094,336.7813 511.8672,337.0391 Q512.125,337.2969 512.125,337.6406 Q512.125,337.9844 511.7813,338.3906 Q511.2813,338.9688 510.4844,339.2969 Q509.4063,339.75 508.1094,339.75 Q506.5938,339.75 505.3906,339.125 Q504.4063,338.625 503.7188,337.5547 Q503.0313,336.4844 503.0313,335.2031 L503.0313,334.0469 Q503.0313,332.7188 503.6484,331.5703 Q504.2656,330.4219 505.3594,329.8047 Q506.4531,329.1875 507.6875,329.1875 Q508.4219,329.1875 509.0703,329.3516 Q509.7188,329.5156 510.2656,329.875 Z "/><text fill="#000000" font-family="sans-serif" font-size="12" lengthAdjust="spacingAndGlyphs" textLength="90" x="521.5" y="338.9102">ArgumentParser</text><line style="stroke: #A80036; stroke-width: 1.5;" x1="493.5" x2="613.5" y1="350" y2="350"/><line style="stroke: #A80036; stroke-width: 1.5;" x1="493.5" x2="613.5" y1="358" y2="358"/><rect fill="#FEFECE" filter="url(#f1)" height="48" style="stroke: #A80036; stroke-width: 1.5;" width="100" x="649.5" y="318"/><ellipse cx="664.5" cy="334" fill="#ADD1B2" rx="11" ry="11" style="stroke: #A80036; stroke-width: 1.0;"/><path d="M667.2656,329.875 Q667.4219,329.6563 667.6094,329.5469 Q667.7969,329.4375 668.0156,329.4375 Q668.3906,329.4375 668.625,329.6953 Q668.8594,329.9531 668.8594,330.5625 L668.8594,332.0156 Q668.8594,332.625 668.625,332.8906 Q668.3906,333.1563 668.0156,333.1563 Q667.6719,333.1563 667.4688,332.9531 Q667.2656,332.7656 667.1563,332.25 Q667.1094,331.8906 666.9219,331.7031 Q666.5938,331.3281 665.9844,331.1094 Q665.375,330.8906 664.75,330.8906 Q663.9844,330.8906 663.3516,331.2188 Q662.7188,331.5469 662.2266,332.2969 Q661.7344,333.0469 661.7344,334.0781 L661.7344,335.1719 Q661.7344,336.4063 662.625,337.2266 Q663.5156,338.0469 665.1094,338.0469 Q666.0469,338.0469 666.7031,337.7969 Q667.0938,337.6406 667.5156,337.2031 Q667.7813,336.9375 667.9297,336.8594 Q668.0781,336.7813 668.2813,336.7813 Q668.6094,336.7813 668.8672,337.0391 Q669.125,337.2969 669.125,337.6406 Q669.125,337.9844 668.7813,338.3906 Q668.2813,338.9688 667.4844,339.2969 Q666.4063,339.75 665.1094,339.75 Q663.5938,339.75 662.3906,339.125 Q661.4063,338.625 660.7188,337.5547 Q660.0313,336.4844 660.0313,335.2031 L660.0313,334.0469 Q660.0313,332.7188 660.6484,331.5703 Q661.2656,330.4219 662.3594,329.8047 Q663.4531,329.1875 664.6875,329.1875 Q665.4219,329.1875 666.0703,329.3516 Q666.7188,329.5156 667.2656,329.875 Z "/><text fill="#000000" font-family="sans-serif" font-size="12" lengthAdjust="spacingAndGlyphs" textLength="68" x="678.5" y="338.9102">Namespace</text><line style="stroke: #A80036; stroke-width: 1.5;" x1="650.5" x2="748.5" y1="350" y2="350"/><line style="stroke: #A80036; stroke-width: 1.5;" x1="650.5" x2="748.5" y1="358" y2="358"/><rect fill="#FEFECE" filter="url(#f1)" height="89.5078" style="stroke: #A80036; stroke-width: 1.5;" width="268" x="245.5" y="128"/><ellipse cx="345.75" cy="144" fill="#B4A7E5" rx="11" ry="11" style="stroke: #A80036; stroke-width: 1.0;"/><path d="M346.7031,140.6406 L346.7031,147.2969 L348.4219,147.2969 Q349.0313,147.2969 349.2969,147.5313 Q349.5625,147.7656 349.5625,148.1563 Q349.5625,148.5313 349.2969,148.7656 Q349.0313,149 348.4219,149 L343.2813,149 Q342.6719,149 342.4063,148.7656 Q342.1406,148.5313 342.1406,148.1406 Q342.1406,147.7656 342.4063,147.5313 Q342.6719,147.2969 343.2813,147.2969 L345,147.2969 L345,140.6406 L343.2813,140.6406 Q342.6719,140.6406 342.4063,140.4063 Q342.1406,140.1719 342.1406,139.7813 Q342.1406,139.4063 342.4063,139.1719 Q342.6719,138.9375 343.2813,138.9375 L348.4219,138.9375 Q349.0313,138.9375 349.2969,139.1719 Q349.5625,139.4063 349.5625,139.7813 Q349.5625,140.1719 349.2969,140.4063 Q349.0313,140.6406 348.4219,140.6406 L346.7031,140.6406 Z "/><text fill="#000000" font-family="sans-serif" font-size="12" font-style="italic" lengthAdjust="spacingAndGlyphs" textLength="59" x="366.25" y="148.9102">Command</text><line style="stroke: #A80036; stroke-width: 1.5;" x1="246.5" x2="512.5" y1="160" y2="160"/><line style="stroke: #A80036; stroke-width: 1.5;" x1="246.5" x2="512.5" y1="168" y2="168"/><text fill="#000000" font-family="sans-serif" font-size="11" lengthAdjust="spacingAndGlyphs" textLength="168" x="251.5" y="183.4189">name_and_parser_kwargs(): tuple</text><text fill="#000000" font-family="sans-serif" font-size="11" lengthAdjust="spacingAndGlyphs" textLength="256" x="251.5" y="197.2549">configure_parser(parser: argparse.ArgumentParser)</text><text fill="#000000" font-family="sans-serif" font-size="11" lengthAdjust="spacingAndGlyphs" textLength="255" x="251.5" y="211.0908">execute(self, command_args: argparse.Namespace)</text><rect fill="#FEFECE" filter="url(#f1)" height="48" style="stroke: #A80036; stroke-width: 1.5;" width="111" x="6" y="318"/><ellipse cx="21" cy="334" fill="#ADD1B2" rx="11" ry="11" style="stroke: #A80036; stroke-width: 1.0;"/><path d="M23.7656,329.875 Q23.9219,329.6563 24.1094,329.5469 Q24.2969,329.4375 24.5156,329.4375 Q24.8906,329.4375 25.125,329.6953 Q25.3594,329.9531 25.3594,330.5625 L25.3594,332.0156 Q25.3594,332.625 25.125,332.8906 Q24.8906,333.1563 24.5156,333.1563 Q24.1719,333.1563 23.9688,332.9531 Q23.7656,332.7656 23.6563,332.25 Q23.6094,331.8906 23.4219,331.7031 Q23.0938,331.3281 22.4844,331.1094 Q21.875,330.8906 21.25,330.8906 Q20.4844,330.8906 19.8516,331.2188 Q19.2188,331.5469 18.7266,332.2969 Q18.2344,333.0469 18.2344,334.0781 L18.2344,335.1719 Q18.2344,336.4063 19.125,337.2266 Q20.0156,338.0469 21.6094,338.0469 Q22.5469,338.0469 23.2031,337.7969 Q23.5938,337.6406 24.0156,337.2031 Q24.2813,336.9375 24.4297,336.8594 Q24.5781,336.7813 24.7813,336.7813 Q25.1094,336.7813 25.3672,337.0391 Q25.625,337.2969 25.625,337.6406 Q25.625,337.9844 25.2813,338.3906 Q24.7813,338.9688 23.9844,339.2969 Q22.9063,339.75 21.6094,339.75 Q20.0938,339.75 18.8906,339.125 Q17.9063,338.625 17.2188,337.5547 Q16.5313,336.4844 16.5313,335.2031 L16.5313,334.0469 Q16.5313,332.7188 17.1484,331.5703 Q17.7656,330.4219 18.8594,329.8047 Q19.9531,329.1875 21.1875,329.1875 Q21.9219,329.1875 22.5703,329.3516 Q23.2188,329.5156 23.7656,329.875 Z "/><text fill="#000000" font-family="sans-serif" font-size="12" lengthAdjust="spacingAndGlyphs" textLength="79" x="35" y="338.9102">ListCommand</text><line style="stroke: #A80036; stroke-width: 1.5;" x1="7" x2="116" y1="350" y2="350"/><line style="stroke: #A80036; stroke-width: 1.5;" x1="7" x2="116" y1="358" y2="358"/><rect fill="#FEFECE" filter="url(#f1)" height="48" style="stroke: #A80036; stroke-width: 1.5;" width="114" x="152.5" y="318"/><ellipse cx="167.5" cy="334" fill="#ADD1B2" rx="11" ry="11" style="stroke: #A80036; stroke-width: 1.0;"/><path d="M170.2656,329.875 Q170.4219,329.6563 170.6094,329.5469 Q170.7969,329.4375 171.0156,329.4375 Q171.3906,329.4375 171.625,329.6953 Q171.8594,329.9531 171.8594,330.5625 L171.8594,332.0156 Q171.8594,332.625 171.625,332.8906 Q171.3906,333.1563 171.0156,333.1563 Q170.6719,333.1563 170.4688,332.9531 Q170.2656,332.7656 170.1563,332.25 Q170.1094,331.8906 169.9219,331.7031 Q169.5938,331.3281 168.9844,331.1094 Q168.375,330.8906 167.75,330.8906 Q166.9844,330.8906 166.3516,331.2188 Q165.7188,331.5469 165.2266,332.2969 Q164.7344,333.0469 164.7344,334.0781 L164.7344,335.1719 Q164.7344,336.4063 165.625,337.2266 Q166.5156,338.0469 168.1094,338.0469 Q169.0469,338.0469 169.7031,337.7969 Q170.0938,337.6406 170.5156,337.2031 Q170.7813,336.9375 170.9297,336.8594 Q171.0781,336.7813 171.2813,336.7813 Q171.6094,336.7813 171.8672,337.0391 Q172.125,337.2969 172.125,337.6406 Q172.125,337.9844 171.7813,338.3906 Q171.2813,338.9688 170.4844,339.2969 Q169.4063,339.75 168.1094,339.75 Q166.5938,339.75 165.3906,339.125 Q164.4063,338.625 163.7188,337.5547 Q163.0313,336.4844 163.0313,335.2031 L163.0313,334.0469 Q163.0313,332.7188 163.6484,331.5703 Q164.2656,330.4219 165.3594,329.8047 Q166.4531,329.1875 167.6875,329.1875 Q168.4219,329.1875 169.0703,329.3516 Q169.7188,329.5156 170.2656,329.875 Z "/><text fill="#000000" font-family="sans-serif" font-size="12" lengthAdjust="spacingAndGlyphs" textLength="82" x="181.5" y="338.9102">RunCommand</text><line style="stroke: #A80036; stroke-width: 1.5;" x1="153.5" x2="265.5" y1="350" y2="350"/><line style="stroke: #A80036; stroke-width: 1.5;" x1="153.5" x2="265.5" y1="358" y2="358"/><rect fill="#FEFECE" filter="url(#f1)" height="48" style="stroke: #A80036; stroke-width: 1.5;" width="156" x="301.5" y="318"/><ellipse cx="316.5" cy="334" fill="#ADD1B2" rx="11" ry="11" style="stroke: #A80036; stroke-width: 1.0;"/><path d="M319.2656,329.875 Q319.4219,329.6563 319.6094,329.5469 Q319.7969,329.4375 320.0156,329.4375 Q320.3906,329.4375 320.625,329.6953 Q320.8594,329.9531 320.8594,330.5625 L320.8594,332.0156 Q320.8594,332.625 320.625,332.8906 Q320.3906,333.1563 320.0156,333.1563 Q319.6719,333.1563 319.4688,332.9531 Q319.2656,332.7656 319.1563,332.25 Q319.1094,331.8906 318.9219,331.7031 Q318.5938,331.3281 317.9844,331.1094 Q317.375,330.8906 316.75,330.8906 Q315.9844,330.8906 315.3516,331.2188 Q314.7188,331.5469 314.2266,332.2969 Q313.7344,333.0469 313.7344,334.0781 L313.7344,335.1719 Q313.7344,336.4063 314.625,337.2266 Q315.5156,338.0469 317.1094,338.0469 Q318.0469,338.0469 318.7031,337.7969 Q319.0938,337.6406 319.5156,337.2031 Q319.7813,336.9375 319.9297,336.8594 Q320.0781,336.7813 320.2813,336.7813 Q320.6094,336.7813 320.8672,337.0391 Q321.125,337.2969 321.125,337.6406 Q321.125,337.9844 320.7813,338.3906 Q320.2813,338.9688 319.4844,339.2969 Q318.4063,339.75 317.1094,339.75 Q315.5938,339.75 314.3906,339.125 Q313.4063,338.625 312.7188,337.5547 Q312.0313,336.4844 312.0313,335.2031 L312.0313,334.0469 Q312.0313,332.7188 312.6484,331.5703 Q313.2656,330.4219 314.3594,329.8047 Q315.4531,329.1875 316.6875,329.1875 Q317.4219,329.1875 318.0703,329.3516 Q318.7188,329.5156 319.2656,329.875 Z "/><text fill="#000000" font-family="sans-serif" font-size="12" lengthAdjust="spacingAndGlyphs" textLength="124" x="330.5" y="338.9102">DataSourceCommand</text><line style="stroke: #A80036; stroke-width: 1.5;" x1="302.5" x2="456.5" y1="350" y2="350"/><line style="stroke: #A80036; stroke-width: 1.5;" x1="302.5" x2="456.5" y1="358" y2="358"/><polygon fill="#FBFB77" filter="url(#f1)" points="583.5,160,583.5,186.3516,707.5,186.3516,707.5,170,697.5,160,583.5,160" style="stroke: #A80036; stroke-width: 1.0;"/><polygon fill="#FBFB77" points="583.5,160,583.5,169,513.539,173,583.5,177,583.5,186.3516,707.5,186.3516,707.5,170,697.5,160,583.5,160" style="stroke: #A80036; stroke-width: 1.0;"/><line style="stroke: #A80036; stroke-width: 1.0;" x1="697.5" x2="697.5" y1="160" y2="170"/><line style="stroke: #A80036; stroke-width: 1.0;" x1="707.5" x2="697.5" y1="170" y2="170"/><text fill="#000000" font-family="sans-serif" font-size="13" lengthAdjust="spacingAndGlyphs" textLength="103" x="589.5" y="178.4951">Command pattern</text><rect fill="#FEFECE" filter="url(#f1)" height="52.25" style="stroke: #A80036; stroke-width: 1.5;" width="144" x="307.5" y="11.5"/><text fill="#000000" font-family="sans-serif" font-size="12" lengthAdjust="spacingAndGlyphs" textLength="41" x="359" y="25.957">globals</text><line style="stroke: #A80036; stroke-width: 1.5;" x1="308.5" x2="450.5" y1="30.5938" y2="30.5938"/><text fill="#000000" font-family="sans-serif" font-size="10" lengthAdjust="spacingAndGlyphs" textLength="132" x="313.5" y="44.9746">COMMAND_REGISTRY: list</text><text fill="#000000" font-family="sans-serif" font-size="10" lengthAdjust="spacingAndGlyphs" textLength="30" x="313.5" y="57.5527">main()</text><polygon fill="#FBFB77" filter="url(#f1)" points="521,8,521,67.0547,782,67.0547,782,18,772,8,521,8" style="stroke: #A80036; stroke-width: 1.0;"/><polygon fill="#FBFB77" points="521,8,521,33.5,451.75,37.5,521,41.5,521,67.0547,782,67.0547,782,18,772,8,521,8" style="stroke: #A80036; stroke-width: 1.0;"/><line style="stroke: #A80036; stroke-width: 1.0;" x1="772" x2="772" y1="8" y2="18"/><line style="stroke: #A80036; stroke-width: 1.0;" x1="782" x2="772" y1="18" y2="18"/><text fill="#000000" font-family="sans-serif" font-size="13" lengthAdjust="spacingAndGlyphs" textLength="240" x="527" y="26.4951">COMMAND_REGISTRY is a mutable list.</text><text fill="#000000" font-family="sans-serif" font-size="13" lengthAdjust="spacingAndGlyphs" textLength="201" x="527" y="42.8467">ECT-plugins can extend the CLI by</text><text fill="#000000" font-family="sans-serif" font-size="13" lengthAdjust="spacingAndGlyphs" textLength="163" x="527" y="59.1982">adding new commands to it.</text><path d="M228.399,225.827 C196.332,239.498 163.448,255.647 134.5,274 C115.177,286.251 96.2282,303.8564 82.4803,317.9462 " fill="none" style="stroke: #A80036; stroke-width: 1.0; stroke-dasharray: 7.0,7.0;"/><polygon fill="none" points="225.993,219.247,247.15,218.066,231.347,232.183,225.993,219.247" style="stroke: #A80036; stroke-width: 1.0;"/><path d="M319.765,232.68 C289.986,261.934 255.656,295.658 233.318,317.6021 " fill="none" style="stroke: #A80036; stroke-width: 1.0; stroke-dasharray: 7.0,7.0;"/><polygon fill="none" points="315.216,227.337,334.389,218.314,325.027,237.324,315.216,227.337" style="stroke: #A80036; stroke-width: 1.0;"/><path d="M379.5,238.341 C379.5,266.198 379.5,297.061 379.5,317.6021 " fill="none" style="stroke: #A80036; stroke-width: 1.0; stroke-dasharray: 7.0,7.0;"/><polygon fill="none" points="372.5,238.315,379.5,218.314,386.5,238.314,372.5,238.315" style="stroke: #A80036; stroke-width: 1.0;"/><path d="M425.672,218.314 C457.339,248.708 498.34,288.059 525.255,313.8915 " fill="none" style="stroke: #A80036; stroke-width: 1.0; stroke-dasharray: 7.0,7.0;"/><polygon fill="#A80036" points="529.121,317.6021,525.3983,308.4839,525.5139,314.1396,519.8583,314.2552,529.121,317.6021" style="stroke: #A80036; stroke-width: 1.0;"/><text fill="#000000" font-family="sans-serif" font-size="13" lengthAdjust="spacingAndGlyphs" textLength="68" x="472.5" y="262.4951">&lt;configure&gt;</text><path d="M513.564,215.304 C553.518,230.64 596.274,250.219 632.5,274 C649.075,284.881 664.895,300.3681 676.996,313.7121 " fill="none" style="stroke: #A80036; stroke-width: 1.0; stroke-dasharray: 7.0,7.0;"/><polygon fill="#A80036" points="680.628,317.777,677.6119,308.4013,677.2957,314.0493,671.6477,313.7331,680.628,317.777" style="stroke: #A80036; stroke-width: 1.0;"/><text fill="#000000" font-family="sans-serif" font-size="13" lengthAdjust="spacingAndGlyphs" textLength="89" x="614.5" y="262.4951">&lt;execute with&gt;</text><path d="M379.5,76.802 C379.5,88.623 379.5,101.907 379.5,114.716 " fill="none" style="stroke: #A80036; stroke-width: 1.0;"/><polygon fill="#A80036" points="379.5,127.811,383.5,118.811,379.5,122.811,375.5,118.811,379.5,127.811" style="stroke: #A80036; stroke-width: 1.0;"/><line style="stroke: #A80036; stroke-width: 1.0;" x1="379.5" x2="379.5" y1="122.811" y2="114.8115"/><polygon fill="#FFFFFF" points="379.5,63.61,375.5,69.61,379.5,75.61,383.5,69.61,379.5,63.61" style="stroke: #A80036; stroke-width: 1.0;"/><text fill="#000000" font-family="sans-serif" font-size="13" lengthAdjust="spacingAndGlyphs" textLength="24" x="353.6625" y="117.2262">3..N</text></g></svg>