<?xml version="1.0" encoding="UTF-8" standalone="yes"?><!--
  ~ The MIT License (MIT)
  ~ Copyright (c) 2016, 2017 by the ESA CCI Toolbox development team and contributors
  ~
  ~ Permission is hereby granted, free of charge, to any person obtaining a copy of
  ~ this software and associated documentation files (the "Software"), to deal in
  ~ the Software without restriction, including without limitation the rights to
  ~ use, copy, modify, merge, publish, distribute, sublicense, and/or sell copies
  ~ of the Software, and to permit persons to whom the Software is furnished to do
  ~ so, subject to the following conditions:
  ~
  ~ The above copyright notice and this permission notice shall be included in all
  ~ copies or substantial portions of the Software.
  ~
  ~ THE SOFTWARE IS PROVIDED "AS IS", WITHOUT WARRANTY OF ANY KIND, EXPRESS OR
  ~ IMPLIED, INCLUDING BUT NOT LIMITED TO THE WARRANTIES OF MERCHANTABILITY,
  ~ FITNESS FOR A PARTICULAR PURPOSE AND NONINFRINGEMENT. IN NO EVENT SHALL THE
  ~ AUTHORS OR COPYRIGHT HOLDERS BE LIABLE FOR ANY CLAIM, DAMAGES OR OTHER
  ~ LIABILITY, WHETHER IN AN ACTION OF CONTRACT, TORT OR OTHERWISE, ARISING FROM,
  ~ OUT OF OR IN CONNECTION WITH THE SOFTWARE OR THE USE OR OTHER DEALINGS IN THE
  ~ SOFTWARE.
  ~
  -->

<svg xmlns="http://www.w3.org/2000/svg" xmlns:xlink="http://www.w3.org/1999/xlink" height="438px" style="width:503px;height:438px;" version="1.1" viewBox="0 0 503 438" width="503px"><defs><filter height="300%" id="f1" width="300%" x="-1" y="-1"><feGaussianBlur result="blurOut" stdDeviation="2.0"/><feColorMatrix in="blurOut" result="blurOut2" type="matrix" values="0 0 0 0 0 0 0 0 0 0 0 0 0 0 0 0 0 0 .4 0"/><feOffset dx="4.0" dy="4.0" in="blurOut2" result="blurOut3"/><feBlend in="SourceGraphic" in2="blurOut3" mode="normal"/></filter></defs><g><rect fill="#FEFECE" filter="url(#f1)" height="64.8281" style="stroke: #A80036; stroke-width: 1.5;" width="233" x="6" y="27"/><text fill="#000000" font-family="sans-serif" font-size="12" lengthAdjust="spacingAndGlyphs" textLength="41" x="102" y="41.457">globals</text><line style="stroke: #A80036; stroke-width: 1.5;" x1="7" x2="238" y1="46.0938" y2="46.0938"/><text fill="#000000" font-family="sans-serif" font-size="10" lengthAdjust="spacingAndGlyphs" textLength="219" x="12" y="60.4746">DATA_STORE_REGISTRY: DataStoreRegistry</text><text fill="#000000" font-family="sans-serif" font-size="10" lengthAdjust="spacingAndGlyphs" textLength="209" x="12" y="73.0527">query_data_sources(data_stores, constraints)</text><text fill="#000000" font-family="sans-serif" font-size="10" lengthAdjust="spacingAndGlyphs" textLength="221" x="12" y="85.6309">open_dataset(data_source, name, time_range)</text><polygon fill="#FBFB77" filter="url(#f1)" points="33.5,180.5,33.5,239.5547,211.5,239.5547,211.5,190.5,201.5,180.5,33.5,180.5" style="stroke: #A80036; stroke-width: 1.0;"/><polygon fill="#FBFB77" points="33.5,180.5,33.5,239.5547,211.5,239.5547,211.5,190.5,201.5,180.5,126.5,180.5,122.5,92.357,118.5,180.5,33.5,180.5" style="stroke: #A80036; stroke-width: 1.0;"/><line style="stroke: #A80036; stroke-width: 1.0;" x1="201.5" x2="201.5" y1="180.5" y2="190.5"/><line style="stroke: #A80036; stroke-width: 1.0;" x1="211.5" x2="201.5" y1="190.5" y2="190.5"/><text fill="#000000" font-family="sans-serif" font-size="13" lengthAdjust="spacingAndGlyphs" textLength="111" x="39.5" y="198.9951">Plugins can extend</text><text fill="#000000" font-family="sans-serif" font-size="13" lengthAdjust="spacingAndGlyphs" textLength="157" x="39.5" y="215.3467">DATA_STORE_REGISTRY</text><text fill="#000000" font-family="sans-serif" font-size="13" lengthAdjust="spacingAndGlyphs" textLength="152" x="39.5" y="231.6982">by adding new data stores</text><rect fill="#FEFECE" filter="url(#f1)" height="103.3438" style="stroke: #A80036; stroke-width: 1.5;" width="188" x="274.5" y="8"/><ellipse cx="314.7" cy="24" fill="#ADD1B2" rx="11" ry="11" style="stroke: #A80036; stroke-width: 1.0;"/><path d="M317.4656,19.875 Q317.6219,19.6563 317.8094,19.5469 Q317.9969,19.4375 318.2156,19.4375 Q318.5906,19.4375 318.825,19.6953 Q319.0594,19.9531 319.0594,20.5625 L319.0594,22.0156 Q319.0594,22.625 318.825,22.8906 Q318.5906,23.1563 318.2156,23.1563 Q317.8719,23.1563 317.6688,22.9531 Q317.4656,22.7656 317.3563,22.25 Q317.3094,21.8906 317.1219,21.7031 Q316.7938,21.3281 316.1844,21.1094 Q315.575,20.8906 314.95,20.8906 Q314.1844,20.8906 313.5516,21.2188 Q312.9188,21.5469 312.4266,22.2969 Q311.9344,23.0469 311.9344,24.0781 L311.9344,25.1719 Q311.9344,26.4063 312.825,27.2266 Q313.7156,28.0469 315.3094,28.0469 Q316.2469,28.0469 316.9031,27.7969 Q317.2938,27.6406 317.7156,27.2031 Q317.9813,26.9375 318.1297,26.8594 Q318.2781,26.7813 318.4813,26.7813 Q318.8094,26.7813 319.0672,27.0391 Q319.325,27.2969 319.325,27.6406 Q319.325,27.9844 318.9813,28.3906 Q318.4813,28.9688 317.6844,29.2969 Q316.6063,29.75 315.3094,29.75 Q313.7938,29.75 312.5906,29.125 Q311.6063,28.625 310.9188,27.5547 Q310.2313,26.4844 310.2313,25.2031 L310.2313,24.0469 Q310.2313,22.7188 310.8484,21.5703 Q311.4656,20.4219 312.5594,19.8047 Q313.6531,19.1875 314.8875,19.1875 Q315.6219,19.1875 316.2703,19.3516 Q316.9188,19.5156 317.4656,19.875 Z "/><text fill="#000000" font-family="sans-serif" font-size="12" lengthAdjust="spacingAndGlyphs" textLength="100" x="334.3" y="28.9102">DataStoreRegistry</text><line style="stroke: #A80036; stroke-width: 1.5;" x1="275.5" x2="461.5" y1="40" y2="40"/><line style="stroke: #A80036; stroke-width: 1.5;" x1="275.5" x2="461.5" y1="48" y2="48"/><text fill="#000000" font-family="sans-serif" font-size="11" lengthAdjust="spacingAndGlyphs" textLength="164" x="280.5" y="63.4189">get_data_stores(): List[DataStore]</text><text fill="#000000" font-family="sans-serif" font-size="11" lengthAdjust="spacingAndGlyphs" textLength="161" x="280.5" y="77.2549">get_data_store(name): DataStore</text><text fill="#000000" font-family="sans-serif" font-size="11" lengthAdjust="spacingAndGlyphs" textLength="158" x="280.5" y="91.0908">add_data_store(DataStore): void</text><text fill="#000000" font-family="sans-serif" font-size="11" lengthAdjust="spacingAndGlyphs" textLength="176" x="280.5" y="104.9268">remove_data_store(DataStore): void</text><rect fill="#FEFECE" filter="url(#f1)" height="75.6719" style="stroke: #A80036; stroke-width: 1.5;" width="166" x="285.5" y="172"/><ellipse cx="336.75" cy="188" fill="#B4A7E5" rx="11" ry="11" style="stroke: #A80036; stroke-width: 1.0;"/><path d="M337.7031,184.6406 L337.7031,191.2969 L339.4219,191.2969 Q340.0313,191.2969 340.2969,191.5313 Q340.5625,191.7656 340.5625,192.1563 Q340.5625,192.5313 340.2969,192.7656 Q340.0313,193 339.4219,193 L334.2813,193 Q333.6719,193 333.4063,192.7656 Q333.1406,192.5313 333.1406,192.1406 Q333.1406,191.7656 333.4063,191.5313 Q333.6719,191.2969 334.2813,191.2969 L336,191.2969 L336,184.6406 L334.2813,184.6406 Q333.6719,184.6406 333.4063,184.4063 Q333.1406,184.1719 333.1406,183.7813 Q333.1406,183.4063 333.4063,183.1719 Q333.6719,182.9375 334.2813,182.9375 L339.4219,182.9375 Q340.0313,182.9375 340.2969,183.1719 Q340.5625,183.4063 340.5625,183.7813 Q340.5625,184.1719 340.2969,184.4063 Q340.0313,184.6406 339.4219,184.6406 L337.7031,184.6406 Z "/><text fill="#000000" font-family="sans-serif" font-size="12" font-style="italic" lengthAdjust="spacingAndGlyphs" textLength="55" x="357.25" y="192.9102">DataStore</text><line style="stroke: #A80036; stroke-width: 1.5;" x1="286.5" x2="450.5" y1="204" y2="204"/><text fill="#000000" font-family="sans-serif" font-size="11" lengthAdjust="spacingAndGlyphs" textLength="45" x="291.5" y="219.4189">name: str</text><line style="stroke: #A80036; stroke-width: 1.5;" x1="286.5" x2="450.5" y1="225.8359" y2="225.8359"/><text fill="#000000" font-family="sans-serif" font-size="11" font-style="italic" lengthAdjust="spacingAndGlyphs" textLength="154" x="291.5" y="241.2549">query(query_expr): DataSource</text><rect fill="#FEFECE" filter="url(#f1)" height="103.3438" style="stroke: #A80036; stroke-width: 1.5;" width="252" x="242.5" y="326"/><ellipse cx="331.75" cy="342" fill="#B4A7E5" rx="11" ry="11" style="stroke: #A80036; stroke-width: 1.0;"/><path d="M332.7031,338.6406 L332.7031,345.2969 L334.4219,345.2969 Q335.0313,345.2969 335.2969,345.5313 Q335.5625,345.7656 335.5625,346.1563 Q335.5625,346.5313 335.2969,346.7656 Q335.0313,347 334.4219,347 L329.2813,347 Q328.6719,347 328.4063,346.7656 Q328.1406,346.5313 328.1406,346.1406 Q328.1406,345.7656 328.4063,345.5313 Q328.6719,345.2969 329.2813,345.2969 L331,345.2969 L331,338.6406 L329.2813,338.6406 Q328.6719,338.6406 328.4063,338.4063 Q328.1406,338.1719 328.1406,337.7813 Q328.1406,337.4063 328.4063,337.1719 Q328.6719,336.9375 329.2813,336.9375 L334.4219,336.9375 Q335.0313,336.9375 335.2969,337.1719 Q335.5625,337.4063 335.5625,337.7813 Q335.5625,338.1719 335.2969,338.4063 Q335.0313,338.6406 334.4219,338.6406 L332.7031,338.6406 Z "/><text fill="#000000" font-family="sans-serif" font-size="12" font-style="italic" lengthAdjust="spacingAndGlyphs" textLength="65" x="352.25" y="346.9102">DataSource</text><line style="stroke: #A80036; stroke-width: 1.5;" x1="243.5" x2="493.5" y1="358" y2="358"/><text fill="#000000" font-family="sans-serif" font-size="11" lengthAdjust="spacingAndGlyphs" textLength="45" x="248.5" y="373.4189">name: str</text><line style="stroke: #A80036; stroke-width: 1.5;" x1="243.5" x2="493.5" y1="379.8359" y2="379.8359"/><text fill="#000000" font-family="sans-serif" font-size="11" font-style="italic" lengthAdjust="spacingAndGlyphs" textLength="180" x="248.5" y="395.2549">get_dataset_schema(): cdm.Schema</text><text fill="#000000" font-family="sans-serif" font-size="11" font-style="italic" lengthAdjust="spacingAndGlyphs" textLength="240" x="248.5" y="409.0908">open_dataset(name, time_range): xarray.Dataset</text><text fill="#000000" font-family="sans-serif" font-size="11" font-style="italic" lengthAdjust="spacingAndGlyphs" textLength="86" x="248.5" y="422.9268">sync(time_range)</text><path d="M368.5,124.494 C368.5,135.816 368.5,147.462 368.5,158.353 " fill="none" style="stroke: #A80036; stroke-width: 1.0;"/><polygon fill="#A80036" points="368.5,171.662,372.5,162.662,368.5,166.662,364.5,162.662,368.5,171.662" style="stroke: #A80036; stroke-width: 1.0;"/><line style="stroke: #A80036; stroke-width: 1.0;" x1="368.5" x2="368.5" y1="166.662" y2="158.662"/><polygon fill="#FFFFFF" points="368.5,111.19,364.5,117.19,368.5,123.19,372.5,117.19,368.5,111.19" style="stroke: #A80036; stroke-width: 1.0;"/><text fill="#000000" font-family="sans-serif" font-size="13" lengthAdjust="spacingAndGlyphs" textLength="9" x="358.7266" y="161.2512">N</text><path d="M368.5,248.141 C368.5,269.584 368.5,296.969 368.5,320.932 " fill="none" style="stroke: #A80036; stroke-width: 1.0; stroke-dasharray: 7.0,7.0;"/><polygon fill="#A80036" points="368.5,325.99,372.5,316.99,368.5,320.99,364.5,316.99,368.5,325.99" style="stroke: #A80036; stroke-width: 1.0;"/><text fill="#000000" font-family="sans-serif" font-size="13" lengthAdjust="spacingAndGlyphs" textLength="56" x="369.5" y="292.4951">&lt;provide&gt;</text></g></svg>