<?xml version="1.0" encoding="UTF-8" standalone="yes"?><svg xmlns="http://www.w3.org/2000/svg" xmlns:xlink="http://www.w3.org/1999/xlink" height="592px" style="width:1181px;height:592px;" version="1.1" viewBox="0 0 1181 592" width="1181px"><defs><filter height="300%" id="f1" width="300%" x="-1" y="-1"><feGaussianBlur result="blurOut" stdDeviation="2.0"/><feColorMatrix in="blurOut" result="blurOut2" type="matrix" values="0 0 0 0 0 0 0 0 0 0 0 0 0 0 0 0 0 0 .4 0"/><feOffset dx="4.0" dy="4.0" in="blurOut2" result="blurOut3"/><feBlend in="SourceGraphic" in2="blurOut3" mode="normal"/></filter></defs><g><rect fill="#FEFECE" filter="url(#f1)" height="61.8359" style="stroke: #A80036; stroke-width: 1.5;" width="71" x="525" y="176"/><ellipse cx="540" cy="192" fill="#B4A7E5" rx="11" ry="11" style="stroke: #A80036; stroke-width: 1.0;"/><path d="M540.9531,188.6406 L540.9531,195.2969 L542.6719,195.2969 Q543.2813,195.2969 543.5469,195.5313 Q543.8125,195.7656 543.8125,196.1563 Q543.8125,196.5313 543.5469,196.7656 Q543.2813,197 542.6719,197 L537.5313,197 Q536.9219,197 536.6563,196.7656 Q536.3906,196.5313 536.3906,196.1406 Q536.3906,195.7656 536.6563,195.5313 Q536.9219,195.2969 537.5313,195.2969 L539.25,195.2969 L539.25,188.6406 L537.5313,188.6406 Q536.9219,188.6406 536.6563,188.4063 Q536.3906,188.1719 536.3906,187.7813 Q536.3906,187.4063 536.6563,187.1719 Q536.9219,186.9375 537.5313,186.9375 L542.6719,186.9375 Q543.2813,186.9375 543.5469,187.1719 Q543.8125,187.4063 543.8125,187.7813 Q543.8125,188.1719 543.5469,188.4063 Q543.2813,188.6406 542.6719,188.6406 L540.9531,188.6406 Z "/><text fill="#000000" font-family="sans-serif" font-size="12" font-style="italic" lengthAdjust="spacingAndGlyphs" textLength="39" x="554" y="196.9102">Source</text><line style="stroke: #A80036; stroke-width: 1.5;" x1="526" x2="595" y1="208" y2="208"/><line style="stroke: #A80036; stroke-width: 1.5;" x1="526" x2="595" y1="216" y2="216"/><text fill="#000000" font-family="sans-serif" font-size="11" font-style="italic" lengthAdjust="spacingAndGlyphs" textLength="55" x="531" y="231.4189">get_value()</text><rect fill="#FEFECE" filter="url(#f1)" height="61.8359" style="stroke: #A80036; stroke-width: 1.5;" width="93" x="6" y="176"/><ellipse cx="32.7" cy="192" fill="#B4A7E5" rx="11" ry="11" style="stroke: #A80036; stroke-width: 1.0;"/><path d="M33.6531,188.6406 L33.6531,195.2969 L35.3719,195.2969 Q35.9813,195.2969 36.2469,195.5313 Q36.5125,195.7656 36.5125,196.1563 Q36.5125,196.5313 36.2469,196.7656 Q35.9813,197 35.3719,197 L30.2313,197 Q29.6219,197 29.3563,196.7656 Q29.0906,196.5313 29.0906,196.1406 Q29.0906,195.7656 29.3563,195.5313 Q29.6219,195.2969 30.2313,195.2969 L31.95,195.2969 L31.95,188.6406 L30.2313,188.6406 Q29.6219,188.6406 29.3563,188.4063 Q29.0906,188.1719 29.0906,187.7813 Q29.0906,187.4063 29.3563,187.1719 Q29.6219,186.9375 30.2313,186.9375 L35.3719,186.9375 Q35.9813,186.9375 36.2469,187.1719 Q36.5125,187.4063 36.5125,187.7813 Q36.5125,188.1719 36.2469,188.4063 Q35.9813,188.6406 35.3719,188.6406 L33.6531,188.6406 Z "/><text fill="#000000" font-family="sans-serif" font-size="12" font-style="italic" lengthAdjust="spacingAndGlyphs" textLength="35" x="49.3" y="196.9102">Target</text><line style="stroke: #A80036; stroke-width: 1.5;" x1="7" x2="98" y1="208" y2="208"/><line style="stroke: #A80036; stroke-width: 1.5;" x1="7" x2="98" y1="216" y2="216"/><text fill="#000000" font-family="sans-serif" font-size="11" font-style="italic" lengthAdjust="spacingAndGlyphs" textLength="81" x="12" y="231.4189">set_value(value)</text><rect fill="#FEFECE" filter="url(#f1)" height="89.5078" style="stroke: #A80036; stroke-width: 1.5;" width="133" x="826" y="8"/><ellipse cx="852.25" cy="24" fill="#B4A7E5" rx="11" ry="11" style="stroke: #A80036; stroke-width: 1.0;"/><path d="M853.2031,20.6406 L853.2031,27.2969 L854.9219,27.2969 Q855.5313,27.2969 855.7969,27.5313 Q856.0625,27.7656 856.0625,28.1563 Q856.0625,28.5313 855.7969,28.7656 Q855.5313,29 854.9219,29 L849.7813,29 Q849.1719,29 848.9063,28.7656 Q848.6406,28.5313 848.6406,28.1406 Q848.6406,27.7656 848.9063,27.5313 Q849.1719,27.2969 849.7813,27.2969 L851.5,27.2969 L851.5,20.6406 L849.7813,20.6406 Q849.1719,20.6406 848.9063,20.4063 Q848.6406,20.1719 848.6406,19.7813 Q848.6406,19.4063 848.9063,19.1719 Q849.1719,18.9375 849.7813,18.9375 L854.9219,18.9375 Q855.5313,18.9375 855.7969,19.1719 Q856.0625,19.4063 856.0625,19.7813 Q856.0625,20.1719 855.7969,20.4063 Q855.5313,20.6406 854.9219,20.6406 L853.2031,20.6406 Z "/><text fill="#000000" font-family="sans-serif" font-size="12" font-style="italic" lengthAdjust="spacingAndGlyphs" textLength="76" x="868.75" y="28.9102">SourceHolder</text><line style="stroke: #A80036; stroke-width: 1.5;" x1="827" x2="958" y1="40" y2="40"/><text fill="#000000" font-family="sans-serif" font-size="11" font-style="italic" lengthAdjust="spacingAndGlyphs" textLength="75" x="832" y="55.4189">source: Source</text><line style="stroke: #A80036; stroke-width: 1.5;" x1="827" x2="958" y1="61.8359" y2="61.8359"/><text fill="#000000" font-family="sans-serif" font-size="11" font-style="italic" lengthAdjust="spacingAndGlyphs" textLength="121" x="832" y="77.2549">connect_source(source)</text><text fill="#000000" font-family="sans-serif" font-size="11" font-style="italic" lengthAdjust="spacingAndGlyphs" textLength="102" x="832" y="91.0908">disconnect_source()</text><rect fill="#FEFECE" filter="url(#f1)" height="75.6719" style="stroke: #A80036; stroke-width: 1.5;" width="121" x="380" y="312.5"/><ellipse cx="395" cy="328.5" fill="#ADD1B2" rx="11" ry="11" style="stroke: #A80036; stroke-width: 1.0;"/><path d="M397.7656,324.375 Q397.9219,324.1563 398.1094,324.0469 Q398.2969,323.9375 398.5156,323.9375 Q398.8906,323.9375 399.125,324.1953 Q399.3594,324.4531 399.3594,325.0625 L399.3594,326.5156 Q399.3594,327.125 399.125,327.3906 Q398.8906,327.6563 398.5156,327.6563 Q398.1719,327.6563 397.9688,327.4531 Q397.7656,327.2656 397.6563,326.75 Q397.6094,326.3906 397.4219,326.2031 Q397.0938,325.8281 396.4844,325.6094 Q395.875,325.3906 395.25,325.3906 Q394.4844,325.3906 393.8516,325.7188 Q393.2188,326.0469 392.7266,326.7969 Q392.2344,327.5469 392.2344,328.5781 L392.2344,329.6719 Q392.2344,330.9063 393.125,331.7266 Q394.0156,332.5469 395.6094,332.5469 Q396.5469,332.5469 397.2031,332.2969 Q397.5938,332.1406 398.0156,331.7031 Q398.2813,331.4375 398.4297,331.3594 Q398.5781,331.2813 398.7813,331.2813 Q399.1094,331.2813 399.3672,331.5391 Q399.625,331.7969 399.625,332.1406 Q399.625,332.4844 399.2813,332.8906 Q398.7813,333.4688 397.9844,333.7969 Q396.9063,334.25 395.6094,334.25 Q394.0938,334.25 392.8906,333.625 Q391.9063,333.125 391.2188,332.0547 Q390.5313,330.9844 390.5313,329.7031 L390.5313,328.5469 Q390.5313,327.2188 391.1484,326.0703 Q391.7656,324.9219 392.8594,324.3047 Q393.9531,323.6875 395.1875,323.6875 Q395.9219,323.6875 396.5703,323.8516 Q397.2188,324.0156 397.7656,324.375 Z "/><text fill="#000000" font-family="sans-serif" font-size="12" lengthAdjust="spacingAndGlyphs" textLength="89" x="409" y="333.4102">ConstantSource</text><line style="stroke: #A80036; stroke-width: 1.5;" x1="381" x2="500" y1="344.5" y2="344.5"/><text fill="#000000" font-family="sans-serif" font-size="11" lengthAdjust="spacingAndGlyphs" textLength="42" x="386" y="359.9189">constant</text><line style="stroke: #A80036; stroke-width: 1.5;" x1="381" x2="500" y1="366.3359" y2="366.3359"/><text fill="#000000" font-family="sans-serif" font-size="11" lengthAdjust="spacingAndGlyphs" textLength="55" x="386" y="381.7549">get_value()</text><rect fill="#FEFECE" filter="url(#f1)" height="89.5078" style="stroke: #A80036; stroke-width: 1.5;" width="115" x="78" y="305.5"/><ellipse cx="93" cy="321.5" fill="#ADD1B2" rx="11" ry="11" style="stroke: #A80036; stroke-width: 1.0;"/><path d="M95.7656,317.375 Q95.9219,317.1563 96.1094,317.0469 Q96.2969,316.9375 96.5156,316.9375 Q96.8906,316.9375 97.125,317.1953 Q97.3594,317.4531 97.3594,318.0625 L97.3594,319.5156 Q97.3594,320.125 97.125,320.3906 Q96.8906,320.6563 96.5156,320.6563 Q96.1719,320.6563 95.9688,320.4531 Q95.7656,320.2656 95.6563,319.75 Q95.6094,319.3906 95.4219,319.2031 Q95.0938,318.8281 94.4844,318.6094 Q93.875,318.3906 93.25,318.3906 Q92.4844,318.3906 91.8516,318.7188 Q91.2188,319.0469 90.7266,319.7969 Q90.2344,320.5469 90.2344,321.5781 L90.2344,322.6719 Q90.2344,323.9063 91.125,324.7266 Q92.0156,325.5469 93.6094,325.5469 Q94.5469,325.5469 95.2031,325.2969 Q95.5938,325.1406 96.0156,324.7031 Q96.2813,324.4375 96.4297,324.3594 Q96.5781,324.2813 96.7813,324.2813 Q97.1094,324.2813 97.3672,324.5391 Q97.625,324.7969 97.625,325.1406 Q97.625,325.4844 97.2813,325.8906 Q96.7813,326.4688 95.9844,326.7969 Q94.9063,327.25 93.6094,327.25 Q92.0938,327.25 90.8906,326.625 Q89.9063,326.125 89.2188,325.0547 Q88.5313,323.9844 88.5313,322.7031 L88.5313,321.5469 Q88.5313,320.2188 89.1484,319.0703 Q89.7656,317.9219 90.8594,317.3047 Q91.9531,316.6875 93.1875,316.6875 Q93.9219,316.6875 94.5703,316.8516 Q95.2188,317.0156 95.7656,317.375 Z "/><text fill="#000000" font-family="sans-serif" font-size="12" lengthAdjust="spacingAndGlyphs" textLength="83" x="107" y="326.4102">ExternalSource</text><line style="stroke: #A80036; stroke-width: 1.5;" x1="79" x2="192" y1="337.5" y2="337.5"/><text fill="#000000" font-family="sans-serif" font-size="11" lengthAdjust="spacingAndGlyphs" textLength="26" x="84" y="352.9189">value</text><line style="stroke: #A80036; stroke-width: 1.5;" x1="79" x2="192" y1="359.3359" y2="359.3359"/><text fill="#000000" font-family="sans-serif" font-size="11" lengthAdjust="spacingAndGlyphs" textLength="55" x="84" y="374.7549">get_value()</text><text fill="#000000" font-family="sans-serif" font-size="11" lengthAdjust="spacingAndGlyphs" textLength="81" x="84" y="388.5908">set_value(value)</text><rect fill="#FEFECE" filter="url(#f1)" height="61.8359" style="stroke: #A80036; stroke-width: 1.5;" width="112" x="607.5" y="319.5"/><ellipse cx="622.5" cy="335.5" fill="#ADD1B2" rx="11" ry="11" style="stroke: #A80036; stroke-width: 1.0;"/><path d="M625.2656,331.375 Q625.4219,331.1563 625.6094,331.0469 Q625.7969,330.9375 626.0156,330.9375 Q626.3906,330.9375 626.625,331.1953 Q626.8594,331.4531 626.8594,332.0625 L626.8594,333.5156 Q626.8594,334.125 626.625,334.3906 Q626.3906,334.6563 626.0156,334.6563 Q625.6719,334.6563 625.4688,334.4531 Q625.2656,334.2656 625.1563,333.75 Q625.1094,333.3906 624.9219,333.2031 Q624.5938,332.8281 623.9844,332.6094 Q623.375,332.3906 622.75,332.3906 Q621.9844,332.3906 621.3516,332.7188 Q620.7188,333.0469 620.2266,333.7969 Q619.7344,334.5469 619.7344,335.5781 L619.7344,336.6719 Q619.7344,337.9063 620.625,338.7266 Q621.5156,339.5469 623.1094,339.5469 Q624.0469,339.5469 624.7031,339.2969 Q625.0938,339.1406 625.5156,338.7031 Q625.7813,338.4375 625.9297,338.3594 Q626.0781,338.2813 626.2813,338.2813 Q626.6094,338.2813 626.8672,338.5391 Q627.125,338.7969 627.125,339.1406 Q627.125,339.4844 626.7813,339.8906 Q626.2813,340.4688 625.4844,340.7969 Q624.4063,341.25 623.1094,341.25 Q621.5938,341.25 620.3906,340.625 Q619.4063,340.125 618.7188,339.0547 Q618.0313,337.9844 618.0313,336.7031 L618.0313,335.5469 Q618.0313,334.2188 618.6484,333.0703 Q619.2656,331.9219 620.3594,331.3047 Q621.4531,330.6875 622.6875,330.6875 Q623.4219,330.6875 624.0703,330.8516 Q624.7188,331.0156 625.2656,331.375 Z "/><text fill="#000000" font-family="sans-serif" font-size="12" lengthAdjust="spacingAndGlyphs" textLength="80" x="636.5" y="340.4102">GraphInputRef</text><line style="stroke: #A80036; stroke-width: 1.5;" x1="608.5" x2="718.5" y1="351.5" y2="351.5"/><line style="stroke: #A80036; stroke-width: 1.5;" x1="608.5" x2="718.5" y1="359.5" y2="359.5"/><text fill="#000000" font-family="sans-serif" font-size="11" lengthAdjust="spacingAndGlyphs" textLength="55" x="613.5" y="374.9189">get_value()</text><rect fill="#FEFECE" filter="url(#f1)" height="61.8359" style="stroke: #A80036; stroke-width: 1.5;" width="117" x="228" y="319.5"/><ellipse cx="243" cy="335.5" fill="#ADD1B2" rx="11" ry="11" style="stroke: #A80036; stroke-width: 1.0;"/><path d="M245.7656,331.375 Q245.9219,331.1563 246.1094,331.0469 Q246.2969,330.9375 246.5156,330.9375 Q246.8906,330.9375 247.125,331.1953 Q247.3594,331.4531 247.3594,332.0625 L247.3594,333.5156 Q247.3594,334.125 247.125,334.3906 Q246.8906,334.6563 246.5156,334.6563 Q246.1719,334.6563 245.9688,334.4531 Q245.7656,334.2656 245.6563,333.75 Q245.6094,333.3906 245.4219,333.2031 Q245.0938,332.8281 244.4844,332.6094 Q243.875,332.3906 243.25,332.3906 Q242.4844,332.3906 241.8516,332.7188 Q241.2188,333.0469 240.7266,333.7969 Q240.2344,334.5469 240.2344,335.5781 L240.2344,336.6719 Q240.2344,337.9063 241.125,338.7266 Q242.0156,339.5469 243.6094,339.5469 Q244.5469,339.5469 245.2031,339.2969 Q245.5938,339.1406 246.0156,338.7031 Q246.2813,338.4375 246.4297,338.3594 Q246.5781,338.2813 246.7813,338.2813 Q247.1094,338.2813 247.3672,338.5391 Q247.625,338.7969 247.625,339.1406 Q247.625,339.4844 247.2813,339.8906 Q246.7813,340.4688 245.9844,340.7969 Q244.9063,341.25 243.6094,341.25 Q242.0938,341.25 240.8906,340.625 Q239.9063,340.125 239.2188,339.0547 Q238.5313,337.9844 238.5313,336.7031 L238.5313,335.5469 Q238.5313,334.2188 239.1484,333.0703 Q239.7656,331.9219 240.8594,331.3047 Q241.9531,330.6875 243.1875,330.6875 Q243.9219,330.6875 244.5703,330.8516 Q245.2188,331.0156 245.7656,331.375 Z "/><text fill="#000000" font-family="sans-serif" font-size="12" lengthAdjust="spacingAndGlyphs" textLength="85" x="257" y="340.4102">NodeOutputRef</text><line style="stroke: #A80036; stroke-width: 1.5;" x1="229" x2="344" y1="351.5" y2="351.5"/><line style="stroke: #A80036; stroke-width: 1.5;" x1="229" x2="344" y1="359.5" y2="359.5"/><text fill="#000000" font-family="sans-serif" font-size="11" lengthAdjust="spacingAndGlyphs" textLength="55" x="234" y="374.9189">get_value()</text><rect fill="#FEFECE" filter="url(#f1)" height="48" style="stroke: #A80036; stroke-width: 1.5;" width="78" x="747.5" y="183"/><ellipse cx="762.5" cy="199" fill="#ADD1B2" rx="11" ry="11" style="stroke: #A80036; stroke-width: 1.0;"/><path d="M765.2656,194.875 Q765.4219,194.6563 765.6094,194.5469 Q765.7969,194.4375 766.0156,194.4375 Q766.3906,194.4375 766.625,194.6953 Q766.8594,194.9531 766.8594,195.5625 L766.8594,197.0156 Q766.8594,197.625 766.625,197.8906 Q766.3906,198.1563 766.0156,198.1563 Q765.6719,198.1563 765.4688,197.9531 Q765.2656,197.7656 765.1563,197.25 Q765.1094,196.8906 764.9219,196.7031 Q764.5938,196.3281 763.9844,196.1094 Q763.375,195.8906 762.75,195.8906 Q761.9844,195.8906 761.3516,196.2188 Q760.7188,196.5469 760.2266,197.2969 Q759.7344,198.0469 759.7344,199.0781 L759.7344,200.1719 Q759.7344,201.4063 760.625,202.2266 Q761.5156,203.0469 763.1094,203.0469 Q764.0469,203.0469 764.7031,202.7969 Q765.0938,202.6406 765.5156,202.2031 Q765.7813,201.9375 765.9297,201.8594 Q766.0781,201.7813 766.2813,201.7813 Q766.6094,201.7813 766.8672,202.0391 Q767.125,202.2969 767.125,202.6406 Q767.125,202.9844 766.7813,203.3906 Q766.2813,203.9688 765.4844,204.2969 Q764.4063,204.75 763.1094,204.75 Q761.5938,204.75 760.3906,204.125 Q759.4063,203.625 758.7188,202.5547 Q758.0313,201.4844 758.0313,200.2031 L758.0313,199.0469 Q758.0313,197.7188 758.6484,196.5703 Q759.2656,195.4219 760.3594,194.8047 Q761.4531,194.1875 762.6875,194.1875 Q763.4219,194.1875 764.0703,194.3516 Q764.7188,194.5156 765.2656,194.875 Z "/><text fill="#000000" font-family="sans-serif" font-size="12" lengthAdjust="spacingAndGlyphs" textLength="46" x="776.5" y="203.9102">OpNode</text><line style="stroke: #A80036; stroke-width: 1.5;" x1="748.5" x2="824.5" y1="215" y2="215"/><line style="stroke: #A80036; stroke-width: 1.5;" x1="748.5" x2="824.5" y1="223" y2="223"/><rect fill="#FEFECE" filter="url(#f1)" height="103.3438" style="stroke: #A80036; stroke-width: 1.5;" width="133" x="826" y="299"/><ellipse cx="860.8" cy="315" fill="#ADD1B2" rx="11" ry="11" style="stroke: #A80036; stroke-width: 1.0;"/><path d="M863.5656,310.875 Q863.7219,310.6563 863.9094,310.5469 Q864.0969,310.4375 864.3156,310.4375 Q864.6906,310.4375 864.925,310.6953 Q865.1594,310.9531 865.1594,311.5625 L865.1594,313.0156 Q865.1594,313.625 864.925,313.8906 Q864.6906,314.1563 864.3156,314.1563 Q863.9719,314.1563 863.7688,313.9531 Q863.5656,313.7656 863.4563,313.25 Q863.4094,312.8906 863.2219,312.7031 Q862.8938,312.3281 862.2844,312.1094 Q861.675,311.8906 861.05,311.8906 Q860.2844,311.8906 859.6516,312.2188 Q859.0188,312.5469 858.5266,313.2969 Q858.0344,314.0469 858.0344,315.0781 L858.0344,316.1719 Q858.0344,317.4063 858.925,318.2266 Q859.8156,319.0469 861.4094,319.0469 Q862.3469,319.0469 863.0031,318.7969 Q863.3938,318.6406 863.8156,318.2031 Q864.0813,317.9375 864.2297,317.8594 Q864.3781,317.7813 864.5813,317.7813 Q864.9094,317.7813 865.1672,318.0391 Q865.425,318.2969 865.425,318.6406 Q865.425,318.9844 865.0813,319.3906 Q864.5813,319.9688 863.7844,320.2969 Q862.7063,320.75 861.4094,320.75 Q859.8938,320.75 858.6906,320.125 Q857.7063,319.625 857.0188,318.5547 Q856.3313,317.4844 856.3313,316.2031 L856.3313,315.0469 Q856.3313,313.7188 856.9484,312.5703 Q857.5656,311.4219 858.6594,310.8047 Q859.7531,310.1875 860.9875,310.1875 Q861.7219,310.1875 862.3703,310.3516 Q863.0188,310.5156 863.5656,310.875 Z "/><text fill="#000000" font-family="sans-serif" font-size="12" lengthAdjust="spacingAndGlyphs" textLength="57" x="879.2" y="319.9102">NodeInput</text><line style="stroke: #A80036; stroke-width: 1.5;" x1="827" x2="958" y1="331" y2="331"/><text fill="#000000" font-family="sans-serif" font-size="11" lengthAdjust="spacingAndGlyphs" textLength="45" x="832" y="346.4189">name: str</text><line style="stroke: #A80036; stroke-width: 1.5;" x1="827" x2="958" y1="352.8359" y2="352.8359"/><text fill="#000000" font-family="sans-serif" font-size="11" lengthAdjust="spacingAndGlyphs" textLength="55" x="832" y="368.2549">get_value()</text><text fill="#000000" font-family="sans-serif" font-size="11" lengthAdjust="spacingAndGlyphs" textLength="121" x="832" y="382.0908">connect_source(source)</text><text fill="#000000" font-family="sans-serif" font-size="11" lengthAdjust="spacingAndGlyphs" textLength="101" x="832" y="395.9268">disconnect_source()</text><rect fill="#FEFECE" filter="url(#f1)" height="103.3438" style="stroke: #A80036; stroke-width: 1.5;" width="98" x="414.5" y="480"/><ellipse cx="429.5" cy="496" fill="#ADD1B2" rx="11" ry="11" style="stroke: #A80036; stroke-width: 1.0;"/><path d="M432.2656,491.875 Q432.4219,491.6563 432.6094,491.5469 Q432.7969,491.4375 433.0156,491.4375 Q433.3906,491.4375 433.625,491.6953 Q433.8594,491.9531 433.8594,492.5625 L433.8594,494.0156 Q433.8594,494.625 433.625,494.8906 Q433.3906,495.1563 433.0156,495.1563 Q432.6719,495.1563 432.4688,494.9531 Q432.2656,494.7656 432.1563,494.25 Q432.1094,493.8906 431.9219,493.7031 Q431.5938,493.3281 430.9844,493.1094 Q430.375,492.8906 429.75,492.8906 Q428.9844,492.8906 428.3516,493.2188 Q427.7188,493.5469 427.2266,494.2969 Q426.7344,495.0469 426.7344,496.0781 L426.7344,497.1719 Q426.7344,498.4063 427.625,499.2266 Q428.5156,500.0469 430.1094,500.0469 Q431.0469,500.0469 431.7031,499.7969 Q432.0938,499.6406 432.5156,499.2031 Q432.7813,498.9375 432.9297,498.8594 Q433.0781,498.7813 433.2813,498.7813 Q433.6094,498.7813 433.8672,499.0391 Q434.125,499.2969 434.125,499.6406 Q434.125,499.9844 433.7813,500.3906 Q433.2813,500.9688 432.4844,501.2969 Q431.4063,501.75 430.1094,501.75 Q428.5938,501.75 427.3906,501.125 Q426.4063,500.625 425.7188,499.5547 Q425.0313,498.4844 425.0313,497.2031 L425.0313,496.0469 Q425.0313,494.7188 425.6484,493.5703 Q426.2656,492.4219 427.3594,491.8047 Q428.4531,491.1875 429.6875,491.1875 Q430.4219,491.1875 431.0703,491.3516 Q431.7188,491.5156 432.2656,491.875 Z "/><text fill="#000000" font-family="sans-serif" font-size="12" lengthAdjust="spacingAndGlyphs" textLength="66" x="443.5" y="500.9102">NodeOutput</text><line style="stroke: #A80036; stroke-width: 1.5;" x1="415.5" x2="511.5" y1="512" y2="512"/><text fill="#000000" font-family="sans-serif" font-size="11" lengthAdjust="spacingAndGlyphs" textLength="45" x="420.5" y="527.4189">name: str</text><text fill="#000000" font-family="sans-serif" font-size="11" lengthAdjust="spacingAndGlyphs" textLength="61" x="420.5" y="541.2549">value: object</text><line style="stroke: #A80036; stroke-width: 1.5;" x1="415.5" x2="511.5" y1="547.6719" y2="547.6719"/><text fill="#000000" font-family="sans-serif" font-size="11" lengthAdjust="spacingAndGlyphs" textLength="55" x="420.5" y="563.0908">get_value()</text><text fill="#000000" font-family="sans-serif" font-size="11" lengthAdjust="spacingAndGlyphs" textLength="81" x="420.5" y="576.9268">set_value(value)</text><rect fill="#FEFECE" filter="url(#f1)" height="48" style="stroke: #A80036; stroke-width: 1.5;" width="66" x="1106.5" y="183"/><ellipse cx="1121.5" cy="199" fill="#ADD1B2" rx="11" ry="11" style="stroke: #A80036; stroke-width: 1.0;"/><path d="M1124.2656,194.875 Q1124.4219,194.6563 1124.6094,194.5469 Q1124.7969,194.4375 1125.0156,194.4375 Q1125.3906,194.4375 1125.625,194.6953 Q1125.8594,194.9531 1125.8594,195.5625 L1125.8594,197.0156 Q1125.8594,197.625 1125.625,197.8906 Q1125.3906,198.1563 1125.0156,198.1563 Q1124.6719,198.1563 1124.4688,197.9531 Q1124.2656,197.7656 1124.1563,197.25 Q1124.1094,196.8906 1123.9219,196.7031 Q1123.5938,196.3281 1122.9844,196.1094 Q1122.375,195.8906 1121.75,195.8906 Q1120.9844,195.8906 1120.3516,196.2188 Q1119.7188,196.5469 1119.2266,197.2969 Q1118.7344,198.0469 1118.7344,199.0781 L1118.7344,200.1719 Q1118.7344,201.4063 1119.625,202.2266 Q1120.5156,203.0469 1122.1094,203.0469 Q1123.0469,203.0469 1123.7031,202.7969 Q1124.0938,202.6406 1124.5156,202.2031 Q1124.7813,201.9375 1124.9297,201.8594 Q1125.0781,201.7813 1125.2813,201.7813 Q1125.6094,201.7813 1125.8672,202.0391 Q1126.125,202.2969 1126.125,202.6406 Q1126.125,202.9844 1125.7813,203.3906 Q1125.2813,203.9688 1124.4844,204.2969 Q1123.4063,204.75 1122.1094,204.75 Q1120.5938,204.75 1119.3906,204.125 Q1118.4063,203.625 1117.7188,202.5547 Q1117.0313,201.4844 1117.0313,200.2031 L1117.0313,199.0469 Q1117.0313,197.7188 1117.6484,196.5703 Q1118.2656,195.4219 1119.3594,194.8047 Q1120.4531,194.1875 1121.6875,194.1875 Q1122.4219,194.1875 1123.0703,194.3516 Q1123.7188,194.5156 1124.2656,194.875 Z "/><text fill="#000000" font-family="sans-serif" font-size="12" lengthAdjust="spacingAndGlyphs" textLength="34" x="1135.5" y="203.9102">Graph</text><line style="stroke: #A80036; stroke-width: 1.5;" x1="1107.5" x2="1171.5" y1="215" y2="215"/><line style="stroke: #A80036; stroke-width: 1.5;" x1="1107.5" x2="1171.5" y1="223" y2="223"/><rect fill="#FEFECE" filter="url(#f1)" height="48" style="stroke: #A80036; stroke-width: 1.5;" width="93" x="846" y="507.5"/><ellipse cx="861" cy="523.5" fill="#ADD1B2" rx="11" ry="11" style="stroke: #A80036; stroke-width: 1.0;"/><path d="M863.7656,519.375 Q863.9219,519.1563 864.1094,519.0469 Q864.2969,518.9375 864.5156,518.9375 Q864.8906,518.9375 865.125,519.1953 Q865.3594,519.4531 865.3594,520.0625 L865.3594,521.5156 Q865.3594,522.125 865.125,522.3906 Q864.8906,522.6563 864.5156,522.6563 Q864.1719,522.6563 863.9688,522.4531 Q863.7656,522.2656 863.6563,521.75 Q863.6094,521.3906 863.4219,521.2031 Q863.0938,520.8281 862.4844,520.6094 Q861.875,520.3906 861.25,520.3906 Q860.4844,520.3906 859.8516,520.7188 Q859.2188,521.0469 858.7266,521.7969 Q858.2344,522.5469 858.2344,523.5781 L858.2344,524.6719 Q858.2344,525.9063 859.125,526.7266 Q860.0156,527.5469 861.6094,527.5469 Q862.5469,527.5469 863.2031,527.2969 Q863.5938,527.1406 864.0156,526.7031 Q864.2813,526.4375 864.4297,526.3594 Q864.5781,526.2813 864.7813,526.2813 Q865.1094,526.2813 865.3672,526.5391 Q865.625,526.7969 865.625,527.1406 Q865.625,527.4844 865.2813,527.8906 Q864.7813,528.4688 863.9844,528.7969 Q862.9063,529.25 861.6094,529.25 Q860.0938,529.25 858.8906,528.625 Q857.9063,528.125 857.2188,527.0547 Q856.5313,525.9844 856.5313,524.7031 L856.5313,523.5469 Q856.5313,522.2188 857.1484,521.0703 Q857.7656,519.9219 858.8594,519.3047 Q859.9531,518.6875 861.1875,518.6875 Q861.9219,518.6875 862.5703,518.8516 Q863.2188,519.0156 863.7656,519.375 Z "/><text fill="#000000" font-family="sans-serif" font-size="12" lengthAdjust="spacingAndGlyphs" textLength="61" x="875" y="528.4102">GraphInput</text><line style="stroke: #A80036; stroke-width: 1.5;" x1="847" x2="938" y1="539.5" y2="539.5"/><line style="stroke: #A80036; stroke-width: 1.5;" x1="847" x2="938" y1="547.5" y2="547.5"/><rect fill="#FEFECE" filter="url(#f1)" height="103.3438" style="stroke: #A80036; stroke-width: 1.5;" width="133" x="994" y="299"/><ellipse cx="1022.95" cy="315" fill="#ADD1B2" rx="11" ry="11" style="stroke: #A80036; stroke-width: 1.0;"/><path d="M1025.7156,310.875 Q1025.8719,310.6563 1026.0594,310.5469 Q1026.2469,310.4375 1026.4656,310.4375 Q1026.8406,310.4375 1027.075,310.6953 Q1027.3094,310.9531 1027.3094,311.5625 L1027.3094,313.0156 Q1027.3094,313.625 1027.075,313.8906 Q1026.8406,314.1563 1026.4656,314.1563 Q1026.1219,314.1563 1025.9188,313.9531 Q1025.7156,313.7656 1025.6063,313.25 Q1025.5594,312.8906 1025.3719,312.7031 Q1025.0438,312.3281 1024.4344,312.1094 Q1023.825,311.8906 1023.2,311.8906 Q1022.4344,311.8906 1021.8016,312.2188 Q1021.1688,312.5469 1020.6766,313.2969 Q1020.1844,314.0469 1020.1844,315.0781 L1020.1844,316.1719 Q1020.1844,317.4063 1021.075,318.2266 Q1021.9656,319.0469 1023.5594,319.0469 Q1024.4969,319.0469 1025.1531,318.7969 Q1025.5438,318.6406 1025.9656,318.2031 Q1026.2313,317.9375 1026.3797,317.8594 Q1026.5281,317.7813 1026.7313,317.7813 Q1027.0594,317.7813 1027.3172,318.0391 Q1027.575,318.2969 1027.575,318.6406 Q1027.575,318.9844 1027.2313,319.3906 Q1026.7313,319.9688 1025.9344,320.2969 Q1024.8563,320.75 1023.5594,320.75 Q1022.0438,320.75 1020.8406,320.125 Q1019.8563,319.625 1019.1688,318.5547 Q1018.4813,317.4844 1018.4813,316.2031 L1018.4813,315.0469 Q1018.4813,313.7188 1019.0984,312.5703 Q1019.7156,311.4219 1020.8094,310.8047 Q1021.9031,310.1875 1023.1375,310.1875 Q1023.8719,310.1875 1024.5203,310.3516 Q1025.1688,310.5156 1025.7156,310.875 Z "/><text fill="#000000" font-family="sans-serif" font-size="12" lengthAdjust="spacingAndGlyphs" textLength="70" x="1040.05" y="319.9102">GraphOutput</text><line style="stroke: #A80036; stroke-width: 1.5;" x1="995" x2="1126" y1="331" y2="331"/><text fill="#000000" font-family="sans-serif" font-size="11" lengthAdjust="spacingAndGlyphs" textLength="45" x="1000" y="346.4189">name: str</text><line style="stroke: #A80036; stroke-width: 1.5;" x1="995" x2="1126" y1="352.8359" y2="352.8359"/><text fill="#000000" font-family="sans-serif" font-size="11" lengthAdjust="spacingAndGlyphs" textLength="55" x="1000" y="368.2549">get_value()</text><text fill="#000000" font-family="sans-serif" font-size="11" lengthAdjust="spacingAndGlyphs" textLength="121" x="1000" y="382.0908">connect_source(source)</text><text fill="#000000" font-family="sans-serif" font-size="11" lengthAdjust="spacingAndGlyphs" textLength="101" x="1000" y="395.9268">disconnect_source()</text><path d="M521.885,253.534 C505.728,272.586 487.19,294.445 471.891,312.484 " fill="none" style="stroke: #A80036; stroke-width: 1.0; stroke-dasharray: 7.0,7.0;"/><polygon fill="none" points="516.777,248.734,535.051,238.009,527.454,257.789,516.777,248.734" style="stroke: #A80036; stroke-width: 1.0;"/><path d="M504.769,216.494 C434.028,228.607 309.316,254.458 210.5,299 C204.776,301.58 199.009,304.587 193.353,307.824 " fill="none" style="stroke: #A80036; stroke-width: 1.0; stroke-dasharray: 7.0,7.0;"/><polygon fill="none" points="504.029,209.522,524.902,213.171,506.309,223.335,504.029,209.522" style="stroke: #A80036; stroke-width: 1.0;"/><path d="M80.3679,255.51 C89.8015,271.592 100.2922,289.477 109.569,305.292 " fill="none" style="stroke: #A80036; stroke-width: 1.0; stroke-dasharray: 7.0,7.0;"/><polygon fill="none" points="74.1834,258.801,70.1022,238.009,86.2592,251.718,74.1834,258.801" style="stroke: #A80036; stroke-width: 1.0;"/><path d="M594.344,254.494 C609.785,275.707 627.635,300.23 641.333,319.047 " fill="none" style="stroke: #A80036; stroke-width: 1.0; stroke-dasharray: 7.0,7.0;"/><polygon fill="none" points="588.454,258.298,582.344,238.009,599.773,250.059,588.454,258.298" style="stroke: #A80036; stroke-width: 1.0;"/><path d="M506.514,230.108 C466.062,247.317 409.779,272.638 362.5,299 C351.431,305.172 339.858,312.418 329.178,319.464 " fill="none" style="stroke: #A80036; stroke-width: 1.0; stroke-dasharray: 7.0,7.0;"/><polygon fill="none" points="503.842,223.638,524.992,222.343,509.266,236.545,503.842,223.638" style="stroke: #A80036; stroke-width: 1.0;"/><path d="M614.069,236.489 C634.893,247.171 659.09,259.108 681.5,269 C729.025,289.979 783.879,310.807 825.743,326.019 " fill="none" style="stroke: #A80036; stroke-width: 1.0; stroke-dasharray: 7.0,7.0;"/><polygon fill="none" points="610.565,242.557,596.042,227.127,617.017,230.133,610.565,242.557" style="stroke: #A80036; stroke-width: 1.0;"/><path d="M892.5,118.513 C892.5,172.645 892.5,248.902 892.5,298.755 " fill="none" style="stroke: #A80036; stroke-width: 1.0; stroke-dasharray: 7.0,7.0;"/><polygon fill="none" points="885.5,118.239,892.5,98.239,899.5,118.239,885.5,118.239" style="stroke: #A80036; stroke-width: 1.0;"/><path d="M552.415,257.875 C545.35,297.471 533.824,353.967 518.5,402 C510.129,428.24 498.37,456.471 487.872,479.77 " fill="none" style="stroke: #A80036; stroke-width: 1.0; stroke-dasharray: 7.0,7.0;"/><polygon fill="none" points="545.537,256.565,555.832,238.044,559.334,258.942,545.537,256.565" style="stroke: #A80036; stroke-width: 1.0;"/><path d="M39.9786,257.998 C32.4238,300.631 29.4549,361.304 60.5,402 C104.0936,459.146 316.649,504.0311 414.284,521.9933 " fill="none" style="stroke: #A80036; stroke-width: 1.0; stroke-dasharray: 7.0,7.0;"/><polygon fill="none" points="33.1806,256.302,44.0584,238.118,46.8948,259.117,33.1806,256.302" style="stroke: #A80036; stroke-width: 1.0;"/><path d="M892.5,422.558 C892.5,452.731 892.5,485.8264 892.5,507.311 " fill="none" style="stroke: #A80036; stroke-width: 1.0;"/><polygon fill="none" points="885.5,422.315,892.5,402.315,899.5,422.315,885.5,422.315" style="stroke: #A80036; stroke-width: 1.0;"/><path d="M615.737,217.774 C713.098,235.383 911.134,273.019 976.5,299 C982.193,301.263 987.945,303.888 993.628,306.728 " fill="none" style="stroke: #A80036; stroke-width: 1.0; stroke-dasharray: 7.0,7.0;"/><polygon fill="none" points="614.472,224.659,596.024,214.234,616.947,210.879,614.472,224.659" style="stroke: #A80036; stroke-width: 1.0;"/><path d="M927.555,115.66 C958.414,169.937 1002.805,248.019 1031.65,298.755 " fill="none" style="stroke: #A80036; stroke-width: 1.0; stroke-dasharray: 7.0,7.0;"/><polygon fill="none" points="921.451,119.086,917.651,98.239,933.621,112.166,921.451,119.086" style="stroke: #A80036; stroke-width: 1.0;"/><path d="M702.088,381.662 C746.048,416.024 817.179,471.625 858.932,504.2616 " fill="none" style="stroke: #A80036; stroke-width: 1.0;"/><polygon fill="#A80036" points="862.879,507.3468,858.2525,498.6522,858.94,504.2671,853.3251,504.9546,862.879,507.3468" style="stroke: #A80036; stroke-width: 1.0;"/><text fill="#000000" font-family="sans-serif" font-size="13" lengthAdjust="spacingAndGlyphs" textLength="67" x="786.5" y="446.4951">graph_input</text><path d="M316.526,381.865 C342.21,407.84 379.789,445.843 410.518,476.92 " fill="none" style="stroke: #A80036; stroke-width: 1.0;"/><polygon fill="#A80036" points="414.231,480.674,410.7457,471.4625,410.7148,477.1192,405.058,477.0884,414.231,480.674" style="stroke: #A80036; stroke-width: 1.0;"/><text fill="#000000" font-family="sans-serif" font-size="13" lengthAdjust="spacingAndGlyphs" textLength="71" x="381.5" y="446.4951">node_output</text><path d="M825.714,84.577 C758.49,115.354 656.977,161.83 601.048,187.436 " fill="none" style="stroke: #A80036; stroke-width: 1.0;"/><polygon fill="#A80036" points="596.441,189.545,606.2893,189.4362,600.9873,187.4639,602.9596,182.162,596.441,189.545" style="stroke: #A80036; stroke-width: 1.0;"/><text fill="#000000" font-family="sans-serif" font-size="13" lengthAdjust="spacingAndGlyphs" textLength="39" x="727.5" y="142.4951">source</text><path d="M811.698,241.637 C824.503,258.73 840.328,279.855 854.57,298.866 " fill="none" style="stroke: #A80036; stroke-width: 1.0;"/><polygon fill="#FFFFFF" points="803.767,231.049,804.163,238.2492,810.9617,240.653,810.5657,233.4527,803.767,231.049" style="stroke: #A80036; stroke-width: 1.0;"/><text fill="#000000" font-family="sans-serif" font-size="13" lengthAdjust="spacingAndGlyphs" textLength="7" x="800.1227" y="252.3989">1</text><text fill="#000000" font-family="sans-serif" font-size="13" lengthAdjust="spacingAndGlyphs" textLength="24" x="823.5486" y="287.9756">0..N</text><path d="M792.28,244.559 C798.331,296.798 800.929,392.792 750.5,450 C719.189,485.5201 585.985,511.3932 512.564,523.2606 " fill="none" style="stroke: #A80036; stroke-width: 1.0;"/><polygon fill="#FFFFFF" points="790.567,231.357,787.3724,237.8219,792.1112,243.2572,795.3059,236.7924,790.567,231.357" style="stroke: #A80036; stroke-width: 1.0;"/><text fill="#000000" font-family="sans-serif" font-size="13" lengthAdjust="spacingAndGlyphs" textLength="7" x="783.6981" y="252.3753">1</text><text fill="#000000" font-family="sans-serif" font-size="13" lengthAdjust="spacingAndGlyphs" textLength="24" x="520.3878" y="518.6755">0..N</text><path d="M1151.36,243.958 C1162.68,285.331 1174.05,353.756 1144.5,402 C1099.74,475.075 998.91,508.2338 939.249,521.9401 " fill="none" style="stroke: #A80036; stroke-width: 1.0;"/><polygon fill="#FFFFFF" points="1147.66,231.285,1145.5034,238.1661,1151.0258,242.8033,1153.1823,235.9222,1147.66,231.285" style="stroke: #A80036; stroke-width: 1.0;"/><text fill="#000000" font-family="sans-serif" font-size="13" lengthAdjust="spacingAndGlyphs" textLength="7" x="1141.7959" y="252.6924">1</text><text fill="#000000" font-family="sans-serif" font-size="13" lengthAdjust="spacingAndGlyphs" textLength="24" x="947.1434" y="517.0992">0..N</text><path d="M1120.17,242.618 C1110.73,259.534 1099.18,280.217 1088.77,298.866 " fill="none" style="stroke: #A80036; stroke-width: 1.0;"/><polygon fill="#FFFFFF" points="1126.63,231.049,1120.2134,234.3395,1120.7828,241.5281,1127.1994,238.2376,1126.63,231.049" style="stroke: #A80036; stroke-width: 1.0;"/><text fill="#000000" font-family="sans-serif" font-size="13" lengthAdjust="spacingAndGlyphs" textLength="7" x="1115.6398" y="252.3989">1</text><text fill="#000000" font-family="sans-serif" font-size="13" lengthAdjust="spacingAndGlyphs" textLength="24" x="1067.058" y="287.9756">0..N</text></g></svg>