<?xml version="1.0" encoding="UTF-8" standalone="yes"?><svg xmlns="http://www.w3.org/2000/svg" xmlns:xlink="http://www.w3.org/1999/xlink" height="840px" style="width:472px;height:840px;" version="1.1" viewBox="0 0 472 840" width="472px"><defs><filter height="300%" id="f1" width="300%" x="-1" y="-1"><feGaussianBlur result="blurOut" stdDeviation="2.0"/><feColorMatrix in="blurOut" result="blurOut2" type="matrix" values="0 0 0 0 0 0 0 0 0 0 0 0 0 0 0 0 0 0 .4 0"/><feOffset dx="4.0" dy="4.0" in="blurOut2" result="blurOut3"/><feBlend in="SourceGraphic" in2="blurOut3" mode="normal"/></filter></defs><g><polygon fill="#FFFFFF" filter="url(#f1)" points="22,678,46,678,53,701.6094,311,701.6094,311,833,22,833,22,678" style="stroke: #000000; stroke-width: 2.0;"/><line style="stroke: #000000; stroke-width: 2.0;" x1="22" x2="53" y1="701.6094" y2="701.6094"/><text fill="#000000" font-family="sans-serif" font-size="14" font-weight="bold" lengthAdjust="spacingAndGlyphs" textLength="18" x="26" y="694.5332">op</text><rect fill="#FEFECE" filter="url(#f1)" height="103.3438" style="stroke: #A80036; stroke-width: 1.5;" width="106" x="38" y="714"/><ellipse cx="58.4" cy="730" fill="#ADD1B2" rx="11" ry="11" style="stroke: #A80036; stroke-width: 1.0;"/><path d="M61.1656,725.875 Q61.3219,725.6563 61.5094,725.5469 Q61.6969,725.4375 61.9156,725.4375 Q62.2906,725.4375 62.525,725.6953 Q62.7594,725.9531 62.7594,726.5625 L62.7594,728.0156 Q62.7594,728.625 62.525,728.8906 Q62.2906,729.1563 61.9156,729.1563 Q61.5719,729.1563 61.3688,728.9531 Q61.1656,728.7656 61.0563,728.25 Q61.0094,727.8906 60.8219,727.7031 Q60.4938,727.3281 59.8844,727.1094 Q59.275,726.8906 58.65,726.8906 Q57.8844,726.8906 57.2516,727.2188 Q56.6188,727.5469 56.1266,728.2969 Q55.6344,729.0469 55.6344,730.0781 L55.6344,731.1719 Q55.6344,732.4063 56.525,733.2266 Q57.4156,734.0469 59.0094,734.0469 Q59.9469,734.0469 60.6031,733.7969 Q60.9938,733.6406 61.4156,733.2031 Q61.6813,732.9375 61.8297,732.8594 Q61.9781,732.7813 62.1813,732.7813 Q62.5094,732.7813 62.7672,733.0391 Q63.025,733.2969 63.025,733.6406 Q63.025,733.9844 62.6813,734.3906 Q62.1813,734.9688 61.3844,735.2969 Q60.3063,735.75 59.0094,735.75 Q57.4938,735.75 56.2906,735.125 Q55.3063,734.625 54.6188,733.5547 Q53.9313,732.4844 53.9313,731.2031 L53.9313,730.0469 Q53.9313,728.7188 54.5484,727.5703 Q55.1656,726.4219 56.2594,725.8047 Q57.3531,725.1875 58.5875,725.1875 Q59.3219,725.1875 59.9703,725.3516 Q60.6188,725.5156 61.1656,725.875 Z "/><text fill="#000000" font-family="sans-serif" font-size="12" lengthAdjust="spacingAndGlyphs" textLength="62" x="73.6" y="734.9102">OpMetaInfo</text><line style="stroke: #A80036; stroke-width: 1.5;" x1="39" x2="143" y1="746" y2="746"/><text fill="#000000" font-family="sans-serif" font-size="11" lengthAdjust="spacingAndGlyphs" textLength="94" x="44" y="761.4189">qualified_name : str</text><text fill="#000000" font-family="sans-serif" font-size="11" lengthAdjust="spacingAndGlyphs" textLength="60" x="44" y="775.2549">header : dict</text><text fill="#000000" font-family="sans-serif" font-size="11" lengthAdjust="spacingAndGlyphs" textLength="49" x="44" y="789.0908">input : dict</text><text fill="#000000" font-family="sans-serif" font-size="11" lengthAdjust="spacingAndGlyphs" textLength="56" x="44" y="802.9268">output : dict</text><line style="stroke: #A80036; stroke-width: 1.5;" x1="39" x2="143" y1="809.3438" y2="809.3438"/><rect fill="#FEFECE" filter="url(#f1)" height="48" style="stroke: #A80036; stroke-width: 1.5;" width="115" x="179.5" y="741.5"/><ellipse cx="194.5" cy="757.5" fill="#ADD1B2" rx="11" ry="11" style="stroke: #A80036; stroke-width: 1.0;"/><path d="M197.2656,753.375 Q197.4219,753.1563 197.6094,753.0469 Q197.7969,752.9375 198.0156,752.9375 Q198.3906,752.9375 198.625,753.1953 Q198.8594,753.4531 198.8594,754.0625 L198.8594,755.5156 Q198.8594,756.125 198.625,756.3906 Q198.3906,756.6563 198.0156,756.6563 Q197.6719,756.6563 197.4688,756.4531 Q197.2656,756.2656 197.1563,755.75 Q197.1094,755.3906 196.9219,755.2031 Q196.5938,754.8281 195.9844,754.6094 Q195.375,754.3906 194.75,754.3906 Q193.9844,754.3906 193.3516,754.7188 Q192.7188,755.0469 192.2266,755.7969 Q191.7344,756.5469 191.7344,757.5781 L191.7344,758.6719 Q191.7344,759.9063 192.625,760.7266 Q193.5156,761.5469 195.1094,761.5469 Q196.0469,761.5469 196.7031,761.2969 Q197.0938,761.1406 197.5156,760.7031 Q197.7813,760.4375 197.9297,760.3594 Q198.0781,760.2813 198.2813,760.2813 Q198.6094,760.2813 198.8672,760.5391 Q199.125,760.7969 199.125,761.1406 Q199.125,761.4844 198.7813,761.8906 Q198.2813,762.4688 197.4844,762.7969 Q196.4063,763.25 195.1094,763.25 Q193.5938,763.25 192.3906,762.625 Q191.4063,762.125 190.7188,761.0547 Q190.0313,759.9844 190.0313,758.7031 L190.0313,757.5469 Q190.0313,756.2188 190.6484,755.0703 Q191.2656,753.9219 192.3594,753.3047 Q193.4531,752.6875 194.6875,752.6875 Q195.4219,752.6875 196.0703,752.8516 Q196.7188,753.0156 197.2656,753.375 Z "/><text fill="#000000" font-family="sans-serif" font-size="12" lengthAdjust="spacingAndGlyphs" textLength="83" x="208.5" y="762.4102">OpRegistration</text><line style="stroke: #A80036; stroke-width: 1.5;" x1="180.5" x2="293.5" y1="773.5" y2="773.5"/><line style="stroke: #A80036; stroke-width: 1.5;" x1="180.5" x2="293.5" y1="781.5" y2="781.5"/><rect fill="#FEFECE" filter="url(#f1)" height="131.0156" style="stroke: #A80036; stroke-width: 1.5;" width="149" x="159.5" y="176"/><ellipse cx="214.75" cy="192" fill="#A9DCDF" rx="11" ry="11" style="stroke: #A80036; stroke-width: 1.0;"/><path d="M216.9375,193.7656 L212.7969,193.7656 L212.375,194.7969 L212.7969,194.7969 Q213.4063,194.7969 213.6719,195.0313 Q213.9375,195.2656 213.9375,195.6563 Q213.9375,196.0313 213.6719,196.2656 Q213.4063,196.5 212.7969,196.5 L210.5,196.5 Q209.8906,196.5 209.6328,196.2656 Q209.375,196.0313 209.375,195.6406 Q209.375,195.2656 209.6484,195.0234 Q209.9219,194.7813 210.5469,194.7969 L213.2188,188.1406 L212.1094,188.1406 Q211.5,188.1406 211.2344,187.9063 Q210.9688,187.6719 210.9688,187.2813 Q210.9688,186.9063 211.2344,186.6719 Q211.5,186.4375 212.1094,186.4375 L215.7813,186.4375 L219.1719,194.7969 Q219.7656,194.7969 219.9531,194.9375 Q220.3438,195.2031 220.3438,195.6563 Q220.3438,196.0313 220.0859,196.2656 Q219.8281,196.5 219.2188,196.5 L216.9219,196.5 Q216.3125,196.5 216.0469,196.2656 Q215.7813,196.0313 215.7813,195.6406 Q215.7813,195.2656 216.0469,195.0313 Q216.3125,194.7969 216.9219,194.7969 L217.3438,194.7969 L216.9375,193.7656 Z M216.2188,192.0625 L214.8594,188.6875 L213.4844,192.0625 L216.2188,192.0625 Z "/><text fill="#000000" font-family="sans-serif" font-size="12" font-style="italic" lengthAdjust="spacingAndGlyphs" textLength="30" x="235.25" y="196.9102">Node</text><line style="stroke: #A80036; stroke-width: 1.5;" x1="160.5" x2="307.5" y1="208" y2="208"/><text fill="#000000" font-family="sans-serif" font-size="11" lengthAdjust="spacingAndGlyphs" textLength="30" x="165.5" y="223.4189">id : str</text><text fill="#000000" font-family="sans-serif" font-size="11" lengthAdjust="spacingAndGlyphs" textLength="130" x="165.5" y="237.2549">input : List[NodeConnector]</text><text fill="#000000" font-family="sans-serif" font-size="11" lengthAdjust="spacingAndGlyphs" textLength="137" x="165.5" y="251.0908">output : List[NodeConnector]</text><line style="stroke: #A80036; stroke-width: 1.5;" x1="160.5" x2="307.5" y1="257.5078" y2="257.5078"/><text fill="#000000" font-family="sans-serif" font-size="11" font-style="italic" lengthAdjust="spacingAndGlyphs" textLength="126" x="165.5" y="272.9268">from_json_dict(json_dict)</text><text fill="#000000" font-family="sans-serif" font-size="11" font-style="italic" lengthAdjust="spacingAndGlyphs" textLength="95" x="165.5" y="286.7627">to_json_dict() : dict</text><text fill="#000000" font-family="sans-serif" font-size="11" font-style="italic" lengthAdjust="spacingAndGlyphs" textLength="113" x="165.5" y="300.5986">invoke(monitor, **args)</text><rect fill="#FEFECE" filter="url(#f1)" height="89.5078" style="stroke: #A80036; stroke-width: 1.5;" width="134" x="227" y="8"/><ellipse cx="272.75" cy="24" fill="#ADD1B2" rx="11" ry="11" style="stroke: #A80036; stroke-width: 1.0;"/><path d="M275.5156,19.875 Q275.6719,19.6563 275.8594,19.5469 Q276.0469,19.4375 276.2656,19.4375 Q276.6406,19.4375 276.875,19.6953 Q277.1094,19.9531 277.1094,20.5625 L277.1094,22.0156 Q277.1094,22.625 276.875,22.8906 Q276.6406,23.1563 276.2656,23.1563 Q275.9219,23.1563 275.7188,22.9531 Q275.5156,22.7656 275.4063,22.25 Q275.3594,21.8906 275.1719,21.7031 Q274.8438,21.3281 274.2344,21.1094 Q273.625,20.8906 273,20.8906 Q272.2344,20.8906 271.6016,21.2188 Q270.9688,21.5469 270.4766,22.2969 Q269.9844,23.0469 269.9844,24.0781 L269.9844,25.1719 Q269.9844,26.4063 270.875,27.2266 Q271.7656,28.0469 273.3594,28.0469 Q274.2969,28.0469 274.9531,27.7969 Q275.3438,27.6406 275.7656,27.2031 Q276.0313,26.9375 276.1797,26.8594 Q276.3281,26.7813 276.5313,26.7813 Q276.8594,26.7813 277.1172,27.0391 Q277.375,27.2969 277.375,27.6406 Q277.375,27.9844 277.0313,28.3906 Q276.5313,28.9688 275.7344,29.2969 Q274.6563,29.75 273.3594,29.75 Q271.8438,29.75 270.6406,29.125 Q269.6563,28.625 268.9688,27.5547 Q268.2813,26.4844 268.2813,25.2031 L268.2813,24.0469 Q268.2813,22.7188 268.8984,21.5703 Q269.5156,20.4219 270.6094,19.8047 Q271.7031,19.1875 272.9375,19.1875 Q273.6719,19.1875 274.3203,19.3516 Q274.9688,19.5156 275.5156,19.875 Z "/><text fill="#000000" font-family="sans-serif" font-size="12" lengthAdjust="spacingAndGlyphs" textLength="34" x="293.25" y="28.9102">Graph</text><line style="stroke: #A80036; stroke-width: 1.5;" x1="228" x2="360" y1="40" y2="40"/><line style="stroke: #A80036; stroke-width: 1.5;" x1="228" x2="360" y1="48" y2="48"/><text fill="#000000" font-family="sans-serif" font-size="11" lengthAdjust="spacingAndGlyphs" textLength="122" x="233" y="63.4189">from_json_dict(json_dict)</text><text fill="#000000" font-family="sans-serif" font-size="11" lengthAdjust="spacingAndGlyphs" textLength="92" x="233" y="77.2549">to_json_dict() : dict</text><text fill="#000000" font-family="sans-serif" font-size="11" lengthAdjust="spacingAndGlyphs" textLength="110" x="233" y="91.0908">invoke(monitor, **args)</text><rect fill="#FEFECE" filter="url(#f1)" height="48" style="stroke: #A80036; stroke-width: 1.5;" width="91" x="226.5" y="385"/><ellipse cx="241.5" cy="401" fill="#ADD1B2" rx="11" ry="11" style="stroke: #A80036; stroke-width: 1.0;"/><path d="M244.2656,396.875 Q244.4219,396.6563 244.6094,396.5469 Q244.7969,396.4375 245.0156,396.4375 Q245.3906,396.4375 245.625,396.6953 Q245.8594,396.9531 245.8594,397.5625 L245.8594,399.0156 Q245.8594,399.625 245.625,399.8906 Q245.3906,400.1563 245.0156,400.1563 Q244.6719,400.1563 244.4688,399.9531 Q244.2656,399.7656 244.1563,399.25 Q244.1094,398.8906 243.9219,398.7031 Q243.5938,398.3281 242.9844,398.1094 Q242.375,397.8906 241.75,397.8906 Q240.9844,397.8906 240.3516,398.2188 Q239.7188,398.5469 239.2266,399.2969 Q238.7344,400.0469 238.7344,401.0781 L238.7344,402.1719 Q238.7344,403.4063 239.625,404.2266 Q240.5156,405.0469 242.1094,405.0469 Q243.0469,405.0469 243.7031,404.7969 Q244.0938,404.6406 244.5156,404.2031 Q244.7813,403.9375 244.9297,403.8594 Q245.0781,403.7813 245.2813,403.7813 Q245.6094,403.7813 245.8672,404.0391 Q246.125,404.2969 246.125,404.6406 Q246.125,404.9844 245.7813,405.3906 Q245.2813,405.9688 244.4844,406.2969 Q243.4063,406.75 242.1094,406.75 Q240.5938,406.75 239.3906,406.125 Q238.4063,405.625 237.7188,404.5547 Q237.0313,403.4844 237.0313,402.2031 L237.0313,401.0469 Q237.0313,399.7188 237.6484,398.5703 Q238.2656,397.4219 239.3594,396.8047 Q240.4531,396.1875 241.6875,396.1875 Q242.4219,396.1875 243.0703,396.3516 Q243.7188,396.5156 244.2656,396.875 Z "/><text fill="#000000" font-family="sans-serif" font-size="12" lengthAdjust="spacingAndGlyphs" textLength="59" x="255.5" y="405.9102">ChildNode</text><line style="stroke: #A80036; stroke-width: 1.5;" x1="227.5" x2="316.5" y1="417" y2="417"/><line style="stroke: #A80036; stroke-width: 1.5;" x1="227.5" x2="316.5" y1="425" y2="425"/><rect fill="#FEFECE" filter="url(#f1)" height="103.3438" style="stroke: #A80036; stroke-width: 1.5;" width="134" x="329" y="511"/><ellipse cx="361.1" cy="527" fill="#ADD1B2" rx="11" ry="11" style="stroke: #A80036; stroke-width: 1.0;"/><path d="M363.8656,522.875 Q364.0219,522.6563 364.2094,522.5469 Q364.3969,522.4375 364.6156,522.4375 Q364.9906,522.4375 365.225,522.6953 Q365.4594,522.9531 365.4594,523.5625 L365.4594,525.0156 Q365.4594,525.625 365.225,525.8906 Q364.9906,526.1563 364.6156,526.1563 Q364.2719,526.1563 364.0688,525.9531 Q363.8656,525.7656 363.7563,525.25 Q363.7094,524.8906 363.5219,524.7031 Q363.1938,524.3281 362.5844,524.1094 Q361.975,523.8906 361.35,523.8906 Q360.5844,523.8906 359.9516,524.2188 Q359.3188,524.5469 358.8266,525.2969 Q358.3344,526.0469 358.3344,527.0781 L358.3344,528.1719 Q358.3344,529.4063 359.225,530.2266 Q360.1156,531.0469 361.7094,531.0469 Q362.6469,531.0469 363.3031,530.7969 Q363.6938,530.6406 364.1156,530.2031 Q364.3813,529.9375 364.5297,529.8594 Q364.6781,529.7813 364.8813,529.7813 Q365.2094,529.7813 365.4672,530.0391 Q365.725,530.2969 365.725,530.6406 Q365.725,530.9844 365.3813,531.3906 Q364.8813,531.9688 364.0844,532.2969 Q363.0063,532.75 361.7094,532.75 Q360.1938,532.75 358.9906,532.125 Q358.0063,531.625 357.3188,530.5547 Q356.6313,529.4844 356.6313,528.2031 L356.6313,527.0469 Q356.6313,525.7188 357.2484,524.5703 Q357.8656,523.4219 358.9594,522.8047 Q360.0531,522.1875 361.2875,522.1875 Q362.0219,522.1875 362.6703,522.3516 Q363.3188,522.5156 363.8656,522.875 Z "/><text fill="#000000" font-family="sans-serif" font-size="12" lengthAdjust="spacingAndGlyphs" textLength="64" x="378.9" y="531.9102">GraphNode</text><line style="stroke: #A80036; stroke-width: 1.5;" x1="330" x2="462" y1="543" y2="543"/><text fill="#000000" font-family="sans-serif" font-size="11" lengthAdjust="spacingAndGlyphs" textLength="66" x="335" y="558.4189">resource : str</text><line style="stroke: #A80036; stroke-width: 1.5;" x1="330" x2="462" y1="564.8359" y2="564.8359"/><text fill="#000000" font-family="sans-serif" font-size="11" lengthAdjust="spacingAndGlyphs" textLength="122" x="335" y="580.2549">from_json_dict(json_dict)</text><text fill="#000000" font-family="sans-serif" font-size="11" lengthAdjust="spacingAndGlyphs" textLength="92" x="335" y="594.0908">to_json_dict() : dict</text><text fill="#000000" font-family="sans-serif" font-size="11" lengthAdjust="spacingAndGlyphs" textLength="110" x="335" y="607.9268">invoke(monitor, **args)</text><rect fill="#FEFECE" filter="url(#f1)" height="103.3438" style="stroke: #A80036; stroke-width: 1.5;" width="134" x="160" y="511"/><ellipse cx="200.2" cy="527" fill="#ADD1B2" rx="11" ry="11" style="stroke: #A80036; stroke-width: 1.0;"/><path d="M202.9656,522.875 Q203.1219,522.6563 203.3094,522.5469 Q203.4969,522.4375 203.7156,522.4375 Q204.0906,522.4375 204.325,522.6953 Q204.5594,522.9531 204.5594,523.5625 L204.5594,525.0156 Q204.5594,525.625 204.325,525.8906 Q204.0906,526.1563 203.7156,526.1563 Q203.3719,526.1563 203.1688,525.9531 Q202.9656,525.7656 202.8563,525.25 Q202.8094,524.8906 202.6219,524.7031 Q202.2938,524.3281 201.6844,524.1094 Q201.075,523.8906 200.45,523.8906 Q199.6844,523.8906 199.0516,524.2188 Q198.4188,524.5469 197.9266,525.2969 Q197.4344,526.0469 197.4344,527.0781 L197.4344,528.1719 Q197.4344,529.4063 198.325,530.2266 Q199.2156,531.0469 200.8094,531.0469 Q201.7469,531.0469 202.4031,530.7969 Q202.7938,530.6406 203.2156,530.2031 Q203.4813,529.9375 203.6297,529.8594 Q203.7781,529.7813 203.9813,529.7813 Q204.3094,529.7813 204.5672,530.0391 Q204.825,530.2969 204.825,530.6406 Q204.825,530.9844 204.4813,531.3906 Q203.9813,531.9688 203.1844,532.2969 Q202.1063,532.75 200.8094,532.75 Q199.2938,532.75 198.0906,532.125 Q197.1063,531.625 196.4188,530.5547 Q195.7313,529.4844 195.7313,528.2031 L195.7313,527.0469 Q195.7313,525.7188 196.3484,524.5703 Q196.9656,523.4219 198.0594,522.8047 Q199.1531,522.1875 200.3875,522.1875 Q201.1219,522.1875 201.7703,522.3516 Q202.4188,522.5156 202.9656,522.875 Z "/><text fill="#000000" font-family="sans-serif" font-size="12" lengthAdjust="spacingAndGlyphs" textLength="46" x="219.8" y="531.9102">OpNode</text><line style="stroke: #A80036; stroke-width: 1.5;" x1="161" x2="293" y1="543" y2="543"/><text fill="#000000" font-family="sans-serif" font-size="11" lengthAdjust="spacingAndGlyphs" textLength="66" x="166" y="558.4189">op_name : str</text><line style="stroke: #A80036; stroke-width: 1.5;" x1="161" x2="293" y1="564.8359" y2="564.8359"/><text fill="#000000" font-family="sans-serif" font-size="11" lengthAdjust="spacingAndGlyphs" textLength="122" x="166" y="580.2549">from_json_dict(json_dict)</text><text fill="#000000" font-family="sans-serif" font-size="11" lengthAdjust="spacingAndGlyphs" textLength="92" x="166" y="594.0908">to_json_dict() : dict</text><text fill="#000000" font-family="sans-serif" font-size="11" lengthAdjust="spacingAndGlyphs" textLength="110" x="166" y="607.9268">invoke(monitor, **args)</text><polygon fill="#FBFB77" filter="url(#f1)" points="35,40,35,66.3516,157,66.3516,157,50,147,40,35,40" style="stroke: #A80036; stroke-width: 1.0;"/><polygon fill="#FBFB77" points="35,40,35,66.3516,157,66.3516,157,58,226.888,53,157,50,157,50,147,40,35,40" style="stroke: #A80036; stroke-width: 1.0;"/><line style="stroke: #A80036; stroke-width: 1.0;" x1="147" x2="147" y1="40" y2="50"/><line style="stroke: #A80036; stroke-width: 1.0;" x1="157" x2="147" y1="50" y2="50"/><text fill="#000000" font-family="sans-serif" font-size="13" lengthAdjust="spacingAndGlyphs" textLength="101" x="41" y="58.4951">Collection pattern</text><path d="M268.452,156.667 C269.692,153.078 270.881,149.512 272,146 C276.887,130.666 281.256,113.59 284.788,98.352 " fill="none" style="stroke: #A80036; stroke-width: 1.0;"/><polygon fill="none" points="274.871,159.499,261.443,175.891,261.717,154.703,274.871,159.499" style="stroke: #A80036; stroke-width: 1.0;"/><path d="M237.086,108.773 C233.053,114.887 229.571,121.329 227,128 C222.807,138.879 220.945,150.787 220.555,162.657 " fill="none" style="stroke: #A80036; stroke-width: 1.0;"/><polygon fill="#A80036" points="220.696,175.984,224.6008,166.9423,220.6432,170.9843,216.6013,167.0267,220.696,175.984" style="stroke: #A80036; stroke-width: 1.0;"/><line style="stroke: #A80036; stroke-width: 1.0;" x1="220.6432" x2="220.5585" y1="170.9843" y2="162.985"/><polygon fill="#FFFFFF" points="244.862,98.143,238.0911,100.624,237.7771,107.8282,244.5479,105.3473,244.862,98.143" style="stroke: #A80036; stroke-width: 1.0;"/><text fill="#000000" font-family="sans-serif" font-size="13" lengthAdjust="spacingAndGlyphs" textLength="35" x="228" y="142.4951">nodes</text><text fill="#000000" font-family="sans-serif" font-size="13" lengthAdjust="spacingAndGlyphs" textLength="24" x="193.7702" y="164.9983">0..N</text><path d="M259.669,326.866 C260.494,330.279 261.276,333.666 262,337 C265.437,352.813 267.962,370.875 269.615,384.824 " fill="none" style="stroke: #A80036; stroke-width: 1.0;"/><polygon fill="none" points="252.825,328.36,254.557,307.241,266.373,324.831,252.825,328.36" style="stroke: #A80036; stroke-width: 1.0;"/><path d="M238.788,384.809 C229.658,376.556 220.922,366.435 216,355 C210.289,341.732 209.301,326.878 210.807,312.423 " fill="none" style="stroke: #A80036; stroke-width: 1.0;"/><polygon fill="#A80036" points="211.47,307.12,206.3849,315.5545,210.85,312.0814,214.3231,316.5465,211.47,307.12" style="stroke: #A80036; stroke-width: 1.0;"/><text fill="#000000" font-family="sans-serif" font-size="13" lengthAdjust="spacingAndGlyphs" textLength="36" x="217" y="351.4951">parent</text><path d="M303.696,448.726 C319.181,467.645 338.011,490.65 354.614,510.936 " fill="none" style="stroke: #A80036; stroke-width: 1.0;"/><polygon fill="none" points="298.084,452.92,290.833,433.01,308.917,444.053,298.084,452.92" style="stroke: #A80036; stroke-width: 1.0;"/><path d="M259.457,452.227 C254.048,470.437 247.678,491.886 242.019,510.936 " fill="none" style="stroke: #A80036; stroke-width: 1.0;"/><polygon fill="none" points="252.76,450.189,265.165,433.01,266.181,454.175,252.76,450.189" style="stroke: #A80036; stroke-width: 1.0;"/><path d="M388.06,510.735 C376.202,436.773 352.416,295.207 326,176 C320.649,151.852 313.79,125.261 307.795,103.085 " fill="none" style="stroke: #A80036; stroke-width: 1.0;"/><polygon fill="#A80036" points="306.451,98.133,304.9459,107.8662,307.7596,102.9587,312.667,105.7724,306.451,98.133" style="stroke: #A80036; stroke-width: 1.0;"/><text fill="#000000" font-family="sans-serif" font-size="13" lengthAdjust="spacingAndGlyphs" textLength="32" x="362" y="351.4951">graph</text><path d="M230.175,627.325 C231.833,660.636 233.8,700.176 235.195,728.227 " fill="none" style="stroke: #A80036; stroke-width: 1.0;"/><polygon fill="#A80036" points="235.85,741.375,239.397,732.187,235.6011,736.3812,231.407,732.5853,235.85,741.375" style="stroke: #A80036; stroke-width: 1.0;"/><line style="stroke: #A80036; stroke-width: 1.0;" x1="235.6011" x2="235.2035" y1="736.3812" y2="728.3915"/><polygon fill="#FFFFFF" points="229.523,614.221,225.826,620.4123,230.119,626.2062,233.8161,620.0149,229.523,614.221" style="stroke: #A80036; stroke-width: 1.0;"/><text fill="#000000" font-family="sans-serif" font-size="13" lengthAdjust="spacingAndGlyphs" textLength="85" x="232" y="658.4951">op_registration</text><path d="M205.019,319.599 C185.71,372.846 160.722,445.578 143,511 C125.71,574.826 111.112,649.058 101.8263,700.63 " fill="none" style="stroke: #A80036; stroke-width: 1.0;"/><polygon fill="#A80036" points="99.5239,713.562,105.0404,705.4031,100.4008,708.6395,97.1644,704,99.5239,713.562" style="stroke: #A80036; stroke-width: 1.0;"/><line style="stroke: #A80036; stroke-width: 1.0;" x1="100.4008" x2="101.8027" y1="708.6395" y2="700.763"/><polygon fill="#FFFFFF" points="209.547,307.182,203.7337,311.4488,205.4364,318.456,211.2497,314.1892,209.547,307.182" style="stroke: #A80036; stroke-width: 1.0;"/><text fill="#000000" font-family="sans-serif" font-size="13" lengthAdjust="spacingAndGlyphs" textLength="77" x="157" y="477.4951">op_meta_info</text></g></svg>