<?xml version="1.0" encoding="UTF-8" standalone="yes"?><svg xmlns="http://www.w3.org/2000/svg" xmlns:xlink="http://www.w3.org/1999/xlink" height="697px" style="width:497px;height:697px;" version="1.1" viewBox="0 0 497 697" width="497px"><defs><filter height="300%" id="f1" width="300%" x="-1" y="-1"><feGaussianBlur result="blurOut" stdDeviation="2.0"/><feColorMatrix in="blurOut" result="blurOut2" type="matrix" values="0 0 0 0 0 0 0 0 0 0 0 0 0 0 0 0 0 0 .4 0"/><feOffset dx="4.0" dy="4.0" in="blurOut2" result="blurOut3"/><feBlend in="SourceGraphic" in2="blurOut3" mode="normal"/></filter></defs><g><polygon fill="#FFFFFF" filter="url(#f1)" points="22,535,46,535,53,558.6094,311,558.6094,311,690,22,690,22,535" style="stroke: #000000; stroke-width: 2.0;"/><line style="stroke: #000000; stroke-width: 2.0;" x1="22" x2="53" y1="558.6094" y2="558.6094"/><text fill="#000000" font-family="sans-serif" font-size="14" font-weight="bold" lengthAdjust="spacingAndGlyphs" textLength="18" x="26" y="551.5332">op</text><rect fill="#FEFECE" filter="url(#f1)" height="103.3438" style="stroke: #A80036; stroke-width: 1.5;" width="106" x="189" y="571"/><ellipse cx="209.4" cy="587" fill="#ADD1B2" rx="11" ry="11" style="stroke: #A80036; stroke-width: 1.0;"/><path d="M212.1656,582.875 Q212.3219,582.6563 212.5094,582.5469 Q212.6969,582.4375 212.9156,582.4375 Q213.2906,582.4375 213.525,582.6953 Q213.7594,582.9531 213.7594,583.5625 L213.7594,585.0156 Q213.7594,585.625 213.525,585.8906 Q213.2906,586.1563 212.9156,586.1563 Q212.5719,586.1563 212.3688,585.9531 Q212.1656,585.7656 212.0563,585.25 Q212.0094,584.8906 211.8219,584.7031 Q211.4938,584.3281 210.8844,584.1094 Q210.275,583.8906 209.65,583.8906 Q208.8844,583.8906 208.2516,584.2188 Q207.6188,584.5469 207.1266,585.2969 Q206.6344,586.0469 206.6344,587.0781 L206.6344,588.1719 Q206.6344,589.4063 207.525,590.2266 Q208.4156,591.0469 210.0094,591.0469 Q210.9469,591.0469 211.6031,590.7969 Q211.9938,590.6406 212.4156,590.2031 Q212.6813,589.9375 212.8297,589.8594 Q212.9781,589.7813 213.1813,589.7813 Q213.5094,589.7813 213.7672,590.0391 Q214.025,590.2969 214.025,590.6406 Q214.025,590.9844 213.6813,591.3906 Q213.1813,591.9688 212.3844,592.2969 Q211.3063,592.75 210.0094,592.75 Q208.4938,592.75 207.2906,592.125 Q206.3063,591.625 205.6188,590.5547 Q204.9313,589.4844 204.9313,588.2031 L204.9313,587.0469 Q204.9313,585.7188 205.5484,584.5703 Q206.1656,583.4219 207.2594,582.8047 Q208.3531,582.1875 209.5875,582.1875 Q210.3219,582.1875 210.9703,582.3516 Q211.6188,582.5156 212.1656,582.875 Z "/><text fill="#000000" font-family="sans-serif" font-size="12" lengthAdjust="spacingAndGlyphs" textLength="62" x="224.6" y="591.9102">OpMetaInfo</text><line style="stroke: #A80036; stroke-width: 1.5;" x1="190" x2="294" y1="603" y2="603"/><text fill="#000000" font-family="sans-serif" font-size="11" lengthAdjust="spacingAndGlyphs" textLength="94" x="195" y="618.4189">qualified_name : str</text><text fill="#000000" font-family="sans-serif" font-size="11" lengthAdjust="spacingAndGlyphs" textLength="60" x="195" y="632.2549">header : dict</text><text fill="#000000" font-family="sans-serif" font-size="11" lengthAdjust="spacingAndGlyphs" textLength="49" x="195" y="646.0908">input : dict</text><text fill="#000000" font-family="sans-serif" font-size="11" lengthAdjust="spacingAndGlyphs" textLength="56" x="195" y="659.9268">output : dict</text><line style="stroke: #A80036; stroke-width: 1.5;" x1="190" x2="294" y1="666.3438" y2="666.3438"/><rect fill="#FEFECE" filter="url(#f1)" height="48" style="stroke: #A80036; stroke-width: 1.5;" width="115" x="38.5" y="598.5"/><ellipse cx="53.5" cy="614.5" fill="#ADD1B2" rx="11" ry="11" style="stroke: #A80036; stroke-width: 1.0;"/><path d="M56.2656,610.375 Q56.4219,610.1563 56.6094,610.0469 Q56.7969,609.9375 57.0156,609.9375 Q57.3906,609.9375 57.625,610.1953 Q57.8594,610.4531 57.8594,611.0625 L57.8594,612.5156 Q57.8594,613.125 57.625,613.3906 Q57.3906,613.6563 57.0156,613.6563 Q56.6719,613.6563 56.4688,613.4531 Q56.2656,613.2656 56.1563,612.75 Q56.1094,612.3906 55.9219,612.2031 Q55.5938,611.8281 54.9844,611.6094 Q54.375,611.3906 53.75,611.3906 Q52.9844,611.3906 52.3516,611.7188 Q51.7188,612.0469 51.2266,612.7969 Q50.7344,613.5469 50.7344,614.5781 L50.7344,615.6719 Q50.7344,616.9063 51.625,617.7266 Q52.5156,618.5469 54.1094,618.5469 Q55.0469,618.5469 55.7031,618.2969 Q56.0938,618.1406 56.5156,617.7031 Q56.7813,617.4375 56.9297,617.3594 Q57.0781,617.2813 57.2813,617.2813 Q57.6094,617.2813 57.8672,617.5391 Q58.125,617.7969 58.125,618.1406 Q58.125,618.4844 57.7813,618.8906 Q57.2813,619.4688 56.4844,619.7969 Q55.4063,620.25 54.1094,620.25 Q52.5938,620.25 51.3906,619.625 Q50.4063,619.125 49.7188,618.0547 Q49.0313,616.9844 49.0313,615.7031 L49.0313,614.5469 Q49.0313,613.2188 49.6484,612.0703 Q50.2656,610.9219 51.3594,610.3047 Q52.4531,609.6875 53.6875,609.6875 Q54.4219,609.6875 55.0703,609.8516 Q55.7188,610.0156 56.2656,610.375 Z "/><text fill="#000000" font-family="sans-serif" font-size="12" lengthAdjust="spacingAndGlyphs" textLength="83" x="67.5" y="619.4102">OpRegistration</text><line style="stroke: #A80036; stroke-width: 1.5;" x1="39.5" x2="152.5" y1="630.5" y2="630.5"/><line style="stroke: #A80036; stroke-width: 1.5;" x1="39.5" x2="152.5" y1="638.5" y2="638.5"/><rect fill="#FEFECE" filter="url(#f1)" height="131.0156" style="stroke: #A80036; stroke-width: 1.5;" width="165" x="164.5" y="176"/><ellipse cx="227.75" cy="192" fill="#A9DCDF" rx="11" ry="11" style="stroke: #A80036; stroke-width: 1.0;"/><path d="M229.9375,193.7656 L225.7969,193.7656 L225.375,194.7969 L225.7969,194.7969 Q226.4063,194.7969 226.6719,195.0313 Q226.9375,195.2656 226.9375,195.6563 Q226.9375,196.0313 226.6719,196.2656 Q226.4063,196.5 225.7969,196.5 L223.5,196.5 Q222.8906,196.5 222.6328,196.2656 Q222.375,196.0313 222.375,195.6406 Q222.375,195.2656 222.6484,195.0234 Q222.9219,194.7813 223.5469,194.7969 L226.2188,188.1406 L225.1094,188.1406 Q224.5,188.1406 224.2344,187.9063 Q223.9688,187.6719 223.9688,187.2813 Q223.9688,186.9063 224.2344,186.6719 Q224.5,186.4375 225.1094,186.4375 L228.7813,186.4375 L232.1719,194.7969 Q232.7656,194.7969 232.9531,194.9375 Q233.3438,195.2031 233.3438,195.6563 Q233.3438,196.0313 233.0859,196.2656 Q232.8281,196.5 232.2188,196.5 L229.9219,196.5 Q229.3125,196.5 229.0469,196.2656 Q228.7813,196.0313 228.7813,195.6406 Q228.7813,195.2656 229.0469,195.0313 Q229.3125,194.7969 229.9219,194.7969 L230.3438,194.7969 L229.9375,193.7656 Z M229.2188,192.0625 L227.8594,188.6875 L226.4844,192.0625 L229.2188,192.0625 Z "/><text fill="#000000" font-family="sans-serif" font-size="12" font-style="italic" lengthAdjust="spacingAndGlyphs" textLength="30" x="248.25" y="196.9102">Node</text><line style="stroke: #A80036; stroke-width: 1.5;" x1="165.5" x2="328.5" y1="208" y2="208"/><text fill="#000000" font-family="sans-serif" font-size="11" lengthAdjust="spacingAndGlyphs" textLength="30" x="170.5" y="223.4189">id : str</text><text fill="#000000" font-family="sans-serif" font-size="11" lengthAdjust="spacingAndGlyphs" textLength="137" x="170.5" y="237.2549">input : NodeInputNamespace</text><text fill="#000000" font-family="sans-serif" font-size="11" lengthAdjust="spacingAndGlyphs" textLength="153" x="170.5" y="251.0908">output : NodeOutputNamespace</text><line style="stroke: #A80036; stroke-width: 1.5;" x1="165.5" x2="328.5" y1="257.5078" y2="257.5078"/><text fill="#000000" font-family="sans-serif" font-size="11" font-style="italic" lengthAdjust="spacingAndGlyphs" textLength="126" x="170.5" y="272.9268">from_json_dict(json_dict)</text><text fill="#000000" font-family="sans-serif" font-size="11" font-style="italic" lengthAdjust="spacingAndGlyphs" textLength="95" x="170.5" y="286.7627">to_json_dict() : dict</text><text fill="#000000" font-family="sans-serif" font-size="11" font-style="italic" lengthAdjust="spacingAndGlyphs" textLength="113" x="170.5" y="300.5986">invoke(monitor, **args)</text><rect fill="#FEFECE" filter="url(#f1)" height="89.5078" style="stroke: #A80036; stroke-width: 1.5;" width="134" x="240" y="8"/><ellipse cx="285.75" cy="24" fill="#ADD1B2" rx="11" ry="11" style="stroke: #A80036; stroke-width: 1.0;"/><path d="M288.5156,19.875 Q288.6719,19.6563 288.8594,19.5469 Q289.0469,19.4375 289.2656,19.4375 Q289.6406,19.4375 289.875,19.6953 Q290.1094,19.9531 290.1094,20.5625 L290.1094,22.0156 Q290.1094,22.625 289.875,22.8906 Q289.6406,23.1563 289.2656,23.1563 Q288.9219,23.1563 288.7188,22.9531 Q288.5156,22.7656 288.4063,22.25 Q288.3594,21.8906 288.1719,21.7031 Q287.8438,21.3281 287.2344,21.1094 Q286.625,20.8906 286,20.8906 Q285.2344,20.8906 284.6016,21.2188 Q283.9688,21.5469 283.4766,22.2969 Q282.9844,23.0469 282.9844,24.0781 L282.9844,25.1719 Q282.9844,26.4063 283.875,27.2266 Q284.7656,28.0469 286.3594,28.0469 Q287.2969,28.0469 287.9531,27.7969 Q288.3438,27.6406 288.7656,27.2031 Q289.0313,26.9375 289.1797,26.8594 Q289.3281,26.7813 289.5313,26.7813 Q289.8594,26.7813 290.1172,27.0391 Q290.375,27.2969 290.375,27.6406 Q290.375,27.9844 290.0313,28.3906 Q289.5313,28.9688 288.7344,29.2969 Q287.6563,29.75 286.3594,29.75 Q284.8438,29.75 283.6406,29.125 Q282.6563,28.625 281.9688,27.5547 Q281.2813,26.4844 281.2813,25.2031 L281.2813,24.0469 Q281.2813,22.7188 281.8984,21.5703 Q282.5156,20.4219 283.6094,19.8047 Q284.7031,19.1875 285.9375,19.1875 Q286.6719,19.1875 287.3203,19.3516 Q287.9688,19.5156 288.5156,19.875 Z "/><text fill="#000000" font-family="sans-serif" font-size="12" lengthAdjust="spacingAndGlyphs" textLength="34" x="306.25" y="28.9102">Graph</text><line style="stroke: #A80036; stroke-width: 1.5;" x1="241" x2="373" y1="40" y2="40"/><line style="stroke: #A80036; stroke-width: 1.5;" x1="241" x2="373" y1="48" y2="48"/><text fill="#000000" font-family="sans-serif" font-size="11" lengthAdjust="spacingAndGlyphs" textLength="122" x="246" y="63.4189">from_json_dict(json_dict)</text><text fill="#000000" font-family="sans-serif" font-size="11" lengthAdjust="spacingAndGlyphs" textLength="92" x="246" y="77.2549">to_json_dict() : dict</text><text fill="#000000" font-family="sans-serif" font-size="11" lengthAdjust="spacingAndGlyphs" textLength="110" x="246" y="91.0908">invoke(monitor, **args)</text><rect fill="#FEFECE" filter="url(#f1)" height="103.3438" style="stroke: #A80036; stroke-width: 1.5;" width="134" x="354" y="368"/><ellipse cx="377.1" cy="384" fill="#ADD1B2" rx="11" ry="11" style="stroke: #A80036; stroke-width: 1.0;"/><path d="M379.8656,379.875 Q380.0219,379.6563 380.2094,379.5469 Q380.3969,379.4375 380.6156,379.4375 Q380.9906,379.4375 381.225,379.6953 Q381.4594,379.9531 381.4594,380.5625 L381.4594,382.0156 Q381.4594,382.625 381.225,382.8906 Q380.9906,383.1563 380.6156,383.1563 Q380.2719,383.1563 380.0688,382.9531 Q379.8656,382.7656 379.7563,382.25 Q379.7094,381.8906 379.5219,381.7031 Q379.1938,381.3281 378.5844,381.1094 Q377.975,380.8906 377.35,380.8906 Q376.5844,380.8906 375.9516,381.2188 Q375.3188,381.5469 374.8266,382.2969 Q374.3344,383.0469 374.3344,384.0781 L374.3344,385.1719 Q374.3344,386.4063 375.225,387.2266 Q376.1156,388.0469 377.7094,388.0469 Q378.6469,388.0469 379.3031,387.7969 Q379.6938,387.6406 380.1156,387.2031 Q380.3813,386.9375 380.5297,386.8594 Q380.6781,386.7813 380.8813,386.7813 Q381.2094,386.7813 381.4672,387.0391 Q381.725,387.2969 381.725,387.6406 Q381.725,387.9844 381.3813,388.3906 Q380.8813,388.9688 380.0844,389.2969 Q379.0063,389.75 377.7094,389.75 Q376.1938,389.75 374.9906,389.125 Q374.0063,388.625 373.3188,387.5547 Q372.6313,386.4844 372.6313,385.2031 L372.6313,384.0469 Q372.6313,382.7188 373.2484,381.5703 Q373.8656,380.4219 374.9594,379.8047 Q376.0531,379.1875 377.2875,379.1875 Q378.0219,379.1875 378.6703,379.3516 Q379.3188,379.5156 379.8656,379.875 Z "/><text fill="#000000" font-family="sans-serif" font-size="12" lengthAdjust="spacingAndGlyphs" textLength="84" x="392.9" y="388.9102">GraphFileNode</text><line style="stroke: #A80036; stroke-width: 1.5;" x1="355" x2="487" y1="400" y2="400"/><text fill="#000000" font-family="sans-serif" font-size="11" lengthAdjust="spacingAndGlyphs" textLength="63" x="360" y="415.4189">file_path : str</text><line style="stroke: #A80036; stroke-width: 1.5;" x1="355" x2="487" y1="421.8359" y2="421.8359"/><text fill="#000000" font-family="sans-serif" font-size="11" lengthAdjust="spacingAndGlyphs" textLength="122" x="360" y="437.2549">from_json_dict(json_dict)</text><text fill="#000000" font-family="sans-serif" font-size="11" lengthAdjust="spacingAndGlyphs" textLength="92" x="360" y="451.0908">to_json_dict() : dict</text><text fill="#000000" font-family="sans-serif" font-size="11" lengthAdjust="spacingAndGlyphs" textLength="110" x="360" y="464.9268">invoke(monitor, **args)</text><rect fill="#FEFECE" filter="url(#f1)" height="103.3438" style="stroke: #A80036; stroke-width: 1.5;" width="134" x="35" y="368"/><ellipse cx="75.2" cy="384" fill="#ADD1B2" rx="11" ry="11" style="stroke: #A80036; stroke-width: 1.0;"/><path d="M77.9656,379.875 Q78.1219,379.6563 78.3094,379.5469 Q78.4969,379.4375 78.7156,379.4375 Q79.0906,379.4375 79.325,379.6953 Q79.5594,379.9531 79.5594,380.5625 L79.5594,382.0156 Q79.5594,382.625 79.325,382.8906 Q79.0906,383.1563 78.7156,383.1563 Q78.3719,383.1563 78.1688,382.9531 Q77.9656,382.7656 77.8563,382.25 Q77.8094,381.8906 77.6219,381.7031 Q77.2938,381.3281 76.6844,381.1094 Q76.075,380.8906 75.45,380.8906 Q74.6844,380.8906 74.0516,381.2188 Q73.4188,381.5469 72.9266,382.2969 Q72.4344,383.0469 72.4344,384.0781 L72.4344,385.1719 Q72.4344,386.4063 73.325,387.2266 Q74.2156,388.0469 75.8094,388.0469 Q76.7469,388.0469 77.4031,387.7969 Q77.7938,387.6406 78.2156,387.2031 Q78.4813,386.9375 78.6297,386.8594 Q78.7781,386.7813 78.9813,386.7813 Q79.3094,386.7813 79.5672,387.0391 Q79.825,387.2969 79.825,387.6406 Q79.825,387.9844 79.4813,388.3906 Q78.9813,388.9688 78.1844,389.2969 Q77.1063,389.75 75.8094,389.75 Q74.2938,389.75 73.0906,389.125 Q72.1063,388.625 71.4188,387.5547 Q70.7313,386.4844 70.7313,385.2031 L70.7313,384.0469 Q70.7313,382.7188 71.3484,381.5703 Q71.9656,380.4219 73.0594,379.8047 Q74.1531,379.1875 75.3875,379.1875 Q76.1219,379.1875 76.7703,379.3516 Q77.4188,379.5156 77.9656,379.875 Z "/><text fill="#000000" font-family="sans-serif" font-size="12" lengthAdjust="spacingAndGlyphs" textLength="46" x="94.8" y="388.9102">OpNode</text><line style="stroke: #A80036; stroke-width: 1.5;" x1="36" x2="168" y1="400" y2="400"/><text fill="#000000" font-family="sans-serif" font-size="11" lengthAdjust="spacingAndGlyphs" textLength="66" x="41" y="415.4189">op_name : str</text><line style="stroke: #A80036; stroke-width: 1.5;" x1="36" x2="168" y1="421.8359" y2="421.8359"/><text fill="#000000" font-family="sans-serif" font-size="11" lengthAdjust="spacingAndGlyphs" textLength="122" x="41" y="437.2549">from_json_dict(json_dict)</text><text fill="#000000" font-family="sans-serif" font-size="11" lengthAdjust="spacingAndGlyphs" textLength="92" x="41" y="451.0908">to_json_dict() : dict</text><text fill="#000000" font-family="sans-serif" font-size="11" lengthAdjust="spacingAndGlyphs" textLength="110" x="41" y="464.9268">invoke(monitor, **args)</text><polygon fill="#FBFB77" filter="url(#f1)" points="48,40,48,66.3516,170,66.3516,170,50,160,40,48,40" style="stroke: #A80036; stroke-width: 1.0;"/><polygon fill="#FBFB77" points="48,40,48,66.3516,170,66.3516,170,58,239.888,53,170,50,170,50,160,40,48,40" style="stroke: #A80036; stroke-width: 1.0;"/><line style="stroke: #A80036; stroke-width: 1.0;" x1="160" x2="160" y1="40" y2="50"/><line style="stroke: #A80036; stroke-width: 1.0;" x1="170" x2="160" y1="50" y2="50"/><text fill="#000000" font-family="sans-serif" font-size="13" lengthAdjust="spacingAndGlyphs" textLength="101" x="54" y="58.4951">Collection pattern</text><path d="M281.452,156.667 C282.692,153.078 283.881,149.512 285,146 C289.887,130.666 294.256,113.59 297.788,98.352 " fill="none" style="stroke: #A80036; stroke-width: 1.0; stroke-dasharray: 7.0,7.0;"/><polygon fill="none" points="287.871,159.499,274.443,175.891,274.717,154.703,287.871,159.499" style="stroke: #A80036; stroke-width: 1.0;"/><path d="M250.086,108.773 C246.053,114.887 242.571,121.329 240,128 C235.807,138.879 233.945,150.787 233.555,162.657 " fill="none" style="stroke: #A80036; stroke-width: 1.0;"/><polygon fill="#A80036" points="233.696,175.984,237.6008,166.9423,233.6432,170.9843,229.6013,167.0267,233.696,175.984" style="stroke: #A80036; stroke-width: 1.0;"/><line style="stroke: #A80036; stroke-width: 1.0;" x1="233.6432" x2="233.5585" y1="170.9843" y2="162.985"/><polygon fill="#FFFFFF" points="257.862,98.143,251.0911,100.624,250.7771,107.8282,257.5479,105.3473,257.862,98.143" style="stroke: #A80036; stroke-width: 1.0;"/><text fill="#000000" font-family="sans-serif" font-size="13" lengthAdjust="spacingAndGlyphs" textLength="35" x="241" y="142.4951">nodes</text><text fill="#000000" font-family="sans-serif" font-size="13" lengthAdjust="spacingAndGlyphs" textLength="24" x="206.7702" y="164.9983">0..N</text><path d="M324.942,321.338 C340.52,337.095 356.491,353.249 370.825,367.748 " fill="none" style="stroke: #A80036; stroke-width: 1.0; stroke-dasharray: 7.0,7.0;"/><polygon fill="none" points="319.886,326.181,310.803,307.037,329.842,316.338,319.886,326.181" style="stroke: #A80036; stroke-width: 1.0;"/><path d="M180.855,322.786 C168.253,338.083 155.392,353.693 143.812,367.748 " fill="none" style="stroke: #A80036; stroke-width: 1.0; stroke-dasharray: 7.0,7.0;"/><polygon fill="none" points="175.711,318.022,193.831,307.037,186.516,326.924,175.711,318.022" style="stroke: #A80036; stroke-width: 1.0;"/><path d="M405.855,367.78 C391.107,318.653 367.918,242.096 347,176 C339.403,151.995 330.723,125.422 323.394,103.22 " fill="none" style="stroke: #A80036; stroke-width: 1.0;"/><polygon fill="#A80036" points="321.755,98.261,320.7798,108.0615,323.3233,103.0087,328.376,105.5522,321.755,98.261" style="stroke: #A80036; stroke-width: 1.0;"/><text fill="#000000" font-family="sans-serif" font-size="13" lengthAdjust="spacingAndGlyphs" textLength="32" x="387" y="246.9951">graph</text><path d="M100.4859,471.221 C99.3341,509.809 97.7912,561.496 96.8478,593.099 " fill="none" style="stroke: #A80036; stroke-width: 1.0;"/><polygon fill="#A80036" points="96.6903,598.375,100.9585,589.499,96.8403,593.3773,92.9621,589.2591,96.6903,598.375" style="stroke: #A80036; stroke-width: 1.0;"/><text fill="#000000" font-family="sans-serif" font-size="13" lengthAdjust="spacingAndGlyphs" textLength="85" x="100" y="515.4951">op_registration</text><path d="M246.146,307.222 C245.187,379.958 243.645,496.845 242.736,565.708 " fill="none" style="stroke: #A80036; stroke-width: 1.0;"/><polygon fill="#A80036" points="242.666,570.99,246.784,562.0434,242.7317,565.9904,238.7847,561.9382,242.666,570.99" style="stroke: #A80036; stroke-width: 1.0;"/><text fill="#000000" font-family="sans-serif" font-size="13" lengthAdjust="spacingAndGlyphs" textLength="77" x="246" y="424.9951">op_meta_info</text></g></svg>