<?xml version="1.0" encoding="UTF-8" standalone="yes"?><svg xmlns="http://www.w3.org/2000/svg" xmlns:xlink="http://www.w3.org/1999/xlink" height="273px" style="width:242px;height:273px;" version="1.1" viewBox="0 0 242 273" width="242px"><defs><filter height="300%" id="f1" width="300%" x="-1" y="-1"><feGaussianBlur result="blurOut" stdDeviation="2.0"/><feColorMatrix in="blurOut" result="blurOut2" type="matrix" values="0 0 0 0 0 0 0 0 0 0 0 0 0 0 0 0 0 0 .4 0"/><feOffset dx="4.0" dy="4.0" in="blurOut2" result="blurOut3"/><feBlend in="SourceGraphic" in2="blurOut3" mode="normal"/></filter></defs><g><rect fill="#FEFECE" filter="url(#f1)" height="103.3438" style="stroke: #A80036; stroke-width: 1.5;" width="138" x="33.3619" y="8"/><ellipse cx="83.1119" cy="24" fill="#ADD1B2" rx="11" ry="11" style="stroke: #A80036; stroke-width: 1.0;"/><path d="M85.8775,19.875 Q86.0338,19.6563 86.2213,19.5469 Q86.4088,19.4375 86.6275,19.4375 Q87.0025,19.4375 87.2369,19.6953 Q87.4713,19.9531 87.4713,20.5625 L87.4713,22.0156 Q87.4713,22.625 87.2369,22.8906 Q87.0025,23.1563 86.6275,23.1563 Q86.2838,23.1563 86.0806,22.9531 Q85.8775,22.7656 85.7681,22.25 Q85.7213,21.8906 85.5338,21.7031 Q85.2056,21.3281 84.5963,21.1094 Q83.9869,20.8906 83.3619,20.8906 Q82.5963,20.8906 81.9635,21.2188 Q81.3306,21.5469 80.8385,22.2969 Q80.3463,23.0469 80.3463,24.0781 L80.3463,25.1719 Q80.3463,26.4063 81.2369,27.2266 Q82.1275,28.0469 83.7213,28.0469 Q84.6588,28.0469 85.315,27.7969 Q85.7056,27.6406 86.1275,27.2031 Q86.3931,26.9375 86.5416,26.8594 Q86.69,26.7813 86.8931,26.7813 Q87.2213,26.7813 87.4791,27.0391 Q87.7369,27.2969 87.7369,27.6406 Q87.7369,27.9844 87.3931,28.3906 Q86.8931,28.9688 86.0963,29.2969 Q85.0181,29.75 83.7213,29.75 Q82.2056,29.75 81.0025,29.125 Q80.0181,28.625 79.3306,27.5547 Q78.6431,26.4844 78.6431,25.2031 L78.6431,24.0469 Q78.6431,22.7188 79.2603,21.5703 Q79.8775,20.4219 80.9713,19.8047 Q82.065,19.1875 83.2994,19.1875 Q84.0338,19.1875 84.6822,19.3516 Q85.3306,19.5156 85.8775,19.875 Z "/><text fill="#000000" font-family="sans-serif" font-size="12" lengthAdjust="spacingAndGlyphs" textLength="30" x="103.6119" y="28.9102">Node</text><line style="stroke: #A80036; stroke-width: 1.5;" x1="34.3619" x2="170.3619" y1="40" y2="40"/><text fill="#000000" font-family="sans-serif" font-size="11" lengthAdjust="spacingAndGlyphs" textLength="30" x="39.3619" y="55.4189">id : str</text><line style="stroke: #A80036; stroke-width: 1.5;" x1="34.3619" x2="170.3619" y1="61.8359" y2="61.8359"/><text fill="#000000" font-family="sans-serif" font-size="11" font-style="italic" lengthAdjust="spacingAndGlyphs" textLength="126" x="39.3619" y="77.2549">from_json_dict(json_dict)</text><text fill="#000000" font-family="sans-serif" font-size="11" font-style="italic" lengthAdjust="spacingAndGlyphs" textLength="95" x="39.3619" y="91.0908">to_json_dict() : dict</text><text fill="#000000" font-family="sans-serif" font-size="11" font-style="italic" lengthAdjust="spacingAndGlyphs" textLength="113" x="39.3619" y="104.9268">invoke(monitor, **args)</text><rect fill="#FEFECE" filter="url(#f1)" height="75.6719" style="stroke: #A80036; stroke-width: 1.5;" width="119" x="42.8619" y="189"/><ellipse cx="57.8619" cy="205" fill="#ADD1B2" rx="11" ry="11" style="stroke: #A80036; stroke-width: 1.0;"/><path d="M60.6275,200.875 Q60.7838,200.6563 60.9713,200.5469 Q61.1588,200.4375 61.3775,200.4375 Q61.7525,200.4375 61.9869,200.6953 Q62.2213,200.9531 62.2213,201.5625 L62.2213,203.0156 Q62.2213,203.625 61.9869,203.8906 Q61.7525,204.1563 61.3775,204.1563 Q61.0338,204.1563 60.8307,203.9531 Q60.6275,203.7656 60.5182,203.25 Q60.4713,202.8906 60.2838,202.7031 Q59.9557,202.3281 59.3463,202.1094 Q58.7369,201.8906 58.1119,201.8906 Q57.3463,201.8906 56.7135,202.2188 Q56.0807,202.5469 55.5885,203.2969 Q55.0963,204.0469 55.0963,205.0781 L55.0963,206.1719 Q55.0963,207.4063 55.9869,208.2266 Q56.8775,209.0469 58.4713,209.0469 Q59.4088,209.0469 60.065,208.7969 Q60.4557,208.6406 60.8775,208.2031 Q61.1432,207.9375 61.2916,207.8594 Q61.44,207.7813 61.6432,207.7813 Q61.9713,207.7813 62.2291,208.0391 Q62.4869,208.2969 62.4869,208.6406 Q62.4869,208.9844 62.1432,209.3906 Q61.6432,209.9688 60.8463,210.2969 Q59.7682,210.75 58.4713,210.75 Q56.9557,210.75 55.7525,210.125 Q54.7682,209.625 54.0807,208.5547 Q53.3932,207.4844 53.3932,206.2031 L53.3932,205.0469 Q53.3932,203.7188 54.0103,202.5703 Q54.6275,201.4219 55.7213,200.8047 Q56.815,200.1875 58.0494,200.1875 Q58.7838,200.1875 59.4322,200.3516 Q60.0807,200.5156 60.6275,200.875 Z "/><text fill="#000000" font-family="sans-serif" font-size="12" lengthAdjust="spacingAndGlyphs" textLength="87" x="71.8619" y="209.9102">NodeConnector</text><line style="stroke: #A80036; stroke-width: 1.5;" x1="43.8619" x2="160.8619" y1="221" y2="221"/><text fill="#000000" font-family="sans-serif" font-size="11" lengthAdjust="spacingAndGlyphs" textLength="45" x="48.8619" y="236.4189">name: str</text><text fill="#000000" font-family="sans-serif" font-size="11" lengthAdjust="spacingAndGlyphs" textLength="61" x="48.8619" y="250.2549">value: object</text><line style="stroke: #A80036; stroke-width: 1.5;" x1="43.8619" x2="160.8619" y1="256.6719" y2="256.6719"/><path d="M39.1689,121.899 C35.2763,128.005 31.909,134.4 29.362,141 C24.161,154.478 28.1212,167.2889 36.3649,178.6863 " fill="none" style="stroke: #A80036; stroke-width: 1.0;"/><polygon fill="#A80036" points="45,188.7343,42.1677,179.3015,41.7412,184.9422,36.1004,184.5156,45,188.7343" style="stroke: #A80036; stroke-width: 1.0;"/><line style="stroke: #A80036; stroke-width: 1.0;" x1="41.7412" x2="36.527" y1="184.9422" y2="178.8748"/><polygon fill="#FFFFFF" points="46.679,111.235,39.9538,113.8372,39.7692,121.0459,46.4944,118.4437,46.679,111.235" style="stroke: #A80036; stroke-width: 1.0;"/><text fill="#000000" font-family="sans-serif" font-size="13" lengthAdjust="spacingAndGlyphs" textLength="28" x="30.362" y="155.4951">input</text><text fill="#000000" font-family="sans-serif" font-size="13" lengthAdjust="spacingAndGlyphs" textLength="24" x="10.8125" y="179.4841">0..N</text><path d="M99.4331,124.393 C99.185,135.912 99.1116,147.813 99.3619,159 C99.4836,164.435 99.6606,170.1156 99.8688,175.772 " fill="none" style="stroke: #A80036; stroke-width: 1.0;"/><polygon fill="#A80036" points="100.3997,188.7988,104.0299,179.6434,100.1961,183.8029,96.0365,179.9692,100.3997,188.7988" style="stroke: #A80036; stroke-width: 1.0;"/><line style="stroke: #A80036; stroke-width: 1.0;" x1="100.1961" x2="99.8703" y1="183.8029" y2="175.8096"/><polygon fill="#FFFFFF" points="99.7956,111.112,95.6336,117.0008,99.4686,123.1075,103.6306,117.2188,99.7956,111.112" style="stroke: #A80036; stroke-width: 1.0;"/><text fill="#000000" font-family="sans-serif" font-size="13" lengthAdjust="spacingAndGlyphs" textLength="36" x="100.3619" y="155.4951">output</text><text fill="#000000" font-family="sans-serif" font-size="13" lengthAdjust="spacingAndGlyphs" textLength="24" x="73.9127" y="178.1249">0..N</text><path d="M128.54,188.9253 C133.817,179.5756 138.592,169.2655 141.362,159 C145.215,144.721 142.8,129.695 137.674,115.799 " fill="none" style="stroke: #A80036; stroke-width: 1.0;"/><polygon fill="#A80036" points="135.837,111.132,135.4139,120.9718,137.6695,115.7841,142.8572,118.0397,135.837,111.132" style="stroke: #A80036; stroke-width: 1.0;"/><text fill="#000000" font-family="sans-serif" font-size="13" lengthAdjust="spacingAndGlyphs" textLength="28" x="143.362" y="155.4951">node</text><path d="M161.885,212.7509 C181.357,212.8245 196.862,217.5742 196.862,227 C196.862,235.5421 184.128,240.2438 167.248,241.1051 " fill="none" style="stroke: #A80036; stroke-width: 1.0;"/><polygon fill="#A80036" points="161.885,241.2491,170.9892,245.0059,166.8832,241.1148,170.7743,237.0088,161.885,241.2491" style="stroke: #A80036; stroke-width: 1.0;"/><text fill="#000000" font-family="sans-serif" font-size="13" lengthAdjust="spacingAndGlyphs" textLength="39" x="202.862" y="232.4951">source</text></g></svg>