<?xml version="1.0" encoding="UTF-8" standalone="yes"?><svg xmlns="http://www.w3.org/2000/svg" xmlns:xlink="http://www.w3.org/1999/xlink" height="592px" style="width:1384px;height:592px;" version="1.1" viewBox="0 0 1384 592" width="1384px"><defs><filter height="300%" id="f1" width="300%" x="-1" y="-1"><feGaussianBlur result="blurOut" stdDeviation="2.0"/><feColorMatrix in="blurOut" result="blurOut2" type="matrix" values="0 0 0 0 0 0 0 0 0 0 0 0 0 0 0 0 0 0 .4 0"/><feOffset dx="4.0" dy="4.0" in="blurOut2" result="blurOut3"/><feBlend in="SourceGraphic" in2="blurOut3" mode="normal"/></filter></defs><g><rect fill="#FEFECE" filter="url(#f1)" height="61.8359" style="stroke: #A80036; stroke-width: 1.5;" width="71" x="643" y="176"/><ellipse cx="658" cy="192" fill="#B4A7E5" rx="11" ry="11" style="stroke: #A80036; stroke-width: 1.0;"/><path d="M658.9531,188.6406 L658.9531,195.2969 L660.6719,195.2969 Q661.2813,195.2969 661.5469,195.5313 Q661.8125,195.7656 661.8125,196.1563 Q661.8125,196.5313 661.5469,196.7656 Q661.2813,197 660.6719,197 L655.5313,197 Q654.9219,197 654.6563,196.7656 Q654.3906,196.5313 654.3906,196.1406 Q654.3906,195.7656 654.6563,195.5313 Q654.9219,195.2969 655.5313,195.2969 L657.25,195.2969 L657.25,188.6406 L655.5313,188.6406 Q654.9219,188.6406 654.6563,188.4063 Q654.3906,188.1719 654.3906,187.7813 Q654.3906,187.4063 654.6563,187.1719 Q654.9219,186.9375 655.5313,186.9375 L660.6719,186.9375 Q661.2813,186.9375 661.5469,187.1719 Q661.8125,187.4063 661.8125,187.7813 Q661.8125,188.1719 661.5469,188.4063 Q661.2813,188.6406 660.6719,188.6406 L658.9531,188.6406 Z "/><text fill="#000000" font-family="sans-serif" font-size="12" font-style="italic" lengthAdjust="spacingAndGlyphs" textLength="39" x="672" y="196.9102">Source</text><line style="stroke: #A80036; stroke-width: 1.5;" x1="644" x2="713" y1="208" y2="208"/><line style="stroke: #A80036; stroke-width: 1.5;" x1="644" x2="713" y1="216" y2="216"/><text fill="#000000" font-family="sans-serif" font-size="11" font-style="italic" lengthAdjust="spacingAndGlyphs" textLength="55" x="649" y="231.4189">get_value()</text><rect fill="#FEFECE" filter="url(#f1)" height="61.8359" style="stroke: #A80036; stroke-width: 1.5;" width="93" x="6" y="176"/><ellipse cx="32.7" cy="192" fill="#B4A7E5" rx="11" ry="11" style="stroke: #A80036; stroke-width: 1.0;"/><path d="M33.6531,188.6406 L33.6531,195.2969 L35.3719,195.2969 Q35.9813,195.2969 36.2469,195.5313 Q36.5125,195.7656 36.5125,196.1563 Q36.5125,196.5313 36.2469,196.7656 Q35.9813,197 35.3719,197 L30.2313,197 Q29.6219,197 29.3563,196.7656 Q29.0906,196.5313 29.0906,196.1406 Q29.0906,195.7656 29.3563,195.5313 Q29.6219,195.2969 30.2313,195.2969 L31.95,195.2969 L31.95,188.6406 L30.2313,188.6406 Q29.6219,188.6406 29.3563,188.4063 Q29.0906,188.1719 29.0906,187.7813 Q29.0906,187.4063 29.3563,187.1719 Q29.6219,186.9375 30.2313,186.9375 L35.3719,186.9375 Q35.9813,186.9375 36.2469,187.1719 Q36.5125,187.4063 36.5125,187.7813 Q36.5125,188.1719 36.2469,188.4063 Q35.9813,188.6406 35.3719,188.6406 L33.6531,188.6406 Z "/><text fill="#000000" font-family="sans-serif" font-size="12" font-style="italic" lengthAdjust="spacingAndGlyphs" textLength="35" x="49.3" y="196.9102">Target</text><line style="stroke: #A80036; stroke-width: 1.5;" x1="7" x2="98" y1="208" y2="208"/><line style="stroke: #A80036; stroke-width: 1.5;" x1="7" x2="98" y1="216" y2="216"/><text fill="#000000" font-family="sans-serif" font-size="11" font-style="italic" lengthAdjust="spacingAndGlyphs" textLength="81" x="12" y="231.4189">set_value(value)</text><rect fill="#FEFECE" filter="url(#f1)" height="61.8359" style="stroke: #A80036; stroke-width: 1.5;" width="128" x="392.5" y="319.5"/><ellipse cx="407.5" cy="335.5" fill="#ADD1B2" rx="11" ry="11" style="stroke: #A80036; stroke-width: 1.0;"/><path d="M410.2656,331.375 Q410.4219,331.1563 410.6094,331.0469 Q410.7969,330.9375 411.0156,330.9375 Q411.3906,330.9375 411.625,331.1953 Q411.8594,331.4531 411.8594,332.0625 L411.8594,333.5156 Q411.8594,334.125 411.625,334.3906 Q411.3906,334.6563 411.0156,334.6563 Q410.6719,334.6563 410.4688,334.4531 Q410.2656,334.2656 410.1563,333.75 Q410.1094,333.3906 409.9219,333.2031 Q409.5938,332.8281 408.9844,332.6094 Q408.375,332.3906 407.75,332.3906 Q406.9844,332.3906 406.3516,332.7188 Q405.7188,333.0469 405.2266,333.7969 Q404.7344,334.5469 404.7344,335.5781 L404.7344,336.6719 Q404.7344,337.9063 405.625,338.7266 Q406.5156,339.5469 408.1094,339.5469 Q409.0469,339.5469 409.7031,339.2969 Q410.0938,339.1406 410.5156,338.7031 Q410.7813,338.4375 410.9297,338.3594 Q411.0781,338.2813 411.2813,338.2813 Q411.6094,338.2813 411.8672,338.5391 Q412.125,338.7969 412.125,339.1406 Q412.125,339.4844 411.7813,339.8906 Q411.2813,340.4688 410.4844,340.7969 Q409.4063,341.25 408.1094,341.25 Q406.5938,341.25 405.3906,340.625 Q404.4063,340.125 403.7188,339.0547 Q403.0313,337.9844 403.0313,336.7031 L403.0313,335.5469 Q403.0313,334.2188 403.6484,333.0703 Q404.2656,331.9219 405.3594,331.3047 Q406.4531,330.6875 407.6875,330.6875 Q408.4219,330.6875 409.0703,330.8516 Q409.7188,331.0156 410.2656,331.375 Z "/><text fill="#000000" font-family="sans-serif" font-size="12" lengthAdjust="spacingAndGlyphs" textLength="96" x="421.5" y="340.4102">UndefinedSource</text><line style="stroke: #A80036; stroke-width: 1.5;" x1="393.5" x2="519.5" y1="351.5" y2="351.5"/><line style="stroke: #A80036; stroke-width: 1.5;" x1="393.5" x2="519.5" y1="359.5" y2="359.5"/><text fill="#000000" font-family="sans-serif" font-size="11" lengthAdjust="spacingAndGlyphs" textLength="55" x="398.5" y="374.9189">get_value()</text><rect fill="#FEFECE" filter="url(#f1)" height="75.6719" style="stroke: #A80036; stroke-width: 1.5;" width="121" x="627" y="312.5"/><ellipse cx="642" cy="328.5" fill="#ADD1B2" rx="11" ry="11" style="stroke: #A80036; stroke-width: 1.0;"/><path d="M644.7656,324.375 Q644.9219,324.1563 645.1094,324.0469 Q645.2969,323.9375 645.5156,323.9375 Q645.8906,323.9375 646.125,324.1953 Q646.3594,324.4531 646.3594,325.0625 L646.3594,326.5156 Q646.3594,327.125 646.125,327.3906 Q645.8906,327.6563 645.5156,327.6563 Q645.1719,327.6563 644.9688,327.4531 Q644.7656,327.2656 644.6563,326.75 Q644.6094,326.3906 644.4219,326.2031 Q644.0938,325.8281 643.4844,325.6094 Q642.875,325.3906 642.25,325.3906 Q641.4844,325.3906 640.8516,325.7188 Q640.2188,326.0469 639.7266,326.7969 Q639.2344,327.5469 639.2344,328.5781 L639.2344,329.6719 Q639.2344,330.9063 640.125,331.7266 Q641.0156,332.5469 642.6094,332.5469 Q643.5469,332.5469 644.2031,332.2969 Q644.5938,332.1406 645.0156,331.7031 Q645.2813,331.4375 645.4297,331.3594 Q645.5781,331.2813 645.7813,331.2813 Q646.1094,331.2813 646.3672,331.5391 Q646.625,331.7969 646.625,332.1406 Q646.625,332.4844 646.2813,332.8906 Q645.7813,333.4688 644.9844,333.7969 Q643.9063,334.25 642.6094,334.25 Q641.0938,334.25 639.8906,333.625 Q638.9063,333.125 638.2188,332.0547 Q637.5313,330.9844 637.5313,329.7031 L637.5313,328.5469 Q637.5313,327.2188 638.1484,326.0703 Q638.7656,324.9219 639.8594,324.3047 Q640.9531,323.6875 642.1875,323.6875 Q642.9219,323.6875 643.5703,323.8516 Q644.2188,324.0156 644.7656,324.375 Z "/><text fill="#000000" font-family="sans-serif" font-size="12" lengthAdjust="spacingAndGlyphs" textLength="89" x="656" y="333.4102">ConstantSource</text><line style="stroke: #A80036; stroke-width: 1.5;" x1="628" x2="747" y1="344.5" y2="344.5"/><text fill="#000000" font-family="sans-serif" font-size="11" lengthAdjust="spacingAndGlyphs" textLength="42" x="633" y="359.9189">constant</text><line style="stroke: #A80036; stroke-width: 1.5;" x1="628" x2="747" y1="366.3359" y2="366.3359"/><text fill="#000000" font-family="sans-serif" font-size="11" lengthAdjust="spacingAndGlyphs" textLength="55" x="633" y="381.7549">get_value()</text><rect fill="#FEFECE" filter="url(#f1)" height="89.5078" style="stroke: #A80036; stroke-width: 1.5;" width="129" x="76" y="305.5"/><ellipse cx="91" cy="321.5" fill="#ADD1B2" rx="11" ry="11" style="stroke: #A80036; stroke-width: 1.0;"/><path d="M93.7656,317.375 Q93.9219,317.1563 94.1094,317.0469 Q94.2969,316.9375 94.5156,316.9375 Q94.8906,316.9375 95.125,317.1953 Q95.3594,317.4531 95.3594,318.0625 L95.3594,319.5156 Q95.3594,320.125 95.125,320.3906 Q94.8906,320.6563 94.5156,320.6563 Q94.1719,320.6563 93.9688,320.4531 Q93.7656,320.2656 93.6563,319.75 Q93.6094,319.3906 93.4219,319.2031 Q93.0938,318.8281 92.4844,318.6094 Q91.875,318.3906 91.25,318.3906 Q90.4844,318.3906 89.8516,318.7188 Q89.2188,319.0469 88.7266,319.7969 Q88.2344,320.5469 88.2344,321.5781 L88.2344,322.6719 Q88.2344,323.9063 89.125,324.7266 Q90.0156,325.5469 91.6094,325.5469 Q92.5469,325.5469 93.2031,325.2969 Q93.5938,325.1406 94.0156,324.7031 Q94.2813,324.4375 94.4297,324.3594 Q94.5781,324.2813 94.7813,324.2813 Q95.1094,324.2813 95.3672,324.5391 Q95.625,324.7969 95.625,325.1406 Q95.625,325.4844 95.2813,325.8906 Q94.7813,326.4688 93.9844,326.7969 Q92.9063,327.25 91.6094,327.25 Q90.0938,327.25 88.8906,326.625 Q87.9063,326.125 87.2188,325.0547 Q86.5313,323.9844 86.5313,322.7031 L86.5313,321.5469 Q86.5313,320.2188 87.1484,319.0703 Q87.7656,317.9219 88.8594,317.3047 Q89.9531,316.6875 91.1875,316.6875 Q91.9219,316.6875 92.5703,316.8516 Q93.2188,317.0156 93.7656,317.375 Z "/><text fill="#000000" font-family="sans-serif" font-size="12" lengthAdjust="spacingAndGlyphs" textLength="97" x="105" y="326.4102">ParameterSource</text><line style="stroke: #A80036; stroke-width: 1.5;" x1="77" x2="204" y1="337.5" y2="337.5"/><text fill="#000000" font-family="sans-serif" font-size="11" lengthAdjust="spacingAndGlyphs" textLength="26" x="82" y="352.9189">value</text><line style="stroke: #A80036; stroke-width: 1.5;" x1="77" x2="204" y1="359.3359" y2="359.3359"/><text fill="#000000" font-family="sans-serif" font-size="11" lengthAdjust="spacingAndGlyphs" textLength="55" x="82" y="374.7549">get_value()</text><text fill="#000000" font-family="sans-serif" font-size="11" lengthAdjust="spacingAndGlyphs" textLength="81" x="82" y="388.5908">set_value(value)</text><rect fill="#FEFECE" filter="url(#f1)" height="61.8359" style="stroke: #A80036; stroke-width: 1.5;" width="112" x="854.5" y="319.5"/><ellipse cx="869.5" cy="335.5" fill="#ADD1B2" rx="11" ry="11" style="stroke: #A80036; stroke-width: 1.0;"/><path d="M872.2656,331.375 Q872.4219,331.1563 872.6094,331.0469 Q872.7969,330.9375 873.0156,330.9375 Q873.3906,330.9375 873.625,331.1953 Q873.8594,331.4531 873.8594,332.0625 L873.8594,333.5156 Q873.8594,334.125 873.625,334.3906 Q873.3906,334.6563 873.0156,334.6563 Q872.6719,334.6563 872.4688,334.4531 Q872.2656,334.2656 872.1563,333.75 Q872.1094,333.3906 871.9219,333.2031 Q871.5938,332.8281 870.9844,332.6094 Q870.375,332.3906 869.75,332.3906 Q868.9844,332.3906 868.3516,332.7188 Q867.7188,333.0469 867.2266,333.7969 Q866.7344,334.5469 866.7344,335.5781 L866.7344,336.6719 Q866.7344,337.9063 867.625,338.7266 Q868.5156,339.5469 870.1094,339.5469 Q871.0469,339.5469 871.7031,339.2969 Q872.0938,339.1406 872.5156,338.7031 Q872.7813,338.4375 872.9297,338.3594 Q873.0781,338.2813 873.2813,338.2813 Q873.6094,338.2813 873.8672,338.5391 Q874.125,338.7969 874.125,339.1406 Q874.125,339.4844 873.7813,339.8906 Q873.2813,340.4688 872.4844,340.7969 Q871.4063,341.25 870.1094,341.25 Q868.5938,341.25 867.3906,340.625 Q866.4063,340.125 865.7188,339.0547 Q865.0313,337.9844 865.0313,336.7031 L865.0313,335.5469 Q865.0313,334.2188 865.6484,333.0703 Q866.2656,331.9219 867.3594,331.3047 Q868.4531,330.6875 869.6875,330.6875 Q870.4219,330.6875 871.0703,330.8516 Q871.7188,331.0156 872.2656,331.375 Z "/><text fill="#000000" font-family="sans-serif" font-size="12" lengthAdjust="spacingAndGlyphs" textLength="80" x="883.5" y="340.4102">GraphInputRef</text><line style="stroke: #A80036; stroke-width: 1.5;" x1="855.5" x2="965.5" y1="351.5" y2="351.5"/><line style="stroke: #A80036; stroke-width: 1.5;" x1="855.5" x2="965.5" y1="359.5" y2="359.5"/><text fill="#000000" font-family="sans-serif" font-size="11" lengthAdjust="spacingAndGlyphs" textLength="55" x="860.5" y="374.9189">get_value()</text><rect fill="#FEFECE" filter="url(#f1)" height="61.8359" style="stroke: #A80036; stroke-width: 1.5;" width="117" x="240" y="319.5"/><ellipse cx="255" cy="335.5" fill="#ADD1B2" rx="11" ry="11" style="stroke: #A80036; stroke-width: 1.0;"/><path d="M257.7656,331.375 Q257.9219,331.1563 258.1094,331.0469 Q258.2969,330.9375 258.5156,330.9375 Q258.8906,330.9375 259.125,331.1953 Q259.3594,331.4531 259.3594,332.0625 L259.3594,333.5156 Q259.3594,334.125 259.125,334.3906 Q258.8906,334.6563 258.5156,334.6563 Q258.1719,334.6563 257.9688,334.4531 Q257.7656,334.2656 257.6563,333.75 Q257.6094,333.3906 257.4219,333.2031 Q257.0938,332.8281 256.4844,332.6094 Q255.875,332.3906 255.25,332.3906 Q254.4844,332.3906 253.8516,332.7188 Q253.2188,333.0469 252.7266,333.7969 Q252.2344,334.5469 252.2344,335.5781 L252.2344,336.6719 Q252.2344,337.9063 253.125,338.7266 Q254.0156,339.5469 255.6094,339.5469 Q256.5469,339.5469 257.2031,339.2969 Q257.5938,339.1406 258.0156,338.7031 Q258.2813,338.4375 258.4297,338.3594 Q258.5781,338.2813 258.7813,338.2813 Q259.1094,338.2813 259.3672,338.5391 Q259.625,338.7969 259.625,339.1406 Q259.625,339.4844 259.2813,339.8906 Q258.7813,340.4688 257.9844,340.7969 Q256.9063,341.25 255.6094,341.25 Q254.0938,341.25 252.8906,340.625 Q251.9063,340.125 251.2188,339.0547 Q250.5313,337.9844 250.5313,336.7031 L250.5313,335.5469 Q250.5313,334.2188 251.1484,333.0703 Q251.7656,331.9219 252.8594,331.3047 Q253.9531,330.6875 255.1875,330.6875 Q255.9219,330.6875 256.5703,330.8516 Q257.2188,331.0156 257.7656,331.375 Z "/><text fill="#000000" font-family="sans-serif" font-size="12" lengthAdjust="spacingAndGlyphs" textLength="85" x="269" y="340.4102">NodeOutputRef</text><line style="stroke: #A80036; stroke-width: 1.5;" x1="241" x2="356" y1="351.5" y2="351.5"/><line style="stroke: #A80036; stroke-width: 1.5;" x1="241" x2="356" y1="359.5" y2="359.5"/><text fill="#000000" font-family="sans-serif" font-size="11" lengthAdjust="spacingAndGlyphs" textLength="55" x="246" y="374.9189">get_value()</text><rect fill="#FEFECE" filter="url(#f1)" height="89.5078" style="stroke: #A80036; stroke-width: 1.5;" width="133" x="1002" y="8"/><ellipse cx="1028.25" cy="24" fill="#B4A7E5" rx="11" ry="11" style="stroke: #A80036; stroke-width: 1.0;"/><path d="M1029.2031,20.6406 L1029.2031,27.2969 L1030.9219,27.2969 Q1031.5313,27.2969 1031.7969,27.5313 Q1032.0625,27.7656 1032.0625,28.1563 Q1032.0625,28.5313 1031.7969,28.7656 Q1031.5313,29 1030.9219,29 L1025.7813,29 Q1025.1719,29 1024.9063,28.7656 Q1024.6406,28.5313 1024.6406,28.1406 Q1024.6406,27.7656 1024.9063,27.5313 Q1025.1719,27.2969 1025.7813,27.2969 L1027.5,27.2969 L1027.5,20.6406 L1025.7813,20.6406 Q1025.1719,20.6406 1024.9063,20.4063 Q1024.6406,20.1719 1024.6406,19.7813 Q1024.6406,19.4063 1024.9063,19.1719 Q1025.1719,18.9375 1025.7813,18.9375 L1030.9219,18.9375 Q1031.5313,18.9375 1031.7969,19.1719 Q1032.0625,19.4063 1032.0625,19.7813 Q1032.0625,20.1719 1031.7969,20.4063 Q1031.5313,20.6406 1030.9219,20.6406 L1029.2031,20.6406 Z "/><text fill="#000000" font-family="sans-serif" font-size="12" font-style="italic" lengthAdjust="spacingAndGlyphs" textLength="76" x="1044.75" y="28.9102">SourceHolder</text><line style="stroke: #A80036; stroke-width: 1.5;" x1="1003" x2="1134" y1="40" y2="40"/><text fill="#000000" font-family="sans-serif" font-size="11" font-style="italic" lengthAdjust="spacingAndGlyphs" textLength="75" x="1008" y="55.4189">source: Source</text><line style="stroke: #A80036; stroke-width: 1.5;" x1="1003" x2="1134" y1="61.8359" y2="61.8359"/><text fill="#000000" font-family="sans-serif" font-size="11" font-style="italic" lengthAdjust="spacingAndGlyphs" textLength="121" x="1008" y="77.2549">connect_source(source)</text><text fill="#000000" font-family="sans-serif" font-size="11" font-style="italic" lengthAdjust="spacingAndGlyphs" textLength="102" x="1008" y="91.0908">disconnect_source()</text><rect fill="#FEFECE" filter="url(#f1)" height="103.3438" style="stroke: #A80036; stroke-width: 1.5;" width="133" x="1002" y="299"/><ellipse cx="1036.8" cy="315" fill="#ADD1B2" rx="11" ry="11" style="stroke: #A80036; stroke-width: 1.0;"/><path d="M1039.5656,310.875 Q1039.7219,310.6563 1039.9094,310.5469 Q1040.0969,310.4375 1040.3156,310.4375 Q1040.6906,310.4375 1040.925,310.6953 Q1041.1594,310.9531 1041.1594,311.5625 L1041.1594,313.0156 Q1041.1594,313.625 1040.925,313.8906 Q1040.6906,314.1563 1040.3156,314.1563 Q1039.9719,314.1563 1039.7688,313.9531 Q1039.5656,313.7656 1039.4563,313.25 Q1039.4094,312.8906 1039.2219,312.7031 Q1038.8938,312.3281 1038.2844,312.1094 Q1037.675,311.8906 1037.05,311.8906 Q1036.2844,311.8906 1035.6516,312.2188 Q1035.0188,312.5469 1034.5266,313.2969 Q1034.0344,314.0469 1034.0344,315.0781 L1034.0344,316.1719 Q1034.0344,317.4063 1034.925,318.2266 Q1035.8156,319.0469 1037.4094,319.0469 Q1038.3469,319.0469 1039.0031,318.7969 Q1039.3938,318.6406 1039.8156,318.2031 Q1040.0813,317.9375 1040.2297,317.8594 Q1040.3781,317.7813 1040.5813,317.7813 Q1040.9094,317.7813 1041.1672,318.0391 Q1041.425,318.2969 1041.425,318.6406 Q1041.425,318.9844 1041.0813,319.3906 Q1040.5813,319.9688 1039.7844,320.2969 Q1038.7063,320.75 1037.4094,320.75 Q1035.8938,320.75 1034.6906,320.125 Q1033.7063,319.625 1033.0188,318.5547 Q1032.3313,317.4844 1032.3313,316.2031 L1032.3313,315.0469 Q1032.3313,313.7188 1032.9484,312.5703 Q1033.5656,311.4219 1034.6594,310.8047 Q1035.7531,310.1875 1036.9875,310.1875 Q1037.7219,310.1875 1038.3703,310.3516 Q1039.0188,310.5156 1039.5656,310.875 Z "/><text fill="#000000" font-family="sans-serif" font-size="12" lengthAdjust="spacingAndGlyphs" textLength="57" x="1055.2" y="319.9102">NodeInput</text><line style="stroke: #A80036; stroke-width: 1.5;" x1="1003" x2="1134" y1="331" y2="331"/><text fill="#000000" font-family="sans-serif" font-size="11" lengthAdjust="spacingAndGlyphs" textLength="45" x="1008" y="346.4189">name: str</text><line style="stroke: #A80036; stroke-width: 1.5;" x1="1003" x2="1134" y1="352.8359" y2="352.8359"/><text fill="#000000" font-family="sans-serif" font-size="11" lengthAdjust="spacingAndGlyphs" textLength="55" x="1008" y="368.2549">get_value()</text><text fill="#000000" font-family="sans-serif" font-size="11" lengthAdjust="spacingAndGlyphs" textLength="121" x="1008" y="382.0908">connect_source(source)</text><text fill="#000000" font-family="sans-serif" font-size="11" lengthAdjust="spacingAndGlyphs" textLength="101" x="1008" y="395.9268">disconnect_source()</text><rect fill="#FEFECE" filter="url(#f1)" height="103.3438" style="stroke: #A80036; stroke-width: 1.5;" width="98" x="431.5" y="480"/><ellipse cx="446.5" cy="496" fill="#ADD1B2" rx="11" ry="11" style="stroke: #A80036; stroke-width: 1.0;"/><path d="M449.2656,491.875 Q449.4219,491.6563 449.6094,491.5469 Q449.7969,491.4375 450.0156,491.4375 Q450.3906,491.4375 450.625,491.6953 Q450.8594,491.9531 450.8594,492.5625 L450.8594,494.0156 Q450.8594,494.625 450.625,494.8906 Q450.3906,495.1563 450.0156,495.1563 Q449.6719,495.1563 449.4688,494.9531 Q449.2656,494.7656 449.1563,494.25 Q449.1094,493.8906 448.9219,493.7031 Q448.5938,493.3281 447.9844,493.1094 Q447.375,492.8906 446.75,492.8906 Q445.9844,492.8906 445.3516,493.2188 Q444.7188,493.5469 444.2266,494.2969 Q443.7344,495.0469 443.7344,496.0781 L443.7344,497.1719 Q443.7344,498.4063 444.625,499.2266 Q445.5156,500.0469 447.1094,500.0469 Q448.0469,500.0469 448.7031,499.7969 Q449.0938,499.6406 449.5156,499.2031 Q449.7813,498.9375 449.9297,498.8594 Q450.0781,498.7813 450.2813,498.7813 Q450.6094,498.7813 450.8672,499.0391 Q451.125,499.2969 451.125,499.6406 Q451.125,499.9844 450.7813,500.3906 Q450.2813,500.9688 449.4844,501.2969 Q448.4063,501.75 447.1094,501.75 Q445.5938,501.75 444.3906,501.125 Q443.4063,500.625 442.7188,499.5547 Q442.0313,498.4844 442.0313,497.2031 L442.0313,496.0469 Q442.0313,494.7188 442.6484,493.5703 Q443.2656,492.4219 444.3594,491.8047 Q445.4531,491.1875 446.6875,491.1875 Q447.4219,491.1875 448.0703,491.3516 Q448.7188,491.5156 449.2656,491.875 Z "/><text fill="#000000" font-family="sans-serif" font-size="12" lengthAdjust="spacingAndGlyphs" textLength="66" x="460.5" y="500.9102">NodeOutput</text><line style="stroke: #A80036; stroke-width: 1.5;" x1="432.5" x2="528.5" y1="512" y2="512"/><text fill="#000000" font-family="sans-serif" font-size="11" lengthAdjust="spacingAndGlyphs" textLength="45" x="437.5" y="527.4189">name: str</text><text fill="#000000" font-family="sans-serif" font-size="11" lengthAdjust="spacingAndGlyphs" textLength="61" x="437.5" y="541.2549">value: object</text><line style="stroke: #A80036; stroke-width: 1.5;" x1="432.5" x2="528.5" y1="547.6719" y2="547.6719"/><text fill="#000000" font-family="sans-serif" font-size="11" lengthAdjust="spacingAndGlyphs" textLength="55" x="437.5" y="563.0908">get_value()</text><text fill="#000000" font-family="sans-serif" font-size="11" lengthAdjust="spacingAndGlyphs" textLength="81" x="437.5" y="576.9268">set_value(value)</text><rect fill="#FEFECE" filter="url(#f1)" height="48" style="stroke: #A80036; stroke-width: 1.5;" width="91" x="840" y="183"/><ellipse cx="855" cy="199" fill="#ADD1B2" rx="11" ry="11" style="stroke: #A80036; stroke-width: 1.0;"/><path d="M857.7656,194.875 Q857.9219,194.6563 858.1094,194.5469 Q858.2969,194.4375 858.5156,194.4375 Q858.8906,194.4375 859.125,194.6953 Q859.3594,194.9531 859.3594,195.5625 L859.3594,197.0156 Q859.3594,197.625 859.125,197.8906 Q858.8906,198.1563 858.5156,198.1563 Q858.1719,198.1563 857.9688,197.9531 Q857.7656,197.7656 857.6563,197.25 Q857.6094,196.8906 857.4219,196.7031 Q857.0938,196.3281 856.4844,196.1094 Q855.875,195.8906 855.25,195.8906 Q854.4844,195.8906 853.8516,196.2188 Q853.2188,196.5469 852.7266,197.2969 Q852.2344,198.0469 852.2344,199.0781 L852.2344,200.1719 Q852.2344,201.4063 853.125,202.2266 Q854.0156,203.0469 855.6094,203.0469 Q856.5469,203.0469 857.2031,202.7969 Q857.5938,202.6406 858.0156,202.2031 Q858.2813,201.9375 858.4297,201.8594 Q858.5781,201.7813 858.7813,201.7813 Q859.1094,201.7813 859.3672,202.0391 Q859.625,202.2969 859.625,202.6406 Q859.625,202.9844 859.2813,203.3906 Q858.7813,203.9688 857.9844,204.2969 Q856.9063,204.75 855.6094,204.75 Q854.0938,204.75 852.8906,204.125 Q851.9063,203.625 851.2188,202.5547 Q850.5313,201.4844 850.5313,200.2031 L850.5313,199.0469 Q850.5313,197.7188 851.1484,196.5703 Q851.7656,195.4219 852.8594,194.8047 Q853.9531,194.1875 855.1875,194.1875 Q855.9219,194.1875 856.5703,194.3516 Q857.2188,194.5156 857.7656,194.875 Z "/><text fill="#000000" font-family="sans-serif" font-size="12" lengthAdjust="spacingAndGlyphs" textLength="59" x="869" y="203.9102">ChildNode</text><line style="stroke: #A80036; stroke-width: 1.5;" x1="841" x2="930" y1="215" y2="215"/><line style="stroke: #A80036; stroke-width: 1.5;" x1="841" x2="930" y1="223" y2="223"/><rect fill="#FEFECE" filter="url(#f1)" height="48" style="stroke: #A80036; stroke-width: 1.5;" width="66" x="1163.5" y="183"/><ellipse cx="1178.5" cy="199" fill="#ADD1B2" rx="11" ry="11" style="stroke: #A80036; stroke-width: 1.0;"/><path d="M1181.2656,194.875 Q1181.4219,194.6563 1181.6094,194.5469 Q1181.7969,194.4375 1182.0156,194.4375 Q1182.3906,194.4375 1182.625,194.6953 Q1182.8594,194.9531 1182.8594,195.5625 L1182.8594,197.0156 Q1182.8594,197.625 1182.625,197.8906 Q1182.3906,198.1563 1182.0156,198.1563 Q1181.6719,198.1563 1181.4688,197.9531 Q1181.2656,197.7656 1181.1563,197.25 Q1181.1094,196.8906 1180.9219,196.7031 Q1180.5938,196.3281 1179.9844,196.1094 Q1179.375,195.8906 1178.75,195.8906 Q1177.9844,195.8906 1177.3516,196.2188 Q1176.7188,196.5469 1176.2266,197.2969 Q1175.7344,198.0469 1175.7344,199.0781 L1175.7344,200.1719 Q1175.7344,201.4063 1176.625,202.2266 Q1177.5156,203.0469 1179.1094,203.0469 Q1180.0469,203.0469 1180.7031,202.7969 Q1181.0938,202.6406 1181.5156,202.2031 Q1181.7813,201.9375 1181.9297,201.8594 Q1182.0781,201.7813 1182.2813,201.7813 Q1182.6094,201.7813 1182.8672,202.0391 Q1183.125,202.2969 1183.125,202.6406 Q1183.125,202.9844 1182.7813,203.3906 Q1182.2813,203.9688 1181.4844,204.2969 Q1180.4063,204.75 1179.1094,204.75 Q1177.5938,204.75 1176.3906,204.125 Q1175.4063,203.625 1174.7188,202.5547 Q1174.0313,201.4844 1174.0313,200.2031 L1174.0313,199.0469 Q1174.0313,197.7188 1174.6484,196.5703 Q1175.2656,195.4219 1176.3594,194.8047 Q1177.4531,194.1875 1178.6875,194.1875 Q1179.4219,194.1875 1180.0703,194.3516 Q1180.7188,194.5156 1181.2656,194.875 Z "/><text fill="#000000" font-family="sans-serif" font-size="12" lengthAdjust="spacingAndGlyphs" textLength="34" x="1192.5" y="203.9102">Graph</text><line style="stroke: #A80036; stroke-width: 1.5;" x1="1164.5" x2="1228.5" y1="215" y2="215"/><line style="stroke: #A80036; stroke-width: 1.5;" x1="1164.5" x2="1228.5" y1="223" y2="223"/><rect fill="#FEFECE" filter="url(#f1)" height="48" style="stroke: #A80036; stroke-width: 1.5;" width="93" x="1022" y="507.5"/><ellipse cx="1037" cy="523.5" fill="#ADD1B2" rx="11" ry="11" style="stroke: #A80036; stroke-width: 1.0;"/><path d="M1039.7656,519.375 Q1039.9219,519.1563 1040.1094,519.0469 Q1040.2969,518.9375 1040.5156,518.9375 Q1040.8906,518.9375 1041.125,519.1953 Q1041.3594,519.4531 1041.3594,520.0625 L1041.3594,521.5156 Q1041.3594,522.125 1041.125,522.3906 Q1040.8906,522.6563 1040.5156,522.6563 Q1040.1719,522.6563 1039.9688,522.4531 Q1039.7656,522.2656 1039.6563,521.75 Q1039.6094,521.3906 1039.4219,521.2031 Q1039.0938,520.8281 1038.4844,520.6094 Q1037.875,520.3906 1037.25,520.3906 Q1036.4844,520.3906 1035.8516,520.7188 Q1035.2188,521.0469 1034.7266,521.7969 Q1034.2344,522.5469 1034.2344,523.5781 L1034.2344,524.6719 Q1034.2344,525.9063 1035.125,526.7266 Q1036.0156,527.5469 1037.6094,527.5469 Q1038.5469,527.5469 1039.2031,527.2969 Q1039.5938,527.1406 1040.0156,526.7031 Q1040.2813,526.4375 1040.4297,526.3594 Q1040.5781,526.2813 1040.7813,526.2813 Q1041.1094,526.2813 1041.3672,526.5391 Q1041.625,526.7969 1041.625,527.1406 Q1041.625,527.4844 1041.2813,527.8906 Q1040.7813,528.4688 1039.9844,528.7969 Q1038.9063,529.25 1037.6094,529.25 Q1036.0938,529.25 1034.8906,528.625 Q1033.9063,528.125 1033.2188,527.0547 Q1032.5313,525.9844 1032.5313,524.7031 L1032.5313,523.5469 Q1032.5313,522.2188 1033.1484,521.0703 Q1033.7656,519.9219 1034.8594,519.3047 Q1035.9531,518.6875 1037.1875,518.6875 Q1037.9219,518.6875 1038.5703,518.8516 Q1039.2188,519.0156 1039.7656,519.375 Z "/><text fill="#000000" font-family="sans-serif" font-size="12" lengthAdjust="spacingAndGlyphs" textLength="61" x="1051" y="528.4102">GraphInput</text><line style="stroke: #A80036; stroke-width: 1.5;" x1="1023" x2="1114" y1="539.5" y2="539.5"/><line style="stroke: #A80036; stroke-width: 1.5;" x1="1023" x2="1114" y1="547.5" y2="547.5"/><rect fill="#FEFECE" filter="url(#f1)" height="103.3438" style="stroke: #A80036; stroke-width: 1.5;" width="133" x="1242" y="299"/><ellipse cx="1270.95" cy="315" fill="#ADD1B2" rx="11" ry="11" style="stroke: #A80036; stroke-width: 1.0;"/><path d="M1273.7156,310.875 Q1273.8719,310.6563 1274.0594,310.5469 Q1274.2469,310.4375 1274.4656,310.4375 Q1274.8406,310.4375 1275.075,310.6953 Q1275.3094,310.9531 1275.3094,311.5625 L1275.3094,313.0156 Q1275.3094,313.625 1275.075,313.8906 Q1274.8406,314.1563 1274.4656,314.1563 Q1274.1219,314.1563 1273.9188,313.9531 Q1273.7156,313.7656 1273.6063,313.25 Q1273.5594,312.8906 1273.3719,312.7031 Q1273.0438,312.3281 1272.4344,312.1094 Q1271.825,311.8906 1271.2,311.8906 Q1270.4344,311.8906 1269.8016,312.2188 Q1269.1688,312.5469 1268.6766,313.2969 Q1268.1844,314.0469 1268.1844,315.0781 L1268.1844,316.1719 Q1268.1844,317.4063 1269.075,318.2266 Q1269.9656,319.0469 1271.5594,319.0469 Q1272.4969,319.0469 1273.1531,318.7969 Q1273.5438,318.6406 1273.9656,318.2031 Q1274.2313,317.9375 1274.3797,317.8594 Q1274.5281,317.7813 1274.7313,317.7813 Q1275.0594,317.7813 1275.3172,318.0391 Q1275.575,318.2969 1275.575,318.6406 Q1275.575,318.9844 1275.2313,319.3906 Q1274.7313,319.9688 1273.9344,320.2969 Q1272.8563,320.75 1271.5594,320.75 Q1270.0438,320.75 1268.8406,320.125 Q1267.8563,319.625 1267.1688,318.5547 Q1266.4813,317.4844 1266.4813,316.2031 L1266.4813,315.0469 Q1266.4813,313.7188 1267.0984,312.5703 Q1267.7156,311.4219 1268.8094,310.8047 Q1269.9031,310.1875 1271.1375,310.1875 Q1271.8719,310.1875 1272.5203,310.3516 Q1273.1688,310.5156 1273.7156,310.875 Z "/><text fill="#000000" font-family="sans-serif" font-size="12" lengthAdjust="spacingAndGlyphs" textLength="70" x="1288.05" y="319.9102">GraphOutput</text><line style="stroke: #A80036; stroke-width: 1.5;" x1="1243" x2="1374" y1="331" y2="331"/><text fill="#000000" font-family="sans-serif" font-size="11" lengthAdjust="spacingAndGlyphs" textLength="45" x="1248" y="346.4189">name: str</text><line style="stroke: #A80036; stroke-width: 1.5;" x1="1243" x2="1374" y1="352.8359" y2="352.8359"/><text fill="#000000" font-family="sans-serif" font-size="11" lengthAdjust="spacingAndGlyphs" textLength="55" x="1248" y="368.2549">get_value()</text><text fill="#000000" font-family="sans-serif" font-size="11" lengthAdjust="spacingAndGlyphs" textLength="121" x="1248" y="382.0908">connect_source(source)</text><text fill="#000000" font-family="sans-serif" font-size="11" lengthAdjust="spacingAndGlyphs" textLength="101" x="1248" y="395.9268">disconnect_source()</text><path d="M623.965,228.626 C599.668,238.896 571.24,252.448 547.5,268 C525.147,282.643 502.753,302.615 485.773,319.123 " fill="none" style="stroke: #A80036; stroke-width: 1.0; stroke-dasharray: 7.0,7.0;"/><polygon fill="none" points="621.639,222.015,642.803,220.959,626.917,234.982,621.639,222.015" style="stroke: #A80036; stroke-width: 1.0;"/><path d="M681.692,258.18 C682.83,276.076 684.091,295.895 685.146,312.484 " fill="none" style="stroke: #A80036; stroke-width: 1.0; stroke-dasharray: 7.0,7.0;"/><polygon fill="none" points="674.692,258.413,680.409,238.009,688.664,257.524,674.692,258.413" style="stroke: #A80036; stroke-width: 1.0;"/><path d="M622.881,212.702 C535.162,221.515 360.48,244.77 222.5,299 C216.743,301.263 210.937,303.926 205.216,306.828 " fill="none" style="stroke: #A80036; stroke-width: 1.0; stroke-dasharray: 7.0,7.0;"/><polygon fill="none" points="622.41,205.716,642.984,210.785,623.739,219.652,622.41,205.716" style="stroke: #A80036; stroke-width: 1.0;"/><path d="M81.8846,255.249 C91.9283,271.399 103.1181,289.392 113.007,305.292 " fill="none" style="stroke: #A80036; stroke-width: 1.0; stroke-dasharray: 7.0,7.0;"/><polygon fill="none" points="75.7805,258.689,71.1625,238.009,87.669,251.295,75.7805,258.689" style="stroke: #A80036; stroke-width: 1.0;"/><path d="M720.187,251.933 C727.004,258.044 734.225,263.949 741.5,269 C776.604,293.373 820.236,313.948 854.373,328.194 " fill="none" style="stroke: #A80036; stroke-width: 1.0; stroke-dasharray: 7.0,7.0;"/><polygon fill="none" points="715.267,256.915,705.618,238.05,724.926,246.78,715.267,256.915" style="stroke: #A80036; stroke-width: 1.0;"/><path d="M622.728,219.469 C560.35,233.474 457.218,260.192 374.5,299 C362.453,304.652 350.129,312.032 339.007,319.397 " fill="none" style="stroke: #A80036; stroke-width: 1.0; stroke-dasharray: 7.0,7.0;"/><polygon fill="none" points="621.579,212.555,642.612,215.127,624.566,226.233,621.579,212.555" style="stroke: #A80036; stroke-width: 1.0;"/><path d="M733.257,227.849 C768.954,240.443 816.691,256.634 859.5,269 C913.974,284.736 930.986,277.615 983.5,299 C989.541,301.46 995.661,304.303 1001.705,307.36 " fill="none" style="stroke: #A80036; stroke-width: 1.0; stroke-dasharray: 7.0,7.0;"/><polygon fill="none" points="730.76,234.391,714.266,221.089,735.455,221.202,730.76,234.391" style="stroke: #A80036; stroke-width: 1.0;"/><path d="M1068.5,118.513 C1068.5,172.645 1068.5,248.902 1068.5,298.755 " fill="none" style="stroke: #A80036; stroke-width: 1.0; stroke-dasharray: 7.0,7.0;"/><polygon fill="none" points="1061.5,118.239,1068.5,98.239,1075.5,118.239,1061.5,118.239" style="stroke: #A80036; stroke-width: 1.0;"/><path d="M641.246,254.519 C630.575,268.525 619.212,284.13 609.5,299 C570.252,359.093 530.935,431.913 506.207,479.633 " fill="none" style="stroke: #A80036; stroke-width: 1.0; stroke-dasharray: 7.0,7.0;"/><polygon fill="none" points="635.971,249.899,653.76,238.385,647.033,258.479,635.971,249.899" style="stroke: #A80036; stroke-width: 1.0;"/><path d="M39.2882,257.736 C31.1077,300.402 27.3387,361.269 58.5,402 C104.3952,461.989 330.099,505.8224 431.277,522.7816 " fill="none" style="stroke: #A80036; stroke-width: 1.0; stroke-dasharray: 7.0,7.0;"/><polygon fill="none" points="32.4653,256.169,43.5947,238.137,46.1391,259.174,32.4653,256.169" style="stroke: #A80036; stroke-width: 1.0;"/><path d="M1068.5,422.558 C1068.5,452.731 1068.5,485.8264 1068.5,507.311 " fill="none" style="stroke: #A80036; stroke-width: 1.0;"/><polygon fill="none" points="1061.5,422.315,1068.5,402.315,1075.5,422.315,1061.5,422.315" style="stroke: #A80036; stroke-width: 1.0;"/><path d="M733.855,219.837 C760.606,225.48 793.192,232.239 822.5,238 C968.851,266.767 1007.91,262.399 1152.5,299 C1182.17,306.51 1214.43,316.617 1241.87,325.817 " fill="none" style="stroke: #A80036; stroke-width: 1.0; stroke-dasharray: 7.0,7.0;"/><polygon fill="none" points="732.371,226.679,714.257,215.684,735.274,212.983,732.371,226.679" style="stroke: #A80036; stroke-width: 1.0;"/><path d="M1152.75,96.139 C1186.13,116.385 1222.44,143.395 1247.5,176 C1275.23,212.074 1290.99,261.746 1299.51,298.701 " fill="none" style="stroke: #A80036; stroke-width: 1.0; stroke-dasharray: 7.0,7.0;"/><polygon fill="none" points="1148.89,101.992,1135.12,85.886,1155.93,89.89,1148.89,101.992" style="stroke: #A80036; stroke-width: 1.0;"/><path d="M934.387,381.729 C950.223,401.472 971.664,427.642 991.5,450 C1007.71,468.271 1026.67,488.1073 1041.71,503.5172 " fill="none" style="stroke: #A80036; stroke-width: 1.0;"/><polygon fill="#A80036" points="1045.45,507.3359,1042.0295,498.1001,1041.9589,503.7565,1036.3025,503.6859,1045.45,507.3359" style="stroke: #A80036; stroke-width: 1.0;"/><text fill="#000000" font-family="sans-serif" font-size="13" lengthAdjust="spacingAndGlyphs" textLength="67" x="992.5" y="446.4951">graph_input</text><path d="M329.374,381.865 C356.174,408.223 395.568,446.968 427.416,478.291 " fill="none" style="stroke: #A80036; stroke-width: 1.0;"/><polygon fill="#A80036" points="431.261,482.073,427.6495,472.9102,427.6963,478.5669,422.0396,478.6137,431.261,482.073" style="stroke: #A80036; stroke-width: 1.0;"/><text fill="#000000" font-family="sans-serif" font-size="13" lengthAdjust="spacingAndGlyphs" textLength="71" x="396.5" y="446.4951">node_output</text><path d="M1001.9,79.957 C920.635,111.629 785.813,164.175 718.834,190.28 " fill="none" style="stroke: #A80036; stroke-width: 1.0;"/><polygon fill="#A80036" points="714.131,192.113,723.9692,192.5716,718.7897,190.2973,721.064,185.1177,714.131,192.113" style="stroke: #A80036; stroke-width: 1.0;"/><text fill="#000000" font-family="sans-serif" font-size="13" lengthAdjust="spacingAndGlyphs" textLength="39" x="874.5" y="142.4951">source</text><path d="M925.881,239.223 C948.501,256.714 977.259,278.95 1003.016,298.866 " fill="none" style="stroke: #A80036; stroke-width: 1.0;"/><polygon fill="#FFFFFF" points="915.309,231.049,917.6085,237.8837,924.8018,238.3898,922.5023,231.5551,915.309,231.049" style="stroke: #A80036; stroke-width: 1.0;"/><text fill="#000000" font-family="sans-serif" font-size="13" lengthAdjust="spacingAndGlyphs" textLength="7" x="914.7218" y="252.3989">1</text><text fill="#000000" font-family="sans-serif" font-size="13" lengthAdjust="spacingAndGlyphs" textLength="24" x="970.0569" y="289.4664">0..N</text><path d="M867.234,242.741 C840.856,291.914 792.325,378.462 765.5,402 C695.329,463.572 590.796,500.4133 529.752,517.9615 " fill="none" style="stroke: #A80036; stroke-width: 1.0;"/><polygon fill="#FFFFFF" points="873.437,231.106,867.0848,234.5191,867.7922,241.6954,874.1444,238.2823,873.437,231.106" style="stroke: #A80036; stroke-width: 1.0;"/><text fill="#000000" font-family="sans-serif" font-size="13" lengthAdjust="spacingAndGlyphs" textLength="7" x="862.6435" y="252.4698">1</text><text fill="#000000" font-family="sans-serif" font-size="13" lengthAdjust="spacingAndGlyphs" textLength="24" x="537.5999" y="512.6975">0..N</text><path d="M1192.21,244.195 C1186.6,284.077 1174.75,349.523 1152.5,402 C1135.65,441.752 1106.49,482.651 1087.34,507.3265 " fill="none" style="stroke: #A80036; stroke-width: 1.0;"/><polygon fill="#FFFFFF" points="1193.94,231.218,1189.1813,236.636,1192.3523,243.1125,1197.111,237.6945,1193.94,231.218" style="stroke: #A80036; stroke-width: 1.0;"/><text fill="#000000" font-family="sans-serif" font-size="13" lengthAdjust="spacingAndGlyphs" textLength="7" x="1185.4629" y="252.6091">1</text><text fill="#000000" font-family="sans-serif" font-size="13" lengthAdjust="spacingAndGlyphs" textLength="24" x="1065.0927" y="496.6222">0..N</text><path d="M1223.12,241.637 C1236.65,258.73 1253.37,279.855 1268.42,298.866 " fill="none" style="stroke: #A80036; stroke-width: 1.0;"/><polygon fill="#FFFFFF" points="1214.74,231.049,1215.3252,238.2363,1222.1848,240.4604,1221.5995,233.2731,1214.74,231.049" style="stroke: #A80036; stroke-width: 1.0;"/><text fill="#000000" font-family="sans-serif" font-size="13" lengthAdjust="spacingAndGlyphs" textLength="7" x="1211.3329" y="252.3989">1</text><text fill="#000000" font-family="sans-serif" font-size="13" lengthAdjust="spacingAndGlyphs" textLength="24" x="1237.0963" y="287.9756">0..N</text></g></svg>