<?xml version="1.0" encoding="UTF-8" standalone="yes"?><svg xmlns="http://www.w3.org/2000/svg" xmlns:xlink="http://www.w3.org/1999/xlink" height="743px" style="width:656px;height:743px;" version="1.1" viewBox="0 0 656 743" width="656px"><defs><filter height="300%" id="f1" width="300%" x="-1" y="-1"><feGaussianBlur result="blurOut" stdDeviation="2.0"/><feColorMatrix in="blurOut" result="blurOut2" type="matrix" values="0 0 0 0 0 0 0 0 0 0 0 0 0 0 0 0 0 0 .4 0"/><feOffset dx="4.0" dy="4.0" in="blurOut2" result="blurOut3"/><feBlend in="SourceGraphic" in2="blurOut3" mode="normal"/></filter></defs><g><polygon fill="#FFFFFF" filter="url(#f1)" points="489.5,444.5,524.5,444.5,531.5,468.1094,595.5,468.1094,595.5,544.5,489.5,544.5,489.5,444.5" style="stroke: #000000; stroke-width: 2.0;"/><line style="stroke: #000000; stroke-width: 2.0;" x1="489.5" x2="531.5" y1="468.1094" y2="468.1094"/><text fill="#000000" font-family="sans-serif" font-size="14" font-weight="bold" lengthAdjust="spacingAndGlyphs" textLength="29" x="493.5" y="461.0332">cdm</text><rect fill="#FEFECE" filter="url(#f1)" height="48" style="stroke: #A80036; stroke-width: 1.5;" width="74" x="505.5" y="480.5"/><ellipse cx="520.5" cy="496.5" fill="#B4A7E5" rx="11" ry="11" style="stroke: #A80036; stroke-width: 1.0;"/><path d="M521.4531,493.1406 L521.4531,499.7969 L523.1719,499.7969 Q523.7813,499.7969 524.0469,500.0313 Q524.3125,500.2656 524.3125,500.6563 Q524.3125,501.0313 524.0469,501.2656 Q523.7813,501.5 523.1719,501.5 L518.0313,501.5 Q517.4219,501.5 517.1563,501.2656 Q516.8906,501.0313 516.8906,500.6406 Q516.8906,500.2656 517.1563,500.0313 Q517.4219,499.7969 518.0313,499.7969 L519.75,499.7969 L519.75,493.1406 L518.0313,493.1406 Q517.4219,493.1406 517.1563,492.9063 Q516.8906,492.6719 516.8906,492.2813 Q516.8906,491.9063 517.1563,491.6719 Q517.4219,491.4375 518.0313,491.4375 L523.1719,491.4375 Q523.7813,491.4375 524.0469,491.6719 Q524.3125,491.9063 524.3125,492.2813 Q524.3125,492.6719 524.0469,492.9063 Q523.7813,493.1406 523.1719,493.1406 L521.4531,493.1406 Z "/><text fill="#000000" font-family="sans-serif" font-size="12" font-style="italic" lengthAdjust="spacingAndGlyphs" textLength="42" x="534.5" y="501.4102">Dataset</text><line style="stroke: #A80036; stroke-width: 1.5;" x1="506.5" x2="578.5" y1="512.5" y2="512.5"/><line style="stroke: #A80036; stroke-width: 1.5;" x1="506.5" x2="578.5" y1="520.5" y2="520.5"/><rect fill="#FEFECE" filter="url(#f1)" height="89.5078" style="stroke: #A80036; stroke-width: 1.5;" width="183" x="366" y="8"/><ellipse cx="403.05" cy="24" fill="#ADD1B2" rx="11" ry="11" style="stroke: #A80036; stroke-width: 1.0;"/><path d="M405.8156,19.875 Q405.9719,19.6563 406.1594,19.5469 Q406.3469,19.4375 406.5656,19.4375 Q406.9406,19.4375 407.175,19.6953 Q407.4094,19.9531 407.4094,20.5625 L407.4094,22.0156 Q407.4094,22.625 407.175,22.8906 Q406.9406,23.1563 406.5656,23.1563 Q406.2219,23.1563 406.0188,22.9531 Q405.8156,22.7656 405.7063,22.25 Q405.6594,21.8906 405.4719,21.7031 Q405.1438,21.3281 404.5344,21.1094 Q403.925,20.8906 403.3,20.8906 Q402.5344,20.8906 401.9016,21.2188 Q401.2688,21.5469 400.7766,22.2969 Q400.2844,23.0469 400.2844,24.0781 L400.2844,25.1719 Q400.2844,26.4063 401.175,27.2266 Q402.0656,28.0469 403.6594,28.0469 Q404.5969,28.0469 405.2531,27.7969 Q405.6438,27.6406 406.0656,27.2031 Q406.3313,26.9375 406.4797,26.8594 Q406.6281,26.7813 406.8313,26.7813 Q407.1594,26.7813 407.4172,27.0391 Q407.675,27.2969 407.675,27.6406 Q407.675,27.9844 407.3313,28.3906 Q406.8313,28.9688 406.0344,29.2969 Q404.9563,29.75 403.6594,29.75 Q402.1438,29.75 400.9406,29.125 Q399.9563,28.625 399.2688,27.5547 Q398.5813,26.4844 398.5813,25.2031 L398.5813,24.0469 Q398.5813,22.7188 399.1984,21.5703 Q399.8156,20.4219 400.9094,19.8047 Q402.0031,19.1875 403.2375,19.1875 Q403.9719,19.1875 404.6203,19.3516 Q405.2688,19.5156 405.8156,19.875 Z "/><text fill="#000000" font-family="sans-serif" font-size="12" lengthAdjust="spacingAndGlyphs" textLength="102" x="421.95" y="28.9102">CatalogueRegistry</text><line style="stroke: #A80036; stroke-width: 1.5;" x1="367" x2="548" y1="40" y2="40"/><line style="stroke: #A80036; stroke-width: 1.5;" x1="367" x2="548" y1="48" y2="48"/><text fill="#000000" font-family="sans-serif" font-size="11" lengthAdjust="spacingAndGlyphs" textLength="162" x="372" y="63.4189">get_catalogues(name): Catalogue</text><text fill="#000000" font-family="sans-serif" font-size="11" lengthAdjust="spacingAndGlyphs" textLength="153" x="372" y="77.2549">add_catalogue(Catalogue): void</text><text fill="#000000" font-family="sans-serif" font-size="11" lengthAdjust="spacingAndGlyphs" textLength="171" x="372" y="91.0908">remove_catalogue(Catalogue): void</text><rect fill="#FEFECE" filter="url(#f1)" height="61.8359" style="stroke: #A80036; stroke-width: 1.5;" width="133" x="391" y="159"/><ellipse cx="425.8" cy="175" fill="#B4A7E5" rx="11" ry="11" style="stroke: #A80036; stroke-width: 1.0;"/><path d="M426.7531,171.6406 L426.7531,178.2969 L428.4719,178.2969 Q429.0813,178.2969 429.3469,178.5313 Q429.6125,178.7656 429.6125,179.1563 Q429.6125,179.5313 429.3469,179.7656 Q429.0813,180 428.4719,180 L423.3313,180 Q422.7219,180 422.4563,179.7656 Q422.1906,179.5313 422.1906,179.1406 Q422.1906,178.7656 422.4563,178.5313 Q422.7219,178.2969 423.3313,178.2969 L425.05,178.2969 L425.05,171.6406 L423.3313,171.6406 Q422.7219,171.6406 422.4563,171.4063 Q422.1906,171.1719 422.1906,170.7813 Q422.1906,170.4063 422.4563,170.1719 Q422.7219,169.9375 423.3313,169.9375 L428.4719,169.9375 Q429.0813,169.9375 429.3469,170.1719 Q429.6125,170.4063 429.6125,170.7813 Q429.6125,171.1719 429.3469,171.4063 Q429.0813,171.6406 428.4719,171.6406 L426.7531,171.6406 Z "/><text fill="#000000" font-family="sans-serif" font-size="12" font-style="italic" lengthAdjust="spacingAndGlyphs" textLength="57" x="444.2" y="179.9102">Catalogue</text><line style="stroke: #A80036; stroke-width: 1.5;" x1="392" x2="523" y1="191" y2="191"/><line style="stroke: #A80036; stroke-width: 1.5;" x1="392" x2="523" y1="199" y2="199"/><text fill="#000000" font-family="sans-serif" font-size="11" font-style="italic" lengthAdjust="spacingAndGlyphs" textLength="121" x="397" y="214.4189">query(filter): DataSource</text><rect fill="#FEFECE" filter="url(#f1)" height="61.8359" style="stroke: #A80036; stroke-width: 1.5;" width="209" x="438" y="306"/><ellipse cx="505.75" cy="322" fill="#B4A7E5" rx="11" ry="11" style="stroke: #A80036; stroke-width: 1.0;"/><path d="M506.7031,318.6406 L506.7031,325.2969 L508.4219,325.2969 Q509.0313,325.2969 509.2969,325.5313 Q509.5625,325.7656 509.5625,326.1563 Q509.5625,326.5313 509.2969,326.7656 Q509.0313,327 508.4219,327 L503.2813,327 Q502.6719,327 502.4063,326.7656 Q502.1406,326.5313 502.1406,326.1406 Q502.1406,325.7656 502.4063,325.5313 Q502.6719,325.2969 503.2813,325.2969 L505,325.2969 L505,318.6406 L503.2813,318.6406 Q502.6719,318.6406 502.4063,318.4063 Q502.1406,318.1719 502.1406,317.7813 Q502.1406,317.4063 502.4063,317.1719 Q502.6719,316.9375 503.2813,316.9375 L508.4219,316.9375 Q509.0313,316.9375 509.2969,317.1719 Q509.5625,317.4063 509.5625,317.7813 Q509.5625,318.1719 509.2969,318.4063 Q509.0313,318.6406 508.4219,318.6406 L506.7031,318.6406 Z "/><text fill="#000000" font-family="sans-serif" font-size="12" font-style="italic" lengthAdjust="spacingAndGlyphs" textLength="65" x="526.25" y="326.9102">DataSource</text><line style="stroke: #A80036; stroke-width: 1.5;" x1="439" x2="646" y1="338" y2="338"/><line style="stroke: #A80036; stroke-width: 1.5;" x1="439" x2="646" y1="346" y2="346"/><text fill="#000000" font-family="sans-serif" font-size="11" font-style="italic" lengthAdjust="spacingAndGlyphs" textLength="197" x="444" y="361.4189">open_dataset(constraints): cdm.Dataset</text><rect fill="#FEFECE" filter="url(#f1)" height="75.6719" style="stroke: #A80036; stroke-width: 1.5;" width="132" x="270.5" y="299"/><ellipse cx="287.75" cy="315" fill="#ADD1B2" rx="11" ry="11" style="stroke: #A80036; stroke-width: 1.0;"/><path d="M290.5156,310.875 Q290.6719,310.6563 290.8594,310.5469 Q291.0469,310.4375 291.2656,310.4375 Q291.6406,310.4375 291.875,310.6953 Q292.1094,310.9531 292.1094,311.5625 L292.1094,313.0156 Q292.1094,313.625 291.875,313.8906 Q291.6406,314.1563 291.2656,314.1563 Q290.9219,314.1563 290.7188,313.9531 Q290.5156,313.7656 290.4063,313.25 Q290.3594,312.8906 290.1719,312.7031 Q289.8438,312.3281 289.2344,312.1094 Q288.625,311.8906 288,311.8906 Q287.2344,311.8906 286.6016,312.2188 Q285.9688,312.5469 285.4766,313.2969 Q284.9844,314.0469 284.9844,315.0781 L284.9844,316.1719 Q284.9844,317.4063 285.875,318.2266 Q286.7656,319.0469 288.3594,319.0469 Q289.2969,319.0469 289.9531,318.7969 Q290.3438,318.6406 290.7656,318.2031 Q291.0313,317.9375 291.1797,317.8594 Q291.3281,317.7813 291.5313,317.7813 Q291.8594,317.7813 292.1172,318.0391 Q292.375,318.2969 292.375,318.6406 Q292.375,318.9844 292.0313,319.3906 Q291.5313,319.9688 290.7344,320.2969 Q289.6563,320.75 288.3594,320.75 Q286.8438,320.75 285.6406,320.125 Q284.6563,319.625 283.9688,318.5547 Q283.2813,317.4844 283.2813,316.2031 L283.2813,315.0469 Q283.2813,313.7188 283.8984,312.5703 Q284.5156,311.4219 285.6094,310.8047 Q286.7031,310.1875 287.9375,310.1875 Q288.6719,310.1875 289.3203,310.3516 Q289.9688,310.5156 290.5156,310.875 Z "/><text fill="#000000" font-family="sans-serif" font-size="12" lengthAdjust="spacingAndGlyphs" textLength="95" x="302.25" y="319.9102">FileSetCatalogue</text><line style="stroke: #A80036; stroke-width: 1.5;" x1="271.5" x2="401.5" y1="331" y2="331"/><text fill="#000000" font-family="sans-serif" font-size="11" lengthAdjust="spacingAndGlyphs" textLength="37" x="276.5" y="346.4189">root_dir</text><line style="stroke: #A80036; stroke-width: 1.5;" x1="271.5" x2="401.5" y1="352.8359" y2="352.8359"/><text fill="#000000" font-family="sans-serif" font-size="11" lengthAdjust="spacingAndGlyphs" textLength="120" x="276.5" y="368.2549">query(filter): DataSource</text><rect fill="#FEFECE" filter="url(#f1)" height="103.3438" style="stroke: #A80036; stroke-width: 1.5;" width="206" x="256.5" y="453"/><ellipse cx="303.75" cy="469" fill="#ADD1B2" rx="11" ry="11" style="stroke: #A80036; stroke-width: 1.0;"/><path d="M306.5156,464.875 Q306.6719,464.6563 306.8594,464.5469 Q307.0469,464.4375 307.2656,464.4375 Q307.6406,464.4375 307.875,464.6953 Q308.1094,464.9531 308.1094,465.5625 L308.1094,467.0156 Q308.1094,467.625 307.875,467.8906 Q307.6406,468.1563 307.2656,468.1563 Q306.9219,468.1563 306.7188,467.9531 Q306.5156,467.7656 306.4063,467.25 Q306.3594,466.8906 306.1719,466.7031 Q305.8438,466.3281 305.2344,466.1094 Q304.625,465.8906 304,465.8906 Q303.2344,465.8906 302.6016,466.2188 Q301.9688,466.5469 301.4766,467.2969 Q300.9844,468.0469 300.9844,469.0781 L300.9844,470.1719 Q300.9844,471.4063 301.875,472.2266 Q302.7656,473.0469 304.3594,473.0469 Q305.2969,473.0469 305.9531,472.7969 Q306.3438,472.6406 306.7656,472.2031 Q307.0313,471.9375 307.1797,471.8594 Q307.3281,471.7813 307.5313,471.7813 Q307.8594,471.7813 308.1172,472.0391 Q308.375,472.2969 308.375,472.6406 Q308.375,472.9844 308.0313,473.3906 Q307.5313,473.9688 306.7344,474.2969 Q305.6563,474.75 304.3594,474.75 Q302.8438,474.75 301.6406,474.125 Q300.6563,473.625 299.9688,472.5547 Q299.2813,471.4844 299.2813,470.2031 L299.2813,469.0469 Q299.2813,467.7188 299.8984,466.5703 Q300.5156,465.4219 301.6094,464.8047 Q302.7031,464.1875 303.9375,464.1875 Q304.6719,464.1875 305.3203,464.3516 Q305.9688,464.5156 306.5156,464.875 Z "/><text fill="#000000" font-family="sans-serif" font-size="12" lengthAdjust="spacingAndGlyphs" textLength="103" x="324.25" y="473.9102">FileSetDataSource</text><line style="stroke: #A80036; stroke-width: 1.5;" x1="257.5" x2="461.5" y1="485" y2="485"/><text fill="#000000" font-family="sans-serif" font-size="11" lengthAdjust="spacingAndGlyphs" textLength="26" x="262.5" y="500.4189">name</text><text fill="#000000" font-family="sans-serif" font-size="11" lengthAdjust="spacingAndGlyphs" textLength="42" x="262.5" y="514.2549">base_dir</text><text fill="#000000" font-family="sans-serif" font-size="11" lengthAdjust="spacingAndGlyphs" textLength="54" x="262.5" y="528.0908">file_pattern</text><line style="stroke: #A80036; stroke-width: 1.5;" x1="257.5" x2="461.5" y1="534.5078" y2="534.5078"/><text fill="#000000" font-family="sans-serif" font-size="11" lengthAdjust="spacingAndGlyphs" textLength="194" x="262.5" y="549.9268">open_dataset(constraints): cdm.Dataset</text><rect fill="#FEFECE" filter="url(#f1)" height="117.1797" style="stroke: #A80036; stroke-width: 1.5;" width="94" x="312.5" y="617"/><ellipse cx="329.3" cy="633" fill="#ADD1B2" rx="11" ry="11" style="stroke: #A80036; stroke-width: 1.0;"/><path d="M332.0656,628.875 Q332.2219,628.6563 332.4094,628.5469 Q332.5969,628.4375 332.8156,628.4375 Q333.1906,628.4375 333.425,628.6953 Q333.6594,628.9531 333.6594,629.5625 L333.6594,631.0156 Q333.6594,631.625 333.425,631.8906 Q333.1906,632.1563 332.8156,632.1563 Q332.4719,632.1563 332.2688,631.9531 Q332.0656,631.7656 331.9563,631.25 Q331.9094,630.8906 331.7219,630.7031 Q331.3938,630.3281 330.7844,630.1094 Q330.175,629.8906 329.55,629.8906 Q328.7844,629.8906 328.1516,630.2188 Q327.5188,630.5469 327.0266,631.2969 Q326.5344,632.0469 326.5344,633.0781 L326.5344,634.1719 Q326.5344,635.4063 327.425,636.2266 Q328.3156,637.0469 329.9094,637.0469 Q330.8469,637.0469 331.5031,636.7969 Q331.8938,636.6406 332.3156,636.2031 Q332.5813,635.9375 332.7297,635.8594 Q332.8781,635.7813 333.0813,635.7813 Q333.4094,635.7813 333.6672,636.0391 Q333.925,636.2969 333.925,636.6406 Q333.925,636.9844 333.5813,637.3906 Q333.0813,637.9688 332.2844,638.2969 Q331.2063,638.75 329.9094,638.75 Q328.3938,638.75 327.1906,638.125 Q326.2063,637.625 325.5188,636.5547 Q324.8313,635.4844 324.8313,634.2031 L324.8313,633.0469 Q324.8313,631.7188 325.4484,630.5703 Q326.0656,629.4219 327.1594,628.8047 Q328.2531,628.1875 329.4875,628.1875 Q330.2219,628.1875 330.8703,628.3516 Q331.5188,628.5156 332.0656,628.875 Z "/><text fill="#000000" font-family="sans-serif" font-size="12" lengthAdjust="spacingAndGlyphs" textLength="58" x="343.7" y="637.9102">FileSetInfo</text><line style="stroke: #A80036; stroke-width: 1.5;" x1="313.5" x2="405.5" y1="649" y2="649"/><text fill="#000000" font-family="sans-serif" font-size="11" lengthAdjust="spacingAndGlyphs" textLength="82" x="318.5" y="664.4189">info_update_time</text><text fill="#000000" font-family="sans-serif" font-size="11" lengthAdjust="spacingAndGlyphs" textLength="47" x="318.5" y="678.2549">start_time</text><text fill="#000000" font-family="sans-serif" font-size="11" lengthAdjust="spacingAndGlyphs" textLength="43" x="318.5" y="692.0908">end_time</text><text fill="#000000" font-family="sans-serif" font-size="11" lengthAdjust="spacingAndGlyphs" textLength="46" x="318.5" y="705.9268">num_files</text><text fill="#000000" font-family="sans-serif" font-size="11" lengthAdjust="spacingAndGlyphs" textLength="54" x="318.5" y="719.7627">size_in_mb</text><line style="stroke: #A80036; stroke-width: 1.5;" x1="313.5" x2="405.5" y1="726.1797" y2="726.1797"/><polygon fill="#FBFB77" filter="url(#f1)" points="16.5,307.5,16.5,366.5547,200.5,366.5547,200.5,317.5,190.5,307.5,16.5,307.5" style="stroke: #A80036; stroke-width: 1.0;"/><polygon fill="#FBFB77" points="16.5,307.5,16.5,366.5547,200.5,366.5547,200.5,341,270.447,337,200.5,333,200.5,317.5,190.5,307.5,16.5,307.5" style="stroke: #A80036; stroke-width: 1.0;"/><line style="stroke: #A80036; stroke-width: 1.0;" x1="190.5" x2="190.5" y1="307.5" y2="317.5"/><line style="stroke: #A80036; stroke-width: 1.0;" x1="200.5" x2="190.5" y1="317.5" y2="317.5"/><text fill="#000000" font-family="sans-serif" font-size="13" lengthAdjust="spacingAndGlyphs" textLength="163" x="22.5" y="325.9951">Users may create their own.</text><text fill="#000000" font-family="sans-serif" font-size="13" lengthAdjust="spacingAndGlyphs" textLength="160" x="22.5" y="342.3467">The default instance mirrors</text><text fill="#000000" font-family="sans-serif" font-size="13" lengthAdjust="spacingAndGlyphs" textLength="148" x="22.5" y="358.6982">the CCI Portal's FTP tree.</text><polygon fill="#FBFB77" filter="url(#f1)" points="6,467,6,542.4063,187,542.4063,187,477,177,467,6,467" style="stroke: #A80036; stroke-width: 1.0;"/><polygon fill="#FBFB77" points="6,467,6,542.4063,187,542.4063,187,508.5,256.165,504.5,187,500.5,187,477,177,467,6,467" style="stroke: #A80036; stroke-width: 1.0;"/><line style="stroke: #A80036; stroke-width: 1.0;" x1="177" x2="177" y1="467" y2="477"/><line style="stroke: #A80036; stroke-width: 1.0;" x1="187" x2="177" y1="477" y2="477"/><text fill="#000000" font-family="sans-serif" font-size="13" lengthAdjust="spacingAndGlyphs" textLength="154" x="12" y="485.4951">open_dataset() will look for</text><text fill="#000000" font-family="sans-serif" font-size="13" lengthAdjust="spacingAndGlyphs" textLength="153" x="12" y="501.8467">actual file types and return</text><text fill="#000000" font-family="sans-serif" font-size="13" lengthAdjust="spacingAndGlyphs" textLength="160" x="12" y="518.1982">either an xarray or shapefile</text><text fill="#000000" font-family="sans-serif" font-size="13" lengthAdjust="spacingAndGlyphs" textLength="102" x="12" y="534.5498">Dataset instance.</text><path d="M419.442,236.607 C402.738,256.623 383.376,279.826 367.562,298.777 " fill="none" style="stroke: #A80036; stroke-width: 1.0; stroke-dasharray: 7.0,7.0;"/><polygon fill="none" points="414.24,231.915,432.429,221.044,424.989,240.885,414.24,231.915" style="stroke: #A80036; stroke-width: 1.0;"/><path d="M493.925,381.93 C469.808,403.74 440.546,430.204 415.49,452.864 " fill="none" style="stroke: #A80036; stroke-width: 1.0; stroke-dasharray: 7.0,7.0;"/><polygon fill="none" points="489.406,376.579,508.935,368.355,498.797,386.962,489.406,376.579" style="stroke: #A80036; stroke-width: 1.0;"/><path d="M457.5,111.578 C457.5,122.998 457.5,134.806 457.5,145.655 " fill="none" style="stroke: #A80036; stroke-width: 1.0;"/><polygon fill="#A80036" points="457.5,158.782,461.5,149.782,457.5,153.782,453.5,149.782,457.5,158.782" style="stroke: #A80036; stroke-width: 1.0;"/><line style="stroke: #A80036; stroke-width: 1.0;" x1="457.5" x2="457.5" y1="153.782" y2="145.782"/><polygon fill="#FFFFFF" points="457.5,98.204,453.5,104.204,457.5,110.204,461.5,104.204,457.5,98.204" style="stroke: #A80036; stroke-width: 1.0;"/><text fill="#000000" font-family="sans-serif" font-size="13" lengthAdjust="spacingAndGlyphs" textLength="9" x="447.5719" y="148.2416">N</text><path d="M475.112,221.044 C488.845,244.472 507.932,277.031 522.287,301.52 " fill="none" style="stroke: #A80036; stroke-width: 1.0; stroke-dasharray: 7.0,7.0;"/><polygon fill="#A80036" points="524.911,305.994,523.8111,296.2067,522.3828,301.6803,516.9092,300.2519,524.911,305.994" style="stroke: #A80036; stroke-width: 1.0;"/><text fill="#000000" font-family="sans-serif" font-size="13" lengthAdjust="spacingAndGlyphs" textLength="56" x="503.5" y="265.4951">&lt;provide&gt;</text><path d="M542.5,368.355 C542.5,398.751 542.5,445.17 542.5,474.922 " fill="none" style="stroke: #A80036; stroke-width: 1.0; stroke-dasharray: 7.0,7.0;"/><polygon fill="#A80036" points="542.5,480.275,546.5,471.275,542.5,475.275,538.5,471.275,542.5,480.275" style="stroke: #A80036; stroke-width: 1.0;"/><text fill="#000000" font-family="sans-serif" font-size="13" lengthAdjust="spacingAndGlyphs" textLength="44" x="543.5" y="419.4951">&lt;open&gt;</text><path d="M343.465,388.116 C346.32,408.662 349.62,432.404 352.481,452.99 " fill="none" style="stroke: #A80036; stroke-width: 1.0;"/><polygon fill="#FFFFFF" points="341.662,375.141,338.5262,381.6346,343.3142,387.0267,346.45,380.5331,341.662,375.141" style="stroke: #A80036; stroke-width: 1.0;"/><text fill="#000000" font-family="sans-serif" font-size="13" lengthAdjust="spacingAndGlyphs" textLength="7" x="334.9269" y="396.044">1</text><text fill="#000000" font-family="sans-serif" font-size="13" lengthAdjust="spacingAndGlyphs" textLength="9" x="341.8611" y="442.1171">N</text><path d="M359.5,556.206 C359.5,575.262 359.5,597.064 359.5,616.717 " fill="none" style="stroke: #A80036; stroke-width: 1.0;"/><text fill="#000000" font-family="sans-serif" font-size="13" lengthAdjust="spacingAndGlyphs" textLength="22" x="336.1594" y="606.0834">0..1</text></g></svg>