<?xml version="1.0" encoding="UTF-8" standalone="yes"?><svg xmlns="http://www.w3.org/2000/svg" xmlns:xlink="http://www.w3.org/1999/xlink" height="770px" style="width:842px;height:770px;" version="1.1" viewBox="0 0 842 770" width="842px"><defs><filter height="300%" id="f1" width="300%" x="-1" y="-1"><feGaussianBlur result="blurOut" stdDeviation="2.0"/><feColorMatrix in="blurOut" result="blurOut2" type="matrix" values="0 0 0 0 0 0 0 0 0 0 0 0 0 0 0 0 0 0 .4 0"/><feOffset dx="4.0" dy="4.0" in="blurOut2" result="blurOut3"/><feBlend in="SourceGraphic" in2="blurOut3" mode="normal"/></filter></defs><g><polygon fill="#FFFFFF" filter="url(#f1)" points="398,642.5,433,642.5,440,666.1094,617,666.1094,617,742.5,398,742.5,398,642.5" style="stroke: #000000; stroke-width: 2.0;"/><line style="stroke: #000000; stroke-width: 2.0;" x1="398" x2="440" y1="666.1094" y2="666.1094"/><text fill="#000000" font-family="sans-serif" font-size="14" font-weight="bold" lengthAdjust="spacingAndGlyphs" textLength="29" x="402" y="659.0332">cdm</text><rect fill="#FEFECE" filter="url(#f1)" height="48" style="stroke: #A80036; stroke-width: 1.5;" width="74" x="527" y="678.5"/><ellipse cx="542" cy="694.5" fill="#B4A7E5" rx="11" ry="11" style="stroke: #A80036; stroke-width: 1.0;"/><path d="M542.9531,691.1406 L542.9531,697.7969 L544.6719,697.7969 Q545.2813,697.7969 545.5469,698.0313 Q545.8125,698.2656 545.8125,698.6563 Q545.8125,699.0313 545.5469,699.2656 Q545.2813,699.5 544.6719,699.5 L539.5313,699.5 Q538.9219,699.5 538.6563,699.2656 Q538.3906,699.0313 538.3906,698.6406 Q538.3906,698.2656 538.6563,698.0313 Q538.9219,697.7969 539.5313,697.7969 L541.25,697.7969 L541.25,691.1406 L539.5313,691.1406 Q538.9219,691.1406 538.6563,690.9063 Q538.3906,690.6719 538.3906,690.2813 Q538.3906,689.9063 538.6563,689.6719 Q538.9219,689.4375 539.5313,689.4375 L544.6719,689.4375 Q545.2813,689.4375 545.5469,689.6719 Q545.8125,689.9063 545.8125,690.2813 Q545.8125,690.6719 545.5469,690.9063 Q545.2813,691.1406 544.6719,691.1406 L542.9531,691.1406 Z "/><text fill="#000000" font-family="sans-serif" font-size="12" font-style="italic" lengthAdjust="spacingAndGlyphs" textLength="42" x="556" y="699.4102">Dataset</text><line style="stroke: #A80036; stroke-width: 1.5;" x1="528" x2="600" y1="710.5" y2="710.5"/><line style="stroke: #A80036; stroke-width: 1.5;" x1="528" x2="600" y1="718.5" y2="718.5"/><rect fill="#FEFECE" filter="url(#f1)" height="48" style="stroke: #A80036; stroke-width: 1.5;" width="78" x="414" y="678.5"/><ellipse cx="429" cy="694.5" fill="#B4A7E5" rx="11" ry="11" style="stroke: #A80036; stroke-width: 1.0;"/><path d="M429.9531,691.1406 L429.9531,697.7969 L431.6719,697.7969 Q432.2813,697.7969 432.5469,698.0313 Q432.8125,698.2656 432.8125,698.6563 Q432.8125,699.0313 432.5469,699.2656 Q432.2813,699.5 431.6719,699.5 L426.5313,699.5 Q425.9219,699.5 425.6563,699.2656 Q425.3906,699.0313 425.3906,698.6406 Q425.3906,698.2656 425.6563,698.0313 Q425.9219,697.7969 426.5313,697.7969 L428.25,697.7969 L428.25,691.1406 L426.5313,691.1406 Q425.9219,691.1406 425.6563,690.9063 Q425.3906,690.6719 425.3906,690.2813 Q425.3906,689.9063 425.6563,689.6719 Q425.9219,689.4375 426.5313,689.4375 L431.6719,689.4375 Q432.2813,689.4375 432.5469,689.6719 Q432.8125,689.9063 432.8125,690.2813 Q432.8125,690.6719 432.5469,690.9063 Q432.2813,691.1406 431.6719,691.1406 L429.9531,691.1406 Z "/><text fill="#000000" font-family="sans-serif" font-size="12" font-style="italic" lengthAdjust="spacingAndGlyphs" textLength="46" x="443" y="699.4102">Schema</text><line style="stroke: #A80036; stroke-width: 1.5;" x1="415" x2="491" y1="710.5" y2="710.5"/><line style="stroke: #A80036; stroke-width: 1.5;" x1="415" x2="491" y1="718.5" y2="718.5"/><rect fill="#FEFECE" filter="url(#f1)" height="103.3438" style="stroke: #A80036; stroke-width: 1.5;" width="188" x="379" y="8"/><ellipse cx="419.2" cy="24" fill="#ADD1B2" rx="11" ry="11" style="stroke: #A80036; stroke-width: 1.0;"/><path d="M421.9656,19.875 Q422.1219,19.6563 422.3094,19.5469 Q422.4969,19.4375 422.7156,19.4375 Q423.0906,19.4375 423.325,19.6953 Q423.5594,19.9531 423.5594,20.5625 L423.5594,22.0156 Q423.5594,22.625 423.325,22.8906 Q423.0906,23.1563 422.7156,23.1563 Q422.3719,23.1563 422.1688,22.9531 Q421.9656,22.7656 421.8563,22.25 Q421.8094,21.8906 421.6219,21.7031 Q421.2938,21.3281 420.6844,21.1094 Q420.075,20.8906 419.45,20.8906 Q418.6844,20.8906 418.0516,21.2188 Q417.4188,21.5469 416.9266,22.2969 Q416.4344,23.0469 416.4344,24.0781 L416.4344,25.1719 Q416.4344,26.4063 417.325,27.2266 Q418.2156,28.0469 419.8094,28.0469 Q420.7469,28.0469 421.4031,27.7969 Q421.7938,27.6406 422.2156,27.2031 Q422.4813,26.9375 422.6297,26.8594 Q422.7781,26.7813 422.9813,26.7813 Q423.3094,26.7813 423.5672,27.0391 Q423.825,27.2969 423.825,27.6406 Q423.825,27.9844 423.4813,28.3906 Q422.9813,28.9688 422.1844,29.2969 Q421.1063,29.75 419.8094,29.75 Q418.2938,29.75 417.0906,29.125 Q416.1063,28.625 415.4188,27.5547 Q414.7313,26.4844 414.7313,25.2031 L414.7313,24.0469 Q414.7313,22.7188 415.3484,21.5703 Q415.9656,20.4219 417.0594,19.8047 Q418.1531,19.1875 419.3875,19.1875 Q420.1219,19.1875 420.7703,19.3516 Q421.4188,19.5156 421.9656,19.875 Z "/><text fill="#000000" font-family="sans-serif" font-size="12" lengthAdjust="spacingAndGlyphs" textLength="100" x="438.8" y="28.9102">DataStoreRegistry</text><line style="stroke: #A80036; stroke-width: 1.5;" x1="380" x2="566" y1="40" y2="40"/><line style="stroke: #A80036; stroke-width: 1.5;" x1="380" x2="566" y1="48" y2="48"/><text fill="#000000" font-family="sans-serif" font-size="11" lengthAdjust="spacingAndGlyphs" textLength="164" x="385" y="63.4189">get_data_stores(): List[DataStore]</text><text fill="#000000" font-family="sans-serif" font-size="11" lengthAdjust="spacingAndGlyphs" textLength="161" x="385" y="77.2549">get_data_store(name): DataStore</text><text fill="#000000" font-family="sans-serif" font-size="11" lengthAdjust="spacingAndGlyphs" textLength="158" x="385" y="91.0908">add_data_store(DataStore): void</text><text fill="#000000" font-family="sans-serif" font-size="11" lengthAdjust="spacingAndGlyphs" textLength="176" x="385" y="104.9268">remove_data_store(DataStore): void</text><rect fill="#FEFECE" filter="url(#f1)" height="61.8359" style="stroke: #A80036; stroke-width: 1.5;" width="166" x="390" y="172"/><ellipse cx="441.25" cy="188" fill="#B4A7E5" rx="11" ry="11" style="stroke: #A80036; stroke-width: 1.0;"/><path d="M442.2031,184.6406 L442.2031,191.2969 L443.9219,191.2969 Q444.5313,191.2969 444.7969,191.5313 Q445.0625,191.7656 445.0625,192.1563 Q445.0625,192.5313 444.7969,192.7656 Q444.5313,193 443.9219,193 L438.7813,193 Q438.1719,193 437.9063,192.7656 Q437.6406,192.5313 437.6406,192.1406 Q437.6406,191.7656 437.9063,191.5313 Q438.1719,191.2969 438.7813,191.2969 L440.5,191.2969 L440.5,184.6406 L438.7813,184.6406 Q438.1719,184.6406 437.9063,184.4063 Q437.6406,184.1719 437.6406,183.7813 Q437.6406,183.4063 437.9063,183.1719 Q438.1719,182.9375 438.7813,182.9375 L443.9219,182.9375 Q444.5313,182.9375 444.7969,183.1719 Q445.0625,183.4063 445.0625,183.7813 Q445.0625,184.1719 444.7969,184.4063 Q444.5313,184.6406 443.9219,184.6406 L442.2031,184.6406 Z "/><text fill="#000000" font-family="sans-serif" font-size="12" font-style="italic" lengthAdjust="spacingAndGlyphs" textLength="55" x="461.75" y="192.9102">DataStore</text><line style="stroke: #A80036; stroke-width: 1.5;" x1="391" x2="555" y1="204" y2="204"/><line style="stroke: #A80036; stroke-width: 1.5;" x1="391" x2="555" y1="212" y2="212"/><text fill="#000000" font-family="sans-serif" font-size="11" font-style="italic" lengthAdjust="spacingAndGlyphs" textLength="154" x="396" y="227.4189">query(constraints): DataSource</text><rect fill="#FEFECE" filter="url(#f1)" height="75.6719" style="stroke: #A80036; stroke-width: 1.5;" width="209" x="459.5" y="312"/><ellipse cx="527.25" cy="328" fill="#B4A7E5" rx="11" ry="11" style="stroke: #A80036; stroke-width: 1.0;"/><path d="M528.2031,324.6406 L528.2031,331.2969 L529.9219,331.2969 Q530.5313,331.2969 530.7969,331.5313 Q531.0625,331.7656 531.0625,332.1563 Q531.0625,332.5313 530.7969,332.7656 Q530.5313,333 529.9219,333 L524.7813,333 Q524.1719,333 523.9063,332.7656 Q523.6406,332.5313 523.6406,332.1406 Q523.6406,331.7656 523.9063,331.5313 Q524.1719,331.2969 524.7813,331.2969 L526.5,331.2969 L526.5,324.6406 L524.7813,324.6406 Q524.1719,324.6406 523.9063,324.4063 Q523.6406,324.1719 523.6406,323.7813 Q523.6406,323.4063 523.9063,323.1719 Q524.1719,322.9375 524.7813,322.9375 L529.9219,322.9375 Q530.5313,322.9375 530.7969,323.1719 Q531.0625,323.4063 531.0625,323.7813 Q531.0625,324.1719 530.7969,324.4063 Q530.5313,324.6406 529.9219,324.6406 L528.2031,324.6406 Z "/><text fill="#000000" font-family="sans-serif" font-size="12" font-style="italic" lengthAdjust="spacingAndGlyphs" textLength="65" x="547.75" y="332.9102">DataSource</text><line style="stroke: #A80036; stroke-width: 1.5;" x1="460.5" x2="667.5" y1="344" y2="344"/><line style="stroke: #A80036; stroke-width: 1.5;" x1="460.5" x2="667.5" y1="352" y2="352"/><text fill="#000000" font-family="sans-serif" font-size="11" font-style="italic" lengthAdjust="spacingAndGlyphs" textLength="110" x="465.5" y="367.4189">get_dataset_schema()</text><text fill="#000000" font-family="sans-serif" font-size="11" font-style="italic" lengthAdjust="spacingAndGlyphs" textLength="197" x="465.5" y="381.2549">open_dataset(constraints): cdm.Dataset</text><rect fill="#FEFECE" filter="url(#f1)" height="75.6719" style="stroke: #A80036; stroke-width: 1.5;" width="165" x="259.5" y="312"/><ellipse cx="292.5" cy="328" fill="#ADD1B2" rx="11" ry="11" style="stroke: #A80036; stroke-width: 1.0;"/><path d="M295.2656,323.875 Q295.4219,323.6563 295.6094,323.5469 Q295.7969,323.4375 296.0156,323.4375 Q296.3906,323.4375 296.625,323.6953 Q296.8594,323.9531 296.8594,324.5625 L296.8594,326.0156 Q296.8594,326.625 296.625,326.8906 Q296.3906,327.1563 296.0156,327.1563 Q295.6719,327.1563 295.4688,326.9531 Q295.2656,326.7656 295.1563,326.25 Q295.1094,325.8906 294.9219,325.7031 Q294.5938,325.3281 293.9844,325.1094 Q293.375,324.8906 292.75,324.8906 Q291.9844,324.8906 291.3516,325.2188 Q290.7188,325.5469 290.2266,326.2969 Q289.7344,327.0469 289.7344,328.0781 L289.7344,329.1719 Q289.7344,330.4063 290.625,331.2266 Q291.5156,332.0469 293.1094,332.0469 Q294.0469,332.0469 294.7031,331.7969 Q295.0938,331.6406 295.5156,331.2031 Q295.7813,330.9375 295.9297,330.8594 Q296.0781,330.7813 296.2813,330.7813 Q296.6094,330.7813 296.8672,331.0391 Q297.125,331.2969 297.125,331.6406 Q297.125,331.9844 296.7813,332.3906 Q296.2813,332.9688 295.4844,333.2969 Q294.4063,333.75 293.1094,333.75 Q291.5938,333.75 290.3906,333.125 Q289.4063,332.625 288.7188,331.5547 Q288.0313,330.4844 288.0313,329.2031 L288.0313,328.0469 Q288.0313,326.7188 288.6484,325.5703 Q289.2656,324.4219 290.3594,323.8047 Q291.4531,323.1875 292.6875,323.1875 Q293.4219,323.1875 294.0703,323.3516 Q294.7188,323.5156 295.2656,323.875 Z "/><text fill="#000000" font-family="sans-serif" font-size="12" lengthAdjust="spacingAndGlyphs" textLength="93" x="310.5" y="332.9102">FileSetDataStore</text><line style="stroke: #A80036; stroke-width: 1.5;" x1="260.5" x2="423.5" y1="344" y2="344"/><text fill="#000000" font-family="sans-serif" font-size="11" lengthAdjust="spacingAndGlyphs" textLength="37" x="265.5" y="359.4189">root_dir</text><line style="stroke: #A80036; stroke-width: 1.5;" x1="260.5" x2="423.5" y1="365.8359" y2="365.8359"/><text fill="#000000" font-family="sans-serif" font-size="11" lengthAdjust="spacingAndGlyphs" textLength="153" x="265.5" y="381.2549">query(constraints): DataSource</text><rect fill="#FEFECE" filter="url(#f1)" height="117.1797" style="stroke: #A80036; stroke-width: 1.5;" width="206" x="275" y="449"/><ellipse cx="322.25" cy="465" fill="#ADD1B2" rx="11" ry="11" style="stroke: #A80036; stroke-width: 1.0;"/><path d="M325.0156,460.875 Q325.1719,460.6563 325.3594,460.5469 Q325.5469,460.4375 325.7656,460.4375 Q326.1406,460.4375 326.375,460.6953 Q326.6094,460.9531 326.6094,461.5625 L326.6094,463.0156 Q326.6094,463.625 326.375,463.8906 Q326.1406,464.1563 325.7656,464.1563 Q325.4219,464.1563 325.2188,463.9531 Q325.0156,463.7656 324.9063,463.25 Q324.8594,462.8906 324.6719,462.7031 Q324.3438,462.3281 323.7344,462.1094 Q323.125,461.8906 322.5,461.8906 Q321.7344,461.8906 321.1016,462.2188 Q320.4688,462.5469 319.9766,463.2969 Q319.4844,464.0469 319.4844,465.0781 L319.4844,466.1719 Q319.4844,467.4063 320.375,468.2266 Q321.2656,469.0469 322.8594,469.0469 Q323.7969,469.0469 324.4531,468.7969 Q324.8438,468.6406 325.2656,468.2031 Q325.5313,467.9375 325.6797,467.8594 Q325.8281,467.7813 326.0313,467.7813 Q326.3594,467.7813 326.6172,468.0391 Q326.875,468.2969 326.875,468.6406 Q326.875,468.9844 326.5313,469.3906 Q326.0313,469.9688 325.2344,470.2969 Q324.1563,470.75 322.8594,470.75 Q321.3438,470.75 320.1406,470.125 Q319.1563,469.625 318.4688,468.5547 Q317.7813,467.4844 317.7813,466.2031 L317.7813,465.0469 Q317.7813,463.7188 318.3984,462.5703 Q319.0156,461.4219 320.1094,460.8047 Q321.2031,460.1875 322.4375,460.1875 Q323.1719,460.1875 323.8203,460.3516 Q324.4688,460.5156 325.0156,460.875 Z "/><text fill="#000000" font-family="sans-serif" font-size="12" lengthAdjust="spacingAndGlyphs" textLength="103" x="342.75" y="469.9102">FileSetDataSource</text><line style="stroke: #A80036; stroke-width: 1.5;" x1="276" x2="480" y1="481" y2="481"/><text fill="#000000" font-family="sans-serif" font-size="11" lengthAdjust="spacingAndGlyphs" textLength="26" x="281" y="496.4189">name</text><text fill="#000000" font-family="sans-serif" font-size="11" lengthAdjust="spacingAndGlyphs" textLength="42" x="281" y="510.2549">base_dir</text><text fill="#000000" font-family="sans-serif" font-size="11" lengthAdjust="spacingAndGlyphs" textLength="54" x="281" y="524.0908">file_pattern</text><line style="stroke: #A80036; stroke-width: 1.5;" x1="276" x2="480" y1="530.5078" y2="530.5078"/><text fill="#000000" font-family="sans-serif" font-size="11" lengthAdjust="spacingAndGlyphs" textLength="109" x="281" y="545.9268">get_dataset_schema()</text><text fill="#000000" font-family="sans-serif" font-size="11" lengthAdjust="spacingAndGlyphs" textLength="194" x="281" y="559.7627">open_dataset(constraints): cdm.Dataset</text><rect fill="#FEFECE" filter="url(#f1)" height="117.1797" style="stroke: #A80036; stroke-width: 1.5;" width="94" x="285" y="644"/><ellipse cx="301.8" cy="660" fill="#ADD1B2" rx="11" ry="11" style="stroke: #A80036; stroke-width: 1.0;"/><path d="M304.5656,655.875 Q304.7219,655.6563 304.9094,655.5469 Q305.0969,655.4375 305.3156,655.4375 Q305.6906,655.4375 305.925,655.6953 Q306.1594,655.9531 306.1594,656.5625 L306.1594,658.0156 Q306.1594,658.625 305.925,658.8906 Q305.6906,659.1563 305.3156,659.1563 Q304.9719,659.1563 304.7688,658.9531 Q304.5656,658.7656 304.4563,658.25 Q304.4094,657.8906 304.2219,657.7031 Q303.8938,657.3281 303.2844,657.1094 Q302.675,656.8906 302.05,656.8906 Q301.2844,656.8906 300.6516,657.2188 Q300.0188,657.5469 299.5266,658.2969 Q299.0344,659.0469 299.0344,660.0781 L299.0344,661.1719 Q299.0344,662.4063 299.925,663.2266 Q300.8156,664.0469 302.4094,664.0469 Q303.3469,664.0469 304.0031,663.7969 Q304.3938,663.6406 304.8156,663.2031 Q305.0813,662.9375 305.2297,662.8594 Q305.3781,662.7813 305.5813,662.7813 Q305.9094,662.7813 306.1672,663.0391 Q306.425,663.2969 306.425,663.6406 Q306.425,663.9844 306.0813,664.3906 Q305.5813,664.9688 304.7844,665.2969 Q303.7063,665.75 302.4094,665.75 Q300.8938,665.75 299.6906,665.125 Q298.7063,664.625 298.0188,663.5547 Q297.3313,662.4844 297.3313,661.2031 L297.3313,660.0469 Q297.3313,658.7188 297.9484,657.5703 Q298.5656,656.4219 299.6594,655.8047 Q300.7531,655.1875 301.9875,655.1875 Q302.7219,655.1875 303.3703,655.3516 Q304.0188,655.5156 304.5656,655.875 Z "/><text fill="#000000" font-family="sans-serif" font-size="12" lengthAdjust="spacingAndGlyphs" textLength="58" x="316.2" y="664.9102">FileSetInfo</text><line style="stroke: #A80036; stroke-width: 1.5;" x1="286" x2="378" y1="676" y2="676"/><text fill="#000000" font-family="sans-serif" font-size="11" lengthAdjust="spacingAndGlyphs" textLength="82" x="291" y="691.4189">info_update_time</text><text fill="#000000" font-family="sans-serif" font-size="11" lengthAdjust="spacingAndGlyphs" textLength="47" x="291" y="705.2549">start_time</text><text fill="#000000" font-family="sans-serif" font-size="11" lengthAdjust="spacingAndGlyphs" textLength="43" x="291" y="719.0908">end_time</text><text fill="#000000" font-family="sans-serif" font-size="11" lengthAdjust="spacingAndGlyphs" textLength="46" x="291" y="732.9268">num_files</text><text fill="#000000" font-family="sans-serif" font-size="11" lengthAdjust="spacingAndGlyphs" textLength="54" x="291" y="746.7627">size_in_mb</text><line style="stroke: #A80036; stroke-width: 1.5;" x1="286" x2="378" y1="753.1797" y2="753.1797"/><polygon fill="#FBFB77" filter="url(#f1)" points="6,320.5,6,379.5547,190,379.5547,190,330.5,180,320.5,6,320.5" style="stroke: #A80036; stroke-width: 1.0;"/><polygon fill="#FBFB77" points="6,320.5,6,379.5547,190,379.5547,190,354,259.419,350,190,346,190,330.5,180,320.5,6,320.5" style="stroke: #A80036; stroke-width: 1.0;"/><line style="stroke: #A80036; stroke-width: 1.0;" x1="180" x2="180" y1="320.5" y2="330.5"/><line style="stroke: #A80036; stroke-width: 1.0;" x1="190" x2="180" y1="330.5" y2="330.5"/><text fill="#000000" font-family="sans-serif" font-size="13" lengthAdjust="spacingAndGlyphs" textLength="163" x="12" y="338.9951">Users may create their own.</text><text fill="#000000" font-family="sans-serif" font-size="13" lengthAdjust="spacingAndGlyphs" textLength="160" x="12" y="355.3467">The default instance mirrors</text><text fill="#000000" font-family="sans-serif" font-size="13" lengthAdjust="spacingAndGlyphs" textLength="148" x="12" y="371.6982">the CCI Portal's FTP tree.</text><polygon fill="#FBFB77" filter="url(#f1)" points="17,470,17,545.4063,205,545.4063,205,480,195,470,17,470" style="stroke: #A80036; stroke-width: 1.0;"/><polygon fill="#FBFB77" points="17,470,17,545.4063,205,545.4063,205,511.5,274.682,507.5,205,503.5,205,480,195,470,17,470" style="stroke: #A80036; stroke-width: 1.0;"/><line style="stroke: #A80036; stroke-width: 1.0;" x1="195" x2="195" y1="470" y2="480"/><line style="stroke: #A80036; stroke-width: 1.0;" x1="205" x2="195" y1="480" y2="480"/><text fill="#000000" font-family="sans-serif" font-size="13" lengthAdjust="spacingAndGlyphs" textLength="154" x="23" y="488.4951">open_dataset() will look for</text><text fill="#000000" font-family="sans-serif" font-size="13" lengthAdjust="spacingAndGlyphs" textLength="153" x="23" y="504.8467">actual file types and return</text><text fill="#000000" font-family="sans-serif" font-size="13" lengthAdjust="spacingAndGlyphs" textLength="50" x="23" y="521.1982">either an</text><text fill="#000000" font-family="sans-serif" font-size="13" font-weight="bold" lengthAdjust="spacingAndGlyphs" textLength="46" x="77" y="521.1982">netCDF</text><text fill="#000000" font-family="sans-serif" font-size="13" lengthAdjust="spacingAndGlyphs" textLength="4" x="127" y="521.1982">(</text><text fill="#000000" font-family="sans-serif" font-size="13" font-style="italic" lengthAdjust="spacingAndGlyphs" textLength="34" x="131" y="521.1982">xarray</text><text fill="#000000" font-family="sans-serif" font-size="13" lengthAdjust="spacingAndGlyphs" textLength="19" x="165" y="521.1982">) or</text><text fill="#000000" font-family="sans-serif" font-size="13" font-weight="bold" lengthAdjust="spacingAndGlyphs" textLength="61" x="23" y="537.5498">Shapefile</text><text fill="#000000" font-family="sans-serif" font-size="13" lengthAdjust="spacingAndGlyphs" textLength="102" x="88" y="537.5498">Dataset instance.</text><rect fill="#FEFECE" filter="url(#f1)" height="64.8281" style="stroke: #A80036; stroke-width: 1.5;" width="231" x="602.5" y="27"/><text fill="#000000" font-family="sans-serif" font-size="12" lengthAdjust="spacingAndGlyphs" textLength="41" x="697.5" y="41.457">globals</text><line style="stroke: #A80036; stroke-width: 1.5;" x1="603.5" x2="832.5" y1="46.0938" y2="46.0938"/><text fill="#000000" font-family="sans-serif" font-size="10" lengthAdjust="spacingAndGlyphs" textLength="219" x="608.5" y="60.4746">DATA_STORE_REGISTRY: DataStoreRegistry</text><text fill="#000000" font-family="sans-serif" font-size="10" lengthAdjust="spacingAndGlyphs" textLength="209" x="608.5" y="73.0527">query_data_sources(data_stores, constraints)</text><text fill="#000000" font-family="sans-serif" font-size="10" lengthAdjust="spacingAndGlyphs" textLength="156" x="608.5" y="85.6309">open_dataset(data_stores, name)</text><path d="M432.335,249.011 C414.13,269.161 392.921,292.637 375.629,311.777 " fill="none" style="stroke: #A80036; stroke-width: 1.0; stroke-dasharray: 7.0,7.0;"/><polygon fill="none" points="427.255,244.192,445.857,234.044,437.643,253.577,427.255,244.192" style="stroke: #A80036; stroke-width: 1.0;"/><path d="M504.024,401.141 C485.808,416.37 465.648,433.224 446.894,448.903 " fill="none" style="stroke: #A80036; stroke-width: 1.0; stroke-dasharray: 7.0,7.0;"/><polygon fill="none" points="499.614,395.704,519.448,388.246,508.594,406.445,499.614,395.704" style="stroke: #A80036; stroke-width: 1.0;"/><path d="M473,124.282 C473,135.923 473,147.818 473,158.69 " fill="none" style="stroke: #A80036; stroke-width: 1.0;"/><polygon fill="#A80036" points="473,171.818,477,162.818,473,166.818,469,162.818,473,171.818" style="stroke: #A80036; stroke-width: 1.0;"/><line style="stroke: #A80036; stroke-width: 1.0;" x1="473" x2="473" y1="166.818" y2="158.818"/><polygon fill="#FFFFFF" points="473,111.185,469,117.185,473,123.185,477,117.185,473,111.185" style="stroke: #A80036; stroke-width: 1.0;"/><text fill="#000000" font-family="sans-serif" font-size="13" lengthAdjust="spacingAndGlyphs" textLength="9" x="463.0719" y="161.285">N</text><path d="M491.855,234.044 C505.186,255.285 523.227,284.033 537.934,307.466 " fill="none" style="stroke: #A80036; stroke-width: 1.0; stroke-dasharray: 7.0,7.0;"/><polygon fill="#A80036" points="540.639,311.777,539.2409,302.0279,537.9803,307.5425,532.4657,306.2818,540.639,311.777" style="stroke: #A80036; stroke-width: 1.0;"/><text fill="#000000" font-family="sans-serif" font-size="13" lengthAdjust="spacingAndGlyphs" textLength="56" x="522" y="278.4951">&lt;provide&gt;</text><path d="M564,388.178 C564,458.609 564,610.066 564,673.0847 " fill="none" style="stroke: #A80036; stroke-width: 1.0; stroke-dasharray: 7.0,7.0;"/><polygon fill="#A80036" points="564,678.1861,568,669.1861,564,673.1861,560,669.1861,564,678.1861" style="stroke: #A80036; stroke-width: 1.0;"/><text fill="#000000" font-family="sans-serif" font-size="13" lengthAdjust="spacingAndGlyphs" textLength="44" x="565" y="512.9951">&lt;open&gt;</text><path d="M400.401,566.145 C414.192,601.635 431.255,645.543 442.135,673.5408 " fill="none" style="stroke: #A80036; stroke-width: 1.0;"/><polygon fill="#A80036" points="443.959,678.2354,444.427,668.3977,442.1477,673.575,436.9704,671.2957,443.959,678.2354" style="stroke: #A80036; stroke-width: 1.0;"/><text fill="#000000" font-family="sans-serif" font-size="13" lengthAdjust="spacingAndGlyphs" textLength="46" x="419" y="610.4951">schema</text><path d="M353.608,401.141 C357.134,416.37 361.036,433.224 364.666,448.903 " fill="none" style="stroke: #A80036; stroke-width: 1.0;"/><polygon fill="#FFFFFF" points="350.623,388.246,348.0789,394.9934,353.3288,399.937,355.8729,393.1895,350.623,388.246" style="stroke: #A80036; stroke-width: 1.0;"/><text fill="#000000" font-family="sans-serif" font-size="13" lengthAdjust="spacingAndGlyphs" textLength="7" x="344.4395" y="409.1657">1</text><text fill="#000000" font-family="sans-serif" font-size="13" lengthAdjust="spacingAndGlyphs" textLength="9" x="353.4925" y="438.2921">N</text><path d="M364.261,566.145 C358.41,590.693 351.6,619.267 345.748,643.819 " fill="none" style="stroke: #A80036; stroke-width: 1.0;"/><text fill="#000000" font-family="sans-serif" font-size="13" lengthAdjust="spacingAndGlyphs" textLength="22" x="324.0829" y="633.1978">0..1</text></g></svg>