<?xml version="1.0" encoding="UTF-8" standalone="yes"?><svg xmlns="http://www.w3.org/2000/svg" xmlns:xlink="http://www.w3.org/1999/xlink" height="573px" style="width:481px;height:573px;" version="1.1" viewBox="0 0 481 573" width="481px"><defs><filter height="300%" id="f1" width="300%" x="-1" y="-1"><feGaussianBlur result="blurOut" stdDeviation="2.0"/><feColorMatrix in="blurOut" result="blurOut2" type="matrix" values="0 0 0 0 0 0 0 0 0 0 0 0 0 0 0 0 0 0 .4 0"/><feOffset dx="4.0" dy="4.0" in="blurOut2" result="blurOut3"/><feBlend in="SourceGraphic" in2="blurOut3" mode="normal"/></filter></defs><g><polygon fill="#FFFFFF" filter="url(#f1)" points="255.5,466,290.5,466,297.5,489.6094,474.5,489.6094,474.5,566,255.5,566,255.5,466" style="stroke: #000000; stroke-width: 2.0;"/><line style="stroke: #000000; stroke-width: 2.0;" x1="255.5" x2="297.5" y1="489.6094" y2="489.6094"/><text fill="#000000" font-family="sans-serif" font-size="14" font-weight="bold" lengthAdjust="spacingAndGlyphs" textLength="29" x="259.5" y="482.5332">cdm</text><rect fill="#FEFECE" filter="url(#f1)" height="48" style="stroke: #A80036; stroke-width: 1.5;" width="74" x="271.5" y="502"/><ellipse cx="286.5" cy="518" fill="#B4A7E5" rx="11" ry="11" style="stroke: #A80036; stroke-width: 1.0;"/><path d="M287.4531,514.6406 L287.4531,521.2969 L289.1719,521.2969 Q289.7813,521.2969 290.0469,521.5313 Q290.3125,521.7656 290.3125,522.1563 Q290.3125,522.5313 290.0469,522.7656 Q289.7813,523 289.1719,523 L284.0313,523 Q283.4219,523 283.1563,522.7656 Q282.8906,522.5313 282.8906,522.1406 Q282.8906,521.7656 283.1563,521.5313 Q283.4219,521.2969 284.0313,521.2969 L285.75,521.2969 L285.75,514.6406 L284.0313,514.6406 Q283.4219,514.6406 283.1563,514.4063 Q282.8906,514.1719 282.8906,513.7813 Q282.8906,513.4063 283.1563,513.1719 Q283.4219,512.9375 284.0313,512.9375 L289.1719,512.9375 Q289.7813,512.9375 290.0469,513.1719 Q290.3125,513.4063 290.3125,513.7813 Q290.3125,514.1719 290.0469,514.4063 Q289.7813,514.6406 289.1719,514.6406 L287.4531,514.6406 Z "/><text fill="#000000" font-family="sans-serif" font-size="12" font-style="italic" lengthAdjust="spacingAndGlyphs" textLength="42" x="300.5" y="522.9102">Dataset</text><line style="stroke: #A80036; stroke-width: 1.5;" x1="272.5" x2="344.5" y1="534" y2="534"/><line style="stroke: #A80036; stroke-width: 1.5;" x1="272.5" x2="344.5" y1="542" y2="542"/><rect fill="#FEFECE" filter="url(#f1)" height="48" style="stroke: #A80036; stroke-width: 1.5;" width="78" x="380.5" y="502"/><ellipse cx="395.5" cy="518" fill="#B4A7E5" rx="11" ry="11" style="stroke: #A80036; stroke-width: 1.0;"/><path d="M396.4531,514.6406 L396.4531,521.2969 L398.1719,521.2969 Q398.7813,521.2969 399.0469,521.5313 Q399.3125,521.7656 399.3125,522.1563 Q399.3125,522.5313 399.0469,522.7656 Q398.7813,523 398.1719,523 L393.0313,523 Q392.4219,523 392.1563,522.7656 Q391.8906,522.5313 391.8906,522.1406 Q391.8906,521.7656 392.1563,521.5313 Q392.4219,521.2969 393.0313,521.2969 L394.75,521.2969 L394.75,514.6406 L393.0313,514.6406 Q392.4219,514.6406 392.1563,514.4063 Q391.8906,514.1719 391.8906,513.7813 Q391.8906,513.4063 392.1563,513.1719 Q392.4219,512.9375 393.0313,512.9375 L398.1719,512.9375 Q398.7813,512.9375 399.0469,513.1719 Q399.3125,513.4063 399.3125,513.7813 Q399.3125,514.1719 399.0469,514.4063 Q398.7813,514.6406 398.1719,514.6406 L396.4531,514.6406 Z "/><text fill="#000000" font-family="sans-serif" font-size="12" font-style="italic" lengthAdjust="spacingAndGlyphs" textLength="46" x="409.5" y="522.9102">Schema</text><line style="stroke: #A80036; stroke-width: 1.5;" x1="381.5" x2="457.5" y1="534" y2="534"/><line style="stroke: #A80036; stroke-width: 1.5;" x1="381.5" x2="457.5" y1="542" y2="542"/><rect fill="#FEFECE" filter="url(#f1)" height="64.8281" style="stroke: #A80036; stroke-width: 1.5;" width="231" x="6" y="27"/><text fill="#000000" font-family="sans-serif" font-size="12" lengthAdjust="spacingAndGlyphs" textLength="41" x="101" y="41.457">globals</text><line style="stroke: #A80036; stroke-width: 1.5;" x1="7" x2="236" y1="46.0938" y2="46.0938"/><text fill="#000000" font-family="sans-serif" font-size="10" lengthAdjust="spacingAndGlyphs" textLength="219" x="12" y="60.4746">DATA_STORE_REGISTRY: DataStoreRegistry</text><text fill="#000000" font-family="sans-serif" font-size="10" lengthAdjust="spacingAndGlyphs" textLength="209" x="12" y="73.0527">query_data_sources(data_stores, constraints)</text><text fill="#000000" font-family="sans-serif" font-size="10" lengthAdjust="spacingAndGlyphs" textLength="156" x="12" y="85.6309">open_dataset(data_stores, name)</text><polygon fill="#FBFB77" filter="url(#f1)" points="32.5,173.5,32.5,232.5547,210.5,232.5547,210.5,183.5,200.5,173.5,32.5,173.5" style="stroke: #A80036; stroke-width: 1.0;"/><polygon fill="#FBFB77" points="32.5,173.5,32.5,232.5547,210.5,232.5547,210.5,183.5,200.5,173.5,125.5,173.5,121.5,92.255,117.5,173.5,32.5,173.5" style="stroke: #A80036; stroke-width: 1.0;"/><line style="stroke: #A80036; stroke-width: 1.0;" x1="200.5" x2="200.5" y1="173.5" y2="183.5"/><line style="stroke: #A80036; stroke-width: 1.0;" x1="210.5" x2="200.5" y1="183.5" y2="183.5"/><text fill="#000000" font-family="sans-serif" font-size="13" lengthAdjust="spacingAndGlyphs" textLength="111" x="38.5" y="191.9951">Plugins can extend</text><text fill="#000000" font-family="sans-serif" font-size="13" lengthAdjust="spacingAndGlyphs" textLength="157" x="38.5" y="208.3467">DATA_STORE_REGISTRY</text><text fill="#000000" font-family="sans-serif" font-size="13" lengthAdjust="spacingAndGlyphs" textLength="152" x="38.5" y="224.6982">by adding new data stores</text><rect fill="#FEFECE" filter="url(#f1)" height="103.3438" style="stroke: #A80036; stroke-width: 1.5;" width="188" x="272.5" y="8"/><ellipse cx="312.7" cy="24" fill="#ADD1B2" rx="11" ry="11" style="stroke: #A80036; stroke-width: 1.0;"/><path d="M315.4656,19.875 Q315.6219,19.6563 315.8094,19.5469 Q315.9969,19.4375 316.2156,19.4375 Q316.5906,19.4375 316.825,19.6953 Q317.0594,19.9531 317.0594,20.5625 L317.0594,22.0156 Q317.0594,22.625 316.825,22.8906 Q316.5906,23.1563 316.2156,23.1563 Q315.8719,23.1563 315.6688,22.9531 Q315.4656,22.7656 315.3563,22.25 Q315.3094,21.8906 315.1219,21.7031 Q314.7938,21.3281 314.1844,21.1094 Q313.575,20.8906 312.95,20.8906 Q312.1844,20.8906 311.5516,21.2188 Q310.9188,21.5469 310.4266,22.2969 Q309.9344,23.0469 309.9344,24.0781 L309.9344,25.1719 Q309.9344,26.4063 310.825,27.2266 Q311.7156,28.0469 313.3094,28.0469 Q314.2469,28.0469 314.9031,27.7969 Q315.2938,27.6406 315.7156,27.2031 Q315.9813,26.9375 316.1297,26.8594 Q316.2781,26.7813 316.4813,26.7813 Q316.8094,26.7813 317.0672,27.0391 Q317.325,27.2969 317.325,27.6406 Q317.325,27.9844 316.9813,28.3906 Q316.4813,28.9688 315.6844,29.2969 Q314.6063,29.75 313.3094,29.75 Q311.7938,29.75 310.5906,29.125 Q309.6063,28.625 308.9188,27.5547 Q308.2313,26.4844 308.2313,25.2031 L308.2313,24.0469 Q308.2313,22.7188 308.8484,21.5703 Q309.4656,20.4219 310.5594,19.8047 Q311.6531,19.1875 312.8875,19.1875 Q313.6219,19.1875 314.2703,19.3516 Q314.9188,19.5156 315.4656,19.875 Z "/><text fill="#000000" font-family="sans-serif" font-size="12" lengthAdjust="spacingAndGlyphs" textLength="100" x="332.3" y="28.9102">DataStoreRegistry</text><line style="stroke: #A80036; stroke-width: 1.5;" x1="273.5" x2="459.5" y1="40" y2="40"/><line style="stroke: #A80036; stroke-width: 1.5;" x1="273.5" x2="459.5" y1="48" y2="48"/><text fill="#000000" font-family="sans-serif" font-size="11" lengthAdjust="spacingAndGlyphs" textLength="164" x="278.5" y="63.4189">get_data_stores(): List[DataStore]</text><text fill="#000000" font-family="sans-serif" font-size="11" lengthAdjust="spacingAndGlyphs" textLength="161" x="278.5" y="77.2549">get_data_store(name): DataStore</text><text fill="#000000" font-family="sans-serif" font-size="11" lengthAdjust="spacingAndGlyphs" textLength="158" x="278.5" y="91.0908">add_data_store(DataStore): void</text><text fill="#000000" font-family="sans-serif" font-size="11" lengthAdjust="spacingAndGlyphs" textLength="176" x="278.5" y="104.9268">remove_data_store(DataStore): void</text><rect fill="#FEFECE" filter="url(#f1)" height="61.8359" style="stroke: #A80036; stroke-width: 1.5;" width="166" x="283.5" y="172"/><ellipse cx="334.75" cy="188" fill="#B4A7E5" rx="11" ry="11" style="stroke: #A80036; stroke-width: 1.0;"/><path d="M335.7031,184.6406 L335.7031,191.2969 L337.4219,191.2969 Q338.0313,191.2969 338.2969,191.5313 Q338.5625,191.7656 338.5625,192.1563 Q338.5625,192.5313 338.2969,192.7656 Q338.0313,193 337.4219,193 L332.2813,193 Q331.6719,193 331.4063,192.7656 Q331.1406,192.5313 331.1406,192.1406 Q331.1406,191.7656 331.4063,191.5313 Q331.6719,191.2969 332.2813,191.2969 L334,191.2969 L334,184.6406 L332.2813,184.6406 Q331.6719,184.6406 331.4063,184.4063 Q331.1406,184.1719 331.1406,183.7813 Q331.1406,183.4063 331.4063,183.1719 Q331.6719,182.9375 332.2813,182.9375 L337.4219,182.9375 Q338.0313,182.9375 338.2969,183.1719 Q338.5625,183.4063 338.5625,183.7813 Q338.5625,184.1719 338.2969,184.4063 Q338.0313,184.6406 337.4219,184.6406 L335.7031,184.6406 Z "/><text fill="#000000" font-family="sans-serif" font-size="12" font-style="italic" lengthAdjust="spacingAndGlyphs" textLength="55" x="355.25" y="192.9102">DataStore</text><line style="stroke: #A80036; stroke-width: 1.5;" x1="284.5" x2="448.5" y1="204" y2="204"/><line style="stroke: #A80036; stroke-width: 1.5;" x1="284.5" x2="448.5" y1="212" y2="212"/><text fill="#000000" font-family="sans-serif" font-size="11" font-style="italic" lengthAdjust="spacingAndGlyphs" textLength="154" x="289.5" y="227.4189">query(constraints): DataSource</text><rect fill="#FEFECE" filter="url(#f1)" height="89.5078" style="stroke: #A80036; stroke-width: 1.5;" width="209" x="262" y="312"/><ellipse cx="329.75" cy="328" fill="#B4A7E5" rx="11" ry="11" style="stroke: #A80036; stroke-width: 1.0;"/><path d="M330.7031,324.6406 L330.7031,331.2969 L332.4219,331.2969 Q333.0313,331.2969 333.2969,331.5313 Q333.5625,331.7656 333.5625,332.1563 Q333.5625,332.5313 333.2969,332.7656 Q333.0313,333 332.4219,333 L327.2813,333 Q326.6719,333 326.4063,332.7656 Q326.1406,332.5313 326.1406,332.1406 Q326.1406,331.7656 326.4063,331.5313 Q326.6719,331.2969 327.2813,331.2969 L329,331.2969 L329,324.6406 L327.2813,324.6406 Q326.6719,324.6406 326.4063,324.4063 Q326.1406,324.1719 326.1406,323.7813 Q326.1406,323.4063 326.4063,323.1719 Q326.6719,322.9375 327.2813,322.9375 L332.4219,322.9375 Q333.0313,322.9375 333.2969,323.1719 Q333.5625,323.4063 333.5625,323.7813 Q333.5625,324.1719 333.2969,324.4063 Q333.0313,324.6406 332.4219,324.6406 L330.7031,324.6406 Z "/><text fill="#000000" font-family="sans-serif" font-size="12" font-style="italic" lengthAdjust="spacingAndGlyphs" textLength="65" x="350.25" y="332.9102">DataSource</text><line style="stroke: #A80036; stroke-width: 1.5;" x1="263" x2="470" y1="344" y2="344"/><line style="stroke: #A80036; stroke-width: 1.5;" x1="263" x2="470" y1="352" y2="352"/><text fill="#000000" font-family="sans-serif" font-size="11" font-style="italic" lengthAdjust="spacingAndGlyphs" textLength="110" x="268" y="367.4189">get_dataset_schema()</text><text fill="#000000" font-family="sans-serif" font-size="11" font-style="italic" lengthAdjust="spacingAndGlyphs" textLength="197" x="268" y="381.2549">open_dataset(constraints): cdm.Dataset</text><text fill="#000000" font-family="sans-serif" font-size="11" font-style="italic" lengthAdjust="spacingAndGlyphs" textLength="86" x="268" y="395.0908">sync(time_range)</text><path d="M366.5,124.282 C366.5,135.923 366.5,147.818 366.5,158.69 " fill="none" style="stroke: #A80036; stroke-width: 1.0;"/><polygon fill="#A80036" points="366.5,171.818,370.5,162.818,366.5,166.818,362.5,162.818,366.5,171.818" style="stroke: #A80036; stroke-width: 1.0;"/><line style="stroke: #A80036; stroke-width: 1.0;" x1="366.5" x2="366.5" y1="166.818" y2="158.818"/><polygon fill="#FFFFFF" points="366.5,111.185,362.5,117.185,366.5,123.185,370.5,117.185,366.5,111.185" style="stroke: #A80036; stroke-width: 1.0;"/><text fill="#000000" font-family="sans-serif" font-size="13" lengthAdjust="spacingAndGlyphs" textLength="9" x="356.5719" y="161.285">N</text><path d="M366.5,234.03 C366.5,254.789 366.5,282.877 366.5,306.866 " fill="none" style="stroke: #A80036; stroke-width: 1.0; stroke-dasharray: 7.0,7.0;"/><polygon fill="#A80036" points="366.5,311.919,370.5,302.919,366.5,306.919,362.5,302.919,366.5,311.919" style="stroke: #A80036; stroke-width: 1.0;"/><text fill="#000000" font-family="sans-serif" font-size="13" lengthAdjust="spacingAndGlyphs" textLength="56" x="367.5" y="278.4951">&lt;provide&gt;</text><path d="M347.741,402.354 C343.855,412.06 339.909,422.325 336.5,432 C328.919,453.514 321.531,478.261 316.249,496.8155 " fill="none" style="stroke: #A80036; stroke-width: 1.0; stroke-dasharray: 7.0,7.0;"/><polygon fill="#A80036" points="314.817,501.8769,321.1169,494.3065,316.1787,497.0659,313.4193,492.1277,314.817,501.8769" style="stroke: #A80036; stroke-width: 1.0;"/><text fill="#000000" font-family="sans-serif" font-size="13" lengthAdjust="spacingAndGlyphs" textLength="44" x="337.5" y="446.4951">&lt;open&gt;</text><path d="M380.564,402.314 C390.051,432.209 402.29,470.771 410.49,496.6102 " fill="none" style="stroke: #A80036; stroke-width: 1.0; stroke-dasharray: 7.0,7.0;"/><polygon fill="#A80036" points="412.074,501.6021,413.1639,491.8137,410.5614,496.8364,405.5388,494.2339,412.074,501.6021" style="stroke: #A80036; stroke-width: 1.0;"/><text fill="#000000" font-family="sans-serif" font-size="13" lengthAdjust="spacingAndGlyphs" textLength="56" x="395.5" y="446.4951">&lt;provide&gt;</text></g></svg>