<?xml version="1.0" encoding="UTF-8" standalone="yes"?><svg xmlns="http://www.w3.org/2000/svg" xmlns:xlink="http://www.w3.org/1999/xlink" height="589px" style="width:920px;height:589px;" version="1.1" viewBox="0 0 920 589" width="920px"><defs><filter height="300%" id="f1" width="300%" x="-1" y="-1"><feGaussianBlur result="blurOut" stdDeviation="2.0"/><feColorMatrix in="blurOut" result="blurOut2" type="matrix" values="0 0 0 0 0 0 0 0 0 0 0 0 0 0 0 0 0 0 .4 0"/><feOffset dx="4.0" dy="4.0" in="blurOut2" result="blurOut3"/><feBlend in="SourceGraphic" in2="blurOut3" mode="normal"/></filter></defs><g><polygon fill="#FFFFFF" filter="url(#f1)" points="367,461.5,402,461.5,409,485.1094,477,485.1094,477,561.5,367,561.5,367,461.5" style="stroke: #000000; stroke-width: 2.0;"/><line style="stroke: #000000; stroke-width: 2.0;" x1="367" x2="409" y1="485.1094" y2="485.1094"/><text fill="#000000" font-family="sans-serif" font-size="14" font-weight="bold" lengthAdjust="spacingAndGlyphs" textLength="29" x="371" y="478.0332">cdm</text><polygon fill="#FFFFFF" filter="url(#f1)" points="501,461.5,583,461.5,590,485.1094,687,485.1094,687,561.5,501,561.5,501,461.5" style="stroke: #000000; stroke-width: 2.0;"/><line style="stroke: #000000; stroke-width: 2.0;" x1="501" x2="590" y1="485.1094" y2="485.1094"/><text fill="#000000" font-family="sans-serif" font-size="14" font-weight="bold" lengthAdjust="spacingAndGlyphs" textLength="76" x="505" y="478.0332">cdm.xarray</text><polygon fill="#FFFFFF" filter="url(#f1)" points="711,461.5,815,461.5,822,485.1094,913,485.1094,913,561.5,711,561.5,711,461.5" style="stroke: #000000; stroke-width: 2.0;"/><line style="stroke: #000000; stroke-width: 2.0;" x1="711" x2="822" y1="485.1094" y2="485.1094"/><text fill="#000000" font-family="sans-serif" font-size="14" font-weight="bold" lengthAdjust="spacingAndGlyphs" textLength="98" x="715" y="478.0332">cdm.shapefile</text><rect fill="#FEFECE" filter="url(#f1)" height="48" style="stroke: #A80036; stroke-width: 1.5;" width="78" x="383" y="497.5"/><ellipse cx="398" cy="513.5" fill="#B4A7E5" rx="11" ry="11" style="stroke: #A80036; stroke-width: 1.0;"/><path d="M398.9531,510.1406 L398.9531,516.7969 L400.6719,516.7969 Q401.2813,516.7969 401.5469,517.0313 Q401.8125,517.2656 401.8125,517.6563 Q401.8125,518.0313 401.5469,518.2656 Q401.2813,518.5 400.6719,518.5 L395.5313,518.5 Q394.9219,518.5 394.6563,518.2656 Q394.3906,518.0313 394.3906,517.6406 Q394.3906,517.2656 394.6563,517.0313 Q394.9219,516.7969 395.5313,516.7969 L397.25,516.7969 L397.25,510.1406 L395.5313,510.1406 Q394.9219,510.1406 394.6563,509.9063 Q394.3906,509.6719 394.3906,509.2813 Q394.3906,508.9063 394.6563,508.6719 Q394.9219,508.4375 395.5313,508.4375 L400.6719,508.4375 Q401.2813,508.4375 401.5469,508.6719 Q401.8125,508.9063 401.8125,509.2813 Q401.8125,509.6719 401.5469,509.9063 Q401.2813,510.1406 400.6719,510.1406 L398.9531,510.1406 Z "/><text fill="#000000" font-family="sans-serif" font-size="12" font-style="italic" lengthAdjust="spacingAndGlyphs" textLength="46" x="412" y="518.4102">Schema</text><line style="stroke: #A80036; stroke-width: 1.5;" x1="384" x2="460" y1="529.5" y2="529.5"/><line style="stroke: #A80036; stroke-width: 1.5;" x1="384" x2="460" y1="537.5" y2="537.5"/><rect fill="#FEFECE" filter="url(#f1)" height="48" style="stroke: #A80036; stroke-width: 1.5;" width="154" x="517" y="497.5"/><ellipse cx="532" cy="513.5" fill="#B4A7E5" rx="11" ry="11" style="stroke: #A80036; stroke-width: 1.0;"/><path d="M532.9531,510.1406 L532.9531,516.7969 L534.6719,516.7969 Q535.2813,516.7969 535.5469,517.0313 Q535.8125,517.2656 535.8125,517.6563 Q535.8125,518.0313 535.5469,518.2656 Q535.2813,518.5 534.6719,518.5 L529.5313,518.5 Q528.9219,518.5 528.6563,518.2656 Q528.3906,518.0313 528.3906,517.6406 Q528.3906,517.2656 528.6563,517.0313 Q528.9219,516.7969 529.5313,516.7969 L531.25,516.7969 L531.25,510.1406 L529.5313,510.1406 Q528.9219,510.1406 528.6563,509.9063 Q528.3906,509.6719 528.3906,509.2813 Q528.3906,508.9063 528.6563,508.6719 Q528.9219,508.4375 529.5313,508.4375 L534.6719,508.4375 Q535.2813,508.4375 535.5469,508.6719 Q535.8125,508.9063 535.8125,509.2813 Q535.8125,509.6719 535.5469,509.9063 Q535.2813,510.1406 534.6719,510.1406 L532.9531,510.1406 Z "/><text fill="#000000" font-family="sans-serif" font-size="12" font-style="italic" lengthAdjust="spacingAndGlyphs" textLength="122" x="546" y="518.4102">XArrayDatasetAdapter</text><line style="stroke: #A80036; stroke-width: 1.5;" x1="518" x2="670" y1="529.5" y2="529.5"/><line style="stroke: #A80036; stroke-width: 1.5;" x1="518" x2="670" y1="537.5" y2="537.5"/><rect fill="#FEFECE" filter="url(#f1)" height="48" style="stroke: #A80036; stroke-width: 1.5;" width="169" x="727.5" y="497.5"/><ellipse cx="742.5" cy="513.5" fill="#B4A7E5" rx="11" ry="11" style="stroke: #A80036; stroke-width: 1.0;"/><path d="M743.4531,510.1406 L743.4531,516.7969 L745.1719,516.7969 Q745.7813,516.7969 746.0469,517.0313 Q746.3125,517.2656 746.3125,517.6563 Q746.3125,518.0313 746.0469,518.2656 Q745.7813,518.5 745.1719,518.5 L740.0313,518.5 Q739.4219,518.5 739.1563,518.2656 Q738.8906,518.0313 738.8906,517.6406 Q738.8906,517.2656 739.1563,517.0313 Q739.4219,516.7969 740.0313,516.7969 L741.75,516.7969 L741.75,510.1406 L740.0313,510.1406 Q739.4219,510.1406 739.1563,509.9063 Q738.8906,509.6719 738.8906,509.2813 Q738.8906,508.9063 739.1563,508.6719 Q739.4219,508.4375 740.0313,508.4375 L745.1719,508.4375 Q745.7813,508.4375 746.0469,508.6719 Q746.3125,508.9063 746.3125,509.2813 Q746.3125,509.6719 746.0469,509.9063 Q745.7813,510.1406 745.1719,510.1406 L743.4531,510.1406 Z "/><text fill="#000000" font-family="sans-serif" font-size="12" font-style="italic" lengthAdjust="spacingAndGlyphs" textLength="137" x="756.5" y="518.4102">ShapefileDatasetAdapter</text><line style="stroke: #A80036; stroke-width: 1.5;" x1="728.5" x2="895.5" y1="529.5" y2="529.5"/><line style="stroke: #A80036; stroke-width: 1.5;" x1="728.5" x2="895.5" y1="537.5" y2="537.5"/><rect fill="#FEFECE" filter="url(#f1)" height="61.8359" style="stroke: #A80036; stroke-width: 1.5;" width="166" x="259" y="8"/><ellipse cx="310.25" cy="24" fill="#B4A7E5" rx="11" ry="11" style="stroke: #A80036; stroke-width: 1.0;"/><path d="M311.2031,20.6406 L311.2031,27.2969 L312.9219,27.2969 Q313.5313,27.2969 313.7969,27.5313 Q314.0625,27.7656 314.0625,28.1563 Q314.0625,28.5313 313.7969,28.7656 Q313.5313,29 312.9219,29 L307.7813,29 Q307.1719,29 306.9063,28.7656 Q306.6406,28.5313 306.6406,28.1406 Q306.6406,27.7656 306.9063,27.5313 Q307.1719,27.2969 307.7813,27.2969 L309.5,27.2969 L309.5,20.6406 L307.7813,20.6406 Q307.1719,20.6406 306.9063,20.4063 Q306.6406,20.1719 306.6406,19.7813 Q306.6406,19.4063 306.9063,19.1719 Q307.1719,18.9375 307.7813,18.9375 L312.9219,18.9375 Q313.5313,18.9375 313.7969,19.1719 Q314.0625,19.4063 314.0625,19.7813 Q314.0625,20.1719 313.7969,20.4063 Q313.5313,20.6406 312.9219,20.6406 L311.2031,20.6406 Z "/><text fill="#000000" font-family="sans-serif" font-size="12" font-style="italic" lengthAdjust="spacingAndGlyphs" textLength="55" x="330.75" y="28.9102">DataStore</text><line style="stroke: #A80036; stroke-width: 1.5;" x1="260" x2="424" y1="40" y2="40"/><line style="stroke: #A80036; stroke-width: 1.5;" x1="260" x2="424" y1="48" y2="48"/><text fill="#000000" font-family="sans-serif" font-size="11" font-style="italic" lengthAdjust="spacingAndGlyphs" textLength="154" x="265" y="63.4189">query(constraints): DataSource</text><rect fill="#FEFECE" filter="url(#f1)" height="75.6719" style="stroke: #A80036; stroke-width: 1.5;" width="209" x="459.5" y="131"/><ellipse cx="527.25" cy="147" fill="#B4A7E5" rx="11" ry="11" style="stroke: #A80036; stroke-width: 1.0;"/><path d="M528.2031,143.6406 L528.2031,150.2969 L529.9219,150.2969 Q530.5313,150.2969 530.7969,150.5313 Q531.0625,150.7656 531.0625,151.1563 Q531.0625,151.5313 530.7969,151.7656 Q530.5313,152 529.9219,152 L524.7813,152 Q524.1719,152 523.9063,151.7656 Q523.6406,151.5313 523.6406,151.1406 Q523.6406,150.7656 523.9063,150.5313 Q524.1719,150.2969 524.7813,150.2969 L526.5,150.2969 L526.5,143.6406 L524.7813,143.6406 Q524.1719,143.6406 523.9063,143.4063 Q523.6406,143.1719 523.6406,142.7813 Q523.6406,142.4063 523.9063,142.1719 Q524.1719,141.9375 524.7813,141.9375 L529.9219,141.9375 Q530.5313,141.9375 530.7969,142.1719 Q531.0625,142.4063 531.0625,142.7813 Q531.0625,143.1719 530.7969,143.4063 Q530.5313,143.6406 529.9219,143.6406 L528.2031,143.6406 Z "/><text fill="#000000" font-family="sans-serif" font-size="12" font-style="italic" lengthAdjust="spacingAndGlyphs" textLength="65" x="547.75" y="151.9102">DataSource</text><line style="stroke: #A80036; stroke-width: 1.5;" x1="460.5" x2="667.5" y1="163" y2="163"/><line style="stroke: #A80036; stroke-width: 1.5;" x1="460.5" x2="667.5" y1="171" y2="171"/><text fill="#000000" font-family="sans-serif" font-size="11" font-style="italic" lengthAdjust="spacingAndGlyphs" textLength="110" x="465.5" y="186.4189">get_dataset_schema()</text><text fill="#000000" font-family="sans-serif" font-size="11" font-style="italic" lengthAdjust="spacingAndGlyphs" textLength="197" x="465.5" y="200.2549">open_dataset(constraints): cdm.Dataset</text><rect fill="#FEFECE" filter="url(#f1)" height="75.6719" style="stroke: #A80036; stroke-width: 1.5;" width="165" x="259.5" y="131"/><ellipse cx="292.5" cy="147" fill="#ADD1B2" rx="11" ry="11" style="stroke: #A80036; stroke-width: 1.0;"/><path d="M295.2656,142.875 Q295.4219,142.6563 295.6094,142.5469 Q295.7969,142.4375 296.0156,142.4375 Q296.3906,142.4375 296.625,142.6953 Q296.8594,142.9531 296.8594,143.5625 L296.8594,145.0156 Q296.8594,145.625 296.625,145.8906 Q296.3906,146.1563 296.0156,146.1563 Q295.6719,146.1563 295.4688,145.9531 Q295.2656,145.7656 295.1563,145.25 Q295.1094,144.8906 294.9219,144.7031 Q294.5938,144.3281 293.9844,144.1094 Q293.375,143.8906 292.75,143.8906 Q291.9844,143.8906 291.3516,144.2188 Q290.7188,144.5469 290.2266,145.2969 Q289.7344,146.0469 289.7344,147.0781 L289.7344,148.1719 Q289.7344,149.4063 290.625,150.2266 Q291.5156,151.0469 293.1094,151.0469 Q294.0469,151.0469 294.7031,150.7969 Q295.0938,150.6406 295.5156,150.2031 Q295.7813,149.9375 295.9297,149.8594 Q296.0781,149.7813 296.2813,149.7813 Q296.6094,149.7813 296.8672,150.0391 Q297.125,150.2969 297.125,150.6406 Q297.125,150.9844 296.7813,151.3906 Q296.2813,151.9688 295.4844,152.2969 Q294.4063,152.75 293.1094,152.75 Q291.5938,152.75 290.3906,152.125 Q289.4063,151.625 288.7188,150.5547 Q288.0313,149.4844 288.0313,148.2031 L288.0313,147.0469 Q288.0313,145.7188 288.6484,144.5703 Q289.2656,143.4219 290.3594,142.8047 Q291.4531,142.1875 292.6875,142.1875 Q293.4219,142.1875 294.0703,142.3516 Q294.7188,142.5156 295.2656,142.875 Z "/><text fill="#000000" font-family="sans-serif" font-size="12" lengthAdjust="spacingAndGlyphs" textLength="93" x="310.5" y="151.9102">FileSetDataStore</text><line style="stroke: #A80036; stroke-width: 1.5;" x1="260.5" x2="423.5" y1="163" y2="163"/><text fill="#000000" font-family="sans-serif" font-size="11" lengthAdjust="spacingAndGlyphs" textLength="37" x="265.5" y="178.4189">root_dir</text><line style="stroke: #A80036; stroke-width: 1.5;" x1="260.5" x2="423.5" y1="184.8359" y2="184.8359"/><text fill="#000000" font-family="sans-serif" font-size="11" lengthAdjust="spacingAndGlyphs" textLength="153" x="265.5" y="200.2549">query(constraints): DataSource</text><rect fill="#FEFECE" filter="url(#f1)" height="117.1797" style="stroke: #A80036; stroke-width: 1.5;" width="206" x="405" y="268"/><ellipse cx="452.25" cy="284" fill="#ADD1B2" rx="11" ry="11" style="stroke: #A80036; stroke-width: 1.0;"/><path d="M455.0156,279.875 Q455.1719,279.6563 455.3594,279.5469 Q455.5469,279.4375 455.7656,279.4375 Q456.1406,279.4375 456.375,279.6953 Q456.6094,279.9531 456.6094,280.5625 L456.6094,282.0156 Q456.6094,282.625 456.375,282.8906 Q456.1406,283.1563 455.7656,283.1563 Q455.4219,283.1563 455.2188,282.9531 Q455.0156,282.7656 454.9063,282.25 Q454.8594,281.8906 454.6719,281.7031 Q454.3438,281.3281 453.7344,281.1094 Q453.125,280.8906 452.5,280.8906 Q451.7344,280.8906 451.1016,281.2188 Q450.4688,281.5469 449.9766,282.2969 Q449.4844,283.0469 449.4844,284.0781 L449.4844,285.1719 Q449.4844,286.4063 450.375,287.2266 Q451.2656,288.0469 452.8594,288.0469 Q453.7969,288.0469 454.4531,287.7969 Q454.8438,287.6406 455.2656,287.2031 Q455.5313,286.9375 455.6797,286.8594 Q455.8281,286.7813 456.0313,286.7813 Q456.3594,286.7813 456.6172,287.0391 Q456.875,287.2969 456.875,287.6406 Q456.875,287.9844 456.5313,288.3906 Q456.0313,288.9688 455.2344,289.2969 Q454.1563,289.75 452.8594,289.75 Q451.3438,289.75 450.1406,289.125 Q449.1563,288.625 448.4688,287.5547 Q447.7813,286.4844 447.7813,285.2031 L447.7813,284.0469 Q447.7813,282.7188 448.3984,281.5703 Q449.0156,280.4219 450.1094,279.8047 Q451.2031,279.1875 452.4375,279.1875 Q453.1719,279.1875 453.8203,279.3516 Q454.4688,279.5156 455.0156,279.875 Z "/><text fill="#000000" font-family="sans-serif" font-size="12" lengthAdjust="spacingAndGlyphs" textLength="103" x="472.75" y="288.9102">FileSetDataSource</text><line style="stroke: #A80036; stroke-width: 1.5;" x1="406" x2="610" y1="300" y2="300"/><text fill="#000000" font-family="sans-serif" font-size="11" lengthAdjust="spacingAndGlyphs" textLength="26" x="411" y="315.4189">name</text><text fill="#000000" font-family="sans-serif" font-size="11" lengthAdjust="spacingAndGlyphs" textLength="42" x="411" y="329.2549">base_dir</text><text fill="#000000" font-family="sans-serif" font-size="11" lengthAdjust="spacingAndGlyphs" textLength="54" x="411" y="343.0908">file_pattern</text><line style="stroke: #A80036; stroke-width: 1.5;" x1="406" x2="610" y1="349.5078" y2="349.5078"/><text fill="#000000" font-family="sans-serif" font-size="11" lengthAdjust="spacingAndGlyphs" textLength="109" x="411" y="364.9268">get_dataset_schema()</text><text fill="#000000" font-family="sans-serif" font-size="11" lengthAdjust="spacingAndGlyphs" textLength="194" x="411" y="378.7627">open_dataset(constraints): cdm.Dataset</text><rect fill="#FEFECE" filter="url(#f1)" height="117.1797" style="stroke: #A80036; stroke-width: 1.5;" width="94" x="254" y="463"/><ellipse cx="270.8" cy="479" fill="#ADD1B2" rx="11" ry="11" style="stroke: #A80036; stroke-width: 1.0;"/><path d="M273.5656,474.875 Q273.7219,474.6563 273.9094,474.5469 Q274.0969,474.4375 274.3156,474.4375 Q274.6906,474.4375 274.925,474.6953 Q275.1594,474.9531 275.1594,475.5625 L275.1594,477.0156 Q275.1594,477.625 274.925,477.8906 Q274.6906,478.1563 274.3156,478.1563 Q273.9719,478.1563 273.7688,477.9531 Q273.5656,477.7656 273.4563,477.25 Q273.4094,476.8906 273.2219,476.7031 Q272.8938,476.3281 272.2844,476.1094 Q271.675,475.8906 271.05,475.8906 Q270.2844,475.8906 269.6516,476.2188 Q269.0188,476.5469 268.5266,477.2969 Q268.0344,478.0469 268.0344,479.0781 L268.0344,480.1719 Q268.0344,481.4063 268.925,482.2266 Q269.8156,483.0469 271.4094,483.0469 Q272.3469,483.0469 273.0031,482.7969 Q273.3938,482.6406 273.8156,482.2031 Q274.0813,481.9375 274.2297,481.8594 Q274.3781,481.7813 274.5813,481.7813 Q274.9094,481.7813 275.1672,482.0391 Q275.425,482.2969 275.425,482.6406 Q275.425,482.9844 275.0813,483.3906 Q274.5813,483.9688 273.7844,484.2969 Q272.7063,484.75 271.4094,484.75 Q269.8938,484.75 268.6906,484.125 Q267.7063,483.625 267.0188,482.5547 Q266.3313,481.4844 266.3313,480.2031 L266.3313,479.0469 Q266.3313,477.7188 266.9484,476.5703 Q267.5656,475.4219 268.6594,474.8047 Q269.7531,474.1875 270.9875,474.1875 Q271.7219,474.1875 272.3703,474.3516 Q273.0188,474.5156 273.5656,474.875 Z "/><text fill="#000000" font-family="sans-serif" font-size="12" lengthAdjust="spacingAndGlyphs" textLength="58" x="285.2" y="483.9102">FileSetInfo</text><line style="stroke: #A80036; stroke-width: 1.5;" x1="255" x2="347" y1="495" y2="495"/><text fill="#000000" font-family="sans-serif" font-size="11" lengthAdjust="spacingAndGlyphs" textLength="82" x="260" y="510.4189">info_update_time</text><text fill="#000000" font-family="sans-serif" font-size="11" lengthAdjust="spacingAndGlyphs" textLength="47" x="260" y="524.2549">start_time</text><text fill="#000000" font-family="sans-serif" font-size="11" lengthAdjust="spacingAndGlyphs" textLength="43" x="260" y="538.0908">end_time</text><text fill="#000000" font-family="sans-serif" font-size="11" lengthAdjust="spacingAndGlyphs" textLength="46" x="260" y="551.9268">num_files</text><text fill="#000000" font-family="sans-serif" font-size="11" lengthAdjust="spacingAndGlyphs" textLength="54" x="260" y="565.7627">size_in_mb</text><line style="stroke: #A80036; stroke-width: 1.5;" x1="255" x2="347" y1="572.1797" y2="572.1797"/><polygon fill="#FBFB77" filter="url(#f1)" points="6,139.5,6,198.5547,190,198.5547,190,149.5,180,139.5,6,139.5" style="stroke: #A80036; stroke-width: 1.0;"/><polygon fill="#FBFB77" points="6,139.5,6,198.5547,190,198.5547,190,173,259.419,169,190,165,190,149.5,180,139.5,6,139.5" style="stroke: #A80036; stroke-width: 1.0;"/><line style="stroke: #A80036; stroke-width: 1.0;" x1="180" x2="180" y1="139.5" y2="149.5"/><line style="stroke: #A80036; stroke-width: 1.0;" x1="190" x2="180" y1="149.5" y2="149.5"/><text fill="#000000" font-family="sans-serif" font-size="13" lengthAdjust="spacingAndGlyphs" textLength="163" x="12" y="157.9951">Users may create their own.</text><text fill="#000000" font-family="sans-serif" font-size="13" lengthAdjust="spacingAndGlyphs" textLength="160" x="12" y="174.3467">The default instance mirrors</text><text fill="#000000" font-family="sans-serif" font-size="13" lengthAdjust="spacingAndGlyphs" textLength="148" x="12" y="190.6982">the CCI Portal's FTP tree.</text><polygon fill="#FBFB77" filter="url(#f1)" points="149,289,149,364.4063,335,364.4063,335,299,325,289,149,289" style="stroke: #A80036; stroke-width: 1.0;"/><polygon fill="#FBFB77" points="149,289,149,364.4063,335,364.4063,335,330.5,404.758,326.5,335,322.5,335,299,325,289,149,289" style="stroke: #A80036; stroke-width: 1.0;"/><line style="stroke: #A80036; stroke-width: 1.0;" x1="325" x2="325" y1="289" y2="299"/><line style="stroke: #A80036; stroke-width: 1.0;" x1="335" x2="325" y1="299" y2="299"/><text fill="#000000" font-family="sans-serif" font-size="13" lengthAdjust="spacingAndGlyphs" textLength="154" x="155" y="307.4951">open_dataset() will look for</text><text fill="#000000" font-family="sans-serif" font-size="13" lengthAdjust="spacingAndGlyphs" textLength="153" x="155" y="323.8467">actual file types and return</text><text fill="#000000" font-family="sans-serif" font-size="13" lengthAdjust="spacingAndGlyphs" textLength="50" x="155" y="340.1982">either an</text><text fill="#000000" font-family="sans-serif" font-size="13" font-weight="bold" lengthAdjust="spacingAndGlyphs" textLength="46" x="209" y="340.1982">netCDF</text><text fill="#000000" font-family="sans-serif" font-size="13" lengthAdjust="spacingAndGlyphs" textLength="4" x="259" y="340.1982">(</text><text fill="#000000" font-family="sans-serif" font-size="13" font-style="italic" lengthAdjust="spacingAndGlyphs" textLength="34" x="263" y="340.1982">xarray</text><text fill="#000000" font-family="sans-serif" font-size="13" lengthAdjust="spacingAndGlyphs" textLength="19" x="297" y="340.1982">) or</text><text fill="#000000" font-family="sans-serif" font-size="13" font-weight="bold" lengthAdjust="spacingAndGlyphs" textLength="61" x="155" y="356.5498">Shapefile</text><text fill="#000000" font-family="sans-serif" font-size="13" lengthAdjust="spacingAndGlyphs" textLength="100" x="220" y="356.5498">dataset instance.</text><path d="M342,90.211 C342,103.756 342,118.166 342,130.855 " fill="none" style="stroke: #A80036; stroke-width: 1.0; stroke-dasharray: 7.0,7.0;"/><polygon fill="none" points="335,90.01,342,70.01,349,90.01,335,90.01" style="stroke: #A80036; stroke-width: 1.0;"/><path d="M543.754,226.218 C538.872,239.776 533.647,254.283 528.742,267.903 " fill="none" style="stroke: #A80036; stroke-width: 1.0; stroke-dasharray: 7.0,7.0;"/><polygon fill="none" points="537.224,223.691,550.587,207.246,550.396,228.435,537.224,223.691" style="stroke: #A80036; stroke-width: 1.0;"/><path d="M482.314,385.145 C466.499,420.635 446.934,464.543 434.459,492.5408 " fill="none" style="stroke: #A80036; stroke-width: 1.0;"/><polygon fill="#A80036" points="432.367,497.2354,439.6839,490.6427,434.4021,492.6683,432.3765,487.3865,432.367,497.2354" style="stroke: #A80036; stroke-width: 1.0;"/><text fill="#000000" font-family="sans-serif" font-size="13" lengthAdjust="spacingAndGlyphs" textLength="46" x="469" y="429.4951">schema</text><path d="M533.686,385.145 C549.501,420.635 569.066,464.543 581.541,492.5408 " fill="none" style="stroke: #A80036; stroke-width: 1.0; stroke-dasharray: 7.0,7.0;"/><polygon fill="#A80036" points="583.633,497.2354,583.6235,487.3865,581.5979,492.6683,576.3161,490.6427,583.633,497.2354" style="stroke: #A80036; stroke-width: 1.0;"/><text fill="#000000" font-family="sans-serif" font-size="13" lengthAdjust="spacingAndGlyphs" textLength="44" x="554" y="429.4951">&lt;open&gt;</text><path d="M598.798,385.145 C656.14,421.549 727.431,466.81 771.317,494.6718 " fill="none" style="stroke: #A80036; stroke-width: 1.0; stroke-dasharray: 7.0,7.0;"/><polygon fill="#A80036" points="775.74,497.4798,770.286,489.279,771.5189,494.7998,765.998,496.0327,775.74,497.4798" style="stroke: #A80036; stroke-width: 1.0;"/><text fill="#000000" font-family="sans-serif" font-size="13" lengthAdjust="spacingAndGlyphs" textLength="44" x="670" y="429.4951">&lt;open&gt;</text><path d="M391.621,216.482 C408.869,232.639 428.424,250.957 446.514,267.903 " fill="none" style="stroke: #A80036; stroke-width: 1.0;"/><polygon fill="#FFFFFF" points="381.761,207.246,383.4052,214.2671,390.5187,215.4498,388.8745,208.4287,381.761,207.246" style="stroke: #A80036; stroke-width: 1.0;"/><text fill="#000000" font-family="sans-serif" font-size="13" lengthAdjust="spacingAndGlyphs" textLength="7" x="380.5401" y="228.1657">1</text><text fill="#000000" font-family="sans-serif" font-size="13" lengthAdjust="spacingAndGlyphs" textLength="9" x="429.472" y="257.2921">N</text><path d="M441.573,385.302 C417.753,406.436 390.89,430.744 367,453.5 C360.852,459.356 354.479,465.597 348.225,471.826 " fill="none" style="stroke: #A80036; stroke-width: 1.0;"/><text fill="#000000" font-family="sans-serif" font-size="13" lengthAdjust="spacingAndGlyphs" textLength="22" x="356.049" y="461.5827">0..1</text></g></svg>