<?xml version="1.0" encoding="UTF-8" standalone="yes"?><svg xmlns="http://www.w3.org/2000/svg" xmlns:xlink="http://www.w3.org/1999/xlink" height="617px" style="width:925px;height:617px;" version="1.1" viewBox="0 0 925 617" width="925px"><defs><filter height="300%" id="f1" width="300%" x="-1" y="-1"><feGaussianBlur result="blurOut" stdDeviation="2.0"/><feColorMatrix in="blurOut" result="blurOut2" type="matrix" values="0 0 0 0 0 0 0 0 0 0 0 0 0 0 0 0 0 0 .4 0"/><feOffset dx="4.0" dy="4.0" in="blurOut2" result="blurOut3"/><feBlend in="SourceGraphic" in2="blurOut3" mode="normal"/></filter></defs><g><polygon fill="#FFFFFF" filter="url(#f1)" points="372.5,489.5,407.5,489.5,414.5,513.1094,482.5,513.1094,482.5,589.5,372.5,589.5,372.5,489.5" style="stroke: #000000; stroke-width: 2.0;"/><line style="stroke: #000000; stroke-width: 2.0;" x1="372.5" x2="414.5" y1="513.1094" y2="513.1094"/><text fill="#000000" font-family="sans-serif" font-size="14" font-weight="bold" lengthAdjust="spacingAndGlyphs" textLength="29" x="376.5" y="506.0332">cdm</text><polygon fill="#FFFFFF" filter="url(#f1)" points="506.5,489.5,588.5,489.5,595.5,513.1094,692.5,513.1094,692.5,589.5,506.5,589.5,506.5,489.5" style="stroke: #000000; stroke-width: 2.0;"/><line style="stroke: #000000; stroke-width: 2.0;" x1="506.5" x2="595.5" y1="513.1094" y2="513.1094"/><text fill="#000000" font-family="sans-serif" font-size="14" font-weight="bold" lengthAdjust="spacingAndGlyphs" textLength="76" x="510.5" y="506.0332">cdm.xarray</text><polygon fill="#FFFFFF" filter="url(#f1)" points="716.5,489.5,820.5,489.5,827.5,513.1094,918.5,513.1094,918.5,589.5,716.5,589.5,716.5,489.5" style="stroke: #000000; stroke-width: 2.0;"/><line style="stroke: #000000; stroke-width: 2.0;" x1="716.5" x2="827.5" y1="513.1094" y2="513.1094"/><text fill="#000000" font-family="sans-serif" font-size="14" font-weight="bold" lengthAdjust="spacingAndGlyphs" textLength="98" x="720.5" y="506.0332">cdm.shapefile</text><rect fill="#FEFECE" filter="url(#f1)" height="48" style="stroke: #A80036; stroke-width: 1.5;" width="78" x="388.5" y="525.5"/><ellipse cx="403.5" cy="541.5" fill="#B4A7E5" rx="11" ry="11" style="stroke: #A80036; stroke-width: 1.0;"/><path d="M404.4531,538.1406 L404.4531,544.7969 L406.1719,544.7969 Q406.7813,544.7969 407.0469,545.0313 Q407.3125,545.2656 407.3125,545.6563 Q407.3125,546.0313 407.0469,546.2656 Q406.7813,546.5 406.1719,546.5 L401.0313,546.5 Q400.4219,546.5 400.1563,546.2656 Q399.8906,546.0313 399.8906,545.6406 Q399.8906,545.2656 400.1563,545.0313 Q400.4219,544.7969 401.0313,544.7969 L402.75,544.7969 L402.75,538.1406 L401.0313,538.1406 Q400.4219,538.1406 400.1563,537.9063 Q399.8906,537.6719 399.8906,537.2813 Q399.8906,536.9063 400.1563,536.6719 Q400.4219,536.4375 401.0313,536.4375 L406.1719,536.4375 Q406.7813,536.4375 407.0469,536.6719 Q407.3125,536.9063 407.3125,537.2813 Q407.3125,537.6719 407.0469,537.9063 Q406.7813,538.1406 406.1719,538.1406 L404.4531,538.1406 Z "/><text fill="#000000" font-family="sans-serif" font-size="12" font-style="italic" lengthAdjust="spacingAndGlyphs" textLength="46" x="417.5" y="546.4102">Schema</text><line style="stroke: #A80036; stroke-width: 1.5;" x1="389.5" x2="465.5" y1="557.5" y2="557.5"/><line style="stroke: #A80036; stroke-width: 1.5;" x1="389.5" x2="465.5" y1="565.5" y2="565.5"/><rect fill="#FEFECE" filter="url(#f1)" height="48" style="stroke: #A80036; stroke-width: 1.5;" width="154" x="522.5" y="525.5"/><ellipse cx="537.5" cy="541.5" fill="#B4A7E5" rx="11" ry="11" style="stroke: #A80036; stroke-width: 1.0;"/><path d="M538.4531,538.1406 L538.4531,544.7969 L540.1719,544.7969 Q540.7813,544.7969 541.0469,545.0313 Q541.3125,545.2656 541.3125,545.6563 Q541.3125,546.0313 541.0469,546.2656 Q540.7813,546.5 540.1719,546.5 L535.0313,546.5 Q534.4219,546.5 534.1563,546.2656 Q533.8906,546.0313 533.8906,545.6406 Q533.8906,545.2656 534.1563,545.0313 Q534.4219,544.7969 535.0313,544.7969 L536.75,544.7969 L536.75,538.1406 L535.0313,538.1406 Q534.4219,538.1406 534.1563,537.9063 Q533.8906,537.6719 533.8906,537.2813 Q533.8906,536.9063 534.1563,536.6719 Q534.4219,536.4375 535.0313,536.4375 L540.1719,536.4375 Q540.7813,536.4375 541.0469,536.6719 Q541.3125,536.9063 541.3125,537.2813 Q541.3125,537.6719 541.0469,537.9063 Q540.7813,538.1406 540.1719,538.1406 L538.4531,538.1406 Z "/><text fill="#000000" font-family="sans-serif" font-size="12" font-style="italic" lengthAdjust="spacingAndGlyphs" textLength="122" x="551.5" y="546.4102">XArrayDatasetAdapter</text><line style="stroke: #A80036; stroke-width: 1.5;" x1="523.5" x2="675.5" y1="557.5" y2="557.5"/><line style="stroke: #A80036; stroke-width: 1.5;" x1="523.5" x2="675.5" y1="565.5" y2="565.5"/><rect fill="#FEFECE" filter="url(#f1)" height="48" style="stroke: #A80036; stroke-width: 1.5;" width="169" x="733" y="525.5"/><ellipse cx="748" cy="541.5" fill="#B4A7E5" rx="11" ry="11" style="stroke: #A80036; stroke-width: 1.0;"/><path d="M748.9531,538.1406 L748.9531,544.7969 L750.6719,544.7969 Q751.2813,544.7969 751.5469,545.0313 Q751.8125,545.2656 751.8125,545.6563 Q751.8125,546.0313 751.5469,546.2656 Q751.2813,546.5 750.6719,546.5 L745.5313,546.5 Q744.9219,546.5 744.6563,546.2656 Q744.3906,546.0313 744.3906,545.6406 Q744.3906,545.2656 744.6563,545.0313 Q744.9219,544.7969 745.5313,544.7969 L747.25,544.7969 L747.25,538.1406 L745.5313,538.1406 Q744.9219,538.1406 744.6563,537.9063 Q744.3906,537.6719 744.3906,537.2813 Q744.3906,536.9063 744.6563,536.6719 Q744.9219,536.4375 745.5313,536.4375 L750.6719,536.4375 Q751.2813,536.4375 751.5469,536.6719 Q751.8125,536.9063 751.8125,537.2813 Q751.8125,537.6719 751.5469,537.9063 Q751.2813,538.1406 750.6719,538.1406 L748.9531,538.1406 Z "/><text fill="#000000" font-family="sans-serif" font-size="12" font-style="italic" lengthAdjust="spacingAndGlyphs" textLength="137" x="762" y="546.4102">ShapefileDatasetAdapter</text><line style="stroke: #A80036; stroke-width: 1.5;" x1="734" x2="901" y1="557.5" y2="557.5"/><line style="stroke: #A80036; stroke-width: 1.5;" x1="734" x2="901" y1="565.5" y2="565.5"/><rect fill="#FEFECE" filter="url(#f1)" height="61.8359" style="stroke: #A80036; stroke-width: 1.5;" width="166" x="264.5" y="8"/><ellipse cx="315.75" cy="24" fill="#B4A7E5" rx="11" ry="11" style="stroke: #A80036; stroke-width: 1.0;"/><path d="M316.7031,20.6406 L316.7031,27.2969 L318.4219,27.2969 Q319.0313,27.2969 319.2969,27.5313 Q319.5625,27.7656 319.5625,28.1563 Q319.5625,28.5313 319.2969,28.7656 Q319.0313,29 318.4219,29 L313.2813,29 Q312.6719,29 312.4063,28.7656 Q312.1406,28.5313 312.1406,28.1406 Q312.1406,27.7656 312.4063,27.5313 Q312.6719,27.2969 313.2813,27.2969 L315,27.2969 L315,20.6406 L313.2813,20.6406 Q312.6719,20.6406 312.4063,20.4063 Q312.1406,20.1719 312.1406,19.7813 Q312.1406,19.4063 312.4063,19.1719 Q312.6719,18.9375 313.2813,18.9375 L318.4219,18.9375 Q319.0313,18.9375 319.2969,19.1719 Q319.5625,19.4063 319.5625,19.7813 Q319.5625,20.1719 319.2969,20.4063 Q319.0313,20.6406 318.4219,20.6406 L316.7031,20.6406 Z "/><text fill="#000000" font-family="sans-serif" font-size="12" font-style="italic" lengthAdjust="spacingAndGlyphs" textLength="55" x="336.25" y="28.9102">DataStore</text><line style="stroke: #A80036; stroke-width: 1.5;" x1="265.5" x2="429.5" y1="40" y2="40"/><line style="stroke: #A80036; stroke-width: 1.5;" x1="265.5" x2="429.5" y1="48" y2="48"/><text fill="#000000" font-family="sans-serif" font-size="11" font-style="italic" lengthAdjust="spacingAndGlyphs" textLength="154" x="270.5" y="63.4189">query(constraints): DataSource</text><rect fill="#FEFECE" filter="url(#f1)" height="89.5078" style="stroke: #A80036; stroke-width: 1.5;" width="209" x="465" y="131"/><ellipse cx="532.75" cy="147" fill="#B4A7E5" rx="11" ry="11" style="stroke: #A80036; stroke-width: 1.0;"/><path d="M533.7031,143.6406 L533.7031,150.2969 L535.4219,150.2969 Q536.0313,150.2969 536.2969,150.5313 Q536.5625,150.7656 536.5625,151.1563 Q536.5625,151.5313 536.2969,151.7656 Q536.0313,152 535.4219,152 L530.2813,152 Q529.6719,152 529.4063,151.7656 Q529.1406,151.5313 529.1406,151.1406 Q529.1406,150.7656 529.4063,150.5313 Q529.6719,150.2969 530.2813,150.2969 L532,150.2969 L532,143.6406 L530.2813,143.6406 Q529.6719,143.6406 529.4063,143.4063 Q529.1406,143.1719 529.1406,142.7813 Q529.1406,142.4063 529.4063,142.1719 Q529.6719,141.9375 530.2813,141.9375 L535.4219,141.9375 Q536.0313,141.9375 536.2969,142.1719 Q536.5625,142.4063 536.5625,142.7813 Q536.5625,143.1719 536.2969,143.4063 Q536.0313,143.6406 535.4219,143.6406 L533.7031,143.6406 Z "/><text fill="#000000" font-family="sans-serif" font-size="12" font-style="italic" lengthAdjust="spacingAndGlyphs" textLength="65" x="553.25" y="151.9102">DataSource</text><line style="stroke: #A80036; stroke-width: 1.5;" x1="466" x2="673" y1="163" y2="163"/><line style="stroke: #A80036; stroke-width: 1.5;" x1="466" x2="673" y1="171" y2="171"/><text fill="#000000" font-family="sans-serif" font-size="11" font-style="italic" lengthAdjust="spacingAndGlyphs" textLength="110" x="471" y="186.4189">get_dataset_schema()</text><text fill="#000000" font-family="sans-serif" font-size="11" font-style="italic" lengthAdjust="spacingAndGlyphs" textLength="197" x="471" y="200.2549">open_dataset(constraints): cdm.Dataset</text><text fill="#000000" font-family="sans-serif" font-size="11" font-style="italic" lengthAdjust="spacingAndGlyphs" textLength="86" x="471" y="214.0908">sync(time_range)</text><rect fill="#FEFECE" filter="url(#f1)" height="89.5078" style="stroke: #A80036; stroke-width: 1.5;" width="165" x="265" y="131"/><ellipse cx="298" cy="147" fill="#ADD1B2" rx="11" ry="11" style="stroke: #A80036; stroke-width: 1.0;"/><path d="M300.7656,142.875 Q300.9219,142.6563 301.1094,142.5469 Q301.2969,142.4375 301.5156,142.4375 Q301.8906,142.4375 302.125,142.6953 Q302.3594,142.9531 302.3594,143.5625 L302.3594,145.0156 Q302.3594,145.625 302.125,145.8906 Q301.8906,146.1563 301.5156,146.1563 Q301.1719,146.1563 300.9688,145.9531 Q300.7656,145.7656 300.6563,145.25 Q300.6094,144.8906 300.4219,144.7031 Q300.0938,144.3281 299.4844,144.1094 Q298.875,143.8906 298.25,143.8906 Q297.4844,143.8906 296.8516,144.2188 Q296.2188,144.5469 295.7266,145.2969 Q295.2344,146.0469 295.2344,147.0781 L295.2344,148.1719 Q295.2344,149.4063 296.125,150.2266 Q297.0156,151.0469 298.6094,151.0469 Q299.5469,151.0469 300.2031,150.7969 Q300.5938,150.6406 301.0156,150.2031 Q301.2813,149.9375 301.4297,149.8594 Q301.5781,149.7813 301.7813,149.7813 Q302.1094,149.7813 302.3672,150.0391 Q302.625,150.2969 302.625,150.6406 Q302.625,150.9844 302.2813,151.3906 Q301.7813,151.9688 300.9844,152.2969 Q299.9063,152.75 298.6094,152.75 Q297.0938,152.75 295.8906,152.125 Q294.9063,151.625 294.2188,150.5547 Q293.5313,149.4844 293.5313,148.2031 L293.5313,147.0469 Q293.5313,145.7188 294.1484,144.5703 Q294.7656,143.4219 295.8594,142.8047 Q296.9531,142.1875 298.1875,142.1875 Q298.9219,142.1875 299.5703,142.3516 Q300.2188,142.5156 300.7656,142.875 Z "/><text fill="#000000" font-family="sans-serif" font-size="12" lengthAdjust="spacingAndGlyphs" textLength="93" x="316" y="151.9102">FileSetDataStore</text><line style="stroke: #A80036; stroke-width: 1.5;" x1="266" x2="429" y1="163" y2="163"/><text fill="#000000" font-family="sans-serif" font-size="11" lengthAdjust="spacingAndGlyphs" textLength="51" x="271" y="178.4189">remote_url</text><text fill="#000000" font-family="sans-serif" font-size="11" lengthAdjust="spacingAndGlyphs" textLength="37" x="271" y="192.2549">root_dir</text><line style="stroke: #A80036; stroke-width: 1.5;" x1="266" x2="429" y1="198.6719" y2="198.6719"/><text fill="#000000" font-family="sans-serif" font-size="11" lengthAdjust="spacingAndGlyphs" textLength="153" x="271" y="214.0908">query(constraints): DataSource</text><rect fill="#FEFECE" filter="url(#f1)" height="131.0156" style="stroke: #A80036; stroke-width: 1.5;" width="206" x="410.5" y="282"/><ellipse cx="457.75" cy="298" fill="#ADD1B2" rx="11" ry="11" style="stroke: #A80036; stroke-width: 1.0;"/><path d="M460.5156,293.875 Q460.6719,293.6563 460.8594,293.5469 Q461.0469,293.4375 461.2656,293.4375 Q461.6406,293.4375 461.875,293.6953 Q462.1094,293.9531 462.1094,294.5625 L462.1094,296.0156 Q462.1094,296.625 461.875,296.8906 Q461.6406,297.1563 461.2656,297.1563 Q460.9219,297.1563 460.7188,296.9531 Q460.5156,296.7656 460.4063,296.25 Q460.3594,295.8906 460.1719,295.7031 Q459.8438,295.3281 459.2344,295.1094 Q458.625,294.8906 458,294.8906 Q457.2344,294.8906 456.6016,295.2188 Q455.9688,295.5469 455.4766,296.2969 Q454.9844,297.0469 454.9844,298.0781 L454.9844,299.1719 Q454.9844,300.4063 455.875,301.2266 Q456.7656,302.0469 458.3594,302.0469 Q459.2969,302.0469 459.9531,301.7969 Q460.3438,301.6406 460.7656,301.2031 Q461.0313,300.9375 461.1797,300.8594 Q461.3281,300.7813 461.5313,300.7813 Q461.8594,300.7813 462.1172,301.0391 Q462.375,301.2969 462.375,301.6406 Q462.375,301.9844 462.0313,302.3906 Q461.5313,302.9688 460.7344,303.2969 Q459.6563,303.75 458.3594,303.75 Q456.8438,303.75 455.6406,303.125 Q454.6563,302.625 453.9688,301.5547 Q453.2813,300.4844 453.2813,299.2031 L453.2813,298.0469 Q453.2813,296.7188 453.8984,295.5703 Q454.5156,294.4219 455.6094,293.8047 Q456.7031,293.1875 457.9375,293.1875 Q458.6719,293.1875 459.3203,293.3516 Q459.9688,293.5156 460.5156,293.875 Z "/><text fill="#000000" font-family="sans-serif" font-size="12" lengthAdjust="spacingAndGlyphs" textLength="103" x="478.25" y="302.9102">FileSetDataSource</text><line style="stroke: #A80036; stroke-width: 1.5;" x1="411.5" x2="615.5" y1="314" y2="314"/><text fill="#000000" font-family="sans-serif" font-size="11" lengthAdjust="spacingAndGlyphs" textLength="26" x="416.5" y="329.4189">name</text><text fill="#000000" font-family="sans-serif" font-size="11" lengthAdjust="spacingAndGlyphs" textLength="42" x="416.5" y="343.2549">base_dir</text><text fill="#000000" font-family="sans-serif" font-size="11" lengthAdjust="spacingAndGlyphs" textLength="54" x="416.5" y="357.0908">file_pattern</text><line style="stroke: #A80036; stroke-width: 1.5;" x1="411.5" x2="615.5" y1="363.5078" y2="363.5078"/><text fill="#000000" font-family="sans-serif" font-size="11" lengthAdjust="spacingAndGlyphs" textLength="109" x="416.5" y="378.9268">get_dataset_schema()</text><text fill="#000000" font-family="sans-serif" font-size="11" lengthAdjust="spacingAndGlyphs" textLength="194" x="416.5" y="392.7627">open_dataset(constraints): cdm.Dataset</text><text fill="#000000" font-family="sans-serif" font-size="11" lengthAdjust="spacingAndGlyphs" textLength="85" x="416.5" y="406.5986">sync(time_range)</text><rect fill="#FEFECE" filter="url(#f1)" height="117.1797" style="stroke: #A80036; stroke-width: 1.5;" width="94" x="259.5" y="491"/><ellipse cx="276.3" cy="507" fill="#ADD1B2" rx="11" ry="11" style="stroke: #A80036; stroke-width: 1.0;"/><path d="M279.0656,502.875 Q279.2219,502.6563 279.4094,502.5469 Q279.5969,502.4375 279.8156,502.4375 Q280.1906,502.4375 280.425,502.6953 Q280.6594,502.9531 280.6594,503.5625 L280.6594,505.0156 Q280.6594,505.625 280.425,505.8906 Q280.1906,506.1563 279.8156,506.1563 Q279.4719,506.1563 279.2688,505.9531 Q279.0656,505.7656 278.9563,505.25 Q278.9094,504.8906 278.7219,504.7031 Q278.3938,504.3281 277.7844,504.1094 Q277.175,503.8906 276.55,503.8906 Q275.7844,503.8906 275.1516,504.2188 Q274.5188,504.5469 274.0266,505.2969 Q273.5344,506.0469 273.5344,507.0781 L273.5344,508.1719 Q273.5344,509.4063 274.425,510.2266 Q275.3156,511.0469 276.9094,511.0469 Q277.8469,511.0469 278.5031,510.7969 Q278.8938,510.6406 279.3156,510.2031 Q279.5813,509.9375 279.7297,509.8594 Q279.8781,509.7813 280.0813,509.7813 Q280.4094,509.7813 280.6672,510.0391 Q280.925,510.2969 280.925,510.6406 Q280.925,510.9844 280.5813,511.3906 Q280.0813,511.9688 279.2844,512.2969 Q278.2063,512.75 276.9094,512.75 Q275.3938,512.75 274.1906,512.125 Q273.2063,511.625 272.5188,510.5547 Q271.8313,509.4844 271.8313,508.2031 L271.8313,507.0469 Q271.8313,505.7188 272.4484,504.5703 Q273.0656,503.4219 274.1594,502.8047 Q275.2531,502.1875 276.4875,502.1875 Q277.2219,502.1875 277.8703,502.3516 Q278.5188,502.5156 279.0656,502.875 Z "/><text fill="#000000" font-family="sans-serif" font-size="12" lengthAdjust="spacingAndGlyphs" textLength="58" x="290.7" y="511.9102">FileSetInfo</text><line style="stroke: #A80036; stroke-width: 1.5;" x1="260.5" x2="352.5" y1="523" y2="523"/><text fill="#000000" font-family="sans-serif" font-size="11" lengthAdjust="spacingAndGlyphs" textLength="82" x="265.5" y="538.4189">info_update_time</text><text fill="#000000" font-family="sans-serif" font-size="11" lengthAdjust="spacingAndGlyphs" textLength="47" x="265.5" y="552.2549">start_time</text><text fill="#000000" font-family="sans-serif" font-size="11" lengthAdjust="spacingAndGlyphs" textLength="43" x="265.5" y="566.0908">end_time</text><text fill="#000000" font-family="sans-serif" font-size="11" lengthAdjust="spacingAndGlyphs" textLength="46" x="265.5" y="579.9268">num_files</text><text fill="#000000" font-family="sans-serif" font-size="11" lengthAdjust="spacingAndGlyphs" textLength="54" x="265.5" y="593.7627">size_in_mb</text><line style="stroke: #A80036; stroke-width: 1.5;" x1="260.5" x2="352.5" y1="600.1797" y2="600.1797"/><polygon fill="#FBFB77" filter="url(#f1)" points="6,138.5,6,213.9063,195,213.9063,195,148.5,185,138.5,6,138.5" style="stroke: #A80036; stroke-width: 1.0;"/><polygon fill="#FBFB77" points="6,138.5,6,213.9063,195,213.9063,195,180,264.727,176,195,172,195,148.5,185,138.5,6,138.5" style="stroke: #A80036; stroke-width: 1.0;"/><line style="stroke: #A80036; stroke-width: 1.0;" x1="185" x2="185" y1="138.5" y2="148.5"/><line style="stroke: #A80036; stroke-width: 1.0;" x1="195" x2="185" y1="148.5" y2="148.5"/><text fill="#000000" font-family="sans-serif" font-size="13" lengthAdjust="spacingAndGlyphs" textLength="163" x="12" y="156.9951">Users may create their own.</text><text fill="#000000" font-family="sans-serif" font-size="13" lengthAdjust="spacingAndGlyphs" textLength="160" x="12" y="173.3467">The default instance mirrors</text><text fill="#000000" font-family="sans-serif" font-size="13" lengthAdjust="spacingAndGlyphs" textLength="168" x="12" y="189.6982">the FTP tree of the CCI Open</text><text fill="#000000" font-family="sans-serif" font-size="13" lengthAdjust="spacingAndGlyphs" textLength="69" x="12" y="206.0498">Data Portal.</text><polygon fill="#FBFB77" filter="url(#f1)" points="154.5,310,154.5,385.4063,340.5,385.4063,340.5,320,330.5,310,154.5,310" style="stroke: #A80036; stroke-width: 1.0;"/><polygon fill="#FBFB77" points="154.5,310,154.5,385.4063,340.5,385.4063,340.5,351.5,410.258,347.5,340.5,343.5,340.5,320,330.5,310,154.5,310" style="stroke: #A80036; stroke-width: 1.0;"/><line style="stroke: #A80036; stroke-width: 1.0;" x1="330.5" x2="330.5" y1="310" y2="320"/><line style="stroke: #A80036; stroke-width: 1.0;" x1="340.5" x2="330.5" y1="320" y2="320"/><text fill="#000000" font-family="sans-serif" font-size="13" lengthAdjust="spacingAndGlyphs" textLength="154" x="160.5" y="328.4951">open_dataset() will look for</text><text fill="#000000" font-family="sans-serif" font-size="13" lengthAdjust="spacingAndGlyphs" textLength="153" x="160.5" y="344.8467">actual file types and return</text><text fill="#000000" font-family="sans-serif" font-size="13" lengthAdjust="spacingAndGlyphs" textLength="50" x="160.5" y="361.1982">either an</text><text fill="#000000" font-family="sans-serif" font-size="13" font-weight="bold" lengthAdjust="spacingAndGlyphs" textLength="46" x="214.5" y="361.1982">netCDF</text><text fill="#000000" font-family="sans-serif" font-size="13" lengthAdjust="spacingAndGlyphs" textLength="4" x="264.5" y="361.1982">(</text><text fill="#000000" font-family="sans-serif" font-size="13" font-style="italic" lengthAdjust="spacingAndGlyphs" textLength="34" x="268.5" y="361.1982">xarray</text><text fill="#000000" font-family="sans-serif" font-size="13" lengthAdjust="spacingAndGlyphs" textLength="19" x="302.5" y="361.1982">) or</text><text fill="#000000" font-family="sans-serif" font-size="13" font-weight="bold" lengthAdjust="spacingAndGlyphs" textLength="61" x="160.5" y="377.5498">Shapefile</text><text fill="#000000" font-family="sans-serif" font-size="13" lengthAdjust="spacingAndGlyphs" textLength="100" x="225.5" y="377.5498">dataset instance.</text><path d="M347.5,90.678 C347.5,103.927 347.5,118.1 347.5,130.973 " fill="none" style="stroke: #A80036; stroke-width: 1.0; stroke-dasharray: 7.0,7.0;"/><polygon fill="none" points="340.5,90.297,347.5,70.297,354.5,90.297,340.5,90.297" style="stroke: #A80036; stroke-width: 1.0;"/><path d="M548.599,240.262 C544.109,253.853 539.358,268.234 534.851,281.876 " fill="none" style="stroke: #A80036; stroke-width: 1.0; stroke-dasharray: 7.0,7.0;"/><polygon fill="none" points="542.012,237.886,554.933,221.092,555.305,242.278,542.012,237.886" style="stroke: #A80036; stroke-width: 1.0;"/><path d="M485.697,413.158 C470.11,449.408 451.465,492.768 439.555,520.4654 " fill="none" style="stroke: #A80036; stroke-width: 1.0;"/><polygon fill="#A80036" points="437.557,525.1108,444.7872,518.4232,439.5323,520.5175,437.438,515.2627,437.557,525.1108" style="stroke: #A80036; stroke-width: 1.0;"/><text fill="#000000" font-family="sans-serif" font-size="13" lengthAdjust="spacingAndGlyphs" textLength="46" x="471.5" y="457.4951">schema</text><path d="M541.303,413.158 C556.89,449.408 575.535,492.768 587.445,520.4654 " fill="none" style="stroke: #A80036; stroke-width: 1.0; stroke-dasharray: 7.0,7.0;"/><polygon fill="#A80036" points="589.443,525.1108,589.562,515.2627,587.4677,520.5175,582.2128,518.4232,589.443,525.1108" style="stroke: #A80036; stroke-width: 1.0;"/><text fill="#000000" font-family="sans-serif" font-size="13" lengthAdjust="spacingAndGlyphs" textLength="44" x="562.5" y="457.4951">&lt;open&gt;</text><path d="M611.78,413.158 C668.299,450.342 736.191,495.007 778.094,522.5752 " fill="none" style="stroke: #A80036; stroke-width: 1.0; stroke-dasharray: 7.0,7.0;"/><polygon fill="#A80036" points="782.318,525.354,776.9983,517.0654,778.1411,522.6056,772.6009,523.7484,782.318,525.354" style="stroke: #A80036; stroke-width: 1.0;"/><text fill="#000000" font-family="sans-serif" font-size="13" lengthAdjust="spacingAndGlyphs" textLength="44" x="684.5" y="457.4951">&lt;open&gt;</text><path d="M399.865,230.469 C415.845,246.786 433.588,264.903 450.211,281.876 " fill="none" style="stroke: #A80036; stroke-width: 1.0;"/><polygon fill="#FFFFFF" points="390.681,221.092,392.021,228.1775,399.0768,229.6658,397.7368,222.5803,390.681,221.092" style="stroke: #A80036; stroke-width: 1.0;"/><text fill="#000000" font-family="sans-serif" font-size="13" lengthAdjust="spacingAndGlyphs" textLength="7" x="389.2611" y="242.1125">1</text><text fill="#000000" font-family="sans-serif" font-size="13" lengthAdjust="spacingAndGlyphs" textLength="9" x="433.7966" y="271.3369">N</text><path d="M443.812,413.278 C420.923,434.808 395.469,459.023 372.5,481.5 C366.315,487.552 359.862,493.971 353.517,500.343 " fill="none" style="stroke: #A80036; stroke-width: 1.0;"/><text fill="#000000" font-family="sans-serif" font-size="13" lengthAdjust="spacingAndGlyphs" textLength="22" x="361.6756" y="489.8125">0..1</text></g></svg>