<?xml version="1.0" encoding="UTF-8" standalone="yes"?><svg xmlns="http://www.w3.org/2000/svg" xmlns:xlink="http://www.w3.org/1999/xlink" height="636px" style="width:1196px;height:636px;" version="1.1" viewBox="0 0 1196 636" width="1196px"><defs><filter height="300%" id="f1" width="300%" x="-1" y="-1"><feGaussianBlur result="blurOut" stdDeviation="2.0"/><feColorMatrix in="blurOut" result="blurOut2" type="matrix" values="0 0 0 0 0 0 0 0 0 0 0 0 0 0 0 0 0 0 .4 0"/><feOffset dx="4.0" dy="4.0" in="blurOut2" result="blurOut3"/><feBlend in="SourceGraphic" in2="blurOut3" mode="normal"/></filter></defs><g><polygon fill="#FFFFFF" filter="url(#f1)" points="22,221,32,211,777,211,777,621,767,631,22,631,22,221" style="stroke: #000000; stroke-width: 2.0;"/><line style="stroke: #000000; stroke-width: 2.0;" x1="767" x2="776" y1="221" y2="212"/><line style="stroke: #000000; stroke-width: 2.0;" x1="22" x2="767" y1="221" y2="221"/><line style="stroke: #000000; stroke-width: 2.0;" x1="767" x2="767" y1="221" y2="631"/><text fill="#000000" font-family="sans-serif" font-size="14" font-weight="bold" lengthAdjust="spacingAndGlyphs" textLength="130" x="330.5" y="238.5332">CCI_Toolbox_Core</text><polygon fill="#FFFFFF" filter="url(#f1)" points="393,260,442,260,449,283.6094,746,283.6094,746,350,393,350,393,260" style="stroke: #000000; stroke-width: 2.0;"/><line style="stroke: #000000; stroke-width: 2.0;" x1="393" x2="449" y1="283.6094" y2="283.6094"/><text fill="#000000" font-family="sans-serif" font-size="14" font-weight="bold" lengthAdjust="spacingAndGlyphs" textLength="43" x="397" y="276.5332">ect.ds</text><polygon fill="#FFFFFF" filter="url(#f1)" points="54,395,112,395,119,418.6094,549,418.6094,549,599,54,599,54,395" style="stroke: #000000; stroke-width: 2.0;"/><line style="stroke: #000000; stroke-width: 2.0;" x1="54" x2="119" y1="418.6094" y2="418.6094"/><text fill="#000000" font-family="sans-serif" font-size="14" font-weight="bold" lengthAdjust="spacingAndGlyphs" textLength="52" x="58" y="411.5332">ect.ops</text><polygon fill="#FFFFFF" filter="url(#f1)" points="581,403,645,403,652,426.6094,753,426.6094,753,591,581,591,581,403" style="stroke: #000000; stroke-width: 2.0;"/><line style="stroke: #000000; stroke-width: 2.0;" x1="581" x2="652" y1="426.6094" y2="426.6094"/><text fill="#000000" font-family="sans-serif" font-size="14" font-weight="bold" lengthAdjust="spacingAndGlyphs" textLength="58" x="585" y="419.5332">ect.core</text><polygon fill="#FFFFFF" filter="url(#f1)" points="72,260,117,260,124,283.6094,350,283.6094,350,350,72,350,72,260" style="stroke: #000000; stroke-width: 2.0;"/><line style="stroke: #000000; stroke-width: 2.0;" x1="72" x2="124" y1="283.6094" y2="283.6094"/><text fill="#000000" font-family="sans-serif" font-size="14" font-weight="bold" lengthAdjust="spacingAndGlyphs" textLength="39" x="76" y="276.5332">ect.ui</text><polygon fill="#FFFFFF" filter="url(#f1)" points="28,34,38,24,225,24,225,177,215,187,28,187,28,34" style="stroke: #000000; stroke-width: 2.0;"/><line style="stroke: #000000; stroke-width: 2.0;" x1="215" x2="224" y1="34" y2="25"/><line style="stroke: #000000; stroke-width: 2.0;" x1="28" x2="215" y1="34" y2="34"/><line style="stroke: #000000; stroke-width: 2.0;" x1="215" x2="215" y1="34" y2="187"/><text fill="#000000" font-family="sans-serif" font-size="14" font-weight="bold" lengthAdjust="spacingAndGlyphs" textLength="121" x="62" y="51.5332">CCI_Toolbox_GUI</text><polygon fill="#FFFFFF" filter="url(#f1)" points="58,73,112,73,119,96.6094,168,96.6094,168,163,58,163,58,73" style="stroke: #000000; stroke-width: 2.0;"/><line style="stroke: #000000; stroke-width: 2.0;" x1="58" x2="119" y1="96.6094" y2="96.6094"/><text fill="#000000" font-family="sans-serif" font-size="14" font-weight="bold" lengthAdjust="spacingAndGlyphs" textLength="48" x="62" y="89.5332">ect.gui</text><path d="M804,381 C804,378 806,376 809,376 C812,376 814,378 814,381 C814,378 816,376 819,376 C822,376 824,378 824,381 C824,378 826,376 829,376 C832,376 834,378 834,381 C834,378 836,376 839,376 C842,376 844,378 844,381 C844,378 846,376 849,376 C852,376 854,378 854,381 C854,378 856,376 859,376 C862,376 864,378 864,381 C864,378 866,376 869,376 C872,376 874,378 874,381 C874,378 876,376 879,376 C882,376 884,378 884,381 C884,378 886,376 889,376 C892,376 894,378 894,381 C894,378 896,376 899,376 C902,376 904,378 904,381 C904,378 906,376 909,376 C912,376 914,378 914,381 C914,378 916,376 919,376 C922,376 924,378 924,381 C924,378 926,376 929,376 C932,376 934,378 934,381 C934,378 936,376 939,376 C942,376 944,378 944,381 C944,378 946,376 949,376 C952,376 954,378 954,381 C954,378 956,376 959,376 C962,376 964,378 964,381 C964,378 966,376 969,376 C972,376 974,378 974,381 C974,378 976,376 979,376 C982,376 984,378 984,381 C984,378 986,376 989,376 C992,376 994,378 994,381 C994,378 996,376 999,376 C1002,376 1004,378 1004,381 C1004,378 1006,376 1009,376 C1012,376 1014,378 1014,381 C1014,378 1016,376 1019,376 C1022,376 1024,378 1024,381 C1024,378 1026,376 1029,376 C1032,376 1034,378 1034,381 C1034,378 1036,376 1039,376 C1042,376 1044,378 1044,381 C1044,378 1046,376 1049,376 C1052,376 1054,378 1054,381 C1054,378 1056,376 1059,376 C1062,376 1064,378 1064,381 C1064,378 1066,376 1069,376 C1072,376 1074,378 1074,381 C1074,378 1076,376 1079,376 C1082,376 1084,378 1084,381 C1084,378 1086,376 1089,376 C1092,376 1094,378 1094,381 C1094,378 1096,376 1099,376 C1102,376 1104,378 1104,381 C1104,378 1106,376 1109,376 C1112,376 1114,378 1114,381 C1114,378 1116,376 1119,376 C1122,376 1124,378 1124,381 C1124,378 1126,376 1129,376 C1132,376 1134,378 1134,381 C1134,378 1136,376 1139,376 C1142,376 1144,378 1144,381 C1144,378 1146,376 1149,376 C1152,376 1154,378 1154,381 C1154,378 1156,376 1159,376 C1162,376 1164,378 1164,381 C1164,378 1166,376 1169,376 C1172,376 1174,378 1174,381 C1174,378 1176,376 1179,376 C1182,376 1184,378 1184,381 C1187,381 1189,383 1189,386 C1189,389 1187,391 1184,391 C1187,391 1189,393 1189,396 C1189,399 1187,401 1184,401 C1187,401 1189,403 1189,406 C1189,409 1187,411 1184,411 C1187,411 1189,413 1189,416 C1189,419 1187,421 1184,421 C1187,421 1189,423 1189,426 C1189,429 1187,431 1184,431 C1187,431 1189,433 1189,436 C1189,439 1187,441 1184,441 C1187,441 1189,443 1189,446 C1189,449 1187,451 1184,451 C1187,451 1189,453 1189,456 C1189,459 1187,461 1184,461 C1187,461 1189,463 1189,466 C1189,469 1187,471 1184,471 C1187,471 1189,473 1189,476 C1189,479 1187,481 1184,481 C1187,481 1189,483 1189,486 C1189,489 1187,491 1184,491 C1187,491 1189,493 1189,496 C1189,499 1187,501 1184,501 C1187,501 1189,503 1189,506 C1189,509 1187,511 1184,511 C1184,514 1181,516 1179,516 C1176,516 1174,514 1174,511 C1174,514 1171,516 1169,516 C1166,516 1164,514 1164,511 C1164,514 1161,516 1159,516 C1156,516 1154,514 1154,511 C1154,514 1151,516 1149,516 C1146,516 1144,514 1144,511 C1144,514 1141,516 1139,516 C1136,516 1134,514 1134,511 C1134,514 1131,516 1129,516 C1126,516 1124,514 1124,511 C1124,514 1121,516 1119,516 C1116,516 1114,514 1114,511 C1114,514 1111,516 1109,516 C1106,516 1104,514 1104,511 C1104,514 1101,516 1099,516 C1096,516 1094,514 1094,511 C1094,514 1091,516 1089,516 C1086,516 1084,514 1084,511 C1084,514 1081,516 1079,516 C1076,516 1074,514 1074,511 C1074,514 1071,516 1069,516 C1066,516 1064,514 1064,511 C1064,514 1061,516 1059,516 C1056,516 1054,514 1054,511 C1054,514 1051,516 1049,516 C1046,516 1044,514 1044,511 C1044,514 1041,516 1039,516 C1036,516 1034,514 1034,511 C1034,514 1031,516 1029,516 C1026,516 1024,514 1024,511 C1024,514 1021,516 1019,516 C1016,516 1014,514 1014,511 C1014,514 1011,516 1009,516 C1006,516 1004,514 1004,511 C1004,514 1001,516 999,516 C996,516 994,514 994,511 C994,514 991,516 989,516 C986,516 984,514 984,511 C984,514 981,516 979,516 C976,516 974,514 974,511 C974,514 971,516 969,516 C966,516 964,514 964,511 C964,514 961,516 959,516 C956,516 954,514 954,511 C954,514 951,516 949,516 C946,516 944,514 944,511 C944,514 941,516 939,516 C936,516 934,514 934,511 C934,514 931,516 929,516 C926,516 924,514 924,511 C924,514 921,516 919,516 C916,516 914,514 914,511 C914,514 911,516 909,516 C906,516 904,514 904,511 C904,514 901,516 899,516 C896,516 894,514 894,511 C894,514 891,516 889,516 C886,516 884,514 884,511 C884,514 881,516 879,516 C876,516 874,514 874,511 C874,514 871,516 869,516 C866,516 864,514 864,511 C864,514 861,516 859,516 C856,516 854,514 854,511 C854,514 851,516 849,516 C846,516 844,514 844,511 C844,514 841,516 839,516 C836,516 834,514 834,511 C834,514 831,516 829,516 C826,516 824,514 824,511 C824,514 821,516 819,516 C816,516 814,514 814,511 C814,514 811,516 809,516 C806,516 804,514 804,511 C801,511 799,509 799,506 C799,503 801,501 804,501 C801,501 799,499 799,496 C799,493 801,491 804,491 C801,491 799,489 799,486 C799,483 801,481 804,481 C801,481 799,479 799,476 C799,473 801,471 804,471 C801,471 799,469 799,466 C799,463 801,461 804,461 C801,461 799,459 799,456 C799,453 801,451 804,451 C801,451 799,449 799,446 C799,443 801,441 804,441 C801,441 799,439 799,436 C799,433 801,431 804,431 C801,431 799,429 799,426 C799,423 801,421 804,421 C801,421 799,419 799,416 C799,413 801,411 804,411 C801,411 799,409 799,406 C799,403 801,401 804,401 C801,401 799,399 799,396 C799,393 801,391 804,391 C801,391 799,389 799,386 C799,383 801,381 804,381 " fill="#FFFFFF" filter="url(#f1)" style="stroke: #000000; stroke-width: 2.0;"/><polygon fill="#EEEEEE" filter="url(#f1)" points="825,408,835,398,1164,398,1164,483,1154,493,825,493,825,408" style="stroke: #000000; stroke-width: 2.0;"/><line style="stroke: #000000; stroke-width: 2.0;" x1="1154" x2="1163" y1="408" y2="399"/><line style="stroke: #000000; stroke-width: 2.0;" x1="825" x2="1154" y1="408" y2="408"/><line style="stroke: #000000; stroke-width: 2.0;" x1="1154" x2="1154" y1="408" y2="493"/><text fill="#000000" font-family="sans-serif" font-size="14" font-weight="bold" lengthAdjust="spacingAndGlyphs" textLength="170" x="905.5" y="425.5332">CCI_Data_Access_Portal</text><ellipse cx="593" cy="306" fill="#FEFECE" filter="url(#f1)" rx="8" ry="8" style="stroke: #A80036; stroke-width: 2.0;"/><text fill="#000000" font-family="sans-serif" font-size="14" lengthAdjust="spacingAndGlyphs" textLength="19" x="583.5" y="329.5332">DS</text><rect fill="#FEFECE" filter="url(#f1)" height="37.6094" style="stroke: #A80036; stroke-width: 1.5;" width="92" x="638" y="296"/><rect fill="#FEFECE" height="5" style="stroke: #A80036; stroke-width: 1.5;" width="10" x="633" y="301"/><rect fill="#FEFECE" height="5" style="stroke: #A80036; stroke-width: 1.5;" width="10" x="633" y="323.6094"/><text fill="#000000" font-family="sans-serif" font-size="14" lengthAdjust="spacingAndGlyphs" textLength="72" x="648" y="320.5332">esa_cci_ftp</text><rect fill="#FFFFFF" filter="url(#f1)" height="37.6094" style="stroke: #A80036; stroke-width: 1.5;" width="139" x="409.5" y="296"/><rect fill="#FFFFFF" height="5" style="stroke: #A80036; stroke-width: 1.5;" width="10" x="404.5" y="301"/><rect fill="#FFFFFF" height="5" style="stroke: #A80036; stroke-width: 1.5;" width="10" x="404.5" y="323.6094"/><text fill="#000000" font-family="sans-serif" font-size="14" lengthAdjust="spacingAndGlyphs" textLength="119" x="419.5" y="320.5332">more data stores...</text><ellipse cx="377" cy="449" fill="#FEFECE" filter="url(#f1)" rx="8" ry="8" style="stroke: #A80036; stroke-width: 2.0;"/><text fill="#000000" font-family="sans-serif" font-size="14" lengthAdjust="spacingAndGlyphs" textLength="20" x="367" y="472.5332">OP</text><rect fill="#FEFECE" filter="url(#f1)" height="37.6094" style="stroke: #A80036; stroke-width: 1.5;" width="84" x="422" y="439"/><rect fill="#FEFECE" height="5" style="stroke: #A80036; stroke-width: 1.5;" width="10" x="417" y="444"/><rect fill="#FEFECE" height="5" style="stroke: #A80036; stroke-width: 1.5;" width="10" x="417" y="466.6094"/><text fill="#000000" font-family="sans-serif" font-size="14" lengthAdjust="spacingAndGlyphs" textLength="64" x="432" y="463.5332">timeseries</text><rect fill="#FEFECE" filter="url(#f1)" height="37.6094" style="stroke: #A80036; stroke-width: 1.5;" width="57" x="78.5" y="439"/><rect fill="#FEFECE" height="5" style="stroke: #A80036; stroke-width: 1.5;" width="10" x="73.5" y="444"/><rect fill="#FEFECE" height="5" style="stroke: #A80036; stroke-width: 1.5;" width="10" x="73.5" y="466.6094"/><text fill="#000000" font-family="sans-serif" font-size="14" lengthAdjust="spacingAndGlyphs" textLength="37" x="88.5" y="463.5332">gapfill</text><rect fill="#FEFECE" filter="url(#f1)" height="37.6094" style="stroke: #A80036; stroke-width: 1.5;" width="78" x="171" y="439"/><rect fill="#FEFECE" height="5" style="stroke: #A80036; stroke-width: 1.5;" width="10" x="166" y="444"/><rect fill="#FEFECE" height="5" style="stroke: #A80036; stroke-width: 1.5;" width="10" x="166" y="466.6094"/><text fill="#000000" font-family="sans-serif" font-size="14" lengthAdjust="spacingAndGlyphs" textLength="58" x="181" y="463.5332">resample</text><rect fill="#FEFECE" filter="url(#f1)" height="37.6094" style="stroke: #A80036; stroke-width: 1.5;" width="47" x="284.5" y="439"/><rect fill="#FEFECE" height="5" style="stroke: #A80036; stroke-width: 1.5;" width="10" x="279.5" y="444"/><rect fill="#FEFECE" height="5" style="stroke: #A80036; stroke-width: 1.5;" width="10" x="279.5" y="466.6094"/><text fill="#000000" font-family="sans-serif" font-size="14" lengthAdjust="spacingAndGlyphs" textLength="27" x="294.5" y="463.5332">filter</text><rect fill="#FEFECE" filter="url(#f1)" height="37.6094" style="stroke: #A80036; stroke-width: 1.5;" width="43" x="85.5" y="537"/><rect fill="#FEFECE" height="5" style="stroke: #A80036; stroke-width: 1.5;" width="10" x="80.5" y="542"/><rect fill="#FEFECE" height="5" style="stroke: #A80036; stroke-width: 1.5;" width="10" x="80.5" y="564.6094"/><text fill="#000000" font-family="sans-serif" font-size="14" lengthAdjust="spacingAndGlyphs" textLength="23" x="95.5" y="561.5332">plot</text><rect fill="#FFFFFF" filter="url(#f1)" height="37.6094" style="stroke: #A80036; stroke-width: 1.5;" width="135" x="163.5" y="537"/><rect fill="#FFFFFF" height="5" style="stroke: #A80036; stroke-width: 1.5;" width="10" x="158.5" y="542"/><rect fill="#FFFFFF" height="5" style="stroke: #A80036; stroke-width: 1.5;" width="10" x="158.5" y="564.6094"/><text fill="#000000" font-family="sans-serif" font-size="14" lengthAdjust="spacingAndGlyphs" textLength="115" x="173.5" y="561.5332">more operations...</text><rect fill="#FEFECE" filter="url(#f1)" height="37.6094" style="stroke: #A80036; stroke-width: 1.5;" width="46" x="597" y="537"/><rect fill="#FEFECE" height="5" style="stroke: #A80036; stroke-width: 1.5;" width="10" x="592" y="542"/><rect fill="#FEFECE" height="5" style="stroke: #A80036; stroke-width: 1.5;" width="10" x="592" y="564.6094"/><text fill="#000000" font-family="sans-serif" font-size="14" lengthAdjust="spacingAndGlyphs" textLength="26" x="607" y="561.5332">cdm</text><rect fill="#FEFECE" filter="url(#f1)" height="37.6094" style="stroke: #A80036; stroke-width: 1.5;" width="31" x="597.5" y="439"/><rect fill="#FEFECE" height="5" style="stroke: #A80036; stroke-width: 1.5;" width="10" x="592.5" y="444"/><rect fill="#FEFECE" height="5" style="stroke: #A80036; stroke-width: 1.5;" width="10" x="592.5" y="466.6094"/><text fill="#000000" font-family="sans-serif" font-size="14" lengthAdjust="spacingAndGlyphs" textLength="11" x="607.5" y="463.5332">io</text><rect fill="#FEFECE" filter="url(#f1)" height="37.6094" style="stroke: #A80036; stroke-width: 1.5;" width="36" x="682" y="537"/><rect fill="#FEFECE" height="5" style="stroke: #A80036; stroke-width: 1.5;" width="10" x="677" y="542"/><rect fill="#FEFECE" height="5" style="stroke: #A80036; stroke-width: 1.5;" width="10" x="677" y="564.6094"/><text fill="#000000" font-family="sans-serif" font-size="14" lengthAdjust="spacingAndGlyphs" textLength="16" x="692" y="561.5332">op</text><rect fill="#FEFECE" filter="url(#f1)" height="37.6094" style="stroke: #A80036; stroke-width: 1.5;" width="73" x="663.5" y="439"/><rect fill="#FEFECE" height="5" style="stroke: #A80036; stroke-width: 1.5;" width="10" x="658.5" y="444"/><rect fill="#FEFECE" height="5" style="stroke: #A80036; stroke-width: 1.5;" width="10" x="658.5" y="466.6094"/><text fill="#000000" font-family="sans-serif" font-size="14" lengthAdjust="spacingAndGlyphs" textLength="53" x="673.5" y="463.5332">workflow</text><ellipse cx="255" cy="306" fill="#FEFECE" filter="url(#f1)" rx="8" ry="8" style="stroke: #A80036; stroke-width: 2.0;"/><text fill="#000000" font-family="sans-serif" font-size="14" lengthAdjust="spacingAndGlyphs" textLength="21" x="244.5" y="329.5332">CLI</text><rect fill="#FEFECE" filter="url(#f1)" height="37.6094" style="stroke: #A80036; stroke-width: 1.5;" width="33" x="300.5" y="296"/><rect fill="#FEFECE" height="5" style="stroke: #A80036; stroke-width: 1.5;" width="10" x="295.5" y="301"/><rect fill="#FEFECE" height="5" style="stroke: #A80036; stroke-width: 1.5;" width="10" x="295.5" y="323.6094"/><text fill="#000000" font-family="sans-serif" font-size="14" lengthAdjust="spacingAndGlyphs" textLength="13" x="310.5" y="320.5332">cli</text><ellipse cx="113" cy="306" fill="#FEFECE" filter="url(#f1)" rx="8" ry="8" style="stroke: #A80036; stroke-width: 2.0;"/><text fill="#000000" font-family="sans-serif" font-size="14" lengthAdjust="spacingAndGlyphs" textLength="50" x="88" y="329.5332">WebAPI</text><rect fill="#FEFECE" filter="url(#f1)" height="37.6094" style="stroke: #A80036; stroke-width: 1.5;" width="36" x="173" y="296"/><rect fill="#FEFECE" height="5" style="stroke: #A80036; stroke-width: 1.5;" width="10" x="168" y="301"/><rect fill="#FEFECE" height="5" style="stroke: #A80036; stroke-width: 1.5;" width="10" x="168" y="323.6094"/><text fill="#000000" font-family="sans-serif" font-size="14" lengthAdjust="spacingAndGlyphs" textLength="16" x="183" y="320.5332">ws</text><rect fill="#FEFECE" filter="url(#f1)" height="37.6094" style="stroke: #A80036; stroke-width: 1.5;" width="77" x="74.5" y="109"/><rect fill="#FEFECE" height="5" style="stroke: #A80036; stroke-width: 1.5;" width="10" x="69.5" y="114"/><rect fill="#FEFECE" height="5" style="stroke: #A80036; stroke-width: 1.5;" width="10" x="69.5" y="136.6094"/><text fill="#000000" font-family="sans-serif" font-size="14" lengthAdjust="spacingAndGlyphs" textLength="57" x="84.5" y="133.5332">web_app</text><ellipse cx="1010" cy="449" fill="#FEFECE" filter="url(#f1)" rx="8" ry="8" style="stroke: #A80036; stroke-width: 2.0;"/><text fill="#000000" font-family="sans-serif" font-size="14" lengthAdjust="spacingAndGlyphs" textLength="27" x="996.5" y="472.5332">FTP</text><rect fill="#FEFECE" filter="url(#f1)" height="37.6094" style="stroke: #A80036; stroke-width: 1.5;" width="89" x="1058.5" y="439"/><rect fill="#FEFECE" height="5" style="stroke: #A80036; stroke-width: 1.5;" width="10" x="1053.5" y="444"/><rect fill="#FEFECE" height="5" style="stroke: #A80036; stroke-width: 1.5;" width="10" x="1053.5" y="466.6094"/><text fill="#000000" font-family="sans-serif" font-size="14" lengthAdjust="spacingAndGlyphs" textLength="69" x="1068.5" y="463.5332">ftp_service</text><rect fill="#FFFFFF" filter="url(#f1)" height="37.6094" style="stroke: #A80036; stroke-width: 1.5;" width="120" x="841" y="439"/><rect fill="#FFFFFF" height="5" style="stroke: #A80036; stroke-width: 1.5;" width="10" x="836" y="444"/><rect fill="#FFFFFF" height="5" style="stroke: #A80036; stroke-width: 1.5;" width="10" x="836" y="466.6094"/><text fill="#000000" font-family="sans-serif" font-size="14" lengthAdjust="spacingAndGlyphs" textLength="100" x="851" y="463.5332">more services...</text><path d="M602.598,315 C614.363,315 626.128,315 637.893,315 " fill="none" style="stroke: #A80036; stroke-width: 1.0;"/><path d="M387.195,458 C398.796,458 410.397,458 421.997,458 " fill="none" style="stroke: #A80036; stroke-width: 1.0;"/><path d="M265.656,315 C277.155,315 288.654,315 300.153,315 " fill="none" style="stroke: #A80036; stroke-width: 1.0;"/><path d="M138.289,315 C149.82,315 161.35,315 172.881,315 " fill="none" style="stroke: #A80036; stroke-width: 1.0;"/><path d="M1023.8,458 C1035.35,458 1046.9,458 1058.45,458 " fill="none" style="stroke: #A80036; stroke-width: 1.0;"/><path d="M614.317,477.057 C615.444,492.513 617.073,514.865 618.299,531.673 " fill="none" style="stroke: #A80036; stroke-width: 1.0; stroke-dasharray: 7.0,7.0;"/><polygon fill="#A80036" points="618.665,536.698,622.0014,527.4315,618.3022,531.7112,614.0224,528.012,618.665,536.698" style="stroke: #A80036; stroke-width: 1.0;"/><path d="M700,477.057 C700,492.513 700,514.865 700,531.673 " fill="none" style="stroke: #A80036; stroke-width: 1.0; stroke-dasharray: 7.0,7.0;"/><polygon fill="#A80036" points="700,536.698,704,527.698,700,531.698,696,527.698,700,536.698" style="stroke: #A80036; stroke-width: 1.0;"/><path d="M730.152,318.165 C803.527,322.514 942.262,334.729 979,366 C999.035,383.054 1006.15,413.611 1008.66,434.574 " fill="none" style="stroke: #A80036; stroke-width: 1.0; stroke-dasharray: 7.0,7.0;"/><polygon fill="#A80036" points="1009.2,439.683,1012.2262,430.3106,1008.6715,434.711,1004.271,431.1563,1009.2,439.683" style="stroke: #A80036; stroke-width: 1.0;"/><path d="M668.144,334.075 C660.71,343.197 652.155,354.703 646,366 C634.094,387.852 624.92,414.871 619.302,433.769 " fill="none" style="stroke: #A80036; stroke-width: 1.0; stroke-dasharray: 7.0,7.0;"/><polygon fill="#A80036" points="617.812,438.872,624.1741,431.3537,619.2133,434.0724,616.4947,429.1116,617.812,438.872" style="stroke: #A80036; stroke-width: 1.0;"/><path d="M549.1181,476.1021 C549.2113,476.2846 549.3052,476.4681 549.3998,476.6526 C549.7781,477.3905 550.1677,478.144 550.5683,478.9114 C551.3694,480.4463 552.2143,482.0371 553.1005,483.6716 C560.19,496.7478 569.921,512.6195 581,525 C584.576,528.996 588.744,532.837 592.998,536.358 " fill="none" style="stroke: #A80036; stroke-width: 1.0; stroke-dasharray: 7.0,7.0;"/><polygon fill="#A80036" points="596.915,539.496,592.3922,530.747,593.0129,536.3697,587.3902,536.9904,596.915,539.496" style="stroke: #A80036; stroke-width: 1.0;"/><path d="M113,147.075 C113,181.132 113,254.701 113,291.74 " fill="none" style="stroke: #A80036; stroke-width: 1.0;"/><polygon fill="#A80036" points="113,296.93,117,287.93,113,291.93,109,287.93,113,296.93" style="stroke: #A80036; stroke-width: 1.0;"/></g></svg>