<?xml version="1.0" encoding="UTF-8" standalone="yes"?><svg xmlns="http://www.w3.org/2000/svg" xmlns:xlink="http://www.w3.org/1999/xlink" height="967px" style="width:1384px;height:967px;" version="1.1" viewBox="0 0 1384 967" width="1384px"><defs><filter height="300%" id="f1" width="300%" x="-1" y="-1"><feGaussianBlur result="blurOut" stdDeviation="2.0"/><feColorMatrix in="blurOut" result="blurOut2" type="matrix" values="0 0 0 0 0 0 0 0 0 0 0 0 0 0 0 0 0 0 .4 0"/><feOffset dx="4.0" dy="4.0" in="blurOut2" result="blurOut3"/><feBlend in="SourceGraphic" in2="blurOut3" mode="normal"/></filter></defs><g><polygon fill="#FFFFFF" filter="url(#f1)" points="22,34,32,24,975,24,975,952,965,962,22,962,22,34" style="stroke: #000000; stroke-width: 2.0;"/><line style="stroke: #000000; stroke-width: 2.0;" x1="965" x2="974" y1="34" y2="25"/><line style="stroke: #000000; stroke-width: 2.0;" x1="22" x2="965" y1="34" y2="34"/><line style="stroke: #000000; stroke-width: 2.0;" x1="965" x2="965" y1="34" y2="962"/><text fill="#000000" font-family="sans-serif" font-size="14" font-weight="bold" lengthAdjust="spacingAndGlyphs" textLength="141" x="424" y="49.9951">CCI_Toolbox_Core</text><polygon fill="#FFFFFF" filter="url(#f1)" points="594,377,658,377,665,399.2969,943,399.2969,943,614,594,614,594,377" style="stroke: #000000; stroke-width: 2.0;"/><line style="stroke: #000000; stroke-width: 2.0;" x1="594" x2="665" y1="399.2969" y2="399.2969"/><text fill="#000000" font-family="sans-serif" font-size="14" font-weight="bold" lengthAdjust="spacingAndGlyphs" textLength="58" x="598" y="391.9951">cate.ds</text><polygon fill="#FFFFFF" filter="url(#f1)" points="54,377,128,377,135,399.2969,554,399.2969,554,742,54,742,54,377" style="stroke: #000000; stroke-width: 2.0;"/><line style="stroke: #000000; stroke-width: 2.0;" x1="54" x2="135" y1="399.2969" y2="399.2969"/><text fill="#000000" font-family="sans-serif" font-size="14" font-weight="bold" lengthAdjust="spacingAndGlyphs" textLength="68" x="58" y="391.9951">cate.ops</text><polygon fill="#FFFFFF" filter="url(#f1)" points="586,646,667,646,674,668.2969,905,668.2969,905,938,586,938,586,646" style="stroke: #000000; stroke-width: 2.0;"/><line style="stroke: #000000; stroke-width: 2.0;" x1="586" x2="674" y1="668.2969" y2="668.2969"/><text fill="#000000" font-family="sans-serif" font-size="14" font-weight="bold" lengthAdjust="spacingAndGlyphs" textLength="75" x="590" y="660.9951">cate.core</text><polygon fill="#FFFFFF" filter="url(#f1)" points="730,81,792,81,799,103.2969,871,103.2969,871,185,730,185,730,81" style="stroke: #000000; stroke-width: 2.0;"/><line style="stroke: #000000; stroke-width: 2.0;" x1="730" x2="799" y1="103.2969" y2="103.2969"/><text fill="#000000" font-family="sans-serif" font-size="14" font-weight="bold" lengthAdjust="spacingAndGlyphs" textLength="56" x="734" y="95.9951">cate.cli</text><polygon fill="#FFFFFF" filter="url(#f1)" points="766,233,868,233,875,255.2969,943,255.2969,943,337,766,337,766,233" style="stroke: #000000; stroke-width: 2.0;"/><line style="stroke: #000000; stroke-width: 2.0;" x1="766" x2="875" y1="255.2969" y2="255.2969"/><text fill="#000000" font-family="sans-serif" font-size="14" font-weight="bold" lengthAdjust="spacingAndGlyphs" textLength="96" x="770" y="247.9951">cate.webapi</text><polygon fill="#FFFFFF" filter="url(#f1)" points="999,50,1009,40,1206,40,1206,191,1196,201,999,201,999,50" style="stroke: #000000; stroke-width: 2.0;"/><line style="stroke: #000000; stroke-width: 2.0;" x1="1196" x2="1205" y1="50" y2="41"/><line style="stroke: #000000; stroke-width: 2.0;" x1="999" x2="1196" y1="50" y2="50"/><line style="stroke: #000000; stroke-width: 2.0;" x1="1196" x2="1196" y1="50" y2="201"/><text fill="#000000" font-family="sans-serif" font-size="14" font-weight="bold" lengthAdjust="spacingAndGlyphs" textLength="130" x="1033.5" y="65.9951">CCI_Toolbox_GUI</text><polygon fill="#FFFFFF" filter="url(#f1)" points="1023,89,1132,89,1139,111.2969,1173,111.2969,1173,177,1023,177,1023,89" style="stroke: #000000; stroke-width: 2.0;"/><line style="stroke: #000000; stroke-width: 2.0;" x1="1023" x2="1139" y1="111.2969" y2="111.2969"/><text fill="#000000" font-family="sans-serif" font-size="14" font-weight="bold" lengthAdjust="spacingAndGlyphs" textLength="103" x="1027" y="103.9951">cate.desktop</text><path d="M1002,480 C1002,477 1004,475 1007,475 C1010,475 1012,477 1012,480 C1012,477 1014,475 1017,475 C1020,475 1022,477 1022,480 C1022,477 1024,475 1027,475 C1030,475 1032,477 1032,480 C1032,477 1034,475 1037,475 C1040,475 1042,477 1042,480 C1042,477 1044,475 1047,475 C1050,475 1052,477 1052,480 C1052,477 1054,475 1057,475 C1060,475 1062,477 1062,480 C1062,477 1064,475 1067,475 C1070,475 1072,477 1072,480 C1072,477 1074,475 1077,475 C1080,475 1082,477 1082,480 C1082,477 1084,475 1087,475 C1090,475 1092,477 1092,480 C1092,477 1094,475 1097,475 C1100,475 1102,477 1102,480 C1102,477 1104,475 1107,475 C1110,475 1112,477 1112,480 C1112,477 1114,475 1117,475 C1120,475 1122,477 1122,480 C1122,477 1124,475 1127,475 C1130,475 1132,477 1132,480 C1132,477 1134,475 1137,475 C1140,475 1142,477 1142,480 C1142,477 1144,475 1147,475 C1150,475 1152,477 1152,480 C1152,477 1154,475 1157,475 C1160,475 1162,477 1162,480 C1162,477 1164,475 1167,475 C1170,475 1172,477 1172,480 C1172,477 1174,475 1177,475 C1180,475 1182,477 1182,480 C1182,477 1184,475 1187,475 C1190,475 1192,477 1192,480 C1192,477 1194,475 1197,475 C1200,475 1202,477 1202,480 C1202,477 1204,475 1207,475 C1210,475 1212,477 1212,480 C1212,477 1214,475 1217,475 C1220,475 1222,477 1222,480 C1222,477 1224,475 1227,475 C1230,475 1232,477 1232,480 C1232,477 1234,475 1237,475 C1240,475 1242,477 1242,480 C1242,477 1244,475 1247,475 C1250,475 1252,477 1252,480 C1252,477 1254,475 1257,475 C1260,475 1262,477 1262,480 C1262,477 1264,475 1267,475 C1270,475 1272,477 1272,480 C1272,477 1274,475 1277,475 C1280,475 1282,477 1282,480 C1282,477 1284,475 1287,475 C1290,475 1292,477 1292,480 C1292,477 1294,475 1297,475 C1300,475 1302,477 1302,480 C1302,477 1304,475 1307,475 C1310,475 1312,477 1312,480 C1312,477 1314,475 1317,475 C1320,475 1322,477 1322,480 C1322,477 1324,475 1327,475 C1330,475 1332,477 1332,480 C1332,477 1334,475 1337,475 C1340,475 1342,477 1342,480 C1342,477 1344,475 1347,475 C1350,475 1352,477 1352,480 C1352,477 1354,475 1357,475 C1360,475 1362,477 1362,480 C1362,477 1364,475 1367,475 C1370,475 1372,477 1372,480 C1375,480 1377,482 1377,485 C1377,488 1375,490 1372,490 C1375,490 1377,492 1377,495 C1377,498 1375,500 1372,500 C1375,500 1377,502 1377,505 C1377,508 1375,510 1372,510 C1375,510 1377,512 1377,515 C1377,518 1375,520 1372,520 C1375,520 1377,522 1377,525 C1377,528 1375,530 1372,530 C1375,530 1377,532 1377,535 C1377,538 1375,540 1372,540 C1375,540 1377,542 1377,545 C1377,548 1375,550 1372,550 C1375,550 1377,552 1377,555 C1377,558 1375,560 1372,560 C1375,560 1377,562 1377,565 C1377,568 1375,570 1372,570 C1375,570 1377,572 1377,575 C1377,578 1375,580 1372,580 C1375,580 1377,582 1377,585 C1377,588 1375,590 1372,590 C1375,590 1377,592 1377,595 C1377,598 1375,600 1372,600 C1375,600 1377,602 1377,605 C1377,608 1375,610 1372,610 C1375,610 1377,612 1377,615 C1377,618 1375,620 1372,620 C1375,620 1377,622 1377,625 C1377,628 1375,630 1372,630 C1375,630 1377,632 1377,635 C1377,638 1375,640 1372,640 C1375,640 1377,642 1377,645 C1377,648 1375,650 1372,650 C1375,650 1377,652 1377,655 C1377,658 1375,660 1372,660 C1375,660 1377,662 1377,665 C1377,668 1375,670 1372,670 C1375,670 1377,672 1377,675 C1377,678 1375,680 1372,680 C1375,680 1377,682 1377,685 C1377,688 1375,690 1372,690 C1375,690 1377,692 1377,695 C1377,698 1375,700 1372,700 C1375,700 1377,702 1377,705 C1377,708 1375,710 1372,710 C1375,710 1377,712 1377,715 C1377,718 1375,720 1372,720 C1375,720 1377,722 1377,725 C1377,728 1375,730 1372,730 C1375,730 1377,732 1377,735 C1377,738 1375,740 1372,740 C1375,740 1377,742 1377,745 C1377,748 1375,750 1372,750 C1375,750 1377,752 1377,755 C1377,758 1375,760 1372,760 C1375,760 1377,762 1377,765 C1377,768 1375,770 1372,770 C1372,773 1369,775 1367,775 C1364,775 1362,773 1362,770 C1362,773 1359,775 1357,775 C1354,775 1352,773 1352,770 C1352,773 1349,775 1347,775 C1344,775 1342,773 1342,770 C1342,773 1339,775 1337,775 C1334,775 1332,773 1332,770 C1332,773 1329,775 1327,775 C1324,775 1322,773 1322,770 C1322,773 1319,775 1317,775 C1314,775 1312,773 1312,770 C1312,773 1309,775 1307,775 C1304,775 1302,773 1302,770 C1302,773 1299,775 1297,775 C1294,775 1292,773 1292,770 C1292,773 1289,775 1287,775 C1284,775 1282,773 1282,770 C1282,773 1279,775 1277,775 C1274,775 1272,773 1272,770 C1272,773 1269,775 1267,775 C1264,775 1262,773 1262,770 C1262,773 1259,775 1257,775 C1254,775 1252,773 1252,770 C1252,773 1249,775 1247,775 C1244,775 1242,773 1242,770 C1242,773 1239,775 1237,775 C1234,775 1232,773 1232,770 C1232,773 1229,775 1227,775 C1224,775 1222,773 1222,770 C1222,773 1219,775 1217,775 C1214,775 1212,773 1212,770 C1212,773 1209,775 1207,775 C1204,775 1202,773 1202,770 C1202,773 1199,775 1197,775 C1194,775 1192,773 1192,770 C1192,773 1189,775 1187,775 C1184,775 1182,773 1182,770 C1182,773 1179,775 1177,775 C1174,775 1172,773 1172,770 C1172,773 1169,775 1167,775 C1164,775 1162,773 1162,770 C1162,773 1159,775 1157,775 C1154,775 1152,773 1152,770 C1152,773 1149,775 1147,775 C1144,775 1142,773 1142,770 C1142,773 1139,775 1137,775 C1134,775 1132,773 1132,770 C1132,773 1129,775 1127,775 C1124,775 1122,773 1122,770 C1122,773 1119,775 1117,775 C1114,775 1112,773 1112,770 C1112,773 1109,775 1107,775 C1104,775 1102,773 1102,770 C1102,773 1099,775 1097,775 C1094,775 1092,773 1092,770 C1092,773 1089,775 1087,775 C1084,775 1082,773 1082,770 C1082,773 1079,775 1077,775 C1074,775 1072,773 1072,770 C1072,773 1069,775 1067,775 C1064,775 1062,773 1062,770 C1062,773 1059,775 1057,775 C1054,775 1052,773 1052,770 C1052,773 1049,775 1047,775 C1044,775 1042,773 1042,770 C1042,773 1039,775 1037,775 C1034,775 1032,773 1032,770 C1032,773 1029,775 1027,775 C1024,775 1022,773 1022,770 C1022,773 1019,775 1017,775 C1014,775 1012,773 1012,770 C1012,773 1009,775 1007,775 C1004,775 1002,773 1002,770 C999,770 997,768 997,765 C997,762 999,760 1002,760 C999,760 997,758 997,755 C997,752 999,750 1002,750 C999,750 997,748 997,745 C997,742 999,740 1002,740 C999,740 997,738 997,735 C997,732 999,730 1002,730 C999,730 997,728 997,725 C997,722 999,720 1002,720 C999,720 997,718 997,715 C997,712 999,710 1002,710 C999,710 997,708 997,705 C997,702 999,700 1002,700 C999,700 997,698 997,695 C997,692 999,690 1002,690 C999,690 997,688 997,685 C997,682 999,680 1002,680 C999,680 997,678 997,675 C997,672 999,670 1002,670 C999,670 997,668 997,665 C997,662 999,660 1002,660 C999,660 997,658 997,655 C997,652 999,650 1002,650 C999,650 997,648 997,645 C997,642 999,640 1002,640 C999,640 997,638 997,635 C997,632 999,630 1002,630 C999,630 997,628 997,625 C997,622 999,620 1002,620 C999,620 997,618 997,615 C997,612 999,610 1002,610 C999,610 997,608 997,605 C997,602 999,600 1002,600 C999,600 997,598 997,595 C997,592 999,590 1002,590 C999,590 997,588 997,585 C997,582 999,580 1002,580 C999,580 997,578 997,575 C997,572 999,570 1002,570 C999,570 997,568 997,565 C997,562 999,560 1002,560 C999,560 997,558 997,555 C997,552 999,550 1002,550 C999,550 997,548 997,545 C997,542 999,540 1002,540 C999,540 997,538 997,535 C997,532 999,530 1002,530 C999,530 997,528 997,525 C997,522 999,520 1002,520 C999,520 997,518 997,515 C997,512 999,510 1002,510 C999,510 997,508 997,505 C997,502 999,500 1002,500 C999,500 997,498 997,495 C997,492 999,490 1002,490 C999,490 997,488 997,485 C997,482 999,480 1002,480 " fill="#FFFFFF" filter="url(#f1)" style="stroke: #000000; stroke-width: 2.0;"/><polygon fill="#EEEEEE" filter="url(#f1)" points="1031,515,1041,505,1340,505,1340,732,1330,742,1031,742,1031,515" style="stroke: #000000; stroke-width: 2.0;"/><line style="stroke: #000000; stroke-width: 2.0;" x1="1330" x2="1339" y1="515" y2="506"/><line style="stroke: #000000; stroke-width: 2.0;" x1="1031" x2="1330" y1="515" y2="515"/><line style="stroke: #000000; stroke-width: 2.0;" x1="1330" x2="1330" y1="515" y2="742"/><text fill="#000000" font-family="sans-serif" font-size="14" font-weight="bold" lengthAdjust="spacingAndGlyphs" textLength="170" x="1096.5" y="530.9951">CCI_Open_Data_Portal</text><rect fill="#FEFECE" filter="url(#f1)" height="36.2969" style="stroke: #A80036; stroke-width: 1.5;" width="105" x="618.75" y="421"/><rect fill="#FEFECE" height="5" style="stroke: #A80036; stroke-width: 1.5;" width="10" x="613.75" y="426"/><rect fill="#FEFECE" height="5" style="stroke: #A80036; stroke-width: 1.5;" width="10" x="613.75" y="447.2969"/><text fill="#000000" font-family="sans-serif" font-size="14" lengthAdjust="spacingAndGlyphs" textLength="85" x="628.75" y="443.9951">esa_cci_odp</text><rect fill="#FEFECE" filter="url(#f1)" height="36.2969" style="stroke: #A80036; stroke-width: 1.5;" width="96" x="759" y="421"/><rect fill="#FEFECE" height="5" style="stroke: #A80036; stroke-width: 1.5;" width="10" x="754" y="426"/><rect fill="#FEFECE" height="5" style="stroke: #A80036; stroke-width: 1.5;" width="10" x="754" y="447.2969"/><text fill="#000000" font-family="sans-serif" font-size="14" lengthAdjust="spacingAndGlyphs" textLength="76" x="769" y="443.9951">esa_cci_ftp</text><rect fill="#FEFECE" filter="url(#f1)" height="36.2969" style="stroke: #A80036; stroke-width: 1.5;" width="51" x="618.75" y="554"/><rect fill="#FEFECE" height="5" style="stroke: #A80036; stroke-width: 1.5;" width="10" x="613.75" y="559"/><rect fill="#FEFECE" height="5" style="stroke: #A80036; stroke-width: 1.5;" width="10" x="613.75" y="580.2969"/><text fill="#000000" font-family="sans-serif" font-size="14" lengthAdjust="spacingAndGlyphs" textLength="31" x="628.75" y="576.9951">local</text><rect fill="#FFFFFF" filter="url(#f1)" height="36.2969" style="stroke: #A80036; stroke-width: 1.5;" width="206" x="705" y="554"/><rect fill="#FFFFFF" height="5" style="stroke: #A80036; stroke-width: 1.5;" width="10" x="700" y="559"/><rect fill="#FFFFFF" height="5" style="stroke: #A80036; stroke-width: 1.5;" width="10" x="700" y="580.2969"/><text fill="#000000" font-family="sans-serif" font-size="14" lengthAdjust="spacingAndGlyphs" textLength="186" x="715" y="576.9951">more data store modules...</text><rect fill="#FEFECE" filter="url(#f1)" height="36.2969" style="stroke: #A80036; stroke-width: 1.5;" width="115" x="97.75" y="421"/><rect fill="#FEFECE" height="5" style="stroke: #A80036; stroke-width: 1.5;" width="10" x="92.75" y="426"/><rect fill="#FEFECE" height="5" style="stroke: #A80036; stroke-width: 1.5;" width="10" x="92.75" y="447.2969"/><text fill="#000000" font-family="sans-serif" font-size="14" lengthAdjust="spacingAndGlyphs" textLength="95" x="107.75" y="443.9951">coregistration</text><rect fill="#FEFECE" filter="url(#f1)" height="36.2969" style="stroke: #A80036; stroke-width: 1.5;" width="93" x="247.75" y="421"/><rect fill="#FEFECE" height="5" style="stroke: #A80036; stroke-width: 1.5;" width="10" x="242.75" y="426"/><rect fill="#FEFECE" height="5" style="stroke: #A80036; stroke-width: 1.5;" width="10" x="242.75" y="447.2969"/><text fill="#000000" font-family="sans-serif" font-size="14" lengthAdjust="spacingAndGlyphs" textLength="73" x="257.75" y="443.9951">correlation</text><rect fill="#FEFECE" filter="url(#f1)" height="36.2969" style="stroke: #A80036; stroke-width: 1.5;" width="87" x="375.75" y="421"/><rect fill="#FEFECE" height="5" style="stroke: #A80036; stroke-width: 1.5;" width="10" x="370.75" y="426"/><rect fill="#FEFECE" height="5" style="stroke: #A80036; stroke-width: 1.5;" width="10" x="370.75" y="447.2969"/><text fill="#000000" font-family="sans-serif" font-size="14" lengthAdjust="spacingAndGlyphs" textLength="67" x="385.75" y="443.9951">normalize</text><rect fill="#FEFECE" filter="url(#f1)" height="36.2969" style="stroke: #A80036; stroke-width: 1.5;" width="32" x="498" y="421"/><rect fill="#FEFECE" height="5" style="stroke: #A80036; stroke-width: 1.5;" width="10" x="493" y="426"/><rect fill="#FEFECE" height="5" style="stroke: #A80036; stroke-width: 1.5;" width="10" x="493" y="447.2969"/><text fill="#000000" font-family="sans-serif" font-size="14" lengthAdjust="spacingAndGlyphs" textLength="12" x="508" y="443.9951">io</text><rect fill="#FEFECE" filter="url(#f1)" height="36.2969" style="stroke: #A80036; stroke-width: 1.5;" width="46" x="132" y="554"/><rect fill="#FEFECE" height="5" style="stroke: #A80036; stroke-width: 1.5;" width="10" x="127" y="559"/><rect fill="#FEFECE" height="5" style="stroke: #A80036; stroke-width: 1.5;" width="10" x="127" y="580.2969"/><text fill="#000000" font-family="sans-serif" font-size="14" lengthAdjust="spacingAndGlyphs" textLength="26" x="142" y="576.9951">plot</text><rect fill="#FEFECE" filter="url(#f1)" height="36.2969" style="stroke: #A80036; stroke-width: 1.5;" width="96" x="223" y="554"/><rect fill="#FEFECE" height="5" style="stroke: #A80036; stroke-width: 1.5;" width="10" x="218" y="559"/><rect fill="#FEFECE" height="5" style="stroke: #A80036; stroke-width: 1.5;" width="10" x="218" y="580.2969"/><text fill="#000000" font-family="sans-serif" font-size="14" lengthAdjust="spacingAndGlyphs" textLength="76" x="233" y="576.9951">resampling</text><rect fill="#FEFECE" filter="url(#f1)" height="36.2969" style="stroke: #A80036; stroke-width: 1.5;" width="62" x="359.5" y="554"/><rect fill="#FEFECE" height="5" style="stroke: #A80036; stroke-width: 1.5;" width="10" x="354.5" y="559"/><rect fill="#FEFECE" height="5" style="stroke: #A80036; stroke-width: 1.5;" width="10" x="354.5" y="580.2969"/><text fill="#000000" font-family="sans-serif" font-size="14" lengthAdjust="spacingAndGlyphs" textLength="42" x="369.5" y="576.9951">select</text><rect fill="#FEFECE" filter="url(#f1)" height="36.2969" style="stroke: #A80036; stroke-width: 1.5;" width="68" x="459" y="554"/><rect fill="#FEFECE" height="5" style="stroke: #A80036; stroke-width: 1.5;" width="10" x="454" y="559"/><rect fill="#FEFECE" height="5" style="stroke: #A80036; stroke-width: 1.5;" width="10" x="454" y="580.2969"/><text fill="#000000" font-family="sans-serif" font-size="14" lengthAdjust="spacingAndGlyphs" textLength="48" x="469" y="576.9951">subset</text><rect fill="#FEFECE" filter="url(#f1)" height="36.2969" style="stroke: #A80036; stroke-width: 1.5;" width="92" x="109" y="682"/><rect fill="#FEFECE" height="5" style="stroke: #A80036; stroke-width: 1.5;" width="10" x="104" y="687"/><rect fill="#FEFECE" height="5" style="stroke: #A80036; stroke-width: 1.5;" width="10" x="104" y="708.2969"/><text fill="#000000" font-family="sans-serif" font-size="14" lengthAdjust="spacingAndGlyphs" textLength="72" x="119" y="704.9951">timeseries</text><rect fill="#FFFFFF" filter="url(#f1)" height="36.2969" style="stroke: #A80036; stroke-width: 1.5;" width="202" x="282" y="682"/><rect fill="#FFFFFF" height="5" style="stroke: #A80036; stroke-width: 1.5;" width="10" x="277" y="687"/><rect fill="#FFFFFF" height="5" style="stroke: #A80036; stroke-width: 1.5;" width="10" x="277" y="708.2969"/><text fill="#000000" font-family="sans-serif" font-size="14" lengthAdjust="spacingAndGlyphs" textLength="182" x="292" y="704.9951">more operation modules...</text><rect fill="#FEFECE" filter="url(#f1)" height="36.2969" style="stroke: #A80036; stroke-width: 1.5;" width="37" x="734.75" y="682"/><rect fill="#FEFECE" height="5" style="stroke: #A80036; stroke-width: 1.5;" width="10" x="729.75" y="687"/><rect fill="#FEFECE" height="5" style="stroke: #A80036; stroke-width: 1.5;" width="10" x="729.75" y="708.2969"/><text fill="#000000" font-family="sans-serif" font-size="14" lengthAdjust="spacingAndGlyphs" textLength="17" x="744.75" y="704.9951">ds</text><rect fill="#FEFECE" filter="url(#f1)" height="36.2969" style="stroke: #A80036; stroke-width: 1.5;" width="73" x="810.75" y="682"/><rect fill="#FEFECE" height="5" style="stroke: #A80036; stroke-width: 1.5;" width="10" x="805.75" y="687"/><rect fill="#FEFECE" height="5" style="stroke: #A80036; stroke-width: 1.5;" width="10" x="805.75" y="708.2969"/><text fill="#000000" font-family="sans-serif" font-size="14" lengthAdjust="spacingAndGlyphs" textLength="53" x="820.75" y="704.9951">monitor</text><rect fill="#FEFECE" filter="url(#f1)" height="36.2969" style="stroke: #A80036; stroke-width: 1.5;" width="75" x="717.75" y="790"/><rect fill="#FEFECE" height="5" style="stroke: #A80036; stroke-width: 1.5;" width="10" x="712.75" y="795"/><rect fill="#FEFECE" height="5" style="stroke: #A80036; stroke-width: 1.5;" width="10" x="712.75" y="816.2969"/><text fill="#000000" font-family="sans-serif" font-size="14" lengthAdjust="spacingAndGlyphs" textLength="55" x="727.75" y="812.9951">objectio</text><rect fill="#FEFECE" filter="url(#f1)" height="36.2969" style="stroke: #A80036; stroke-width: 1.5;" width="38" x="623" y="886"/><rect fill="#FEFECE" height="5" style="stroke: #A80036; stroke-width: 1.5;" width="10" x="618" y="891"/><rect fill="#FEFECE" height="5" style="stroke: #A80036; stroke-width: 1.5;" width="10" x="618" y="912.2969"/><text fill="#000000" font-family="sans-serif" font-size="14" lengthAdjust="spacingAndGlyphs" textLength="18" x="633" y="908.9951">op</text><rect fill="#FEFECE" filter="url(#f1)" height="36.2969" style="stroke: #A80036; stroke-width: 1.5;" width="62" x="827.5" y="790"/><rect fill="#FEFECE" height="5" style="stroke: #A80036; stroke-width: 1.5;" width="10" x="822.5" y="795"/><rect fill="#FEFECE" height="5" style="stroke: #A80036; stroke-width: 1.5;" width="10" x="822.5" y="816.2969"/><text fill="#000000" font-family="sans-serif" font-size="14" lengthAdjust="spacingAndGlyphs" textLength="42" x="837.5" y="812.9951">plugin</text><rect fill="#FEFECE" filter="url(#f1)" height="36.2969" style="stroke: #A80036; stroke-width: 1.5;" width="80" x="602" y="790"/><rect fill="#FEFECE" height="5" style="stroke: #A80036; stroke-width: 1.5;" width="10" x="597" y="795"/><rect fill="#FEFECE" height="5" style="stroke: #A80036; stroke-width: 1.5;" width="10" x="597" y="816.2969"/><text fill="#000000" font-family="sans-serif" font-size="14" lengthAdjust="spacingAndGlyphs" textLength="60" x="612" y="812.9951">workflow</text><rect fill="#FEFECE" filter="url(#f1)" height="36.2969" style="stroke: #A80036; stroke-width: 1.5;" width="95" x="602.75" y="682"/><rect fill="#FEFECE" height="5" style="stroke: #A80036; stroke-width: 1.5;" width="10" x="597.75" y="687"/><rect fill="#FEFECE" height="5" style="stroke: #A80036; stroke-width: 1.5;" width="10" x="597.75" y="708.2969"/><text fill="#000000" font-family="sans-serif" font-size="14" lengthAdjust="spacingAndGlyphs" textLength="75" x="612.75" y="704.9951">workspace</text><rect fill="#FEFECE" filter="url(#f1)" height="36.2969" style="stroke: #A80036; stroke-width: 1.5;" width="74" x="773" y="125"/><rect fill="#FEFECE" height="5" style="stroke: #A80036; stroke-width: 1.5;" width="10" x="768" y="130"/><rect fill="#FEFECE" height="5" style="stroke: #A80036; stroke-width: 1.5;" width="10" x="768" y="151.2969"/><text fill="#000000" font-family="sans-serif" font-size="14" lengthAdjust="spacingAndGlyphs" textLength="54" x="783" y="147.9951">cli_main</text><rect fill="#FEFECE" filter="url(#f1)" height="36.2969" style="stroke: #A80036; stroke-width: 1.5;" width="109" x="809.75" y="277"/><rect fill="#FEFECE" height="5" style="stroke: #A80036; stroke-width: 1.5;" width="10" x="804.75" y="282"/><rect fill="#FEFECE" height="5" style="stroke: #A80036; stroke-width: 1.5;" width="10" x="804.75" y="303.2969"/><text fill="#000000" font-family="sans-serif" font-size="14" lengthAdjust="spacingAndGlyphs" textLength="89" x="819.75" y="299.9951">webapi_main</text><rect fill="#FEFECE" filter="url(#f1)" height="36.2969" style="stroke: #A80036; stroke-width: 1.5;" width="117" x="1039.75" y="125"/><rect fill="#FEFECE" height="5" style="stroke: #A80036; stroke-width: 1.5;" width="10" x="1034.75" y="130"/><rect fill="#FEFECE" height="5" style="stroke: #A80036; stroke-width: 1.5;" width="10" x="1034.75" y="151.2969"/><text fill="#000000" font-family="sans-serif" font-size="14" lengthAdjust="spacingAndGlyphs" textLength="97" x="1049.75" y="147.9951">desktop_main</text><rect fill="#FEFECE" filter="url(#f1)" height="36.2969" style="stroke: #A80036; stroke-width: 1.5;" width="46" x="1084" y="554"/><rect fill="#FEFECE" height="5" style="stroke: #A80036; stroke-width: 1.5;" width="10" x="1079" y="559"/><rect fill="#FEFECE" height="5" style="stroke: #A80036; stroke-width: 1.5;" width="10" x="1079" y="580.2969"/><text fill="#000000" font-family="sans-serif" font-size="14" lengthAdjust="spacingAndGlyphs" textLength="26" x="1094" y="576.9951">FTP</text><rect fill="#FEFECE" filter="url(#f1)" height="36.2969" style="stroke: #A80036; stroke-width: 1.5;" width="57" x="1211.75" y="554"/><rect fill="#FEFECE" height="5" style="stroke: #A80036; stroke-width: 1.5;" width="10" x="1206.75" y="559"/><rect fill="#FEFECE" height="5" style="stroke: #A80036; stroke-width: 1.5;" width="10" x="1206.75" y="580.2969"/><text fill="#000000" font-family="sans-serif" font-size="14" lengthAdjust="spacingAndGlyphs" textLength="37" x="1221.75" y="576.9951">HTTP</text><rect fill="#FEFECE" filter="url(#f1)" height="36.2969" style="stroke: #A80036; stroke-width: 1.5;" width="88" x="1063.5" y="682"/><rect fill="#FEFECE" height="5" style="stroke: #A80036; stroke-width: 1.5;" width="10" x="1058.5" y="687"/><rect fill="#FEFECE" height="5" style="stroke: #A80036; stroke-width: 1.5;" width="10" x="1058.5" y="708.2969"/><text fill="#000000" font-family="sans-serif" font-size="14" lengthAdjust="spacingAndGlyphs" textLength="68" x="1073.5" y="704.9951">OPeNDAP</text><rect fill="#FFFFFF" filter="url(#f1)" height="36.2969" style="stroke: #A80036; stroke-width: 1.5;" width="129" x="1186.75" y="682"/><rect fill="#FFFFFF" height="5" style="stroke: #A80036; stroke-width: 1.5;" width="10" x="1181.75" y="687"/><rect fill="#FFFFFF" height="5" style="stroke: #A80036; stroke-width: 1.5;" width="10" x="1181.75" y="708.2969"/><text fill="#000000" font-family="sans-serif" font-size="14" lengthAdjust="spacingAndGlyphs" textLength="109" x="1196.75" y="704.9951">more services...</text><path d="M816.194,161.207 C826.041,188.559 845.256,241.932 856.086,272.016 " fill="none" style="stroke: #A80036; stroke-width: 1.0; stroke-dasharray: 7.0,7.0;"/><polygon fill="#A80036" points="857.878,276.994,858.5943,267.1712,856.185,272.2893,851.0669,269.88,857.878,276.994" style="stroke: #A80036; stroke-width: 1.0;"/><path d="M1071.16,161.207 C1027.43,189.237 941.072,244.595 894.873,274.21 " fill="none" style="stroke: #A80036; stroke-width: 1.0; stroke-dasharray: 7.0,7.0;"/><polygon fill="#A80036" points="890.53,276.994,900.2656,275.5048,894.7395,274.2958,895.9485,268.7696,890.53,276.994" style="stroke: #A80036; stroke-width: 1.0;"/><path d="M648.715,718.031 C647.352,736.081 645.195,764.672 643.694,784.552 " fill="none" style="stroke: #A80036; stroke-width: 1.0; stroke-dasharray: 7.0,7.0;"/><polygon fill="#A80036" points="643.309,789.659,647.974,780.985,643.6847,784.6731,639.9966,780.3839,643.309,789.659" style="stroke: #A80036; stroke-width: 1.0;"/><path d="M642,826.241 C642,841.479 642,863.807 642,880.4576 " fill="none" style="stroke: #A80036; stroke-width: 1.0; stroke-dasharray: 7.0,7.0;"/><polygon fill="#A80036" points="642,885.8683,646,876.8683,642,880.8683,638,876.8683,642,885.8683" style="stroke: #A80036; stroke-width: 1.0;"/><path d="M729.4527,143.9593 C729.1875,143.96 728.9163,143.961 728.6394,143.9621 C727.5314,143.9666 726.3299,143.974 725.0374,143.9852 C722.4522,144.0076 719.503,144.0453 716.21,144.1054 C703.0382,144.3458 684.3675,144.9457 661.5093,146.3687 C615.7928,149.2147 553.3256,155.3528 484.597,168.4916 C347.1398,194.7693 184.6365,249.0495 81,361 C78.1003,364.1323 75.6243,367.635 73.5119,371.3726 C72.9838,372.307 72.4784,373.2561 71.9948,374.2178 C71.753,374.6986 71.5166,375.1825 71.2856,375.6694 C71.1701,375.9128 71.0559,376.1569 70.943,376.4018 C70.8866,376.5242 70.8305,376.6467 70.7747,376.7695 " fill="none" style="stroke: #A80036; stroke-width: 1.0; stroke-dasharray: 7.0,7.0;"/><polygon fill="#A80036" points="70.7747,376.7695,78.1395,370.2304,72.8431,372.2174,70.8561,366.921,70.7747,376.7695" style="stroke: #A80036; stroke-width: 1.0;"/><path d="M729.8665,175.489 C729.4389,177.4997 729.0113,179.585 728.5884,181.7383 C727.7427,186.045 726.916,190.624 726.1462,195.4229 C724.6067,205.0208 723.2947,215.4983 722.5134,226.4365 C719.388,270.1895 724.7525,321.3145 758,353 C771.609,365.969 913.339,348.086 927,361 C930.0278,363.8621 932.4395,367.1602 934.3401,370.7466 C935.2904,372.5399 936.1129,374.4052 936.8207,376.3242 C936.865,376.4441 936.9087,393.1765 936.9521,393.2969 " fill="none" style="stroke: #A80036; stroke-width: 1.0; stroke-dasharray: 7.0,7.0;"/><polygon fill="#A80036" points="936.9521,376.6846,937.6658,366.8616,935.2579,371.9804,930.1391,369.5724,936.9521,376.6846" style="stroke: #A80036; stroke-width: 1.0;"/><path d="M765.8864,297.5801 C765.5352,297.6478 765.1732,297.7175 764.8004,297.7892 C764.0549,297.9325 763.2667,298.0838 762.4365,298.2428 C755.7949,299.5148 746.4717,301.2784 734.937,303.4048 C711.8674,307.6575 679.9516,313.3612 642.9501,319.4841 C568.9472,331.73 474.602,345.653 390,353 C372.892,354.486 94.381,350.237 81,361 C77.674,363.6753 74.8749,366.8317 72.5238,370.3135 C71.3483,372.0545 70.2848,373.8768 69.3235,375.7609 C69.2033,375.9965 69.0848,376.2329 68.9678,376.4704 C68.9093,376.5891 68.8512,376.708 68.7934,376.8272 " fill="none" style="stroke: #A80036; stroke-width: 1.0; stroke-dasharray: 7.0,7.0;"/><polygon fill="#A80036" points="68.7934,376.8272,76.3162,370.4705,70.9727,372.3271,69.1161,366.9836,68.7934,376.8272" style="stroke: #A80036; stroke-width: 1.0;"/><path d="M781.1006,337.255 C781.1847,337.4398 781.2697,337.6241 781.3557,337.808 C784.1081,343.6908 787.8685,349.0638 793,353 C816.669,371.156 905.449,340.374 927,361 C930.01,363.8808 932.4083,367.1929 934.299,370.7898 C935.2443,372.5882 936.0627,374.4578 936.7672,376.3803 C936.8113,376.5004 936.8548,393.1763 936.898,393.2969 " fill="none" style="stroke: #A80036; stroke-width: 1.0; stroke-dasharray: 7.0,7.0;"/><polygon fill="#A80036" points="936.898,376.7413,937.6317,366.9199,935.2133,372.0337,930.0994,369.6153,936.898,376.7413" style="stroke: #A80036; stroke-width: 1.0;"/><path d="M943.0662,450.1612 C943.1777,450.3017 943.2902,450.4434 943.4036,450.5863 C943.6306,450.8721 943.8614,451.1628 944.0959,451.4583 C944.5651,452.0493 945.0494,452.6594 945.5482,453.2877 C947.5432,455.8007 949.7692,458.6047 952.1798,461.6413 C961.8225,473.7876 974.4206,489.6568 987.0175,505.524 C999.6144,521.3913 1012.21,537.2566 1021.8477,549.3955 C1024.2571,552.4302 1026.4816,555.232 1028.4751,557.7427 C1028.9734,558.3704 1029.4574,558.9799 1029.9261,559.5703 C1030.1605,559.8655 1030.3911,560.1559 1030.6178,560.4414 C1030.7312,560.5842 1030.8436,560.7257 1030.955,560.866 " fill="none" style="stroke: #A80036; stroke-width: 1.0; stroke-dasharray: 7.0,7.0;"/><polygon fill="#A80036" points="1030.955,560.866,1028.4911,551.3303,1027.8458,556.9503,1022.2259,556.305,1030.955,560.866" style="stroke: #A80036; stroke-width: 1.0;"/></g></svg>