<?xml version="1.0" encoding="UTF-8" standalone="yes"?><svg xmlns="http://www.w3.org/2000/svg" xmlns:xlink="http://www.w3.org/1999/xlink" height="555px" style="width:855px;height:555px;" version="1.1" viewBox="0 0 855 555" width="855px"><defs><filter height="300%" id="f1" width="300%" x="-1" y="-1"><feGaussianBlur result="blurOut" stdDeviation="2.0"/><feColorMatrix in="blurOut" result="blurOut2" type="matrix" values="0 0 0 0 0 0 0 0 0 0 0 0 0 0 0 0 0 0 .4 0"/><feOffset dx="4.0" dy="4.0" in="blurOut2" result="blurOut3"/><feBlend in="SourceGraphic" in2="blurOut3" mode="normal"/></filter></defs><g><polygon fill="#FFFFFF" filter="url(#f1)" points="22,153,32,143,639,143,639,540,629,550,22,550,22,153" style="stroke: #000000; stroke-width: 2.0;"/><line style="stroke: #000000; stroke-width: 2.0;" x1="629" x2="638" y1="153" y2="144"/><line style="stroke: #000000; stroke-width: 2.0;" x1="22" x2="629" y1="153" y2="153"/><line style="stroke: #000000; stroke-width: 2.0;" x1="629" x2="629" y1="153" y2="550"/><text fill="#000000" font-family="sans-serif" font-size="14" font-weight="bold" lengthAdjust="spacingAndGlyphs" textLength="130" x="261.5" y="170.5332">CCI_Toolbox_Core</text><polygon fill="#FFFFFF" filter="url(#f1)" points="396,192,445,192,452,215.6094,598,215.6094,598,282,396,282,396,192" style="stroke: #000000; stroke-width: 2.0;"/><line style="stroke: #000000; stroke-width: 2.0;" x1="396" x2="452" y1="215.6094" y2="215.6094"/><text fill="#000000" font-family="sans-serif" font-size="14" font-weight="bold" lengthAdjust="spacingAndGlyphs" textLength="43" x="400" y="208.5332">ect.ds</text><polygon fill="#FFFFFF" filter="url(#f1)" points="54,314,112,314,119,337.6094,411,337.6094,411,518,54,518,54,314" style="stroke: #000000; stroke-width: 2.0;"/><line style="stroke: #000000; stroke-width: 2.0;" x1="54" x2="119" y1="337.6094" y2="337.6094"/><text fill="#000000" font-family="sans-serif" font-size="14" font-weight="bold" lengthAdjust="spacingAndGlyphs" textLength="52" x="58" y="330.5332">ect.ops</text><polygon fill="#FFFFFF" filter="url(#f1)" points="443,322,507,322,514,345.6094,615,345.6094,615,510,443,510,443,322" style="stroke: #000000; stroke-width: 2.0;"/><line style="stroke: #000000; stroke-width: 2.0;" x1="443" x2="514" y1="345.6094" y2="345.6094"/><text fill="#000000" font-family="sans-serif" font-size="14" font-weight="bold" lengthAdjust="spacingAndGlyphs" textLength="58" x="447" y="338.5332">ect.core</text><polygon fill="#FFFFFF" filter="url(#f1)" points="78,192,123,192,130,215.6094,356,215.6094,356,282,78,282,78,192" style="stroke: #000000; stroke-width: 2.0;"/><line style="stroke: #000000; stroke-width: 2.0;" x1="78" x2="130" y1="215.6094" y2="215.6094"/><text fill="#000000" font-family="sans-serif" font-size="14" font-weight="bold" lengthAdjust="spacingAndGlyphs" textLength="39" x="82" y="208.5332">ect.ui</text><polygon fill="#FFFFFF" filter="url(#f1)" points="43,34,53,24,240,24,240,109,230,119,43,119,43,34" style="stroke: #000000; stroke-width: 2.0;"/><line style="stroke: #000000; stroke-width: 2.0;" x1="230" x2="239" y1="34" y2="25"/><line style="stroke: #000000; stroke-width: 2.0;" x1="43" x2="230" y1="34" y2="34"/><line style="stroke: #000000; stroke-width: 2.0;" x1="230" x2="230" y1="34" y2="119"/><text fill="#000000" font-family="sans-serif" font-size="14" font-weight="bold" lengthAdjust="spacingAndGlyphs" textLength="121" x="77" y="51.5332">CCI_Toolbox_GUI</text><polygon fill="#FFFFFF" filter="url(#f1)" points="663,327,673,317,850,317,850,402,840,412,663,412,663,327" style="stroke: #000000; stroke-width: 2.0;"/><line style="stroke: #000000; stroke-width: 2.0;" x1="840" x2="849" y1="327" y2="318"/><line style="stroke: #000000; stroke-width: 2.0;" x1="663" x2="840" y1="327" y2="327"/><line style="stroke: #000000; stroke-width: 2.0;" x1="840" x2="840" y1="327" y2="412"/><text fill="#000000" font-family="sans-serif" font-size="14" font-weight="bold" lengthAdjust="spacingAndGlyphs" textLength="73" x="716" y="344.5332">CCI_Portal</text><ellipse cx="422" cy="238" fill="#FEFECE" filter="url(#f1)" rx="8" ry="8" style="stroke: #A80036; stroke-width: 2.0;"/><text fill="#000000" font-family="sans-serif" font-size="14" lengthAdjust="spacingAndGlyphs" textLength="19" x="412.5" y="261.5332">DS</text><rect fill="#FEFECE" filter="url(#f1)" height="37.6094" style="stroke: #A80036; stroke-width: 1.5;" width="115" x="466.5" y="228"/><rect fill="#FEFECE" height="5" style="stroke: #A80036; stroke-width: 1.5;" width="10" x="461.5" y="233"/><rect fill="#FEFECE" height="5" style="stroke: #A80036; stroke-width: 1.5;" width="10" x="461.5" y="255.6094"/><text fill="#000000" font-family="sans-serif" font-size="14" lengthAdjust="spacingAndGlyphs" textLength="95" x="476.5" y="252.5332">esa_cci_ftp_ds</text><rect fill="#FEFECE" filter="url(#f1)" height="37.6094" style="stroke: #A80036; stroke-width: 1.5;" width="84" x="78" y="358"/><rect fill="#FEFECE" height="5" style="stroke: #A80036; stroke-width: 1.5;" width="10" x="73" y="363"/><rect fill="#FEFECE" height="5" style="stroke: #A80036; stroke-width: 1.5;" width="10" x="73" y="385.6094"/><text fill="#000000" font-family="sans-serif" font-size="14" lengthAdjust="spacingAndGlyphs" textLength="64" x="88" y="382.5332">timeseries</text><rect fill="#FEFECE" filter="url(#f1)" height="37.6094" style="stroke: #A80036; stroke-width: 1.5;" width="57" x="197.5" y="358"/><rect fill="#FEFECE" height="5" style="stroke: #A80036; stroke-width: 1.5;" width="10" x="192.5" y="363"/><rect fill="#FEFECE" height="5" style="stroke: #A80036; stroke-width: 1.5;" width="10" x="192.5" y="385.6094"/><text fill="#000000" font-family="sans-serif" font-size="14" lengthAdjust="spacingAndGlyphs" textLength="37" x="207.5" y="382.5332">gapfill</text><rect fill="#FEFECE" filter="url(#f1)" height="37.6094" style="stroke: #A80036; stroke-width: 1.5;" width="78" x="290" y="358"/><rect fill="#FEFECE" height="5" style="stroke: #A80036; stroke-width: 1.5;" width="10" x="285" y="363"/><rect fill="#FEFECE" height="5" style="stroke: #A80036; stroke-width: 1.5;" width="10" x="285" y="385.6094"/><text fill="#000000" font-family="sans-serif" font-size="14" lengthAdjust="spacingAndGlyphs" textLength="58" x="300" y="382.5332">resample</text><rect fill="#FEFECE" filter="url(#f1)" height="37.6094" style="stroke: #A80036; stroke-width: 1.5;" width="74" x="83" y="456"/><rect fill="#FEFECE" height="5" style="stroke: #A80036; stroke-width: 1.5;" width="10" x="78" y="461"/><rect fill="#FEFECE" height="5" style="stroke: #A80036; stroke-width: 1.5;" width="10" x="78" y="483.6094"/><text fill="#000000" font-family="sans-serif" font-size="14" lengthAdjust="spacingAndGlyphs" textLength="54" x="93" y="480.5332">mapping</text><rect fill="#FEFECE" filter="url(#f1)" height="37.6094" style="stroke: #A80036; stroke-width: 1.5;" width="43" x="192.5" y="456"/><rect fill="#FEFECE" height="5" style="stroke: #A80036; stroke-width: 1.5;" width="10" x="187.5" y="461"/><rect fill="#FEFECE" height="5" style="stroke: #A80036; stroke-width: 1.5;" width="10" x="187.5" y="483.6094"/><text fill="#000000" font-family="sans-serif" font-size="14" lengthAdjust="spacingAndGlyphs" textLength="23" x="202.5" y="480.5332">plot</text><rect fill="#FEFECE" filter="url(#f1)" height="37.6094" style="stroke: #A80036; stroke-width: 1.5;" width="60" x="271" y="456"/><rect fill="#FEFECE" height="5" style="stroke: #A80036; stroke-width: 1.5;" width="10" x="266" y="461"/><rect fill="#FEFECE" height="5" style="stroke: #A80036; stroke-width: 1.5;" width="10" x="266" y="483.6094"/><text fill="#000000" font-family="sans-serif" font-size="14" lengthAdjust="spacingAndGlyphs" textLength="40" x="281" y="480.5332">others</text><rect fill="#FEFECE" filter="url(#f1)" height="37.6094" style="stroke: #A80036; stroke-width: 1.5;" width="46" x="459" y="456"/><rect fill="#FEFECE" height="5" style="stroke: #A80036; stroke-width: 1.5;" width="10" x="454" y="461"/><rect fill="#FEFECE" height="5" style="stroke: #A80036; stroke-width: 1.5;" width="10" x="454" y="483.6094"/><text fill="#000000" font-family="sans-serif" font-size="14" lengthAdjust="spacingAndGlyphs" textLength="26" x="469" y="480.5332">cdm</text><rect fill="#FEFECE" filter="url(#f1)" height="37.6094" style="stroke: #A80036; stroke-width: 1.5;" width="31" x="459.5" y="358"/><rect fill="#FEFECE" height="5" style="stroke: #A80036; stroke-width: 1.5;" width="10" x="454.5" y="363"/><rect fill="#FEFECE" height="5" style="stroke: #A80036; stroke-width: 1.5;" width="10" x="454.5" y="385.6094"/><text fill="#000000" font-family="sans-serif" font-size="14" lengthAdjust="spacingAndGlyphs" textLength="11" x="469.5" y="382.5332">io</text><rect fill="#FEFECE" filter="url(#f1)" height="37.6094" style="stroke: #A80036; stroke-width: 1.5;" width="36" x="544" y="456"/><rect fill="#FEFECE" height="5" style="stroke: #A80036; stroke-width: 1.5;" width="10" x="539" y="461"/><rect fill="#FEFECE" height="5" style="stroke: #A80036; stroke-width: 1.5;" width="10" x="539" y="483.6094"/><text fill="#000000" font-family="sans-serif" font-size="14" lengthAdjust="spacingAndGlyphs" textLength="16" x="554" y="480.5332">op</text><rect fill="#FEFECE" filter="url(#f1)" height="37.6094" style="stroke: #A80036; stroke-width: 1.5;" width="73" x="525.5" y="358"/><rect fill="#FEFECE" height="5" style="stroke: #A80036; stroke-width: 1.5;" width="10" x="520.5" y="363"/><rect fill="#FEFECE" height="5" style="stroke: #A80036; stroke-width: 1.5;" width="10" x="520.5" y="385.6094"/><text fill="#000000" font-family="sans-serif" font-size="14" lengthAdjust="spacingAndGlyphs" textLength="53" x="535.5" y="382.5332">workflow</text><ellipse cx="261" cy="238" fill="#FEFECE" filter="url(#f1)" rx="8" ry="8" style="stroke: #A80036; stroke-width: 2.0;"/><text fill="#000000" font-family="sans-serif" font-size="14" lengthAdjust="spacingAndGlyphs" textLength="21" x="250.5" y="261.5332">CLI</text><rect fill="#FEFECE" filter="url(#f1)" height="37.6094" style="stroke: #A80036; stroke-width: 1.5;" width="33" x="306.5" y="228"/><rect fill="#FEFECE" height="5" style="stroke: #A80036; stroke-width: 1.5;" width="10" x="301.5" y="233"/><rect fill="#FEFECE" height="5" style="stroke: #A80036; stroke-width: 1.5;" width="10" x="301.5" y="255.6094"/><text fill="#000000" font-family="sans-serif" font-size="14" lengthAdjust="spacingAndGlyphs" textLength="13" x="316.5" y="252.5332">cli</text><ellipse cx="119" cy="238" fill="#FEFECE" filter="url(#f1)" rx="8" ry="8" style="stroke: #A80036; stroke-width: 2.0;"/><text fill="#000000" font-family="sans-serif" font-size="14" lengthAdjust="spacingAndGlyphs" textLength="50" x="94" y="261.5332">WebAPI</text><rect fill="#FEFECE" filter="url(#f1)" height="37.6094" style="stroke: #A80036; stroke-width: 1.5;" width="36" x="179" y="228"/><rect fill="#FEFECE" height="5" style="stroke: #A80036; stroke-width: 1.5;" width="10" x="174" y="233"/><rect fill="#FEFECE" height="5" style="stroke: #A80036; stroke-width: 1.5;" width="10" x="174" y="255.6094"/><text fill="#000000" font-family="sans-serif" font-size="14" lengthAdjust="spacingAndGlyphs" textLength="16" x="189" y="252.5332">ws</text><rect fill="#FEFECE" filter="url(#f1)" height="37.6094" style="stroke: #A80036; stroke-width: 1.5;" width="77" x="80.5" y="65"/><rect fill="#FEFECE" height="5" style="stroke: #A80036; stroke-width: 1.5;" width="10" x="75.5" y="70"/><rect fill="#FEFECE" height="5" style="stroke: #A80036; stroke-width: 1.5;" width="10" x="75.5" y="92.6094"/><text fill="#000000" font-family="sans-serif" font-size="14" lengthAdjust="spacingAndGlyphs" textLength="57" x="90.5" y="89.5332">web_app</text><ellipse cx="693" cy="368" fill="#FEFECE" filter="url(#f1)" rx="8" ry="8" style="stroke: #A80036; stroke-width: 2.0;"/><text fill="#000000" font-family="sans-serif" font-size="14" lengthAdjust="spacingAndGlyphs" textLength="27" x="679.5" y="391.5332">FTP</text><rect fill="#FEFECE" filter="url(#f1)" height="37.6094" style="stroke: #A80036; stroke-width: 1.5;" width="92" x="742" y="358"/><rect fill="#FEFECE" height="5" style="stroke: #A80036; stroke-width: 1.5;" width="10" x="737" y="363"/><rect fill="#FEFECE" height="5" style="stroke: #A80036; stroke-width: 1.5;" width="10" x="737" y="385.6094"/><text fill="#000000" font-family="sans-serif" font-size="14" lengthAdjust="spacingAndGlyphs" textLength="72" x="752" y="382.5332">esa_cci_ftp</text><path d="M431.563,247 C443.117,247 454.672,247 466.227,247 " fill="none" style="stroke: #A80036; stroke-width: 1.0;"/><path d="M271.656,247 C283.155,247 294.654,247 306.153,247 " fill="none" style="stroke: #A80036; stroke-width: 1.0;"/><path d="M144.289,247 C155.82,247 167.35,247 178.881,247 " fill="none" style="stroke: #A80036; stroke-width: 1.0;"/><path d="M706.73,377 C718.476,377 730.222,377 741.968,377 " fill="none" style="stroke: #A80036; stroke-width: 1.0;"/><path d="M476.317,396.057 C477.444,411.513 479.073,433.865 480.299,450.673 " fill="none" style="stroke: #A80036; stroke-width: 1.0; stroke-dasharray: 7.0,7.0;"/><polygon fill="#A80036" points="480.665,455.698,484.0014,446.4315,480.3022,450.7112,476.0224,447.012,480.665,455.698" style="stroke: #A80036; stroke-width: 1.0;"/><path d="M562,396.057 C562,411.513 562,433.865 562,450.673 " fill="none" style="stroke: #A80036; stroke-width: 1.0; stroke-dasharray: 7.0,7.0;"/><polygon fill="#A80036" points="562,455.698,566,446.698,562,450.698,558,446.698,562,455.698" style="stroke: #A80036; stroke-width: 1.0;"/><path d="M562.66,266.158 C579.417,274.794 598.853,285.88 615,298 C638.015,315.276 660.885,339.145 675.852,355.915 " fill="none" style="stroke: #A80036; stroke-width: 1.0; stroke-dasharray: 7.0,7.0;"/><polygon fill="#A80036" points="679.482,360.017,676.514,350.626,676.1688,356.2723,670.5225,355.9271,679.482,360.017" style="stroke: #A80036; stroke-width: 1.0;"/><path d="M517.083,266.068 C508.378,288.809 493.412,327.903 483.872,352.824 " fill="none" style="stroke: #A80036; stroke-width: 1.0; stroke-dasharray: 7.0,7.0;"/><polygon fill="#A80036" points="482.04,357.61,488.9943,350.636,483.8283,352.9407,481.5235,347.7747,482.04,357.61" style="stroke: #A80036; stroke-width: 1.0;"/><path d="M411.0185,387.7444 C411.0845,387.8245 411.1507,387.905 411.2173,387.986 C411.3505,388.1478 411.485,388.3113 411.6208,388.4763 C412.1641,389.1364 412.728,389.8216 413.3111,390.5302 C414.4772,391.9473 415.7202,393.4578 417.0282,395.0472 C419.6441,398.226 422.5199,401.7207 425.561,405.4161 C437.7253,420.198 452.5335,438.193 463.929,452.041 " fill="none" style="stroke: #A80036; stroke-width: 1.0; stroke-dasharray: 7.0,7.0;"/><polygon fill="#A80036" points="467.187,455.999,464.5558,446.5081,464.0095,452.1385,458.3791,451.5922,467.187,455.999" style="stroke: #A80036; stroke-width: 1.0;"/><path d="M119,103.156 C119,132.697 119,191.1 119,223.324 " fill="none" style="stroke: #A80036; stroke-width: 1.0;"/><polygon fill="#A80036" points="119,228.644,123,219.644,119,223.644,115,219.644,119,228.644" style="stroke: #A80036; stroke-width: 1.0;"/></g></svg>