<?xml version="1.0" encoding="UTF-8" standalone="yes"?><svg xmlns="http://www.w3.org/2000/svg" xmlns:xlink="http://www.w3.org/1999/xlink" height="981px" style="width:1337px;height:981px;" version="1.1" viewBox="0 0 1337 981" width="1337px"><defs><filter height="300%" id="f1" width="300%" x="-1" y="-1"><feGaussianBlur result="blurOut" stdDeviation="2.0"/><feColorMatrix in="blurOut" result="blurOut2" type="matrix" values="0 0 0 0 0 0 0 0 0 0 0 0 0 0 0 0 0 0 .4 0"/><feOffset dx="4.0" dy="4.0" in="blurOut2" result="blurOut3"/><feBlend in="SourceGraphic" in2="blurOut3" mode="normal"/></filter></defs><g><polygon fill="#FFFFFF" filter="url(#f1)" points="22,34,32,24,938,24,938,966,928,976,22,976,22,34" style="stroke: #000000; stroke-width: 2.0;"/><line style="stroke: #000000; stroke-width: 2.0;" x1="928" x2="937" y1="34" y2="25"/><line style="stroke: #000000; stroke-width: 2.0;" x1="22" x2="928" y1="34" y2="34"/><line style="stroke: #000000; stroke-width: 2.0;" x1="928" x2="928" y1="34" y2="976"/><text fill="#000000" font-family="sans-serif" font-size="14" font-weight="bold" lengthAdjust="spacingAndGlyphs" textLength="130" x="411" y="51.5332">CCI_Toolbox_Core</text><polygon fill="#FFFFFF" filter="url(#f1)" points="576,381,633,381,640,404.6094,906,404.6094,906,622,576,622,576,381" style="stroke: #000000; stroke-width: 2.0;"/><line style="stroke: #000000; stroke-width: 2.0;" x1="576" x2="640" y1="404.6094" y2="404.6094"/><text fill="#000000" font-family="sans-serif" font-size="14" font-weight="bold" lengthAdjust="spacingAndGlyphs" textLength="51" x="580" y="397.5332">cate.ds</text><polygon fill="#FFFFFF" filter="url(#f1)" points="54,381,120,381,127,404.6094,536,404.6094,536,752,54,752,54,381" style="stroke: #000000; stroke-width: 2.0;"/><line style="stroke: #000000; stroke-width: 2.0;" x1="54" x2="127" y1="404.6094" y2="404.6094"/><text fill="#000000" font-family="sans-serif" font-size="14" font-weight="bold" lengthAdjust="spacingAndGlyphs" textLength="60" x="58" y="397.5332">cate.ops</text><polygon fill="#FFFFFF" filter="url(#f1)" points="568,654,640,654,647,677.6094,871,677.6094,871,952,568,952,568,654" style="stroke: #000000; stroke-width: 2.0;"/><line style="stroke: #000000; stroke-width: 2.0;" x1="568" x2="647" y1="677.6094" y2="677.6094"/><text fill="#000000" font-family="sans-serif" font-size="14" font-weight="bold" lengthAdjust="spacingAndGlyphs" textLength="66" x="572" y="670.5332">cate.core</text><polygon fill="#FFFFFF" filter="url(#f1)" points="701,81,757,81,764,104.6094,840,104.6094,840,187,701,187,701,81" style="stroke: #000000; stroke-width: 2.0;"/><line style="stroke: #000000; stroke-width: 2.0;" x1="701" x2="764" y1="104.6094" y2="104.6094"/><text fill="#000000" font-family="sans-serif" font-size="14" font-weight="bold" lengthAdjust="spacingAndGlyphs" textLength="50" x="705" y="97.5332">cate.cli</text><polygon fill="#FFFFFF" filter="url(#f1)" points="737,235,827,235,834,258.6094,906,258.6094,906,341,737,341,737,235" style="stroke: #000000; stroke-width: 2.0;"/><line style="stroke: #000000; stroke-width: 2.0;" x1="737" x2="834" y1="258.6094" y2="258.6094"/><text fill="#000000" font-family="sans-serif" font-size="14" font-weight="bold" lengthAdjust="spacingAndGlyphs" textLength="84" x="741" y="251.5332">cate.webapi</text><polygon fill="#FFFFFF" filter="url(#f1)" points="962,50,972,40,1159,40,1159,193,1149,203,962,203,962,50" style="stroke: #000000; stroke-width: 2.0;"/><line style="stroke: #000000; stroke-width: 2.0;" x1="1149" x2="1158" y1="50" y2="41"/><line style="stroke: #000000; stroke-width: 2.0;" x1="962" x2="1149" y1="50" y2="50"/><line style="stroke: #000000; stroke-width: 2.0;" x1="1149" x2="1149" y1="50" y2="203"/><text fill="#000000" font-family="sans-serif" font-size="14" font-weight="bold" lengthAdjust="spacingAndGlyphs" textLength="121" x="996" y="67.5332">CCI_Toolbox_GUI</text><polygon fill="#FFFFFF" filter="url(#f1)" points="986,89,1083,89,1090,112.6094,1126,112.6094,1126,179,986,179,986,89" style="stroke: #000000; stroke-width: 2.0;"/><line style="stroke: #000000; stroke-width: 2.0;" x1="986" x2="1090" y1="112.6094" y2="112.6094"/><text fill="#000000" font-family="sans-serif" font-size="14" font-weight="bold" lengthAdjust="spacingAndGlyphs" textLength="91" x="990" y="105.5332">cate.desktop</text><path d="M965,486 C965,483 967,481 970,481 C973,481 975,483 975,486 C975,483 977,481 980,481 C983,481 985,483 985,486 C985,483 987,481 990,481 C993,481 995,483 995,486 C995,483 997,481 1000,481 C1003,481 1005,483 1005,486 C1005,483 1007,481 1010,481 C1013,481 1015,483 1015,486 C1015,483 1017,481 1020,481 C1023,481 1025,483 1025,486 C1025,483 1027,481 1030,481 C1033,481 1035,483 1035,486 C1035,483 1037,481 1040,481 C1043,481 1045,483 1045,486 C1045,483 1047,481 1050,481 C1053,481 1055,483 1055,486 C1055,483 1057,481 1060,481 C1063,481 1065,483 1065,486 C1065,483 1067,481 1070,481 C1073,481 1075,483 1075,486 C1075,483 1077,481 1080,481 C1083,481 1085,483 1085,486 C1085,483 1087,481 1090,481 C1093,481 1095,483 1095,486 C1095,483 1097,481 1100,481 C1103,481 1105,483 1105,486 C1105,483 1107,481 1110,481 C1113,481 1115,483 1115,486 C1115,483 1117,481 1120,481 C1123,481 1125,483 1125,486 C1125,483 1127,481 1130,481 C1133,481 1135,483 1135,486 C1135,483 1137,481 1140,481 C1143,481 1145,483 1145,486 C1145,483 1147,481 1150,481 C1153,481 1155,483 1155,486 C1155,483 1157,481 1160,481 C1163,481 1165,483 1165,486 C1165,483 1167,481 1170,481 C1173,481 1175,483 1175,486 C1175,483 1177,481 1180,481 C1183,481 1185,483 1185,486 C1185,483 1187,481 1190,481 C1193,481 1195,483 1195,486 C1195,483 1197,481 1200,481 C1203,481 1205,483 1205,486 C1205,483 1207,481 1210,481 C1213,481 1215,483 1215,486 C1215,483 1217,481 1220,481 C1223,481 1225,483 1225,486 C1225,483 1227,481 1230,481 C1233,481 1235,483 1235,486 C1235,483 1237,481 1240,481 C1243,481 1245,483 1245,486 C1245,483 1247,481 1250,481 C1253,481 1255,483 1255,486 C1255,483 1257,481 1260,481 C1263,481 1265,483 1265,486 C1265,483 1267,481 1270,481 C1273,481 1275,483 1275,486 C1275,483 1277,481 1280,481 C1283,481 1285,483 1285,486 C1285,483 1287,481 1290,481 C1293,481 1295,483 1295,486 C1295,483 1297,481 1300,481 C1303,481 1305,483 1305,486 C1305,483 1307,481 1310,481 C1313,481 1315,483 1315,486 C1315,483 1317,481 1320,481 C1323,481 1325,483 1325,486 C1328,486 1330,488 1330,491 C1330,494 1328,496 1325,496 C1328,496 1330,498 1330,501 C1330,504 1328,506 1325,506 C1328,506 1330,508 1330,511 C1330,514 1328,516 1325,516 C1328,516 1330,518 1330,521 C1330,524 1328,526 1325,526 C1328,526 1330,528 1330,531 C1330,534 1328,536 1325,536 C1328,536 1330,538 1330,541 C1330,544 1328,546 1325,546 C1328,546 1330,548 1330,551 C1330,554 1328,556 1325,556 C1328,556 1330,558 1330,561 C1330,564 1328,566 1325,566 C1328,566 1330,568 1330,571 C1330,574 1328,576 1325,576 C1328,576 1330,578 1330,581 C1330,584 1328,586 1325,586 C1328,586 1330,588 1330,591 C1330,594 1328,596 1325,596 C1328,596 1330,598 1330,601 C1330,604 1328,606 1325,606 C1328,606 1330,608 1330,611 C1330,614 1328,616 1325,616 C1328,616 1330,618 1330,621 C1330,624 1328,626 1325,626 C1328,626 1330,628 1330,631 C1330,634 1328,636 1325,636 C1328,636 1330,638 1330,641 C1330,644 1328,646 1325,646 C1328,646 1330,648 1330,651 C1330,654 1328,656 1325,656 C1328,656 1330,658 1330,661 C1330,664 1328,666 1325,666 C1328,666 1330,668 1330,671 C1330,674 1328,676 1325,676 C1328,676 1330,678 1330,681 C1330,684 1328,686 1325,686 C1328,686 1330,688 1330,691 C1330,694 1328,696 1325,696 C1328,696 1330,698 1330,701 C1330,704 1328,706 1325,706 C1328,706 1330,708 1330,711 C1330,714 1328,716 1325,716 C1328,716 1330,718 1330,721 C1330,724 1328,726 1325,726 C1328,726 1330,728 1330,731 C1330,734 1328,736 1325,736 C1328,736 1330,738 1330,741 C1330,744 1328,746 1325,746 C1328,746 1330,748 1330,751 C1330,754 1328,756 1325,756 C1328,756 1330,758 1330,761 C1330,764 1328,766 1325,766 C1328,766 1330,768 1330,771 C1330,774 1328,776 1325,776 C1325,779 1322,781 1320,781 C1317,781 1315,779 1315,776 C1315,779 1312,781 1310,781 C1307,781 1305,779 1305,776 C1305,779 1302,781 1300,781 C1297,781 1295,779 1295,776 C1295,779 1292,781 1290,781 C1287,781 1285,779 1285,776 C1285,779 1282,781 1280,781 C1277,781 1275,779 1275,776 C1275,779 1272,781 1270,781 C1267,781 1265,779 1265,776 C1265,779 1262,781 1260,781 C1257,781 1255,779 1255,776 C1255,779 1252,781 1250,781 C1247,781 1245,779 1245,776 C1245,779 1242,781 1240,781 C1237,781 1235,779 1235,776 C1235,779 1232,781 1230,781 C1227,781 1225,779 1225,776 C1225,779 1222,781 1220,781 C1217,781 1215,779 1215,776 C1215,779 1212,781 1210,781 C1207,781 1205,779 1205,776 C1205,779 1202,781 1200,781 C1197,781 1195,779 1195,776 C1195,779 1192,781 1190,781 C1187,781 1185,779 1185,776 C1185,779 1182,781 1180,781 C1177,781 1175,779 1175,776 C1175,779 1172,781 1170,781 C1167,781 1165,779 1165,776 C1165,779 1162,781 1160,781 C1157,781 1155,779 1155,776 C1155,779 1152,781 1150,781 C1147,781 1145,779 1145,776 C1145,779 1142,781 1140,781 C1137,781 1135,779 1135,776 C1135,779 1132,781 1130,781 C1127,781 1125,779 1125,776 C1125,779 1122,781 1120,781 C1117,781 1115,779 1115,776 C1115,779 1112,781 1110,781 C1107,781 1105,779 1105,776 C1105,779 1102,781 1100,781 C1097,781 1095,779 1095,776 C1095,779 1092,781 1090,781 C1087,781 1085,779 1085,776 C1085,779 1082,781 1080,781 C1077,781 1075,779 1075,776 C1075,779 1072,781 1070,781 C1067,781 1065,779 1065,776 C1065,779 1062,781 1060,781 C1057,781 1055,779 1055,776 C1055,779 1052,781 1050,781 C1047,781 1045,779 1045,776 C1045,779 1042,781 1040,781 C1037,781 1035,779 1035,776 C1035,779 1032,781 1030,781 C1027,781 1025,779 1025,776 C1025,779 1022,781 1020,781 C1017,781 1015,779 1015,776 C1015,779 1012,781 1010,781 C1007,781 1005,779 1005,776 C1005,779 1002,781 1000,781 C997,781 995,779 995,776 C995,779 992,781 990,781 C987,781 985,779 985,776 C985,779 982,781 980,781 C977,781 975,779 975,776 C975,779 972,781 970,781 C967,781 965,779 965,776 C962,776 960,774 960,771 C960,768 962,766 965,766 C962,766 960,764 960,761 C960,758 962,756 965,756 C962,756 960,754 960,751 C960,748 962,746 965,746 C962,746 960,744 960,741 C960,738 962,736 965,736 C962,736 960,734 960,731 C960,728 962,726 965,726 C962,726 960,724 960,721 C960,718 962,716 965,716 C962,716 960,714 960,711 C960,708 962,706 965,706 C962,706 960,704 960,701 C960,698 962,696 965,696 C962,696 960,694 960,691 C960,688 962,686 965,686 C962,686 960,684 960,681 C960,678 962,676 965,676 C962,676 960,674 960,671 C960,668 962,666 965,666 C962,666 960,664 960,661 C960,658 962,656 965,656 C962,656 960,654 960,651 C960,648 962,646 965,646 C962,646 960,644 960,641 C960,638 962,636 965,636 C962,636 960,634 960,631 C960,628 962,626 965,626 C962,626 960,624 960,621 C960,618 962,616 965,616 C962,616 960,614 960,611 C960,608 962,606 965,606 C962,606 960,604 960,601 C960,598 962,596 965,596 C962,596 960,594 960,591 C960,588 962,586 965,586 C962,586 960,584 960,581 C960,578 962,576 965,576 C962,576 960,574 960,571 C960,568 962,566 965,566 C962,566 960,564 960,561 C960,558 962,556 965,556 C962,556 960,554 960,551 C960,548 962,546 965,546 C962,546 960,544 960,541 C960,538 962,536 965,536 C962,536 960,534 960,531 C960,528 962,526 965,526 C962,526 960,524 960,521 C960,518 962,516 965,516 C962,516 960,514 960,511 C960,508 962,506 965,506 C962,506 960,504 960,501 C960,498 962,496 965,496 C962,496 960,494 960,491 C960,488 962,486 965,486 " fill="#FFFFFF" filter="url(#f1)" style="stroke: #000000; stroke-width: 2.0;"/><polygon fill="#EEEEEE" filter="url(#f1)" points="994,521,1004,511,1291,511,1291,742,1281,752,994,752,994,521" style="stroke: #000000; stroke-width: 2.0;"/><line style="stroke: #000000; stroke-width: 2.0;" x1="1281" x2="1290" y1="521" y2="512"/><line style="stroke: #000000; stroke-width: 2.0;" x1="994" x2="1281" y1="521" y2="521"/><line style="stroke: #000000; stroke-width: 2.0;" x1="1281" x2="1281" y1="521" y2="752"/><text fill="#000000" font-family="sans-serif" font-size="14" font-weight="bold" lengthAdjust="spacingAndGlyphs" textLength="158" x="1059.5" y="538.5332">CCI_Open_Data_Portal</text><rect fill="#FEFECE" filter="url(#f1)" height="37.6094" style="stroke: #A80036; stroke-width: 1.5;" width="100" x="600" y="425"/><rect fill="#FEFECE" height="5" style="stroke: #A80036; stroke-width: 1.5;" width="10" x="595" y="430"/><rect fill="#FEFECE" height="5" style="stroke: #A80036; stroke-width: 1.5;" width="10" x="595" y="452.6094"/><text fill="#000000" font-family="sans-serif" font-size="14" lengthAdjust="spacingAndGlyphs" textLength="80" x="610" y="449.5332">esa_cci_odp</text><rect fill="#FEFECE" filter="url(#f1)" height="37.6094" style="stroke: #A80036; stroke-width: 1.5;" width="92" x="735" y="425"/><rect fill="#FEFECE" height="5" style="stroke: #A80036; stroke-width: 1.5;" width="10" x="730" y="430"/><rect fill="#FEFECE" height="5" style="stroke: #A80036; stroke-width: 1.5;" width="10" x="730" y="452.6094"/><text fill="#000000" font-family="sans-serif" font-size="14" lengthAdjust="spacingAndGlyphs" textLength="72" x="745" y="449.5332">esa_cci_ftp</text><rect fill="#FEFECE" filter="url(#f1)" height="37.6094" style="stroke: #A80036; stroke-width: 1.5;" width="49" x="600.5" y="560"/><rect fill="#FEFECE" height="5" style="stroke: #A80036; stroke-width: 1.5;" width="10" x="595.5" y="565"/><rect fill="#FEFECE" height="5" style="stroke: #A80036; stroke-width: 1.5;" width="10" x="595.5" y="587.6094"/><text fill="#000000" font-family="sans-serif" font-size="14" lengthAdjust="spacingAndGlyphs" textLength="29" x="610.5" y="584.5332">local</text><rect fill="#FFFFFF" filter="url(#f1)" height="37.6094" style="stroke: #A80036; stroke-width: 1.5;" width="189" x="684.5" y="560"/><rect fill="#FFFFFF" height="5" style="stroke: #A80036; stroke-width: 1.5;" width="10" x="679.5" y="565"/><rect fill="#FFFFFF" height="5" style="stroke: #A80036; stroke-width: 1.5;" width="10" x="679.5" y="587.6094"/><text fill="#000000" font-family="sans-serif" font-size="14" lengthAdjust="spacingAndGlyphs" textLength="169" x="694.5" y="584.5332">more data store modules...</text><rect fill="#FEFECE" filter="url(#f1)" height="37.6094" style="stroke: #A80036; stroke-width: 1.5;" width="106" x="97" y="425"/><rect fill="#FEFECE" height="5" style="stroke: #A80036; stroke-width: 1.5;" width="10" x="92" y="430"/><rect fill="#FEFECE" height="5" style="stroke: #A80036; stroke-width: 1.5;" width="10" x="92" y="452.6094"/><text fill="#000000" font-family="sans-serif" font-size="14" lengthAdjust="spacingAndGlyphs" textLength="86" x="107" y="449.5332">coregistration</text><rect fill="#FEFECE" filter="url(#f1)" height="37.6094" style="stroke: #A80036; stroke-width: 1.5;" width="87" x="238.5" y="425"/><rect fill="#FEFECE" height="5" style="stroke: #A80036; stroke-width: 1.5;" width="10" x="233.5" y="430"/><rect fill="#FEFECE" height="5" style="stroke: #A80036; stroke-width: 1.5;" width="10" x="233.5" y="452.6094"/><text fill="#000000" font-family="sans-serif" font-size="14" lengthAdjust="spacingAndGlyphs" textLength="67" x="248.5" y="449.5332">correlation</text><rect fill="#FEFECE" filter="url(#f1)" height="37.6094" style="stroke: #A80036; stroke-width: 1.5;" width="85" x="360.5" y="425"/><rect fill="#FEFECE" height="5" style="stroke: #A80036; stroke-width: 1.5;" width="10" x="355.5" y="430"/><rect fill="#FEFECE" height="5" style="stroke: #A80036; stroke-width: 1.5;" width="10" x="355.5" y="452.6094"/><text fill="#000000" font-family="sans-serif" font-size="14" lengthAdjust="spacingAndGlyphs" textLength="65" x="370.5" y="449.5332">harmonize</text><rect fill="#FEFECE" filter="url(#f1)" height="37.6094" style="stroke: #A80036; stroke-width: 1.5;" width="31" x="480.5" y="425"/><rect fill="#FEFECE" height="5" style="stroke: #A80036; stroke-width: 1.5;" width="10" x="475.5" y="430"/><rect fill="#FEFECE" height="5" style="stroke: #A80036; stroke-width: 1.5;" width="10" x="475.5" y="452.6094"/><text fill="#000000" font-family="sans-serif" font-size="14" lengthAdjust="spacingAndGlyphs" textLength="11" x="490.5" y="449.5332">io</text><rect fill="#FEFECE" filter="url(#f1)" height="37.6094" style="stroke: #A80036; stroke-width: 1.5;" width="43" x="128.5" y="560"/><rect fill="#FEFECE" height="5" style="stroke: #A80036; stroke-width: 1.5;" width="10" x="123.5" y="565"/><rect fill="#FEFECE" height="5" style="stroke: #A80036; stroke-width: 1.5;" width="10" x="123.5" y="587.6094"/><text fill="#000000" font-family="sans-serif" font-size="14" lengthAdjust="spacingAndGlyphs" textLength="23" x="138.5" y="584.5332">plot</text><rect fill="#FEFECE" filter="url(#f1)" height="37.6094" style="stroke: #A80036; stroke-width: 1.5;" width="89" x="206.5" y="560"/><rect fill="#FEFECE" height="5" style="stroke: #A80036; stroke-width: 1.5;" width="10" x="201.5" y="565"/><rect fill="#FEFECE" height="5" style="stroke: #A80036; stroke-width: 1.5;" width="10" x="201.5" y="587.6094"/><text fill="#000000" font-family="sans-serif" font-size="14" lengthAdjust="spacingAndGlyphs" textLength="69" x="216.5" y="584.5332">resampling</text><rect fill="#FEFECE" filter="url(#f1)" height="37.6094" style="stroke: #A80036; stroke-width: 1.5;" width="57" x="330.5" y="560"/><rect fill="#FEFECE" height="5" style="stroke: #A80036; stroke-width: 1.5;" width="10" x="325.5" y="565"/><rect fill="#FEFECE" height="5" style="stroke: #A80036; stroke-width: 1.5;" width="10" x="325.5" y="587.6094"/><text fill="#000000" font-family="sans-serif" font-size="14" lengthAdjust="spacingAndGlyphs" textLength="37" x="340.5" y="584.5332">select</text><rect fill="#FEFECE" filter="url(#f1)" height="37.6094" style="stroke: #A80036; stroke-width: 1.5;" width="62" x="423" y="560"/><rect fill="#FEFECE" height="5" style="stroke: #A80036; stroke-width: 1.5;" width="10" x="418" y="565"/><rect fill="#FEFECE" height="5" style="stroke: #A80036; stroke-width: 1.5;" width="10" x="418" y="587.6094"/><text fill="#000000" font-family="sans-serif" font-size="14" lengthAdjust="spacingAndGlyphs" textLength="42" x="433" y="584.5332">subset</text><rect fill="#FEFECE" filter="url(#f1)" height="37.6094" style="stroke: #A80036; stroke-width: 1.5;" width="84" x="108" y="690"/><rect fill="#FEFECE" height="5" style="stroke: #A80036; stroke-width: 1.5;" width="10" x="103" y="695"/><rect fill="#FEFECE" height="5" style="stroke: #A80036; stroke-width: 1.5;" width="10" x="103" y="717.6094"/><text fill="#000000" font-family="sans-serif" font-size="14" lengthAdjust="spacingAndGlyphs" textLength="64" x="118" y="714.5332">timeseries</text><rect fill="#FFFFFF" filter="url(#f1)" height="37.6094" style="stroke: #A80036; stroke-width: 1.5;" width="185" x="227.5" y="690"/><rect fill="#FFFFFF" height="5" style="stroke: #A80036; stroke-width: 1.5;" width="10" x="222.5" y="695"/><rect fill="#FFFFFF" height="5" style="stroke: #A80036; stroke-width: 1.5;" width="10" x="222.5" y="717.6094"/><text fill="#000000" font-family="sans-serif" font-size="14" lengthAdjust="spacingAndGlyphs" textLength="165" x="237.5" y="714.5332">more operation modules...</text><rect fill="#FEFECE" filter="url(#f1)" height="37.6094" style="stroke: #A80036; stroke-width: 1.5;" width="35" x="707.5" y="690"/><rect fill="#FEFECE" height="5" style="stroke: #A80036; stroke-width: 1.5;" width="10" x="702.5" y="695"/><rect fill="#FEFECE" height="5" style="stroke: #A80036; stroke-width: 1.5;" width="10" x="702.5" y="717.6094"/><text fill="#000000" font-family="sans-serif" font-size="14" lengthAdjust="spacingAndGlyphs" textLength="15" x="717.5" y="714.5332">ds</text><rect fill="#FEFECE" filter="url(#f1)" height="37.6094" style="stroke: #A80036; stroke-width: 1.5;" width="67" x="777.5" y="690"/><rect fill="#FEFECE" height="5" style="stroke: #A80036; stroke-width: 1.5;" width="10" x="772.5" y="695"/><rect fill="#FEFECE" height="5" style="stroke: #A80036; stroke-width: 1.5;" width="10" x="772.5" y="717.6094"/><text fill="#000000" font-family="sans-serif" font-size="14" lengthAdjust="spacingAndGlyphs" textLength="47" x="787.5" y="714.5332">monitor</text><rect fill="#FEFECE" filter="url(#f1)" height="37.6094" style="stroke: #A80036; stroke-width: 1.5;" width="69" x="692.5" y="800"/><rect fill="#FEFECE" height="5" style="stroke: #A80036; stroke-width: 1.5;" width="10" x="687.5" y="805"/><rect fill="#FEFECE" height="5" style="stroke: #A80036; stroke-width: 1.5;" width="10" x="687.5" y="827.6094"/><text fill="#000000" font-family="sans-serif" font-size="14" lengthAdjust="spacingAndGlyphs" textLength="49" x="702.5" y="824.5332">objectio</text><rect fill="#FEFECE" filter="url(#f1)" height="37.6094" style="stroke: #A80036; stroke-width: 1.5;" width="36" x="603" y="898"/><rect fill="#FEFECE" height="5" style="stroke: #A80036; stroke-width: 1.5;" width="10" x="598" y="903"/><rect fill="#FEFECE" height="5" style="stroke: #A80036; stroke-width: 1.5;" width="10" x="598" y="925.6094"/><text fill="#000000" font-family="sans-serif" font-size="14" lengthAdjust="spacingAndGlyphs" textLength="16" x="613" y="922.5332">op</text><rect fill="#FEFECE" filter="url(#f1)" height="37.6094" style="stroke: #A80036; stroke-width: 1.5;" width="58" x="797" y="800"/><rect fill="#FEFECE" height="5" style="stroke: #A80036; stroke-width: 1.5;" width="10" x="792" y="805"/><rect fill="#FEFECE" height="5" style="stroke: #A80036; stroke-width: 1.5;" width="10" x="792" y="827.6094"/><text fill="#000000" font-family="sans-serif" font-size="14" lengthAdjust="spacingAndGlyphs" textLength="38" x="807" y="824.5332">plugin</text><rect fill="#FEFECE" filter="url(#f1)" height="37.6094" style="stroke: #A80036; stroke-width: 1.5;" width="73" x="584.5" y="800"/><rect fill="#FEFECE" height="5" style="stroke: #A80036; stroke-width: 1.5;" width="10" x="579.5" y="805"/><rect fill="#FEFECE" height="5" style="stroke: #A80036; stroke-width: 1.5;" width="10" x="579.5" y="827.6094"/><text fill="#000000" font-family="sans-serif" font-size="14" lengthAdjust="spacingAndGlyphs" textLength="53" x="594.5" y="824.5332">workflow</text><rect fill="#FEFECE" filter="url(#f1)" height="37.6094" style="stroke: #A80036; stroke-width: 1.5;" width="87" x="584.5" y="690"/><rect fill="#FEFECE" height="5" style="stroke: #A80036; stroke-width: 1.5;" width="10" x="579.5" y="695"/><rect fill="#FEFECE" height="5" style="stroke: #A80036; stroke-width: 1.5;" width="10" x="579.5" y="717.6094"/><text fill="#000000" font-family="sans-serif" font-size="14" lengthAdjust="spacingAndGlyphs" textLength="67" x="594.5" y="714.5332">workspace</text><rect fill="#FEFECE" filter="url(#f1)" height="37.6094" style="stroke: #A80036; stroke-width: 1.5;" width="71" x="744.5" y="125"/><rect fill="#FEFECE" height="5" style="stroke: #A80036; stroke-width: 1.5;" width="10" x="739.5" y="130"/><rect fill="#FEFECE" height="5" style="stroke: #A80036; stroke-width: 1.5;" width="10" x="739.5" y="152.6094"/><text fill="#000000" font-family="sans-serif" font-size="14" lengthAdjust="spacingAndGlyphs" textLength="51" x="754.5" y="149.5332">cli_main</text><rect fill="#FEFECE" filter="url(#f1)" height="37.6094" style="stroke: #A80036; stroke-width: 1.5;" width="102" x="780" y="279"/><rect fill="#FEFECE" height="5" style="stroke: #A80036; stroke-width: 1.5;" width="10" x="775" y="284"/><rect fill="#FEFECE" height="5" style="stroke: #A80036; stroke-width: 1.5;" width="10" x="775" y="306.6094"/><text fill="#000000" font-family="sans-serif" font-size="14" lengthAdjust="spacingAndGlyphs" textLength="82" x="790" y="303.5332">webapi_main</text><rect fill="#FEFECE" filter="url(#f1)" height="37.6094" style="stroke: #A80036; stroke-width: 1.5;" width="108" x="1002" y="125"/><rect fill="#FEFECE" height="5" style="stroke: #A80036; stroke-width: 1.5;" width="10" x="997" y="130"/><rect fill="#FEFECE" height="5" style="stroke: #A80036; stroke-width: 1.5;" width="10" x="997" y="152.6094"/><text fill="#000000" font-family="sans-serif" font-size="14" lengthAdjust="spacingAndGlyphs" textLength="88" x="1012" y="149.5332">desktop_main</text><rect fill="#FEFECE" filter="url(#f1)" height="37.6094" style="stroke: #A80036; stroke-width: 1.5;" width="47" x="1045.5" y="560"/><rect fill="#FEFECE" height="5" style="stroke: #A80036; stroke-width: 1.5;" width="10" x="1040.5" y="565"/><rect fill="#FEFECE" height="5" style="stroke: #A80036; stroke-width: 1.5;" width="10" x="1040.5" y="587.6094"/><text fill="#000000" font-family="sans-serif" font-size="14" lengthAdjust="spacingAndGlyphs" textLength="27" x="1055.5" y="584.5332">FTP</text><rect fill="#FEFECE" filter="url(#f1)" height="37.6094" style="stroke: #A80036; stroke-width: 1.5;" width="56" x="1128" y="560"/><rect fill="#FEFECE" height="5" style="stroke: #A80036; stroke-width: 1.5;" width="10" x="1123" y="565"/><rect fill="#FEFECE" height="5" style="stroke: #A80036; stroke-width: 1.5;" width="10" x="1123" y="587.6094"/><text fill="#000000" font-family="sans-serif" font-size="14" lengthAdjust="spacingAndGlyphs" textLength="36" x="1138" y="584.5332">HTTP</text><rect fill="#FEFECE" filter="url(#f1)" height="37.6094" style="stroke: #A80036; stroke-width: 1.5;" width="85" x="1026.5" y="690"/><rect fill="#FEFECE" height="5" style="stroke: #A80036; stroke-width: 1.5;" width="10" x="1021.5" y="695"/><rect fill="#FEFECE" height="5" style="stroke: #A80036; stroke-width: 1.5;" width="10" x="1021.5" y="717.6094"/><text fill="#000000" font-family="sans-serif" font-size="14" lengthAdjust="spacingAndGlyphs" textLength="65" x="1036.5" y="714.5332">OPeNDAP</text><rect fill="#FFFFFF" filter="url(#f1)" height="37.6094" style="stroke: #A80036; stroke-width: 1.5;" width="120" x="1147" y="690"/><rect fill="#FFFFFF" height="5" style="stroke: #A80036; stroke-width: 1.5;" width="10" x="1142" y="695"/><rect fill="#FFFFFF" height="5" style="stroke: #A80036; stroke-width: 1.5;" width="10" x="1142" y="717.6094"/><text fill="#000000" font-family="sans-serif" font-size="14" lengthAdjust="spacingAndGlyphs" textLength="100" x="1157" y="714.5332">more services...</text><path d="M786.051,163.033 C795.329,190.687 813.066,243.551 823.266,273.949 " fill="none" style="stroke: #A80036; stroke-width: 1.0; stroke-dasharray: 7.0,7.0;"/><polygon fill="#A80036" points="824.957,278.99,825.8844,269.1849,823.3656,274.25,818.3005,271.7312,824.957,278.99" style="stroke: #A80036; stroke-width: 1.0;"/><path d="M1029.31,163.033 C987.356,191.373 906.216,246.188 861.837,276.168 " fill="none" style="stroke: #A80036; stroke-width: 1.0; stroke-dasharray: 7.0,7.0;"/><polygon fill="#A80036" points="857.659,278.99,867.3559,277.2667,861.8022,276.1912,862.8778,270.6375,857.659,278.99" style="stroke: #A80036; stroke-width: 1.0;"/><path d="M626.813,728.321 C625.624,746.662 623.791,774.943 622.502,794.832 " fill="none" style="stroke: #A80036; stroke-width: 1.0; stroke-dasharray: 7.0,7.0;"/><polygon fill="#A80036" points="622.17,799.95,626.7452,791.2283,622.4943,794.9605,618.7621,790.7095,622.17,799.95" style="stroke: #A80036; stroke-width: 1.0;"/><path d="M621,838.057 C621,853.513 621,875.865 621,892.6731 " fill="none" style="stroke: #A80036; stroke-width: 1.0; stroke-dasharray: 7.0,7.0;"/><polygon fill="#A80036" points="621,897.6977,625,888.6977,621,892.6977,617,888.6977,621,897.6977" style="stroke: #A80036; stroke-width: 1.0;"/><path d="M700.8111,145.1348 C700.557,145.141 700.2972,145.1474 700.0318,145.1541 C698.9704,145.181 697.8192,145.2125 696.5809,145.2495 C694.1043,145.3236 691.2788,145.4196 688.1242,145.5439 C675.506,146.0414 657.6218,146.9932 635.731,148.814 C591.9495,152.4555 532.1416,159.5731 466.382,173.4836 C334.8628,201.3048 179.5365,256.298 81,365 C78.0982,368.2011 75.6205,371.7708 73.5069,375.5727 C72.9785,376.5232 72.4728,377.4882 71.9889,378.4656 C71.747,378.9543 71.5105,379.4461 71.2794,379.9407 C71.1638,380.188 71.0496,380.436 70.9367,380.6847 " fill="none" style="stroke: #A80036; stroke-width: 1.0; stroke-dasharray: 7.0,7.0;"/><polygon fill="#A80036" points="70.9367,380.6847,78.2996,374.1435,73.0038,376.132,71.0153,370.8362,70.9367,380.6847" style="stroke: #A80036; stroke-width: 1.0;"/><path d="M700.8773,176.1588 C700.8228,176.4112 700.7682,176.6648 700.7137,176.9196 C700.2776,178.9579 699.8414,181.072 699.41,183.255 C698.5471,187.6212 697.7031,192.2635 696.9165,197.1289 C695.3433,206.8599 693.9997,217.4833 693.1934,228.5751 C689.968,272.9423 695.339,324.802 729,357 C741.943,369.381 877.007,352.672 890,365 C893.0614,367.9045 895.4986,371.2493 897.418,374.8853 C898.3777,376.7032 899.2079,378.5939 899.922,380.5388 C899.9666,380.6604 900.0108,398.4874 900.0545,398.6094 " fill="none" style="stroke: #A80036; stroke-width: 1.0; stroke-dasharray: 7.0,7.0;"/><polygon fill="#A80036" points="900.0545,380.9041,900.7829,371.0822,898.3673,376.1974,893.2521,373.7818,900.0545,380.9041" style="stroke: #A80036; stroke-width: 1.0;"/><path d="M736.6947,300.7131 C736.5208,300.7486 736.3444,300.7845 736.1654,300.821 C735.4495,300.967 734.6925,301.121 733.8952,301.2829 C727.517,302.5778 718.5632,304.3731 707.4846,306.5376 C685.3275,310.8665 654.6715,316.672 619.124,322.9035 C548.029,335.3665 457.368,349.5335 376,357 C359.674,358.498 93.7535,354.698 81,365 C77.639,367.7151 74.8133,370.9165 72.4427,374.4464 C71.2574,376.2114 70.1858,378.0585 69.218,379.9681 C69.097,380.2068 68.9776,380.4465 68.8599,380.6871 " fill="none" style="stroke: #A80036; stroke-width: 1.0; stroke-dasharray: 7.0,7.0;"/><polygon fill="#A80036" points="68.8599,380.6871,76.409,374.3617,71.0578,376.1962,69.2234,370.845,68.8599,380.6871" style="stroke: #A80036; stroke-width: 1.0;"/><path d="M752.1183,341.2319 C752.161,341.3258 752.2039,341.4195 752.2472,341.5131 C755.0126,347.5026 758.8055,352.9783 764,357 C786.185,374.176 869.78,345.55 890,365 C893.0413,367.9255 895.4633,371.2863 897.3714,374.9339 C898.3254,376.7578 899.151,378.6534 899.8613,380.6021 C899.9057,380.7239 899.9497,398.4872 899.9932,398.6094 " fill="none" style="stroke: #A80036; stroke-width: 1.0; stroke-dasharray: 7.0,7.0;"/><polygon fill="#A80036" points="899.9932,380.9682,900.7438,371.1479,898.3166,376.2576,893.2069,373.8304,899.9932,380.9682" style="stroke: #A80036; stroke-width: 1.0;"/><path d="M906.0665,455.316 C906.178,455.4587 906.2905,455.6025 906.404,455.7476 C906.6309,456.0378 906.8617,456.333 907.0963,456.633 C907.5655,457.233 908.0498,457.8524 908.5486,458.4903 C910.5437,461.0417 912.7697,463.8885 915.1805,466.9715 C924.8235,479.3033 937.422,495.4148 950.019,511.5244 C962.616,527.6339 975.2115,543.7416 984.8485,556.0659 C987.2578,559.1469 989.4821,561.9915 991.4753,564.5406 C991.9736,565.1779 992.4575,565.7966 992.9262,566.396 C993.1605,566.6957 993.3911,566.9906 993.6178,567.2805 C993.7311,567.4254 993.8435,567.5691 993.9549,567.7116 " fill="none" style="stroke: #A80036; stroke-width: 1.0; stroke-dasharray: 7.0,7.0;"/><polygon fill="#A80036" points="993.9549,567.7116,991.562,558.1578,990.8749,563.7728,985.26,563.0857,993.9549,567.7116" style="stroke: #A80036; stroke-width: 1.0;"/></g></svg>