<?xml version="1.0" encoding="UTF-8" standalone="yes"?><svg xmlns="http://www.w3.org/2000/svg" xmlns:xlink="http://www.w3.org/1999/xlink" height="777px" style="width:1461px;height:777px;" version="1.1" viewBox="0 0 1461 777" width="1461px"><defs><filter height="300%" id="f1" width="300%" x="-1" y="-1"><feGaussianBlur result="blurOut" stdDeviation="2.0"/><feColorMatrix in="blurOut" result="blurOut2" type="matrix" values="0 0 0 0 0 0 0 0 0 0 0 0 0 0 0 0 0 0 .4 0"/><feOffset dx="4.0" dy="4.0" in="blurOut2" result="blurOut3"/><feBlend in="SourceGraphic" in2="blurOut3" mode="normal"/></filter></defs><g><polygon fill="#FFFFFF" filter="url(#f1)" points="22,34,32,24,1062,24,1062,762,1052,772,22,772,22,34" style="stroke: #000000; stroke-width: 2.0;"/><line style="stroke: #000000; stroke-width: 2.0;" x1="1052" x2="1061" y1="34" y2="25"/><line style="stroke: #000000; stroke-width: 2.0;" x1="22" x2="1052" y1="34" y2="34"/><line style="stroke: #000000; stroke-width: 2.0;" x1="1052" x2="1052" y1="34" y2="772"/><text fill="#000000" font-family="sans-serif" font-size="14" font-weight="bold" lengthAdjust="spacingAndGlyphs" textLength="130" x="473" y="51.5332">CCI_Toolbox_Core</text><polygon fill="#FFFFFF" filter="url(#f1)" points="576,235,625,235,632,258.6094,870,258.6094,870,516,576,516,576,235" style="stroke: #000000; stroke-width: 2.0;"/><line style="stroke: #000000; stroke-width: 2.0;" x1="576" x2="632" y1="258.6094" y2="258.6094"/><text fill="#000000" font-family="sans-serif" font-size="14" font-weight="bold" lengthAdjust="spacingAndGlyphs" textLength="43" x="580" y="251.5332">ect.ds</text><polygon fill="#FFFFFF" filter="url(#f1)" points="54,235,112,235,119,258.6094,536,258.6094,536,646,54,646,54,235" style="stroke: #000000; stroke-width: 2.0;"/><line style="stroke: #000000; stroke-width: 2.0;" x1="54" x2="119" y1="258.6094" y2="258.6094"/><text fill="#000000" font-family="sans-serif" font-size="14" font-weight="bold" lengthAdjust="spacingAndGlyphs" textLength="52" x="58" y="251.5332">ect.ops</text><polygon fill="#FFFFFF" filter="url(#f1)" points="568,548,632,548,639,571.6094,950,571.6094,950,748,568,748,568,548" style="stroke: #000000; stroke-width: 2.0;"/><line style="stroke: #000000; stroke-width: 2.0;" x1="568" x2="639" y1="571.6094" y2="571.6094"/><text fill="#000000" font-family="sans-serif" font-size="14" font-weight="bold" lengthAdjust="spacingAndGlyphs" textLength="58" x="572" y="564.5332">ect.core</text><polygon fill="#FFFFFF" filter="url(#f1)" points="910,81,955,81,962,104.6094,1030,104.6094,1030,341,910,341,910,81" style="stroke: #000000; stroke-width: 2.0;"/><line style="stroke: #000000; stroke-width: 2.0;" x1="910" x2="962" y1="104.6094" y2="104.6094"/><text fill="#000000" font-family="sans-serif" font-size="14" font-weight="bold" lengthAdjust="spacingAndGlyphs" textLength="39" x="914" y="97.5332">ect.ui</text><polygon fill="#FFFFFF" filter="url(#f1)" points="1086,50,1096,40,1283,40,1283,193,1273,203,1086,203,1086,50" style="stroke: #000000; stroke-width: 2.0;"/><line style="stroke: #000000; stroke-width: 2.0;" x1="1273" x2="1282" y1="50" y2="41"/><line style="stroke: #000000; stroke-width: 2.0;" x1="1086" x2="1273" y1="50" y2="50"/><line style="stroke: #000000; stroke-width: 2.0;" x1="1273" x2="1273" y1="50" y2="203"/><text fill="#000000" font-family="sans-serif" font-size="14" font-weight="bold" lengthAdjust="spacingAndGlyphs" textLength="121" x="1120" y="67.5332">CCI_Toolbox_GUI</text><polygon fill="#FFFFFF" filter="url(#f1)" points="1110,89,1164,89,1171,112.6094,1212,112.6094,1212,179,1110,179,1110,89" style="stroke: #000000; stroke-width: 2.0;"/><line style="stroke: #000000; stroke-width: 2.0;" x1="1110" x2="1171" y1="112.6094" y2="112.6094"/><text fill="#000000" font-family="sans-serif" font-size="14" font-weight="bold" lengthAdjust="spacingAndGlyphs" textLength="48" x="1114" y="105.5332">ect.gui</text><path d="M1089,380 C1089,377 1091,375 1094,375 C1097,375 1099,377 1099,380 C1099,377 1101,375 1104,375 C1107,375 1109,377 1109,380 C1109,377 1111,375 1114,375 C1117,375 1119,377 1119,380 C1119,377 1121,375 1124,375 C1127,375 1129,377 1129,380 C1129,377 1131,375 1134,375 C1137,375 1139,377 1139,380 C1139,377 1141,375 1144,375 C1147,375 1149,377 1149,380 C1149,377 1151,375 1154,375 C1157,375 1159,377 1159,380 C1159,377 1161,375 1164,375 C1167,375 1169,377 1169,380 C1169,377 1171,375 1174,375 C1177,375 1179,377 1179,380 C1179,377 1181,375 1184,375 C1187,375 1189,377 1189,380 C1189,377 1191,375 1194,375 C1197,375 1199,377 1199,380 C1199,377 1201,375 1204,375 C1207,375 1209,377 1209,380 C1209,377 1211,375 1214,375 C1217,375 1219,377 1219,380 C1219,377 1221,375 1224,375 C1227,375 1229,377 1229,380 C1229,377 1231,375 1234,375 C1237,375 1239,377 1239,380 C1239,377 1241,375 1244,375 C1247,375 1249,377 1249,380 C1249,377 1251,375 1254,375 C1257,375 1259,377 1259,380 C1259,377 1261,375 1264,375 C1267,375 1269,377 1269,380 C1269,377 1271,375 1274,375 C1277,375 1279,377 1279,380 C1279,377 1281,375 1284,375 C1287,375 1289,377 1289,380 C1289,377 1291,375 1294,375 C1297,375 1299,377 1299,380 C1299,377 1301,375 1304,375 C1307,375 1309,377 1309,380 C1309,377 1311,375 1314,375 C1317,375 1319,377 1319,380 C1319,377 1321,375 1324,375 C1327,375 1329,377 1329,380 C1329,377 1331,375 1334,375 C1337,375 1339,377 1339,380 C1339,377 1341,375 1344,375 C1347,375 1349,377 1349,380 C1349,377 1351,375 1354,375 C1357,375 1359,377 1359,380 C1359,377 1361,375 1364,375 C1367,375 1369,377 1369,380 C1369,377 1371,375 1374,375 C1377,375 1379,377 1379,380 C1379,377 1381,375 1384,375 C1387,375 1389,377 1389,380 C1389,377 1391,375 1394,375 C1397,375 1399,377 1399,380 C1399,377 1401,375 1404,375 C1407,375 1409,377 1409,380 C1409,377 1411,375 1414,375 C1417,375 1419,377 1419,380 C1419,377 1421,375 1424,375 C1427,375 1429,377 1429,380 C1429,377 1431,375 1434,375 C1437,375 1439,377 1439,380 C1439,377 1441,375 1444,375 C1447,375 1449,377 1449,380 C1452,380 1454,382 1454,385 C1454,388 1452,390 1449,390 C1452,390 1454,392 1454,395 C1454,398 1452,400 1449,400 C1452,400 1454,402 1454,405 C1454,408 1452,410 1449,410 C1452,410 1454,412 1454,415 C1454,418 1452,420 1449,420 C1452,420 1454,422 1454,425 C1454,428 1452,430 1449,430 C1452,430 1454,432 1454,435 C1454,438 1452,440 1449,440 C1452,440 1454,442 1454,445 C1454,448 1452,450 1449,450 C1452,450 1454,452 1454,455 C1454,458 1452,460 1449,460 C1452,460 1454,462 1454,465 C1454,468 1452,470 1449,470 C1452,470 1454,472 1454,475 C1454,478 1452,480 1449,480 C1452,480 1454,482 1454,485 C1454,488 1452,490 1449,490 C1452,490 1454,492 1454,495 C1454,498 1452,500 1449,500 C1452,500 1454,502 1454,505 C1454,508 1452,510 1449,510 C1452,510 1454,512 1454,515 C1454,518 1452,520 1449,520 C1452,520 1454,522 1454,525 C1454,528 1452,530 1449,530 C1452,530 1454,532 1454,535 C1454,538 1452,540 1449,540 C1452,540 1454,542 1454,545 C1454,548 1452,550 1449,550 C1452,550 1454,552 1454,555 C1454,558 1452,560 1449,560 C1452,560 1454,562 1454,565 C1454,568 1452,570 1449,570 C1452,570 1454,572 1454,575 C1454,578 1452,580 1449,580 C1452,580 1454,582 1454,585 C1454,588 1452,590 1449,590 C1452,590 1454,592 1454,595 C1454,598 1452,600 1449,600 C1452,600 1454,602 1454,605 C1454,608 1452,610 1449,610 C1452,610 1454,612 1454,615 C1454,618 1452,620 1449,620 C1452,620 1454,622 1454,625 C1454,628 1452,630 1449,630 C1452,630 1454,632 1454,635 C1454,638 1452,640 1449,640 C1452,640 1454,642 1454,645 C1454,648 1452,650 1449,650 C1452,650 1454,652 1454,655 C1454,658 1452,660 1449,660 C1452,660 1454,662 1454,665 C1454,668 1452,670 1449,670 C1449,673 1446,675 1444,675 C1441,675 1439,673 1439,670 C1439,673 1436,675 1434,675 C1431,675 1429,673 1429,670 C1429,673 1426,675 1424,675 C1421,675 1419,673 1419,670 C1419,673 1416,675 1414,675 C1411,675 1409,673 1409,670 C1409,673 1406,675 1404,675 C1401,675 1399,673 1399,670 C1399,673 1396,675 1394,675 C1391,675 1389,673 1389,670 C1389,673 1386,675 1384,675 C1381,675 1379,673 1379,670 C1379,673 1376,675 1374,675 C1371,675 1369,673 1369,670 C1369,673 1366,675 1364,675 C1361,675 1359,673 1359,670 C1359,673 1356,675 1354,675 C1351,675 1349,673 1349,670 C1349,673 1346,675 1344,675 C1341,675 1339,673 1339,670 C1339,673 1336,675 1334,675 C1331,675 1329,673 1329,670 C1329,673 1326,675 1324,675 C1321,675 1319,673 1319,670 C1319,673 1316,675 1314,675 C1311,675 1309,673 1309,670 C1309,673 1306,675 1304,675 C1301,675 1299,673 1299,670 C1299,673 1296,675 1294,675 C1291,675 1289,673 1289,670 C1289,673 1286,675 1284,675 C1281,675 1279,673 1279,670 C1279,673 1276,675 1274,675 C1271,675 1269,673 1269,670 C1269,673 1266,675 1264,675 C1261,675 1259,673 1259,670 C1259,673 1256,675 1254,675 C1251,675 1249,673 1249,670 C1249,673 1246,675 1244,675 C1241,675 1239,673 1239,670 C1239,673 1236,675 1234,675 C1231,675 1229,673 1229,670 C1229,673 1226,675 1224,675 C1221,675 1219,673 1219,670 C1219,673 1216,675 1214,675 C1211,675 1209,673 1209,670 C1209,673 1206,675 1204,675 C1201,675 1199,673 1199,670 C1199,673 1196,675 1194,675 C1191,675 1189,673 1189,670 C1189,673 1186,675 1184,675 C1181,675 1179,673 1179,670 C1179,673 1176,675 1174,675 C1171,675 1169,673 1169,670 C1169,673 1166,675 1164,675 C1161,675 1159,673 1159,670 C1159,673 1156,675 1154,675 C1151,675 1149,673 1149,670 C1149,673 1146,675 1144,675 C1141,675 1139,673 1139,670 C1139,673 1136,675 1134,675 C1131,675 1129,673 1129,670 C1129,673 1126,675 1124,675 C1121,675 1119,673 1119,670 C1119,673 1116,675 1114,675 C1111,675 1109,673 1109,670 C1109,673 1106,675 1104,675 C1101,675 1099,673 1099,670 C1099,673 1096,675 1094,675 C1091,675 1089,673 1089,670 C1086,670 1084,668 1084,665 C1084,662 1086,660 1089,660 C1086,660 1084,658 1084,655 C1084,652 1086,650 1089,650 C1086,650 1084,648 1084,645 C1084,642 1086,640 1089,640 C1086,640 1084,638 1084,635 C1084,632 1086,630 1089,630 C1086,630 1084,628 1084,625 C1084,622 1086,620 1089,620 C1086,620 1084,618 1084,615 C1084,612 1086,610 1089,610 C1086,610 1084,608 1084,605 C1084,602 1086,600 1089,600 C1086,600 1084,598 1084,595 C1084,592 1086,590 1089,590 C1086,590 1084,588 1084,585 C1084,582 1086,580 1089,580 C1086,580 1084,578 1084,575 C1084,572 1086,570 1089,570 C1086,570 1084,568 1084,565 C1084,562 1086,560 1089,560 C1086,560 1084,558 1084,555 C1084,552 1086,550 1089,550 C1086,550 1084,548 1084,545 C1084,542 1086,540 1089,540 C1086,540 1084,538 1084,535 C1084,532 1086,530 1089,530 C1086,530 1084,528 1084,525 C1084,522 1086,520 1089,520 C1086,520 1084,518 1084,515 C1084,512 1086,510 1089,510 C1086,510 1084,508 1084,505 C1084,502 1086,500 1089,500 C1086,500 1084,498 1084,495 C1084,492 1086,490 1089,490 C1086,490 1084,488 1084,485 C1084,482 1086,480 1089,480 C1086,480 1084,478 1084,475 C1084,472 1086,470 1089,470 C1086,470 1084,468 1084,465 C1084,462 1086,460 1089,460 C1086,460 1084,458 1084,455 C1084,452 1086,450 1089,450 C1086,450 1084,448 1084,445 C1084,442 1086,440 1089,440 C1086,440 1084,438 1084,435 C1084,432 1086,430 1089,430 C1086,430 1084,428 1084,425 C1084,422 1086,420 1089,420 C1086,420 1084,418 1084,415 C1084,412 1086,410 1089,410 C1086,410 1084,408 1084,405 C1084,402 1086,400 1089,400 C1086,400 1084,398 1084,395 C1084,392 1086,390 1089,390 C1086,390 1084,388 1084,385 C1084,382 1086,380 1089,380 " fill="#FFFFFF" filter="url(#f1)" style="stroke: #000000; stroke-width: 2.0;"/><polygon fill="#EEEEEE" filter="url(#f1)" points="1118,415,1128,405,1415,405,1415,636,1405,646,1118,646,1118,415" style="stroke: #000000; stroke-width: 2.0;"/><line style="stroke: #000000; stroke-width: 2.0;" x1="1405" x2="1414" y1="415" y2="406"/><line style="stroke: #000000; stroke-width: 2.0;" x1="1118" x2="1405" y1="415" y2="415"/><line style="stroke: #000000; stroke-width: 2.0;" x1="1405" x2="1405" y1="415" y2="646"/><text fill="#000000" font-family="sans-serif" font-size="14" font-weight="bold" lengthAdjust="spacingAndGlyphs" textLength="158" x="1183.5" y="432.5332">CCI_Open_Data_Portal</text><rect fill="#FEFECE" filter="url(#f1)" height="37.6094" style="stroke: #A80036; stroke-width: 1.5;" width="100" x="600" y="279"/><rect fill="#FEFECE" height="5" style="stroke: #A80036; stroke-width: 1.5;" width="10" x="595" y="284"/><rect fill="#FEFECE" height="5" style="stroke: #A80036; stroke-width: 1.5;" width="10" x="595" y="306.6094"/><text fill="#000000" font-family="sans-serif" font-size="14" lengthAdjust="spacingAndGlyphs" textLength="80" x="610" y="303.5332">esa_cci_odp</text><rect fill="#FEFECE" filter="url(#f1)" height="37.6094" style="stroke: #A80036; stroke-width: 1.5;" width="92" x="735" y="279"/><rect fill="#FEFECE" height="5" style="stroke: #A80036; stroke-width: 1.5;" width="10" x="730" y="284"/><rect fill="#FEFECE" height="5" style="stroke: #A80036; stroke-width: 1.5;" width="10" x="730" y="306.6094"/><text fill="#000000" font-family="sans-serif" font-size="14" lengthAdjust="spacingAndGlyphs" textLength="72" x="745" y="303.5332">esa_cci_ftp</text><rect fill="#FFFFFF" filter="url(#f1)" height="37.6094" style="stroke: #A80036; stroke-width: 1.5;" width="189" x="607.5" y="454"/><rect fill="#FFFFFF" height="5" style="stroke: #A80036; stroke-width: 1.5;" width="10" x="602.5" y="459"/><rect fill="#FFFFFF" height="5" style="stroke: #A80036; stroke-width: 1.5;" width="10" x="602.5" y="481.6094"/><text fill="#000000" font-family="sans-serif" font-size="14" lengthAdjust="spacingAndGlyphs" textLength="169" x="617.5" y="478.5332">more data store modules...</text><rect fill="#FEFECE" filter="url(#f1)" height="37.6094" style="stroke: #A80036; stroke-width: 1.5;" width="106" x="97" y="279"/><rect fill="#FEFECE" height="5" style="stroke: #A80036; stroke-width: 1.5;" width="10" x="92" y="284"/><rect fill="#FEFECE" height="5" style="stroke: #A80036; stroke-width: 1.5;" width="10" x="92" y="306.6094"/><text fill="#000000" font-family="sans-serif" font-size="14" lengthAdjust="spacingAndGlyphs" textLength="86" x="107" y="303.5332">coregistration</text><rect fill="#FEFECE" filter="url(#f1)" height="37.6094" style="stroke: #A80036; stroke-width: 1.5;" width="87" x="238.5" y="279"/><rect fill="#FEFECE" height="5" style="stroke: #A80036; stroke-width: 1.5;" width="10" x="233.5" y="284"/><rect fill="#FEFECE" height="5" style="stroke: #A80036; stroke-width: 1.5;" width="10" x="233.5" y="306.6094"/><text fill="#000000" font-family="sans-serif" font-size="14" lengthAdjust="spacingAndGlyphs" textLength="67" x="248.5" y="303.5332">correlation</text><rect fill="#FEFECE" filter="url(#f1)" height="37.6094" style="stroke: #A80036; stroke-width: 1.5;" width="85" x="360.5" y="279"/><rect fill="#FEFECE" height="5" style="stroke: #A80036; stroke-width: 1.5;" width="10" x="355.5" y="284"/><rect fill="#FEFECE" height="5" style="stroke: #A80036; stroke-width: 1.5;" width="10" x="355.5" y="306.6094"/><text fill="#000000" font-family="sans-serif" font-size="14" lengthAdjust="spacingAndGlyphs" textLength="65" x="370.5" y="303.5332">harmonize</text><rect fill="#FEFECE" filter="url(#f1)" height="37.6094" style="stroke: #A80036; stroke-width: 1.5;" width="31" x="480.5" y="279"/><rect fill="#FEFECE" height="5" style="stroke: #A80036; stroke-width: 1.5;" width="10" x="475.5" y="284"/><rect fill="#FEFECE" height="5" style="stroke: #A80036; stroke-width: 1.5;" width="10" x="475.5" y="306.6094"/><text fill="#000000" font-family="sans-serif" font-size="14" lengthAdjust="spacingAndGlyphs" textLength="11" x="490.5" y="303.5332">io</text><rect fill="#FEFECE" filter="url(#f1)" height="37.6094" style="stroke: #A80036; stroke-width: 1.5;" width="43" x="128.5" y="454"/><rect fill="#FEFECE" height="5" style="stroke: #A80036; stroke-width: 1.5;" width="10" x="123.5" y="459"/><rect fill="#FEFECE" height="5" style="stroke: #A80036; stroke-width: 1.5;" width="10" x="123.5" y="481.6094"/><text fill="#000000" font-family="sans-serif" font-size="14" lengthAdjust="spacingAndGlyphs" textLength="23" x="138.5" y="478.5332">plot</text><rect fill="#FEFECE" filter="url(#f1)" height="37.6094" style="stroke: #A80036; stroke-width: 1.5;" width="89" x="206.5" y="454"/><rect fill="#FEFECE" height="5" style="stroke: #A80036; stroke-width: 1.5;" width="10" x="201.5" y="459"/><rect fill="#FEFECE" height="5" style="stroke: #A80036; stroke-width: 1.5;" width="10" x="201.5" y="481.6094"/><text fill="#000000" font-family="sans-serif" font-size="14" lengthAdjust="spacingAndGlyphs" textLength="69" x="216.5" y="478.5332">resampling</text><rect fill="#FEFECE" filter="url(#f1)" height="37.6094" style="stroke: #A80036; stroke-width: 1.5;" width="57" x="330.5" y="454"/><rect fill="#FEFECE" height="5" style="stroke: #A80036; stroke-width: 1.5;" width="10" x="325.5" y="459"/><rect fill="#FEFECE" height="5" style="stroke: #A80036; stroke-width: 1.5;" width="10" x="325.5" y="481.6094"/><text fill="#000000" font-family="sans-serif" font-size="14" lengthAdjust="spacingAndGlyphs" textLength="37" x="340.5" y="478.5332">select</text><rect fill="#FEFECE" filter="url(#f1)" height="37.6094" style="stroke: #A80036; stroke-width: 1.5;" width="62" x="423" y="454"/><rect fill="#FEFECE" height="5" style="stroke: #A80036; stroke-width: 1.5;" width="10" x="418" y="459"/><rect fill="#FEFECE" height="5" style="stroke: #A80036; stroke-width: 1.5;" width="10" x="418" y="481.6094"/><text fill="#000000" font-family="sans-serif" font-size="14" lengthAdjust="spacingAndGlyphs" textLength="42" x="433" y="478.5332">subset</text><rect fill="#FEFECE" filter="url(#f1)" height="37.6094" style="stroke: #A80036; stroke-width: 1.5;" width="84" x="108" y="584"/><rect fill="#FEFECE" height="5" style="stroke: #A80036; stroke-width: 1.5;" width="10" x="103" y="589"/><rect fill="#FEFECE" height="5" style="stroke: #A80036; stroke-width: 1.5;" width="10" x="103" y="611.6094"/><text fill="#000000" font-family="sans-serif" font-size="14" lengthAdjust="spacingAndGlyphs" textLength="64" x="118" y="608.5332">timeseries</text><rect fill="#FFFFFF" filter="url(#f1)" height="37.6094" style="stroke: #A80036; stroke-width: 1.5;" width="185" x="227.5" y="584"/><rect fill="#FFFFFF" height="5" style="stroke: #A80036; stroke-width: 1.5;" width="10" x="222.5" y="589"/><rect fill="#FFFFFF" height="5" style="stroke: #A80036; stroke-width: 1.5;" width="10" x="222.5" y="611.6094"/><text fill="#000000" font-family="sans-serif" font-size="14" lengthAdjust="spacingAndGlyphs" textLength="165" x="237.5" y="608.5332">more operation modules...</text><rect fill="#FEFECE" filter="url(#f1)" height="37.6094" style="stroke: #A80036; stroke-width: 1.5;" width="35" x="692.5" y="584"/><rect fill="#FEFECE" height="5" style="stroke: #A80036; stroke-width: 1.5;" width="10" x="687.5" y="589"/><rect fill="#FEFECE" height="5" style="stroke: #A80036; stroke-width: 1.5;" width="10" x="687.5" y="611.6094"/><text fill="#000000" font-family="sans-serif" font-size="14" lengthAdjust="spacingAndGlyphs" textLength="15" x="702.5" y="608.5332">ds</text><rect fill="#FEFECE" filter="url(#f1)" height="37.6094" style="stroke: #A80036; stroke-width: 1.5;" width="67" x="762.5" y="584"/><rect fill="#FEFECE" height="5" style="stroke: #A80036; stroke-width: 1.5;" width="10" x="757.5" y="589"/><rect fill="#FEFECE" height="5" style="stroke: #A80036; stroke-width: 1.5;" width="10" x="757.5" y="611.6094"/><text fill="#000000" font-family="sans-serif" font-size="14" lengthAdjust="spacingAndGlyphs" textLength="47" x="772.5" y="608.5332">monitor</text><rect fill="#FEFECE" filter="url(#f1)" height="37.6094" style="stroke: #A80036; stroke-width: 1.5;" width="69" x="864.5" y="584"/><rect fill="#FEFECE" height="5" style="stroke: #A80036; stroke-width: 1.5;" width="10" x="859.5" y="589"/><rect fill="#FEFECE" height="5" style="stroke: #A80036; stroke-width: 1.5;" width="10" x="859.5" y="611.6094"/><text fill="#000000" font-family="sans-serif" font-size="14" lengthAdjust="spacingAndGlyphs" textLength="49" x="874.5" y="608.5332">objectio</text><rect fill="#FEFECE" filter="url(#f1)" height="37.6094" style="stroke: #A80036; stroke-width: 1.5;" width="36" x="603" y="694"/><rect fill="#FEFECE" height="5" style="stroke: #A80036; stroke-width: 1.5;" width="10" x="598" y="699"/><rect fill="#FEFECE" height="5" style="stroke: #A80036; stroke-width: 1.5;" width="10" x="598" y="721.6094"/><text fill="#000000" font-family="sans-serif" font-size="14" lengthAdjust="spacingAndGlyphs" textLength="16" x="613" y="718.5332">op</text><rect fill="#FEFECE" filter="url(#f1)" height="37.6094" style="stroke: #A80036; stroke-width: 1.5;" width="58" x="681" y="694"/><rect fill="#FEFECE" height="5" style="stroke: #A80036; stroke-width: 1.5;" width="10" x="676" y="699"/><rect fill="#FEFECE" height="5" style="stroke: #A80036; stroke-width: 1.5;" width="10" x="676" y="721.6094"/><text fill="#000000" font-family="sans-serif" font-size="14" lengthAdjust="spacingAndGlyphs" textLength="38" x="691" y="718.5332">plugin</text><rect fill="#FEFECE" filter="url(#f1)" height="37.6094" style="stroke: #A80036; stroke-width: 1.5;" width="38" x="774" y="694"/><rect fill="#FEFECE" height="5" style="stroke: #A80036; stroke-width: 1.5;" width="10" x="769" y="699"/><rect fill="#FEFECE" height="5" style="stroke: #A80036; stroke-width: 1.5;" width="10" x="769" y="721.6094"/><text fill="#000000" font-family="sans-serif" font-size="14" lengthAdjust="spacingAndGlyphs" textLength="18" x="784" y="718.5332">util</text><rect fill="#FEFECE" filter="url(#f1)" height="37.6094" style="stroke: #A80036; stroke-width: 1.5;" width="73" x="584.5" y="584"/><rect fill="#FEFECE" height="5" style="stroke: #A80036; stroke-width: 1.5;" width="10" x="579.5" y="589"/><rect fill="#FEFECE" height="5" style="stroke: #A80036; stroke-width: 1.5;" width="10" x="579.5" y="611.6094"/><text fill="#000000" font-family="sans-serif" font-size="14" lengthAdjust="spacingAndGlyphs" textLength="53" x="594.5" y="608.5332">workflow</text><rect fill="#FEFECE" filter="url(#f1)" height="37.6094" style="stroke: #A80036; stroke-width: 1.5;" width="33" x="957.5" y="125"/><rect fill="#FEFECE" height="5" style="stroke: #A80036; stroke-width: 1.5;" width="10" x="952.5" y="130"/><rect fill="#FEFECE" height="5" style="stroke: #A80036; stroke-width: 1.5;" width="10" x="952.5" y="152.6094"/><text fill="#000000" font-family="sans-serif" font-size="14" lengthAdjust="spacingAndGlyphs" textLength="13" x="967.5" y="149.5332">cli</text><rect fill="#FEFECE" filter="url(#f1)" height="37.6094" style="stroke: #A80036; stroke-width: 1.5;" width="64" x="942" y="279"/><rect fill="#FEFECE" height="5" style="stroke: #A80036; stroke-width: 1.5;" width="10" x="937" y="284"/><rect fill="#FEFECE" height="5" style="stroke: #A80036; stroke-width: 1.5;" width="10" x="937" y="306.6094"/><text fill="#000000" font-family="sans-serif" font-size="14" lengthAdjust="spacingAndGlyphs" textLength="44" x="952" y="303.5332">webapi</text><rect fill="#FEFECE" filter="url(#f1)" height="37.6094" style="stroke: #A80036; stroke-width: 1.5;" width="69" x="1126.5" y="125"/><rect fill="#FEFECE" height="5" style="stroke: #A80036; stroke-width: 1.5;" width="10" x="1121.5" y="130"/><rect fill="#FEFECE" height="5" style="stroke: #A80036; stroke-width: 1.5;" width="10" x="1121.5" y="152.6094"/><text fill="#000000" font-family="sans-serif" font-size="14" lengthAdjust="spacingAndGlyphs" textLength="49" x="1136.5" y="149.5332">webapp</text><rect fill="#FEFECE" filter="url(#f1)" height="37.6094" style="stroke: #A80036; stroke-width: 1.5;" width="47" x="1169.5" y="454"/><rect fill="#FEFECE" height="5" style="stroke: #A80036; stroke-width: 1.5;" width="10" x="1164.5" y="459"/><rect fill="#FEFECE" height="5" style="stroke: #A80036; stroke-width: 1.5;" width="10" x="1164.5" y="481.6094"/><text fill="#000000" font-family="sans-serif" font-size="14" lengthAdjust="spacingAndGlyphs" textLength="27" x="1179.5" y="478.5332">FTP</text><rect fill="#FEFECE" filter="url(#f1)" height="37.6094" style="stroke: #A80036; stroke-width: 1.5;" width="56" x="1252" y="454"/><rect fill="#FEFECE" height="5" style="stroke: #A80036; stroke-width: 1.5;" width="10" x="1247" y="459"/><rect fill="#FEFECE" height="5" style="stroke: #A80036; stroke-width: 1.5;" width="10" x="1247" y="481.6094"/><text fill="#000000" font-family="sans-serif" font-size="14" lengthAdjust="spacingAndGlyphs" textLength="36" x="1262" y="478.5332">HTTP</text><rect fill="#FEFECE" filter="url(#f1)" height="37.6094" style="stroke: #A80036; stroke-width: 1.5;" width="85" x="1150.5" y="584"/><rect fill="#FEFECE" height="5" style="stroke: #A80036; stroke-width: 1.5;" width="10" x="1145.5" y="589"/><rect fill="#FEFECE" height="5" style="stroke: #A80036; stroke-width: 1.5;" width="10" x="1145.5" y="611.6094"/><text fill="#000000" font-family="sans-serif" font-size="14" lengthAdjust="spacingAndGlyphs" textLength="65" x="1160.5" y="608.5332">OPeNDAP</text><rect fill="#FFFFFF" filter="url(#f1)" height="37.6094" style="stroke: #A80036; stroke-width: 1.5;" width="120" x="1271" y="584"/><rect fill="#FFFFFF" height="5" style="stroke: #A80036; stroke-width: 1.5;" width="10" x="1266" y="589"/><rect fill="#FFFFFF" height="5" style="stroke: #A80036; stroke-width: 1.5;" width="10" x="1266" y="611.6094"/><text fill="#000000" font-family="sans-serif" font-size="14" lengthAdjust="spacingAndGlyphs" textLength="100" x="1281" y="608.5332">more services...</text><path d="M974,163.033 C974,190.687 974,243.551 974,273.949 " fill="none" style="stroke: #A80036; stroke-width: 1.0; stroke-dasharray: 7.0,7.0;"/><polygon fill="#A80036" points="974,278.99,978,269.99,974,273.99,970,269.99,974,278.99" style="stroke: #A80036; stroke-width: 1.0;"/><path d="M1138.81,163.033 C1104.09,191.259 1037.06,245.746 1000.076,275.804 " fill="none" style="stroke: #A80036; stroke-width: 1.0; stroke-dasharray: 7.0,7.0;"/><polygon fill="#A80036" points="996.157,278.99,1005.6637,276.4165,1000.0367,275.836,1000.6172,270.209,996.157,278.99" style="stroke: #A80036; stroke-width: 1.0;"/><path d="M621,622.321 C621,640.662 621,668.943 621,688.832 " fill="none" style="stroke: #A80036; stroke-width: 1.0; stroke-dasharray: 7.0,7.0;"/><polygon fill="#A80036" points="621,693.9498,625,684.9498,621,688.9498,617,684.9498,621,693.9498" style="stroke: #A80036; stroke-width: 1.0;"/><path d="M909.4927,145.1598 C908.7991,145.1735 908.0648,145.1881 907.2907,145.2036 C901.0974,145.3279 892.3503,145.5119 881.3977,145.7641 C859.4926,146.2684 828.7658,147.045 792.0058,148.1597 C718.4857,150.3893 620.8323,153.9717 521.3521,159.4346 C322.3918,170.3605 116.124,188.8085 81,219 C77.7234,221.8164 74.9618,225.0944 72.6384,228.681 C71.4767,230.4743 70.4246,232.3448 69.4725,234.2732 C69.3535,234.5143 69.236,234.7562 69.1201,234.9991 " fill="none" style="stroke: #A80036; stroke-width: 1.0; stroke-dasharray: 7.0,7.0;"/><polygon fill="#A80036" points="69.1201,234.9991,76.6069,228.6,71.274,230.4868,69.3872,225.1538,69.1201,234.9991" style="stroke: #A80036; stroke-width: 1.0;"/><path d="M909.9356,166.8883 C909.8585,167.0975 909.781,167.3079 909.7031,167.5194 C909.3914,168.3655 909.0731,169.2294 908.7486,170.1103 C903.5563,184.2038 896.7726,202.6169 889.9896,221.0278 C883.2067,239.4386 876.4245,257.8473 871.2354,271.9321 C870.911,272.8124 870.5929,273.6758 870.2814,274.5213 C870.2036,274.7326 870.1261,274.9429 870.0491,275.152 " fill="none" style="stroke: #A80036; stroke-width: 1.0; stroke-dasharray: 7.0,7.0;"/><polygon fill="#A80036" points="870.0491,275.152,876.9138,268.0897,871.7776,270.4603,869.4071,265.3241,870.0491,275.152" style="stroke: #A80036; stroke-width: 1.0;"/><path d="M870.1433,307.4483 C870.652,307.9648 871.1812,308.5004 871.73,309.0536 C872.8274,310.1601 874.003,311.3373 875.249,312.5746 C877.7409,315.0491 880.5143,317.7638 883.5074,320.6331 C895.4795,332.1103 910.965,346.06 926,357 C966.805,386.6935 1015.8925,415.016 1055.2238,436.1239 C1074.8894,446.6778 1092.1159,455.4281 1104.6486,461.6443 C1107.7818,463.1983 1110.6216,464.594 1113.1327,465.8198 C1114.3883,466.4328 1115.5618,467.0033 1116.6487,467.5299 C1116.9204,467.6615 1117.1867,467.7904 1117.4476,467.9166 C1117.578,467.9796 1117.707,468.042 1117.8347,468.1037 " fill="none" style="stroke: #A80036; stroke-width: 1.0; stroke-dasharray: 7.0,7.0;"/><polygon fill="#A80036" points="1117.8347,468.1037,1111.4713,460.5866,1113.3327,465.9284,1107.9908,467.7898,1117.8347,468.1037" style="stroke: #A80036; stroke-width: 1.0;"/></g></svg>