<?xml version="1.0" encoding="UTF-8" standalone="yes"?><svg xmlns="http://www.w3.org/2000/svg" xmlns:xlink="http://www.w3.org/1999/xlink" height="555px" style="width:1085px;height:555px;" version="1.1" viewBox="0 0 1085 555" width="1085px"><defs><filter height="300%" id="f1" width="300%" x="-1" y="-1"><feGaussianBlur result="blurOut" stdDeviation="2.0"/><feColorMatrix in="blurOut" result="blurOut2" type="matrix" values="0 0 0 0 0 0 0 0 0 0 0 0 0 0 0 0 0 0 .4 0"/><feOffset dx="4.0" dy="4.0" in="blurOut2" result="blurOut3"/><feBlend in="SourceGraphic" in2="blurOut3" mode="normal"/></filter></defs><g><polygon fill="#FFFFFF" filter="url(#f1)" points="22,153,32,143,692,143,692,540,682,550,22,550,22,153" style="stroke: #000000; stroke-width: 2.0;"/><line style="stroke: #000000; stroke-width: 2.0;" x1="682" x2="691" y1="153" y2="144"/><line style="stroke: #000000; stroke-width: 2.0;" x1="22" x2="682" y1="153" y2="153"/><line style="stroke: #000000; stroke-width: 2.0;" x1="682" x2="682" y1="153" y2="550"/><text fill="#000000" font-family="sans-serif" font-size="14" font-weight="bold" lengthAdjust="spacingAndGlyphs" textLength="130" x="288" y="170.5332">CCI_Toolbox_Core</text><polygon fill="#FFFFFF" filter="url(#f1)" points="348,192,397,192,404,215.6094,668,215.6094,668,282,348,282,348,192" style="stroke: #000000; stroke-width: 2.0;"/><line style="stroke: #000000; stroke-width: 2.0;" x1="348" x2="404" y1="215.6094" y2="215.6094"/><text fill="#000000" font-family="sans-serif" font-size="14" font-weight="bold" lengthAdjust="spacingAndGlyphs" textLength="43" x="352" y="208.5332">ect.ds</text><polygon fill="#FFFFFF" filter="url(#f1)" points="107,314,165,314,172,337.6094,464,337.6094,464,518,107,518,107,314" style="stroke: #000000; stroke-width: 2.0;"/><line style="stroke: #000000; stroke-width: 2.0;" x1="107" x2="172" y1="337.6094" y2="337.6094"/><text fill="#000000" font-family="sans-serif" font-size="14" font-weight="bold" lengthAdjust="spacingAndGlyphs" textLength="52" x="111" y="330.5332">ect.ops</text><polygon fill="#FFFFFF" filter="url(#f1)" points="496,322,560,322,567,345.6094,668,345.6094,668,510,496,510,496,322" style="stroke: #000000; stroke-width: 2.0;"/><line style="stroke: #000000; stroke-width: 2.0;" x1="496" x2="567" y1="345.6094" y2="345.6094"/><text fill="#000000" font-family="sans-serif" font-size="14" font-weight="bold" lengthAdjust="spacingAndGlyphs" textLength="58" x="500" y="338.5332">ect.core</text><polygon fill="#FFFFFF" filter="url(#f1)" points="46,192,91,192,98,215.6094,324,215.6094,324,282,46,282,46,192" style="stroke: #000000; stroke-width: 2.0;"/><line style="stroke: #000000; stroke-width: 2.0;" x1="46" x2="98" y1="215.6094" y2="215.6094"/><text fill="#000000" font-family="sans-serif" font-size="14" font-weight="bold" lengthAdjust="spacingAndGlyphs" textLength="39" x="50" y="208.5332">ect.ui</text><polygon fill="#FFFFFF" filter="url(#f1)" points="27,34,37,24,224,24,224,109,214,119,27,119,27,34" style="stroke: #000000; stroke-width: 2.0;"/><line style="stroke: #000000; stroke-width: 2.0;" x1="214" x2="223" y1="34" y2="25"/><line style="stroke: #000000; stroke-width: 2.0;" x1="27" x2="214" y1="34" y2="34"/><line style="stroke: #000000; stroke-width: 2.0;" x1="214" x2="214" y1="34" y2="119"/><text fill="#000000" font-family="sans-serif" font-size="14" font-weight="bold" lengthAdjust="spacingAndGlyphs" textLength="121" x="61" y="51.5332">CCI_Toolbox_GUI</text><polygon fill="#FFFFFF" filter="url(#f1)" points="716,327,726,317,1080,317,1080,402,1070,412,716,412,716,327" style="stroke: #000000; stroke-width: 2.0;"/><line style="stroke: #000000; stroke-width: 2.0;" x1="1070" x2="1079" y1="327" y2="318"/><line style="stroke: #000000; stroke-width: 2.0;" x1="716" x2="1070" y1="327" y2="327"/><line style="stroke: #000000; stroke-width: 2.0;" x1="1070" x2="1070" y1="327" y2="412"/><text fill="#000000" font-family="sans-serif" font-size="14" font-weight="bold" lengthAdjust="spacingAndGlyphs" textLength="73" x="857.5" y="344.5332">CCI_Portal</text><ellipse cx="492" cy="238" fill="#FEFECE" filter="url(#f1)" rx="8" ry="8" style="stroke: #A80036; stroke-width: 2.0;"/><text fill="#000000" font-family="sans-serif" font-size="14" lengthAdjust="spacingAndGlyphs" textLength="19" x="482.5" y="261.5332">DS</text><rect fill="#FEFECE" filter="url(#f1)" height="37.6094" style="stroke: #A80036; stroke-width: 1.5;" width="115" x="536.5" y="228"/><rect fill="#FEFECE" height="5" style="stroke: #A80036; stroke-width: 1.5;" width="10" x="531.5" y="233"/><rect fill="#FEFECE" height="5" style="stroke: #A80036; stroke-width: 1.5;" width="10" x="531.5" y="255.6094"/><text fill="#000000" font-family="sans-serif" font-size="14" lengthAdjust="spacingAndGlyphs" textLength="95" x="546.5" y="252.5332">esa_cci_ftp_ds</text><rect fill="#FFFFFF" filter="url(#f1)" height="37.6094" style="stroke: #A80036; stroke-width: 1.5;" width="83" x="364.5" y="228"/><rect fill="#FFFFFF" height="5" style="stroke: #A80036; stroke-width: 1.5;" width="10" x="359.5" y="233"/><rect fill="#FFFFFF" height="5" style="stroke: #A80036; stroke-width: 1.5;" width="10" x="359.5" y="255.6094"/><text fill="#000000" font-family="sans-serif" font-size="14" lengthAdjust="spacingAndGlyphs" textLength="63" x="374.5" y="252.5332">more ds...</text><rect fill="#FEFECE" filter="url(#f1)" height="37.6094" style="stroke: #A80036; stroke-width: 1.5;" width="84" x="131" y="358"/><rect fill="#FEFECE" height="5" style="stroke: #A80036; stroke-width: 1.5;" width="10" x="126" y="363"/><rect fill="#FEFECE" height="5" style="stroke: #A80036; stroke-width: 1.5;" width="10" x="126" y="385.6094"/><text fill="#000000" font-family="sans-serif" font-size="14" lengthAdjust="spacingAndGlyphs" textLength="64" x="141" y="382.5332">timeseries</text><rect fill="#FEFECE" filter="url(#f1)" height="37.6094" style="stroke: #A80036; stroke-width: 1.5;" width="57" x="250.5" y="358"/><rect fill="#FEFECE" height="5" style="stroke: #A80036; stroke-width: 1.5;" width="10" x="245.5" y="363"/><rect fill="#FEFECE" height="5" style="stroke: #A80036; stroke-width: 1.5;" width="10" x="245.5" y="385.6094"/><text fill="#000000" font-family="sans-serif" font-size="14" lengthAdjust="spacingAndGlyphs" textLength="37" x="260.5" y="382.5332">gapfill</text><rect fill="#FEFECE" filter="url(#f1)" height="37.6094" style="stroke: #A80036; stroke-width: 1.5;" width="78" x="343" y="358"/><rect fill="#FEFECE" height="5" style="stroke: #A80036; stroke-width: 1.5;" width="10" x="338" y="363"/><rect fill="#FEFECE" height="5" style="stroke: #A80036; stroke-width: 1.5;" width="10" x="338" y="385.6094"/><text fill="#000000" font-family="sans-serif" font-size="14" lengthAdjust="spacingAndGlyphs" textLength="58" x="353" y="382.5332">resample</text><rect fill="#FEFECE" filter="url(#f1)" height="37.6094" style="stroke: #A80036; stroke-width: 1.5;" width="74" x="136" y="456"/><rect fill="#FEFECE" height="5" style="stroke: #A80036; stroke-width: 1.5;" width="10" x="131" y="461"/><rect fill="#FEFECE" height="5" style="stroke: #A80036; stroke-width: 1.5;" width="10" x="131" y="483.6094"/><text fill="#000000" font-family="sans-serif" font-size="14" lengthAdjust="spacingAndGlyphs" textLength="54" x="146" y="480.5332">mapping</text><rect fill="#FEFECE" filter="url(#f1)" height="37.6094" style="stroke: #A80036; stroke-width: 1.5;" width="43" x="245.5" y="456"/><rect fill="#FEFECE" height="5" style="stroke: #A80036; stroke-width: 1.5;" width="10" x="240.5" y="461"/><rect fill="#FEFECE" height="5" style="stroke: #A80036; stroke-width: 1.5;" width="10" x="240.5" y="483.6094"/><text fill="#000000" font-family="sans-serif" font-size="14" lengthAdjust="spacingAndGlyphs" textLength="23" x="255.5" y="480.5332">plot</text><rect fill="#FFFFFF" filter="url(#f1)" height="37.6094" style="stroke: #A80036; stroke-width: 1.5;" width="91" x="323.5" y="456"/><rect fill="#FFFFFF" height="5" style="stroke: #A80036; stroke-width: 1.5;" width="10" x="318.5" y="461"/><rect fill="#FFFFFF" height="5" style="stroke: #A80036; stroke-width: 1.5;" width="10" x="318.5" y="483.6094"/><text fill="#000000" font-family="sans-serif" font-size="14" lengthAdjust="spacingAndGlyphs" textLength="71" x="333.5" y="480.5332">more ops...</text><rect fill="#FEFECE" filter="url(#f1)" height="37.6094" style="stroke: #A80036; stroke-width: 1.5;" width="46" x="512" y="456"/><rect fill="#FEFECE" height="5" style="stroke: #A80036; stroke-width: 1.5;" width="10" x="507" y="461"/><rect fill="#FEFECE" height="5" style="stroke: #A80036; stroke-width: 1.5;" width="10" x="507" y="483.6094"/><text fill="#000000" font-family="sans-serif" font-size="14" lengthAdjust="spacingAndGlyphs" textLength="26" x="522" y="480.5332">cdm</text><rect fill="#FEFECE" filter="url(#f1)" height="37.6094" style="stroke: #A80036; stroke-width: 1.5;" width="31" x="512.5" y="358"/><rect fill="#FEFECE" height="5" style="stroke: #A80036; stroke-width: 1.5;" width="10" x="507.5" y="363"/><rect fill="#FEFECE" height="5" style="stroke: #A80036; stroke-width: 1.5;" width="10" x="507.5" y="385.6094"/><text fill="#000000" font-family="sans-serif" font-size="14" lengthAdjust="spacingAndGlyphs" textLength="11" x="522.5" y="382.5332">io</text><rect fill="#FEFECE" filter="url(#f1)" height="37.6094" style="stroke: #A80036; stroke-width: 1.5;" width="36" x="597" y="456"/><rect fill="#FEFECE" height="5" style="stroke: #A80036; stroke-width: 1.5;" width="10" x="592" y="461"/><rect fill="#FEFECE" height="5" style="stroke: #A80036; stroke-width: 1.5;" width="10" x="592" y="483.6094"/><text fill="#000000" font-family="sans-serif" font-size="14" lengthAdjust="spacingAndGlyphs" textLength="16" x="607" y="480.5332">op</text><rect fill="#FEFECE" filter="url(#f1)" height="37.6094" style="stroke: #A80036; stroke-width: 1.5;" width="73" x="578.5" y="358"/><rect fill="#FEFECE" height="5" style="stroke: #A80036; stroke-width: 1.5;" width="10" x="573.5" y="363"/><rect fill="#FEFECE" height="5" style="stroke: #A80036; stroke-width: 1.5;" width="10" x="573.5" y="385.6094"/><text fill="#000000" font-family="sans-serif" font-size="14" lengthAdjust="spacingAndGlyphs" textLength="53" x="588.5" y="382.5332">workflow</text><ellipse cx="229" cy="238" fill="#FEFECE" filter="url(#f1)" rx="8" ry="8" style="stroke: #A80036; stroke-width: 2.0;"/><text fill="#000000" font-family="sans-serif" font-size="14" lengthAdjust="spacingAndGlyphs" textLength="21" x="218.5" y="261.5332">CLI</text><rect fill="#FEFECE" filter="url(#f1)" height="37.6094" style="stroke: #A80036; stroke-width: 1.5;" width="33" x="274.5" y="228"/><rect fill="#FEFECE" height="5" style="stroke: #A80036; stroke-width: 1.5;" width="10" x="269.5" y="233"/><rect fill="#FEFECE" height="5" style="stroke: #A80036; stroke-width: 1.5;" width="10" x="269.5" y="255.6094"/><text fill="#000000" font-family="sans-serif" font-size="14" lengthAdjust="spacingAndGlyphs" textLength="13" x="284.5" y="252.5332">cli</text><ellipse cx="87" cy="238" fill="#FEFECE" filter="url(#f1)" rx="8" ry="8" style="stroke: #A80036; stroke-width: 2.0;"/><text fill="#000000" font-family="sans-serif" font-size="14" lengthAdjust="spacingAndGlyphs" textLength="50" x="62" y="261.5332">WebAPI</text><rect fill="#FEFECE" filter="url(#f1)" height="37.6094" style="stroke: #A80036; stroke-width: 1.5;" width="36" x="147" y="228"/><rect fill="#FEFECE" height="5" style="stroke: #A80036; stroke-width: 1.5;" width="10" x="142" y="233"/><rect fill="#FEFECE" height="5" style="stroke: #A80036; stroke-width: 1.5;" width="10" x="142" y="255.6094"/><text fill="#000000" font-family="sans-serif" font-size="14" lengthAdjust="spacingAndGlyphs" textLength="16" x="157" y="252.5332">ws</text><rect fill="#FEFECE" filter="url(#f1)" height="37.6094" style="stroke: #A80036; stroke-width: 1.5;" width="77" x="48.5" y="65"/><rect fill="#FEFECE" height="5" style="stroke: #A80036; stroke-width: 1.5;" width="10" x="43.5" y="70"/><rect fill="#FEFECE" height="5" style="stroke: #A80036; stroke-width: 1.5;" width="10" x="43.5" y="92.6094"/><text fill="#000000" font-family="sans-serif" font-size="14" lengthAdjust="spacingAndGlyphs" textLength="57" x="58.5" y="89.5332">web_app</text><ellipse cx="901" cy="368" fill="#FEFECE" filter="url(#f1)" rx="8" ry="8" style="stroke: #A80036; stroke-width: 2.0;"/><text fill="#000000" font-family="sans-serif" font-size="14" lengthAdjust="spacingAndGlyphs" textLength="27" x="887.5" y="391.5332">FTP</text><rect fill="#FEFECE" filter="url(#f1)" height="37.6094" style="stroke: #A80036; stroke-width: 1.5;" width="114" x="950" y="358"/><rect fill="#FEFECE" height="5" style="stroke: #A80036; stroke-width: 1.5;" width="10" x="945" y="363"/><rect fill="#FEFECE" height="5" style="stroke: #A80036; stroke-width: 1.5;" width="10" x="945" y="385.6094"/><text fill="#000000" font-family="sans-serif" font-size="14" lengthAdjust="spacingAndGlyphs" textLength="94" x="960" y="382.5332">cci_ftp_service</text><rect fill="#FFFFFF" filter="url(#f1)" height="37.6094" style="stroke: #A80036; stroke-width: 1.5;" width="120" x="732" y="358"/><rect fill="#FFFFFF" height="5" style="stroke: #A80036; stroke-width: 1.5;" width="10" x="727" y="363"/><rect fill="#FFFFFF" height="5" style="stroke: #A80036; stroke-width: 1.5;" width="10" x="727" y="385.6094"/><text fill="#000000" font-family="sans-serif" font-size="14" lengthAdjust="spacingAndGlyphs" textLength="100" x="742" y="382.5332">more services...</text><path d="M501.563,247 C513.117,247 524.672,247 536.227,247 " fill="none" style="stroke: #A80036; stroke-width: 1.0;"/><path d="M239.656,247 C251.155,247 262.654,247 274.153,247 " fill="none" style="stroke: #A80036; stroke-width: 1.0;"/><path d="M112.289,247 C123.82,247 135.35,247 146.881,247 " fill="none" style="stroke: #A80036; stroke-width: 1.0;"/><path d="M914.664,377 C926.326,377 937.989,377 949.651,377 " fill="none" style="stroke: #A80036; stroke-width: 1.0;"/><path d="M529.317,396.057 C530.444,411.513 532.073,433.865 533.299,450.673 " fill="none" style="stroke: #A80036; stroke-width: 1.0; stroke-dasharray: 7.0,7.0;"/><polygon fill="#A80036" points="533.665,455.698,537.0014,446.4315,533.3022,450.7112,529.0224,447.012,533.665,455.698" style="stroke: #A80036; stroke-width: 1.0;"/><path d="M615,396.057 C615,411.513 615,433.865 615,450.673 " fill="none" style="stroke: #A80036; stroke-width: 1.0; stroke-dasharray: 7.0,7.0;"/><polygon fill="#A80036" points="615,455.698,619,446.698,615,450.698,611,446.698,615,455.698" style="stroke: #A80036; stroke-width: 1.0;"/><path d="M651.638,251.921 C722.487,257.828 837.355,271.284 870,298 C886.76,311.717 894.508,335.797 898.06,353.584 " fill="none" style="stroke: #A80036; stroke-width: 1.0; stroke-dasharray: 7.0,7.0;"/><polygon fill="#A80036" points="899.032,358.884,901.3414,349.3097,898.1293,353.9662,893.4728,350.7541,899.032,358.884" style="stroke: #A80036; stroke-width: 1.0;"/><path d="M580.945,266.026 C574.513,275.324 566.894,286.998 561,298 C551.373,315.971 542.493,337.357 536.376,353.187 " fill="none" style="stroke: #A80036; stroke-width: 1.0; stroke-dasharray: 7.0,7.0;"/><polygon fill="#A80036" points="534.568,357.911,541.5205,350.9351,536.355,353.2413,534.0489,348.0758,534.568,357.911" style="stroke: #A80036; stroke-width: 1.0;"/><path d="M464.0185,387.7444 C464.0845,387.8245 464.1507,387.905 464.2173,387.986 C464.3505,388.1478 464.485,388.3113 464.6208,388.4763 C465.1641,389.1364 465.728,389.8216 466.3111,390.5302 C467.4772,391.9473 468.7202,393.4578 470.0282,395.0472 C472.6441,398.226 475.5199,401.7207 478.561,405.4161 C490.7253,420.198 505.5335,438.193 516.929,452.041 " fill="none" style="stroke: #A80036; stroke-width: 1.0; stroke-dasharray: 7.0,7.0;"/><polygon fill="#A80036" points="520.187,455.999,517.5558,446.5081,517.0095,452.1385,511.3791,451.5922,520.187,455.999" style="stroke: #A80036; stroke-width: 1.0;"/><path d="M87,103.156 C87,132.697 87,191.1 87,223.324 " fill="none" style="stroke: #A80036; stroke-width: 1.0;"/><polygon fill="#A80036" points="87,228.644,91,219.644,87,223.644,83,219.644,87,228.644" style="stroke: #A80036; stroke-width: 1.0;"/></g></svg>