<?xml version="1.0" encoding="UTF-8" standalone="yes"?><!--
  ~ The MIT License (MIT)
  ~ Copyright (c) 2016, 2017 by the ESA CCI Toolbox development team and contributors
  ~
  ~ Permission is hereby granted, free of charge, to any person obtaining a copy of
  ~ this software and associated documentation files (the "Software"), to deal in
  ~ the Software without restriction, including without limitation the rights to
  ~ use, copy, modify, merge, publish, distribute, sublicense, and/or sell copies
  ~ of the Software, and to permit persons to whom the Software is furnished to do
  ~ so, subject to the following conditions:
  ~
  ~ The above copyright notice and this permission notice shall be included in all
  ~ copies or substantial portions of the Software.
  ~
  ~ THE SOFTWARE IS PROVIDED "AS IS", WITHOUT WARRANTY OF ANY KIND, EXPRESS OR
  ~ IMPLIED, INCLUDING BUT NOT LIMITED TO THE WARRANTIES OF MERCHANTABILITY,
  ~ FITNESS FOR A PARTICULAR PURPOSE AND NONINFRINGEMENT. IN NO EVENT SHALL THE
  ~ AUTHORS OR COPYRIGHT HOLDERS BE LIABLE FOR ANY CLAIM, DAMAGES OR OTHER
  ~ LIABILITY, WHETHER IN AN ACTION OF CONTRACT, TORT OR OTHERWISE, ARISING FROM,
  ~ OUT OF OR IN CONNECTION WITH THE SOFTWARE OR THE USE OR OTHER DEALINGS IN THE
  ~ SOFTWARE.
  ~
  -->

<svg xmlns="http://www.w3.org/2000/svg" xmlns:xlink="http://www.w3.org/1999/xlink" height="288px" style="width:279px;height:288px;" version="1.1" viewBox="0 0 279 288" width="279px"><defs><filter height="300%" id="f1" width="300%" x="-1" y="-1"><feGaussianBlur result="blurOut" stdDeviation="2.0"/><feColorMatrix in="blurOut" result="blurOut2" type="matrix" values="0 0 0 0 0 0 0 0 0 0 0 0 0 0 0 0 0 0 .4 0"/><feOffset dx="4.0" dy="4.0" in="blurOut2" result="blurOut3"/><feBlend in="SourceGraphic" in2="blurOut3" mode="normal"/></filter></defs><g><rect fill="#FEFECE" filter="url(#f1)" height="144.8516" style="stroke: #A80036; stroke-width: 1.5;" width="222" x="41.5" y="8"/><ellipse cx="128.25" cy="24" fill="#A9DCDF" rx="11" ry="11" style="stroke: #A80036; stroke-width: 1.0;"/><path d="M130.4375,25.7656 L126.2969,25.7656 L125.875,26.7969 L126.2969,26.7969 Q126.9063,26.7969 127.1719,27.0313 Q127.4375,27.2656 127.4375,27.6563 Q127.4375,28.0313 127.1719,28.2656 Q126.9063,28.5 126.2969,28.5 L124,28.5 Q123.3906,28.5 123.1328,28.2656 Q122.875,28.0313 122.875,27.6406 Q122.875,27.2656 123.1484,27.0234 Q123.4219,26.7813 124.0469,26.7969 L126.7188,20.1406 L125.6094,20.1406 Q125,20.1406 124.7344,19.9063 Q124.4688,19.6719 124.4688,19.2813 Q124.4688,18.9063 124.7344,18.6719 Q125,18.4375 125.6094,18.4375 L129.2813,18.4375 L132.6719,26.7969 Q133.2656,26.7969 133.4531,26.9375 Q133.8438,27.2031 133.8438,27.6563 Q133.8438,28.0313 133.5859,28.2656 Q133.3281,28.5 132.7188,28.5 L130.4219,28.5 Q129.8125,28.5 129.5469,28.2656 Q129.2813,28.0313 129.2813,27.6406 Q129.2813,27.2656 129.5469,27.0313 Q129.8125,26.7969 130.4219,26.7969 L130.8438,26.7969 L130.4375,25.7656 Z M129.7188,24.0625 L128.3594,20.6875 L126.9844,24.0625 L129.7188,24.0625 Z "/><text fill="#000000" font-family="sans-serif" font-size="12" font-style="italic" lengthAdjust="spacingAndGlyphs" textLength="40" x="148.75" y="28.9102">Monitor</text><line style="stroke: #A80036; stroke-width: 1.5;" x1="42.5" x2="262.5" y1="40" y2="40"/><text fill="#000000" font-family="sans-serif" font-size="11" lengthAdjust="spacingAndGlyphs" text-decoration="underline" textLength="67" x="47.5" y="55.4189">NULL: Monitor</text><line style="stroke: #000000; stroke-width: 1.0;" x1="47.5" x2="114.5" y1="57.4189" y2="57.4189"/><line style="stroke: #A80036; stroke-width: 1.5;" x1="42.5" x2="262.5" y1="61.8359" y2="61.8359"/><text fill="#000000" font-family="sans-serif" font-size="11" font-style="italic" lengthAdjust="spacingAndGlyphs" textLength="181" x="47.5" y="77.2549">start(self, label: str, total_work: float)</text><text fill="#000000" font-family="sans-serif" font-size="11" font-style="italic" lengthAdjust="spacingAndGlyphs" textLength="210" x="47.5" y="91.0908">progress(self, work: float = None, msg: str)</text><text fill="#000000" font-family="sans-serif" font-size="11" font-style="italic" lengthAdjust="spacingAndGlyphs" textLength="50" x="47.5" y="104.9268">done(self)</text><text fill="#000000" font-family="sans-serif" font-size="11" lengthAdjust="spacingAndGlyphs" textLength="147" x="47.5" y="118.7627">child(self, work: float): Monitor</text><text fill="#000000" font-family="sans-serif" font-size="11" lengthAdjust="spacingAndGlyphs" textLength="40" x="47.5" y="132.5986">cancel()</text><text fill="#000000" font-family="sans-serif" font-size="11" lengthAdjust="spacingAndGlyphs" textLength="94" x="47.5" y="146.4346">is_cancelled(): bool</text><rect fill="#FEFECE" filter="url(#f1)" height="48" style="stroke: #A80036; stroke-width: 1.5;" width="119" x="6" y="231"/><ellipse cx="21" cy="247" fill="#ADD1B2" rx="11" ry="11" style="stroke: #A80036; stroke-width: 1.0;"/><path d="M23.7656,242.875 Q23.9219,242.6563 24.1094,242.5469 Q24.2969,242.4375 24.5156,242.4375 Q24.8906,242.4375 25.125,242.6953 Q25.3594,242.9531 25.3594,243.5625 L25.3594,245.0156 Q25.3594,245.625 25.125,245.8906 Q24.8906,246.1563 24.5156,246.1563 Q24.1719,246.1563 23.9688,245.9531 Q23.7656,245.7656 23.6563,245.25 Q23.6094,244.8906 23.4219,244.7031 Q23.0938,244.3281 22.4844,244.1094 Q21.875,243.8906 21.25,243.8906 Q20.4844,243.8906 19.8516,244.2188 Q19.2188,244.5469 18.7266,245.2969 Q18.2344,246.0469 18.2344,247.0781 L18.2344,248.1719 Q18.2344,249.4063 19.125,250.2266 Q20.0156,251.0469 21.6094,251.0469 Q22.5469,251.0469 23.2031,250.7969 Q23.5938,250.6406 24.0156,250.2031 Q24.2813,249.9375 24.4297,249.8594 Q24.5781,249.7813 24.7813,249.7813 Q25.1094,249.7813 25.3672,250.0391 Q25.625,250.2969 25.625,250.6406 Q25.625,250.9844 25.2813,251.3906 Q24.7813,251.9688 23.9844,252.2969 Q22.9063,252.75 21.6094,252.75 Q20.0938,252.75 18.8906,252.125 Q17.9063,251.625 17.2188,250.5547 Q16.5313,249.4844 16.5313,248.2031 L16.5313,247.0469 Q16.5313,245.7188 17.1484,244.5703 Q17.7656,243.4219 18.8594,242.8047 Q19.9531,242.1875 21.1875,242.1875 Q21.9219,242.1875 22.5703,242.3516 Q23.2188,242.5156 23.7656,242.875 Z "/><text fill="#000000" font-family="sans-serif" font-size="12" lengthAdjust="spacingAndGlyphs" textLength="87" x="35" y="251.9102">ConsoleMonitor</text><line style="stroke: #A80036; stroke-width: 1.5;" x1="7" x2="124" y1="263" y2="263"/><line style="stroke: #A80036; stroke-width: 1.5;" x1="7" x2="124" y1="271" y2="271"/><rect fill="#FEFECE" filter="url(#f1)" height="48" style="stroke: #A80036; stroke-width: 1.5;" width="101" x="160" y="231"/><ellipse cx="175" cy="247" fill="#ADD1B2" rx="11" ry="11" style="stroke: #A80036; stroke-width: 1.0;"/><path d="M177.7656,242.875 Q177.9219,242.6563 178.1094,242.5469 Q178.2969,242.4375 178.5156,242.4375 Q178.8906,242.4375 179.125,242.6953 Q179.3594,242.9531 179.3594,243.5625 L179.3594,245.0156 Q179.3594,245.625 179.125,245.8906 Q178.8906,246.1563 178.5156,246.1563 Q178.1719,246.1563 177.9688,245.9531 Q177.7656,245.7656 177.6563,245.25 Q177.6094,244.8906 177.4219,244.7031 Q177.0938,244.3281 176.4844,244.1094 Q175.875,243.8906 175.25,243.8906 Q174.4844,243.8906 173.8516,244.2188 Q173.2188,244.5469 172.7266,245.2969 Q172.2344,246.0469 172.2344,247.0781 L172.2344,248.1719 Q172.2344,249.4063 173.125,250.2266 Q174.0156,251.0469 175.6094,251.0469 Q176.5469,251.0469 177.2031,250.7969 Q177.5938,250.6406 178.0156,250.2031 Q178.2813,249.9375 178.4297,249.8594 Q178.5781,249.7813 178.7813,249.7813 Q179.1094,249.7813 179.3672,250.0391 Q179.625,250.2969 179.625,250.6406 Q179.625,250.9844 179.2813,251.3906 Q178.7813,251.9688 177.9844,252.2969 Q176.9063,252.75 175.6094,252.75 Q174.0938,252.75 172.8906,252.125 Q171.9063,251.625 171.2188,250.5547 Q170.5313,249.4844 170.5313,248.2031 L170.5313,247.0469 Q170.5313,245.7188 171.1484,244.5703 Q171.7656,243.4219 172.8594,242.8047 Q173.9531,242.1875 175.1875,242.1875 Q175.9219,242.1875 176.5703,242.3516 Q177.2188,242.5156 177.7656,242.875 Z "/><text fill="#000000" font-family="sans-serif" font-size="12" lengthAdjust="spacingAndGlyphs" textLength="69" x="189" y="251.9102">ChildMonitor</text><line style="stroke: #A80036; stroke-width: 1.5;" x1="161" x2="260" y1="263" y2="263"/><line style="stroke: #A80036; stroke-width: 1.5;" x1="161" x2="260" y1="271" y2="271"/><path d="M107.248,171.225 C96.1159,193.296 85.1376,215.0634 77.2346,230.7331 " fill="none" style="stroke: #A80036; stroke-width: 1.0; stroke-dasharray: 7.0,7.0;"/><polygon fill="none" points="101.1035,167.862,116.36,153.157,113.604,174.167,101.1035,167.862" style="stroke: #A80036; stroke-width: 1.0;"/><path d="M165.235,172.867 C167.784,182.5305 170.839,192.0774 174.5,201 C178.807,211.4966 185.397,222.0426 191.767,230.9322 " fill="none" style="stroke: #A80036; stroke-width: 1.0; stroke-dasharray: 7.0,7.0;"/><polygon fill="none" points="158.334,174.088,160.683,153.029,171.979,170.957,158.334,174.088" style="stroke: #A80036; stroke-width: 1.0;"/><path d="M198.451,218.1632 C193.284,202.7983 187.012,184.1444 180.784,165.622 " fill="none" style="stroke: #A80036; stroke-width: 1.0;"/><polygon fill="#A80036" points="176.593,153.157,175.6699,162.9625,178.1865,157.8963,183.2527,160.4129,176.593,153.157" style="stroke: #A80036; stroke-width: 1.0;"/><line style="stroke: #A80036; stroke-width: 1.0;" x1="178.1865" x2="180.7365" y1="157.8963" y2="165.479"/><polygon fill="#FFFFFF" points="202.677,230.7331,204.5563,223.7712,198.8527,219.3588,196.9734,226.3207,202.677,230.7331" style="stroke: #A80036; stroke-width: 1.0;"/><text fill="#000000" font-family="sans-serif" font-size="13" lengthAdjust="spacingAndGlyphs" textLength="86" x="192.5" y="197.4951">parent_monitor</text><text fill="#000000" font-family="sans-serif" font-size="13" lengthAdjust="spacingAndGlyphs" textLength="7" x="171.5558" y="174.3636">1</text></g></svg>