<?xml version="1.0" encoding="UTF-8" standalone="yes"?><svg xmlns="http://www.w3.org/2000/svg" xmlns:xlink="http://www.w3.org/1999/xlink" height="260px" style="width:277px;height:260px;" version="1.1" viewBox="0 0 277 260" width="277px"><defs><filter height="300%" id="f1" width="300%" x="-1" y="-1"><feGaussianBlur result="blurOut" stdDeviation="2.0"/><feColorMatrix in="blurOut" result="blurOut2" type="matrix" values="0 0 0 0 0 0 0 0 0 0 0 0 0 0 0 0 0 0 .4 0"/><feOffset dx="4.0" dy="4.0" in="blurOut2" result="blurOut3"/><feBlend in="SourceGraphic" in2="blurOut3" mode="normal"/></filter></defs><g><rect fill="#FEFECE" filter="url(#f1)" height="117.1797" style="stroke: #A80036; stroke-width: 1.5;" width="222" x="41.5" y="8"/><ellipse cx="128.25" cy="24" fill="#B4A7E5" rx="11" ry="11" style="stroke: #A80036; stroke-width: 1.0;"/><path d="M129.2031,20.6406 L129.2031,27.2969 L130.9219,27.2969 Q131.5313,27.2969 131.7969,27.5313 Q132.0625,27.7656 132.0625,28.1563 Q132.0625,28.5313 131.7969,28.7656 Q131.5313,29 130.9219,29 L125.7813,29 Q125.1719,29 124.9063,28.7656 Q124.6406,28.5313 124.6406,28.1406 Q124.6406,27.7656 124.9063,27.5313 Q125.1719,27.2969 125.7813,27.2969 L127.5,27.2969 L127.5,20.6406 L125.7813,20.6406 Q125.1719,20.6406 124.9063,20.4063 Q124.6406,20.1719 124.6406,19.7813 Q124.6406,19.4063 124.9063,19.1719 Q125.1719,18.9375 125.7813,18.9375 L130.9219,18.9375 Q131.5313,18.9375 131.7969,19.1719 Q132.0625,19.4063 132.0625,19.7813 Q132.0625,20.1719 131.7969,20.4063 Q131.5313,20.6406 130.9219,20.6406 L129.2031,20.6406 Z "/><text fill="#000000" font-family="sans-serif" font-size="12" font-style="italic" lengthAdjust="spacingAndGlyphs" textLength="40" x="148.75" y="28.9102">Monitor</text><line style="stroke: #A80036; stroke-width: 1.5;" x1="42.5" x2="262.5" y1="40" y2="40"/><text fill="#000000" font-family="sans-serif" font-size="11" lengthAdjust="spacingAndGlyphs" text-decoration="underline" textLength="67" x="47.5" y="55.4189">NULL: Monitor</text><line style="stroke: #000000; stroke-width: 1.0;" x1="47.5" x2="114.5" y1="57.4189" y2="57.4189"/><line style="stroke: #A80036; stroke-width: 1.5;" x1="42.5" x2="262.5" y1="61.8359" y2="61.8359"/><text fill="#000000" font-family="sans-serif" font-size="11" font-style="italic" lengthAdjust="spacingAndGlyphs" textLength="181" x="47.5" y="77.2549">start(self, label: str, total_work: float)</text><text fill="#000000" font-family="sans-serif" font-size="11" font-style="italic" lengthAdjust="spacingAndGlyphs" textLength="210" x="47.5" y="91.0908">progress(self, work: float = None, msg: str)</text><text fill="#000000" font-family="sans-serif" font-size="11" font-style="italic" lengthAdjust="spacingAndGlyphs" textLength="50" x="47.5" y="104.9268">done(self)</text><text fill="#000000" font-family="sans-serif" font-size="11" font-style="italic" lengthAdjust="spacingAndGlyphs" textLength="149" x="47.5" y="118.7627">child(self, work: float): Monitor</text><rect fill="#FEFECE" filter="url(#f1)" height="48" style="stroke: #A80036; stroke-width: 1.5;" width="119" x="6" y="203"/><ellipse cx="21" cy="219" fill="#ADD1B2" rx="11" ry="11" style="stroke: #A80036; stroke-width: 1.0;"/><path d="M23.7656,214.875 Q23.9219,214.6563 24.1094,214.5469 Q24.2969,214.4375 24.5156,214.4375 Q24.8906,214.4375 25.125,214.6953 Q25.3594,214.9531 25.3594,215.5625 L25.3594,217.0156 Q25.3594,217.625 25.125,217.8906 Q24.8906,218.1563 24.5156,218.1563 Q24.1719,218.1563 23.9688,217.9531 Q23.7656,217.7656 23.6563,217.25 Q23.6094,216.8906 23.4219,216.7031 Q23.0938,216.3281 22.4844,216.1094 Q21.875,215.8906 21.25,215.8906 Q20.4844,215.8906 19.8516,216.2188 Q19.2188,216.5469 18.7266,217.2969 Q18.2344,218.0469 18.2344,219.0781 L18.2344,220.1719 Q18.2344,221.4063 19.125,222.2266 Q20.0156,223.0469 21.6094,223.0469 Q22.5469,223.0469 23.2031,222.7969 Q23.5938,222.6406 24.0156,222.2031 Q24.2813,221.9375 24.4297,221.8594 Q24.5781,221.7813 24.7813,221.7813 Q25.1094,221.7813 25.3672,222.0391 Q25.625,222.2969 25.625,222.6406 Q25.625,222.9844 25.2813,223.3906 Q24.7813,223.9688 23.9844,224.2969 Q22.9063,224.75 21.6094,224.75 Q20.0938,224.75 18.8906,224.125 Q17.9063,223.625 17.2188,222.5547 Q16.5313,221.4844 16.5313,220.2031 L16.5313,219.0469 Q16.5313,217.7188 17.1484,216.5703 Q17.7656,215.4219 18.8594,214.8047 Q19.9531,214.1875 21.1875,214.1875 Q21.9219,214.1875 22.5703,214.3516 Q23.2188,214.5156 23.7656,214.875 Z "/><text fill="#000000" font-family="sans-serif" font-size="12" lengthAdjust="spacingAndGlyphs" textLength="87" x="35" y="223.9102">ConsoleMonitor</text><line style="stroke: #A80036; stroke-width: 1.5;" x1="7" x2="124" y1="235" y2="235"/><line style="stroke: #A80036; stroke-width: 1.5;" x1="7" x2="124" y1="243" y2="243"/><rect fill="#FEFECE" filter="url(#f1)" height="48" style="stroke: #A80036; stroke-width: 1.5;" width="101" x="160" y="203"/><ellipse cx="175" cy="219" fill="#ADD1B2" rx="11" ry="11" style="stroke: #A80036; stroke-width: 1.0;"/><path d="M177.7656,214.875 Q177.9219,214.6563 178.1094,214.5469 Q178.2969,214.4375 178.5156,214.4375 Q178.8906,214.4375 179.125,214.6953 Q179.3594,214.9531 179.3594,215.5625 L179.3594,217.0156 Q179.3594,217.625 179.125,217.8906 Q178.8906,218.1563 178.5156,218.1563 Q178.1719,218.1563 177.9688,217.9531 Q177.7656,217.7656 177.6563,217.25 Q177.6094,216.8906 177.4219,216.7031 Q177.0938,216.3281 176.4844,216.1094 Q175.875,215.8906 175.25,215.8906 Q174.4844,215.8906 173.8516,216.2188 Q173.2188,216.5469 172.7266,217.2969 Q172.2344,218.0469 172.2344,219.0781 L172.2344,220.1719 Q172.2344,221.4063 173.125,222.2266 Q174.0156,223.0469 175.6094,223.0469 Q176.5469,223.0469 177.2031,222.7969 Q177.5938,222.6406 178.0156,222.2031 Q178.2813,221.9375 178.4297,221.8594 Q178.5781,221.7813 178.7813,221.7813 Q179.1094,221.7813 179.3672,222.0391 Q179.625,222.2969 179.625,222.6406 Q179.625,222.9844 179.2813,223.3906 Q178.7813,223.9688 177.9844,224.2969 Q176.9063,224.75 175.6094,224.75 Q174.0938,224.75 172.8906,224.125 Q171.9063,223.625 171.2188,222.5547 Q170.5313,221.4844 170.5313,220.2031 L170.5313,219.0469 Q170.5313,217.7188 171.1484,216.5703 Q171.7656,215.4219 172.8594,214.8047 Q173.9531,214.1875 175.1875,214.1875 Q175.9219,214.1875 176.5703,214.3516 Q177.2188,214.5156 177.7656,214.875 Z "/><text fill="#000000" font-family="sans-serif" font-size="12" lengthAdjust="spacingAndGlyphs" textLength="69" x="189" y="223.9102">ChildMonitor</text><line style="stroke: #A80036; stroke-width: 1.5;" x1="161" x2="260" y1="235" y2="235"/><line style="stroke: #A80036; stroke-width: 1.5;" x1="161" x2="260" y1="243" y2="243"/><path d="M111.127,142.875 C99.1387,164.7157 86.9344,186.9499 78.168,202.9209 " fill="none" style="stroke: #A80036; stroke-width: 1.0; stroke-dasharray: 7.0,7.0;"/><polygon fill="none" points="105.085,139.335,120.845,125.171,117.358,146.071,105.085,139.335" style="stroke: #A80036; stroke-width: 1.0;"/><path d="M164.961,144.839 C167.58,154.4998 170.726,164.1023 174.5,173 C178.93,183.4452 185.545,193.9807 191.9,202.8765 " fill="none" style="stroke: #A80036; stroke-width: 1.0; stroke-dasharray: 7.0,7.0;"/><polygon fill="none" points="158.092,146.21,160.295,125.135,171.715,142.984,158.092,146.21" style="stroke: #A80036; stroke-width: 1.0;"/><path d="M197.563,190.6454 C191.835,174.9928 184.886,156.0029 178.177,137.67 " fill="none" style="stroke: #A80036; stroke-width: 1.0;"/><polygon fill="#A80036" points="173.603,125.171,172.9392,134.9975,175.3211,129.8665,180.452,132.2485,173.603,125.171" style="stroke: #A80036; stroke-width: 1.0;"/><line style="stroke: #A80036; stroke-width: 1.0;" x1="175.3211" x2="178.071" y1="129.8665" y2="137.3785"/><polygon fill="#FFFFFF" points="202.055,202.9209,203.7495,195.9117,197.9312,191.6517,196.2367,198.6609,202.055,202.9209" style="stroke: #A80036; stroke-width: 1.0;"/><text fill="#000000" font-family="sans-serif" font-size="13" lengthAdjust="spacingAndGlyphs" textLength="86" x="190.5" y="169.4951">parent_monitor</text><text fill="#000000" font-family="sans-serif" font-size="13" lengthAdjust="spacingAndGlyphs" textLength="7" x="168.7484" y="146.8021">1</text></g></svg>