<?xml version="1.0" encoding="UTF-8" standalone="yes"?><svg xmlns="http://www.w3.org/2000/svg" xmlns:xlink="http://www.w3.org/1999/xlink" height="341px" style="width:332px;height:341px;" version="1.1" viewBox="0 0 332 341" width="332px"><defs><filter height="300%" id="f1" width="300%" x="-1" y="-1"><feGaussianBlur result="blurOut" stdDeviation="2.0"/><feColorMatrix in="blurOut" result="blurOut2" type="matrix" values="0 0 0 0 0 0 0 0 0 0 0 0 0 0 0 0 0 0 .4 0"/><feOffset dx="4.0" dy="4.0" in="blurOut2" result="blurOut3"/><feBlend in="SourceGraphic" in2="blurOut3" mode="normal"/></filter></defs><g><rect fill="#FEFECE" filter="url(#f1)" height="75.6719" style="stroke: #A80036; stroke-width: 1.5;" width="89" x="82.5" y="257"/><ellipse cx="97.5" cy="273" fill="#A9DCDF" rx="11" ry="11" style="stroke: #A80036; stroke-width: 1.0;"/><path d="M99.6875,274.7656 L95.5469,274.7656 L95.125,275.7969 L95.5469,275.7969 Q96.1563,275.7969 96.4219,276.0313 Q96.6875,276.2656 96.6875,276.6563 Q96.6875,277.0313 96.4219,277.2656 Q96.1563,277.5 95.5469,277.5 L93.25,277.5 Q92.6406,277.5 92.3828,277.2656 Q92.125,277.0313 92.125,276.6406 Q92.125,276.2656 92.3984,276.0234 Q92.6719,275.7813 93.2969,275.7969 L95.9688,269.1406 L94.8594,269.1406 Q94.25,269.1406 93.9844,268.9063 Q93.7188,268.6719 93.7188,268.2813 Q93.7188,267.9063 93.9844,267.6719 Q94.25,267.4375 94.8594,267.4375 L98.5313,267.4375 L101.9219,275.7969 Q102.5156,275.7969 102.7031,275.9375 Q103.0938,276.2031 103.0938,276.6563 Q103.0938,277.0313 102.8359,277.2656 Q102.5781,277.5 101.9688,277.5 L99.6719,277.5 Q99.0625,277.5 98.7969,277.2656 Q98.5313,277.0313 98.5313,276.6406 Q98.5313,276.2656 98.7969,276.0313 Q99.0625,275.7969 99.6719,275.7969 L100.0938,275.7969 L99.6875,274.7656 Z M98.9688,273.0625 L97.6094,269.6875 L96.2344,273.0625 L98.9688,273.0625 Z "/><text fill="#000000" font-family="sans-serif" font-size="12" font-style="italic" lengthAdjust="spacingAndGlyphs" textLength="57" x="111.5" y="277.9102">Connector</text><line style="stroke: #A80036; stroke-width: 1.5;" x1="83.5" x2="170.5" y1="289" y2="289"/><text fill="#000000" font-family="sans-serif" font-size="11" lengthAdjust="spacingAndGlyphs" textLength="45" x="88.5" y="304.4189">name: str</text><text fill="#000000" font-family="sans-serif" font-size="11" lengthAdjust="spacingAndGlyphs" textLength="61" x="88.5" y="318.2549">value: object</text><line style="stroke: #A80036; stroke-width: 1.5;" x1="83.5" x2="170.5" y1="324.6719" y2="324.6719"/><rect fill="#FEFECE" filter="url(#f1)" height="61.8359" style="stroke: #A80036; stroke-width: 1.5;" width="134" x="6" y="134"/><ellipse cx="29.1" cy="150" fill="#ADD1B2" rx="11" ry="11" style="stroke: #A80036; stroke-width: 1.0;"/><path d="M31.8656,145.875 Q32.0219,145.6563 32.2094,145.5469 Q32.3969,145.4375 32.6156,145.4375 Q32.9906,145.4375 33.225,145.6953 Q33.4594,145.9531 33.4594,146.5625 L33.4594,148.0156 Q33.4594,148.625 33.225,148.8906 Q32.9906,149.1563 32.6156,149.1563 Q32.2719,149.1563 32.0688,148.9531 Q31.8656,148.7656 31.7563,148.25 Q31.7094,147.8906 31.5219,147.7031 Q31.1938,147.3281 30.5844,147.1094 Q29.975,146.8906 29.35,146.8906 Q28.5844,146.8906 27.9516,147.2188 Q27.3188,147.5469 26.8266,148.2969 Q26.3344,149.0469 26.3344,150.0781 L26.3344,151.1719 Q26.3344,152.4063 27.225,153.2266 Q28.1156,154.0469 29.7094,154.0469 Q30.6469,154.0469 31.3031,153.7969 Q31.6938,153.6406 32.1156,153.2031 Q32.3813,152.9375 32.5297,152.8594 Q32.6781,152.7813 32.8813,152.7813 Q33.2094,152.7813 33.4672,153.0391 Q33.725,153.2969 33.725,153.6406 Q33.725,153.9844 33.3813,154.3906 Q32.8813,154.9688 32.0844,155.2969 Q31.0063,155.75 29.7094,155.75 Q28.1938,155.75 26.9906,155.125 Q26.0063,154.625 25.3188,153.5547 Q24.6313,152.4844 24.6313,151.2031 L24.6313,150.0469 Q24.6313,148.7188 25.2484,147.5703 Q25.8656,146.4219 26.9594,145.8047 Q28.0531,145.1875 29.2875,145.1875 Q30.0219,145.1875 30.6703,145.3516 Q31.3188,145.5156 31.8656,145.875 Z "/><text fill="#000000" font-family="sans-serif" font-size="12" lengthAdjust="spacingAndGlyphs" textLength="84" x="44.9" y="154.9102">InputConnector</text><line style="stroke: #A80036; stroke-width: 1.5;" x1="7" x2="139" y1="166" y2="166"/><text fill="#000000" font-family="sans-serif" font-size="11" lengthAdjust="spacingAndGlyphs" textLength="122" x="12" y="181.4189">source: OutputConnector</text><line style="stroke: #A80036; stroke-width: 1.5;" x1="7" x2="139" y1="187.8359" y2="187.8359"/><rect fill="#FEFECE" filter="url(#f1)" height="61.8359" style="stroke: #A80036; stroke-width: 1.5;" width="148" x="175" y="134"/><ellipse cx="200.35" cy="150" fill="#ADD1B2" rx="11" ry="11" style="stroke: #A80036; stroke-width: 1.0;"/><path d="M203.1156,145.875 Q203.2719,145.6563 203.4594,145.5469 Q203.6469,145.4375 203.8656,145.4375 Q204.2406,145.4375 204.475,145.6953 Q204.7094,145.9531 204.7094,146.5625 L204.7094,148.0156 Q204.7094,148.625 204.475,148.8906 Q204.2406,149.1563 203.8656,149.1563 Q203.5219,149.1563 203.3188,148.9531 Q203.1156,148.7656 203.0063,148.25 Q202.9594,147.8906 202.7719,147.7031 Q202.4438,147.3281 201.8344,147.1094 Q201.225,146.8906 200.6,146.8906 Q199.8344,146.8906 199.2016,147.2188 Q198.5688,147.5469 198.0766,148.2969 Q197.5844,149.0469 197.5844,150.0781 L197.5844,151.1719 Q197.5844,152.4063 198.475,153.2266 Q199.3656,154.0469 200.9594,154.0469 Q201.8969,154.0469 202.5531,153.7969 Q202.9438,153.6406 203.3656,153.2031 Q203.6313,152.9375 203.7797,152.8594 Q203.9281,152.7813 204.1313,152.7813 Q204.4594,152.7813 204.7172,153.0391 Q204.975,153.2969 204.975,153.6406 Q204.975,153.9844 204.6313,154.3906 Q204.1313,154.9688 203.3344,155.2969 Q202.2563,155.75 200.9594,155.75 Q199.4438,155.75 198.2406,155.125 Q197.2563,154.625 196.5688,153.5547 Q195.8813,152.4844 195.8813,151.2031 L195.8813,150.0469 Q195.8813,148.7188 196.4984,147.5703 Q197.1156,146.4219 198.2094,145.8047 Q199.3031,145.1875 200.5375,145.1875 Q201.2719,145.1875 201.9203,145.3516 Q202.5688,145.5156 203.1156,145.875 Z "/><text fill="#000000" font-family="sans-serif" font-size="12" lengthAdjust="spacingAndGlyphs" textLength="93" x="216.65" y="154.9102">OutputConnector</text><line style="stroke: #A80036; stroke-width: 1.5;" x1="176" x2="322" y1="166" y2="166"/><text fill="#000000" font-family="sans-serif" font-size="11" lengthAdjust="spacingAndGlyphs" textLength="136" x="181" y="181.4189">targets: List[InputConnector]</text><line style="stroke: #A80036; stroke-width: 1.5;" x1="176" x2="322" y1="187.8359" y2="187.8359"/><rect fill="#FEFECE" filter="url(#f1)" height="48" style="stroke: #A80036; stroke-width: 1.5;" width="62" x="143" y="8"/><ellipse cx="158" cy="24" fill="#A9DCDF" rx="11" ry="11" style="stroke: #A80036; stroke-width: 1.0;"/><path d="M160.1875,25.7656 L156.0469,25.7656 L155.625,26.7969 L156.0469,26.7969 Q156.6563,26.7969 156.9219,27.0313 Q157.1875,27.2656 157.1875,27.6563 Q157.1875,28.0313 156.9219,28.2656 Q156.6563,28.5 156.0469,28.5 L153.75,28.5 Q153.1406,28.5 152.8828,28.2656 Q152.625,28.0313 152.625,27.6406 Q152.625,27.2656 152.8984,27.0234 Q153.1719,26.7813 153.7969,26.7969 L156.4688,20.1406 L155.3594,20.1406 Q154.75,20.1406 154.4844,19.9063 Q154.2188,19.6719 154.2188,19.2813 Q154.2188,18.9063 154.4844,18.6719 Q154.75,18.4375 155.3594,18.4375 L159.0313,18.4375 L162.4219,26.7969 Q163.0156,26.7969 163.2031,26.9375 Q163.5938,27.2031 163.5938,27.6563 Q163.5938,28.0313 163.3359,28.2656 Q163.0781,28.5 162.4688,28.5 L160.1719,28.5 Q159.5625,28.5 159.2969,28.2656 Q159.0313,28.0313 159.0313,27.6406 Q159.0313,27.2656 159.2969,27.0313 Q159.5625,26.7969 160.1719,26.7969 L160.5938,26.7969 L160.1875,25.7656 Z M159.4688,24.0625 L158.1094,20.6875 L156.7344,24.0625 L159.4688,24.0625 Z "/><text fill="#000000" font-family="sans-serif" font-size="12" font-style="italic" lengthAdjust="spacingAndGlyphs" textLength="30" x="172" y="28.9102">Node</text><line style="stroke: #A80036; stroke-width: 1.5;" x1="144" x2="204" y1="40" y2="40"/><line style="stroke: #A80036; stroke-width: 1.5;" x1="144" x2="204" y1="48" y2="48"/><path d="M148.041,66.669 C132.079,87.373 111.795,113.682 96.3409,133.726 " fill="none" style="stroke: #A80036; stroke-width: 1.0;"/><polygon fill="#FFFFFF" points="156.176,56.119,149.3446,58.4282,148.8488,65.6222,155.6801,63.313,156.176,56.119" style="stroke: #A80036; stroke-width: 1.0;"/><text fill="#000000" font-family="sans-serif" font-size="13" lengthAdjust="spacingAndGlyphs" textLength="28" x="133" y="100.4951">input</text><text fill="#000000" font-family="sans-serif" font-size="13" lengthAdjust="spacingAndGlyphs" textLength="7" x="143.9783" y="77.486">1</text><text fill="#000000" font-family="sans-serif" font-size="13" lengthAdjust="spacingAndGlyphs" textLength="24" x="74.68" y="123.174">0..N</text><path d="M193.77,67.531 C205.545,88.099 220.351,113.959 231.668,133.726 " fill="none" style="stroke: #A80036; stroke-width: 1.0;"/><polygon fill="#FFFFFF" points="187.236,56.119,186.7453,63.3134,193.1975,66.5335,193.6882,59.3391,187.236,56.119" style="stroke: #A80036; stroke-width: 1.0;"/><text fill="#000000" font-family="sans-serif" font-size="13" lengthAdjust="spacingAndGlyphs" textLength="36" x="214" y="100.4951">output</text><text fill="#000000" font-family="sans-serif" font-size="13" lengthAdjust="spacingAndGlyphs" textLength="7" x="182.6092" y="77.486">1</text><text fill="#000000" font-family="sans-serif" font-size="13" lengthAdjust="spacingAndGlyphs" textLength="24" x="201.6183" y="123.174">0..N</text><path d="M85.6606,196.01 C90.9927,208.649 97.3759,223.78 103.5128,238.3267 " fill="none" style="stroke: #A80036; stroke-width: 1.0;"/><polygon fill="none" points="110.005,235.7067,111.329,256.8549,97.1058,241.1485,110.005,235.7067" style="stroke: #A80036; stroke-width: 1.0;"/><path d="M220.396,196.01 C207.267,209.785 191.317,226.52 176.34,242.233 " fill="none" style="stroke: #A80036; stroke-width: 1.0;"/><polygon fill="none" points="181.27,247.207,162.404,256.8549,171.136,237.5479,181.27,247.207" style="stroke: #A80036; stroke-width: 1.0;"/></g></svg>