<?xml version="1.0" encoding="UTF-8" standalone="yes"?><svg xmlns="http://www.w3.org/2000/svg" xmlns:xlink="http://www.w3.org/1999/xlink" height="434px" style="width:957px;height:434px;" version="1.1" viewBox="0 0 957 434" width="957px"><defs><filter height="300%" id="f1" width="300%" x="-1" y="-1"><feGaussianBlur result="blurOut" stdDeviation="2.0"/><feColorMatrix in="blurOut" result="blurOut2" type="matrix" values="0 0 0 0 0 0 0 0 0 0 0 0 0 0 0 0 0 0 .4 0"/><feOffset dx="4.0" dy="4.0" in="blurOut2" result="blurOut3"/><feBlend in="SourceGraphic" in2="blurOut3" mode="normal"/></filter></defs><g><polygon fill="#FFFFFF" filter="url(#f1)" points="362,327,445,327,452,350.6094,950,350.6094,950,427,362,427,362,327" style="stroke: #000000; stroke-width: 2.0;"/><line style="stroke: #000000; stroke-width: 2.0;" x1="362" x2="452" y1="350.6094" y2="350.6094"/><text fill="#000000" font-family="sans-serif" font-size="14" font-weight="bold" lengthAdjust="spacingAndGlyphs" textLength="77" x="366" y="343.5332">cate.ops.io</text><rect fill="#FEFECE" filter="url(#f1)" height="48" style="stroke: #A80036; stroke-width: 1.5;" width="101" x="832.5" y="363"/><ellipse cx="847.5" cy="379" fill="#ADD1B2" rx="11" ry="11" style="stroke: #A80036; stroke-width: 1.0;"/><path d="M850.2656,374.875 Q850.4219,374.6563 850.6094,374.5469 Q850.7969,374.4375 851.0156,374.4375 Q851.3906,374.4375 851.625,374.6953 Q851.8594,374.9531 851.8594,375.5625 L851.8594,377.0156 Q851.8594,377.625 851.625,377.8906 Q851.3906,378.1563 851.0156,378.1563 Q850.6719,378.1563 850.4688,377.9531 Q850.2656,377.7656 850.1563,377.25 Q850.1094,376.8906 849.9219,376.7031 Q849.5938,376.3281 848.9844,376.1094 Q848.375,375.8906 847.75,375.8906 Q846.9844,375.8906 846.3516,376.2188 Q845.7188,376.5469 845.2266,377.2969 Q844.7344,378.0469 844.7344,379.0781 L844.7344,380.1719 Q844.7344,381.4063 845.625,382.2266 Q846.5156,383.0469 848.1094,383.0469 Q849.0469,383.0469 849.7031,382.7969 Q850.0938,382.6406 850.5156,382.2031 Q850.7813,381.9375 850.9297,381.8594 Q851.0781,381.7813 851.2813,381.7813 Q851.6094,381.7813 851.8672,382.0391 Q852.125,382.2969 852.125,382.6406 Q852.125,382.9844 851.7813,383.3906 Q851.2813,383.9688 850.4844,384.2969 Q849.4063,384.75 848.1094,384.75 Q846.5938,384.75 845.3906,384.125 Q844.4063,383.625 843.7188,382.5547 Q843.0313,381.4844 843.0313,380.2031 L843.0313,379.0469 Q843.0313,377.7188 843.6484,376.5703 Q844.2656,375.4219 845.3594,374.8047 Q846.4531,374.1875 847.6875,374.1875 Q848.4219,374.1875 849.0703,374.3516 Q849.7188,374.5156 850.2656,374.875 Z "/><text fill="#000000" font-family="sans-serif" font-size="12" lengthAdjust="spacingAndGlyphs" textLength="69" x="861.5" y="383.9102">TextObjectIO</text><line style="stroke: #A80036; stroke-width: 1.5;" x1="833.5" x2="932.5" y1="395" y2="395"/><line style="stroke: #A80036; stroke-width: 1.5;" x1="833.5" x2="932.5" y1="403" y2="403"/><rect fill="#FEFECE" filter="url(#f1)" height="48" style="stroke: #A80036; stroke-width: 1.5;" width="106" x="691" y="363"/><ellipse cx="706" cy="379" fill="#ADD1B2" rx="11" ry="11" style="stroke: #A80036; stroke-width: 1.0;"/><path d="M708.7656,374.875 Q708.9219,374.6563 709.1094,374.5469 Q709.2969,374.4375 709.5156,374.4375 Q709.8906,374.4375 710.125,374.6953 Q710.3594,374.9531 710.3594,375.5625 L710.3594,377.0156 Q710.3594,377.625 710.125,377.8906 Q709.8906,378.1563 709.5156,378.1563 Q709.1719,378.1563 708.9688,377.9531 Q708.7656,377.7656 708.6563,377.25 Q708.6094,376.8906 708.4219,376.7031 Q708.0938,376.3281 707.4844,376.1094 Q706.875,375.8906 706.25,375.8906 Q705.4844,375.8906 704.8516,376.2188 Q704.2188,376.5469 703.7266,377.2969 Q703.2344,378.0469 703.2344,379.0781 L703.2344,380.1719 Q703.2344,381.4063 704.125,382.2266 Q705.0156,383.0469 706.6094,383.0469 Q707.5469,383.0469 708.2031,382.7969 Q708.5938,382.6406 709.0156,382.2031 Q709.2813,381.9375 709.4297,381.8594 Q709.5781,381.7813 709.7813,381.7813 Q710.1094,381.7813 710.3672,382.0391 Q710.625,382.2969 710.625,382.6406 Q710.625,382.9844 710.2813,383.3906 Q709.7813,383.9688 708.9844,384.2969 Q707.9063,384.75 706.6094,384.75 Q705.0938,384.75 703.8906,384.125 Q702.9063,383.625 702.2188,382.5547 Q701.5313,381.4844 701.5313,380.2031 L701.5313,379.0469 Q701.5313,377.7188 702.1484,376.5703 Q702.7656,375.4219 703.8594,374.8047 Q704.9531,374.1875 706.1875,374.1875 Q706.9219,374.1875 707.5703,374.3516 Q708.2188,374.5156 708.7656,374.875 Z "/><text fill="#000000" font-family="sans-serif" font-size="12" lengthAdjust="spacingAndGlyphs" textLength="74" x="720" y="383.9102">JsonObjectIO</text><line style="stroke: #A80036; stroke-width: 1.5;" x1="692" x2="796" y1="395" y2="395"/><line style="stroke: #A80036; stroke-width: 1.5;" x1="692" x2="796" y1="403" y2="403"/><rect fill="#FEFECE" filter="url(#f1)" height="48" style="stroke: #A80036; stroke-width: 1.5;" width="121" x="534.5" y="363"/><ellipse cx="549.5" cy="379" fill="#ADD1B2" rx="11" ry="11" style="stroke: #A80036; stroke-width: 1.0;"/><path d="M552.2656,374.875 Q552.4219,374.6563 552.6094,374.5469 Q552.7969,374.4375 553.0156,374.4375 Q553.3906,374.4375 553.625,374.6953 Q553.8594,374.9531 553.8594,375.5625 L553.8594,377.0156 Q553.8594,377.625 553.625,377.8906 Q553.3906,378.1563 553.0156,378.1563 Q552.6719,378.1563 552.4688,377.9531 Q552.2656,377.7656 552.1563,377.25 Q552.1094,376.8906 551.9219,376.7031 Q551.5938,376.3281 550.9844,376.1094 Q550.375,375.8906 549.75,375.8906 Q548.9844,375.8906 548.3516,376.2188 Q547.7188,376.5469 547.2266,377.2969 Q546.7344,378.0469 546.7344,379.0781 L546.7344,380.1719 Q546.7344,381.4063 547.625,382.2266 Q548.5156,383.0469 550.1094,383.0469 Q551.0469,383.0469 551.7031,382.7969 Q552.0938,382.6406 552.5156,382.2031 Q552.7813,381.9375 552.9297,381.8594 Q553.0781,381.7813 553.2813,381.7813 Q553.6094,381.7813 553.8672,382.0391 Q554.125,382.2969 554.125,382.6406 Q554.125,382.9844 553.7813,383.3906 Q553.2813,383.9688 552.4844,384.2969 Q551.4063,384.75 550.1094,384.75 Q548.5938,384.75 547.3906,384.125 Q546.4063,383.625 545.7188,382.5547 Q545.0313,381.4844 545.0313,380.2031 L545.0313,379.0469 Q545.0313,377.7188 545.6484,376.5703 Q546.2656,375.4219 547.3594,374.8047 Q548.4531,374.1875 549.6875,374.1875 Q550.4219,374.1875 551.0703,374.3516 Q551.7188,374.5156 552.2656,374.875 Z "/><text fill="#000000" font-family="sans-serif" font-size="12" lengthAdjust="spacingAndGlyphs" textLength="89" x="563.5" y="383.9102">Netcdf4ObjectIO</text><line style="stroke: #A80036; stroke-width: 1.5;" x1="535.5" x2="654.5" y1="395" y2="395"/><line style="stroke: #A80036; stroke-width: 1.5;" x1="535.5" x2="654.5" y1="403" y2="403"/><rect fill="#FEFECE" filter="url(#f1)" height="48" style="stroke: #A80036; stroke-width: 1.5;" width="121" x="378.5" y="363"/><ellipse cx="393.5" cy="379" fill="#ADD1B2" rx="11" ry="11" style="stroke: #A80036; stroke-width: 1.0;"/><path d="M396.2656,374.875 Q396.4219,374.6563 396.6094,374.5469 Q396.7969,374.4375 397.0156,374.4375 Q397.3906,374.4375 397.625,374.6953 Q397.8594,374.9531 397.8594,375.5625 L397.8594,377.0156 Q397.8594,377.625 397.625,377.8906 Q397.3906,378.1563 397.0156,378.1563 Q396.6719,378.1563 396.4688,377.9531 Q396.2656,377.7656 396.1563,377.25 Q396.1094,376.8906 395.9219,376.7031 Q395.5938,376.3281 394.9844,376.1094 Q394.375,375.8906 393.75,375.8906 Q392.9844,375.8906 392.3516,376.2188 Q391.7188,376.5469 391.2266,377.2969 Q390.7344,378.0469 390.7344,379.0781 L390.7344,380.1719 Q390.7344,381.4063 391.625,382.2266 Q392.5156,383.0469 394.1094,383.0469 Q395.0469,383.0469 395.7031,382.7969 Q396.0938,382.6406 396.5156,382.2031 Q396.7813,381.9375 396.9297,381.8594 Q397.0781,381.7813 397.2813,381.7813 Q397.6094,381.7813 397.8672,382.0391 Q398.125,382.2969 398.125,382.6406 Q398.125,382.9844 397.7813,383.3906 Q397.2813,383.9688 396.4844,384.2969 Q395.4063,384.75 394.1094,384.75 Q392.5938,384.75 391.3906,384.125 Q390.4063,383.625 389.7188,382.5547 Q389.0313,381.4844 389.0313,380.2031 L389.0313,379.0469 Q389.0313,377.7188 389.6484,376.5703 Q390.2656,375.4219 391.3594,374.8047 Q392.4531,374.1875 393.6875,374.1875 Q394.4219,374.1875 395.0703,374.3516 Q395.7188,374.5156 396.2656,374.875 Z "/><text fill="#000000" font-family="sans-serif" font-size="12" lengthAdjust="spacingAndGlyphs" textLength="89" x="407.5" y="383.9102">Netcdf3ObjectIO</text><line style="stroke: #A80036; stroke-width: 1.5;" x1="379.5" x2="498.5" y1="395" y2="395"/><line style="stroke: #A80036; stroke-width: 1.5;" x1="379.5" x2="498.5" y1="403" y2="403"/><rect fill="#FEFECE" filter="url(#f1)" height="89.5078" style="stroke: #A80036; stroke-width: 1.5;" width="215" x="561.5" y="8"/><ellipse cx="618.75" cy="24" fill="#ADD1B2" rx="11" ry="11" style="stroke: #A80036; stroke-width: 1.0;"/><path d="M621.5156,19.875 Q621.6719,19.6563 621.8594,19.5469 Q622.0469,19.4375 622.2656,19.4375 Q622.6406,19.4375 622.875,19.6953 Q623.1094,19.9531 623.1094,20.5625 L623.1094,22.0156 Q623.1094,22.625 622.875,22.8906 Q622.6406,23.1563 622.2656,23.1563 Q621.9219,23.1563 621.7188,22.9531 Q621.5156,22.7656 621.4063,22.25 Q621.3594,21.8906 621.1719,21.7031 Q620.8438,21.3281 620.2344,21.1094 Q619.625,20.8906 619,20.8906 Q618.2344,20.8906 617.6016,21.2188 Q616.9688,21.5469 616.4766,22.2969 Q615.9844,23.0469 615.9844,24.0781 L615.9844,25.1719 Q615.9844,26.4063 616.875,27.2266 Q617.7656,28.0469 619.3594,28.0469 Q620.2969,28.0469 620.9531,27.7969 Q621.3438,27.6406 621.7656,27.2031 Q622.0313,26.9375 622.1797,26.8594 Q622.3281,26.7813 622.5313,26.7813 Q622.8594,26.7813 623.1172,27.0391 Q623.375,27.2969 623.375,27.6406 Q623.375,27.9844 623.0313,28.3906 Q622.5313,28.9688 621.7344,29.2969 Q620.6563,29.75 619.3594,29.75 Q617.8438,29.75 616.6406,29.125 Q615.6563,28.625 614.9688,27.5547 Q614.2813,26.4844 614.2813,25.2031 L614.2813,24.0469 Q614.2813,22.7188 614.8984,21.5703 Q615.5156,20.4219 616.6094,19.8047 Q617.7031,19.1875 618.9375,19.1875 Q619.6719,19.1875 620.3203,19.3516 Q620.9688,19.5156 621.5156,19.875 Z "/><text fill="#000000" font-family="sans-serif" font-size="12" lengthAdjust="spacingAndGlyphs" textLength="92" x="639.25" y="28.9102">ObjectIORegistry</text><line style="stroke: #A80036; stroke-width: 1.5;" x1="562.5" x2="775.5" y1="40" y2="40"/><text fill="#000000" font-family="sans-serif" font-size="11" lengthAdjust="spacingAndGlyphs" textLength="85" x="567.5" y="55.4189">object_io_list: List</text><line style="stroke: #A80036; stroke-width: 1.5;" x1="562.5" x2="775.5" y1="61.8359" y2="61.8359"/><text fill="#000000" font-family="sans-serif" font-size="11" lengthAdjust="spacingAndGlyphs" textLength="203" x="567.5" y="77.2549">find_reader(file_obj, format, ext): ObjectIO</text><text fill="#000000" font-family="sans-serif" font-size="11" lengthAdjust="spacingAndGlyphs" textLength="180" x="567.5" y="91.0908">find_writer(obj, format, ext): ObjectIO</text><rect fill="#FEFECE" filter="url(#f1)" height="144.8516" style="stroke: #A80036; stroke-width: 1.5;" width="132" x="603" y="158"/><ellipse cx="640.95" cy="174" fill="#A9DCDF" rx="11" ry="11" style="stroke: #A80036; stroke-width: 1.0;"/><path d="M643.1375,175.7656 L638.9969,175.7656 L638.575,176.7969 L638.9969,176.7969 Q639.6063,176.7969 639.8719,177.0313 Q640.1375,177.2656 640.1375,177.6563 Q640.1375,178.0313 639.8719,178.2656 Q639.6063,178.5 638.9969,178.5 L636.7,178.5 Q636.0906,178.5 635.8328,178.2656 Q635.575,178.0313 635.575,177.6406 Q635.575,177.2656 635.8484,177.0234 Q636.1219,176.7813 636.7469,176.7969 L639.4188,170.1406 L638.3094,170.1406 Q637.7,170.1406 637.4344,169.9063 Q637.1688,169.6719 637.1688,169.2813 Q637.1688,168.9063 637.4344,168.6719 Q637.7,168.4375 638.3094,168.4375 L641.9813,168.4375 L645.3719,176.7969 Q645.9656,176.7969 646.1531,176.9375 Q646.5438,177.2031 646.5438,177.6563 Q646.5438,178.0313 646.2859,178.2656 Q646.0281,178.5 645.4188,178.5 L643.1219,178.5 Q642.5125,178.5 642.2469,178.2656 Q641.9813,178.0313 641.9813,177.6406 Q641.9813,177.2656 642.2469,177.0313 Q642.5125,176.7969 643.1219,176.7969 L643.5438,176.7969 L643.1375,175.7656 Z M642.4188,174.0625 L641.0594,170.6875 L639.6844,174.0625 L642.4188,174.0625 Z "/><text fill="#000000" font-family="sans-serif" font-size="12" font-style="italic" lengthAdjust="spacingAndGlyphs" textLength="49" x="660.05" y="178.9102">ObjectIO</text><line style="stroke: #A80036; stroke-width: 1.5;" x1="604" x2="734" y1="190" y2="190"/><text fill="#000000" font-family="sans-serif" font-size="11" lengthAdjust="spacingAndGlyphs" textLength="72" x="609" y="205.4189">description: str</text><text fill="#000000" font-family="sans-serif" font-size="11" lengthAdjust="spacingAndGlyphs" textLength="82" x="609" y="219.2549">format_name: str</text><text fill="#000000" font-family="sans-serif" font-size="11" lengthAdjust="spacingAndGlyphs" textLength="80" x="609" y="233.0908">filename_ext: str</text><line style="stroke: #A80036; stroke-width: 1.5;" x1="604" x2="734" y1="239.5078" y2="239.5078"/><text fill="#000000" font-family="sans-serif" font-size="11" lengthAdjust="spacingAndGlyphs" textLength="120" x="609" y="254.9268">read_fitness(file_obj): int</text><text fill="#000000" font-family="sans-serif" font-size="11" lengthAdjust="spacingAndGlyphs" textLength="64" x="609" y="268.7627">read(file_obj)</text><text fill="#000000" font-family="sans-serif" font-size="11" lengthAdjust="spacingAndGlyphs" textLength="103" x="609" y="282.5986">write_fitness(obj): int</text><text fill="#000000" font-family="sans-serif" font-size="11" lengthAdjust="spacingAndGlyphs" textLength="94" x="609" y="296.4346">write(obj, file_path)</text><rect fill="#FEFECE" filter="url(#f1)" height="89.9844" style="stroke: #A80036; stroke-width: 1.5;" width="211" x="315.5" y="8"/><text fill="#000000" font-family="sans-serif" font-size="12" lengthAdjust="spacingAndGlyphs" textLength="41" x="400.5" y="22.457">globals</text><line style="stroke: #A80036; stroke-width: 1.5;" x1="316.5" x2="525.5" y1="27.0938" y2="27.0938"/><text fill="#000000" font-family="sans-serif" font-size="10" lengthAdjust="spacingAndGlyphs" textLength="168" x="321.5" y="41.4746">find_reader(file_obj, format_name):</text><text fill="#000000" font-family="sans-serif" font-size="10" lengthAdjust="spacingAndGlyphs" textLength="187" x="321.5" y="54.0527">find_writer(obj, file_path, format_name)</text><text fill="#000000" font-family="sans-serif" font-size="10" lengthAdjust="spacingAndGlyphs" textLength="168" x="321.5" y="66.6309">read_object(file_obj, format_name)</text><text fill="#000000" font-family="sans-serif" font-size="10" lengthAdjust="spacingAndGlyphs" textLength="199" x="321.5" y="79.209">writer_object(obj, file_path, format_name)</text><text fill="#000000" font-family="sans-serif" font-size="10" lengthAdjust="spacingAndGlyphs" textLength="187" x="321.5" y="91.7871">OBJECT_IO_REGISTRY: WriterRegistry</text><polygon fill="#FBFB77" filter="url(#f1)" points="6,31.5,6,74.2031,280,74.2031,280,41.5,270,31.5,6,31.5" style="stroke: #A80036; stroke-width: 1.0;"/><polygon fill="#FBFB77" points="6,31.5,6,74.2031,280,74.2031,280,57,315.325,53,280,49,280,41.5,270,31.5,6,31.5" style="stroke: #A80036; stroke-width: 1.0;"/><line style="stroke: #A80036; stroke-width: 1.0;" x1="270" x2="270" y1="31.5" y2="41.5"/><line style="stroke: #A80036; stroke-width: 1.0;" x1="280" x2="270" y1="41.5" y2="41.5"/><text fill="#000000" font-family="sans-serif" font-size="13" lengthAdjust="spacingAndGlyphs" textLength="253" x="12" y="49.9951">OBJECT_IO_REGISTRY contains all known</text><text fill="#000000" font-family="sans-serif" font-size="13" lengthAdjust="spacingAndGlyphs" textLength="189" x="12" y="66.3467">data reader and writer instances.</text><path d="M669,111.48 C669,122.14 669,133.48 669,144.753 " fill="none" style="stroke: #A80036; stroke-width: 1.0;"/><polygon fill="#A80036" points="669,157.912,673,148.912,669,152.912,665,148.912,669,157.912" style="stroke: #A80036; stroke-width: 1.0;"/><line style="stroke: #A80036; stroke-width: 1.0;" x1="669" x2="669" y1="152.912" y2="144.912"/><polygon fill="#FFFFFF" points="669,98.286,665,104.286,669,110.286,673,104.286,669,98.286" style="stroke: #A80036; stroke-width: 1.0;"/><text fill="#000000" font-family="sans-serif" font-size="13" lengthAdjust="spacingAndGlyphs" textLength="9" x="659.5359" y="147.1223">N</text><path d="M752.485,276.882 C773.543,289.57 795.652,304.016 815,319 C832.034,332.192 849.304,349.2633 862.176,362.8723 " fill="none" style="stroke: #A80036; stroke-width: 1.0;"/><polygon fill="none" points="748.812,282.842,735.127,266.664,755.914,270.777,748.812,282.842" style="stroke: #A80036; stroke-width: 1.0;"/><path d="M712.637,321.393 C720.042,336.647 727.119,351.2254 732.67,362.6606 " fill="none" style="stroke: #A80036; stroke-width: 1.0;"/><polygon fill="none" points="706.302,324.371,703.865,303.322,718.897,318.258,706.302,324.371" style="stroke: #A80036; stroke-width: 1.0;"/><path d="M625.945,321.393 C618.638,336.647 611.656,351.2254 606.179,362.6606 " fill="none" style="stroke: #A80036; stroke-width: 1.0;"/><polygon fill="none" points="619.647,318.336,634.6,303.322,632.273,324.384,619.647,318.336" style="stroke: #A80036; stroke-width: 1.0;"/><path d="M585.554,275.798 C562.783,288.881 538.481,303.794 517,319 C498.204,332.305 478.545,349.2142 463.666,362.7163 " fill="none" style="stroke: #A80036; stroke-width: 1.0;"/><polygon fill="none" points="582.14,269.686,602.998,265.951,589.022,281.878,582.14,269.686" style="stroke: #A80036; stroke-width: 1.0;"/></g></svg>