<?xml version="1.0" encoding="UTF-8" standalone="yes"?><svg xmlns="http://www.w3.org/2000/svg" xmlns:xlink="http://www.w3.org/1999/xlink" height="425px" style="width:211px;height:425px;" version="1.1" viewBox="0 0 211 425" width="211px"><defs><filter height="300%" id="f1" width="300%" x="-1" y="-1"><feGaussianBlur result="blurOut" stdDeviation="2.0"/><feColorMatrix in="blurOut" result="blurOut2" type="matrix" values="0 0 0 0 0 0 0 0 0 0 0 0 0 0 0 0 0 0 .4 0"/><feOffset dx="4.0" dy="4.0" in="blurOut2" result="blurOut3"/><feBlend in="SourceGraphic" in2="blurOut3" mode="normal"/></filter></defs><g><rect fill="#FEFECE" filter="url(#f1)" height="89.5078" style="stroke: #A80036; stroke-width: 1.5;" width="196" x="6" y="8"/><ellipse cx="69.25" cy="24" fill="#ADD1B2" rx="11" ry="11" style="stroke: #A80036; stroke-width: 1.0;"/><path d="M72.0156,19.875 Q72.1719,19.6563 72.3594,19.5469 Q72.5469,19.4375 72.7656,19.4375 Q73.1406,19.4375 73.375,19.6953 Q73.6094,19.9531 73.6094,20.5625 L73.6094,22.0156 Q73.6094,22.625 73.375,22.8906 Q73.1406,23.1563 72.7656,23.1563 Q72.4219,23.1563 72.2188,22.9531 Q72.0156,22.7656 71.9063,22.25 Q71.8594,21.8906 71.6719,21.7031 Q71.3438,21.3281 70.7344,21.1094 Q70.125,20.8906 69.5,20.8906 Q68.7344,20.8906 68.1016,21.2188 Q67.4688,21.5469 66.9766,22.2969 Q66.4844,23.0469 66.4844,24.0781 L66.4844,25.1719 Q66.4844,26.4063 67.375,27.2266 Q68.2656,28.0469 69.8594,28.0469 Q70.7969,28.0469 71.4531,27.7969 Q71.8438,27.6406 72.2656,27.2031 Q72.5313,26.9375 72.6797,26.8594 Q72.8281,26.7813 73.0313,26.7813 Q73.3594,26.7813 73.6172,27.0391 Q73.875,27.2969 73.875,27.6406 Q73.875,27.9844 73.5313,28.3906 Q73.0313,28.9688 72.2344,29.2969 Q71.1563,29.75 69.8594,29.75 Q68.3438,29.75 67.1406,29.125 Q66.1563,28.625 65.4688,27.5547 Q64.7813,26.4844 64.7813,25.2031 L64.7813,24.0469 Q64.7813,22.7188 65.3984,21.5703 Q66.0156,20.4219 67.1094,19.8047 Q68.2031,19.1875 69.4375,19.1875 Q70.1719,19.1875 70.8203,19.3516 Q71.4688,19.5156 72.0156,19.875 Z "/><text fill="#000000" font-family="sans-serif" font-size="12" lengthAdjust="spacingAndGlyphs" textLength="61" x="89.75" y="28.9102">OpRegistry</text><line style="stroke: #A80036; stroke-width: 1.5;" x1="7" x2="201" y1="40" y2="40"/><line style="stroke: #A80036; stroke-width: 1.5;" x1="7" x2="201" y1="48" y2="48"/><text fill="#000000" font-family="sans-serif" font-size="11" lengthAdjust="spacingAndGlyphs" textLength="144" x="12" y="63.4189">get_op(name): OpRegistration</text><text fill="#000000" font-family="sans-serif" font-size="11" lengthAdjust="spacingAndGlyphs" textLength="166" x="12" y="77.2549">add_op(operation): OpRegistration</text><text fill="#000000" font-family="sans-serif" font-size="11" lengthAdjust="spacingAndGlyphs" textLength="184" x="12" y="91.0908">remove_op(operation): OpRegistration</text><rect fill="#FEFECE" filter="url(#f1)" height="75.6719" style="stroke: #A80036; stroke-width: 1.5;" width="172" x="18" y="159"/><ellipse cx="58.65" cy="175" fill="#ADD1B2" rx="11" ry="11" style="stroke: #A80036; stroke-width: 1.0;"/><path d="M61.4156,170.875 Q61.5719,170.6563 61.7594,170.5469 Q61.9469,170.4375 62.1656,170.4375 Q62.5406,170.4375 62.775,170.6953 Q63.0094,170.9531 63.0094,171.5625 L63.0094,173.0156 Q63.0094,173.625 62.775,173.8906 Q62.5406,174.1563 62.1656,174.1563 Q61.8219,174.1563 61.6188,173.9531 Q61.4156,173.7656 61.3063,173.25 Q61.2594,172.8906 61.0719,172.7031 Q60.7438,172.3281 60.1344,172.1094 Q59.525,171.8906 58.9,171.8906 Q58.1344,171.8906 57.5016,172.2188 Q56.8688,172.5469 56.3766,173.2969 Q55.8844,174.0469 55.8844,175.0781 L55.8844,176.1719 Q55.8844,177.4063 56.775,178.2266 Q57.6656,179.0469 59.2594,179.0469 Q60.1969,179.0469 60.8531,178.7969 Q61.2438,178.6406 61.6656,178.2031 Q61.9313,177.9375 62.0797,177.8594 Q62.2281,177.7813 62.4313,177.7813 Q62.7594,177.7813 63.0172,178.0391 Q63.275,178.2969 63.275,178.6406 Q63.275,178.9844 62.9313,179.3906 Q62.4313,179.9688 61.6344,180.2969 Q60.5563,180.75 59.2594,180.75 Q57.7438,180.75 56.5406,180.125 Q55.5563,179.625 54.8688,178.5547 Q54.1813,177.4844 54.1813,176.2031 L54.1813,175.0469 Q54.1813,173.7188 54.7984,172.5703 Q55.4156,171.4219 56.5094,170.8047 Q57.6031,170.1875 58.8375,170.1875 Q59.5719,170.1875 60.2203,170.3516 Q60.8688,170.5156 61.4156,170.875 Z "/><text fill="#000000" font-family="sans-serif" font-size="12" lengthAdjust="spacingAndGlyphs" textLength="83" x="78.35" y="179.9102">OpRegistration</text><line style="stroke: #A80036; stroke-width: 1.5;" x1="19" x2="189" y1="191" y2="191"/><text fill="#000000" font-family="sans-serif" font-size="11" lengthAdjust="spacingAndGlyphs" textLength="80" x="24" y="206.4189">operation: object</text><line style="stroke: #A80036; stroke-width: 1.5;" x1="19" x2="189" y1="212.8359" y2="212.8359"/><text fill="#000000" font-family="sans-serif" font-size="11" lengthAdjust="spacingAndGlyphs" textLength="160" x="24" y="228.2549">__call__(*args, **kwargs): object</text><rect fill="#FEFECE" filter="url(#f1)" height="103.3438" style="stroke: #A80036; stroke-width: 1.5;" width="113" x="47.5" y="313"/><ellipse cx="71.05" cy="329" fill="#ADD1B2" rx="11" ry="11" style="stroke: #A80036; stroke-width: 1.0;"/><path d="M73.8156,324.875 Q73.9719,324.6563 74.1594,324.5469 Q74.3469,324.4375 74.5656,324.4375 Q74.9406,324.4375 75.175,324.6953 Q75.4094,324.9531 75.4094,325.5625 L75.4094,327.0156 Q75.4094,327.625 75.175,327.8906 Q74.9406,328.1563 74.5656,328.1563 Q74.2219,328.1563 74.0188,327.9531 Q73.8156,327.7656 73.7063,327.25 Q73.6594,326.8906 73.4719,326.7031 Q73.1438,326.3281 72.5344,326.1094 Q71.925,325.8906 71.3,325.8906 Q70.5344,325.8906 69.9016,326.2188 Q69.2688,326.5469 68.7766,327.2969 Q68.2844,328.0469 68.2844,329.0781 L68.2844,330.1719 Q68.2844,331.4063 69.175,332.2266 Q70.0656,333.0469 71.6594,333.0469 Q72.5969,333.0469 73.2531,332.7969 Q73.6438,332.6406 74.0656,332.2031 Q74.3313,331.9375 74.4797,331.8594 Q74.6281,331.7813 74.8313,331.7813 Q75.1594,331.7813 75.4172,332.0391 Q75.675,332.2969 75.675,332.6406 Q75.675,332.9844 75.3313,333.3906 Q74.8313,333.9688 74.0344,334.2969 Q72.9563,334.75 71.6594,334.75 Q70.1438,334.75 68.9406,334.125 Q67.9563,333.625 67.2688,332.5547 Q66.5813,331.4844 66.5813,330.2031 L66.5813,329.0469 Q66.5813,327.7188 67.1984,326.5703 Q67.8156,325.4219 68.9094,324.8047 Q70.0031,324.1875 71.2375,324.1875 Q71.9719,324.1875 72.6203,324.3516 Q73.2688,324.5156 73.8156,324.875 Z "/><text fill="#000000" font-family="sans-serif" font-size="12" lengthAdjust="spacingAndGlyphs" textLength="62" x="86.95" y="333.9102">OpMetaInfo</text><line style="stroke: #A80036; stroke-width: 1.5;" x1="48.5" x2="159.5" y1="345" y2="345"/><text fill="#000000" font-family="sans-serif" font-size="11" lengthAdjust="spacingAndGlyphs" textLength="92" x="53.5" y="360.4189">qualfied_name : str</text><text fill="#000000" font-family="sans-serif" font-size="11" lengthAdjust="spacingAndGlyphs" textLength="101" x="53.5" y="374.2549">header : OrderedDict</text><text fill="#000000" font-family="sans-serif" font-size="11" lengthAdjust="spacingAndGlyphs" textLength="90" x="53.5" y="388.0908">input : OrderedDict</text><text fill="#000000" font-family="sans-serif" font-size="11" lengthAdjust="spacingAndGlyphs" textLength="97" x="53.5" y="401.9268">output : OrderedDict</text><line style="stroke: #A80036; stroke-width: 1.5;" x1="48.5" x2="159.5" y1="408.3438" y2="408.3438"/><path d="M104,111.242 C104,122.576 104,134.396 104,145.487 " fill="none" style="stroke: #A80036; stroke-width: 1.0;"/><polygon fill="#A80036" points="104,158.572,108,149.572,104,153.572,100,149.572,104,158.572" style="stroke: #A80036; stroke-width: 1.0;"/><line style="stroke: #A80036; stroke-width: 1.0;" x1="104" x2="104.0001" y1="153.572" y2="145.572"/><polygon fill="#FFFFFF" points="104,98.151,100,104.151,104,110.151,108,104.151,104,98.151" style="stroke: #A80036; stroke-width: 1.0;"/><text fill="#000000" font-family="sans-serif" font-size="13" lengthAdjust="spacingAndGlyphs" textLength="9" x="94.2266" y="148.1457">N</text><path d="M104,235.141 C104,256.584 104,283.969 104,307.932 " fill="none" style="stroke: #A80036; stroke-width: 1.0;"/><polygon fill="#A80036" points="104,312.99,108,303.99,104,307.99,100,303.99,104,312.99" style="stroke: #A80036; stroke-width: 1.0;"/><text fill="#000000" font-family="sans-serif" font-size="13" lengthAdjust="spacingAndGlyphs" textLength="77" x="105" y="279.4951">op_meta_info</text></g></svg>