<?xml version="1.0" encoding="UTF-8" standalone="yes"?><!--
  ~ The MIT License (MIT)
  ~ Copyright (c) 2016, 2017 by the ESA CCI Toolbox development team and contributors
  ~
  ~ Permission is hereby granted, free of charge, to any person obtaining a copy of
  ~ this software and associated documentation files (the "Software"), to deal in
  ~ the Software without restriction, including without limitation the rights to
  ~ use, copy, modify, merge, publish, distribute, sublicense, and/or sell copies
  ~ of the Software, and to permit persons to whom the Software is furnished to do
  ~ so, subject to the following conditions:
  ~
  ~ The above copyright notice and this permission notice shall be included in all
  ~ copies or substantial portions of the Software.
  ~
  ~ THE SOFTWARE IS PROVIDED "AS IS", WITHOUT WARRANTY OF ANY KIND, EXPRESS OR
  ~ IMPLIED, INCLUDING BUT NOT LIMITED TO THE WARRANTIES OF MERCHANTABILITY,
  ~ FITNESS FOR A PARTICULAR PURPOSE AND NONINFRINGEMENT. IN NO EVENT SHALL THE
  ~ AUTHORS OR COPYRIGHT HOLDERS BE LIABLE FOR ANY CLAIM, DAMAGES OR OTHER
  ~ LIABILITY, WHETHER IN AN ACTION OF CONTRACT, TORT OR OTHERWISE, ARISING FROM,
  ~ OUT OF OR IN CONNECTION WITH THE SOFTWARE OR THE USE OR OTHER DEALINGS IN THE
  ~ SOFTWARE.
  ~
  -->

<svg xmlns="http://www.w3.org/2000/svg" xmlns:xlink="http://www.w3.org/1999/xlink" height="457px" style="width:461px;height:457px;" version="1.1" viewBox="0 0 461 457" width="461px"><defs><filter height="300%" id="f1" width="300%" x="-1" y="-1"><feGaussianBlur result="blurOut" stdDeviation="2.0"/><feColorMatrix in="blurOut" result="blurOut2" type="matrix" values="0 0 0 0 0 0 0 0 0 0 0 0 0 0 0 0 0 0 .4 0"/><feOffset dx="4.0" dy="4.0" in="blurOut2" result="blurOut3"/><feBlend in="SourceGraphic" in2="blurOut3" mode="normal"/></filter></defs><g><rect fill="#FEFECE" filter="url(#f1)" height="77.4063" style="stroke: #A80036; stroke-width: 1.5;" width="163" x="38" y="14.5"/><text fill="#000000" font-family="sans-serif" font-size="12" lengthAdjust="spacingAndGlyphs" textLength="41" x="99" y="28.957">globals</text><line style="stroke: #A80036; stroke-width: 1.5;" x1="39" x2="200" y1="33.5938" y2="33.5938"/><text fill="#000000" font-family="sans-serif" font-size="10" lengthAdjust="spacingAndGlyphs" textLength="131" x="44" y="47.9746">OP_REGISTRY: OpRegistry</text><text fill="#000000" font-family="sans-serif" font-size="10" lengthAdjust="spacingAndGlyphs" textLength="82" x="44" y="60.5527">@op(**properties)</text><text fill="#000000" font-family="sans-serif" font-size="10" lengthAdjust="spacingAndGlyphs" textLength="145" x="44" y="73.1309">@op_input(name, **properties)</text><text fill="#000000" font-family="sans-serif" font-size="10" lengthAdjust="spacingAndGlyphs" textLength="151" x="44" y="85.709">@op_output(name, **properties)</text><polygon fill="#FBFB77" filter="url(#f1)" points="6,159,6,267.1094,233,267.1094,233,169,223,159,6,159" style="stroke: #A80036; stroke-width: 1.0;"/><polygon fill="#FBFB77" points="6,159,6,267.1094,233,267.1094,233,169,223,159,123.5,159,119.5,91.845,115.5,159,6,159" style="stroke: #A80036; stroke-width: 1.0;"/><line style="stroke: #A80036; stroke-width: 1.0;" x1="223" x2="223" y1="159" y2="169"/><line style="stroke: #A80036; stroke-width: 1.0;" x1="233" x2="223" y1="169" y2="169"/><text fill="#000000" font-family="sans-serif" font-size="13" lengthAdjust="spacingAndGlyphs" textLength="206" x="12" y="177.4951">Plugins can extend OP_REGISTRY</text><text fill="#000000" font-family="sans-serif" font-size="13" lengthAdjust="spacingAndGlyphs" textLength="177" x="12" y="193.8467">by adding new operations to it.</text><text fill="#000000" font-family="sans-serif" font-size="13" lengthAdjust="spacingAndGlyphs" textLength="0" x="16" y="210.1982"/><text fill="#000000" font-family="sans-serif" font-size="13" lengthAdjust="spacingAndGlyphs" textLength="181" x="12" y="226.5498">To register a Python function or</text><text fill="#000000" font-family="sans-serif" font-size="13" lengthAdjust="spacingAndGlyphs" textLength="162" x="12" y="242.9014">class, the @op, @op_input,</text><text fill="#000000" font-family="sans-serif" font-size="13" lengthAdjust="spacingAndGlyphs" textLength="193" x="12" y="259.2529">@op_output decorators are used.</text><rect fill="#FEFECE" filter="url(#f1)" height="89.5078" style="stroke: #A80036; stroke-width: 1.5;" width="196" x="256.5" y="8"/><ellipse cx="319.75" cy="24" fill="#ADD1B2" rx="11" ry="11" style="stroke: #A80036; stroke-width: 1.0;"/><path d="M322.5156,19.875 Q322.6719,19.6563 322.8594,19.5469 Q323.0469,19.4375 323.2656,19.4375 Q323.6406,19.4375 323.875,19.6953 Q324.1094,19.9531 324.1094,20.5625 L324.1094,22.0156 Q324.1094,22.625 323.875,22.8906 Q323.6406,23.1563 323.2656,23.1563 Q322.9219,23.1563 322.7188,22.9531 Q322.5156,22.7656 322.4063,22.25 Q322.3594,21.8906 322.1719,21.7031 Q321.8438,21.3281 321.2344,21.1094 Q320.625,20.8906 320,20.8906 Q319.2344,20.8906 318.6016,21.2188 Q317.9688,21.5469 317.4766,22.2969 Q316.9844,23.0469 316.9844,24.0781 L316.9844,25.1719 Q316.9844,26.4063 317.875,27.2266 Q318.7656,28.0469 320.3594,28.0469 Q321.2969,28.0469 321.9531,27.7969 Q322.3438,27.6406 322.7656,27.2031 Q323.0313,26.9375 323.1797,26.8594 Q323.3281,26.7813 323.5313,26.7813 Q323.8594,26.7813 324.1172,27.0391 Q324.375,27.2969 324.375,27.6406 Q324.375,27.9844 324.0313,28.3906 Q323.5313,28.9688 322.7344,29.2969 Q321.6563,29.75 320.3594,29.75 Q318.8438,29.75 317.6406,29.125 Q316.6563,28.625 315.9688,27.5547 Q315.2813,26.4844 315.2813,25.2031 L315.2813,24.0469 Q315.2813,22.7188 315.8984,21.5703 Q316.5156,20.4219 317.6094,19.8047 Q318.7031,19.1875 319.9375,19.1875 Q320.6719,19.1875 321.3203,19.3516 Q321.9688,19.5156 322.5156,19.875 Z "/><text fill="#000000" font-family="sans-serif" font-size="12" lengthAdjust="spacingAndGlyphs" textLength="61" x="340.25" y="28.9102">OpRegistry</text><line style="stroke: #A80036; stroke-width: 1.5;" x1="257.5" x2="451.5" y1="40" y2="40"/><line style="stroke: #A80036; stroke-width: 1.5;" x1="257.5" x2="451.5" y1="48" y2="48"/><text fill="#000000" font-family="sans-serif" font-size="11" lengthAdjust="spacingAndGlyphs" textLength="144" x="262.5" y="63.4189">get_op(name): Operation</text><text fill="#000000" font-family="sans-serif" font-size="11" lengthAdjust="spacingAndGlyphs" textLength="166" x="262.5" y="77.2549">add_op(operation): Operation</text><text fill="#000000" font-family="sans-serif" font-size="11" lengthAdjust="spacingAndGlyphs" textLength="184" x="262.5" y="91.0908">remove_op(operation): Operation</text><rect fill="#FEFECE" filter="url(#f1)" height="75.6719" style="stroke: #A80036; stroke-width: 1.5;" width="172" x="268.5" y="175"/><ellipse cx="309.15" cy="191" fill="#ADD1B2" rx="11" ry="11" style="stroke: #A80036; stroke-width: 1.0;"/><path d="M311.9156,186.875 Q312.0719,186.6563 312.2594,186.5469 Q312.4469,186.4375 312.6656,186.4375 Q313.0406,186.4375 313.275,186.6953 Q313.5094,186.9531 313.5094,187.5625 L313.5094,189.0156 Q313.5094,189.625 313.275,189.8906 Q313.0406,190.1563 312.6656,190.1563 Q312.3219,190.1563 312.1188,189.9531 Q311.9156,189.7656 311.8063,189.25 Q311.7594,188.8906 311.5719,188.7031 Q311.2438,188.3281 310.6344,188.1094 Q310.025,187.8906 309.4,187.8906 Q308.6344,187.8906 308.0016,188.2188 Q307.3688,188.5469 306.8766,189.2969 Q306.3844,190.0469 306.3844,191.0781 L306.3844,192.1719 Q306.3844,193.4063 307.275,194.2266 Q308.1656,195.0469 309.7594,195.0469 Q310.6969,195.0469 311.3531,194.7969 Q311.7438,194.6406 312.1656,194.2031 Q312.4313,193.9375 312.5797,193.8594 Q312.7281,193.7813 312.9313,193.7813 Q313.2594,193.7813 313.5172,194.0391 Q313.775,194.2969 313.775,194.6406 Q313.775,194.9844 313.4313,195.3906 Q312.9313,195.9688 312.1344,196.2969 Q311.0563,196.75 309.7594,196.75 Q308.2438,196.75 307.0406,196.125 Q306.0563,195.625 305.3688,194.5547 Q304.6813,193.4844 304.6813,192.2031 L304.6813,191.0469 Q304.6813,189.7188 305.2984,188.5703 Q305.9156,187.4219 307.0094,186.8047 Q308.1031,186.1875 309.3375,186.1875 Q310.0719,186.1875 310.7203,186.3516 Q311.3688,186.5156 311.9156,186.875 Z "/><text fill="#000000" font-family="sans-serif" font-size="12" lengthAdjust="spacingAndGlyphs" textLength="83" x="328.85" y="195.9102">Operation</text><line style="stroke: #A80036; stroke-width: 1.5;" x1="269.5" x2="439.5" y1="207" y2="207"/><text fill="#000000" font-family="sans-serif" font-size="11" lengthAdjust="spacingAndGlyphs" textLength="80" x="274.5" y="222.4189">operation: object</text><line style="stroke: #A80036; stroke-width: 1.5;" x1="269.5" x2="439.5" y1="228.8359" y2="228.8359"/><text fill="#000000" font-family="sans-serif" font-size="11" lengthAdjust="spacingAndGlyphs" textLength="160" x="274.5" y="244.2549">__call__(*args, **kwargs): object</text><rect fill="#FEFECE" filter="url(#f1)" height="103.3438" style="stroke: #A80036; stroke-width: 1.5;" width="113" x="298" y="345"/><ellipse cx="321.55" cy="361" fill="#ADD1B2" rx="11" ry="11" style="stroke: #A80036; stroke-width: 1.0;"/><path d="M324.3156,356.875 Q324.4719,356.6563 324.6594,356.5469 Q324.8469,356.4375 325.0656,356.4375 Q325.4406,356.4375 325.675,356.6953 Q325.9094,356.9531 325.9094,357.5625 L325.9094,359.0156 Q325.9094,359.625 325.675,359.8906 Q325.4406,360.1563 325.0656,360.1563 Q324.7219,360.1563 324.5188,359.9531 Q324.3156,359.7656 324.2063,359.25 Q324.1594,358.8906 323.9719,358.7031 Q323.6438,358.3281 323.0344,358.1094 Q322.425,357.8906 321.8,357.8906 Q321.0344,357.8906 320.4016,358.2188 Q319.7688,358.5469 319.2766,359.2969 Q318.7844,360.0469 318.7844,361.0781 L318.7844,362.1719 Q318.7844,363.4063 319.675,364.2266 Q320.5656,365.0469 322.1594,365.0469 Q323.0969,365.0469 323.7531,364.7969 Q324.1438,364.6406 324.5656,364.2031 Q324.8313,363.9375 324.9797,363.8594 Q325.1281,363.7813 325.3313,363.7813 Q325.6594,363.7813 325.9172,364.0391 Q326.175,364.2969 326.175,364.6406 Q326.175,364.9844 325.8313,365.3906 Q325.3313,365.9688 324.5344,366.2969 Q323.4563,366.75 322.1594,366.75 Q320.6438,366.75 319.4406,366.125 Q318.4563,365.625 317.7688,364.5547 Q317.0813,363.4844 317.0813,362.2031 L317.0813,361.0469 Q317.0813,359.7188 317.6984,358.5703 Q318.3156,357.4219 319.4094,356.8047 Q320.5031,356.1875 321.7375,356.1875 Q322.4719,356.1875 323.1203,356.3516 Q323.7688,356.5156 324.3156,356.875 Z "/><text fill="#000000" font-family="sans-serif" font-size="12" lengthAdjust="spacingAndGlyphs" textLength="62" x="337.45" y="365.9102">OpMetaInfo</text><line style="stroke: #A80036; stroke-width: 1.5;" x1="299" x2="410" y1="377" y2="377"/><text fill="#000000" font-family="sans-serif" font-size="11" lengthAdjust="spacingAndGlyphs" textLength="94" x="304" y="392.4189">qualified_name : str</text><text fill="#000000" font-family="sans-serif" font-size="11" lengthAdjust="spacingAndGlyphs" textLength="101" x="304" y="406.2549">header : OrderedDict</text><text fill="#000000" font-family="sans-serif" font-size="11" lengthAdjust="spacingAndGlyphs" textLength="90" x="304" y="420.0908">input : OrderedDict</text><text fill="#000000" font-family="sans-serif" font-size="11" lengthAdjust="spacingAndGlyphs" textLength="97" x="304" y="433.9268">output : OrderedDict</text><line style="stroke: #A80036; stroke-width: 1.5;" x1="299" x2="410" y1="440.3438" y2="440.3438"/><path d="M354.5,111.215 C354.5,127.796 354.5,145.767 354.5,161.879 " fill="none" style="stroke: #A80036; stroke-width: 1.0;"/><polygon fill="#A80036" points="354.5,174.905,358.5,165.905,354.5,169.905,350.5,165.905,354.5,174.905" style="stroke: #A80036; stroke-width: 1.0;"/><line style="stroke: #A80036; stroke-width: 1.0;" x1="354.5" x2="354.5" y1="169.905" y2="161.905"/><polygon fill="#FFFFFF" points="354.5,98.012,350.5,104.012,354.5,110.012,358.5,104.012,354.5,98.012" style="stroke: #A80036; stroke-width: 1.0;"/><text fill="#000000" font-family="sans-serif" font-size="13" lengthAdjust="spacingAndGlyphs" textLength="9" x="344.6984" y="164.25">N</text><path d="M354.5,251.167 C354.5,276.65 354.5,310.914 354.5,339.663 " fill="none" style="stroke: #A80036; stroke-width: 1.0;"/><polygon fill="#A80036" points="354.5,344.964,358.5,335.964,354.5,339.964,350.5,335.964,354.5,344.964" style="stroke: #A80036; stroke-width: 1.0;"/><text fill="#000000" font-family="sans-serif" font-size="13" lengthAdjust="spacingAndGlyphs" textLength="77" x="355.5" y="311.4951">op_meta_info</text></g></svg>