<?xml version="1.0" encoding="UTF-8" standalone="yes"?><svg xmlns="http://www.w3.org/2000/svg" xmlns:xlink="http://www.w3.org/1999/xlink" height="806px" style="width:901px;height:806px;" version="1.1" viewBox="0 0 901 806" width="901px"><defs><filter height="300%" id="f1" width="300%" x="-1" y="-1"><feGaussianBlur result="blurOut" stdDeviation="2.0"/><feColorMatrix in="blurOut" result="blurOut2" type="matrix" values="0 0 0 0 0 0 0 0 0 0 0 0 0 0 0 0 0 0 .4 0"/><feOffset dx="4.0" dy="4.0" in="blurOut2" result="blurOut3"/><feBlend in="SourceGraphic" in2="blurOut3" mode="normal"/></filter></defs><g><text fill="#000000" font-family="sans-serif" font-size="14" font-weight="bold" lengthAdjust="spacingAndGlyphs" textLength="629" x="137.5" y="22.9951">Cate Frontend/Backend communication using the "React" state transition model</text><rect fill="#E9967A" filter="url(#f1)" height="59.1328" style="stroke: #A80036; stroke-width: 1.0;" width="10" x="107.5" y="147.5938"/><rect fill="#E9967A" filter="url(#f1)" height="30" style="stroke: #A80036; stroke-width: 1.0;" width="10" x="107.5" y="671.1875"/><rect fill="#E9967A" filter="url(#f1)" height="89.1328" style="stroke: #A80036; stroke-width: 1.0;" width="10" x="248" y="176.7266"/><rect fill="#E9967A" filter="url(#f1)" height="250.7969" style="stroke: #A80036; stroke-width: 1.0;" width="10" x="248" y="362.125"/><rect fill="#FFA07A" filter="url(#f1)" height="64.1328" style="stroke: #A80036; stroke-width: 1.0;" width="10" x="253" y="548.7891"/><rect fill="#E9967A" filter="url(#f1)" height="59.1328" style="stroke: #A80036; stroke-width: 1.0;" width="10" x="400" y="642.0547"/><rect fill="#E9967A" filter="url(#f1)" height="118.2656" style="stroke: #A80036; stroke-width: 1.0;" width="10" x="539" y="582.9219"/><rect fill="#E9967A" filter="url(#f1)" height="154.2656" style="stroke: #A80036; stroke-width: 1.0;" width="10" x="681" y="235.8594"/><rect fill="#FFA07A" filter="url(#f1)" height="28" style="stroke: #A80036; stroke-width: 1.0;" width="10" x="686" y="362.125"/><rect fill="#E9967A" filter="url(#f1)" height="30" style="stroke: #A80036; stroke-width: 1.0;" width="10" x="681" y="453.957"/><rect fill="#E9967A" filter="url(#f1)" height="30" style="stroke: #A80036; stroke-width: 1.0;" width="10" x="833" y="294.9922"/><rect fill="#EEEEEE" height="771.3203" style="stroke: #A80036; stroke-width: 1.0;" width="555" x="52" y="34.2969"/><text fill="#000000" font-family="sans-serif" font-size="13" font-weight="bold" lengthAdjust="spacingAndGlyphs" textLength="67" x="296" y="46.3638">Frontend</text><rect fill="#D3D3D3" height="771.3203" style="stroke: #A80036; stroke-width: 1.0;" width="291" x="609" y="34.2969"/><text fill="#000000" font-family="sans-serif" font-size="13" font-weight="bold" lengthAdjust="spacingAndGlyphs" textLength="64" x="722.5" y="46.3638">Backend</text><line style="stroke: #A80036; stroke-width: 1.0; stroke-dasharray: 5.0,5.0;" x1="27" x2="27" y1="116.5938" y2="719.3203"/><line style="stroke: #A80036; stroke-width: 1.0; stroke-dasharray: 5.0,5.0;" x1="112" x2="112" y1="116.5938" y2="719.3203"/><line style="stroke: #A80036; stroke-width: 1.0; stroke-dasharray: 5.0,5.0;" x1="253" x2="253" y1="116.5938" y2="719.3203"/><line style="stroke: #A80036; stroke-width: 1.0; stroke-dasharray: 5.0,5.0;" x1="405" x2="405" y1="116.5938" y2="719.3203"/><line style="stroke: #A80036; stroke-width: 1.0; stroke-dasharray: 5.0,5.0;" x1="544" x2="544" y1="116.5938" y2="719.3203"/><line style="stroke: #A80036; stroke-width: 1.0; stroke-dasharray: 5.0,5.0;" x1="686" x2="686" y1="116.5938" y2="719.3203"/><line style="stroke: #A80036; stroke-width: 1.0; stroke-dasharray: 5.0,5.0;" x1="838" x2="838" y1="116.5938" y2="719.3203"/><text fill="#000000" font-family="sans-serif" font-size="14" lengthAdjust="spacingAndGlyphs" textLength="32" x="8" y="113.292">User</text><ellipse cx="27" cy="43.2969" fill="#FEFECE" filter="url(#f1)" rx="8" ry="8" style="stroke: #A80036; stroke-width: 2.0;"/><path d="M27,51.2969 L27,78.2969 M14,59.2969 L40,59.2969 M27,78.2969 L14,93.2969 M27,78.2969 L40,93.2969 " fill="#FEFECE" filter="url(#f1)" style="stroke: #A80036; stroke-width: 2.0;"/><text fill="#000000" font-family="sans-serif" font-size="14" lengthAdjust="spacingAndGlyphs" textLength="32" x="8" y="731.3154">User</text><ellipse cx="27" cy="744.6172" fill="#FEFECE" filter="url(#f1)" rx="8" ry="8" style="stroke: #A80036; stroke-width: 2.0;"/><path d="M27,752.6172 L27,779.6172 M14,760.6172 L40,760.6172 M27,779.6172 L14,794.6172 M27,779.6172 L40,794.6172 " fill="#FEFECE" filter="url(#f1)" style="stroke: #A80036; stroke-width: 2.0;"/><rect fill="#FEFECE" filter="url(#f1)" height="30.2969" style="stroke: #A80036; stroke-width: 1.5;" width="109" x="56" y="81.2969"/><text fill="#000000" font-family="sans-serif" font-size="14" lengthAdjust="spacingAndGlyphs" textLength="95" x="63" y="101.292">FrontendView</text><rect fill="#FEFECE" filter="url(#f1)" height="30.2969" style="stroke: #A80036; stroke-width: 1.5;" width="109" x="56" y="718.3203"/><text fill="#000000" font-family="sans-serif" font-size="14" lengthAdjust="spacingAndGlyphs" textLength="95" x="63" y="738.3154">FrontendView</text><rect fill="#FEFECE" filter="url(#f1)" height="30.2969" style="stroke: #A80036; stroke-width: 1.5;" width="144" x="179" y="81.2969"/><text fill="#000000" font-family="sans-serif" font-size="14" lengthAdjust="spacingAndGlyphs" textLength="130" x="186" y="101.292">FrontendController</text><rect fill="#FEFECE" filter="url(#f1)" height="30.2969" style="stroke: #A80036; stroke-width: 1.5;" width="144" x="179" y="718.3203"/><text fill="#000000" font-family="sans-serif" font-size="14" lengthAdjust="spacingAndGlyphs" textLength="130" x="186" y="738.3154">FrontendController</text><rect fill="#FEFECE" filter="url(#f1)" height="30.2969" style="stroke: #A80036; stroke-width: 1.5;" width="132" x="337" y="81.2969"/><text fill="#000000" font-family="sans-serif" font-size="14" lengthAdjust="spacingAndGlyphs" textLength="118" x="344" y="101.292">FrontendListener</text><rect fill="#FEFECE" filter="url(#f1)" height="30.2969" style="stroke: #A80036; stroke-width: 1.5;" width="132" x="337" y="718.3203"/><text fill="#000000" font-family="sans-serif" font-size="14" lengthAdjust="spacingAndGlyphs" textLength="118" x="344" y="738.3154">FrontendListener</text><rect fill="#FEFECE" filter="url(#f1)" height="30.2969" style="stroke: #A80036; stroke-width: 1.5;" width="114" x="485" y="81.2969"/><text fill="#000000" font-family="sans-serif" font-size="14" lengthAdjust="spacingAndGlyphs" textLength="100" x="492" y="101.292">FrontendStore</text><rect fill="#FEFECE" filter="url(#f1)" height="30.2969" style="stroke: #A80036; stroke-width: 1.5;" width="114" x="485" y="718.3203"/><text fill="#000000" font-family="sans-serif" font-size="14" lengthAdjust="spacingAndGlyphs" textLength="100" x="492" y="738.3154">FrontendStore</text><rect fill="#FEFECE" filter="url(#f1)" height="30.2969" style="stroke: #A80036; stroke-width: 1.5;" width="142" x="613" y="81.2969"/><text fill="#000000" font-family="sans-serif" font-size="14" lengthAdjust="spacingAndGlyphs" textLength="128" x="620" y="101.292">BackendController</text><rect fill="#FEFECE" filter="url(#f1)" height="30.2969" style="stroke: #A80036; stroke-width: 1.5;" width="142" x="613" y="718.3203"/><text fill="#000000" font-family="sans-serif" font-size="14" lengthAdjust="spacingAndGlyphs" textLength="128" x="620" y="738.3154">BackendController</text><rect fill="#FEFECE" filter="url(#f1)" height="30.2969" style="stroke: #A80036; stroke-width: 1.5;" width="112" x="780" y="81.2969"/><text fill="#000000" font-family="sans-serif" font-size="14" lengthAdjust="spacingAndGlyphs" textLength="98" x="787" y="101.292">BackendStore</text><rect fill="#FEFECE" filter="url(#f1)" height="30.2969" style="stroke: #A80036; stroke-width: 1.5;" width="112" x="780" y="718.3203"/><text fill="#000000" font-family="sans-serif" font-size="14" lengthAdjust="spacingAndGlyphs" textLength="98" x="787" y="738.3154">BackendStore</text><rect fill="#E9967A" filter="url(#f1)" height="59.1328" style="stroke: #A80036; stroke-width: 1.0;" width="10" x="107.5" y="147.5938"/><rect fill="#E9967A" filter="url(#f1)" height="30" style="stroke: #A80036; stroke-width: 1.0;" width="10" x="107.5" y="671.1875"/><rect fill="#E9967A" filter="url(#f1)" height="89.1328" style="stroke: #A80036; stroke-width: 1.0;" width="10" x="248" y="176.7266"/><rect fill="#E9967A" filter="url(#f1)" height="250.7969" style="stroke: #A80036; stroke-width: 1.0;" width="10" x="248" y="362.125"/><rect fill="#FFA07A" filter="url(#f1)" height="64.1328" style="stroke: #A80036; stroke-width: 1.0;" width="10" x="253" y="548.7891"/><rect fill="#E9967A" filter="url(#f1)" height="59.1328" style="stroke: #A80036; stroke-width: 1.0;" width="10" x="400" y="642.0547"/><rect fill="#E9967A" filter="url(#f1)" height="118.2656" style="stroke: #A80036; stroke-width: 1.0;" width="10" x="539" y="582.9219"/><rect fill="#E9967A" filter="url(#f1)" height="154.2656" style="stroke: #A80036; stroke-width: 1.0;" width="10" x="681" y="235.8594"/><rect fill="#FFA07A" filter="url(#f1)" height="28" style="stroke: #A80036; stroke-width: 1.0;" width="10" x="686" y="362.125"/><rect fill="#E9967A" filter="url(#f1)" height="30" style="stroke: #A80036; stroke-width: 1.0;" width="10" x="681" y="453.957"/><rect fill="#E9967A" filter="url(#f1)" height="30" style="stroke: #A80036; stroke-width: 1.0;" width="10" x="833" y="294.9922"/><polygon fill="#A80036" points="95.5,143.5938,105.5,147.5938,95.5,151.5938,99.5,147.5938" style="stroke: #A80036; stroke-width: 1.0;"/><line style="stroke: #A80036; stroke-width: 1.0;" x1="27" x2="101.5" y1="147.5938" y2="147.5938"/><text fill="#000000" font-family="sans-serif" font-size="13" lengthAdjust="spacingAndGlyphs" textLength="54" x="34" y="142.6606">* click! *</text><polygon fill="#A80036" points="236,172.7266,246,176.7266,236,180.7266,240,176.7266" style="stroke: #A80036; stroke-width: 1.0;"/><line style="stroke: #A80036; stroke-width: 1.0;" x1="117.5" x2="242" y1="176.7266" y2="176.7266"/><text fill="#000000" font-family="sans-serif" font-size="13" lengthAdjust="spacingAndGlyphs" textLength="103" x="124.5" y="171.7935">dispatch(action)</text><polygon fill="#A80036" points="669,231.8594,679,235.8594,669,239.8594,673,235.8594" style="stroke: #A80036; stroke-width: 1.0;"/><line style="stroke: #A80036; stroke-width: 1.0;" x1="258" x2="675" y1="235.8594" y2="235.8594"/><text fill="#000000" font-family="sans-serif" font-size="13" lengthAdjust="spacingAndGlyphs" textLength="103" x="265" y="230.9263">dispatch(action)</text><polygon fill="#A80036" points="821,290.9922,831,294.9922,821,298.9922,825,294.9922" style="stroke: #A80036; stroke-width: 1.0;"/><line style="stroke: #A80036; stroke-width: 1.0;" x1="691" x2="827" y1="294.9922" y2="294.9922"/><text fill="#000000" font-family="sans-serif" font-size="13" lengthAdjust="spacingAndGlyphs" textLength="103" x="698" y="290.0591">dispatch(action)</text><line style="stroke: #A80036; stroke-width: 1.0;" x1="696" x2="738" y1="354.2578" y2="354.2578"/><line style="stroke: #A80036; stroke-width: 1.0;" x1="738" x2="738" y1="354.2578" y2="367.2578"/><line style="stroke: #A80036; stroke-width: 1.0;" x1="697" x2="738" y1="367.2578" y2="367.2578"/><polygon fill="#A80036" points="707,363.2578,697,367.2578,707,371.2578,703,367.2578" style="stroke: #A80036; stroke-width: 1.0;"/><text fill="#000000" font-family="sans-serif" font-size="13" lengthAdjust="spacingAndGlyphs" textLength="128" x="703" y="349.1919">store_action(action)</text><polygon fill="#A80036" points="669,449.957,679,453.957,669,457.957,673,453.957" style="stroke: #A80036; stroke-width: 1.0;"/><line style="stroke: #A80036; stroke-width: 1.0;" x1="258" x2="675" y1="453.957" y2="453.957"/><text fill="#000000" font-family="sans-serif" font-size="13" lengthAdjust="spacingAndGlyphs" textLength="318" x="265" y="449.0239">get_new_actions(timestamp): timestamp, actions</text><polygon fill="#FBFB77" filter="url(#f1)" points="51,410.2578,51,480.2578,239,480.2578,239,420.2578,229,410.2578,51,410.2578" style="stroke: #A80036; stroke-width: 1.0;"/><line style="stroke: #A80036; stroke-width: 1.0;" x1="229" x2="229" y1="410.2578" y2="420.2578"/><line style="stroke: #A80036; stroke-width: 1.0;" x1="239" x2="229" y1="420.2578" y2="420.2578"/><text fill="#000000" font-family="sans-serif" font-size="13" lengthAdjust="spacingAndGlyphs" textLength="126" x="57" y="427.3247">Getting new actions</text><text fill="#000000" font-family="sans-serif" font-size="13" lengthAdjust="spacingAndGlyphs" textLength="149" x="57" y="442.4575">is done asynchronously</text><text fill="#000000" font-family="sans-serif" font-size="13" lengthAdjust="spacingAndGlyphs" textLength="167" x="57" y="457.5903">from a background thread</text><text fill="#000000" font-family="sans-serif" font-size="13" lengthAdjust="spacingAndGlyphs" textLength="145" x="57" y="472.7231">that polls e.g. all 50ms</text><line style="stroke: #A80036; stroke-width: 1.0;" x1="258" x2="305" y1="535.9219" y2="535.9219"/><line style="stroke: #A80036; stroke-width: 1.0;" x1="305" x2="305" y1="535.9219" y2="548.9219"/><line style="stroke: #A80036; stroke-width: 1.0;" x1="264" x2="305" y1="548.9219" y2="548.9219"/><polygon fill="#A80036" points="274,544.9219,264,548.9219,274,552.9219,270,548.9219" style="stroke: #A80036; stroke-width: 1.0;"/><text fill="#000000" font-family="sans-serif" font-size="13" lengthAdjust="spacingAndGlyphs" textLength="85" x="270" y="530.856">for all actions</text><polygon fill="#A80036" points="527,578.9219,537,582.9219,527,586.9219,531,582.9219" style="stroke: #A80036; stroke-width: 1.0;"/><line style="stroke: #A80036; stroke-width: 1.0;" x1="263" x2="533" y1="582.9219" y2="582.9219"/><text fill="#000000" font-family="sans-serif" font-size="13" lengthAdjust="spacingAndGlyphs" textLength="103" x="270" y="577.9888">dispatch(action)</text><polygon fill="#A80036" points="421,638.0547,411,642.0547,421,646.0547,417,642.0547" style="stroke: #A80036; stroke-width: 1.0;"/><line style="stroke: #A80036; stroke-width: 1.0;" x1="415" x2="538" y1="642.0547" y2="642.0547"/><text fill="#000000" font-family="sans-serif" font-size="13" lengthAdjust="spacingAndGlyphs" textLength="110" x="427" y="637.1216">notify(new_state)</text><polygon fill="#A80036" points="128.5,667.1875,118.5,671.1875,128.5,675.1875,124.5,671.1875" style="stroke: #A80036; stroke-width: 1.0;"/><line style="stroke: #A80036; stroke-width: 1.0;" x1="122.5" x2="399" y1="671.1875" y2="671.1875"/><text fill="#000000" font-family="sans-serif" font-size="13" lengthAdjust="spacingAndGlyphs" textLength="52" x="134.5" y="666.2544">render()</text></g></svg>