<?xml version="1.0" encoding="UTF-8" standalone="yes"?><svg xmlns="http://www.w3.org/2000/svg" xmlns:xlink="http://www.w3.org/1999/xlink" height="826px" style="width:837px;height:826px;" version="1.1" viewBox="0 0 837 826" width="837px"><defs><filter height="300%" id="f1" width="300%" x="-1" y="-1"><feGaussianBlur result="blurOut" stdDeviation="2.0"/><feColorMatrix in="blurOut" result="blurOut2" type="matrix" values="0 0 0 0 0 0 0 0 0 0 0 0 0 0 0 0 0 0 .4 0"/><feOffset dx="4.0" dy="4.0" in="blurOut2" result="blurOut3"/><feBlend in="SourceGraphic" in2="blurOut3" mode="normal"/></filter></defs><g><text fill="#000000" font-family="sans-serif" font-size="14" font-weight="bold" lengthAdjust="spacingAndGlyphs" textLength="561" x="139.5" y="24.5332">Cate Frontend/Backend communication using the "React" state transition model</text><rect fill="#E9967A" filter="url(#f1)" height="60.3516" style="stroke: #A80036; stroke-width: 1.0;" width="10" x="100.5" y="151.2188"/><rect fill="#E9967A" filter="url(#f1)" height="30" style="stroke: #A80036; stroke-width: 1.0;" width="10" x="100.5" y="689.4375"/><rect fill="#E9967A" filter="url(#f1)" height="90.3516" style="stroke: #A80036; stroke-width: 1.0;" width="10" x="232" y="181.5703"/><rect fill="#E9967A" filter="url(#f1)" height="258.1094" style="stroke: #A80036; stroke-width: 1.0;" width="10" x="232" y="370.625"/><rect fill="#FFA07A" filter="url(#f1)" height="65.3516" style="stroke: #A80036; stroke-width: 1.0;" width="10" x="237" y="563.3828"/><rect fill="#E9967A" filter="url(#f1)" height="60.3516" style="stroke: #A80036; stroke-width: 1.0;" width="10" x="374.5" y="659.0859"/><rect fill="#E9967A" filter="url(#f1)" height="120.7031" style="stroke: #A80036; stroke-width: 1.0;" width="10" x="503" y="598.7344"/><rect fill="#E9967A" filter="url(#f1)" height="156.7031" style="stroke: #A80036; stroke-width: 1.0;" width="10" x="635.5" y="241.9219"/><rect fill="#FFA07A" filter="url(#f1)" height="28" style="stroke: #A80036; stroke-width: 1.0;" width="10" x="640.5" y="370.625"/><rect fill="#E9967A" filter="url(#f1)" height="30" style="stroke: #A80036; stroke-width: 1.0;" width="10" x="635.5" y="465.5039"/><rect fill="#E9967A" filter="url(#f1)" height="30" style="stroke: #A80036; stroke-width: 1.0;" width="10" x="773.5" y="302.2734"/><rect fill="#EEEEEE" height="789.7891" style="stroke: #A80036; stroke-width: 1.0;" width="518" x="49" y="35.6094"/><text fill="#000000" font-family="sans-serif" font-size="13" font-weight="bold" lengthAdjust="spacingAndGlyphs" textLength="57" x="279.5" y="49.1045">Frontend</text><rect fill="#D3D3D3" height="789.7891" style="stroke: #A80036; stroke-width: 1.0;" width="267" x="569" y="35.6094"/><text fill="#000000" font-family="sans-serif" font-size="13" font-weight="bold" lengthAdjust="spacingAndGlyphs" textLength="55" x="675" y="49.1045">Backend</text><line style="stroke: #A80036; stroke-width: 1.0; stroke-dasharray: 5.0,5.0;" x1="25" x2="25" y1="119.2188" y2="737.7891"/><line style="stroke: #A80036; stroke-width: 1.0; stroke-dasharray: 5.0,5.0;" x1="105" x2="105" y1="119.2188" y2="737.7891"/><line style="stroke: #A80036; stroke-width: 1.0; stroke-dasharray: 5.0,5.0;" x1="237" x2="237" y1="119.2188" y2="737.7891"/><line style="stroke: #A80036; stroke-width: 1.0; stroke-dasharray: 5.0,5.0;" x1="379" x2="379" y1="119.2188" y2="737.7891"/><line style="stroke: #A80036; stroke-width: 1.0; stroke-dasharray: 5.0,5.0;" x1="508" x2="508" y1="119.2188" y2="737.7891"/><line style="stroke: #A80036; stroke-width: 1.0; stroke-dasharray: 5.0,5.0;" x1="640" x2="640" y1="119.2188" y2="737.7891"/><line style="stroke: #A80036; stroke-width: 1.0; stroke-dasharray: 5.0,5.0;" x1="778" x2="778" y1="119.2188" y2="737.7891"/><text fill="#000000" font-family="sans-serif" font-size="14" lengthAdjust="spacingAndGlyphs" textLength="29" x="8" y="116.1426">User</text><ellipse cx="25.5" cy="44.6094" fill="#FEFECE" filter="url(#f1)" rx="8" ry="8" style="stroke: #A80036; stroke-width: 2.0;"/><path d="M25.5,52.6094 L25.5,79.6094 M12.5,60.6094 L38.5,60.6094 M25.5,79.6094 L12.5,94.6094 M25.5,79.6094 L38.5,94.6094 " fill="#FEFECE" filter="url(#f1)" style="stroke: #A80036; stroke-width: 2.0;"/><text fill="#000000" font-family="sans-serif" font-size="14" lengthAdjust="spacingAndGlyphs" textLength="29" x="8" y="751.3223">User</text><ellipse cx="25.5" cy="764.3984" fill="#FEFECE" filter="url(#f1)" rx="8" ry="8" style="stroke: #A80036; stroke-width: 2.0;"/><path d="M25.5,772.3984 L25.5,799.3984 M12.5,780.3984 L38.5,780.3984 M25.5,799.3984 L12.5,814.3984 M25.5,799.3984 L38.5,814.3984 " fill="#FEFECE" filter="url(#f1)" style="stroke: #A80036; stroke-width: 2.0;"/><rect fill="#FEFECE" filter="url(#f1)" height="31.6094" style="stroke: #A80036; stroke-width: 1.5;" width="101" x="53" y="82.6094"/><text fill="#000000" font-family="sans-serif" font-size="14" lengthAdjust="spacingAndGlyphs" textLength="87" x="60" y="104.1426">FrontendView</text><rect fill="#FEFECE" filter="url(#f1)" height="31.6094" style="stroke: #A80036; stroke-width: 1.5;" width="101" x="53" y="736.7891"/><text fill="#000000" font-family="sans-serif" font-size="14" lengthAdjust="spacingAndGlyphs" textLength="87" x="60" y="758.3223">FrontendView</text><rect fill="#FEFECE" filter="url(#f1)" height="31.6094" style="stroke: #A80036; stroke-width: 1.5;" width="134" x="168" y="82.6094"/><text fill="#000000" font-family="sans-serif" font-size="14" lengthAdjust="spacingAndGlyphs" textLength="120" x="175" y="104.1426">FrontendController</text><rect fill="#FEFECE" filter="url(#f1)" height="31.6094" style="stroke: #A80036; stroke-width: 1.5;" width="134" x="168" y="736.7891"/><text fill="#000000" font-family="sans-serif" font-size="14" lengthAdjust="spacingAndGlyphs" textLength="120" x="175" y="758.3223">FrontendController</text><rect fill="#FEFECE" filter="url(#f1)" height="31.6094" style="stroke: #A80036; stroke-width: 1.5;" width="123" x="316" y="82.6094"/><text fill="#000000" font-family="sans-serif" font-size="14" lengthAdjust="spacingAndGlyphs" textLength="109" x="323" y="104.1426">FrontendListener</text><rect fill="#FEFECE" filter="url(#f1)" height="31.6094" style="stroke: #A80036; stroke-width: 1.5;" width="123" x="316" y="736.7891"/><text fill="#000000" font-family="sans-serif" font-size="14" lengthAdjust="spacingAndGlyphs" textLength="109" x="323" y="758.3223">FrontendListener</text><rect fill="#FEFECE" filter="url(#f1)" height="31.6094" style="stroke: #A80036; stroke-width: 1.5;" width="106" x="453" y="82.6094"/><text fill="#000000" font-family="sans-serif" font-size="14" lengthAdjust="spacingAndGlyphs" textLength="92" x="460" y="104.1426">FrontendStore</text><rect fill="#FEFECE" filter="url(#f1)" height="31.6094" style="stroke: #A80036; stroke-width: 1.5;" width="106" x="453" y="736.7891"/><text fill="#000000" font-family="sans-serif" font-size="14" lengthAdjust="spacingAndGlyphs" textLength="92" x="460" y="758.3223">FrontendStore</text><rect fill="#FEFECE" filter="url(#f1)" height="31.6094" style="stroke: #A80036; stroke-width: 1.5;" width="131" x="573" y="82.6094"/><text fill="#000000" font-family="sans-serif" font-size="14" lengthAdjust="spacingAndGlyphs" textLength="117" x="580" y="104.1426">BackendController</text><rect fill="#FEFECE" filter="url(#f1)" height="31.6094" style="stroke: #A80036; stroke-width: 1.5;" width="131" x="573" y="736.7891"/><text fill="#000000" font-family="sans-serif" font-size="14" lengthAdjust="spacingAndGlyphs" textLength="117" x="580" y="758.3223">BackendController</text><rect fill="#FEFECE" filter="url(#f1)" height="31.6094" style="stroke: #A80036; stroke-width: 1.5;" width="103" x="725" y="82.6094"/><text fill="#000000" font-family="sans-serif" font-size="14" lengthAdjust="spacingAndGlyphs" textLength="89" x="732" y="104.1426">BackendStore</text><rect fill="#FEFECE" filter="url(#f1)" height="31.6094" style="stroke: #A80036; stroke-width: 1.5;" width="103" x="725" y="736.7891"/><text fill="#000000" font-family="sans-serif" font-size="14" lengthAdjust="spacingAndGlyphs" textLength="89" x="732" y="758.3223">BackendStore</text><rect fill="#E9967A" filter="url(#f1)" height="60.3516" style="stroke: #A80036; stroke-width: 1.0;" width="10" x="100.5" y="151.2188"/><rect fill="#E9967A" filter="url(#f1)" height="30" style="stroke: #A80036; stroke-width: 1.0;" width="10" x="100.5" y="689.4375"/><rect fill="#E9967A" filter="url(#f1)" height="90.3516" style="stroke: #A80036; stroke-width: 1.0;" width="10" x="232" y="181.5703"/><rect fill="#E9967A" filter="url(#f1)" height="258.1094" style="stroke: #A80036; stroke-width: 1.0;" width="10" x="232" y="370.625"/><rect fill="#FFA07A" filter="url(#f1)" height="65.3516" style="stroke: #A80036; stroke-width: 1.0;" width="10" x="237" y="563.3828"/><rect fill="#E9967A" filter="url(#f1)" height="60.3516" style="stroke: #A80036; stroke-width: 1.0;" width="10" x="374.5" y="659.0859"/><rect fill="#E9967A" filter="url(#f1)" height="120.7031" style="stroke: #A80036; stroke-width: 1.0;" width="10" x="503" y="598.7344"/><rect fill="#E9967A" filter="url(#f1)" height="156.7031" style="stroke: #A80036; stroke-width: 1.0;" width="10" x="635.5" y="241.9219"/><rect fill="#FFA07A" filter="url(#f1)" height="28" style="stroke: #A80036; stroke-width: 1.0;" width="10" x="640.5" y="370.625"/><rect fill="#E9967A" filter="url(#f1)" height="30" style="stroke: #A80036; stroke-width: 1.0;" width="10" x="635.5" y="465.5039"/><rect fill="#E9967A" filter="url(#f1)" height="30" style="stroke: #A80036; stroke-width: 1.0;" width="10" x="773.5" y="302.2734"/><polygon fill="#A80036" points="88.5,147.2188,98.5,151.2188,88.5,155.2188,92.5,151.2188" style="stroke: #A80036; stroke-width: 1.0;"/><line style="stroke: #A80036; stroke-width: 1.0;" x1="25.5" x2="94.5" y1="151.2188" y2="151.2188"/><text fill="#000000" font-family="sans-serif" font-size="13" lengthAdjust="spacingAndGlyphs" textLength="48" x="32.5" y="146.7139">* click! *</text><polygon fill="#A80036" points="220,177.5703,230,181.5703,220,185.5703,224,181.5703" style="stroke: #A80036; stroke-width: 1.0;"/><line style="stroke: #A80036; stroke-width: 1.0;" x1="110.5" x2="226" y1="181.5703" y2="181.5703"/><text fill="#000000" font-family="sans-serif" font-size="13" lengthAdjust="spacingAndGlyphs" textLength="92" x="117.5" y="177.0654">dispatch(action)</text><polygon fill="#A80036" points="623.5,237.9219,633.5,241.9219,623.5,245.9219,627.5,241.9219" style="stroke: #A80036; stroke-width: 1.0;"/><line style="stroke: #A80036; stroke-width: 1.0;" x1="242" x2="629.5" y1="241.9219" y2="241.9219"/><text fill="#000000" font-family="sans-serif" font-size="13" lengthAdjust="spacingAndGlyphs" textLength="92" x="249" y="237.417">dispatch(action)</text><polygon fill="#A80036" points="761.5,298.2734,771.5,302.2734,761.5,306.2734,765.5,302.2734" style="stroke: #A80036; stroke-width: 1.0;"/><line style="stroke: #A80036; stroke-width: 1.0;" x1="645.5" x2="767.5" y1="302.2734" y2="302.2734"/><text fill="#000000" font-family="sans-serif" font-size="13" lengthAdjust="spacingAndGlyphs" textLength="92" x="652.5" y="297.7686">dispatch(action)</text><line style="stroke: #A80036; stroke-width: 1.0;" x1="650.5" x2="692.5" y1="362.9766" y2="362.9766"/><line style="stroke: #A80036; stroke-width: 1.0;" x1="692.5" x2="692.5" y1="362.9766" y2="375.9766"/><line style="stroke: #A80036; stroke-width: 1.0;" x1="651.5" x2="692.5" y1="375.9766" y2="375.9766"/><polygon fill="#A80036" points="661.5,371.9766,651.5,375.9766,661.5,379.9766,657.5,375.9766" style="stroke: #A80036; stroke-width: 1.0;"/><text fill="#000000" font-family="sans-serif" font-size="13" lengthAdjust="spacingAndGlyphs" textLength="114" x="657.5" y="358.1201">store_action(action)</text><polygon fill="#A80036" points="623.5,461.5039,633.5,465.5039,623.5,469.5039,627.5,465.5039" style="stroke: #A80036; stroke-width: 1.0;"/><line style="stroke: #A80036; stroke-width: 1.0;" x1="242" x2="629.5" y1="465.5039" y2="465.5039"/><text fill="#000000" font-family="sans-serif" font-size="13" lengthAdjust="spacingAndGlyphs" textLength="285" x="249" y="460.999">get_new_actions(timestamp): timestamp, actions</text><polygon fill="#FBFB77" filter="url(#f1)" points="55,418.9766,55,493.9766,223,493.9766,223,428.9766,213,418.9766,55,418.9766" style="stroke: #A80036; stroke-width: 1.0;"/><line style="stroke: #A80036; stroke-width: 1.0;" x1="213" x2="213" y1="418.9766" y2="428.9766"/><line style="stroke: #A80036; stroke-width: 1.0;" x1="223" x2="213" y1="428.9766" y2="428.9766"/><text fill="#000000" font-family="sans-serif" font-size="13" lengthAdjust="spacingAndGlyphs" textLength="115" x="61" y="437.4717">Getting new actions</text><text fill="#000000" font-family="sans-serif" font-size="13" lengthAdjust="spacingAndGlyphs" textLength="137" x="61" y="453.8232">is done asynchronously</text><text fill="#000000" font-family="sans-serif" font-size="13" lengthAdjust="spacingAndGlyphs" textLength="147" x="61" y="470.1748">from a background thread</text><text fill="#000000" font-family="sans-serif" font-size="13" lengthAdjust="spacingAndGlyphs" textLength="132" x="61" y="486.5264">that polls e.g. all 50ms</text><line style="stroke: #A80036; stroke-width: 1.0;" x1="242" x2="289" y1="550.7344" y2="550.7344"/><line style="stroke: #A80036; stroke-width: 1.0;" x1="289" x2="289" y1="550.7344" y2="563.7344"/><line style="stroke: #A80036; stroke-width: 1.0;" x1="248" x2="289" y1="563.7344" y2="563.7344"/><polygon fill="#A80036" points="258,559.7344,248,563.7344,258,567.7344,254,563.7344" style="stroke: #A80036; stroke-width: 1.0;"/><text fill="#000000" font-family="sans-serif" font-size="13" lengthAdjust="spacingAndGlyphs" textLength="77" x="254" y="545.8779">for all actions</text><polygon fill="#A80036" points="491,594.7344,501,598.7344,491,602.7344,495,598.7344" style="stroke: #A80036; stroke-width: 1.0;"/><line style="stroke: #A80036; stroke-width: 1.0;" x1="247" x2="497" y1="598.7344" y2="598.7344"/><text fill="#000000" font-family="sans-serif" font-size="13" lengthAdjust="spacingAndGlyphs" textLength="92" x="254" y="594.2295">dispatch(action)</text><polygon fill="#A80036" points="395.5,655.0859,385.5,659.0859,395.5,663.0859,391.5,659.0859" style="stroke: #A80036; stroke-width: 1.0;"/><line style="stroke: #A80036; stroke-width: 1.0;" x1="389.5" x2="502" y1="659.0859" y2="659.0859"/><text fill="#000000" font-family="sans-serif" font-size="13" lengthAdjust="spacingAndGlyphs" textLength="98" x="401.5" y="654.5811">notify(new_state)</text><polygon fill="#A80036" points="121.5,685.4375,111.5,689.4375,121.5,693.4375,117.5,689.4375" style="stroke: #A80036; stroke-width: 1.0;"/><line style="stroke: #A80036; stroke-width: 1.0;" x1="115.5" x2="373.5" y1="689.4375" y2="689.4375"/><text fill="#000000" font-family="sans-serif" font-size="13" lengthAdjust="spacingAndGlyphs" textLength="44" x="127.5" y="684.9326">render()</text></g></svg>