<?xml version="1.0" encoding="UTF-8" standalone="yes"?><svg xmlns="http://www.w3.org/2000/svg" xmlns:xlink="http://www.w3.org/1999/xlink" height="256px" style="width:194px;height:256px;" version="1.1" viewBox="0 0 194 256" width="194px"><defs><filter height="300%" id="f1" width="300%" x="-1" y="-1"><feGaussianBlur result="blurOut" stdDeviation="2.0"/><feColorMatrix in="blurOut" result="blurOut2" type="matrix" values="0 0 0 0 0 0 0 0 0 0 0 0 0 0 0 0 0 0 .4 0"/><feOffset dx="4.0" dy="4.0" in="blurOut2" result="blurOut3"/><feBlend in="SourceGraphic" in2="blurOut3" mode="normal"/></filter></defs><g><rect fill="#FEFECE" filter="url(#f1)" height="60.8047" style="stroke: #A80036; stroke-width: 1.5;" width="65" x="71.2828" y="8.5"/><ellipse cx="86.2828" cy="24.5" fill="#A9DCDF" rx="11" ry="11" style="stroke: #A80036; stroke-width: 1.0;"/><path d="M86.3921,19.8438 L85.2359,24.9219 L87.564,24.9219 L86.3921,19.8438 Z M84.9078,17.6094 L87.8921,17.6094 L91.2515,30 L88.7984,30 L88.0328,26.9375 L84.7515,26.9375 L84.0015,30 L81.564,30 L84.9078,17.6094 Z "/><text fill="#000000" font-family="sans-serif" font-size="12" font-style="italic" lengthAdjust="spacingAndGlyphs" textLength="33" x="100.2828" y="28.6543">Node</text><line style="stroke: #A80036; stroke-width: 1.5;" x1="72.2828" x2="135.2828" y1="40.5" y2="40.5"/><text fill="#000000" font-family="sans-serif" font-size="11" lengthAdjust="spacingAndGlyphs" textLength="38" x="77.2828" y="54.7104">id : str</text><line style="stroke: #A80036; stroke-width: 1.5;" x1="72.2828" x2="135.2828" y1="61.3047" y2="61.3047"/><rect fill="#FEFECE" filter="url(#f1)" height="99.2188" style="stroke: #A80036; stroke-width: 1.5;" width="111" x="48.2828" y="148.5"/><ellipse cx="72.2828" cy="164.5" fill="#ADD1B2" rx="11" ry="11" style="stroke: #A80036; stroke-width: 1.0;"/><path d="M75.2515,170.1406 Q74.6734,170.4375 74.0328,170.5859 Q73.3921,170.7344 72.689,170.7344 Q70.189,170.7344 68.8687,169.0859 Q67.5484,167.4375 67.5484,164.3125 Q67.5484,161.1875 68.8687,159.5313 Q70.189,157.875 72.689,157.875 Q73.3921,157.875 74.0406,158.0313 Q74.689,158.1875 75.2515,158.4844 L75.2515,161.2031 Q74.6265,160.625 74.0328,160.3516 Q73.439,160.0781 72.814,160.0781 Q71.4703,160.0781 70.7828,161.1484 Q70.0953,162.2188 70.0953,164.3125 Q70.0953,166.4063 70.7828,167.4766 Q71.4703,168.5469 72.814,168.5469 Q73.439,168.5469 74.0328,168.2734 Q74.6265,168 75.2515,167.4219 L75.2515,170.1406 Z "/><text fill="#000000" font-family="sans-serif" font-size="12" lengthAdjust="spacingAndGlyphs" textLength="59" x="88.2828" y="168.6543">NodePort</text><line style="stroke: #A80036; stroke-width: 1.5;" x1="49.2828" x2="158.2828" y1="180.5" y2="180.5"/><text fill="#000000" font-family="sans-serif" font-size="11" lengthAdjust="spacingAndGlyphs" textLength="65" x="54.2828" y="194.7104">node: Node</text><text fill="#000000" font-family="sans-serif" font-size="11" lengthAdjust="spacingAndGlyphs" textLength="56" x="54.2828" y="207.5151">name: str</text><text fill="#000000" font-family="sans-serif" font-size="11" lengthAdjust="spacingAndGlyphs" textLength="99" x="54.2828" y="220.3198">source: NodePort</text><text fill="#000000" font-family="sans-serif" font-size="11" lengthAdjust="spacingAndGlyphs" textLength="72" x="54.2828" y="233.1245">value: object</text><line style="stroke: #A80036; stroke-width: 1.5;" x1="49.2828" x2="158.2828" y1="239.7188" y2="239.7188"/><path d="M59.7148,59.87 C43.7399,69.536 27.4266,82.836 18.5328,100 C7.8361,120.644 19.8015,140.5 37.8047,156.8101 " fill="none" style="stroke: #A80036; stroke-width: 1.0;"/><polygon fill="#A80036" points="48,165.2448,43.6152,156.4258,44.1475,162.0576,38.5157,162.5898,48,165.2448" style="stroke: #A80036; stroke-width: 1.0;"/><line style="stroke: #A80036; stroke-width: 1.0;" x1="44.1475" x2="37.9835" y1="162.0576" y2="156.9581"/><polygon fill="#FFFFFF" points="71.1762,53.471,63.9874,52.9038,60.6989,59.3214,67.8877,59.8886,71.1762,53.471" style="stroke: #A80036; stroke-width: 1.0;"/><text fill="#000000" font-family="sans-serif" font-size="13" lengthAdjust="spacingAndGlyphs" textLength="39" x="19.5328" y="113.0669">inputs</text><text fill="#000000" font-family="sans-serif" font-size="13" lengthAdjust="spacingAndGlyphs" textLength="26" x="14.3488" y="157.3755">0..N</text><path d="M101.1318,82.783 C100.8838,88.568 100.672,94.428 100.5328,100 C100.2515,111.259 100.3216,123.251 100.5789,134.826 " fill="none" style="stroke: #A80036; stroke-width: 1.0;"/><polygon fill="#A80036" points="100.9569,148.1543,104.7001,139.0445,100.8151,143.1563,96.7033,139.2713,100.9569,148.1543" style="stroke: #A80036; stroke-width: 1.0;"/><line style="stroke: #A80036; stroke-width: 1.0;" x1="100.8151" x2="100.5882" y1="143.1563" y2="135.16"/><polygon fill="#FFFFFF" points="101.7592,69.591,97.4788,75.3943,101.1895,81.5775,105.4698,75.7741,101.7592,69.591" style="stroke: #A80036; stroke-width: 1.0;"/><text fill="#000000" font-family="sans-serif" font-size="13" lengthAdjust="spacingAndGlyphs" textLength="49" x="101.5328" y="113.0669">outputs</text><text fill="#000000" font-family="sans-serif" font-size="13" lengthAdjust="spacingAndGlyphs" textLength="26" x="72.0114" y="137.4697">0..N</text><path d="M142.5355,148.278 C148.2985,138.73 153.3585,128.428 156.5325,118 C161.9365,100.247 152.1655,82.925 139.5975,69.131 " fill="none" style="stroke: #A80036; stroke-width: 1.0;"/><polygon fill="#A80036" points="135.9895,65.337,139.2936,74.6151,139.4353,68.96,145.0904,69.1017,135.9895,65.337" style="stroke: #A80036; stroke-width: 1.0;"/><path d="M158.9015,181.504 C178.0605,181.3295 193.5325,186.8281 193.5325,198 C193.5325,208.1245 180.8255,213.5897 164.1825,214.3955 " fill="none" style="stroke: #A80036; stroke-width: 1.0;"/><polygon fill="#A80036" points="158.9015,214.496,167.9764,218.323,163.9005,214.4003,167.8232,210.3244,158.9015,214.496" style="stroke: #A80036; stroke-width: 1.0;"/></g></svg>