<?xml version="1.0" encoding="UTF-8" standalone="yes"?><svg xmlns="http://www.w3.org/2000/svg" xmlns:xlink="http://www.w3.org/1999/xlink" height="659px" style="width:902px;height:659px;" version="1.1" viewBox="0 0 902 659" width="902px"><defs><filter height="300%" id="f1" width="300%" x="-1" y="-1"><feGaussianBlur result="blurOut" stdDeviation="2.0"/><feColorMatrix in="blurOut" result="blurOut2" type="matrix" values="0 0 0 0 0 0 0 0 0 0 0 0 0 0 0 0 0 0 .4 0"/><feOffset dx="4.0" dy="4.0" in="blurOut2" result="blurOut3"/><feBlend in="SourceGraphic" in2="blurOut3" mode="normal"/></filter></defs><g><polygon fill="#FFFFFF" filter="url(#f1)" points="286,497,380,497,387,520.6094,575,520.6094,575,652,286,652,286,497" style="stroke: #000000; stroke-width: 2.0;"/><line style="stroke: #000000; stroke-width: 2.0;" x1="286" x2="387" y1="520.6094" y2="520.6094"/><text fill="#000000" font-family="sans-serif" font-size="14" font-weight="bold" lengthAdjust="spacingAndGlyphs" textLength="88" x="290" y="513.5332">cate.core.op</text><rect fill="#FEFECE" filter="url(#f1)" height="103.3438" style="stroke: #A80036; stroke-width: 1.5;" width="106" x="302" y="533"/><ellipse cx="322.4" cy="549" fill="#ADD1B2" rx="11" ry="11" style="stroke: #A80036; stroke-width: 1.0;"/><path d="M325.1656,544.875 Q325.3219,544.6563 325.5094,544.5469 Q325.6969,544.4375 325.9156,544.4375 Q326.2906,544.4375 326.525,544.6953 Q326.7594,544.9531 326.7594,545.5625 L326.7594,547.0156 Q326.7594,547.625 326.525,547.8906 Q326.2906,548.1563 325.9156,548.1563 Q325.5719,548.1563 325.3688,547.9531 Q325.1656,547.7656 325.0563,547.25 Q325.0094,546.8906 324.8219,546.7031 Q324.4938,546.3281 323.8844,546.1094 Q323.275,545.8906 322.65,545.8906 Q321.8844,545.8906 321.2516,546.2188 Q320.6188,546.5469 320.1266,547.2969 Q319.6344,548.0469 319.6344,549.0781 L319.6344,550.1719 Q319.6344,551.4063 320.525,552.2266 Q321.4156,553.0469 323.0094,553.0469 Q323.9469,553.0469 324.6031,552.7969 Q324.9938,552.6406 325.4156,552.2031 Q325.6813,551.9375 325.8297,551.8594 Q325.9781,551.7813 326.1813,551.7813 Q326.5094,551.7813 326.7672,552.0391 Q327.025,552.2969 327.025,552.6406 Q327.025,552.9844 326.6813,553.3906 Q326.1813,553.9688 325.3844,554.2969 Q324.3063,554.75 323.0094,554.75 Q321.4938,554.75 320.2906,554.125 Q319.3063,553.625 318.6188,552.5547 Q317.9313,551.4844 317.9313,550.2031 L317.9313,549.0469 Q317.9313,547.7188 318.5484,546.5703 Q319.1656,545.4219 320.2594,544.8047 Q321.3531,544.1875 322.5875,544.1875 Q323.3219,544.1875 323.9703,544.3516 Q324.6188,544.5156 325.1656,544.875 Z "/><text fill="#000000" font-family="sans-serif" font-size="12" lengthAdjust="spacingAndGlyphs" textLength="62" x="337.6" y="553.9102">OpMetaInfo</text><line style="stroke: #A80036; stroke-width: 1.5;" x1="303" x2="407" y1="565" y2="565"/><text fill="#000000" font-family="sans-serif" font-size="11" lengthAdjust="spacingAndGlyphs" textLength="94" x="308" y="580.4189">qualified_name : str</text><text fill="#000000" font-family="sans-serif" font-size="11" lengthAdjust="spacingAndGlyphs" textLength="60" x="308" y="594.2549">header : dict</text><text fill="#000000" font-family="sans-serif" font-size="11" lengthAdjust="spacingAndGlyphs" textLength="49" x="308" y="608.0908">input : dict</text><text fill="#000000" font-family="sans-serif" font-size="11" lengthAdjust="spacingAndGlyphs" textLength="56" x="308" y="621.9268">output : dict</text><line style="stroke: #A80036; stroke-width: 1.5;" x1="303" x2="407" y1="628.3438" y2="628.3438"/><rect fill="#FEFECE" filter="url(#f1)" height="48" style="stroke: #A80036; stroke-width: 1.5;" width="115" x="443.5" y="560.5"/><ellipse cx="458.5" cy="576.5" fill="#ADD1B2" rx="11" ry="11" style="stroke: #A80036; stroke-width: 1.0;"/><path d="M461.2656,572.375 Q461.4219,572.1563 461.6094,572.0469 Q461.7969,571.9375 462.0156,571.9375 Q462.3906,571.9375 462.625,572.1953 Q462.8594,572.4531 462.8594,573.0625 L462.8594,574.5156 Q462.8594,575.125 462.625,575.3906 Q462.3906,575.6563 462.0156,575.6563 Q461.6719,575.6563 461.4688,575.4531 Q461.2656,575.2656 461.1563,574.75 Q461.1094,574.3906 460.9219,574.2031 Q460.5938,573.8281 459.9844,573.6094 Q459.375,573.3906 458.75,573.3906 Q457.9844,573.3906 457.3516,573.7188 Q456.7188,574.0469 456.2266,574.7969 Q455.7344,575.5469 455.7344,576.5781 L455.7344,577.6719 Q455.7344,578.9063 456.625,579.7266 Q457.5156,580.5469 459.1094,580.5469 Q460.0469,580.5469 460.7031,580.2969 Q461.0938,580.1406 461.5156,579.7031 Q461.7813,579.4375 461.9297,579.3594 Q462.0781,579.2813 462.2813,579.2813 Q462.6094,579.2813 462.8672,579.5391 Q463.125,579.7969 463.125,580.1406 Q463.125,580.4844 462.7813,580.8906 Q462.2813,581.4688 461.4844,581.7969 Q460.4063,582.25 459.1094,582.25 Q457.5938,582.25 456.3906,581.625 Q455.4063,581.125 454.7188,580.0547 Q454.0313,578.9844 454.0313,577.7031 L454.0313,576.5469 Q454.0313,575.2188 454.6484,574.0703 Q455.2656,572.9219 456.3594,572.3047 Q457.4531,571.6875 458.6875,571.6875 Q459.4219,571.6875 460.0703,571.8516 Q460.7188,572.0156 461.2656,572.375 Z "/><text fill="#000000" font-family="sans-serif" font-size="12" lengthAdjust="spacingAndGlyphs" textLength="83" x="472.5" y="581.4102">OpRegistration</text><line style="stroke: #A80036; stroke-width: 1.5;" x1="444.5" x2="557.5" y1="592.5" y2="592.5"/><line style="stroke: #A80036; stroke-width: 1.5;" x1="444.5" x2="557.5" y1="600.5" y2="600.5"/><rect fill="#FEFECE" filter="url(#f1)" height="131.0156" style="stroke: #A80036; stroke-width: 1.5;" width="138" x="6" y="302"/><ellipse cx="55.75" cy="318" fill="#A9DCDF" rx="11" ry="11" style="stroke: #A80036; stroke-width: 1.0;"/><path d="M57.9375,319.7656 L53.7969,319.7656 L53.375,320.7969 L53.7969,320.7969 Q54.4063,320.7969 54.6719,321.0313 Q54.9375,321.2656 54.9375,321.6563 Q54.9375,322.0313 54.6719,322.2656 Q54.4063,322.5 53.7969,322.5 L51.5,322.5 Q50.8906,322.5 50.6328,322.2656 Q50.375,322.0313 50.375,321.6406 Q50.375,321.2656 50.6484,321.0234 Q50.9219,320.7813 51.5469,320.7969 L54.2188,314.1406 L53.1094,314.1406 Q52.5,314.1406 52.2344,313.9063 Q51.9688,313.6719 51.9688,313.2813 Q51.9688,312.9063 52.2344,312.6719 Q52.5,312.4375 53.1094,312.4375 L56.7813,312.4375 L60.1719,320.7969 Q60.7656,320.7969 60.9531,320.9375 Q61.3438,321.2031 61.3438,321.6563 Q61.3438,322.0313 61.0859,322.2656 Q60.8281,322.5 60.2188,322.5 L57.9219,322.5 Q57.3125,322.5 57.0469,322.2656 Q56.7813,322.0313 56.7813,321.6406 Q56.7813,321.2656 57.0469,321.0313 Q57.3125,320.7969 57.9219,320.7969 L58.3438,320.7969 L57.9375,319.7656 Z M57.2188,318.0625 L55.8594,314.6875 L54.4844,318.0625 L57.2188,318.0625 Z "/><text fill="#000000" font-family="sans-serif" font-size="12" font-style="italic" lengthAdjust="spacingAndGlyphs" textLength="30" x="76.25" y="322.9102">Node</text><line style="stroke: #A80036; stroke-width: 1.5;" x1="7" x2="143" y1="334" y2="334"/><text fill="#000000" font-family="sans-serif" font-size="11" lengthAdjust="spacingAndGlyphs" textLength="30" x="12" y="349.4189">id : str</text><text fill="#000000" font-family="sans-serif" font-size="11" lengthAdjust="spacingAndGlyphs" textLength="119" x="12" y="363.2549">input : Dict[str, NodePort]</text><text fill="#000000" font-family="sans-serif" font-size="11" lengthAdjust="spacingAndGlyphs" textLength="126" x="12" y="377.0908">output : Dict[str, NodePort]</text><line style="stroke: #A80036; stroke-width: 1.5;" x1="7" x2="143" y1="383.5078" y2="383.5078"/><text fill="#000000" font-family="sans-serif" font-size="11" font-style="italic" lengthAdjust="spacingAndGlyphs" textLength="126" x="12" y="398.9268">from_json_dict(json_dict)</text><text fill="#000000" font-family="sans-serif" font-size="11" font-style="italic" lengthAdjust="spacingAndGlyphs" textLength="95" x="12" y="412.7627">to_json_dict() : dict</text><text fill="#000000" font-family="sans-serif" font-size="11" font-style="italic" lengthAdjust="spacingAndGlyphs" textLength="113" x="12" y="426.5986">invoke(monitor, **args)</text><rect fill="#FEFECE" filter="url(#f1)" height="89.5078" style="stroke: #A80036; stroke-width: 1.5;" width="134" x="298" y="8"/><ellipse cx="336.4" cy="24" fill="#ADD1B2" rx="11" ry="11" style="stroke: #A80036; stroke-width: 1.0;"/><path d="M339.1656,19.875 Q339.3219,19.6563 339.5094,19.5469 Q339.6969,19.4375 339.9156,19.4375 Q340.2906,19.4375 340.525,19.6953 Q340.7594,19.9531 340.7594,20.5625 L340.7594,22.0156 Q340.7594,22.625 340.525,22.8906 Q340.2906,23.1563 339.9156,23.1563 Q339.5719,23.1563 339.3688,22.9531 Q339.1656,22.7656 339.0563,22.25 Q339.0094,21.8906 338.8219,21.7031 Q338.4938,21.3281 337.8844,21.1094 Q337.275,20.8906 336.65,20.8906 Q335.8844,20.8906 335.2516,21.2188 Q334.6188,21.5469 334.1266,22.2969 Q333.6344,23.0469 333.6344,24.0781 L333.6344,25.1719 Q333.6344,26.4063 334.525,27.2266 Q335.4156,28.0469 337.0094,28.0469 Q337.9469,28.0469 338.6031,27.7969 Q338.9938,27.6406 339.4156,27.2031 Q339.6813,26.9375 339.8297,26.8594 Q339.9781,26.7813 340.1813,26.7813 Q340.5094,26.7813 340.7672,27.0391 Q341.025,27.2969 341.025,27.6406 Q341.025,27.9844 340.6813,28.3906 Q340.1813,28.9688 339.3844,29.2969 Q338.3063,29.75 337.0094,29.75 Q335.4938,29.75 334.2906,29.125 Q333.3063,28.625 332.6188,27.5547 Q331.9313,26.4844 331.9313,25.2031 L331.9313,24.0469 Q331.9313,22.7188 332.5484,21.5703 Q333.1656,20.4219 334.2594,19.8047 Q335.3531,19.1875 336.5875,19.1875 Q337.3219,19.1875 337.9703,19.3516 Q338.6188,19.5156 339.1656,19.875 Z "/><text fill="#000000" font-family="sans-serif" font-size="12" lengthAdjust="spacingAndGlyphs" textLength="50" x="355.6" y="28.9102">Workflow</text><line style="stroke: #A80036; stroke-width: 1.5;" x1="299" x2="431" y1="40" y2="40"/><line style="stroke: #A80036; stroke-width: 1.5;" x1="299" x2="431" y1="48" y2="48"/><text fill="#000000" font-family="sans-serif" font-size="11" lengthAdjust="spacingAndGlyphs" textLength="122" x="304" y="63.4189">from_json_dict(json_dict)</text><text fill="#000000" font-family="sans-serif" font-size="11" lengthAdjust="spacingAndGlyphs" textLength="92" x="304" y="77.2549">to_json_dict() : dict</text><text fill="#000000" font-family="sans-serif" font-size="11" lengthAdjust="spacingAndGlyphs" textLength="110" x="304" y="91.0908">invoke(monitor, **args)</text><rect fill="#FEFECE" filter="url(#f1)" height="48" style="stroke: #A80036; stroke-width: 1.5;" width="57" x="336.5" y="176"/><ellipse cx="351.5" cy="192" fill="#A9DCDF" rx="11" ry="11" style="stroke: #A80036; stroke-width: 1.0;"/><path d="M353.6875,193.7656 L349.5469,193.7656 L349.125,194.7969 L349.5469,194.7969 Q350.1563,194.7969 350.4219,195.0313 Q350.6875,195.2656 350.6875,195.6563 Q350.6875,196.0313 350.4219,196.2656 Q350.1563,196.5 349.5469,196.5 L347.25,196.5 Q346.6406,196.5 346.3828,196.2656 Q346.125,196.0313 346.125,195.6406 Q346.125,195.2656 346.3984,195.0234 Q346.6719,194.7813 347.2969,194.7969 L349.9688,188.1406 L348.8594,188.1406 Q348.25,188.1406 347.9844,187.9063 Q347.7188,187.6719 347.7188,187.2813 Q347.7188,186.9063 347.9844,186.6719 Q348.25,186.4375 348.8594,186.4375 L352.5313,186.4375 L355.9219,194.7969 Q356.5156,194.7969 356.7031,194.9375 Q357.0938,195.2031 357.0938,195.6563 Q357.0938,196.0313 356.8359,196.2656 Q356.5781,196.5 355.9688,196.5 L353.6719,196.5 Q353.0625,196.5 352.7969,196.2656 Q352.5313,196.0313 352.5313,195.6406 Q352.5313,195.2656 352.7969,195.0313 Q353.0625,194.7969 353.6719,194.7969 L354.0938,194.7969 L353.6875,193.7656 Z M352.9688,192.0625 L351.6094,188.6875 L350.2344,192.0625 L352.9688,192.0625 Z "/><text fill="#000000" font-family="sans-serif" font-size="12" font-style="italic" lengthAdjust="spacingAndGlyphs" textLength="25" x="365.5" y="196.9102">Step</text><line style="stroke: #A80036; stroke-width: 1.5;" x1="337.5" x2="392.5" y1="208" y2="208"/><line style="stroke: #A80036; stroke-width: 1.5;" x1="337.5" x2="392.5" y1="216" y2="216"/><rect fill="#FEFECE" filter="url(#f1)" height="61.8359" style="stroke: #A80036; stroke-width: 1.5;" width="107" x="786.5" y="336.5"/><ellipse cx="801.5" cy="352.5" fill="#ADD1B2" rx="11" ry="11" style="stroke: #A80036; stroke-width: 1.0;"/><path d="M804.2656,348.375 Q804.4219,348.1563 804.6094,348.0469 Q804.7969,347.9375 805.0156,347.9375 Q805.3906,347.9375 805.625,348.1953 Q805.8594,348.4531 805.8594,349.0625 L805.8594,350.5156 Q805.8594,351.125 805.625,351.3906 Q805.3906,351.6563 805.0156,351.6563 Q804.6719,351.6563 804.4688,351.4531 Q804.2656,351.2656 804.1563,350.75 Q804.1094,350.3906 803.9219,350.2031 Q803.5938,349.8281 802.9844,349.6094 Q802.375,349.3906 801.75,349.3906 Q800.9844,349.3906 800.3516,349.7188 Q799.7188,350.0469 799.2266,350.7969 Q798.7344,351.5469 798.7344,352.5781 L798.7344,353.6719 Q798.7344,354.9063 799.625,355.7266 Q800.5156,356.5469 802.1094,356.5469 Q803.0469,356.5469 803.7031,356.2969 Q804.0938,356.1406 804.5156,355.7031 Q804.7813,355.4375 804.9297,355.3594 Q805.0781,355.2813 805.2813,355.2813 Q805.6094,355.2813 805.8672,355.5391 Q806.125,355.7969 806.125,356.1406 Q806.125,356.4844 805.7813,356.8906 Q805.2813,357.4688 804.4844,357.7969 Q803.4063,358.25 802.1094,358.25 Q800.5938,358.25 799.3906,357.625 Q798.4063,357.125 797.7188,356.0547 Q797.0313,354.9844 797.0313,353.7031 L797.0313,352.5469 Q797.0313,351.2188 797.6484,350.0703 Q798.2656,348.9219 799.3594,348.3047 Q800.4531,347.6875 801.6875,347.6875 Q802.4219,347.6875 803.0703,347.8516 Q803.7188,348.0156 804.2656,348.375 Z "/><text fill="#000000" font-family="sans-serif" font-size="12" lengthAdjust="spacingAndGlyphs" textLength="75" x="815.5" y="357.4102">WorkflowStep</text><line style="stroke: #A80036; stroke-width: 1.5;" x1="787.5" x2="892.5" y1="368.5" y2="368.5"/><text fill="#000000" font-family="sans-serif" font-size="11" lengthAdjust="spacingAndGlyphs" textLength="66" x="792.5" y="383.9189">resource : str</text><line style="stroke: #A80036; stroke-width: 1.5;" x1="787.5" x2="892.5" y1="390.3359" y2="390.3359"/><rect fill="#FEFECE" filter="url(#f1)" height="61.8359" style="stroke: #A80036; stroke-width: 1.5;" width="164" x="587" y="336.5"/><ellipse cx="644.25" cy="352.5" fill="#ADD1B2" rx="11" ry="11" style="stroke: #A80036; stroke-width: 1.0;"/><path d="M647.0156,348.375 Q647.1719,348.1563 647.3594,348.0469 Q647.5469,347.9375 647.7656,347.9375 Q648.1406,347.9375 648.375,348.1953 Q648.6094,348.4531 648.6094,349.0625 L648.6094,350.5156 Q648.6094,351.125 648.375,351.3906 Q648.1406,351.6563 647.7656,351.6563 Q647.4219,351.6563 647.2188,351.4531 Q647.0156,351.2656 646.9063,350.75 Q646.8594,350.3906 646.6719,350.2031 Q646.3438,349.8281 645.7344,349.6094 Q645.125,349.3906 644.5,349.3906 Q643.7344,349.3906 643.1016,349.7188 Q642.4688,350.0469 641.9766,350.7969 Q641.4844,351.5469 641.4844,352.5781 L641.4844,353.6719 Q641.4844,354.9063 642.375,355.7266 Q643.2656,356.5469 644.8594,356.5469 Q645.7969,356.5469 646.4531,356.2969 Q646.8438,356.1406 647.2656,355.7031 Q647.5313,355.4375 647.6797,355.3594 Q647.8281,355.2813 648.0313,355.2813 Q648.3594,355.2813 648.6172,355.5391 Q648.875,355.7969 648.875,356.1406 Q648.875,356.4844 648.5313,356.8906 Q648.0313,357.4688 647.2344,357.7969 Q646.1563,358.25 644.8594,358.25 Q643.3438,358.25 642.1406,357.625 Q641.1563,357.125 640.4688,356.0547 Q639.7813,354.9844 639.7813,353.7031 L639.7813,352.5469 Q639.7813,351.2188 640.3984,350.0703 Q641.0156,348.9219 642.1094,348.3047 Q643.2031,347.6875 644.4375,347.6875 Q645.1719,347.6875 645.8203,347.8516 Q646.4688,348.0156 647.0156,348.375 Z "/><text fill="#000000" font-family="sans-serif" font-size="12" lengthAdjust="spacingAndGlyphs" textLength="41" x="664.75" y="357.4102">OpStep</text><line style="stroke: #A80036; stroke-width: 1.5;" x1="588" x2="750" y1="368.5" y2="368.5"/><text fill="#000000" font-family="sans-serif" font-size="11" lengthAdjust="spacingAndGlyphs" textLength="152" x="593" y="383.9189">op_registration : OpRegistration</text><line style="stroke: #A80036; stroke-width: 1.5;" x1="588" x2="750" y1="390.3359" y2="390.3359"/><rect fill="#FEFECE" filter="url(#f1)" height="61.8359" style="stroke: #A80036; stroke-width: 1.5;" width="88" x="179" y="336.5"/><ellipse cx="197.15" cy="352.5" fill="#ADD1B2" rx="11" ry="11" style="stroke: #A80036; stroke-width: 1.0;"/><path d="M199.9156,348.375 Q200.0719,348.1563 200.2594,348.0469 Q200.4469,347.9375 200.6656,347.9375 Q201.0406,347.9375 201.275,348.1953 Q201.5094,348.4531 201.5094,349.0625 L201.5094,350.5156 Q201.5094,351.125 201.275,351.3906 Q201.0406,351.6563 200.6656,351.6563 Q200.3219,351.6563 200.1188,351.4531 Q199.9156,351.2656 199.8063,350.75 Q199.7594,350.3906 199.5719,350.2031 Q199.2438,349.8281 198.6344,349.6094 Q198.025,349.3906 197.4,349.3906 Q196.6344,349.3906 196.0016,349.7188 Q195.3688,350.0469 194.8766,350.7969 Q194.3844,351.5469 194.3844,352.5781 L194.3844,353.6719 Q194.3844,354.9063 195.275,355.7266 Q196.1656,356.5469 197.7594,356.5469 Q198.6969,356.5469 199.3531,356.2969 Q199.7438,356.1406 200.1656,355.7031 Q200.4313,355.4375 200.5797,355.3594 Q200.7281,355.2813 200.9313,355.2813 Q201.2594,355.2813 201.5172,355.5391 Q201.775,355.7969 201.775,356.1406 Q201.775,356.4844 201.4313,356.8906 Q200.9313,357.4688 200.1344,357.7969 Q199.0563,358.25 197.7594,358.25 Q196.2438,358.25 195.0406,357.625 Q194.0563,357.125 193.3688,356.0547 Q192.6813,354.9844 192.6813,353.7031 L192.6813,352.5469 Q192.6813,351.2188 193.2984,350.0703 Q193.9156,348.9219 195.0094,348.3047 Q196.1031,347.6875 197.3375,347.6875 Q198.0719,347.6875 198.7203,347.8516 Q199.3688,348.0156 199.9156,348.375 Z "/><text fill="#000000" font-family="sans-serif" font-size="12" lengthAdjust="spacingAndGlyphs" textLength="49" x="211.85" y="357.4102">ExprStep</text><line style="stroke: #A80036; stroke-width: 1.5;" x1="180" x2="266" y1="368.5" y2="368.5"/><text fill="#000000" font-family="sans-serif" font-size="11" lengthAdjust="spacingAndGlyphs" textLength="76" x="185" y="383.9189">expression : str</text><line style="stroke: #A80036; stroke-width: 1.5;" x1="180" x2="266" y1="390.3359" y2="390.3359"/><rect fill="#FEFECE" filter="url(#f1)" height="61.8359" style="stroke: #A80036; stroke-width: 1.5;" width="125" x="302.5" y="336.5"/><ellipse cx="317.5" cy="352.5" fill="#ADD1B2" rx="11" ry="11" style="stroke: #A80036; stroke-width: 1.0;"/><path d="M320.2656,348.375 Q320.4219,348.1563 320.6094,348.0469 Q320.7969,347.9375 321.0156,347.9375 Q321.3906,347.9375 321.625,348.1953 Q321.8594,348.4531 321.8594,349.0625 L321.8594,350.5156 Q321.8594,351.125 321.625,351.3906 Q321.3906,351.6563 321.0156,351.6563 Q320.6719,351.6563 320.4688,351.4531 Q320.2656,351.2656 320.1563,350.75 Q320.1094,350.3906 319.9219,350.2031 Q319.5938,349.8281 318.9844,349.6094 Q318.375,349.3906 317.75,349.3906 Q316.9844,349.3906 316.3516,349.7188 Q315.7188,350.0469 315.2266,350.7969 Q314.7344,351.5469 314.7344,352.5781 L314.7344,353.6719 Q314.7344,354.9063 315.625,355.7266 Q316.5156,356.5469 318.1094,356.5469 Q319.0469,356.5469 319.7031,356.2969 Q320.0938,356.1406 320.5156,355.7031 Q320.7813,355.4375 320.9297,355.3594 Q321.0781,355.2813 321.2813,355.2813 Q321.6094,355.2813 321.8672,355.5391 Q322.125,355.7969 322.125,356.1406 Q322.125,356.4844 321.7813,356.8906 Q321.2813,357.4688 320.4844,357.7969 Q319.4063,358.25 318.1094,358.25 Q316.5938,358.25 315.3906,357.625 Q314.4063,357.125 313.7188,356.0547 Q313.0313,354.9844 313.0313,353.7031 L313.0313,352.5469 Q313.0313,351.2188 313.6484,350.0703 Q314.2656,348.9219 315.3594,348.3047 Q316.4531,347.6875 317.6875,347.6875 Q318.4219,347.6875 319.0703,347.8516 Q319.7188,348.0156 320.2656,348.375 Z "/><text fill="#000000" font-family="sans-serif" font-size="12" lengthAdjust="spacingAndGlyphs" textLength="93" x="331.5" y="357.4102">SubProcessStep</text><line style="stroke: #A80036; stroke-width: 1.5;" x1="303.5" x2="426.5" y1="368.5" y2="368.5"/><text fill="#000000" font-family="sans-serif" font-size="11" lengthAdjust="spacingAndGlyphs" textLength="96" x="308.5" y="383.9189">arguments : List[str]</text><line style="stroke: #A80036; stroke-width: 1.5;" x1="303.5" x2="426.5" y1="390.3359" y2="390.3359"/><rect fill="#FEFECE" filter="url(#f1)" height="48" style="stroke: #A80036; stroke-width: 1.5;" width="89" x="462.5" y="343.5"/><ellipse cx="477.5" cy="359.5" fill="#ADD1B2" rx="11" ry="11" style="stroke: #A80036; stroke-width: 1.0;"/><path d="M480.2656,355.375 Q480.4219,355.1563 480.6094,355.0469 Q480.7969,354.9375 481.0156,354.9375 Q481.3906,354.9375 481.625,355.1953 Q481.8594,355.4531 481.8594,356.0625 L481.8594,357.5156 Q481.8594,358.125 481.625,358.3906 Q481.3906,358.6563 481.0156,358.6563 Q480.6719,358.6563 480.4688,358.4531 Q480.2656,358.2656 480.1563,357.75 Q480.1094,357.3906 479.9219,357.2031 Q479.5938,356.8281 478.9844,356.6094 Q478.375,356.3906 477.75,356.3906 Q476.9844,356.3906 476.3516,356.7188 Q475.7188,357.0469 475.2266,357.7969 Q474.7344,358.5469 474.7344,359.5781 L474.7344,360.6719 Q474.7344,361.9063 475.625,362.7266 Q476.5156,363.5469 478.1094,363.5469 Q479.0469,363.5469 479.7031,363.2969 Q480.0938,363.1406 480.5156,362.7031 Q480.7813,362.4375 480.9297,362.3594 Q481.0781,362.2813 481.2813,362.2813 Q481.6094,362.2813 481.8672,362.5391 Q482.125,362.7969 482.125,363.1406 Q482.125,363.4844 481.7813,363.8906 Q481.2813,364.4688 480.4844,364.7969 Q479.4063,365.25 478.1094,365.25 Q476.5938,365.25 475.3906,364.625 Q474.4063,364.125 473.7188,363.0547 Q473.0313,361.9844 473.0313,360.7031 L473.0313,359.5469 Q473.0313,358.2188 473.6484,357.0703 Q474.2656,355.9219 475.3594,355.3047 Q476.4531,354.6875 477.6875,354.6875 Q478.4219,354.6875 479.0703,354.8516 Q479.7188,355.0156 480.2656,355.375 Z "/><text fill="#000000" font-family="sans-serif" font-size="12" lengthAdjust="spacingAndGlyphs" textLength="57" x="491.5" y="364.4102">NoOpStep</text><line style="stroke: #A80036; stroke-width: 1.5;" x1="463.5" x2="550.5" y1="375.5" y2="375.5"/><line style="stroke: #A80036; stroke-width: 1.5;" x1="463.5" x2="550.5" y1="383.5" y2="383.5"/><polygon fill="#FBFB77" filter="url(#f1)" points="63.5,15.5,63.5,90.9063,228.5,90.9063,228.5,25.5,218.5,15.5,63.5,15.5" style="stroke: #A80036; stroke-width: 1.0;"/><polygon fill="#FBFB77" points="63.5,15.5,63.5,90.9063,228.5,90.9063,228.5,57,297.842,53,228.5,49,228.5,25.5,218.5,15.5,63.5,15.5" style="stroke: #A80036; stroke-width: 1.0;"/><line style="stroke: #A80036; stroke-width: 1.0;" x1="218.5" x2="218.5" y1="15.5" y2="25.5"/><line style="stroke: #A80036; stroke-width: 1.0;" x1="228.5" x2="218.5" y1="25.5" y2="25.5"/><text fill="#000000" font-family="sans-serif" font-size="13" lengthAdjust="spacingAndGlyphs" textLength="105" x="69.5" y="33.9951">Collection pattern:</text><text fill="#000000" font-family="sans-serif" font-size="13" lengthAdjust="spacingAndGlyphs" textLength="127" x="69.5" y="50.3467">a Workflow is a Node,</text><text fill="#000000" font-family="sans-serif" font-size="13" lengthAdjust="spacingAndGlyphs" textLength="131" x="69.5" y="66.6982">and aggregates Steps,</text><text fill="#000000" font-family="sans-serif" font-size="13" lengthAdjust="spacingAndGlyphs" textLength="144" x="69.5" y="83.0498">which are Nodes as well.</text><path d="M97.148,282.834 C101.5743,272.675 106.816,262.795 113,254 C161.753,184.666 241.255,127.255 297.92,91.994 " fill="none" style="stroke: #A80036; stroke-width: 1.0;"/><polygon fill="none" points="103.5397,285.715,89.8221,301.865,90.4742,280.686,103.5397,285.715" style="stroke: #A80036; stroke-width: 1.0;"/><path d="M109.924,284.485 C117.755,272.941 127.062,262.227 138,254 C197.997,208.877 290.233,201.319 336.485,200.578 " fill="none" style="stroke: #A80036; stroke-width: 1.0;"/><polygon fill="none" points="115.808,288.283,99.4886,301.799,103.8172,281.056,115.808,288.283" style="stroke: #A80036; stroke-width: 1.0;"/><path d="M336.411,213.148 C296.134,230.706 220.912,265.135 161,302 C156.828,304.567 152.607,307.286 148.391,310.099 " fill="none" style="stroke: #A80036; stroke-width: 1.0;"/><polygon fill="#A80036" points="144.179,312.941,153.877,311.2238,148.324,310.1448,149.4031,304.5918,144.179,312.941" style="stroke: #A80036; stroke-width: 1.0;"/><text fill="#000000" font-family="sans-serif" font-size="13" lengthAdjust="spacingAndGlyphs" textLength="36" x="250" y="268.4951">parent</text><path d="M413.65,205.425 C492.434,214.233 651.002,238.876 769,302 C785.299,310.72 800.812,324.004 813.157,336.255 " fill="none" style="stroke: #A80036; stroke-width: 1.0;"/><polygon fill="none" points="412.812,212.375,393.645,203.341,414.262,198.451,412.812,212.375" style="stroke: #A80036; stroke-width: 1.0;"/><path d="M411.77,222.309 C453.629,241.813 516.336,272.106 569,302 C587.505,312.504 607.308,324.997 624.368,336.178 " fill="none" style="stroke: #A80036; stroke-width: 1.0;"/><polygon fill="none" points="408.791,228.643,393.573,213.898,414.665,215.935,408.791,228.643" style="stroke: #A80036; stroke-width: 1.0;"/><path d="M331.899,239.579 C306.572,269.097 272.143,309.224 248.828,336.397 " fill="none" style="stroke: #A80036; stroke-width: 1.0;"/><polygon fill="none" points="326.92,234.633,345.256,224.012,337.545,243.749,326.92,234.633" style="stroke: #A80036; stroke-width: 1.0;"/><path d="M365,244.19 C365,273.169 365,310.614 365,336.397 " fill="none" style="stroke: #A80036; stroke-width: 1.0;"/><polygon fill="none" points="358,244.012,365,224.012,372,244.012,358,244.012" style="stroke: #A80036; stroke-width: 1.0;"/><path d="M398.058,239.529 C425.673,271.714 464.13,316.536 487.195,343.417 " fill="none" style="stroke: #A80036; stroke-width: 1.0;"/><polygon fill="none" points="392.455,243.749,384.744,224.012,403.08,234.633,392.455,243.749" style="stroke: #A80036; stroke-width: 1.0;"/><path d="M808.57,336.423 C796.487,325.271 782.38,312.733 769,302 C660.837,215.235 520.053,135.255 436.438,90.712 " fill="none" style="stroke: #A80036; stroke-width: 1.0;"/><polygon fill="#A80036" points="432.005,88.356,438.0736,96.1131,436.4197,90.7034,441.8294,89.0495,432.005,88.356" style="stroke: #A80036; stroke-width: 1.0;"/><text fill="#000000" font-family="sans-serif" font-size="13" lengthAdjust="spacingAndGlyphs" textLength="49" x="658" y="205.4951">workflow</text><path d="M637.079,409.352 C605.296,450.026 557.084,511.725 527.395,549.721 " fill="none" style="stroke: #A80036; stroke-width: 1.0;"/><polygon fill="#A80036" points="519.178,560.237,527.8712,555.6079,522.2564,556.2971,521.5672,550.6823,519.178,560.237" style="stroke: #A80036; stroke-width: 1.0;"/><line style="stroke: #A80036; stroke-width: 1.0;" x1="522.2564" x2="527.1825" y1="556.2971" y2="549.9925"/><polygon fill="#FFFFFF" points="645.286,398.848,638.4399,401.1132,637.8977,408.3039,644.7438,406.0387,645.286,398.848" style="stroke: #A80036; stroke-width: 1.0;"/><path d="M154.714,429.709 C198.031,462.97 250.866,503.54 291.392,534.658 " fill="none" style="stroke: #A80036; stroke-width: 1.0;"/><polygon fill="#A80036" points="301.946,542.762,297.244,534.108,297.9803,539.7167,292.3716,540.4531,301.946,542.762" style="stroke: #A80036; stroke-width: 1.0;"/><line style="stroke: #A80036; stroke-width: 1.0;" x1="297.9803" x2="291.635" y1="539.7167" y2="534.8445"/><polygon fill="#FFFFFF" points="144.214,421.646,146.536,428.473,153.7309,428.9555,151.4089,422.1284,144.214,421.646" style="stroke: #A80036; stroke-width: 1.0;"/><text fill="#000000" font-family="sans-serif" font-size="13" lengthAdjust="spacingAndGlyphs" textLength="77" x="216" y="477.4951">op_meta_info</text><path d="M365,111.298 C365,128.612 365,147.137 365,162.68 " fill="none" style="stroke: #A80036; stroke-width: 1.0;"/><polygon fill="#A80036" points="365,175.994,369,166.994,365,170.994,361,166.994,365,175.994" style="stroke: #A80036; stroke-width: 1.0;"/><line style="stroke: #A80036; stroke-width: 1.0;" x1="365" x2="365" y1="170.994" y2="162.994"/><polygon fill="#FFFFFF" points="365,98.293,361,104.293,365,110.293,369,104.293,365,98.293" style="stroke: #A80036; stroke-width: 1.0;"/><text fill="#000000" font-family="sans-serif" font-size="13" lengthAdjust="spacingAndGlyphs" textLength="32" x="366" y="142.4951">steps</text><text fill="#000000" font-family="sans-serif" font-size="13" lengthAdjust="spacingAndGlyphs" textLength="24" x="337.925" y="165.3326">0..N</text></g></svg>