<?xml version="1.0" encoding="UTF-8" standalone="yes"?><svg xmlns="http://www.w3.org/2000/svg" xmlns:xlink="http://www.w3.org/1999/xlink" height="275px" style="width:319px;height:275px;" version="1.1" viewBox="0 0 319 275" width="319px"><defs><filter height="300%" id="f1" width="300%" x="-1" y="-1"><feGaussianBlur result="blurOut" stdDeviation="2.0"/><feColorMatrix in="blurOut" result="blurOut2" type="matrix" values="0 0 0 0 0 0 0 0 0 0 0 0 0 0 0 0 0 0 .4 0"/><feOffset dx="4.0" dy="4.0" in="blurOut2" result="blurOut3"/><feBlend in="SourceGraphic" in2="blurOut3" mode="normal"/></filter></defs><g><rect fill="#FFBBBB" filter="url(#f1)" height="146.4063" style="stroke: #A80036; stroke-width: 1.0;" width="10" x="97.5" y="71.6094"/><rect fill="#E9967A" filter="url(#f1)" height="94.0547" style="stroke: #A80036; stroke-width: 1.0;" width="10" x="102.5" y="109.9609"/><rect fill="#FFFFFF" filter="url(#f1)" height="58.7031" style="stroke: #A80036; stroke-width: 1.0;" width="10" x="188.5" y="145.3125"/><rect fill="#FFFFFF" filter="url(#f1)" height="14.3516" style="stroke: #A80036; stroke-width: 1.0;" width="10" x="193.5" y="175.6641"/><line style="stroke: #A80036; stroke-width: 1.0; stroke-dasharray: 5.0,5.0;" x1="31" x2="31" y1="39.6094" y2="236.0156"/><line style="stroke: #A80036; stroke-width: 1.0; stroke-dasharray: 5.0,5.0;" x1="102" x2="102" y1="39.6094" y2="236.0156"/><line style="stroke: #A80036; stroke-width: 1.0; stroke-dasharray: 5.0,5.0;" x1="193.5" x2="193.5" y1="39.6094" y2="236.0156"/><line style="stroke: #A80036; stroke-width: 1.0; stroke-dasharray: 5.0,5.0;" x1="275.5" x2="275.5" y1="39.6094" y2="236.0156"/><rect fill="#FEFECE" filter="url(#f1)" height="31.6094" style="stroke: #A80036; stroke-width: 1.5;" width="43" x="8" y="3"/><text fill="#000000" font-family="sans-serif" font-size="14" lengthAdjust="spacingAndGlyphs" textLength="29" x="15" y="24.5332">User</text><rect fill="#FEFECE" filter="url(#f1)" height="31.6094" style="stroke: #A80036; stroke-width: 1.5;" width="43" x="8" y="235.0156"/><text fill="#000000" font-family="sans-serif" font-size="14" lengthAdjust="spacingAndGlyphs" textLength="29" x="15" y="256.5488">User</text><rect fill="#FEFECE" filter="url(#f1)" height="31.6094" style="stroke: #A80036; stroke-width: 1.5;" width="71" x="65" y="3"/><text fill="#000000" font-family="sans-serif" font-size="14" lengthAdjust="spacingAndGlyphs" textLength="57" x="72" y="24.5332">Workflow</text><rect fill="#FEFECE" filter="url(#f1)" height="31.6094" style="stroke: #A80036; stroke-width: 1.5;" width="71" x="65" y="235.0156"/><text fill="#000000" font-family="sans-serif" font-size="14" lengthAdjust="spacingAndGlyphs" textLength="57" x="72" y="256.5488">Workflow</text><rect fill="#FEFECE" filter="url(#f1)" height="31.6094" style="stroke: #A80036; stroke-width: 1.5;" width="62" x="160.5" y="3"/><text fill="#000000" font-family="sans-serif" font-size="14" lengthAdjust="spacingAndGlyphs" textLength="48" x="167.5" y="24.5332">OpStep</text><rect fill="#FEFECE" filter="url(#f1)" height="31.6094" style="stroke: #A80036; stroke-width: 1.5;" width="62" x="160.5" y="235.0156"/><text fill="#000000" font-family="sans-serif" font-size="14" lengthAdjust="spacingAndGlyphs" textLength="48" x="167.5" y="256.5488">OpStep</text><rect fill="#FEFECE" filter="url(#f1)" height="31.6094" style="stroke: #A80036; stroke-width: 1.5;" width="74" x="236.5" y="3"/><text fill="#000000" font-family="sans-serif" font-size="14" lengthAdjust="spacingAndGlyphs" textLength="60" x="243.5" y="24.5332">operation</text><rect fill="#FEFECE" filter="url(#f1)" height="31.6094" style="stroke: #A80036; stroke-width: 1.5;" width="74" x="236.5" y="235.0156"/><text fill="#000000" font-family="sans-serif" font-size="14" lengthAdjust="spacingAndGlyphs" textLength="60" x="243.5" y="256.5488">operation</text><rect fill="#FFBBBB" filter="url(#f1)" height="146.4063" style="stroke: #A80036; stroke-width: 1.0;" width="10" x="97.5" y="71.6094"/><rect fill="#E9967A" filter="url(#f1)" height="94.0547" style="stroke: #A80036; stroke-width: 1.0;" width="10" x="102.5" y="109.9609"/><rect fill="#FFFFFF" filter="url(#f1)" height="58.7031" style="stroke: #A80036; stroke-width: 1.0;" width="10" x="188.5" y="145.3125"/><rect fill="#FFFFFF" filter="url(#f1)" height="14.3516" style="stroke: #A80036; stroke-width: 1.0;" width="10" x="193.5" y="175.6641"/><polygon fill="#A80036" points="85.5,67.6094,95.5,71.6094,85.5,75.6094,89.5,71.6094" style="stroke: #A80036; stroke-width: 1.0;"/><line style="stroke: #A80036; stroke-width: 1.0;" x1="31.5" x2="91.5" y1="71.6094" y2="71.6094"/><text fill="#000000" font-family="sans-serif" font-size="13" lengthAdjust="spacingAndGlyphs" textLength="44" x="38.5" y="67.1045">invoke()</text><line style="stroke: #A80036; stroke-width: 1.0;" x1="107.5" x2="154.5" y1="97.3125" y2="97.3125"/><line style="stroke: #A80036; stroke-width: 1.0;" x1="154.5" x2="154.5" y1="97.3125" y2="110.3125"/><line style="stroke: #A80036; stroke-width: 1.0;" x1="113.5" x2="154.5" y1="110.3125" y2="110.3125"/><polygon fill="#A80036" points="123.5,106.3125,113.5,110.3125,123.5,114.3125,119.5,110.3125" style="stroke: #A80036; stroke-width: 1.0;"/><text fill="#000000" font-family="sans-serif" font-size="13" lengthAdjust="spacingAndGlyphs" textLength="67" x="119.5" y="92.4561">for all steps</text><polygon fill="#A80036" points="176.5,141.3125,186.5,145.3125,176.5,149.3125,180.5,145.3125" style="stroke: #A80036; stroke-width: 1.0;"/><line style="stroke: #A80036; stroke-width: 1.0;" x1="112.5" x2="182.5" y1="145.3125" y2="145.3125"/><text fill="#000000" font-family="sans-serif" font-size="13" lengthAdjust="spacingAndGlyphs" textLength="44" x="119.5" y="140.8076">invoke()</text><polygon fill="#A80036" points="263.5,171.6641,273.5,175.6641,263.5,179.6641,267.5,175.6641" style="stroke: #A80036; stroke-width: 1.0;"/><line style="stroke: #A80036; stroke-width: 1.0;" x1="203.5" x2="269.5" y1="175.6641" y2="175.6641"/><text fill="#000000" font-family="sans-serif" font-size="13" lengthAdjust="spacingAndGlyphs" textLength="42" x="210.5" y="171.1592">_call_()</text><polygon fill="#A80036" points="209.5,186.0156,199.5,190.0156,209.5,194.0156,205.5,190.0156" style="stroke: #A80036; stroke-width: 1.0;"/><line style="stroke: #A80036; stroke-width: 1.0; stroke-dasharray: 2.0,2.0;" x1="203.5" x2="274.5" y1="190.0156" y2="190.0156"/><polygon fill="#A80036" points="118.5,200.0156,108.5,204.0156,118.5,208.0156,114.5,204.0156" style="stroke: #A80036; stroke-width: 1.0;"/><line style="stroke: #A80036; stroke-width: 1.0; stroke-dasharray: 2.0,2.0;" x1="112.5" x2="192.5" y1="204.0156" y2="204.0156"/><polygon fill="#A80036" points="42.5,214.0156,32.5,218.0156,42.5,222.0156,38.5,218.0156" style="stroke: #A80036; stroke-width: 1.0;"/><line style="stroke: #A80036; stroke-width: 1.0; stroke-dasharray: 2.0,2.0;" x1="36.5" x2="101.5" y1="218.0156" y2="218.0156"/></g></svg>