<?xml version="1.0" encoding="UTF-8" standalone="yes"?><svg xmlns="http://www.w3.org/2000/svg" xmlns:xlink="http://www.w3.org/1999/xlink" height="659px" style="width:870px;height:659px;" version="1.1" viewBox="0 0 870 659" width="870px"><defs><filter height="300%" id="f1" width="300%" x="-1" y="-1"><feGaussianBlur result="blurOut" stdDeviation="2.0"/><feColorMatrix in="blurOut" result="blurOut2" type="matrix" values="0 0 0 0 0 0 0 0 0 0 0 0 0 0 0 0 0 0 .4 0"/><feOffset dx="4.0" dy="4.0" in="blurOut2" result="blurOut3"/><feBlend in="SourceGraphic" in2="blurOut3" mode="normal"/></filter></defs><g><polygon fill="#FFFFFF" filter="url(#f1)" points="251.5,497,275.5,497,282.5,520.6094,540.5,520.6094,540.5,652,251.5,652,251.5,497" style="stroke: #000000; stroke-width: 2.0;"/><line style="stroke: #000000; stroke-width: 2.0;" x1="251.5" x2="282.5" y1="520.6094" y2="520.6094"/><text fill="#000000" font-family="sans-serif" font-size="14" font-weight="bold" lengthAdjust="spacingAndGlyphs" textLength="18" x="255.5" y="513.5332">op</text><rect fill="#FEFECE" filter="url(#f1)" height="103.3438" style="stroke: #A80036; stroke-width: 1.5;" width="106" x="267.5" y="533"/><ellipse cx="287.9" cy="549" fill="#ADD1B2" rx="11" ry="11" style="stroke: #A80036; stroke-width: 1.0;"/><path d="M290.6656,544.875 Q290.8219,544.6563 291.0094,544.5469 Q291.1969,544.4375 291.4156,544.4375 Q291.7906,544.4375 292.025,544.6953 Q292.2594,544.9531 292.2594,545.5625 L292.2594,547.0156 Q292.2594,547.625 292.025,547.8906 Q291.7906,548.1563 291.4156,548.1563 Q291.0719,548.1563 290.8688,547.9531 Q290.6656,547.7656 290.5563,547.25 Q290.5094,546.8906 290.3219,546.7031 Q289.9938,546.3281 289.3844,546.1094 Q288.775,545.8906 288.15,545.8906 Q287.3844,545.8906 286.7516,546.2188 Q286.1188,546.5469 285.6266,547.2969 Q285.1344,548.0469 285.1344,549.0781 L285.1344,550.1719 Q285.1344,551.4063 286.025,552.2266 Q286.9156,553.0469 288.5094,553.0469 Q289.4469,553.0469 290.1031,552.7969 Q290.4938,552.6406 290.9156,552.2031 Q291.1813,551.9375 291.3297,551.8594 Q291.4781,551.7813 291.6813,551.7813 Q292.0094,551.7813 292.2672,552.0391 Q292.525,552.2969 292.525,552.6406 Q292.525,552.9844 292.1813,553.3906 Q291.6813,553.9688 290.8844,554.2969 Q289.8063,554.75 288.5094,554.75 Q286.9938,554.75 285.7906,554.125 Q284.8063,553.625 284.1188,552.5547 Q283.4313,551.4844 283.4313,550.2031 L283.4313,549.0469 Q283.4313,547.7188 284.0484,546.5703 Q284.6656,545.4219 285.7594,544.8047 Q286.8531,544.1875 288.0875,544.1875 Q288.8219,544.1875 289.4703,544.3516 Q290.1188,544.5156 290.6656,544.875 Z "/><text fill="#000000" font-family="sans-serif" font-size="12" lengthAdjust="spacingAndGlyphs" textLength="62" x="303.1" y="553.9102">OpMetaInfo</text><line style="stroke: #A80036; stroke-width: 1.5;" x1="268.5" x2="372.5" y1="565" y2="565"/><text fill="#000000" font-family="sans-serif" font-size="11" lengthAdjust="spacingAndGlyphs" textLength="94" x="273.5" y="580.4189">qualified_name : str</text><text fill="#000000" font-family="sans-serif" font-size="11" lengthAdjust="spacingAndGlyphs" textLength="60" x="273.5" y="594.2549">header : dict</text><text fill="#000000" font-family="sans-serif" font-size="11" lengthAdjust="spacingAndGlyphs" textLength="49" x="273.5" y="608.0908">input : dict</text><text fill="#000000" font-family="sans-serif" font-size="11" lengthAdjust="spacingAndGlyphs" textLength="56" x="273.5" y="621.9268">output : dict</text><line style="stroke: #A80036; stroke-width: 1.5;" x1="268.5" x2="372.5" y1="628.3438" y2="628.3438"/><rect fill="#FEFECE" filter="url(#f1)" height="48" style="stroke: #A80036; stroke-width: 1.5;" width="115" x="409" y="560.5"/><ellipse cx="424" cy="576.5" fill="#ADD1B2" rx="11" ry="11" style="stroke: #A80036; stroke-width: 1.0;"/><path d="M426.7656,572.375 Q426.9219,572.1563 427.1094,572.0469 Q427.2969,571.9375 427.5156,571.9375 Q427.8906,571.9375 428.125,572.1953 Q428.3594,572.4531 428.3594,573.0625 L428.3594,574.5156 Q428.3594,575.125 428.125,575.3906 Q427.8906,575.6563 427.5156,575.6563 Q427.1719,575.6563 426.9688,575.4531 Q426.7656,575.2656 426.6563,574.75 Q426.6094,574.3906 426.4219,574.2031 Q426.0938,573.8281 425.4844,573.6094 Q424.875,573.3906 424.25,573.3906 Q423.4844,573.3906 422.8516,573.7188 Q422.2188,574.0469 421.7266,574.7969 Q421.2344,575.5469 421.2344,576.5781 L421.2344,577.6719 Q421.2344,578.9063 422.125,579.7266 Q423.0156,580.5469 424.6094,580.5469 Q425.5469,580.5469 426.2031,580.2969 Q426.5938,580.1406 427.0156,579.7031 Q427.2813,579.4375 427.4297,579.3594 Q427.5781,579.2813 427.7813,579.2813 Q428.1094,579.2813 428.3672,579.5391 Q428.625,579.7969 428.625,580.1406 Q428.625,580.4844 428.2813,580.8906 Q427.7813,581.4688 426.9844,581.7969 Q425.9063,582.25 424.6094,582.25 Q423.0938,582.25 421.8906,581.625 Q420.9063,581.125 420.2188,580.0547 Q419.5313,578.9844 419.5313,577.7031 L419.5313,576.5469 Q419.5313,575.2188 420.1484,574.0703 Q420.7656,572.9219 421.8594,572.3047 Q422.9531,571.6875 424.1875,571.6875 Q424.9219,571.6875 425.5703,571.8516 Q426.2188,572.0156 426.7656,572.375 Z "/><text fill="#000000" font-family="sans-serif" font-size="12" lengthAdjust="spacingAndGlyphs" textLength="83" x="438" y="581.4102">OpRegistration</text><line style="stroke: #A80036; stroke-width: 1.5;" x1="410" x2="523" y1="592.5" y2="592.5"/><line style="stroke: #A80036; stroke-width: 1.5;" x1="410" x2="523" y1="600.5" y2="600.5"/><rect fill="#FEFECE" filter="url(#f1)" height="131.0156" style="stroke: #A80036; stroke-width: 1.5;" width="149" x="6" y="302"/><ellipse cx="61.25" cy="318" fill="#A9DCDF" rx="11" ry="11" style="stroke: #A80036; stroke-width: 1.0;"/><path d="M63.4375,319.7656 L59.2969,319.7656 L58.875,320.7969 L59.2969,320.7969 Q59.9063,320.7969 60.1719,321.0313 Q60.4375,321.2656 60.4375,321.6563 Q60.4375,322.0313 60.1719,322.2656 Q59.9063,322.5 59.2969,322.5 L57,322.5 Q56.3906,322.5 56.1328,322.2656 Q55.875,322.0313 55.875,321.6406 Q55.875,321.2656 56.1484,321.0234 Q56.4219,320.7813 57.0469,320.7969 L59.7188,314.1406 L58.6094,314.1406 Q58,314.1406 57.7344,313.9063 Q57.4688,313.6719 57.4688,313.2813 Q57.4688,312.9063 57.7344,312.6719 Q58,312.4375 58.6094,312.4375 L62.2813,312.4375 L65.6719,320.7969 Q66.2656,320.7969 66.4531,320.9375 Q66.8438,321.2031 66.8438,321.6563 Q66.8438,322.0313 66.5859,322.2656 Q66.3281,322.5 65.7188,322.5 L63.4219,322.5 Q62.8125,322.5 62.5469,322.2656 Q62.2813,322.0313 62.2813,321.6406 Q62.2813,321.2656 62.5469,321.0313 Q62.8125,320.7969 63.4219,320.7969 L63.8438,320.7969 L63.4375,319.7656 Z M62.7188,318.0625 L61.3594,314.6875 L59.9844,318.0625 L62.7188,318.0625 Z "/><text fill="#000000" font-family="sans-serif" font-size="12" font-style="italic" lengthAdjust="spacingAndGlyphs" textLength="30" x="81.75" y="322.9102">Node</text><line style="stroke: #A80036; stroke-width: 1.5;" x1="7" x2="154" y1="334" y2="334"/><text fill="#000000" font-family="sans-serif" font-size="11" lengthAdjust="spacingAndGlyphs" textLength="30" x="12" y="349.4189">id : str</text><text fill="#000000" font-family="sans-serif" font-size="11" lengthAdjust="spacingAndGlyphs" textLength="130" x="12" y="363.2549">input : List[NodeConnector]</text><text fill="#000000" font-family="sans-serif" font-size="11" lengthAdjust="spacingAndGlyphs" textLength="137" x="12" y="377.0908">output : List[NodeConnector]</text><line style="stroke: #A80036; stroke-width: 1.5;" x1="7" x2="154" y1="383.5078" y2="383.5078"/><text fill="#000000" font-family="sans-serif" font-size="11" font-style="italic" lengthAdjust="spacingAndGlyphs" textLength="126" x="12" y="398.9268">from_json_dict(json_dict)</text><text fill="#000000" font-family="sans-serif" font-size="11" font-style="italic" lengthAdjust="spacingAndGlyphs" textLength="95" x="12" y="412.7627">to_json_dict() : dict</text><text fill="#000000" font-family="sans-serif" font-size="11" font-style="italic" lengthAdjust="spacingAndGlyphs" textLength="113" x="12" y="426.5986">invoke(monitor, **args)</text><rect fill="#FEFECE" filter="url(#f1)" height="89.5078" style="stroke: #A80036; stroke-width: 1.5;" width="134" x="275.5" y="8"/><ellipse cx="313.9" cy="24" fill="#ADD1B2" rx="11" ry="11" style="stroke: #A80036; stroke-width: 1.0;"/><path d="M316.6656,19.875 Q316.8219,19.6563 317.0094,19.5469 Q317.1969,19.4375 317.4156,19.4375 Q317.7906,19.4375 318.025,19.6953 Q318.2594,19.9531 318.2594,20.5625 L318.2594,22.0156 Q318.2594,22.625 318.025,22.8906 Q317.7906,23.1563 317.4156,23.1563 Q317.0719,23.1563 316.8688,22.9531 Q316.6656,22.7656 316.5563,22.25 Q316.5094,21.8906 316.3219,21.7031 Q315.9938,21.3281 315.3844,21.1094 Q314.775,20.8906 314.15,20.8906 Q313.3844,20.8906 312.7516,21.2188 Q312.1188,21.5469 311.6266,22.2969 Q311.1344,23.0469 311.1344,24.0781 L311.1344,25.1719 Q311.1344,26.4063 312.025,27.2266 Q312.9156,28.0469 314.5094,28.0469 Q315.4469,28.0469 316.1031,27.7969 Q316.4938,27.6406 316.9156,27.2031 Q317.1813,26.9375 317.3297,26.8594 Q317.4781,26.7813 317.6813,26.7813 Q318.0094,26.7813 318.2672,27.0391 Q318.525,27.2969 318.525,27.6406 Q318.525,27.9844 318.1813,28.3906 Q317.6813,28.9688 316.8844,29.2969 Q315.8063,29.75 314.5094,29.75 Q312.9938,29.75 311.7906,29.125 Q310.8063,28.625 310.1188,27.5547 Q309.4313,26.4844 309.4313,25.2031 L309.4313,24.0469 Q309.4313,22.7188 310.0484,21.5703 Q310.6656,20.4219 311.7594,19.8047 Q312.8531,19.1875 314.0875,19.1875 Q314.8219,19.1875 315.4703,19.3516 Q316.1188,19.5156 316.6656,19.875 Z "/><text fill="#000000" font-family="sans-serif" font-size="12" lengthAdjust="spacingAndGlyphs" textLength="50" x="333.1" y="28.9102">Workflow</text><line style="stroke: #A80036; stroke-width: 1.5;" x1="276.5" x2="408.5" y1="40" y2="40"/><line style="stroke: #A80036; stroke-width: 1.5;" x1="276.5" x2="408.5" y1="48" y2="48"/><text fill="#000000" font-family="sans-serif" font-size="11" lengthAdjust="spacingAndGlyphs" textLength="122" x="281.5" y="63.4189">from_json_dict(json_dict)</text><text fill="#000000" font-family="sans-serif" font-size="11" lengthAdjust="spacingAndGlyphs" textLength="92" x="281.5" y="77.2549">to_json_dict() : dict</text><text fill="#000000" font-family="sans-serif" font-size="11" lengthAdjust="spacingAndGlyphs" textLength="110" x="281.5" y="91.0908">invoke(monitor, **args)</text><rect fill="#FEFECE" filter="url(#f1)" height="48" style="stroke: #A80036; stroke-width: 1.5;" width="57" x="314" y="176"/><ellipse cx="329" cy="192" fill="#A9DCDF" rx="11" ry="11" style="stroke: #A80036; stroke-width: 1.0;"/><path d="M331.1875,193.7656 L327.0469,193.7656 L326.625,194.7969 L327.0469,194.7969 Q327.6563,194.7969 327.9219,195.0313 Q328.1875,195.2656 328.1875,195.6563 Q328.1875,196.0313 327.9219,196.2656 Q327.6563,196.5 327.0469,196.5 L324.75,196.5 Q324.1406,196.5 323.8828,196.2656 Q323.625,196.0313 323.625,195.6406 Q323.625,195.2656 323.8984,195.0234 Q324.1719,194.7813 324.7969,194.7969 L327.4688,188.1406 L326.3594,188.1406 Q325.75,188.1406 325.4844,187.9063 Q325.2188,187.6719 325.2188,187.2813 Q325.2188,186.9063 325.4844,186.6719 Q325.75,186.4375 326.3594,186.4375 L330.0313,186.4375 L333.4219,194.7969 Q334.0156,194.7969 334.2031,194.9375 Q334.5938,195.2031 334.5938,195.6563 Q334.5938,196.0313 334.3359,196.2656 Q334.0781,196.5 333.4688,196.5 L331.1719,196.5 Q330.5625,196.5 330.2969,196.2656 Q330.0313,196.0313 330.0313,195.6406 Q330.0313,195.2656 330.2969,195.0313 Q330.5625,194.7969 331.1719,194.7969 L331.5938,194.7969 L331.1875,193.7656 Z M330.4688,192.0625 L329.1094,188.6875 L327.7344,192.0625 L330.4688,192.0625 Z "/><text fill="#000000" font-family="sans-serif" font-size="12" font-style="italic" lengthAdjust="spacingAndGlyphs" textLength="25" x="343" y="196.9102">Step</text><line style="stroke: #A80036; stroke-width: 1.5;" x1="315" x2="370" y1="208" y2="208"/><line style="stroke: #A80036; stroke-width: 1.5;" x1="315" x2="370" y1="216" y2="216"/><rect fill="#FEFECE" filter="url(#f1)" height="103.3438" style="stroke: #A80036; stroke-width: 1.5;" width="134" x="727.5" y="316"/><ellipse cx="754.65" cy="332" fill="#ADD1B2" rx="11" ry="11" style="stroke: #A80036; stroke-width: 1.0;"/><path d="M757.4156,327.875 Q757.5719,327.6563 757.7594,327.5469 Q757.9469,327.4375 758.1656,327.4375 Q758.5406,327.4375 758.775,327.6953 Q759.0094,327.9531 759.0094,328.5625 L759.0094,330.0156 Q759.0094,330.625 758.775,330.8906 Q758.5406,331.1563 758.1656,331.1563 Q757.8219,331.1563 757.6188,330.9531 Q757.4156,330.7656 757.3063,330.25 Q757.2594,329.8906 757.0719,329.7031 Q756.7438,329.3281 756.1344,329.1094 Q755.525,328.8906 754.9,328.8906 Q754.1344,328.8906 753.5016,329.2188 Q752.8688,329.5469 752.3766,330.2969 Q751.8844,331.0469 751.8844,332.0781 L751.8844,333.1719 Q751.8844,334.4063 752.775,335.2266 Q753.6656,336.0469 755.2594,336.0469 Q756.1969,336.0469 756.8531,335.7969 Q757.2438,335.6406 757.6656,335.2031 Q757.9313,334.9375 758.0797,334.8594 Q758.2281,334.7813 758.4313,334.7813 Q758.7594,334.7813 759.0172,335.0391 Q759.275,335.2969 759.275,335.6406 Q759.275,335.9844 758.9313,336.3906 Q758.4313,336.9688 757.6344,337.2969 Q756.5563,337.75 755.2594,337.75 Q753.7438,337.75 752.5406,337.125 Q751.5563,336.625 750.8688,335.5547 Q750.1813,334.4844 750.1813,333.2031 L750.1813,332.0469 Q750.1813,330.7188 750.7984,329.5703 Q751.4156,328.4219 752.5094,327.8047 Q753.6031,327.1875 754.8375,327.1875 Q755.5719,327.1875 756.2203,327.3516 Q756.8688,327.5156 757.4156,327.875 Z "/><text fill="#000000" font-family="sans-serif" font-size="12" lengthAdjust="spacingAndGlyphs" textLength="75" x="771.35" y="336.9102">WorkflowStep</text><line style="stroke: #A80036; stroke-width: 1.5;" x1="728.5" x2="860.5" y1="348" y2="348"/><text fill="#000000" font-family="sans-serif" font-size="11" lengthAdjust="spacingAndGlyphs" textLength="66" x="733.5" y="363.4189">resource : str</text><line style="stroke: #A80036; stroke-width: 1.5;" x1="728.5" x2="860.5" y1="369.8359" y2="369.8359"/><text fill="#000000" font-family="sans-serif" font-size="11" lengthAdjust="spacingAndGlyphs" textLength="122" x="733.5" y="385.2549">from_json_dict(json_dict)</text><text fill="#000000" font-family="sans-serif" font-size="11" lengthAdjust="spacingAndGlyphs" textLength="92" x="733.5" y="399.0908">to_json_dict() : dict</text><text fill="#000000" font-family="sans-serif" font-size="11" lengthAdjust="spacingAndGlyphs" textLength="110" x="733.5" y="412.9268">invoke(monitor, **args)</text><rect fill="#FEFECE" filter="url(#f1)" height="103.3438" style="stroke: #A80036; stroke-width: 1.5;" width="164" x="528.5" y="316"/><ellipse cx="585.75" cy="332" fill="#ADD1B2" rx="11" ry="11" style="stroke: #A80036; stroke-width: 1.0;"/><path d="M588.5156,327.875 Q588.6719,327.6563 588.8594,327.5469 Q589.0469,327.4375 589.2656,327.4375 Q589.6406,327.4375 589.875,327.6953 Q590.1094,327.9531 590.1094,328.5625 L590.1094,330.0156 Q590.1094,330.625 589.875,330.8906 Q589.6406,331.1563 589.2656,331.1563 Q588.9219,331.1563 588.7188,330.9531 Q588.5156,330.7656 588.4063,330.25 Q588.3594,329.8906 588.1719,329.7031 Q587.8438,329.3281 587.2344,329.1094 Q586.625,328.8906 586,328.8906 Q585.2344,328.8906 584.6016,329.2188 Q583.9688,329.5469 583.4766,330.2969 Q582.9844,331.0469 582.9844,332.0781 L582.9844,333.1719 Q582.9844,334.4063 583.875,335.2266 Q584.7656,336.0469 586.3594,336.0469 Q587.2969,336.0469 587.9531,335.7969 Q588.3438,335.6406 588.7656,335.2031 Q589.0313,334.9375 589.1797,334.8594 Q589.3281,334.7813 589.5313,334.7813 Q589.8594,334.7813 590.1172,335.0391 Q590.375,335.2969 590.375,335.6406 Q590.375,335.9844 590.0313,336.3906 Q589.5313,336.9688 588.7344,337.2969 Q587.6563,337.75 586.3594,337.75 Q584.8438,337.75 583.6406,337.125 Q582.6563,336.625 581.9688,335.5547 Q581.2813,334.4844 581.2813,333.2031 L581.2813,332.0469 Q581.2813,330.7188 581.8984,329.5703 Q582.5156,328.4219 583.6094,327.8047 Q584.7031,327.1875 585.9375,327.1875 Q586.6719,327.1875 587.3203,327.3516 Q587.9688,327.5156 588.5156,327.875 Z "/><text fill="#000000" font-family="sans-serif" font-size="12" lengthAdjust="spacingAndGlyphs" textLength="41" x="606.25" y="336.9102">OpStep</text><line style="stroke: #A80036; stroke-width: 1.5;" x1="529.5" x2="691.5" y1="348" y2="348"/><text fill="#000000" font-family="sans-serif" font-size="11" lengthAdjust="spacingAndGlyphs" textLength="152" x="534.5" y="363.4189">op_registration : OpRegistration</text><line style="stroke: #A80036; stroke-width: 1.5;" x1="529.5" x2="691.5" y1="369.8359" y2="369.8359"/><text fill="#000000" font-family="sans-serif" font-size="11" lengthAdjust="spacingAndGlyphs" textLength="122" x="534.5" y="385.2549">from_json_dict(json_dict)</text><text fill="#000000" font-family="sans-serif" font-size="11" lengthAdjust="spacingAndGlyphs" textLength="92" x="534.5" y="399.0908">to_json_dict() : dict</text><text fill="#000000" font-family="sans-serif" font-size="11" lengthAdjust="spacingAndGlyphs" textLength="110" x="534.5" y="412.9268">invoke(monitor, **args)</text><rect fill="#FEFECE" filter="url(#f1)" height="103.3438" style="stroke: #A80036; stroke-width: 1.5;" width="134" x="190.5" y="316"/><ellipse cx="229.35" cy="332" fill="#ADD1B2" rx="11" ry="11" style="stroke: #A80036; stroke-width: 1.0;"/><path d="M232.1156,327.875 Q232.2719,327.6563 232.4594,327.5469 Q232.6469,327.4375 232.8656,327.4375 Q233.2406,327.4375 233.475,327.6953 Q233.7094,327.9531 233.7094,328.5625 L233.7094,330.0156 Q233.7094,330.625 233.475,330.8906 Q233.2406,331.1563 232.8656,331.1563 Q232.5219,331.1563 232.3188,330.9531 Q232.1156,330.7656 232.0063,330.25 Q231.9594,329.8906 231.7719,329.7031 Q231.4438,329.3281 230.8344,329.1094 Q230.225,328.8906 229.6,328.8906 Q228.8344,328.8906 228.2016,329.2188 Q227.5688,329.5469 227.0766,330.2969 Q226.5844,331.0469 226.5844,332.0781 L226.5844,333.1719 Q226.5844,334.4063 227.475,335.2266 Q228.3656,336.0469 229.9594,336.0469 Q230.8969,336.0469 231.5531,335.7969 Q231.9438,335.6406 232.3656,335.2031 Q232.6313,334.9375 232.7797,334.8594 Q232.9281,334.7813 233.1313,334.7813 Q233.4594,334.7813 233.7172,335.0391 Q233.975,335.2969 233.975,335.6406 Q233.975,335.9844 233.6313,336.3906 Q233.1313,336.9688 232.3344,337.2969 Q231.2563,337.75 229.9594,337.75 Q228.4438,337.75 227.2406,337.125 Q226.2563,336.625 225.5688,335.5547 Q224.8813,334.4844 224.8813,333.2031 L224.8813,332.0469 Q224.8813,330.7188 225.4984,329.5703 Q226.1156,328.4219 227.2094,327.8047 Q228.3031,327.1875 229.5375,327.1875 Q230.2719,327.1875 230.9203,327.3516 Q231.5688,327.5156 232.1156,327.875 Z "/><text fill="#000000" font-family="sans-serif" font-size="12" lengthAdjust="spacingAndGlyphs" textLength="49" x="248.65" y="336.9102">ExprStep</text><line style="stroke: #A80036; stroke-width: 1.5;" x1="191.5" x2="323.5" y1="348" y2="348"/><text fill="#000000" font-family="sans-serif" font-size="11" lengthAdjust="spacingAndGlyphs" textLength="76" x="196.5" y="363.4189">expression : str</text><line style="stroke: #A80036; stroke-width: 1.5;" x1="191.5" x2="323.5" y1="369.8359" y2="369.8359"/><text fill="#000000" font-family="sans-serif" font-size="11" lengthAdjust="spacingAndGlyphs" textLength="122" x="196.5" y="385.2549">from_json_dict(json_dict)</text><text fill="#000000" font-family="sans-serif" font-size="11" lengthAdjust="spacingAndGlyphs" textLength="92" x="196.5" y="399.0908">to_json_dict() : dict</text><text fill="#000000" font-family="sans-serif" font-size="11" lengthAdjust="spacingAndGlyphs" textLength="110" x="196.5" y="412.9268">invoke(monitor, **args)</text><rect fill="#FEFECE" filter="url(#f1)" height="103.3438" style="stroke: #A80036; stroke-width: 1.5;" width="134" x="359.5" y="316"/><ellipse cx="388.45" cy="332" fill="#ADD1B2" rx="11" ry="11" style="stroke: #A80036; stroke-width: 1.0;"/><path d="M391.2156,327.875 Q391.3719,327.6563 391.5594,327.5469 Q391.7469,327.4375 391.9656,327.4375 Q392.3406,327.4375 392.575,327.6953 Q392.8094,327.9531 392.8094,328.5625 L392.8094,330.0156 Q392.8094,330.625 392.575,330.8906 Q392.3406,331.1563 391.9656,331.1563 Q391.6219,331.1563 391.4188,330.9531 Q391.2156,330.7656 391.1063,330.25 Q391.0594,329.8906 390.8719,329.7031 Q390.5438,329.3281 389.9344,329.1094 Q389.325,328.8906 388.7,328.8906 Q387.9344,328.8906 387.3016,329.2188 Q386.6688,329.5469 386.1766,330.2969 Q385.6844,331.0469 385.6844,332.0781 L385.6844,333.1719 Q385.6844,334.4063 386.575,335.2266 Q387.4656,336.0469 389.0594,336.0469 Q389.9969,336.0469 390.6531,335.7969 Q391.0438,335.6406 391.4656,335.2031 Q391.7313,334.9375 391.8797,334.8594 Q392.0281,334.7813 392.2313,334.7813 Q392.5594,334.7813 392.8172,335.0391 Q393.075,335.2969 393.075,335.6406 Q393.075,335.9844 392.7313,336.3906 Q392.2313,336.9688 391.4344,337.2969 Q390.3563,337.75 389.0594,337.75 Q387.5438,337.75 386.3406,337.125 Q385.3563,336.625 384.6688,335.5547 Q383.9813,334.4844 383.9813,333.2031 L383.9813,332.0469 Q383.9813,330.7188 384.5984,329.5703 Q385.2156,328.4219 386.3094,327.8047 Q387.4031,327.1875 388.6375,327.1875 Q389.3719,327.1875 390.0203,327.3516 Q390.6688,327.5156 391.2156,327.875 Z "/><text fill="#000000" font-family="sans-serif" font-size="12" lengthAdjust="spacingAndGlyphs" textLength="71" x="405.55" y="336.9102">ProcessStep</text><line style="stroke: #A80036; stroke-width: 1.5;" x1="360.5" x2="492.5" y1="348" y2="348"/><text fill="#000000" font-family="sans-serif" font-size="11" lengthAdjust="spacingAndGlyphs" textLength="113" x="365.5" y="363.4189">command_line : List[str]</text><line style="stroke: #A80036; stroke-width: 1.5;" x1="360.5" x2="492.5" y1="369.8359" y2="369.8359"/><text fill="#000000" font-family="sans-serif" font-size="11" lengthAdjust="spacingAndGlyphs" textLength="122" x="365.5" y="385.2549">from_json_dict(json_dict)</text><text fill="#000000" font-family="sans-serif" font-size="11" lengthAdjust="spacingAndGlyphs" textLength="92" x="365.5" y="399.0908">to_json_dict() : dict</text><text fill="#000000" font-family="sans-serif" font-size="11" lengthAdjust="spacingAndGlyphs" textLength="110" x="365.5" y="412.9268">invoke(monitor, **args)</text><polygon fill="#FBFB77" filter="url(#f1)" points="41,15.5,41,90.9063,206,90.9063,206,25.5,196,15.5,41,15.5" style="stroke: #A80036; stroke-width: 1.0;"/><polygon fill="#FBFB77" points="41,15.5,41,90.9063,206,90.9063,206,57,275.342,53,206,49,206,25.5,196,15.5,41,15.5" style="stroke: #A80036; stroke-width: 1.0;"/><line style="stroke: #A80036; stroke-width: 1.0;" x1="196" x2="196" y1="15.5" y2="25.5"/><line style="stroke: #A80036; stroke-width: 1.0;" x1="206" x2="196" y1="25.5" y2="25.5"/><text fill="#000000" font-family="sans-serif" font-size="13" lengthAdjust="spacingAndGlyphs" textLength="105" x="47" y="33.9951">Collection pattern:</text><text fill="#000000" font-family="sans-serif" font-size="13" lengthAdjust="spacingAndGlyphs" textLength="127" x="47" y="50.3467">a Workflow is a Node,</text><text fill="#000000" font-family="sans-serif" font-size="13" lengthAdjust="spacingAndGlyphs" textLength="131" x="47" y="66.6982">and aggregates Steps,</text><text fill="#000000" font-family="sans-serif" font-size="13" lengthAdjust="spacingAndGlyphs" textLength="144" x="47" y="83.0498">which are Nodes as well.</text><path d="M111.236,283.377 C116.379,273.126 122.14,263.075 128.5,254 C171.545,192.574 236.03,135.537 282.959,98.223 " fill="none" style="stroke: #A80036; stroke-width: 1.0;"/><polygon fill="none" points="117.419,286.682,102.6509,301.877,104.7197,280.789,117.419,286.682" style="stroke: #A80036; stroke-width: 1.0;"/><path d="M123.336,285.474 C132.36,273.652 142.763,262.591 154.5,254 C202.933,218.547 274.265,206.783 313.677,202.898 " fill="none" style="stroke: #A80036; stroke-width: 1.0;"/><polygon fill="none" points="129.065,289.497,111.889,301.906,117.577,281.494,129.065,289.497" style="stroke: #A80036; stroke-width: 1.0;"/><path d="M313.826,217.155 C279.706,236.579 221.227,270.508 172.5,302 C168.261,304.74 163.939,307.584 159.594,310.485 " fill="none" style="stroke: #A80036; stroke-width: 1.0;"/><polygon fill="#A80036" points="155.244,313.403,164.9469,311.7135,159.397,310.6186,160.4919,305.0687,155.244,313.403" style="stroke: #A80036; stroke-width: 1.0;"/><text fill="#000000" font-family="sans-serif" font-size="13" lengthAdjust="spacingAndGlyphs" textLength="36" x="246.5" y="268.4951">parent</text><path d="M390.877,208.145 C463.335,220.175 603.011,248.564 710.5,302 C718.403,305.929 726.295,310.652 733.903,315.733 " fill="none" style="stroke: #A80036; stroke-width: 1.0;"/><polygon fill="none" points="389.718,215.049,371.068,204.99,391.921,201.223,389.718,215.049" style="stroke: #A80036; stroke-width: 1.0;"/><path d="M388.574,227.885 C422.718,247.965 470.277,276.267 511.5,302 C518.635,306.454 526.023,311.135 533.401,315.857 " fill="none" style="stroke: #A80036; stroke-width: 1.0;"/><polygon fill="none" points="384.822,233.799,371.111,217.643,391.904,221.723,384.822,233.799" style="stroke: #A80036; stroke-width: 1.0;"/><path d="M321.458,241.97 C309.994,264.291 295.706,292.111 283.544,315.79 " fill="none" style="stroke: #A80036; stroke-width: 1.0;"/><polygon fill="none" points="315.317,238.605,330.681,224.012,327.771,245.001,315.317,238.605" style="stroke: #A80036; stroke-width: 1.0;"/><path d="M363.294,241.97 C374.624,264.291 388.743,292.111 400.762,315.79 " fill="none" style="stroke: #A80036; stroke-width: 1.0;"/><polygon fill="none" points="356.99,245.015,354.18,224.012,369.474,238.678,356.99,245.015" style="stroke: #A80036; stroke-width: 1.0;"/><path d="M729.213,315.762 C722.926,311.06 716.615,306.409 710.5,302 C609.245,228.999 488.752,149.064 413.931,100.212 " fill="none" style="stroke: #A80036; stroke-width: 1.0;"/><polygon fill="#A80036" points="409.514,97.33,414.8645,105.5987,413.7011,100.0628,419.237,98.8994,409.514,97.33" style="stroke: #A80036; stroke-width: 1.0;"/><text fill="#000000" font-family="sans-serif" font-size="13" lengthAdjust="spacingAndGlyphs" textLength="49" x="594.5" y="205.4951">workflow</text><path d="M569.145,430.246 C543.172,469.024 510.66,517.567 489.27,549.503 " fill="none" style="stroke: #A80036; stroke-width: 1.0;"/><polygon fill="#A80036" points="481.925,560.469,490.2567,555.2171,484.7074,556.3147,483.6098,550.7653,481.925,560.469" style="stroke: #A80036; stroke-width: 1.0;"/><line style="stroke: #A80036; stroke-width: 1.0;" x1="484.7074" x2="489.1595" y1="556.3147" y2="549.668"/><polygon fill="#FFFFFF" points="576.556,419.18,569.8935,421.9389,569.8777,429.15,576.5402,426.3911,576.556,419.18" style="stroke: #A80036; stroke-width: 1.0;"/><path d="M162.607,442.054 C193.564,469.787 228.271,500.879 257.245,526.834 " fill="none" style="stroke: #A80036; stroke-width: 1.0;"/><polygon fill="#A80036" points="267.239,535.787,263.2045,526.8024,263.5148,532.4507,257.8665,532.7611,267.239,535.787" style="stroke: #A80036; stroke-width: 1.0;"/><line style="stroke: #A80036; stroke-width: 1.0;" x1="263.5148" x2="257.556" y1="532.4507" y2="527.112"/><polygon fill="#FFFFFF" points="152.508,433.007,154.308,439.9898,161.446,441.014,159.646,434.0312,152.508,433.007" style="stroke: #A80036; stroke-width: 1.0;"/><text fill="#000000" font-family="sans-serif" font-size="13" lengthAdjust="spacingAndGlyphs" textLength="77" x="201.5" y="477.4951">op_meta_info</text><path d="M342.5,111.298 C342.5,128.612 342.5,147.137 342.5,162.68 " fill="none" style="stroke: #A80036; stroke-width: 1.0;"/><polygon fill="#A80036" points="342.5,175.994,346.5,166.994,342.5,170.994,338.5,166.994,342.5,175.994" style="stroke: #A80036; stroke-width: 1.0;"/><line style="stroke: #A80036; stroke-width: 1.0;" x1="342.5" x2="342.5" y1="170.994" y2="162.994"/><polygon fill="#FFFFFF" points="342.5,98.293,338.5,104.293,342.5,110.293,346.5,104.293,342.5,98.293" style="stroke: #A80036; stroke-width: 1.0;"/><text fill="#000000" font-family="sans-serif" font-size="13" lengthAdjust="spacingAndGlyphs" textLength="32" x="343.5" y="142.4951">steps</text><text fill="#000000" font-family="sans-serif" font-size="13" lengthAdjust="spacingAndGlyphs" textLength="24" x="315.425" y="165.3326">0..N</text></g></svg>