<?xml version="1.0" encoding="UTF-8" standalone="yes"?><svg xmlns="http://www.w3.org/2000/svg" xmlns:xlink="http://www.w3.org/1999/xlink" height="600px" style="width:360px;height:600px;" version="1.1" viewBox="0 0 360 600" width="360px"><defs><filter height="300%" id="f1" width="300%" x="-1" y="-1"><feGaussianBlur result="blurOut" stdDeviation="2.0"/><feColorMatrix in="blurOut" result="blurOut2" type="matrix" values="0 0 0 0 0 0 0 0 0 0 0 0 0 0 0 0 0 0 .4 0"/><feOffset dx="4.0" dy="4.0" in="blurOut2" result="blurOut3"/><feBlend in="SourceGraphic" in2="blurOut3" mode="normal"/></filter></defs><g><polygon fill="#FFFFFF" filter="url(#f1)" points="57,438,81,438,88,461.6094,353,461.6094,353,593,57,593,57,438" style="stroke: #000000; stroke-width: 2.0;"/><line style="stroke: #000000; stroke-width: 2.0;" x1="57" x2="88" y1="461.6094" y2="461.6094"/><text fill="#000000" font-family="sans-serif" font-size="14" font-weight="bold" lengthAdjust="spacingAndGlyphs" textLength="18" x="61" y="454.5332">op</text><rect fill="#FEFECE" filter="url(#f1)" height="103.3438" style="stroke: #A80036; stroke-width: 1.5;" width="113" x="223.5" y="474"/><ellipse cx="247.05" cy="490" fill="#ADD1B2" rx="11" ry="11" style="stroke: #A80036; stroke-width: 1.0;"/><path d="M249.8156,485.875 Q249.9719,485.6563 250.1594,485.5469 Q250.3469,485.4375 250.5656,485.4375 Q250.9406,485.4375 251.175,485.6953 Q251.4094,485.9531 251.4094,486.5625 L251.4094,488.0156 Q251.4094,488.625 251.175,488.8906 Q250.9406,489.1563 250.5656,489.1563 Q250.2219,489.1563 250.0188,488.9531 Q249.8156,488.7656 249.7063,488.25 Q249.6594,487.8906 249.4719,487.7031 Q249.1438,487.3281 248.5344,487.1094 Q247.925,486.8906 247.3,486.8906 Q246.5344,486.8906 245.9016,487.2188 Q245.2688,487.5469 244.7766,488.2969 Q244.2844,489.0469 244.2844,490.0781 L244.2844,491.1719 Q244.2844,492.4063 245.175,493.2266 Q246.0656,494.0469 247.6594,494.0469 Q248.5969,494.0469 249.2531,493.7969 Q249.6438,493.6406 250.0656,493.2031 Q250.3313,492.9375 250.4797,492.8594 Q250.6281,492.7813 250.8313,492.7813 Q251.1594,492.7813 251.4172,493.0391 Q251.675,493.2969 251.675,493.6406 Q251.675,493.9844 251.3313,494.3906 Q250.8313,494.9688 250.0344,495.2969 Q248.9563,495.75 247.6594,495.75 Q246.1438,495.75 244.9406,495.125 Q243.9563,494.625 243.2688,493.5547 Q242.5813,492.4844 242.5813,491.2031 L242.5813,490.0469 Q242.5813,488.7188 243.1984,487.5703 Q243.8156,486.4219 244.9094,485.8047 Q246.0031,485.1875 247.2375,485.1875 Q247.9719,485.1875 248.6203,485.3516 Q249.2688,485.5156 249.8156,485.875 Z "/><text fill="#000000" font-family="sans-serif" font-size="12" lengthAdjust="spacingAndGlyphs" textLength="62" x="262.95" y="494.9102">OpMetaInfo</text><line style="stroke: #A80036; stroke-width: 1.5;" x1="224.5" x2="335.5" y1="506" y2="506"/><text fill="#000000" font-family="sans-serif" font-size="11" lengthAdjust="spacingAndGlyphs" textLength="92" x="229.5" y="521.4189">qualfied_name : str</text><text fill="#000000" font-family="sans-serif" font-size="11" lengthAdjust="spacingAndGlyphs" textLength="101" x="229.5" y="535.2549">header : OrderedDict</text><text fill="#000000" font-family="sans-serif" font-size="11" lengthAdjust="spacingAndGlyphs" textLength="90" x="229.5" y="549.0908">input : OrderedDict</text><text fill="#000000" font-family="sans-serif" font-size="11" lengthAdjust="spacingAndGlyphs" textLength="97" x="229.5" y="562.9268">output : OrderedDict</text><line style="stroke: #A80036; stroke-width: 1.5;" x1="224.5" x2="335.5" y1="569.3438" y2="569.3438"/><rect fill="#FEFECE" filter="url(#f1)" height="48" style="stroke: #A80036; stroke-width: 1.5;" width="115" x="73.5" y="501.5"/><ellipse cx="88.5" cy="517.5" fill="#ADD1B2" rx="11" ry="11" style="stroke: #A80036; stroke-width: 1.0;"/><path d="M91.2656,513.375 Q91.4219,513.1563 91.6094,513.0469 Q91.7969,512.9375 92.0156,512.9375 Q92.3906,512.9375 92.625,513.1953 Q92.8594,513.4531 92.8594,514.0625 L92.8594,515.5156 Q92.8594,516.125 92.625,516.3906 Q92.3906,516.6563 92.0156,516.6563 Q91.6719,516.6563 91.4688,516.4531 Q91.2656,516.2656 91.1563,515.75 Q91.1094,515.3906 90.9219,515.2031 Q90.5938,514.8281 89.9844,514.6094 Q89.375,514.3906 88.75,514.3906 Q87.9844,514.3906 87.3516,514.7188 Q86.7188,515.0469 86.2266,515.7969 Q85.7344,516.5469 85.7344,517.5781 L85.7344,518.6719 Q85.7344,519.9063 86.625,520.7266 Q87.5156,521.5469 89.1094,521.5469 Q90.0469,521.5469 90.7031,521.2969 Q91.0938,521.1406 91.5156,520.7031 Q91.7813,520.4375 91.9297,520.3594 Q92.0781,520.2813 92.2813,520.2813 Q92.6094,520.2813 92.8672,520.5391 Q93.125,520.7969 93.125,521.1406 Q93.125,521.4844 92.7813,521.8906 Q92.2813,522.4688 91.4844,522.7969 Q90.4063,523.25 89.1094,523.25 Q87.5938,523.25 86.3906,522.625 Q85.4063,522.125 84.7188,521.0547 Q84.0313,519.9844 84.0313,518.7031 L84.0313,517.5469 Q84.0313,516.2188 84.6484,515.0703 Q85.2656,513.9219 86.3594,513.3047 Q87.4531,512.6875 88.6875,512.6875 Q89.4219,512.6875 90.0703,512.8516 Q90.7188,513.0156 91.2656,513.375 Z "/><text fill="#000000" font-family="sans-serif" font-size="12" lengthAdjust="spacingAndGlyphs" textLength="83" x="102.5" y="522.4102">OpRegistration</text><line style="stroke: #A80036; stroke-width: 1.5;" x1="74.5" x2="187.5" y1="533.5" y2="533.5"/><line style="stroke: #A80036; stroke-width: 1.5;" x1="74.5" x2="187.5" y1="541.5" y2="541.5"/><rect fill="#FEFECE" filter="url(#f1)" height="103.3438" style="stroke: #A80036; stroke-width: 1.5;" width="187" x="137.5" y="148"/><ellipse cx="211.75" cy="164" fill="#A9DCDF" rx="11" ry="11" style="stroke: #A80036; stroke-width: 1.0;"/><path d="M213.9375,165.7656 L209.7969,165.7656 L209.375,166.7969 L209.7969,166.7969 Q210.4063,166.7969 210.6719,167.0313 Q210.9375,167.2656 210.9375,167.6563 Q210.9375,168.0313 210.6719,168.2656 Q210.4063,168.5 209.7969,168.5 L207.5,168.5 Q206.8906,168.5 206.6328,168.2656 Q206.375,168.0313 206.375,167.6406 Q206.375,167.2656 206.6484,167.0234 Q206.9219,166.7813 207.5469,166.7969 L210.2188,160.1406 L209.1094,160.1406 Q208.5,160.1406 208.2344,159.9063 Q207.9688,159.6719 207.9688,159.2813 Q207.9688,158.9063 208.2344,158.6719 Q208.5,158.4375 209.1094,158.4375 L212.7813,158.4375 L216.1719,166.7969 Q216.7656,166.7969 216.9531,166.9375 Q217.3438,167.2031 217.3438,167.6563 Q217.3438,168.0313 217.0859,168.2656 Q216.8281,168.5 216.2188,168.5 L213.9219,168.5 Q213.3125,168.5 213.0469,168.2656 Q212.7813,168.0313 212.7813,167.6406 Q212.7813,167.2656 213.0469,167.0313 Q213.3125,166.7969 213.9219,166.7969 L214.3438,166.7969 L213.9375,165.7656 Z M213.2188,164.0625 L211.8594,160.6875 L210.4844,164.0625 L213.2188,164.0625 Z "/><text fill="#000000" font-family="sans-serif" font-size="12" font-style="italic" lengthAdjust="spacingAndGlyphs" textLength="30" x="232.25" y="168.9102">Node</text><line style="stroke: #A80036; stroke-width: 1.5;" x1="138.5" x2="323.5" y1="180" y2="180"/><text fill="#000000" font-family="sans-serif" font-size="11" lengthAdjust="spacingAndGlyphs" textLength="27" x="143.5" y="195.4189">id: str</text><text fill="#000000" font-family="sans-serif" font-size="11" lengthAdjust="spacingAndGlyphs" textLength="159" x="143.5" y="209.2549">input: InputConnectorNamespace</text><text fill="#000000" font-family="sans-serif" font-size="11" lengthAdjust="spacingAndGlyphs" textLength="175" x="143.5" y="223.0908">output: OutputConnectorNamespace</text><line style="stroke: #A80036; stroke-width: 1.5;" x1="138.5" x2="323.5" y1="229.5078" y2="229.5078"/><text fill="#000000" font-family="sans-serif" font-size="11" lengthAdjust="spacingAndGlyphs" textLength="39" x="143.5" y="244.9268">invoke()</text><rect fill="#FEFECE" filter="url(#f1)" height="61.8359" style="stroke: #A80036; stroke-width: 1.5;" width="78" x="117" y="312"/><ellipse cx="132" cy="328" fill="#ADD1B2" rx="11" ry="11" style="stroke: #A80036; stroke-width: 1.0;"/><path d="M134.7656,323.875 Q134.9219,323.6563 135.1094,323.5469 Q135.2969,323.4375 135.5156,323.4375 Q135.8906,323.4375 136.125,323.6953 Q136.3594,323.9531 136.3594,324.5625 L136.3594,326.0156 Q136.3594,326.625 136.125,326.8906 Q135.8906,327.1563 135.5156,327.1563 Q135.1719,327.1563 134.9688,326.9531 Q134.7656,326.7656 134.6563,326.25 Q134.6094,325.8906 134.4219,325.7031 Q134.0938,325.3281 133.4844,325.1094 Q132.875,324.8906 132.25,324.8906 Q131.4844,324.8906 130.8516,325.2188 Q130.2188,325.5469 129.7266,326.2969 Q129.2344,327.0469 129.2344,328.0781 L129.2344,329.1719 Q129.2344,330.4063 130.125,331.2266 Q131.0156,332.0469 132.6094,332.0469 Q133.5469,332.0469 134.2031,331.7969 Q134.5938,331.6406 135.0156,331.2031 Q135.2813,330.9375 135.4297,330.8594 Q135.5781,330.7813 135.7813,330.7813 Q136.1094,330.7813 136.3672,331.0391 Q136.625,331.2969 136.625,331.6406 Q136.625,331.9844 136.2813,332.3906 Q135.7813,332.9688 134.9844,333.2969 Q133.9063,333.75 132.6094,333.75 Q131.0938,333.75 129.8906,333.125 Q128.9063,332.625 128.2188,331.5547 Q127.5313,330.4844 127.5313,329.2031 L127.5313,328.0469 Q127.5313,326.7188 128.1484,325.5703 Q128.7656,324.4219 129.8594,323.8047 Q130.9531,323.1875 132.1875,323.1875 Q132.9219,323.1875 133.5703,323.3516 Q134.2188,323.5156 134.7656,323.875 Z "/><text fill="#000000" font-family="sans-serif" font-size="12" lengthAdjust="spacingAndGlyphs" textLength="46" x="146" y="332.9102">OpNode</text><line style="stroke: #A80036; stroke-width: 1.5;" x1="118" x2="194" y1="344" y2="344"/><line style="stroke: #A80036; stroke-width: 1.5;" x1="118" x2="194" y1="352" y2="352"/><text fill="#000000" font-family="sans-serif" font-size="11" lengthAdjust="spacingAndGlyphs" textLength="39" x="123" y="367.4189">invoke()</text><rect fill="#FEFECE" filter="url(#f1)" height="61.8359" style="stroke: #A80036; stroke-width: 1.5;" width="66" x="198" y="8"/><ellipse cx="213" cy="24" fill="#ADD1B2" rx="11" ry="11" style="stroke: #A80036; stroke-width: 1.0;"/><path d="M215.7656,19.875 Q215.9219,19.6563 216.1094,19.5469 Q216.2969,19.4375 216.5156,19.4375 Q216.8906,19.4375 217.125,19.6953 Q217.3594,19.9531 217.3594,20.5625 L217.3594,22.0156 Q217.3594,22.625 217.125,22.8906 Q216.8906,23.1563 216.5156,23.1563 Q216.1719,23.1563 215.9688,22.9531 Q215.7656,22.7656 215.6563,22.25 Q215.6094,21.8906 215.4219,21.7031 Q215.0938,21.3281 214.4844,21.1094 Q213.875,20.8906 213.25,20.8906 Q212.4844,20.8906 211.8516,21.2188 Q211.2188,21.5469 210.7266,22.2969 Q210.2344,23.0469 210.2344,24.0781 L210.2344,25.1719 Q210.2344,26.4063 211.125,27.2266 Q212.0156,28.0469 213.6094,28.0469 Q214.5469,28.0469 215.2031,27.7969 Q215.5938,27.6406 216.0156,27.2031 Q216.2813,26.9375 216.4297,26.8594 Q216.5781,26.7813 216.7813,26.7813 Q217.1094,26.7813 217.3672,27.0391 Q217.625,27.2969 217.625,27.6406 Q217.625,27.9844 217.2813,28.3906 Q216.7813,28.9688 215.9844,29.2969 Q214.9063,29.75 213.6094,29.75 Q212.0938,29.75 210.8906,29.125 Q209.9063,28.625 209.2188,27.5547 Q208.5313,26.4844 208.5313,25.2031 L208.5313,24.0469 Q208.5313,22.7188 209.1484,21.5703 Q209.7656,20.4219 210.8594,19.8047 Q211.9531,19.1875 213.1875,19.1875 Q213.9219,19.1875 214.5703,19.3516 Q215.2188,19.5156 215.7656,19.875 Z "/><text fill="#000000" font-family="sans-serif" font-size="12" lengthAdjust="spacingAndGlyphs" textLength="34" x="227" y="28.9102">Graph</text><line style="stroke: #A80036; stroke-width: 1.5;" x1="199" x2="263" y1="40" y2="40"/><line style="stroke: #A80036; stroke-width: 1.5;" x1="199" x2="263" y1="48" y2="48"/><text fill="#000000" font-family="sans-serif" font-size="11" lengthAdjust="spacingAndGlyphs" textLength="39" x="204" y="63.4189">invoke()</text><polygon fill="#FBFB77" filter="url(#f1)" points="6,26,6,52.3516,128,52.3516,128,36,118,26,6,26" style="stroke: #A80036; stroke-width: 1.0;"/><polygon fill="#FBFB77" points="6,26,6,52.3516,128,52.3516,128,44,197.664,39,128,36,128,36,118,26,6,26" style="stroke: #A80036; stroke-width: 1.0;"/><line style="stroke: #A80036; stroke-width: 1.0;" x1="118" x2="118" y1="26" y2="36"/><line style="stroke: #A80036; stroke-width: 1.0;" x1="128" x2="118" y1="36" y2="36"/><text fill="#000000" font-family="sans-serif" font-size="13" lengthAdjust="spacingAndGlyphs" textLength="101" x="12" y="44.4951">Collection pattern</text><path d="M194.58,269.212 C186.643,284.188 178.64,299.286 171.997,311.818 " fill="none" style="stroke: #A80036; stroke-width: 1.0; stroke-dasharray: 7.0,7.0;"/><polygon fill="none" points="188.584,265.578,204.135,251.185,200.954,272.135,188.584,265.578" style="stroke: #A80036; stroke-width: 1.0;"/><path d="M239.257,127.825 C239.612,118.471 239.598,109.006 239,100 C238.353,90.248 237.12,79.663 235.813,70.138 " fill="none" style="stroke: #A80036; stroke-width: 1.0; stroke-dasharray: 7.0,7.0;"/><polygon fill="none" points="246.235,128.392,237.975,147.905,232.264,127.5,246.235,128.392" style="stroke: #A80036; stroke-width: 1.0;"/><path d="M201.31,81.831 C198.318,87.708 195.744,93.848 194,100 C190.706,111.616 191.58,123.799 194.688,135.483 " fill="none" style="stroke: #A80036; stroke-width: 1.0;"/><polygon fill="#A80036" points="198.847,147.915,199.7861,138.111,197.2612,143.1731,192.1991,140.6482,198.847,147.915" style="stroke: #A80036; stroke-width: 1.0;"/><line style="stroke: #A80036; stroke-width: 1.0;" x1="197.2612" x2="194.722" y1="143.1731" y2="135.586"/><polygon fill="#FFFFFF" points="207.906,70.218,201.4646,73.4596,201.9793,80.6523,208.4208,77.4107,207.906,70.218" style="stroke: #A80036; stroke-width: 1.0;"/><text fill="#000000" font-family="sans-serif" font-size="13" lengthAdjust="spacingAndGlyphs" textLength="35" x="195" y="114.4951">nodes</text><text fill="#000000" font-family="sans-serif" font-size="13" lengthAdjust="spacingAndGlyphs" textLength="24" x="168.638" y="137.0315">0..N</text><path d="M151.816,374.212 C147.105,408.22 139.512,463.046 134.915,496.235 " fill="none" style="stroke: #A80036; stroke-width: 1.0;"/><polygon fill="#A80036" points="134.204,501.369,139.4005,493.0026,134.8897,496.4162,131.4761,491.9055,134.204,501.369" style="stroke: #A80036; stroke-width: 1.0;"/><text fill="#000000" font-family="sans-serif" font-size="13" lengthAdjust="spacingAndGlyphs" textLength="85" x="148" y="418.4951">op_registration</text><path d="M238.656,251.125 C247.597,310.243 262.338,407.713 271.59,468.892 " fill="none" style="stroke: #A80036; stroke-width: 1.0;"/><polygon fill="#A80036" points="272.357,473.964,274.9647,464.4666,271.6085,469.0203,267.0548,465.6642,272.357,473.964" style="stroke: #A80036; stroke-width: 1.0;"/><text fill="#000000" font-family="sans-serif" font-size="13" lengthAdjust="spacingAndGlyphs" textLength="77" x="258" y="348.4951">op_meta_info</text></g></svg>