<?xml version="1.0" encoding="UTF-8" standalone="yes"?><svg xmlns="http://www.w3.org/2000/svg" xmlns:xlink="http://www.w3.org/1999/xlink" height="838px" style="width:530px;height:838px;" version="1.1" viewBox="0 0 530 838" width="530px"><defs><filter height="300%" id="f1" width="300%" x="-1" y="-1"><feGaussianBlur result="blurOut" stdDeviation="2.0"/><feColorMatrix in="blurOut" result="blurOut2" type="matrix" values="0 0 0 0 0 0 0 0 0 0 0 0 0 0 0 0 0 0 .4 0"/><feOffset dx="4.0" dy="4.0" in="blurOut2" result="blurOut3"/><feBlend in="SourceGraphic" in2="blurOut3" mode="normal"/></filter></defs><g><polygon fill="#FFFFFF" filter="url(#f1)" points="22,24,94,24,101,47.6094,281,47.6094,281,831,22,831,22,24" style="stroke: #000000; stroke-width: 2.0;"/><line style="stroke: #000000; stroke-width: 2.0;" x1="22" x2="101" y1="47.6094" y2="47.6094"/><text fill="#000000" font-family="sans-serif" font-size="14" font-weight="bold" lengthAdjust="spacingAndGlyphs" textLength="66" x="26" y="40.5332">cate.core</text><polygon fill="#FFFFFF" filter="url(#f1)" points="305,197,395,197,402,220.6094,523,220.6094,523,423,305,423,305,197" style="stroke: #000000; stroke-width: 2.0;"/><line style="stroke: #000000; stroke-width: 2.0;" x1="305" x2="402" y1="220.6094" y2="220.6094"/><text fill="#000000" font-family="sans-serif" font-size="14" font-weight="bold" lengthAdjust="spacingAndGlyphs" textLength="84" x="309" y="213.5332">cate.webapi</text><rect fill="#FEFECE" filter="url(#f1)" height="89.5078" style="stroke: #A80036; stroke-width: 1.5;" width="156" x="105" y="60"/><ellipse cx="126.3" cy="76" fill="#B4A7E5" rx="11" ry="11" style="stroke: #A80036; stroke-width: 1.0;"/><path d="M127.2531,72.6406 L127.2531,79.2969 L128.9719,79.2969 Q129.5813,79.2969 129.8469,79.5313 Q130.1125,79.7656 130.1125,80.1563 Q130.1125,80.5313 129.8469,80.7656 Q129.5813,81 128.9719,81 L123.8313,81 Q123.2219,81 122.9563,80.7656 Q122.6906,80.5313 122.6906,80.1406 Q122.6906,79.7656 122.9563,79.5313 Q123.2219,79.2969 123.8313,79.2969 L125.55,79.2969 L125.55,72.6406 L123.8313,72.6406 Q123.2219,72.6406 122.9563,72.4063 Q122.6906,72.1719 122.6906,71.7813 Q122.6906,71.4063 122.9563,71.1719 Q123.2219,70.9375 123.8313,70.9375 L128.9719,70.9375 Q129.5813,70.9375 129.8469,71.1719 Q130.1125,71.4063 130.1125,71.7813 Q130.1125,72.1719 129.8469,72.4063 Q129.5813,72.6406 128.9719,72.6406 L127.2531,72.6406 Z "/><text fill="#000000" font-family="sans-serif" font-size="12" font-style="italic" lengthAdjust="spacingAndGlyphs" textLength="110" x="141.7" y="80.9102">WorkspaceManager</text><line style="stroke: #A80036; stroke-width: 1.5;" x1="106" x2="260" y1="92" y2="92"/><line style="stroke: #A80036; stroke-width: 1.5;" x1="106" x2="260" y1="100" y2="100"/><text fill="#000000" font-family="sans-serif" font-size="11" lengthAdjust="spacingAndGlyphs" textLength="82" x="111" y="115.4189">init_workspace()</text><text fill="#000000" font-family="sans-serif" font-size="11" lengthAdjust="spacingAndGlyphs" textLength="134" x="111" y="129.2549">set_workspace_resource()</text><text fill="#000000" font-family="sans-serif" font-size="11" lengthAdjust="spacingAndGlyphs" textLength="144" x="111" y="143.0908">write_workspace_resource()</text><rect fill="#FEFECE" filter="url(#f1)" height="48" style="stroke: #A80036; stroke-width: 1.5;" width="157" x="84.5" y="233"/><ellipse cx="99.5" cy="249" fill="#ADD1B2" rx="11" ry="11" style="stroke: #A80036; stroke-width: 1.0;"/><path d="M102.2656,244.875 Q102.4219,244.6563 102.6094,244.5469 Q102.7969,244.4375 103.0156,244.4375 Q103.3906,244.4375 103.625,244.6953 Q103.8594,244.9531 103.8594,245.5625 L103.8594,247.0156 Q103.8594,247.625 103.625,247.8906 Q103.3906,248.1563 103.0156,248.1563 Q102.6719,248.1563 102.4688,247.9531 Q102.2656,247.7656 102.1563,247.25 Q102.1094,246.8906 101.9219,246.7031 Q101.5938,246.3281 100.9844,246.1094 Q100.375,245.8906 99.75,245.8906 Q98.9844,245.8906 98.3516,246.2188 Q97.7188,246.5469 97.2266,247.2969 Q96.7344,248.0469 96.7344,249.0781 L96.7344,250.1719 Q96.7344,251.4063 97.625,252.2266 Q98.5156,253.0469 100.1094,253.0469 Q101.0469,253.0469 101.7031,252.7969 Q102.0938,252.6406 102.5156,252.2031 Q102.7813,251.9375 102.9297,251.8594 Q103.0781,251.7813 103.2813,251.7813 Q103.6094,251.7813 103.8672,252.0391 Q104.125,252.2969 104.125,252.6406 Q104.125,252.9844 103.7813,253.3906 Q103.2813,253.9688 102.4844,254.2969 Q101.4063,254.75 100.1094,254.75 Q98.5938,254.75 97.3906,254.125 Q96.4063,253.625 95.7188,252.5547 Q95.0313,251.4844 95.0313,250.2031 L95.0313,249.0469 Q95.0313,247.7188 95.6484,246.5703 Q96.2656,245.4219 97.3594,244.8047 Q98.4531,244.1875 99.6875,244.1875 Q100.4219,244.1875 101.0703,244.3516 Q101.7188,244.5156 102.2656,244.875 Z "/><text fill="#000000" font-family="sans-serif" font-size="12" lengthAdjust="spacingAndGlyphs" textLength="125" x="113.5" y="253.9102">FSWorkspaceManager</text><line style="stroke: #A80036; stroke-width: 1.5;" x1="85.5" x2="240.5" y1="265" y2="265"/><line style="stroke: #A80036; stroke-width: 1.5;" x1="85.5" x2="240.5" y1="273" y2="273"/><rect fill="#FEFECE" filter="url(#f1)" height="48" style="stroke: #A80036; stroke-width: 1.5;" width="94" x="75" y="549"/><ellipse cx="90" cy="565" fill="#ADD1B2" rx="11" ry="11" style="stroke: #A80036; stroke-width: 1.0;"/><path d="M92.7656,560.875 Q92.9219,560.6563 93.1094,560.5469 Q93.2969,560.4375 93.5156,560.4375 Q93.8906,560.4375 94.125,560.6953 Q94.3594,560.9531 94.3594,561.5625 L94.3594,563.0156 Q94.3594,563.625 94.125,563.8906 Q93.8906,564.1563 93.5156,564.1563 Q93.1719,564.1563 92.9688,563.9531 Q92.7656,563.7656 92.6563,563.25 Q92.6094,562.8906 92.4219,562.7031 Q92.0938,562.3281 91.4844,562.1094 Q90.875,561.8906 90.25,561.8906 Q89.4844,561.8906 88.8516,562.2188 Q88.2188,562.5469 87.7266,563.2969 Q87.2344,564.0469 87.2344,565.0781 L87.2344,566.1719 Q87.2344,567.4063 88.125,568.2266 Q89.0156,569.0469 90.6094,569.0469 Q91.5469,569.0469 92.2031,568.7969 Q92.5938,568.6406 93.0156,568.2031 Q93.2813,567.9375 93.4297,567.8594 Q93.5781,567.7813 93.7813,567.7813 Q94.1094,567.7813 94.3672,568.0391 Q94.625,568.2969 94.625,568.6406 Q94.625,568.9844 94.2813,569.3906 Q93.7813,569.9688 92.9844,570.2969 Q91.9063,570.75 90.6094,570.75 Q89.0938,570.75 87.8906,570.125 Q86.9063,569.625 86.2188,568.5547 Q85.5313,567.4844 85.5313,566.2031 L85.5313,565.0469 Q85.5313,563.7188 86.1484,562.5703 Q86.7656,561.4219 87.8594,560.8047 Q88.9531,560.1875 90.1875,560.1875 Q90.9219,560.1875 91.5703,560.3516 Q92.2188,560.5156 92.7656,560.875 Z "/><text fill="#000000" font-family="sans-serif" font-size="12" lengthAdjust="spacingAndGlyphs" textLength="62" x="104" y="569.9102">Workspace</text><line style="stroke: #A80036; stroke-width: 1.5;" x1="76" x2="168" y1="581" y2="581"/><line style="stroke: #A80036; stroke-width: 1.5;" x1="76" x2="168" y1="589" y2="589"/><rect fill="#FEFECE" filter="url(#f1)" height="48" style="stroke: #A80036; stroke-width: 1.5;" width="82" x="81" y="658"/><ellipse cx="96" cy="674" fill="#ADD1B2" rx="11" ry="11" style="stroke: #A80036; stroke-width: 1.0;"/><path d="M98.7656,669.875 Q98.9219,669.6563 99.1094,669.5469 Q99.2969,669.4375 99.5156,669.4375 Q99.8906,669.4375 100.125,669.6953 Q100.3594,669.9531 100.3594,670.5625 L100.3594,672.0156 Q100.3594,672.625 100.125,672.8906 Q99.8906,673.1563 99.5156,673.1563 Q99.1719,673.1563 98.9688,672.9531 Q98.7656,672.7656 98.6563,672.25 Q98.6094,671.8906 98.4219,671.7031 Q98.0938,671.3281 97.4844,671.1094 Q96.875,670.8906 96.25,670.8906 Q95.4844,670.8906 94.8516,671.2188 Q94.2188,671.5469 93.7266,672.2969 Q93.2344,673.0469 93.2344,674.0781 L93.2344,675.1719 Q93.2344,676.4063 94.125,677.2266 Q95.0156,678.0469 96.6094,678.0469 Q97.5469,678.0469 98.2031,677.7969 Q98.5938,677.6406 99.0156,677.2031 Q99.2813,676.9375 99.4297,676.8594 Q99.5781,676.7813 99.7813,676.7813 Q100.1094,676.7813 100.3672,677.0391 Q100.625,677.2969 100.625,677.6406 Q100.625,677.9844 100.2813,678.3906 Q99.7813,678.9688 98.9844,679.2969 Q97.9063,679.75 96.6094,679.75 Q95.0938,679.75 93.8906,679.125 Q92.9063,678.625 92.2188,677.5547 Q91.5313,676.4844 91.5313,675.2031 L91.5313,674.0469 Q91.5313,672.7188 92.1484,671.5703 Q92.7656,670.4219 93.8594,669.8047 Q94.9531,669.1875 96.1875,669.1875 Q96.9219,669.1875 97.5703,669.3516 Q98.2188,669.5156 98.7656,669.875 Z "/><text fill="#000000" font-family="sans-serif" font-size="12" lengthAdjust="spacingAndGlyphs" textLength="50" x="110" y="678.9102">Workflow</text><line style="stroke: #A80036; stroke-width: 1.5;" x1="82" x2="162" y1="690" y2="690"/><line style="stroke: #A80036; stroke-width: 1.5;" x1="82" x2="162" y1="698" y2="698"/><rect fill="#FEFECE" filter="url(#f1)" height="48" style="stroke: #A80036; stroke-width: 1.5;" width="73" x="85.5" y="767"/><ellipse cx="100.5" cy="783" fill="#ADD1B2" rx="11" ry="11" style="stroke: #A80036; stroke-width: 1.0;"/><path d="M103.2656,778.875 Q103.4219,778.6563 103.6094,778.5469 Q103.7969,778.4375 104.0156,778.4375 Q104.3906,778.4375 104.625,778.6953 Q104.8594,778.9531 104.8594,779.5625 L104.8594,781.0156 Q104.8594,781.625 104.625,781.8906 Q104.3906,782.1563 104.0156,782.1563 Q103.6719,782.1563 103.4688,781.9531 Q103.2656,781.7656 103.1563,781.25 Q103.1094,780.8906 102.9219,780.7031 Q102.5938,780.3281 101.9844,780.1094 Q101.375,779.8906 100.75,779.8906 Q99.9844,779.8906 99.3516,780.2188 Q98.7188,780.5469 98.2266,781.2969 Q97.7344,782.0469 97.7344,783.0781 L97.7344,784.1719 Q97.7344,785.4063 98.625,786.2266 Q99.5156,787.0469 101.1094,787.0469 Q102.0469,787.0469 102.7031,786.7969 Q103.0938,786.6406 103.5156,786.2031 Q103.7813,785.9375 103.9297,785.8594 Q104.0781,785.7813 104.2813,785.7813 Q104.6094,785.7813 104.8672,786.0391 Q105.125,786.2969 105.125,786.6406 Q105.125,786.9844 104.7813,787.3906 Q104.2813,787.9688 103.4844,788.2969 Q102.4063,788.75 101.1094,788.75 Q99.5938,788.75 98.3906,788.125 Q97.4063,787.625 96.7188,786.5547 Q96.0313,785.4844 96.0313,784.2031 L96.0313,783.0469 Q96.0313,781.7188 96.6484,780.5703 Q97.2656,779.4219 98.3594,778.8047 Q99.4531,778.1875 100.6875,778.1875 Q101.4219,778.1875 102.0703,778.3516 Q102.7188,778.5156 103.2656,778.875 Z "/><text fill="#000000" font-family="sans-serif" font-size="12" lengthAdjust="spacingAndGlyphs" textLength="41" x="114.5" y="787.9102">OpStep</text><line style="stroke: #A80036; stroke-width: 1.5;" x1="86.5" x2="157.5" y1="799" y2="799"/><line style="stroke: #A80036; stroke-width: 1.5;" x1="86.5" x2="157.5" y1="807" y2="807"/><rect fill="#FEFECE" filter="url(#f1)" height="48" style="stroke: #A80036; stroke-width: 1.5;" width="185" x="321.5" y="233"/><ellipse cx="336.5" cy="249" fill="#ADD1B2" rx="11" ry="11" style="stroke: #A80036; stroke-width: 1.0;"/><path d="M339.2656,244.875 Q339.4219,244.6563 339.6094,244.5469 Q339.7969,244.4375 340.0156,244.4375 Q340.3906,244.4375 340.625,244.6953 Q340.8594,244.9531 340.8594,245.5625 L340.8594,247.0156 Q340.8594,247.625 340.625,247.8906 Q340.3906,248.1563 340.0156,248.1563 Q339.6719,248.1563 339.4688,247.9531 Q339.2656,247.7656 339.1563,247.25 Q339.1094,246.8906 338.9219,246.7031 Q338.5938,246.3281 337.9844,246.1094 Q337.375,245.8906 336.75,245.8906 Q335.9844,245.8906 335.3516,246.2188 Q334.7188,246.5469 334.2266,247.2969 Q333.7344,248.0469 333.7344,249.0781 L333.7344,250.1719 Q333.7344,251.4063 334.625,252.2266 Q335.5156,253.0469 337.1094,253.0469 Q338.0469,253.0469 338.7031,252.7969 Q339.0938,252.6406 339.5156,252.2031 Q339.7813,251.9375 339.9297,251.8594 Q340.0781,251.7813 340.2813,251.7813 Q340.6094,251.7813 340.8672,252.0391 Q341.125,252.2969 341.125,252.6406 Q341.125,252.9844 340.7813,253.3906 Q340.2813,253.9688 339.4844,254.2969 Q338.4063,254.75 337.1094,254.75 Q335.5938,254.75 334.3906,254.125 Q333.4063,253.625 332.7188,252.5547 Q332.0313,251.4844 332.0313,250.2031 L332.0313,249.0469 Q332.0313,247.7188 332.6484,246.5703 Q333.2656,245.4219 334.3594,244.8047 Q335.4531,244.1875 336.6875,244.1875 Q337.4219,244.1875 338.0703,244.3516 Q338.7188,244.5156 339.2656,244.875 Z "/><text fill="#000000" font-family="sans-serif" font-size="12" lengthAdjust="spacingAndGlyphs" textLength="153" x="350.5" y="253.9102">WebAPIWorkspaceManager</text><line style="stroke: #A80036; stroke-width: 1.5;" x1="322.5" x2="505.5" y1="265" y2="265"/><line style="stroke: #A80036; stroke-width: 1.5;" x1="322.5" x2="505.5" y1="273" y2="273"/><rect fill="#FEFECE" filter="url(#f1)" height="48" style="stroke: #A80036; stroke-width: 1.5;" width="99" x="331.5" y="359"/><ellipse cx="346.5" cy="375" fill="#B4A7E5" rx="11" ry="11" style="stroke: #A80036; stroke-width: 1.0;"/><path d="M347.4531,371.6406 L347.4531,378.2969 L349.1719,378.2969 Q349.7813,378.2969 350.0469,378.5313 Q350.3125,378.7656 350.3125,379.1563 Q350.3125,379.5313 350.0469,379.7656 Q349.7813,380 349.1719,380 L344.0313,380 Q343.4219,380 343.1563,379.7656 Q342.8906,379.5313 342.8906,379.1406 Q342.8906,378.7656 343.1563,378.5313 Q343.4219,378.2969 344.0313,378.2969 L345.75,378.2969 L345.75,371.6406 L344.0313,371.6406 Q343.4219,371.6406 343.1563,371.4063 Q342.8906,371.1719 342.8906,370.7813 Q342.8906,370.4063 343.1563,370.1719 Q343.4219,369.9375 344.0313,369.9375 L349.1719,369.9375 Q349.7813,369.9375 350.0469,370.1719 Q350.3125,370.4063 350.3125,370.7813 Q350.3125,371.1719 350.0469,371.4063 Q349.7813,371.6406 349.1719,371.6406 L347.4531,371.6406 Z "/><text fill="#000000" font-family="sans-serif" font-size="12" font-style="italic" lengthAdjust="spacingAndGlyphs" textLength="67" x="360.5" y="379.9102">WebService</text><line style="stroke: #A80036; stroke-width: 1.5;" x1="332.5" x2="429.5" y1="391" y2="391"/><line style="stroke: #A80036; stroke-width: 1.5;" x1="332.5" x2="429.5" y1="399" y2="399"/><path d="M174.452,170.112 C171.472,192.46 168.317,216.125 166.074,232.942 " fill="none" style="stroke: #A80036; stroke-width: 1.0; stroke-dasharray: 7.0,7.0;"/><polygon fill="none" points="167.526,169.093,177.108,150.194,181.403,170.943,167.526,169.093" style="stroke: #A80036; stroke-width: 1.0;"/><path d="M267.916,161.14 C306.1,185.935 349.09,213.851 378.491,232.942 " fill="none" style="stroke: #A80036; stroke-width: 1.0; stroke-dasharray: 7.0,7.0;"/><polygon fill="none" points="264.02,166.957,251.058,150.194,271.644,155.215,264.02,166.957" style="stroke: #A80036; stroke-width: 1.0;"/><path d="M407.87,281.033 C402.394,301.609 394.356,331.814 388.498,353.824 " fill="none" style="stroke: #A80036; stroke-width: 1.0; stroke-dasharray: 7.0,7.0;"/><polygon fill="#A80036" points="387.209,358.67,393.389,351.0014,388.4948,353.8382,385.658,348.944,387.209,358.67" style="stroke: #A80036; stroke-width: 1.0;"/><text fill="#000000" font-family="sans-serif" font-size="13" lengthAdjust="spacingAndGlyphs" textLength="94" x="400" y="325.4951">&lt;communicate&gt;</text><path d="M146.478,281.147 C123.971,314.247 84.7842,377.877 70,439 C60.8712,476.742 82.376,518.085 100.4481,544.495 " fill="none" style="stroke: #A80036; stroke-width: 1.0; stroke-dasharray: 7.0,7.0;"/><polygon fill="#A80036" points="103.3138,548.603,101.4439,538.9333,100.4526,544.5026,94.8833,543.5112,103.3138,548.603" style="stroke: #A80036; stroke-width: 1.0;"/><text fill="#000000" font-family="sans-serif" font-size="13" lengthAdjust="spacingAndGlyphs" textLength="44" x="71" y="453.4951">&lt;uses&gt;</text><path d="M158.267,294.249 C150.369,354.737 134.593,475.556 126.71,535.927 " fill="none" style="stroke: #A80036; stroke-width: 1.0;"/><polygon fill="#A80036" points="125.019,548.877,130.1514,540.4711,125.6668,543.9191,122.2188,539.4346,125.019,548.877" style="stroke: #A80036; stroke-width: 1.0;"/><line style="stroke: #A80036; stroke-width: 1.0;" x1="125.6668" x2="126.7025" y1="543.9191" y2="535.9865"/><polygon fill="#FFFFFF" points="159.985,281.089,155.242,286.5208,158.4317,292.988,163.1747,287.5563,159.985,281.089" style="stroke: #A80036; stroke-width: 1.0;"/><text fill="#000000" font-family="sans-serif" font-size="13" lengthAdjust="spacingAndGlyphs" textLength="104" x="141" y="453.4951">workspace_cache</text><text fill="#000000" font-family="sans-serif" font-size="13" lengthAdjust="spacingAndGlyphs" textLength="24" x="98.7179" y="538.1856">0..N</text><path d="M328.643,352.219 C294.203,332.629 249.317,307.098 214.959,287.554 " fill="none" style="stroke: #A80036; stroke-width: 1.0;"/><polygon fill="#A80036" points="203.493,281.033,209.3385,288.9595,207.8392,283.505,213.2937,282.0056,203.493,281.033" style="stroke: #A80036; stroke-width: 1.0;"/><line style="stroke: #A80036; stroke-width: 1.0;" x1="207.8392" x2="214.7935" y1="283.505" y2="287.46"/><polygon fill="#FFFFFF" points="340.354,358.88,337.1162,352.4367,329.9232,352.9472,333.161,359.3906,340.354,358.88" style="stroke: #A80036; stroke-width: 1.0;"/><text fill="#000000" font-family="sans-serif" font-size="13" lengthAdjust="spacingAndGlyphs" textLength="7" x="205.51" y="302.379">1</text><path d="M122,597.217 C122,613.482 122,635.315 122,652.616 " fill="none" style="stroke: #A80036; stroke-width: 1.0;"/><polygon fill="#A80036" points="122,657.828,126,648.828,122,652.828,118,648.828,122,657.828" style="stroke: #A80036; stroke-width: 1.0;"/><text fill="#000000" font-family="sans-serif" font-size="13" lengthAdjust="spacingAndGlyphs" textLength="7" x="114.1031" y="647.1241">1</text><path d="M122,719.302 C122,730.354 122,742.502 122,753.563 " fill="none" style="stroke: #A80036; stroke-width: 1.0;"/><polygon fill="#A80036" points="122,766.8279,126,757.8279,122,761.8279,118,757.8279,122,766.8279" style="stroke: #A80036; stroke-width: 1.0;"/><line style="stroke: #A80036; stroke-width: 1.0;" x1="122" x2="122" y1="761.8279" y2="753.8279"/><polygon fill="#FFFFFF" points="122,706.217,118,712.217,122,718.217,126,712.217,122,706.217" style="stroke: #A80036; stroke-width: 1.0;"/><text fill="#000000" font-family="sans-serif" font-size="13" lengthAdjust="spacingAndGlyphs" textLength="24" x="94.925" y="756.124">0..N</text></g></svg>