<?xml version="1.0" encoding="UTF-8" standalone="yes"?><svg xmlns="http://www.w3.org/2000/svg" xmlns:xlink="http://www.w3.org/1999/xlink" height="260px" style="width:200px;height:260px;" version="1.1" viewBox="0 0 200 260" width="200px"><defs><filter height="300%" id="f1" width="300%" x="-1" y="-1"><feGaussianBlur result="blurOut" stdDeviation="2.0"/><feColorMatrix in="blurOut" result="blurOut2" type="matrix" values="0 0 0 0 0 0 0 0 0 0 0 0 0 0 0 0 0 0 .4 0"/><feOffset dx="4.0" dy="4.0" in="blurOut2" result="blurOut3"/><feBlend in="SourceGraphic" in2="blurOut3" mode="normal"/></filter></defs><g><rect fill="#FEFECE" filter="url(#f1)" height="61.8359" style="stroke: #A80036; stroke-width: 1.5;" width="62" x="69.683" y="8"/><ellipse cx="84.683" cy="24" fill="#A9DCDF" rx="11" ry="11" style="stroke: #A80036; stroke-width: 1.0;"/><path d="M86.8705,25.7656 L82.7299,25.7656 L82.308,26.7969 L82.7299,26.7969 Q83.3392,26.7969 83.6049,27.0313 Q83.8705,27.2656 83.8705,27.6563 Q83.8705,28.0313 83.6049,28.2656 Q83.3392,28.5 82.7299,28.5 L80.433,28.5 Q79.8236,28.5 79.5658,28.2656 Q79.308,28.0313 79.308,27.6406 Q79.308,27.2656 79.5814,27.0234 Q79.8549,26.7813 80.4799,26.7969 L83.1517,20.1406 L82.0424,20.1406 Q81.433,20.1406 81.1674,19.9063 Q80.9017,19.6719 80.9017,19.2813 Q80.9017,18.9063 81.1674,18.6719 Q81.433,18.4375 82.0424,18.4375 L85.7142,18.4375 L89.1049,26.7969 Q89.6986,26.7969 89.8861,26.9375 Q90.2767,27.2031 90.2767,27.6563 Q90.2767,28.0313 90.0189,28.2656 Q89.7611,28.5 89.1517,28.5 L86.8549,28.5 Q86.2455,28.5 85.9799,28.2656 Q85.7142,28.0313 85.7142,27.6406 Q85.7142,27.2656 85.9799,27.0313 Q86.2455,26.7969 86.8549,26.7969 L87.2767,26.7969 L86.8705,25.7656 Z M86.1517,24.0625 L84.7924,20.6875 L83.4174,24.0625 L86.1517,24.0625 Z "/><text fill="#000000" font-family="sans-serif" font-size="12" font-style="italic" lengthAdjust="spacingAndGlyphs" textLength="30" x="98.683" y="28.9102">Node</text><line style="stroke: #A80036; stroke-width: 1.5;" x1="70.683" x2="130.683" y1="40" y2="40"/><text fill="#000000" font-family="sans-serif" font-size="11" lengthAdjust="spacingAndGlyphs" textLength="30" x="75.683" y="55.4189">id : str</text><line style="stroke: #A80036; stroke-width: 1.5;" x1="70.683" x2="130.683" y1="61.8359" y2="61.8359"/><rect fill="#FEFECE" filter="url(#f1)" height="103.3438" style="stroke: #A80036; stroke-width: 1.5;" width="127" x="37.183" y="148"/><ellipse cx="55.783" cy="164" fill="#ADD1B2" rx="11" ry="11" style="stroke: #A80036; stroke-width: 1.0;"/><path d="M58.5486,159.875 Q58.7049,159.6563 58.8924,159.5469 Q59.0799,159.4375 59.2986,159.4375 Q59.6736,159.4375 59.908,159.6953 Q60.1424,159.9531 60.1424,160.5625 L60.1424,162.0156 Q60.1424,162.625 59.908,162.8906 Q59.6736,163.1563 59.2986,163.1563 Q58.9549,163.1563 58.7518,162.9531 Q58.5486,162.7656 58.4393,162.25 Q58.3924,161.8906 58.2049,161.7031 Q57.8768,161.3281 57.2674,161.1094 Q56.658,160.8906 56.033,160.8906 Q55.2674,160.8906 54.6346,161.2188 Q54.0018,161.5469 53.5096,162.2969 Q53.0174,163.0469 53.0174,164.0781 L53.0174,165.1719 Q53.0174,166.4063 53.908,167.2266 Q54.7986,168.0469 56.3924,168.0469 Q57.3299,168.0469 57.9861,167.7969 Q58.3768,167.6406 58.7986,167.2031 Q59.0643,166.9375 59.2127,166.8594 Q59.3611,166.7813 59.5643,166.7813 Q59.8924,166.7813 60.1502,167.0391 Q60.408,167.2969 60.408,167.6406 Q60.408,167.9844 60.0643,168.3906 Q59.5643,168.9688 58.7674,169.2969 Q57.6893,169.75 56.3924,169.75 Q54.8768,169.75 53.6736,169.125 Q52.6893,168.625 52.0018,167.5547 Q51.3143,166.4844 51.3143,165.2031 L51.3143,164.0469 Q51.3143,162.7188 51.9314,161.5703 Q52.5486,160.4219 53.6424,159.8047 Q54.7361,159.1875 55.9705,159.1875 Q56.7049,159.1875 57.3533,159.3516 Q58.0018,159.5156 58.5486,159.875 Z "/><text fill="#000000" font-family="sans-serif" font-size="12" lengthAdjust="spacingAndGlyphs" textLength="87" x="70.583" y="168.9102">NodeConnector</text><line style="stroke: #A80036; stroke-width: 1.5;" x1="38.183" x2="163.183" y1="180" y2="180"/><text fill="#000000" font-family="sans-serif" font-size="11" lengthAdjust="spacingAndGlyphs" textLength="55" x="43.183" y="195.4189">node: Node</text><text fill="#000000" font-family="sans-serif" font-size="11" lengthAdjust="spacingAndGlyphs" textLength="45" x="43.183" y="209.2549">name: str</text><text fill="#000000" font-family="sans-serif" font-size="11" lengthAdjust="spacingAndGlyphs" textLength="115" x="43.183" y="223.0908">source: NodeConnector</text><text fill="#000000" font-family="sans-serif" font-size="11" lengthAdjust="spacingAndGlyphs" textLength="61" x="43.183" y="236.9268">value: object</text><line style="stroke: #A80036; stroke-width: 1.5;" x1="38.183" x2="163.183" y1="243.3438" y2="243.3438"/><path d="M58.1762,62.113 C37.6277,76.095 19.0796,95.706 27.683,118 C30.2301,124.6 33.5974,130.995 37.4899,137.101 " fill="none" style="stroke: #A80036; stroke-width: 1.0;"/><polygon fill="#A80036" points="45,147.765,43.0879,138.1035,42.1209,143.6771,36.5473,142.7101,45,147.765" style="stroke: #A80036; stroke-width: 1.0;"/><line style="stroke: #A80036; stroke-width: 1.0;" x1="42.1209" x2="37.5145" y1="143.6771" y2="137.136"/><polygon fill="#FFFFFF" points="69.3031,55.138,62.0948,54.936,59.1359,61.5121,66.3442,61.7141,69.3031,55.138" style="stroke: #A80036; stroke-width: 1.0;"/><text fill="#000000" font-family="sans-serif" font-size="13" lengthAdjust="spacingAndGlyphs" textLength="28" x="28.683" y="114.4951">input</text><text fill="#000000" font-family="sans-serif" font-size="13" lengthAdjust="spacingAndGlyphs" textLength="24" x="11.9051" y="137.2338">0..N</text><path d="M98.2464,83.621 C98.0137,89.133 97.8155,94.697 97.683,100 C97.4035,111.187 97.4626,123.087 97.7056,134.606 " fill="none" style="stroke: #A80036; stroke-width: 1.0;"/><polygon fill="#A80036" points="98.0661,147.887,101.8203,138.7817,97.9304,142.8888,93.8233,138.9989,98.0661,147.887" style="stroke: #A80036; stroke-width: 1.0;"/><line style="stroke: #A80036; stroke-width: 1.0;" x1="97.9304" x2="97.7133" y1="142.8888" y2="134.8915"/><polygon fill="#FFFFFF" points="98.8777,70.205,94.5999,76.0102,98.3133,82.1917,102.5911,76.3865,98.8777,70.205" style="stroke: #A80036; stroke-width: 1.0;"/><text fill="#000000" font-family="sans-serif" font-size="13" lengthAdjust="spacingAndGlyphs" textLength="36" x="98.683" y="114.4951">output</text><text fill="#000000" font-family="sans-serif" font-size="13" lengthAdjust="spacingAndGlyphs" textLength="24" x="72.0106" y="136.9996">0..N</text><path d="M134.546,147.982 C140.964,132.756 144.388,115.87 139.683,100 C137.061,91.156 132.679,82.394 127.779,74.412 " fill="none" style="stroke: #A80036; stroke-width: 1.0;"/><polygon fill="#A80036" points="125.011,70.062,126.4678,79.8025,127.6952,74.2804,133.2173,75.5078,125.011,70.062" style="stroke: #A80036; stroke-width: 1.0;"/><path d="M164.631,182.6507 C184.024,183.073 199.183,188.6895 199.183,199.5 C199.183,209.2971 186.733,214.8282 169.964,216.0935 " fill="none" style="stroke: #A80036; stroke-width: 1.0;"/><polygon fill="#A80036" points="164.631,216.3493,173.8126,219.9127,169.6252,216.1093,173.4286,211.9219,164.631,216.3493" style="stroke: #A80036; stroke-width: 1.0;"/></g></svg>