<?xml version="1.0" encoding="UTF-8" standalone="yes"?><svg xmlns="http://www.w3.org/2000/svg" xmlns:xlink="http://www.w3.org/1999/xlink" height="1109px" style="width:410px;height:1109px;" version="1.1" viewBox="0 0 410 1109" width="410px"><defs><filter height="300%" id="f1" width="300%" x="-1" y="-1"><feGaussianBlur result="blurOut" stdDeviation="2.0"/><feColorMatrix in="blurOut" result="blurOut2" type="matrix" values="0 0 0 0 0 0 0 0 0 0 0 0 0 0 0 0 0 0 .4 0"/><feOffset dx="4.0" dy="4.0" in="blurOut2" result="blurOut3"/><feBlend in="SourceGraphic" in2="blurOut3" mode="normal"/></filter></defs><g><polygon fill="#FFFFFF" filter="url(#f1)" points="119,893,250,893,257,916.6094,260,916.6094,260,1102,119,1102,119,893" style="stroke: #000000; stroke-width: 2.0;"/><line style="stroke: #000000; stroke-width: 2.0;" x1="119" x2="257" y1="916.6094" y2="916.6094"/><text fill="#000000" font-family="sans-serif" font-size="14" font-weight="bold" lengthAdjust="spacingAndGlyphs" textLength="125" x="123" y="909.5332">ect.core.workflow</text><rect fill="#FEFECE" filter="url(#f1)" height="48" style="stroke: #A80036; stroke-width: 1.5;" width="82" x="148" y="929"/><ellipse cx="163" cy="945" fill="#ADD1B2" rx="11" ry="11" style="stroke: #A80036; stroke-width: 1.0;"/><path d="M165.7656,940.875 Q165.9219,940.6563 166.1094,940.5469 Q166.2969,940.4375 166.5156,940.4375 Q166.8906,940.4375 167.125,940.6953 Q167.3594,940.9531 167.3594,941.5625 L167.3594,943.0156 Q167.3594,943.625 167.125,943.8906 Q166.8906,944.1563 166.5156,944.1563 Q166.1719,944.1563 165.9688,943.9531 Q165.7656,943.7656 165.6563,943.25 Q165.6094,942.8906 165.4219,942.7031 Q165.0938,942.3281 164.4844,942.1094 Q163.875,941.8906 163.25,941.8906 Q162.4844,941.8906 161.8516,942.2188 Q161.2188,942.5469 160.7266,943.2969 Q160.2344,944.0469 160.2344,945.0781 L160.2344,946.1719 Q160.2344,947.4063 161.125,948.2266 Q162.0156,949.0469 163.6094,949.0469 Q164.5469,949.0469 165.2031,948.7969 Q165.5938,948.6406 166.0156,948.2031 Q166.2813,947.9375 166.4297,947.8594 Q166.5781,947.7813 166.7813,947.7813 Q167.1094,947.7813 167.3672,948.0391 Q167.625,948.2969 167.625,948.6406 Q167.625,948.9844 167.2813,949.3906 Q166.7813,949.9688 165.9844,950.2969 Q164.9063,950.75 163.6094,950.75 Q162.0938,950.75 160.8906,950.125 Q159.9063,949.625 159.2188,948.5547 Q158.5313,947.4844 158.5313,946.2031 L158.5313,945.0469 Q158.5313,943.7188 159.1484,942.5703 Q159.7656,941.4219 160.8594,940.8047 Q161.9531,940.1875 163.1875,940.1875 Q163.9219,940.1875 164.5703,940.3516 Q165.2188,940.5156 165.7656,940.875 Z "/><text fill="#000000" font-family="sans-serif" font-size="12" lengthAdjust="spacingAndGlyphs" textLength="50" x="177" y="949.9102">Workflow</text><line style="stroke: #A80036; stroke-width: 1.5;" x1="149" x2="229" y1="961" y2="961"/><line style="stroke: #A80036; stroke-width: 1.5;" x1="149" x2="229" y1="969" y2="969"/><rect fill="#FEFECE" filter="url(#f1)" height="48" style="stroke: #A80036; stroke-width: 1.5;" width="73" x="152.5" y="1038"/><ellipse cx="167.5" cy="1054" fill="#ADD1B2" rx="11" ry="11" style="stroke: #A80036; stroke-width: 1.0;"/><path d="M170.2656,1049.875 Q170.4219,1049.6563 170.6094,1049.5469 Q170.7969,1049.4375 171.0156,1049.4375 Q171.3906,1049.4375 171.625,1049.6953 Q171.8594,1049.9531 171.8594,1050.5625 L171.8594,1052.0156 Q171.8594,1052.625 171.625,1052.8906 Q171.3906,1053.1563 171.0156,1053.1563 Q170.6719,1053.1563 170.4688,1052.9531 Q170.2656,1052.7656 170.1563,1052.25 Q170.1094,1051.8906 169.9219,1051.7031 Q169.5938,1051.3281 168.9844,1051.1094 Q168.375,1050.8906 167.75,1050.8906 Q166.9844,1050.8906 166.3516,1051.2188 Q165.7188,1051.5469 165.2266,1052.2969 Q164.7344,1053.0469 164.7344,1054.0781 L164.7344,1055.1719 Q164.7344,1056.4063 165.625,1057.2266 Q166.5156,1058.0469 168.1094,1058.0469 Q169.0469,1058.0469 169.7031,1057.7969 Q170.0938,1057.6406 170.5156,1057.2031 Q170.7813,1056.9375 170.9297,1056.8594 Q171.0781,1056.7813 171.2813,1056.7813 Q171.6094,1056.7813 171.8672,1057.0391 Q172.125,1057.2969 172.125,1057.6406 Q172.125,1057.9844 171.7813,1058.3906 Q171.2813,1058.9688 170.4844,1059.2969 Q169.4063,1059.75 168.1094,1059.75 Q166.5938,1059.75 165.3906,1059.125 Q164.4063,1058.625 163.7188,1057.5547 Q163.0313,1056.4844 163.0313,1055.2031 L163.0313,1054.0469 Q163.0313,1052.7188 163.6484,1051.5703 Q164.2656,1050.4219 165.3594,1049.8047 Q166.4531,1049.1875 167.6875,1049.1875 Q168.4219,1049.1875 169.0703,1049.3516 Q169.7188,1049.5156 170.2656,1049.875 Z "/><text fill="#000000" font-family="sans-serif" font-size="12" lengthAdjust="spacingAndGlyphs" textLength="41" x="181.5" y="1058.9102">OpStep</text><line style="stroke: #A80036; stroke-width: 1.5;" x1="153.5" x2="224.5" y1="1070" y2="1070"/><line style="stroke: #A80036; stroke-width: 1.5;" x1="153.5" x2="224.5" y1="1078" y2="1078"/><rect fill="#FEFECE" filter="url(#f1)" height="61.8359" style="stroke: #A80036; stroke-width: 1.5;" width="142" x="70" y="8"/><ellipse cx="85" cy="24" fill="#B4A7E5" rx="11" ry="11" style="stroke: #A80036; stroke-width: 1.0;"/><path d="M85.9531,20.6406 L85.9531,27.2969 L87.6719,27.2969 Q88.2813,27.2969 88.5469,27.5313 Q88.8125,27.7656 88.8125,28.1563 Q88.8125,28.5313 88.5469,28.7656 Q88.2813,29 87.6719,29 L82.5313,29 Q81.9219,29 81.6563,28.7656 Q81.3906,28.5313 81.3906,28.1406 Q81.3906,27.7656 81.6563,27.5313 Q81.9219,27.2969 82.5313,27.2969 L84.25,27.2969 L84.25,20.6406 L82.5313,20.6406 Q81.9219,20.6406 81.6563,20.4063 Q81.3906,20.1719 81.3906,19.7813 Q81.3906,19.4063 81.6563,19.1719 Q81.9219,18.9375 82.5313,18.9375 L87.6719,18.9375 Q88.2813,18.9375 88.5469,19.1719 Q88.8125,19.4063 88.8125,19.7813 Q88.8125,20.1719 88.5469,20.4063 Q88.2813,20.6406 87.6719,20.6406 L85.9531,20.6406 Z "/><text fill="#000000" font-family="sans-serif" font-size="12" font-style="italic" lengthAdjust="spacingAndGlyphs" textLength="110" x="99" y="28.9102">WorkspaceManager</text><line style="stroke: #A80036; stroke-width: 1.5;" x1="71" x2="211" y1="40" y2="40"/><line style="stroke: #A80036; stroke-width: 1.5;" x1="71" x2="211" y1="48" y2="48"/><text fill="#000000" font-family="sans-serif" font-size="11" lengthAdjust="spacingAndGlyphs" textLength="82" x="76" y="63.4189">init_workspace()</text><rect fill="#FEFECE" filter="url(#f1)" height="61.8359" style="stroke: #A80036; stroke-width: 1.5;" width="174" x="6" y="517"/><ellipse cx="21" cy="533" fill="#ADD1B2" rx="11" ry="11" style="stroke: #A80036; stroke-width: 1.0;"/><path d="M23.7656,528.875 Q23.9219,528.6563 24.1094,528.5469 Q24.2969,528.4375 24.5156,528.4375 Q24.8906,528.4375 25.125,528.6953 Q25.3594,528.9531 25.3594,529.5625 L25.3594,531.0156 Q25.3594,531.625 25.125,531.8906 Q24.8906,532.1563 24.5156,532.1563 Q24.1719,532.1563 23.9688,531.9531 Q23.7656,531.7656 23.6563,531.25 Q23.6094,530.8906 23.4219,530.7031 Q23.0938,530.3281 22.4844,530.1094 Q21.875,529.8906 21.25,529.8906 Q20.4844,529.8906 19.8516,530.2188 Q19.2188,530.5469 18.7266,531.2969 Q18.2344,532.0469 18.2344,533.0781 L18.2344,534.1719 Q18.2344,535.4063 19.125,536.2266 Q20.0156,537.0469 21.6094,537.0469 Q22.5469,537.0469 23.2031,536.7969 Q23.5938,536.6406 24.0156,536.2031 Q24.2813,535.9375 24.4297,535.8594 Q24.5781,535.7813 24.7813,535.7813 Q25.1094,535.7813 25.3672,536.0391 Q25.625,536.2969 25.625,536.6406 Q25.625,536.9844 25.2813,537.3906 Q24.7813,537.9688 23.9844,538.2969 Q22.9063,538.75 21.6094,538.75 Q20.0938,538.75 18.8906,538.125 Q17.9063,537.625 17.2188,536.5547 Q16.5313,535.4844 16.5313,534.2031 L16.5313,533.0469 Q16.5313,531.7188 17.1484,530.5703 Q17.7656,529.4219 18.8594,528.8047 Q19.9531,528.1875 21.1875,528.1875 Q21.9219,528.1875 22.5703,528.3516 Q23.2188,528.5156 23.7656,528.875 Z "/><text fill="#000000" font-family="sans-serif" font-size="12" lengthAdjust="spacingAndGlyphs" textLength="142" x="35" y="537.9102">DirectWorkspaceManager</text><line style="stroke: #A80036; stroke-width: 1.5;" x1="7" x2="179" y1="549" y2="549"/><line style="stroke: #A80036; stroke-width: 1.5;" x1="7" x2="179" y1="557" y2="557"/><text fill="#000000" font-family="sans-serif" font-size="11" lengthAdjust="spacingAndGlyphs" textLength="82" x="12" y="572.4189">init_workspace()</text><rect fill="#FEFECE" filter="url(#f1)" height="61.8359" style="stroke: #A80036; stroke-width: 1.5;" width="185" x="131.5" y="377"/><ellipse cx="146.5" cy="393" fill="#ADD1B2" rx="11" ry="11" style="stroke: #A80036; stroke-width: 1.0;"/><path d="M149.2656,388.875 Q149.4219,388.6563 149.6094,388.5469 Q149.7969,388.4375 150.0156,388.4375 Q150.3906,388.4375 150.625,388.6953 Q150.8594,388.9531 150.8594,389.5625 L150.8594,391.0156 Q150.8594,391.625 150.625,391.8906 Q150.3906,392.1563 150.0156,392.1563 Q149.6719,392.1563 149.4688,391.9531 Q149.2656,391.7656 149.1563,391.25 Q149.1094,390.8906 148.9219,390.7031 Q148.5938,390.3281 147.9844,390.1094 Q147.375,389.8906 146.75,389.8906 Q145.9844,389.8906 145.3516,390.2188 Q144.7188,390.5469 144.2266,391.2969 Q143.7344,392.0469 143.7344,393.0781 L143.7344,394.1719 Q143.7344,395.4063 144.625,396.2266 Q145.5156,397.0469 147.1094,397.0469 Q148.0469,397.0469 148.7031,396.7969 Q149.0938,396.6406 149.5156,396.2031 Q149.7813,395.9375 149.9297,395.8594 Q150.0781,395.7813 150.2813,395.7813 Q150.6094,395.7813 150.8672,396.0391 Q151.125,396.2969 151.125,396.6406 Q151.125,396.9844 150.7813,397.3906 Q150.2813,397.9688 149.4844,398.2969 Q148.4063,398.75 147.1094,398.75 Q145.5938,398.75 144.3906,398.125 Q143.4063,397.625 142.7188,396.5547 Q142.0313,395.4844 142.0313,394.2031 L142.0313,393.0469 Q142.0313,391.7188 142.6484,390.5703 Q143.2656,389.4219 144.3594,388.8047 Q145.4531,388.1875 146.6875,388.1875 Q147.4219,388.1875 148.0703,388.3516 Q148.7188,388.5156 149.2656,388.875 Z "/><text fill="#000000" font-family="sans-serif" font-size="12" lengthAdjust="spacingAndGlyphs" textLength="153" x="160.5" y="397.9102">CachedWorkspaceManager</text><line style="stroke: #A80036; stroke-width: 1.5;" x1="132.5" x2="315.5" y1="409" y2="409"/><line style="stroke: #A80036; stroke-width: 1.5;" x1="132.5" x2="315.5" y1="417" y2="417"/><text fill="#000000" font-family="sans-serif" font-size="11" lengthAdjust="spacingAndGlyphs" textLength="82" x="137.5" y="432.4189">init_workspace()</text><rect fill="#FEFECE" filter="url(#f1)" height="61.8359" style="stroke: #A80036; stroke-width: 1.5;" width="207" x="194.5" y="131"/><ellipse cx="209.5" cy="147" fill="#ADD1B2" rx="11" ry="11" style="stroke: #A80036; stroke-width: 1.0;"/><path d="M212.2656,142.875 Q212.4219,142.6563 212.6094,142.5469 Q212.7969,142.4375 213.0156,142.4375 Q213.3906,142.4375 213.625,142.6953 Q213.8594,142.9531 213.8594,143.5625 L213.8594,145.0156 Q213.8594,145.625 213.625,145.8906 Q213.3906,146.1563 213.0156,146.1563 Q212.6719,146.1563 212.4688,145.9531 Q212.2656,145.7656 212.1563,145.25 Q212.1094,144.8906 211.9219,144.7031 Q211.5938,144.3281 210.9844,144.1094 Q210.375,143.8906 209.75,143.8906 Q208.9844,143.8906 208.3516,144.2188 Q207.7188,144.5469 207.2266,145.2969 Q206.7344,146.0469 206.7344,147.0781 L206.7344,148.1719 Q206.7344,149.4063 207.625,150.2266 Q208.5156,151.0469 210.1094,151.0469 Q211.0469,151.0469 211.7031,150.7969 Q212.0938,150.6406 212.5156,150.2031 Q212.7813,149.9375 212.9297,149.8594 Q213.0781,149.7813 213.2813,149.7813 Q213.6094,149.7813 213.8672,150.0391 Q214.125,150.2969 214.125,150.6406 Q214.125,150.9844 213.7813,151.3906 Q213.2813,151.9688 212.4844,152.2969 Q211.4063,152.75 210.1094,152.75 Q208.5938,152.75 207.3906,152.125 Q206.4063,151.625 205.7188,150.5547 Q205.0313,149.4844 205.0313,148.2031 L205.0313,147.0469 Q205.0313,145.7188 205.6484,144.5703 Q206.2656,143.4219 207.3594,142.8047 Q208.4531,142.1875 209.6875,142.1875 Q210.4219,142.1875 211.0703,142.3516 Q211.7188,142.5156 212.2656,142.875 Z "/><text fill="#000000" font-family="sans-serif" font-size="12" lengthAdjust="spacingAndGlyphs" textLength="175" x="223.5" y="151.9102">WebServiceWorkspaceManager</text><line style="stroke: #A80036; stroke-width: 1.5;" x1="195.5" x2="400.5" y1="163" y2="163"/><line style="stroke: #A80036; stroke-width: 1.5;" x1="195.5" x2="400.5" y1="171" y2="171"/><text fill="#000000" font-family="sans-serif" font-size="11" lengthAdjust="spacingAndGlyphs" textLength="82" x="200.5" y="186.4189">init_workspace()</text><rect fill="#FEFECE" filter="url(#f1)" height="61.8359" style="stroke: #A80036; stroke-width: 1.5;" width="97" x="221.5" y="254"/><ellipse cx="236.5" cy="270" fill="#ADD1B2" rx="11" ry="11" style="stroke: #A80036; stroke-width: 1.0;"/><path d="M239.2656,265.875 Q239.4219,265.6563 239.6094,265.5469 Q239.7969,265.4375 240.0156,265.4375 Q240.3906,265.4375 240.625,265.6953 Q240.8594,265.9531 240.8594,266.5625 L240.8594,268.0156 Q240.8594,268.625 240.625,268.8906 Q240.3906,269.1563 240.0156,269.1563 Q239.6719,269.1563 239.4688,268.9531 Q239.2656,268.7656 239.1563,268.25 Q239.1094,267.8906 238.9219,267.7031 Q238.5938,267.3281 237.9844,267.1094 Q237.375,266.8906 236.75,266.8906 Q235.9844,266.8906 235.3516,267.2188 Q234.7188,267.5469 234.2266,268.2969 Q233.7344,269.0469 233.7344,270.0781 L233.7344,271.1719 Q233.7344,272.4063 234.625,273.2266 Q235.5156,274.0469 237.1094,274.0469 Q238.0469,274.0469 238.7031,273.7969 Q239.0938,273.6406 239.5156,273.2031 Q239.7813,272.9375 239.9297,272.8594 Q240.0781,272.7813 240.2813,272.7813 Q240.6094,272.7813 240.8672,273.0391 Q241.125,273.2969 241.125,273.6406 Q241.125,273.9844 240.7813,274.3906 Q240.2813,274.9688 239.4844,275.2969 Q238.4063,275.75 237.1094,275.75 Q235.5938,275.75 234.3906,275.125 Q233.4063,274.625 232.7188,273.5547 Q232.0313,272.4844 232.0313,271.2031 L232.0313,270.0469 Q232.0313,268.7188 232.6484,267.5703 Q233.2656,266.4219 234.3594,265.8047 Q235.4531,265.1875 236.6875,265.1875 Q237.4219,265.1875 238.0703,265.3516 Q238.7188,265.5156 239.2656,265.875 Z "/><text fill="#000000" font-family="sans-serif" font-size="12" lengthAdjust="spacingAndGlyphs" textLength="65" x="250.5" y="274.9102">WebService</text><line style="stroke: #A80036; stroke-width: 1.5;" x1="222.5" x2="317.5" y1="286" y2="286"/><line style="stroke: #A80036; stroke-width: 1.5;" x1="222.5" x2="317.5" y1="294" y2="294"/><text fill="#000000" font-family="sans-serif" font-size="11" lengthAdjust="spacingAndGlyphs" textLength="82" x="227.5" y="309.4189">init_workspace()</text><rect fill="#FEFECE" filter="url(#f1)" height="48" style="stroke: #A80036; stroke-width: 1.5;" width="94" x="142" y="798"/><ellipse cx="157" cy="814" fill="#ADD1B2" rx="11" ry="11" style="stroke: #A80036; stroke-width: 1.0;"/><path d="M159.7656,809.875 Q159.9219,809.6563 160.1094,809.5469 Q160.2969,809.4375 160.5156,809.4375 Q160.8906,809.4375 161.125,809.6953 Q161.3594,809.9531 161.3594,810.5625 L161.3594,812.0156 Q161.3594,812.625 161.125,812.8906 Q160.8906,813.1563 160.5156,813.1563 Q160.1719,813.1563 159.9688,812.9531 Q159.7656,812.7656 159.6563,812.25 Q159.6094,811.8906 159.4219,811.7031 Q159.0938,811.3281 158.4844,811.1094 Q157.875,810.8906 157.25,810.8906 Q156.4844,810.8906 155.8516,811.2188 Q155.2188,811.5469 154.7266,812.2969 Q154.2344,813.0469 154.2344,814.0781 L154.2344,815.1719 Q154.2344,816.4063 155.125,817.2266 Q156.0156,818.0469 157.6094,818.0469 Q158.5469,818.0469 159.2031,817.7969 Q159.5938,817.6406 160.0156,817.2031 Q160.2813,816.9375 160.4297,816.8594 Q160.5781,816.7813 160.7813,816.7813 Q161.1094,816.7813 161.3672,817.0391 Q161.625,817.2969 161.625,817.6406 Q161.625,817.9844 161.2813,818.3906 Q160.7813,818.9688 159.9844,819.2969 Q158.9063,819.75 157.6094,819.75 Q156.0938,819.75 154.8906,819.125 Q153.9063,818.625 153.2188,817.5547 Q152.5313,816.4844 152.5313,815.2031 L152.5313,814.0469 Q152.5313,812.7188 153.1484,811.5703 Q153.7656,810.4219 154.8594,809.8047 Q155.9531,809.1875 157.1875,809.1875 Q157.9219,809.1875 158.5703,809.3516 Q159.2188,809.5156 159.7656,809.875 Z "/><text fill="#000000" font-family="sans-serif" font-size="12" lengthAdjust="spacingAndGlyphs" textLength="62" x="171" y="818.9102">Workspace</text><line style="stroke: #A80036; stroke-width: 1.5;" x1="143" x2="235" y1="830" y2="830"/><line style="stroke: #A80036; stroke-width: 1.5;" x1="143" x2="235" y1="838" y2="838"/><path d="M98.8976,85.86 C83.6012,107.13 70,133.709 70,161 C70,161 70,161 70,409 C70,446.526 78.3773,489.021 85.0203,516.819 " fill="none" style="stroke: #A80036; stroke-width: 1.0; stroke-dasharray: 7.0,7.0;"/><polygon fill="none" points="93.4542,81.46,111.301,70.04,104.4733,90.1,93.4542,81.46" style="stroke: #A80036; stroke-width: 1.0;"/><path d="M152.282,89.88 C169.771,167.216 202.897,313.688 217.172,376.81 " fill="none" style="stroke: #A80036; stroke-width: 1.0; stroke-dasharray: 7.0,7.0;"/><polygon fill="none" points="145.376,91.08,147.792,70.03,159.032,88,145.376,91.08" style="stroke: #A80036; stroke-width: 1.0;"/><path d="M196.205,82.55 C216.939,98.53 240.057,116.34 259.015,130.954 " fill="none" style="stroke: #A80036; stroke-width: 1.0; stroke-dasharray: 7.0,7.0;"/><polygon fill="none" points="191.781,87.97,180.213,70.22,200.327,76.89,191.781,87.97" style="stroke: #A80036; stroke-width: 1.0;"/><path d="M103.6405,579.148 C122.368,632.21 160.953,741.533 179.124,793.019 " fill="none" style="stroke: #A80036; stroke-width: 1.0; stroke-dasharray: 7.0,7.0;"/><polygon fill="#A80036" points="180.818,797.817,181.5947,787.9988,179.154,793.102,174.0508,790.6613,180.818,797.817" style="stroke: #A80036; stroke-width: 1.0;"/><text fill="#000000" font-family="sans-serif" font-size="13" lengthAdjust="spacingAndGlyphs" textLength="44" x="150" y="702.4951">&lt;uses&gt;</text><path d="M149.846,446.484 C140.735,453.143 132.136,460.657 125,469 C116.314,479.154 109.754,491.985 104.9078,504.292 " fill="none" style="stroke: #A80036; stroke-width: 1.0;"/><polygon fill="#A80036" points="100.4608,516.794,107.2458,509.6551,102.1365,512.0832,99.7084,506.9739,100.4608,516.794" style="stroke: #A80036; stroke-width: 1.0;"/><line style="stroke: #A80036; stroke-width: 1.0;" x1="102.1365" x2="104.8179" y1="512.0832" y2="504.546"/><polygon fill="#FFFFFF" points="160.721,439.061,153.5103,439.1397,150.8096,445.826,158.0203,445.7473,160.721,439.061" style="stroke: #A80036; stroke-width: 1.0;"/><text fill="#000000" font-family="sans-serif" font-size="13" lengthAdjust="spacingAndGlyphs" textLength="80" x="126" y="483.4951">&lt;delegate to&gt;</text><text fill="#000000" font-family="sans-serif" font-size="13" lengthAdjust="spacingAndGlyphs" textLength="7" x="94.2777" y="506.2561">1</text><path d="M228.258,452.092 C230.585,479.285 233,515.164 233,547 C233,547 233,547 233,737 C233,754.667 225.268,772.283 216.287,786.786 " fill="none" style="stroke: #A80036; stroke-width: 1.0;"/><polygon fill="#A80036" points="208.94,797.691,217.2863,792.4622,211.7339,793.5444,210.6517,787.992,208.94,797.691" style="stroke: #A80036; stroke-width: 1.0;"/><line style="stroke: #A80036; stroke-width: 1.0;" x1="211.7339" x2="216.2035" y1="793.5444" y2="786.9095"/><polygon fill="#FFFFFF" points="227.097,439.114,223.6476,445.4466,228.1664,451.0663,231.6158,444.7337,227.097,439.114" style="stroke: #A80036; stroke-width: 1.0;"/><text fill="#000000" font-family="sans-serif" font-size="13" lengthAdjust="spacingAndGlyphs" textLength="35" x="234" y="654.4951">cache</text><text fill="#000000" font-family="sans-serif" font-size="13" lengthAdjust="spacingAndGlyphs" textLength="24" x="186.9746" y="786.952">0..N</text><path d="M288.056,205.971 C285.429,217.323 282.594,229.576 279.966,240.932 " fill="none" style="stroke: #A80036; stroke-width: 1.0;"/><polygon fill="#A80036" points="277.001,253.745,282.9274,245.8787,278.1284,248.8738,275.1334,244.0748,277.001,253.745" style="stroke: #A80036; stroke-width: 1.0;"/><line style="stroke: #A80036; stroke-width: 1.0;" x1="278.1284" x2="279.932" y1="248.8738" y2="241.079"/><polygon fill="#FFFFFF" points="291.007,193.221,285.7576,198.1651,288.3024,204.9122,293.5518,199.9681,291.007,193.221" style="stroke: #A80036; stroke-width: 1.0;"/><text fill="#000000" font-family="sans-serif" font-size="13" lengthAdjust="spacingAndGlyphs" textLength="7" x="270.7231" y="243.1969">1</text><path d="M253.844,328.498 C249.4,340.186 244.582,352.86 240.14,364.546 " fill="none" style="stroke: #A80036; stroke-width: 1.0;"/><polygon fill="#A80036" points="235.502,376.745,242.4393,369.754,237.2789,372.0714,234.9616,366.911,235.502,376.745" style="stroke: #A80036; stroke-width: 1.0;"/><line style="stroke: #A80036; stroke-width: 1.0;" x1="237.2789" x2="240.122" y1="372.0714" y2="364.593"/><polygon fill="#FFFFFF" points="258.511,316.221,252.6398,320.4078,254.2464,327.4376,260.1176,323.2509,258.511,316.221" style="stroke: #A80036; stroke-width: 1.0;"/><text fill="#000000" font-family="sans-serif" font-size="13" lengthAdjust="spacingAndGlyphs" textLength="7" x="230.1524" y="366.1969">1</text><path d="M189,859.08 C189,876.752 189,897.98 189,915.683 " fill="none" style="stroke: #A80036; stroke-width: 1.0;"/><polygon fill="#A80036" points="189,928.702,193,919.702,189,923.702,185,919.702,189,928.702" style="stroke: #A80036; stroke-width: 1.0;"/><line style="stroke: #A80036; stroke-width: 1.0;" x1="189" x2="189" y1="923.702" y2="915.702"/><polygon fill="#FFFFFF" points="189,846.063,185,852.063,189,858.063,193,852.063,189,846.063" style="stroke: #A80036; stroke-width: 1.0;"/><text fill="#000000" font-family="sans-serif" font-size="13" lengthAdjust="spacingAndGlyphs" textLength="7" x="181.1031" y="917.9658">1</text><path d="M189,990.302 C189,1001.354 189,1013.502 189,1024.563 " fill="none" style="stroke: #A80036; stroke-width: 1.0;"/><polygon fill="#A80036" points="189,1037.8279,193,1028.8279,189,1032.8279,185,1028.8279,189,1037.8279" style="stroke: #A80036; stroke-width: 1.0;"/><line style="stroke: #A80036; stroke-width: 1.0;" x1="189" x2="189" y1="1032.8279" y2="1024.8279"/><polygon fill="#FFFFFF" points="189,977.217,185,983.217,189,989.217,193,983.217,189,977.217" style="stroke: #A80036; stroke-width: 1.0;"/><text fill="#000000" font-family="sans-serif" font-size="13" lengthAdjust="spacingAndGlyphs" textLength="24" x="161.925" y="1027.124">0..N</text></g></svg>