<?xml version="1.0" encoding="UTF-8" standalone="yes"?><svg xmlns="http://www.w3.org/2000/svg" xmlns:xlink="http://www.w3.org/1999/xlink" height="862px" style="width:595px;height:862px;" version="1.1" viewBox="0 0 595 862" width="595px"><defs><filter height="300%" id="f1" width="300%" x="-1" y="-1"><feGaussianBlur result="blurOut" stdDeviation="2.0"/><feColorMatrix in="blurOut" result="blurOut2" type="matrix" values="0 0 0 0 0 0 0 0 0 0 0 0 0 0 0 0 0 0 .4 0"/><feOffset dx="4.0" dy="4.0" in="blurOut2" result="blurOut3"/><feBlend in="SourceGraphic" in2="blurOut3" mode="normal"/></filter></defs><g><polygon fill="#FFFFFF" filter="url(#f1)" points="22,24,147,24,154,47.6094,432,47.6094,432,613,22,613,22,24" style="stroke: #000000; stroke-width: 2.0;"/><line style="stroke: #000000; stroke-width: 2.0;" x1="22" x2="154" y1="47.6094" y2="47.6094"/><text fill="#000000" font-family="sans-serif" font-size="14" font-weight="bold" lengthAdjust="spacingAndGlyphs" textLength="119" x="26" y="40.5332">cate.ui.workspace</text><polygon fill="#FFFFFF" filter="url(#f1)" points="456,323,555,323,562,346.6094,588,346.6094,588,423,456,423,456,323" style="stroke: #000000; stroke-width: 2.0;"/><line style="stroke: #000000; stroke-width: 2.0;" x1="456" x2="562" y1="346.6094" y2="346.6094"/><text fill="#000000" font-family="sans-serif" font-size="14" font-weight="bold" lengthAdjust="spacingAndGlyphs" textLength="93" x="460" y="339.5332">cate.ui.webapi</text><polygon fill="#FFFFFF" filter="url(#f1)" points="55,646,186,646,193,669.6094,196,669.6094,196,855,55,855,55,646" style="stroke: #000000; stroke-width: 2.0;"/><line style="stroke: #000000; stroke-width: 2.0;" x1="55" x2="193" y1="669.6094" y2="669.6094"/><text fill="#000000" font-family="sans-serif" font-size="14" font-weight="bold" lengthAdjust="spacingAndGlyphs" textLength="125" x="59" y="662.5332">cate.core.workflow</text><rect fill="#FEFECE" filter="url(#f1)" height="89.5078" style="stroke: #A80036; stroke-width: 1.5;" width="156" x="142" y="60"/><ellipse cx="163.3" cy="76" fill="#B4A7E5" rx="11" ry="11" style="stroke: #A80036; stroke-width: 1.0;"/><path d="M164.2531,72.6406 L164.2531,79.2969 L165.9719,79.2969 Q166.5813,79.2969 166.8469,79.5313 Q167.1125,79.7656 167.1125,80.1563 Q167.1125,80.5313 166.8469,80.7656 Q166.5813,81 165.9719,81 L160.8313,81 Q160.2219,81 159.9563,80.7656 Q159.6906,80.5313 159.6906,80.1406 Q159.6906,79.7656 159.9563,79.5313 Q160.2219,79.2969 160.8313,79.2969 L162.55,79.2969 L162.55,72.6406 L160.8313,72.6406 Q160.2219,72.6406 159.9563,72.4063 Q159.6906,72.1719 159.6906,71.7813 Q159.6906,71.4063 159.9563,71.1719 Q160.2219,70.9375 160.8313,70.9375 L165.9719,70.9375 Q166.5813,70.9375 166.8469,71.1719 Q167.1125,71.4063 167.1125,71.7813 Q167.1125,72.1719 166.8469,72.4063 Q166.5813,72.6406 165.9719,72.6406 L164.2531,72.6406 Z "/><text fill="#000000" font-family="sans-serif" font-size="12" font-style="italic" lengthAdjust="spacingAndGlyphs" textLength="110" x="178.7" y="80.9102">WorkspaceManager</text><line style="stroke: #A80036; stroke-width: 1.5;" x1="143" x2="297" y1="92" y2="92"/><line style="stroke: #A80036; stroke-width: 1.5;" x1="143" x2="297" y1="100" y2="100"/><text fill="#000000" font-family="sans-serif" font-size="11" lengthAdjust="spacingAndGlyphs" textLength="82" x="148" y="115.4189">init_workspace()</text><text fill="#000000" font-family="sans-serif" font-size="11" lengthAdjust="spacingAndGlyphs" textLength="134" x="148" y="129.2549">set_workspace_resource()</text><text fill="#000000" font-family="sans-serif" font-size="11" lengthAdjust="spacingAndGlyphs" textLength="144" x="148" y="143.0908">write_workspace_resource()</text><rect fill="#FEFECE" filter="url(#f1)" height="48" style="stroke: #A80036; stroke-width: 1.5;" width="157" x="38.5" y="211"/><ellipse cx="53.5" cy="227" fill="#ADD1B2" rx="11" ry="11" style="stroke: #A80036; stroke-width: 1.0;"/><path d="M56.2656,222.875 Q56.4219,222.6563 56.6094,222.5469 Q56.7969,222.4375 57.0156,222.4375 Q57.3906,222.4375 57.625,222.6953 Q57.8594,222.9531 57.8594,223.5625 L57.8594,225.0156 Q57.8594,225.625 57.625,225.8906 Q57.3906,226.1563 57.0156,226.1563 Q56.6719,226.1563 56.4688,225.9531 Q56.2656,225.7656 56.1563,225.25 Q56.1094,224.8906 55.9219,224.7031 Q55.5938,224.3281 54.9844,224.1094 Q54.375,223.8906 53.75,223.8906 Q52.9844,223.8906 52.3516,224.2188 Q51.7188,224.5469 51.2266,225.2969 Q50.7344,226.0469 50.7344,227.0781 L50.7344,228.1719 Q50.7344,229.4063 51.625,230.2266 Q52.5156,231.0469 54.1094,231.0469 Q55.0469,231.0469 55.7031,230.7969 Q56.0938,230.6406 56.5156,230.2031 Q56.7813,229.9375 56.9297,229.8594 Q57.0781,229.7813 57.2813,229.7813 Q57.6094,229.7813 57.8672,230.0391 Q58.125,230.2969 58.125,230.6406 Q58.125,230.9844 57.7813,231.3906 Q57.2813,231.9688 56.4844,232.2969 Q55.4063,232.75 54.1094,232.75 Q52.5938,232.75 51.3906,232.125 Q50.4063,231.625 49.7188,230.5547 Q49.0313,229.4844 49.0313,228.2031 L49.0313,227.0469 Q49.0313,225.7188 49.6484,224.5703 Q50.2656,223.4219 51.3594,222.8047 Q52.4531,222.1875 53.6875,222.1875 Q54.4219,222.1875 55.0703,222.3516 Q55.7188,222.5156 56.2656,222.875 Z "/><text fill="#000000" font-family="sans-serif" font-size="12" lengthAdjust="spacingAndGlyphs" textLength="125" x="67.5" y="231.9102">FSWorkspaceManager</text><line style="stroke: #A80036; stroke-width: 1.5;" x1="39.5" x2="194.5" y1="243" y2="243"/><line style="stroke: #A80036; stroke-width: 1.5;" x1="39.5" x2="194.5" y1="251" y2="251"/><rect fill="#FEFECE" filter="url(#f1)" height="48" style="stroke: #A80036; stroke-width: 1.5;" width="185" x="230.5" y="211"/><ellipse cx="245.5" cy="227" fill="#ADD1B2" rx="11" ry="11" style="stroke: #A80036; stroke-width: 1.0;"/><path d="M248.2656,222.875 Q248.4219,222.6563 248.6094,222.5469 Q248.7969,222.4375 249.0156,222.4375 Q249.3906,222.4375 249.625,222.6953 Q249.8594,222.9531 249.8594,223.5625 L249.8594,225.0156 Q249.8594,225.625 249.625,225.8906 Q249.3906,226.1563 249.0156,226.1563 Q248.6719,226.1563 248.4688,225.9531 Q248.2656,225.7656 248.1563,225.25 Q248.1094,224.8906 247.9219,224.7031 Q247.5938,224.3281 246.9844,224.1094 Q246.375,223.8906 245.75,223.8906 Q244.9844,223.8906 244.3516,224.2188 Q243.7188,224.5469 243.2266,225.2969 Q242.7344,226.0469 242.7344,227.0781 L242.7344,228.1719 Q242.7344,229.4063 243.625,230.2266 Q244.5156,231.0469 246.1094,231.0469 Q247.0469,231.0469 247.7031,230.7969 Q248.0938,230.6406 248.5156,230.2031 Q248.7813,229.9375 248.9297,229.8594 Q249.0781,229.7813 249.2813,229.7813 Q249.6094,229.7813 249.8672,230.0391 Q250.125,230.2969 250.125,230.6406 Q250.125,230.9844 249.7813,231.3906 Q249.2813,231.9688 248.4844,232.2969 Q247.4063,232.75 246.1094,232.75 Q244.5938,232.75 243.3906,232.125 Q242.4063,231.625 241.7188,230.5547 Q241.0313,229.4844 241.0313,228.2031 L241.0313,227.0469 Q241.0313,225.7188 241.6484,224.5703 Q242.2656,223.4219 243.3594,222.8047 Q244.4531,222.1875 245.6875,222.1875 Q246.4219,222.1875 247.0703,222.3516 Q247.7188,222.5156 248.2656,222.875 Z "/><text fill="#000000" font-family="sans-serif" font-size="12" lengthAdjust="spacingAndGlyphs" textLength="153" x="259.5" y="231.9102">WebAPIWorkspaceManager</text><line style="stroke: #A80036; stroke-width: 1.5;" x1="231.5" x2="414.5" y1="243" y2="243"/><line style="stroke: #A80036; stroke-width: 1.5;" x1="231.5" x2="414.5" y1="251" y2="251"/><rect fill="#FEFECE" filter="url(#f1)" height="48" style="stroke: #A80036; stroke-width: 1.5;" width="94" x="78" y="549"/><ellipse cx="93" cy="565" fill="#ADD1B2" rx="11" ry="11" style="stroke: #A80036; stroke-width: 1.0;"/><path d="M95.7656,560.875 Q95.9219,560.6563 96.1094,560.5469 Q96.2969,560.4375 96.5156,560.4375 Q96.8906,560.4375 97.125,560.6953 Q97.3594,560.9531 97.3594,561.5625 L97.3594,563.0156 Q97.3594,563.625 97.125,563.8906 Q96.8906,564.1563 96.5156,564.1563 Q96.1719,564.1563 95.9688,563.9531 Q95.7656,563.7656 95.6563,563.25 Q95.6094,562.8906 95.4219,562.7031 Q95.0938,562.3281 94.4844,562.1094 Q93.875,561.8906 93.25,561.8906 Q92.4844,561.8906 91.8516,562.2188 Q91.2188,562.5469 90.7266,563.2969 Q90.2344,564.0469 90.2344,565.0781 L90.2344,566.1719 Q90.2344,567.4063 91.125,568.2266 Q92.0156,569.0469 93.6094,569.0469 Q94.5469,569.0469 95.2031,568.7969 Q95.5938,568.6406 96.0156,568.2031 Q96.2813,567.9375 96.4297,567.8594 Q96.5781,567.7813 96.7813,567.7813 Q97.1094,567.7813 97.3672,568.0391 Q97.625,568.2969 97.625,568.6406 Q97.625,568.9844 97.2813,569.3906 Q96.7813,569.9688 95.9844,570.2969 Q94.9063,570.75 93.6094,570.75 Q92.0938,570.75 90.8906,570.125 Q89.9063,569.625 89.2188,568.5547 Q88.5313,567.4844 88.5313,566.2031 L88.5313,565.0469 Q88.5313,563.7188 89.1484,562.5703 Q89.7656,561.4219 90.8594,560.8047 Q91.9531,560.1875 93.1875,560.1875 Q93.9219,560.1875 94.5703,560.3516 Q95.2188,560.5156 95.7656,560.875 Z "/><text fill="#000000" font-family="sans-serif" font-size="12" lengthAdjust="spacingAndGlyphs" textLength="62" x="107" y="569.9102">Workspace</text><line style="stroke: #A80036; stroke-width: 1.5;" x1="79" x2="171" y1="581" y2="581"/><line style="stroke: #A80036; stroke-width: 1.5;" x1="79" x2="171" y1="589" y2="589"/><rect fill="#FEFECE" filter="url(#f1)" height="48" style="stroke: #A80036; stroke-width: 1.5;" width="99" x="472.5" y="359"/><ellipse cx="487.5" cy="375" fill="#B4A7E5" rx="11" ry="11" style="stroke: #A80036; stroke-width: 1.0;"/><path d="M488.4531,371.6406 L488.4531,378.2969 L490.1719,378.2969 Q490.7813,378.2969 491.0469,378.5313 Q491.3125,378.7656 491.3125,379.1563 Q491.3125,379.5313 491.0469,379.7656 Q490.7813,380 490.1719,380 L485.0313,380 Q484.4219,380 484.1563,379.7656 Q483.8906,379.5313 483.8906,379.1406 Q483.8906,378.7656 484.1563,378.5313 Q484.4219,378.2969 485.0313,378.2969 L486.75,378.2969 L486.75,371.6406 L485.0313,371.6406 Q484.4219,371.6406 484.1563,371.4063 Q483.8906,371.1719 483.8906,370.7813 Q483.8906,370.4063 484.1563,370.1719 Q484.4219,369.9375 485.0313,369.9375 L490.1719,369.9375 Q490.7813,369.9375 491.0469,370.1719 Q491.3125,370.4063 491.3125,370.7813 Q491.3125,371.1719 491.0469,371.4063 Q490.7813,371.6406 490.1719,371.6406 L488.4531,371.6406 Z "/><text fill="#000000" font-family="sans-serif" font-size="12" font-style="italic" lengthAdjust="spacingAndGlyphs" textLength="67" x="501.5" y="379.9102">WebService</text><line style="stroke: #A80036; stroke-width: 1.5;" x1="473.5" x2="570.5" y1="391" y2="391"/><line style="stroke: #A80036; stroke-width: 1.5;" x1="473.5" x2="570.5" y1="399" y2="399"/><rect fill="#FEFECE" filter="url(#f1)" height="48" style="stroke: #A80036; stroke-width: 1.5;" width="82" x="84" y="682"/><ellipse cx="99" cy="698" fill="#ADD1B2" rx="11" ry="11" style="stroke: #A80036; stroke-width: 1.0;"/><path d="M101.7656,693.875 Q101.9219,693.6563 102.1094,693.5469 Q102.2969,693.4375 102.5156,693.4375 Q102.8906,693.4375 103.125,693.6953 Q103.3594,693.9531 103.3594,694.5625 L103.3594,696.0156 Q103.3594,696.625 103.125,696.8906 Q102.8906,697.1563 102.5156,697.1563 Q102.1719,697.1563 101.9688,696.9531 Q101.7656,696.7656 101.6563,696.25 Q101.6094,695.8906 101.4219,695.7031 Q101.0938,695.3281 100.4844,695.1094 Q99.875,694.8906 99.25,694.8906 Q98.4844,694.8906 97.8516,695.2188 Q97.2188,695.5469 96.7266,696.2969 Q96.2344,697.0469 96.2344,698.0781 L96.2344,699.1719 Q96.2344,700.4063 97.125,701.2266 Q98.0156,702.0469 99.6094,702.0469 Q100.5469,702.0469 101.2031,701.7969 Q101.5938,701.6406 102.0156,701.2031 Q102.2813,700.9375 102.4297,700.8594 Q102.5781,700.7813 102.7813,700.7813 Q103.1094,700.7813 103.3672,701.0391 Q103.625,701.2969 103.625,701.6406 Q103.625,701.9844 103.2813,702.3906 Q102.7813,702.9688 101.9844,703.2969 Q100.9063,703.75 99.6094,703.75 Q98.0938,703.75 96.8906,703.125 Q95.9063,702.625 95.2188,701.5547 Q94.5313,700.4844 94.5313,699.2031 L94.5313,698.0469 Q94.5313,696.7188 95.1484,695.5703 Q95.7656,694.4219 96.8594,693.8047 Q97.9531,693.1875 99.1875,693.1875 Q99.9219,693.1875 100.5703,693.3516 Q101.2188,693.5156 101.7656,693.875 Z "/><text fill="#000000" font-family="sans-serif" font-size="12" lengthAdjust="spacingAndGlyphs" textLength="50" x="113" y="702.9102">Workflow</text><line style="stroke: #A80036; stroke-width: 1.5;" x1="85" x2="165" y1="714" y2="714"/><line style="stroke: #A80036; stroke-width: 1.5;" x1="85" x2="165" y1="722" y2="722"/><rect fill="#FEFECE" filter="url(#f1)" height="48" style="stroke: #A80036; stroke-width: 1.5;" width="73" x="88.5" y="791"/><ellipse cx="103.5" cy="807" fill="#ADD1B2" rx="11" ry="11" style="stroke: #A80036; stroke-width: 1.0;"/><path d="M106.2656,802.875 Q106.4219,802.6563 106.6094,802.5469 Q106.7969,802.4375 107.0156,802.4375 Q107.3906,802.4375 107.625,802.6953 Q107.8594,802.9531 107.8594,803.5625 L107.8594,805.0156 Q107.8594,805.625 107.625,805.8906 Q107.3906,806.1563 107.0156,806.1563 Q106.6719,806.1563 106.4688,805.9531 Q106.2656,805.7656 106.1563,805.25 Q106.1094,804.8906 105.9219,804.7031 Q105.5938,804.3281 104.9844,804.1094 Q104.375,803.8906 103.75,803.8906 Q102.9844,803.8906 102.3516,804.2188 Q101.7188,804.5469 101.2266,805.2969 Q100.7344,806.0469 100.7344,807.0781 L100.7344,808.1719 Q100.7344,809.4063 101.625,810.2266 Q102.5156,811.0469 104.1094,811.0469 Q105.0469,811.0469 105.7031,810.7969 Q106.0938,810.6406 106.5156,810.2031 Q106.7813,809.9375 106.9297,809.8594 Q107.0781,809.7813 107.2813,809.7813 Q107.6094,809.7813 107.8672,810.0391 Q108.125,810.2969 108.125,810.6406 Q108.125,810.9844 107.7813,811.3906 Q107.2813,811.9688 106.4844,812.2969 Q105.4063,812.75 104.1094,812.75 Q102.5938,812.75 101.3906,812.125 Q100.4063,811.625 99.7188,810.5547 Q99.0313,809.4844 99.0313,808.2031 L99.0313,807.0469 Q99.0313,805.7188 99.6484,804.5703 Q100.2656,803.4219 101.3594,802.8047 Q102.4531,802.1875 103.6875,802.1875 Q104.4219,802.1875 105.0703,802.3516 Q105.7188,802.5156 106.2656,802.875 Z "/><text fill="#000000" font-family="sans-serif" font-size="12" lengthAdjust="spacingAndGlyphs" textLength="41" x="117.5" y="811.9102">OpStep</text><line style="stroke: #A80036; stroke-width: 1.5;" x1="89.5" x2="160.5" y1="823" y2="823"/><line style="stroke: #A80036; stroke-width: 1.5;" x1="89.5" x2="160.5" y1="831" y2="831"/><path d="M171.912,165.76 C159.056,181.736 145.916,198.065 135.714,210.744 " fill="none" style="stroke: #A80036; stroke-width: 1.0; stroke-dasharray: 7.0,7.0;"/><polygon fill="none" points="166.561,161.244,184.553,150.05,177.468,170.02,166.561,161.244" style="stroke: #A80036; stroke-width: 1.0;"/><path d="M268.088,165.76 C280.944,181.736 294.084,198.065 304.286,210.744 " fill="none" style="stroke: #A80036; stroke-width: 1.0; stroke-dasharray: 7.0,7.0;"/><polygon fill="none" points="262.532,170.02,255.447,150.05,273.439,161.244,262.532,170.02" style="stroke: #A80036; stroke-width: 1.0;"/><path d="M355.034,259.053 C376.793,274.753 406.195,296.045 432,315 C450.235,328.395 470.451,343.428 487.097,355.855 " fill="none" style="stroke: #A80036; stroke-width: 1.0; stroke-dasharray: 7.0,7.0;"/><polygon fill="#A80036" points="491.248,358.956,486.4303,350.3659,487.2418,355.9642,481.6435,356.7758,491.248,358.956" style="stroke: #A80036; stroke-width: 1.0;"/><text fill="#000000" font-family="sans-serif" font-size="13" lengthAdjust="spacingAndGlyphs" textLength="94" x="421" y="303.4951">&lt;communicate&gt;</text><path d="M106.752,259.28 C90.3153,299.627 61.3247,385.12 76,457 C82.3631,488.167 97.5029,521.343 109.283,544.011 " fill="none" style="stroke: #A80036; stroke-width: 1.0; stroke-dasharray: 7.0,7.0;"/><polygon fill="#A80036" points="111.742,548.684,111.0924,538.8566,109.4144,544.2588,104.0122,542.5808,111.742,548.684" style="stroke: #A80036; stroke-width: 1.0;"/><text fill="#000000" font-family="sans-serif" font-size="13" lengthAdjust="spacingAndGlyphs" textLength="44" x="77" y="453.4951">&lt;uses&gt;</text><path d="M119.095,272.296 C121.325,312.898 124.707,380.634 126,439 C126.177,446.998 126.035,449 126,457 C125.886,483.289 125.624,512.958 125.398,535.576 " fill="none" style="stroke: #A80036; stroke-width: 1.0;"/><polygon fill="#A80036" points="125.262,548.653,129.3547,539.6948,125.3136,543.6533,121.3552,539.6122,125.262,548.653" style="stroke: #A80036; stroke-width: 1.0;"/><line style="stroke: #A80036; stroke-width: 1.0;" x1="125.3136" x2="125.397" y1="543.6533" y2="535.654"/><polygon fill="#FFFFFF" points="118.359,259.126,114.7002,265.3399,119.0289,271.1073,122.6877,264.8934,118.359,259.126" style="stroke: #A80036; stroke-width: 1.0;"/><text fill="#000000" font-family="sans-serif" font-size="13" lengthAdjust="spacingAndGlyphs" textLength="104" x="128" y="453.4951">workspace_cache</text><text fill="#000000" font-family="sans-serif" font-size="13" lengthAdjust="spacingAndGlyphs" textLength="24" x="98.4015" y="538.3064">0..N</text><path d="M486.907,350.108 C471.146,337.378 451.686,323.704 432,315 C415.02,307.492 409.106,311.108 391,307 C329.794,293.112 261.46,275.41 208.345,261.155 " fill="none" style="stroke: #A80036; stroke-width: 1.0;"/><polygon fill="#A80036" points="195.529,257.704,203.1788,263.9073,200.3569,259.0045,205.2596,256.1826,195.529,257.704" style="stroke: #A80036; stroke-width: 1.0;"/><line style="stroke: #A80036; stroke-width: 1.0;" x1="200.3569" x2="208.0815" y1="259.0045" y2="261.0845"/><polygon fill="#FFFFFF" points="497.185,358.698,495.1462,351.7811,487.9773,351.0027,490.016,357.9196,497.185,358.698" style="stroke: #A80036; stroke-width: 1.0;"/><text fill="#000000" font-family="sans-serif" font-size="13" lengthAdjust="spacingAndGlyphs" textLength="7" x="203.6037" y="256.6638">1</text><path d="M125,597.119 C125,619.244 125,652.675 125,676.452 " fill="none" style="stroke: #A80036; stroke-width: 1.0;"/><polygon fill="#A80036" points="125,681.672,129,672.672,125,676.672,121,672.672,125,681.672" style="stroke: #A80036; stroke-width: 1.0;"/><text fill="#000000" font-family="sans-serif" font-size="13" lengthAdjust="spacingAndGlyphs" textLength="7" x="117.1469" y="671.33">1</text><path d="M125,743.302 C125,754.354 125,766.502 125,777.563 " fill="none" style="stroke: #A80036; stroke-width: 1.0;"/><polygon fill="#A80036" points="125,790.8279,129,781.8279,125,785.8279,121,781.8279,125,790.8279" style="stroke: #A80036; stroke-width: 1.0;"/><line style="stroke: #A80036; stroke-width: 1.0;" x1="125" x2="125" y1="785.8279" y2="777.8279"/><polygon fill="#FFFFFF" points="125,730.217,121,736.217,125,742.217,129,736.217,125,730.217" style="stroke: #A80036; stroke-width: 1.0;"/><text fill="#000000" font-family="sans-serif" font-size="13" lengthAdjust="spacingAndGlyphs" textLength="24" x="97.925" y="780.124">0..N</text></g></svg>