<?xml version="1.0" encoding="UTF-8" standalone="yes"?><!--
  ~ The MIT License (MIT)
  ~ Copyright (c) 2016, 2017 by the ESA CCI Toolbox development team and contributors
  ~
  ~ Permission is hereby granted, free of charge, to any person obtaining a copy of
  ~ this software and associated documentation files (the "Software"), to deal in
  ~ the Software without restriction, including without limitation the rights to
  ~ use, copy, modify, merge, publish, distribute, sublicense, and/or sell copies
  ~ of the Software, and to permit persons to whom the Software is furnished to do
  ~ so, subject to the following conditions:
  ~
  ~ The above copyright notice and this permission notice shall be included in all
  ~ copies or substantial portions of the Software.
  ~
  ~ THE SOFTWARE IS PROVIDED "AS IS", WITHOUT WARRANTY OF ANY KIND, EXPRESS OR
  ~ IMPLIED, INCLUDING BUT NOT LIMITED TO THE WARRANTIES OF MERCHANTABILITY,
  ~ FITNESS FOR A PARTICULAR PURPOSE AND NONINFRINGEMENT. IN NO EVENT SHALL THE
  ~ AUTHORS OR COPYRIGHT HOLDERS BE LIABLE FOR ANY CLAIM, DAMAGES OR OTHER
  ~ LIABILITY, WHETHER IN AN ACTION OF CONTRACT, TORT OR OTHERWISE, ARISING FROM,
  ~ OUT OF OR IN CONNECTION WITH THE SOFTWARE OR THE USE OR OTHER DEALINGS IN THE
  ~ SOFTWARE.
  ~
  -->

<svg xmlns="http://www.w3.org/2000/svg" xmlns:xlink="http://www.w3.org/1999/xlink" height="260px" style="width:177px;height:260px;" version="1.1" viewBox="0 0 177 260" width="177px"><defs><filter height="300%" id="f1" width="300%" x="-1" y="-1"><feGaussianBlur result="blurOut" stdDeviation="2.0"/><feColorMatrix in="blurOut" result="blurOut2" type="matrix" values="0 0 0 0 0 0 0 0 0 0 0 0 0 0 0 0 0 0 .4 0"/><feOffset dx="4.0" dy="4.0" in="blurOut2" result="blurOut3"/><feBlend in="SourceGraphic" in2="blurOut3" mode="normal"/></filter></defs><g><rect fill="#FEFECE" filter="url(#f1)" height="61.8359" style="stroke: #A80036; stroke-width: 1.5;" width="62" x="62.3639" y="8"/><ellipse cx="77.3639" cy="24" fill="#A9DCDF" rx="11" ry="11" style="stroke: #A80036; stroke-width: 1.0;"/><path d="M79.5514,25.7656 L75.4108,25.7656 L74.9889,26.7969 L75.4108,26.7969 Q76.0201,26.7969 76.2858,27.0313 Q76.5514,27.2656 76.5514,27.6563 Q76.5514,28.0313 76.2858,28.2656 Q76.0201,28.5 75.4108,28.5 L73.1139,28.5 Q72.5045,28.5 72.2467,28.2656 Q71.9889,28.0313 71.9889,27.6406 Q71.9889,27.2656 72.2623,27.0234 Q72.5358,26.7813 73.1608,26.7969 L75.8326,20.1406 L74.7233,20.1406 Q74.1139,20.1406 73.8483,19.9063 Q73.5826,19.6719 73.5826,19.2813 Q73.5826,18.9063 73.8483,18.6719 Q74.1139,18.4375 74.7233,18.4375 L78.3951,18.4375 L81.7858,26.7969 Q82.3795,26.7969 82.567,26.9375 Q82.9576,27.2031 82.9576,27.6563 Q82.9576,28.0313 82.6998,28.2656 Q82.442,28.5 81.8326,28.5 L79.5358,28.5 Q78.9264,28.5 78.6608,28.2656 Q78.3951,28.0313 78.3951,27.6406 Q78.3951,27.2656 78.6608,27.0313 Q78.9264,26.7969 79.5358,26.7969 L79.9576,26.7969 L79.5514,25.7656 Z M78.8326,24.0625 L77.4733,20.6875 L76.0983,24.0625 L78.8326,24.0625 Z "/><text fill="#000000" font-family="sans-serif" font-size="12" font-style="italic" lengthAdjust="spacingAndGlyphs" textLength="30" x="91.3639" y="28.9102">Node</text><line style="stroke: #A80036; stroke-width: 1.5;" x1="63.3639" x2="123.3639" y1="40" y2="40"/><text fill="#000000" font-family="sans-serif" font-size="11" lengthAdjust="spacingAndGlyphs" textLength="30" x="68.3639" y="55.4189">id : str</text><line style="stroke: #A80036; stroke-width: 1.5;" x1="63.3639" x2="123.3639" y1="61.8359" y2="61.8359"/><rect fill="#FEFECE" filter="url(#f1)" height="103.3438" style="stroke: #A80036; stroke-width: 1.5;" width="96" x="45.3639" y="148"/><ellipse cx="65.7639" cy="164" fill="#ADD1B2" rx="11" ry="11" style="stroke: #A80036; stroke-width: 1.0;"/><path d="M68.5295,159.875 Q68.6858,159.6563 68.8733,159.5469 Q69.0608,159.4375 69.2795,159.4375 Q69.6545,159.4375 69.8889,159.6953 Q70.1233,159.9531 70.1233,160.5625 L70.1233,162.0156 Q70.1233,162.625 69.8889,162.8906 Q69.6545,163.1563 69.2795,163.1563 Q68.9358,163.1563 68.7326,162.9531 Q68.5295,162.7656 68.4201,162.25 Q68.3733,161.8906 68.1858,161.7031 Q67.8576,161.3281 67.2483,161.1094 Q66.6389,160.8906 66.0139,160.8906 Q65.2483,160.8906 64.6154,161.2188 Q63.9826,161.5469 63.4904,162.2969 Q62.9983,163.0469 62.9983,164.0781 L62.9983,165.1719 Q62.9983,166.4063 63.8889,167.2266 Q64.7795,168.0469 66.3733,168.0469 Q67.3108,168.0469 67.967,167.7969 Q68.3576,167.6406 68.7795,167.2031 Q69.0451,166.9375 69.1936,166.8594 Q69.342,166.7813 69.5451,166.7813 Q69.8733,166.7813 70.1311,167.0391 Q70.3889,167.2969 70.3889,167.6406 Q70.3889,167.9844 70.0451,168.3906 Q69.5451,168.9688 68.7483,169.2969 Q67.6701,169.75 66.3733,169.75 Q64.8576,169.75 63.6545,169.125 Q62.6701,168.625 61.9826,167.5547 Q61.2951,166.4844 61.2951,165.2031 L61.2951,164.0469 Q61.2951,162.7188 61.9123,161.5703 Q62.5295,160.4219 63.6233,159.8047 Q64.717,159.1875 65.9514,159.1875 Q66.6858,159.1875 67.3342,159.3516 Q67.9826,159.5156 68.5295,159.875 Z "/><text fill="#000000" font-family="sans-serif" font-size="12" lengthAdjust="spacingAndGlyphs" textLength="52" x="80.9639" y="168.9102">NodePort</text><line style="stroke: #A80036; stroke-width: 1.5;" x1="46.3639" x2="140.3639" y1="180" y2="180"/><text fill="#000000" font-family="sans-serif" font-size="11" lengthAdjust="spacingAndGlyphs" textLength="55" x="51.3639" y="195.4189">node: Node</text><text fill="#000000" font-family="sans-serif" font-size="11" lengthAdjust="spacingAndGlyphs" textLength="45" x="51.3639" y="209.2549">name: str</text><text fill="#000000" font-family="sans-serif" font-size="11" lengthAdjust="spacingAndGlyphs" textLength="84" x="51.3639" y="223.0908">source: NodePort</text><text fill="#000000" font-family="sans-serif" font-size="11" lengthAdjust="spacingAndGlyphs" textLength="61" x="51.3639" y="236.9268">value: object</text><line style="stroke: #A80036; stroke-width: 1.5;" x1="46.3639" x2="140.3639" y1="243.3438" y2="243.3438"/><path d="M50.8571,62.113 C30.3087,76.095 11.7606,95.706 20.3639,118 C24.227,128.011 29.9768,137.547 36.5842,146.325 " fill="none" style="stroke: #A80036; stroke-width: 1.0;"/><polygon fill="#A80036" points="45,156.6371,42.4091,147.1351,41.8388,152.7632,36.2108,152.193,45,156.6371" style="stroke: #A80036; stroke-width: 1.0;"/><line style="stroke: #A80036; stroke-width: 1.0;" x1="41.8388" x2="36.7805" y1="152.7632" y2="146.5655"/><polygon fill="#FFFFFF" points="61.984,55.138,54.7757,54.936,51.8169,61.5122,59.0251,61.7141,61.984,55.138" style="stroke: #A80036; stroke-width: 1.0;"/><text fill="#000000" font-family="sans-serif" font-size="13" lengthAdjust="spacingAndGlyphs" textLength="28" x="21.3639" y="114.4951">input</text><text fill="#000000" font-family="sans-serif" font-size="13" lengthAdjust="spacingAndGlyphs" textLength="24" x="13.2659" y="147.6158">0..N</text><path d="M90.9273,83.621 C90.6946,89.133 90.4964,94.697 90.3639,100 C90.0844,111.187 90.1436,123.087 90.3866,134.606 " fill="none" style="stroke: #A80036; stroke-width: 1.0;"/><polygon fill="#A80036" points="90.747,147.887,94.5012,138.7817,90.6113,142.8888,86.5042,138.9989,90.747,147.887" style="stroke: #A80036; stroke-width: 1.0;"/><line style="stroke: #A80036; stroke-width: 1.0;" x1="90.6113" x2="90.3942" y1="142.8888" y2="134.8915"/><polygon fill="#FFFFFF" points="91.5586,70.205,87.2808,76.0102,90.9942,82.1917,95.272,76.3865,91.5586,70.205" style="stroke: #A80036; stroke-width: 1.0;"/><text fill="#000000" font-family="sans-serif" font-size="13" lengthAdjust="spacingAndGlyphs" textLength="36" x="91.3639" y="114.4951">output</text><text fill="#000000" font-family="sans-serif" font-size="13" lengthAdjust="spacingAndGlyphs" textLength="24" x="64.6915" y="136.9996">0..N</text><path d="M127.2272,147.982 C133.6452,132.756 137.0682,115.87 132.3642,100 C129.7422,91.156 125.3602,82.394 120.4602,74.412 " fill="none" style="stroke: #A80036; stroke-width: 1.0;"/><polygon fill="#A80036" points="117.6924,70.062,119.1492,79.8025,120.3766,74.2804,125.8987,75.5078,117.6924,70.062" style="stroke: #A80036; stroke-width: 1.0;"/><path d="M141.5442,182.7084 C160.5172,181.8618 176.3642,187.459 176.3642,199.5 C176.3642,210.4122 163.3492,216.0321 146.7872,216.3598 " fill="none" style="stroke: #A80036; stroke-width: 1.0;"/><polygon fill="#A80036" points="141.5442,216.2916,150.4908,220.4095,146.5437,216.3573,150.596,212.4102,141.5442,216.2916" style="stroke: #A80036; stroke-width: 1.0;"/></g></svg>