<?xml version="1.0" encoding="UTF-8" standalone="yes"?><svg xmlns="http://www.w3.org/2000/svg" xmlns:xlink="http://www.w3.org/1999/xlink" height="647px" style="width:1004px;height:647px;" version="1.1" viewBox="0 0 1004 647" width="1004px"><defs><filter height="300%" id="f1" width="300%" x="-1" y="-1"><feGaussianBlur result="blurOut" stdDeviation="2.0"/><feColorMatrix in="blurOut" result="blurOut2" type="matrix" values="0 0 0 0 0 0 0 0 0 0 0 0 0 0 0 0 0 0 .4 0"/><feOffset dx="4.0" dy="4.0" in="blurOut2" result="blurOut3"/><feBlend in="SourceGraphic" in2="blurOut3" mode="normal"/></filter></defs><g><polygon fill="#FFFFFF" filter="url(#f1)" points="340,488,446,488,453,510.2969,627,510.2969,627,640,340,640,340,488" style="stroke: #000000; stroke-width: 2.0;"/><line style="stroke: #000000; stroke-width: 2.0;" x1="340" x2="453" y1="510.2969" y2="510.2969"/><text fill="#000000" font-family="sans-serif" font-size="14" font-weight="bold" lengthAdjust="spacingAndGlyphs" textLength="100" x="344" y="502.9951">cate.core.op</text><rect fill="#FEFECE" filter="url(#f1)" height="99.2188" style="stroke: #A80036; stroke-width: 1.5;" width="126" x="356" y="524.5"/><ellipse cx="381.35" cy="540.5" fill="#ADD1B2" rx="11" ry="11" style="stroke: #A80036; stroke-width: 1.0;"/><path d="M384.3188,546.1406 Q383.7406,546.4375 383.1,546.5859 Q382.4594,546.7344 381.7563,546.7344 Q379.2563,546.7344 377.9359,545.0859 Q376.6156,543.4375 376.6156,540.3125 Q376.6156,537.1875 377.9359,535.5313 Q379.2563,533.875 381.7563,533.875 Q382.4594,533.875 383.1078,534.0313 Q383.7563,534.1875 384.3188,534.4844 L384.3188,537.2031 Q383.6938,536.625 383.1,536.3516 Q382.5063,536.0781 381.8813,536.0781 Q380.5375,536.0781 379.85,537.1484 Q379.1625,538.2188 379.1625,540.3125 Q379.1625,542.4063 379.85,543.4766 Q380.5375,544.5469 381.8813,544.5469 Q382.5063,544.5469 383.1,544.2734 Q383.6938,544 384.3188,543.4219 L384.3188,546.1406 Z "/><text fill="#000000" font-family="sans-serif" font-size="12" lengthAdjust="spacingAndGlyphs" textLength="71" x="397.65" y="544.6543">OpMetaInfo</text><line style="stroke: #A80036; stroke-width: 1.5;" x1="357" x2="481" y1="556.5" y2="556.5"/><text fill="#000000" font-family="sans-serif" font-size="11" lengthAdjust="spacingAndGlyphs" textLength="114" x="362" y="570.7104">qualified_name : str</text><text fill="#000000" font-family="sans-serif" font-size="11" lengthAdjust="spacingAndGlyphs" textLength="72" x="362" y="583.5151">header : dict</text><text fill="#000000" font-family="sans-serif" font-size="11" lengthAdjust="spacingAndGlyphs" textLength="67" x="362" y="596.3198">inputs : dict</text><text fill="#000000" font-family="sans-serif" font-size="11" lengthAdjust="spacingAndGlyphs" textLength="75" x="362" y="609.1245">outputs : dict</text><line style="stroke: #A80036; stroke-width: 1.5;" x1="357" x2="481" y1="615.7188" y2="615.7188"/><rect fill="#FEFECE" filter="url(#f1)" height="48" style="stroke: #A80036; stroke-width: 1.5;" width="94" x="517" y="550"/><ellipse cx="532" cy="566" fill="#ADD1B2" rx="11" ry="11" style="stroke: #A80036; stroke-width: 1.0;"/><path d="M534.9688,571.6406 Q534.3906,571.9375 533.75,572.0859 Q533.1094,572.2344 532.4063,572.2344 Q529.9063,572.2344 528.5859,570.5859 Q527.2656,568.9375 527.2656,565.8125 Q527.2656,562.6875 528.5859,561.0313 Q529.9063,559.375 532.4063,559.375 Q533.1094,559.375 533.7578,559.5313 Q534.4063,559.6875 534.9688,559.9844 L534.9688,562.7031 Q534.3438,562.125 533.75,561.8516 Q533.1563,561.5781 532.5313,561.5781 Q531.1875,561.5781 530.5,562.6484 Q529.8125,563.7188 529.8125,565.8125 Q529.8125,567.9063 530.5,568.9766 Q531.1875,570.0469 532.5313,570.0469 Q533.1563,570.0469 533.75,569.7734 Q534.3438,569.5 534.9688,568.9219 L534.9688,571.6406 Z "/><text fill="#000000" font-family="sans-serif" font-size="12" lengthAdjust="spacingAndGlyphs" textLength="62" x="546" y="570.1543">Operation</text><line style="stroke: #A80036; stroke-width: 1.5;" x1="518" x2="610" y1="582" y2="582"/><line style="stroke: #A80036; stroke-width: 1.5;" x1="518" x2="610" y1="590" y2="590"/><rect fill="#FEFECE" filter="url(#f1)" height="124.8281" style="stroke: #A80036; stroke-width: 1.5;" width="172" x="6" y="298.5"/><ellipse cx="71.25" cy="314.5" fill="#A9DCDF" rx="11" ry="11" style="stroke: #A80036; stroke-width: 1.0;"/><path d="M71.3594,309.8438 L70.2031,314.9219 L72.5313,314.9219 L71.3594,309.8438 Z M69.875,307.6094 L72.8594,307.6094 L76.2188,320 L73.7656,320 L73,316.9375 L69.7188,316.9375 L68.9688,320 L66.5313,320 L69.875,307.6094 Z "/><text fill="#000000" font-family="sans-serif" font-size="12" font-style="italic" lengthAdjust="spacingAndGlyphs" textLength="33" x="91.75" y="318.6543">Node</text><line style="stroke: #A80036; stroke-width: 1.5;" x1="7" x2="177" y1="330.5" y2="330.5"/><text fill="#000000" font-family="sans-serif" font-size="11" lengthAdjust="spacingAndGlyphs" textLength="38" x="12" y="344.7104">id : str</text><text fill="#000000" font-family="sans-serif" font-size="11" lengthAdjust="spacingAndGlyphs" textLength="152" x="12" y="357.5151">inputs : Dict[str, NodePort]</text><text fill="#000000" font-family="sans-serif" font-size="11" lengthAdjust="spacingAndGlyphs" textLength="160" x="12" y="370.3198">outputs : Dict[str, NodePort]</text><line style="stroke: #A80036; stroke-width: 1.5;" x1="7" x2="177" y1="376.9141" y2="376.9141"/><text fill="#000000" font-family="sans-serif" font-size="11" font-style="italic" lengthAdjust="spacingAndGlyphs" textLength="113" x="12" y="391.1245">from_json(json_dict)</text><text fill="#000000" font-family="sans-serif" font-size="11" font-style="italic" lengthAdjust="spacingAndGlyphs" textLength="106" x="12" y="403.9292">to_json_dict() : dict</text><text fill="#000000" font-family="sans-serif" font-size="11" font-style="italic" lengthAdjust="spacingAndGlyphs" textLength="134" x="12" y="416.7339">invoke(monitor, **args)</text><rect fill="#FEFECE" filter="url(#f1)" height="86.4141" style="stroke: #A80036; stroke-width: 1.5;" width="146" x="372" y="8"/><ellipse cx="413.55" cy="24" fill="#ADD1B2" rx="11" ry="11" style="stroke: #A80036; stroke-width: 1.0;"/><path d="M416.5188,29.6406 Q415.9406,29.9375 415.3,30.0859 Q414.6594,30.2344 413.9563,30.2344 Q411.4563,30.2344 410.1359,28.5859 Q408.8156,26.9375 408.8156,23.8125 Q408.8156,20.6875 410.1359,19.0313 Q411.4563,17.375 413.9563,17.375 Q414.6594,17.375 415.3078,17.5313 Q415.9563,17.6875 416.5188,17.9844 L416.5188,20.7031 Q415.8938,20.125 415.3,19.8516 Q414.7063,19.5781 414.0813,19.5781 Q412.7375,19.5781 412.05,20.6484 Q411.3625,21.7188 411.3625,23.8125 Q411.3625,25.9063 412.05,26.9766 Q412.7375,28.0469 414.0813,28.0469 Q414.7063,28.0469 415.3,27.7734 Q415.8938,27.5 416.5188,26.9219 L416.5188,29.6406 Z "/><text fill="#000000" font-family="sans-serif" font-size="12" lengthAdjust="spacingAndGlyphs" textLength="55" x="433.45" y="28.1543">Workflow</text><line style="stroke: #A80036; stroke-width: 1.5;" x1="373" x2="517" y1="40" y2="40"/><line style="stroke: #A80036; stroke-width: 1.5;" x1="373" x2="517" y1="48" y2="48"/><text fill="#000000" font-family="sans-serif" font-size="11" lengthAdjust="spacingAndGlyphs" textLength="115" x="378" y="62.2104">from_json(json_dict)</text><text fill="#000000" font-family="sans-serif" font-size="11" lengthAdjust="spacingAndGlyphs" textLength="107" x="378" y="75.0151">to_json_dict() : dict</text><text fill="#000000" font-family="sans-serif" font-size="11" lengthAdjust="spacingAndGlyphs" textLength="134" x="378" y="87.8198">invoke(monitor, **args)</text><rect fill="#FEFECE" filter="url(#f1)" height="48" style="stroke: #A80036; stroke-width: 1.5;" width="61" x="414.75" y="172"/><ellipse cx="429.75" cy="188" fill="#A9DCDF" rx="11" ry="11" style="stroke: #A80036; stroke-width: 1.0;"/><path d="M429.8594,183.3438 L428.7031,188.4219 L431.0313,188.4219 L429.8594,183.3438 Z M428.375,181.1094 L431.3594,181.1094 L434.7188,193.5 L432.2656,193.5 L431.5,190.4375 L428.2188,190.4375 L427.4688,193.5 L425.0313,193.5 L428.375,181.1094 Z "/><text fill="#000000" font-family="sans-serif" font-size="12" font-style="italic" lengthAdjust="spacingAndGlyphs" textLength="29" x="443.75" y="192.1543">Step</text><line style="stroke: #A80036; stroke-width: 1.5;" x1="415.75" x2="474.75" y1="204" y2="204"/><line style="stroke: #A80036; stroke-width: 1.5;" x1="415.75" x2="474.75" y1="212" y2="212"/><rect fill="#FEFECE" filter="url(#f1)" height="60.8047" style="stroke: #A80036; stroke-width: 1.5;" width="116" x="879.5" y="330.5"/><ellipse cx="894.5" cy="346.5" fill="#ADD1B2" rx="11" ry="11" style="stroke: #A80036; stroke-width: 1.0;"/><path d="M897.4688,352.1406 Q896.8906,352.4375 896.25,352.5859 Q895.6094,352.7344 894.9063,352.7344 Q892.4063,352.7344 891.0859,351.0859 Q889.7656,349.4375 889.7656,346.3125 Q889.7656,343.1875 891.0859,341.5313 Q892.4063,339.875 894.9063,339.875 Q895.6094,339.875 896.2578,340.0313 Q896.9063,340.1875 897.4688,340.4844 L897.4688,343.2031 Q896.8438,342.625 896.25,342.3516 Q895.6563,342.0781 895.0313,342.0781 Q893.6875,342.0781 893,343.1484 Q892.3125,344.2188 892.3125,346.3125 Q892.3125,348.4063 893,349.4766 Q893.6875,350.5469 895.0313,350.5469 Q895.6563,350.5469 896.25,350.2734 Q896.8438,350 897.4688,349.4219 L897.4688,352.1406 Z "/><text fill="#000000" font-family="sans-serif" font-size="12" lengthAdjust="spacingAndGlyphs" textLength="84" x="908.5" y="350.6543">WorkflowStep</text><line style="stroke: #A80036; stroke-width: 1.5;" x1="880.5" x2="994.5" y1="362.5" y2="362.5"/><text fill="#000000" font-family="sans-serif" font-size="11" lengthAdjust="spacingAndGlyphs" textLength="79" x="885.5" y="376.7104">resource : str</text><line style="stroke: #A80036; stroke-width: 1.5;" x1="880.5" x2="994.5" y1="383.3047" y2="383.3047"/><rect fill="#FEFECE" filter="url(#f1)" height="60.8047" style="stroke: #A80036; stroke-width: 1.5;" width="166" x="678" y="330.5"/><ellipse cx="733.75" cy="346.5" fill="#ADD1B2" rx="11" ry="11" style="stroke: #A80036; stroke-width: 1.0;"/><path d="M736.7188,352.1406 Q736.1406,352.4375 735.5,352.5859 Q734.8594,352.7344 734.1563,352.7344 Q731.6563,352.7344 730.3359,351.0859 Q729.0156,349.4375 729.0156,346.3125 Q729.0156,343.1875 730.3359,341.5313 Q731.6563,339.875 734.1563,339.875 Q734.8594,339.875 735.5078,340.0313 Q736.1563,340.1875 736.7188,340.4844 L736.7188,343.2031 Q736.0938,342.625 735.5,342.3516 Q734.9063,342.0781 734.2813,342.0781 Q732.9375,342.0781 732.25,343.1484 Q731.5625,344.2188 731.5625,346.3125 Q731.5625,348.4063 732.25,349.4766 Q732.9375,350.5469 734.2813,350.5469 Q734.9063,350.5469 735.5,350.2734 Q736.0938,350 736.7188,349.4219 L736.7188,352.1406 Z "/><text fill="#000000" font-family="sans-serif" font-size="12" lengthAdjust="spacingAndGlyphs" textLength="46" x="754.25" y="350.6543">OpStep</text><line style="stroke: #A80036; stroke-width: 1.5;" x1="679" x2="843" y1="362.5" y2="362.5"/><text fill="#000000" font-family="sans-serif" font-size="11" lengthAdjust="spacingAndGlyphs" textLength="154" x="684" y="376.7104">op_registration : Operation</text><line style="stroke: #A80036; stroke-width: 1.5;" x1="679" x2="843" y1="383.3047" y2="383.3047"/><rect fill="#FEFECE" filter="url(#f1)" height="60.8047" style="stroke: #A80036; stroke-width: 1.5;" width="129" x="213.75" y="330.5"/><ellipse cx="228.75" cy="346.5" fill="#ADD1B2" rx="11" ry="11" style="stroke: #A80036; stroke-width: 1.0;"/><path d="M231.7188,352.1406 Q231.1406,352.4375 230.5,352.5859 Q229.8594,352.7344 229.1563,352.7344 Q226.6563,352.7344 225.3359,351.0859 Q224.0156,349.4375 224.0156,346.3125 Q224.0156,343.1875 225.3359,341.5313 Q226.6563,339.875 229.1563,339.875 Q229.8594,339.875 230.5078,340.0313 Q231.1563,340.1875 231.7188,340.4844 L231.7188,343.2031 Q231.0938,342.625 230.5,342.3516 Q229.9063,342.0781 229.2813,342.0781 Q227.9375,342.0781 227.25,343.1484 Q226.5625,344.2188 226.5625,346.3125 Q226.5625,348.4063 227.25,349.4766 Q227.9375,350.5469 229.2813,350.5469 Q229.9063,350.5469 230.5,350.2734 Q231.0938,350 231.7188,349.4219 L231.7188,352.1406 Z "/><text fill="#000000" font-family="sans-serif" font-size="12" lengthAdjust="spacingAndGlyphs" textLength="97" x="242.75" y="350.6543">ExpressionStep</text><line style="stroke: #A80036; stroke-width: 1.5;" x1="214.75" x2="341.75" y1="362.5" y2="362.5"/><text fill="#000000" font-family="sans-serif" font-size="11" lengthAdjust="spacingAndGlyphs" textLength="91" x="219.75" y="376.7104">expression : str</text><line style="stroke: #A80036; stroke-width: 1.5;" x1="214.75" x2="341.75" y1="383.3047" y2="383.3047"/><rect fill="#FEFECE" filter="url(#f1)" height="60.8047" style="stroke: #A80036; stroke-width: 1.5;" width="135" x="377.75" y="330.5"/><ellipse cx="392.75" cy="346.5" fill="#ADD1B2" rx="11" ry="11" style="stroke: #A80036; stroke-width: 1.0;"/><path d="M395.7188,352.1406 Q395.1406,352.4375 394.5,352.5859 Q393.8594,352.7344 393.1563,352.7344 Q390.6563,352.7344 389.3359,351.0859 Q388.0156,349.4375 388.0156,346.3125 Q388.0156,343.1875 389.3359,341.5313 Q390.6563,339.875 393.1563,339.875 Q393.8594,339.875 394.5078,340.0313 Q395.1563,340.1875 395.7188,340.4844 L395.7188,343.2031 Q395.0938,342.625 394.5,342.3516 Q393.9063,342.0781 393.2813,342.0781 Q391.9375,342.0781 391.25,343.1484 Q390.5625,344.2188 390.5625,346.3125 Q390.5625,348.4063 391.25,349.4766 Q391.9375,350.5469 393.2813,350.5469 Q393.9063,350.5469 394.5,350.2734 Q395.0938,350 395.7188,349.4219 L395.7188,352.1406 Z "/><text fill="#000000" font-family="sans-serif" font-size="12" lengthAdjust="spacingAndGlyphs" textLength="103" x="406.75" y="350.6543">SubProcessStep</text><line style="stroke: #A80036; stroke-width: 1.5;" x1="378.75" x2="511.75" y1="362.5" y2="362.5"/><text fill="#000000" font-family="sans-serif" font-size="11" lengthAdjust="spacingAndGlyphs" textLength="118" x="383.75" y="376.7104">arguments : List[str]</text><line style="stroke: #A80036; stroke-width: 1.5;" x1="378.75" x2="511.75" y1="383.3047" y2="383.3047"/><rect fill="#FEFECE" filter="url(#f1)" height="48" style="stroke: #A80036; stroke-width: 1.5;" width="95" x="547.75" y="337"/><ellipse cx="562.75" cy="353" fill="#ADD1B2" rx="11" ry="11" style="stroke: #A80036; stroke-width: 1.0;"/><path d="M565.7188,358.6406 Q565.1406,358.9375 564.5,359.0859 Q563.8594,359.2344 563.1563,359.2344 Q560.6563,359.2344 559.3359,357.5859 Q558.0156,355.9375 558.0156,352.8125 Q558.0156,349.6875 559.3359,348.0313 Q560.6563,346.375 563.1563,346.375 Q563.8594,346.375 564.5078,346.5313 Q565.1563,346.6875 565.7188,346.9844 L565.7188,349.7031 Q565.0938,349.125 564.5,348.8516 Q563.9063,348.5781 563.2813,348.5781 Q561.9375,348.5781 561.25,349.6484 Q560.5625,350.7188 560.5625,352.8125 Q560.5625,354.9063 561.25,355.9766 Q561.9375,357.0469 563.2813,357.0469 Q563.9063,357.0469 564.5,356.7734 Q565.0938,356.5 565.7188,355.9219 L565.7188,358.6406 Z "/><text fill="#000000" font-family="sans-serif" font-size="12" lengthAdjust="spacingAndGlyphs" textLength="63" x="576.75" y="357.1543">NoOpStep</text><line style="stroke: #A80036; stroke-width: 1.5;" x1="548.75" x2="641.75" y1="369" y2="369"/><line style="stroke: #A80036; stroke-width: 1.5;" x1="548.75" x2="641.75" y1="377" y2="377"/><polygon fill="#FBFB77" filter="url(#f1)" points="126.5,15.5,126.5,86.0313,302.5,86.0313,302.5,25.5,292.5,15.5,126.5,15.5" style="stroke: #A80036; stroke-width: 1.0;"/><polygon fill="#FBFB77" points="126.5,15.5,126.5,86.0313,302.5,86.0313,302.5,55,371.863,51,302.5,47,302.5,25.5,292.5,15.5,126.5,15.5" style="stroke: #A80036; stroke-width: 1.0;"/><line style="stroke: #A80036; stroke-width: 1.0;" x1="292.5" x2="292.5" y1="15.5" y2="25.5"/><line style="stroke: #A80036; stroke-width: 1.0;" x1="302.5" x2="292.5" y1="25.5" y2="25.5"/><text fill="#000000" font-family="sans-serif" font-size="13" lengthAdjust="spacingAndGlyphs" textLength="117" x="132.5" y="32.5669">Collection pattern:</text><text fill="#000000" font-family="sans-serif" font-size="13" lengthAdjust="spacingAndGlyphs" textLength="135" x="132.5" y="47.6997">a Workflow is a Node,</text><text fill="#000000" font-family="sans-serif" font-size="13" lengthAdjust="spacingAndGlyphs" textLength="146" x="132.5" y="62.8325">and aggregates Steps,</text><text fill="#000000" font-family="sans-serif" font-size="13" lengthAdjust="spacingAndGlyphs" textLength="155" x="132.5" y="77.9653">which are Nodes as well.</text><path d="M120.089,280.18 C125.751,269.425 132.361,259.011 140,250 C203.994,174.519 303.97,117.239 371.872,84.17 " fill="none" style="stroke: #A80036; stroke-width: 1.0;"/><polygon fill="none" points="126.337,283.342,111.441,298.413,113.687,277.343,126.337,283.342" style="stroke: #A80036; stroke-width: 1.0;"/><path d="M133.51,282.018 C143.06,269.747 154.232,258.372 167,250 C207.574,223.395 351.006,206.296 414.44,199.87 " fill="none" style="stroke: #A80036; stroke-width: 1.0;"/><polygon fill="none" points="139.141,286.18,121.892,298.489,127.7,278.111,139.141,286.18" style="stroke: #A80036; stroke-width: 1.0;"/><path d="M414.453,207.682 C366.834,224.71 272.44,259.988 196,298 C191.624,300.176 187.185,302.468 182.73,304.838 " fill="none" style="stroke: #A80036; stroke-width: 1.0;"/><polygon fill="#A80036" points="178.273,307.231,188.0945,306.4974,182.6781,304.8656,184.3099,299.4492,178.273,307.231" style="stroke: #A80036; stroke-width: 1.0;"/><text fill="#000000" font-family="sans-serif" font-size="13" lengthAdjust="spacingAndGlyphs" textLength="42" x="298" y="263.0669">parent</text><path d="M495.297,201.794 C576.278,211.094 738.929,236.378 862,298 C878.466,306.244 894.506,318.708 907.499,330.304 " fill="none" style="stroke: #A80036; stroke-width: 1.0;"/><polygon fill="none" points="494.536,208.753,475.403,199.647,496.039,194.834,494.536,208.753" style="stroke: #A80036; stroke-width: 1.0;"/><path d="M494.015,218.153 C538.097,237.616 604.294,267.938 660,298 C678.378,307.918 698.06,319.717 715.123,330.348 " fill="none" style="stroke: #A80036; stroke-width: 1.0;"/><polygon fill="none" points="490.946,224.451,475.435,210.015,496.563,211.627,490.946,224.451" style="stroke: #A80036; stroke-width: 1.0;"/><path d="M406.935,234.154 C377.022,263.35 335.925,303.463 308.238,330.486 " fill="none" style="stroke: #A80036; stroke-width: 1.0;"/><polygon fill="none" points="402.225,228.969,421.427,220.008,412.004,238.987,402.225,228.969" style="stroke: #A80036; stroke-width: 1.0;"/><path d="M445,240.328 C445,268.808 445,305.322 445,330.486 " fill="none" style="stroke: #A80036; stroke-width: 1.0;"/><polygon fill="none" points="438,240.008,445,220.008,452,240.008,438,240.008" style="stroke: #A80036; stroke-width: 1.0;"/><path d="M479.776,234.79 C508.803,266.332 549.246,310.281 573.692,336.846 " fill="none" style="stroke: #A80036; stroke-width: 1.0;"/><polygon fill="none" points="474.565,239.465,466.173,220.008,484.867,229.985,474.565,239.465" style="stroke: #A80036; stroke-width: 1.0;"/><path d="M902.494,330.22 C889.966,319.746 875.557,308.081 862,298 C750.345,214.972 608.727,136.46 522.584,91.341 " fill="none" style="stroke: #A80036; stroke-width: 1.0;"/><polygon fill="#A80036" points="518.014,88.951,524.136,96.666,522.4448,91.2678,527.843,89.5766,518.014,88.951" style="stroke: #A80036; stroke-width: 1.0;"/><text fill="#000000" font-family="sans-serif" font-size="13" lengthAdjust="spacingAndGlyphs" textLength="53" x="747" y="200.0669">workflow</text><path d="M724.112,401.509 C686.815,441.457 629.825,502.497 594.85,539.958 " fill="none" style="stroke: #A80036; stroke-width: 1.0;"/><polygon fill="#A80036" points="585.603,549.862,594.6685,546.0128,589.015,546.2071,588.8207,540.5536,585.603,549.862" style="stroke: #A80036; stroke-width: 1.0;"/><line style="stroke: #A80036; stroke-width: 1.0;" x1="589.015" x2="594.475" y1="546.2071" y2="540.359"/><polygon fill="#FFFFFF" points="733.193,391.784,726.1747,393.4402,725.0041,400.5557,732.0225,398.8995,733.193,391.784" style="stroke: #A80036; stroke-width: 1.0;"/><path d="M189.302,424.785 C239.063,456.894 298.666,495.353 344.686,525.048 " fill="none" style="stroke: #A80036; stroke-width: 1.0;"/><polygon fill="#A80036" points="355.78,532.206,350.3867,523.9651,351.5788,529.4949,346.049,530.6871,355.78,532.206" style="stroke: #A80036; stroke-width: 1.0;"/><line style="stroke: #A80036; stroke-width: 1.0;" x1="351.5788" x2="344.856" y1="529.4949" y2="525.158"/><polygon fill="#FFFFFF" points="178.343,417.714,181.2162,424.328,188.4265,424.2196,185.5533,417.6056,178.343,417.714" style="stroke: #A80036; stroke-width: 1.0;"/><text fill="#000000" font-family="sans-serif" font-size="13" lengthAdjust="spacingAndGlyphs" textLength="87" x="257" y="467.0669">op_meta_info</text><path d="M445,107.346 C445,124.494 445,142.951 445,158.484 " fill="none" style="stroke: #A80036; stroke-width: 1.0;"/><polygon fill="#A80036" points="445,171.806,449,162.806,445,166.806,441,162.806,445,171.806" style="stroke: #A80036; stroke-width: 1.0;"/><line style="stroke: #A80036; stroke-width: 1.0;" x1="445" x2="445" y1="166.806" y2="158.806"/><polygon fill="#FFFFFF" points="445,94.131,441,100.131,445,106.131,449,100.131,445,94.131" style="stroke: #A80036; stroke-width: 1.0;"/><text fill="#000000" font-family="sans-serif" font-size="13" lengthAdjust="spacingAndGlyphs" textLength="35" x="446" y="137.0669">steps</text><text fill="#000000" font-family="sans-serif" font-size="13" lengthAdjust="spacingAndGlyphs" textLength="26" x="414.8828" y="160.7356">0..N</text></g></svg>