<?xml version="1.0" encoding="UTF-8" standalone="yes"?><svg xmlns="http://www.w3.org/2000/svg" xmlns:xlink="http://www.w3.org/1999/xlink" height="839px" style="width:564px;height:839px;" version="1.1" viewBox="0 0 564 839" width="564px"><defs><filter height="300%" id="f1" width="300%" x="-1" y="-1"><feGaussianBlur result="blurOut" stdDeviation="2.0"/><feColorMatrix in="blurOut" result="blurOut2" type="matrix" values="0 0 0 0 0 0 0 0 0 0 0 0 0 0 0 0 0 0 .4 0"/><feOffset dx="4.0" dy="4.0" in="blurOut2" result="blurOut3"/><feBlend in="SourceGraphic" in2="blurOut3" mode="normal"/></filter></defs><g><polygon fill="#FFFFFF" filter="url(#f1)" points="22,24,103,24,110,46.2969,299,46.2969,299,832,22,832,22,24" style="stroke: #000000; stroke-width: 2.0;"/><line style="stroke: #000000; stroke-width: 2.0;" x1="22" x2="110" y1="46.2969" y2="46.2969"/><text fill="#000000" font-family="sans-serif" font-size="14" font-weight="bold" lengthAdjust="spacingAndGlyphs" textLength="75" x="26" y="38.9951">cate.core</text><polygon fill="#FFFFFF" filter="url(#f1)" points="323,194,425,194,432,216.2969,557,216.2969,557,420,323,420,323,194" style="stroke: #000000; stroke-width: 2.0;"/><line style="stroke: #000000; stroke-width: 2.0;" x1="323" x2="432" y1="216.2969" y2="216.2969"/><text fill="#000000" font-family="sans-serif" font-size="14" font-weight="bold" lengthAdjust="spacingAndGlyphs" textLength="96" x="327" y="208.9951">cate.webapi</text><rect fill="#FEFECE" filter="url(#f1)" height="86.4141" style="stroke: #A80036; stroke-width: 1.5;" width="172" x="107" y="60"/><ellipse cx="129.2" cy="76" fill="#B4A7E5" rx="11" ry="11" style="stroke: #A80036; stroke-width: 1.0;"/><path d="M125.1219,71.7656 L125.1219,69.6094 L132.5125,69.6094 L132.5125,71.7656 L130.0438,71.7656 L130.0438,79.8438 L132.5125,79.8438 L132.5125,82 L125.1219,82 L125.1219,79.8438 L127.5906,79.8438 L127.5906,71.7656 L125.1219,71.7656 Z "/><text fill="#000000" font-family="sans-serif" font-size="12" font-style="italic" lengthAdjust="spacingAndGlyphs" textLength="124" x="144.8" y="80.1543">WorkspaceManager</text><line style="stroke: #A80036; stroke-width: 1.5;" x1="108" x2="278" y1="92" y2="92"/><line style="stroke: #A80036; stroke-width: 1.5;" x1="108" x2="278" y1="100" y2="100"/><text fill="#000000" font-family="sans-serif" font-size="11" lengthAdjust="spacingAndGlyphs" textLength="92" x="113" y="114.2104">init_workspace()</text><text fill="#000000" font-family="sans-serif" font-size="11" lengthAdjust="spacingAndGlyphs" textLength="150" x="113" y="127.0151">set_workspace_resource()</text><text fill="#000000" font-family="sans-serif" font-size="11" lengthAdjust="spacingAndGlyphs" textLength="160" x="113" y="139.8198">write_workspace_resource()</text><rect fill="#FEFECE" filter="url(#f1)" height="48" style="stroke: #A80036; stroke-width: 1.5;" width="171" x="86.75" y="230"/><ellipse cx="101.75" cy="246" fill="#ADD1B2" rx="11" ry="11" style="stroke: #A80036; stroke-width: 1.0;"/><path d="M104.7188,251.6406 Q104.1406,251.9375 103.5,252.0859 Q102.8594,252.2344 102.1563,252.2344 Q99.6563,252.2344 98.3359,250.5859 Q97.0156,248.9375 97.0156,245.8125 Q97.0156,242.6875 98.3359,241.0313 Q99.6563,239.375 102.1563,239.375 Q102.8594,239.375 103.5078,239.5313 Q104.1563,239.6875 104.7188,239.9844 L104.7188,242.7031 Q104.0938,242.125 103.5,241.8516 Q102.9063,241.5781 102.2813,241.5781 Q100.9375,241.5781 100.25,242.6484 Q99.5625,243.7188 99.5625,245.8125 Q99.5625,247.9063 100.25,248.9766 Q100.9375,250.0469 102.2813,250.0469 Q102.9063,250.0469 103.5,249.7734 Q104.0938,249.5 104.7188,248.9219 L104.7188,251.6406 Z "/><text fill="#000000" font-family="sans-serif" font-size="12" lengthAdjust="spacingAndGlyphs" textLength="139" x="115.75" y="250.1543">FSWorkspaceManager</text><line style="stroke: #A80036; stroke-width: 1.5;" x1="87.75" x2="256.75" y1="262" y2="262"/><line style="stroke: #A80036; stroke-width: 1.5;" x1="87.75" x2="256.75" y1="270" y2="270"/><rect fill="#FEFECE" filter="url(#f1)" height="48" style="stroke: #A80036; stroke-width: 1.5;" width="101" x="77.75" y="548"/><ellipse cx="92.75" cy="564" fill="#ADD1B2" rx="11" ry="11" style="stroke: #A80036; stroke-width: 1.0;"/><path d="M95.7188,569.6406 Q95.1406,569.9375 94.5,570.0859 Q93.8594,570.2344 93.1563,570.2344 Q90.6563,570.2344 89.3359,568.5859 Q88.0156,566.9375 88.0156,563.8125 Q88.0156,560.6875 89.3359,559.0313 Q90.6563,557.375 93.1563,557.375 Q93.8594,557.375 94.5078,557.5313 Q95.1563,557.6875 95.7188,557.9844 L95.7188,560.7031 Q95.0938,560.125 94.5,559.8516 Q93.9063,559.5781 93.2813,559.5781 Q91.9375,559.5781 91.25,560.6484 Q90.5625,561.7188 90.5625,563.8125 Q90.5625,565.9063 91.25,566.9766 Q91.9375,568.0469 93.2813,568.0469 Q93.9063,568.0469 94.5,567.7734 Q95.0938,567.5 95.7188,566.9219 L95.7188,569.6406 Z "/><text fill="#000000" font-family="sans-serif" font-size="12" lengthAdjust="spacingAndGlyphs" textLength="69" x="106.75" y="568.1543">Workspace</text><line style="stroke: #A80036; stroke-width: 1.5;" x1="78.75" x2="177.75" y1="580" y2="580"/><line style="stroke: #A80036; stroke-width: 1.5;" x1="78.75" x2="177.75" y1="588" y2="588"/><rect fill="#FEFECE" filter="url(#f1)" height="48" style="stroke: #A80036; stroke-width: 1.5;" width="87" x="84.75" y="658"/><ellipse cx="99.75" cy="674" fill="#ADD1B2" rx="11" ry="11" style="stroke: #A80036; stroke-width: 1.0;"/><path d="M102.7188,679.6406 Q102.1406,679.9375 101.5,680.0859 Q100.8594,680.2344 100.1563,680.2344 Q97.6563,680.2344 96.3359,678.5859 Q95.0156,676.9375 95.0156,673.8125 Q95.0156,670.6875 96.3359,669.0313 Q97.6563,667.375 100.1563,667.375 Q100.8594,667.375 101.5078,667.5313 Q102.1563,667.6875 102.7188,667.9844 L102.7188,670.7031 Q102.0938,670.125 101.5,669.8516 Q100.9063,669.5781 100.2813,669.5781 Q98.9375,669.5781 98.25,670.6484 Q97.5625,671.7188 97.5625,673.8125 Q97.5625,675.9063 98.25,676.9766 Q98.9375,678.0469 100.2813,678.0469 Q100.9063,678.0469 101.5,677.7734 Q102.0938,677.5 102.7188,676.9219 L102.7188,679.6406 Z "/><text fill="#000000" font-family="sans-serif" font-size="12" lengthAdjust="spacingAndGlyphs" textLength="55" x="113.75" y="678.1543">Workflow</text><line style="stroke: #A80036; stroke-width: 1.5;" x1="85.75" x2="170.75" y1="690" y2="690"/><line style="stroke: #A80036; stroke-width: 1.5;" x1="85.75" x2="170.75" y1="698" y2="698"/><rect fill="#FEFECE" filter="url(#f1)" height="48" style="stroke: #A80036; stroke-width: 1.5;" width="78" x="89" y="768"/><ellipse cx="104" cy="784" fill="#ADD1B2" rx="11" ry="11" style="stroke: #A80036; stroke-width: 1.0;"/><path d="M106.9688,789.6406 Q106.3906,789.9375 105.75,790.0859 Q105.1094,790.2344 104.4063,790.2344 Q101.9063,790.2344 100.5859,788.5859 Q99.2656,786.9375 99.2656,783.8125 Q99.2656,780.6875 100.5859,779.0313 Q101.9063,777.375 104.4063,777.375 Q105.1094,777.375 105.7578,777.5313 Q106.4063,777.6875 106.9688,777.9844 L106.9688,780.7031 Q106.3438,780.125 105.75,779.8516 Q105.1563,779.5781 104.5313,779.5781 Q103.1875,779.5781 102.5,780.6484 Q101.8125,781.7188 101.8125,783.8125 Q101.8125,785.9063 102.5,786.9766 Q103.1875,788.0469 104.5313,788.0469 Q105.1563,788.0469 105.75,787.7734 Q106.3438,787.5 106.9688,786.9219 L106.9688,789.6406 Z "/><text fill="#000000" font-family="sans-serif" font-size="12" lengthAdjust="spacingAndGlyphs" textLength="46" x="118" y="788.1543">OpStep</text><line style="stroke: #A80036; stroke-width: 1.5;" x1="90" x2="166" y1="800" y2="800"/><line style="stroke: #A80036; stroke-width: 1.5;" x1="90" x2="166" y1="808" y2="808"/><rect fill="#FEFECE" filter="url(#f1)" height="48" style="stroke: #A80036; stroke-width: 1.5;" width="202" x="339" y="230"/><ellipse cx="354" cy="246" fill="#ADD1B2" rx="11" ry="11" style="stroke: #A80036; stroke-width: 1.0;"/><path d="M356.9688,251.6406 Q356.3906,251.9375 355.75,252.0859 Q355.1094,252.2344 354.4063,252.2344 Q351.9063,252.2344 350.5859,250.5859 Q349.2656,248.9375 349.2656,245.8125 Q349.2656,242.6875 350.5859,241.0313 Q351.9063,239.375 354.4063,239.375 Q355.1094,239.375 355.7578,239.5313 Q356.4063,239.6875 356.9688,239.9844 L356.9688,242.7031 Q356.3438,242.125 355.75,241.8516 Q355.1563,241.5781 354.5313,241.5781 Q353.1875,241.5781 352.5,242.6484 Q351.8125,243.7188 351.8125,245.8125 Q351.8125,247.9063 352.5,248.9766 Q353.1875,250.0469 354.5313,250.0469 Q355.1563,250.0469 355.75,249.7734 Q356.3438,249.5 356.9688,248.9219 L356.9688,251.6406 Z "/><text fill="#000000" font-family="sans-serif" font-size="12" lengthAdjust="spacingAndGlyphs" textLength="170" x="368" y="250.1543">WebAPIWorkspaceManager</text><line style="stroke: #A80036; stroke-width: 1.5;" x1="340" x2="540" y1="262" y2="262"/><line style="stroke: #A80036; stroke-width: 1.5;" x1="340" x2="540" y1="270" y2="270"/><rect fill="#FEFECE" filter="url(#f1)" height="48" style="stroke: #A80036; stroke-width: 1.5;" width="105" x="348.75" y="356"/><ellipse cx="363.75" cy="372" fill="#B4A7E5" rx="11" ry="11" style="stroke: #A80036; stroke-width: 1.0;"/><path d="M359.6719,367.7656 L359.6719,365.6094 L367.0625,365.6094 L367.0625,367.7656 L364.5938,367.7656 L364.5938,375.8438 L367.0625,375.8438 L367.0625,378 L359.6719,378 L359.6719,375.8438 L362.1406,375.8438 L362.1406,367.7656 L359.6719,367.7656 Z "/><text fill="#000000" font-family="sans-serif" font-size="12" font-style="italic" lengthAdjust="spacingAndGlyphs" textLength="73" x="377.75" y="376.1543">WebService</text><line style="stroke: #A80036; stroke-width: 1.5;" x1="349.75" x2="452.75" y1="388" y2="388"/><line style="stroke: #A80036; stroke-width: 1.5;" x1="349.75" x2="452.75" y1="396" y2="396"/><path d="M184.233,166.206 C181.075,188.612 177.702,212.544 175.299,229.591 " fill="none" style="stroke: #A80036; stroke-width: 1.0; stroke-dasharray: 7.0,7.0;"/><polygon fill="none" points="177.316,165.126,187.038,146.299,191.179,167.08,177.316,165.126" style="stroke: #A80036; stroke-width: 1.0;"/><path d="M280.188,156.595 C321.792,181.693 369.43,210.43 401.793,229.952 " fill="none" style="stroke: #A80036; stroke-width: 1.0; stroke-dasharray: 7.0,7.0;"/><polygon fill="none" points="276.299,162.425,262.79,146.1,283.531,150.437,276.299,162.425" style="stroke: #A80036; stroke-width: 1.0;"/><path d="M432.756,278.033 C426.284,298.609 416.784,328.814 409.862,350.824 " fill="none" style="stroke: #A80036; stroke-width: 1.0; stroke-dasharray: 7.0,7.0;"/><polygon fill="#A80036" points="408.338,355.67,414.8543,348.285,409.8383,350.9004,407.2229,345.8845,408.338,355.67" style="stroke: #A80036; stroke-width: 1.0;"/><text fill="#000000" font-family="sans-serif" font-size="13" lengthAdjust="spacingAndGlyphs" textLength="110" x="423" y="321.0669">&lt;communicate&gt;</text><path d="M153.693,278.151 C129.001,311.006 86.2481,374.072 70,436 C59.7993,474.879 84.1293,517.042 104.3465,543.717 " fill="none" style="stroke: #A80036; stroke-width: 1.0; stroke-dasharray: 7.0,7.0;"/><polygon fill="#A80036" points="107.55,547.863,105.2121,538.2956,104.4928,543.9066,98.8818,543.1872,107.55,547.863" style="stroke: #A80036; stroke-width: 1.0;"/><text fill="#000000" font-family="sans-serif" font-size="13" lengthAdjust="spacingAndGlyphs" textLength="52" x="71" y="449.0669">&lt;uses&gt;</text><path d="M166.92,291.48 C158.444,352.353 141.514,473.942 133.055,534.697 " fill="none" style="stroke: #A80036; stroke-width: 1.0;"/><polygon fill="#A80036" points="131.24,547.73,136.443,539.3677,131.9296,542.7778,128.5194,538.2643,131.24,547.73" style="stroke: #A80036; stroke-width: 1.0;"/><line style="stroke: #A80036; stroke-width: 1.0;" x1="131.9296" x2="133.0335" y1="542.7778" y2="534.8535"/><polygon fill="#FFFFFF" points="168.765,278.236,163.9752,283.6265,167.1088,290.1212,171.8986,284.7307,168.765,278.236" style="stroke: #A80036; stroke-width: 1.0;"/><text fill="#000000" font-family="sans-serif" font-size="13" lengthAdjust="spacingAndGlyphs" textLength="112" x="148" y="449.0669">workspace_cache</text><text fill="#000000" font-family="sans-serif" font-size="13" lengthAdjust="spacingAndGlyphs" textLength="26" x="101.9694" y="537.0518">0..N</text><path d="M346.421,349.446 C310.016,329.733 262.357,303.927 226.059,284.272 " fill="none" style="stroke: #A80036; stroke-width: 1.0;"/><polygon fill="#A80036" points="214.536,278.033,220.5456,285.8359,218.9328,280.4138,224.3549,278.801,214.536,278.033" style="stroke: #A80036; stroke-width: 1.0;"/><line style="stroke: #A80036; stroke-width: 1.0;" x1="218.9328" x2="225.9685" y1="280.4138" y2="284.223"/><polygon fill="#FFFFFF" points="358.303,355.88,354.9315,349.5056,347.7507,350.166,351.1222,356.5405,358.303,355.88" style="stroke: #A80036; stroke-width: 1.0;"/><text fill="#000000" font-family="sans-serif" font-size="13" lengthAdjust="spacingAndGlyphs" textLength="8" x="215.0905" y="298.1972">1</text><path d="M128,596.169 C128,612.683 128,634.982 128,652.573 " fill="none" style="stroke: #A80036; stroke-width: 1.0;"/><polygon fill="#A80036" points="128,657.87,132,648.87,128,652.87,124,648.87,128,657.87" style="stroke: #A80036; stroke-width: 1.0;"/><text fill="#000000" font-family="sans-serif" font-size="13" lengthAdjust="spacingAndGlyphs" textLength="8" x="117.8516" y="646.8136">1</text><path d="M128,719.475 C128,730.852 128,743.393 128,754.7541 " fill="none" style="stroke: #A80036; stroke-width: 1.0;"/><polygon fill="#A80036" points="128,767.8696,132,758.8696,128,762.8696,124,758.8696,128,767.8696" style="stroke: #A80036; stroke-width: 1.0;"/><line style="stroke: #A80036; stroke-width: 1.0;" x1="128" x2="128" y1="762.8696" y2="754.8696"/><polygon fill="#FFFFFF" points="128,706.169,124,712.169,128,718.169,132,712.169,128,706.169" style="stroke: #A80036; stroke-width: 1.0;"/><text fill="#000000" font-family="sans-serif" font-size="13" lengthAdjust="spacingAndGlyphs" textLength="26" x="97.9375" y="756.8131">0..N</text></g></svg>